<svg xmlns="http://www.w3.org/2000/svg" width="84.333" height="82.644" viewBox="0 0 84.333 82.644"><path d="M26.417,16.186c-.4.076-.8.166-1.184.26Q23.7,14.67,22.06,9.57h0a1.028,1.028,0,1,0-.507.166,23.6,23.6,0,0,1,1.25,7.5,18.1,18.1,0,0,0-2.927,1.5q-2.927-1.051-8.183-7h0a1.386,1.386,0,1,0-.535.478h0q4.809,5.8,5.716,8.936a15.791,15.791,0,0,0-1.373,1.6A28.8,28.8,0,0,1,10.738,20.2h0a.939.939,0,1,0-.256.417h0A30.9,30.9,0,0,1,14.7,23.933a15.475,15.475,0,0,0-1.3,2.652Q10.444,27.6,2.735,26.428h0a1.375,1.375,0,1,0-.1.715h0q7.1,1.314,9.878,3.035a15.838,15.838,0,0,0-.109,2.732,22.032,22.032,0,0,1-6.033.9h0a.9.9,0,0,0-.9-.616.9.9,0,1,0,.09,1.795.9.9,0,0,0,.838-.715,23.592,23.592,0,0,1,6.189.5,17.634,17.634,0,0,0,.549,2.41Q11.9,39,5.567,40.791h0a1.005,1.005,0,1,0,.147.5h0q7-1.74,8.879-.53c.014-.014.024-.033.038-.047.062.109.118.213.18.322q-1.833,2.522-7.78,6.2h0a1.353,1.353,0,1,0,.384.6h0Q13.6,44.274,16.79,43.8a18.878,18.878,0,0,0,1.444,1.506,30.351,30.351,0,0,1-4.451,5.039h0a1.087,1.087,0,1,0,.4.407,31.536,31.536,0,0,1,5.55-4.191,17.821,17.821,0,0,0,1.534,1.042q-.142,2.465-3.22,7.728h0a1.087,1.087,0,1,0,.492.279h0q3.324-5.3,5.5-6.634a17.016,17.016,0,0,0,1.615.545q.625,3.58-.369,10.849h0a1.521,1.521,0,1,0,.786.137h0q1.243-7.3,2.96-10.38c.587.047,1.184.066,1.785.057a20.981,20.981,0,0,1,1.231,6.308.887.887,0,0,0-.616.886.882.882,0,1,0,1.075-.9,18.842,18.842,0,0,1,.431-6.454c.336-.047.668-.1,1-.166q1.683,1.1,3.746,6.469a.888.888,0,1,0,.44-.147q-1.847-5.306-1.255-7.155a19.093,19.093,0,0,0,1.828-.805,19.056,19.056,0,0,1,2.988,3.523.7.7,0,0,0-.066.848.694.694,0,1,0,.369-1.042,18.323,18.323,0,0,1-2.117-3.978,19.29,19.29,0,0,0,2.865-2.1,37.114,37.114,0,0,1,3.594,2.889h0A.955.955,0,1,0,46.675,48a34.215,34.215,0,0,1-3.106-3.32A19.4,19.4,0,0,0,45.4,42.562a34.979,34.979,0,0,1,6.876,3.225,1.2,1.2,0,1,0,.336-.521h0a32.671,32.671,0,0,1-6.028-4.5c.3-.516.568-1.051.814-1.6a21.368,21.368,0,0,1,6.374.876h0A.881.881,0,1,0,53.9,39.6h0a20.5,20.5,0,0,1-5.782-2.339,16.829,16.829,0,0,0,.658-3.163,26.856,26.856,0,0,1,4.394-.223h0a.789.789,0,1,0,.024-.407h0a24.827,24.827,0,0,1-4.338-.511c0-.071,0-.137,0-.208a15.4,15.4,0,0,0-.213-2.936,33.109,33.109,0,0,1,7.828-2.207,1.211,1.211,0,1,0-.09-.625h0a28.989,28.989,0,0,1-8.368.388,15.432,15.432,0,0,0-1.52-3.163,32.743,32.743,0,0,1,3.078-2.33.832.832,0,1,0-.227-.369,30.041,30.041,0,0,1-3.386,1.9,16.625,16.625,0,0,0-1.672-1.984,31.664,31.664,0,0,1,4.688-6.933h0a1.2,1.2,0,1,0-.474-.421,28.769,28.769,0,0,1-6.17,5.659,19.145,19.145,0,0,0-5.091-2.718,23.931,23.931,0,0,1,1.184-6.644.946.946,0,1,0-.469-.152A21.594,21.594,0,0,1,35.182,16.4a20.724,20.724,0,0,0-2.519-.44h0Q30.12,13.917,30.134,3.007a1.537,1.537,0,1,0-.8,0h0q-.369,10.946-2.917,13.174Z" transform="translate(84.326 31.724) rotate(120)" fill="#d95c00" fill-rule="evenodd"/></svg>