<svg xmlns="http://www.w3.org/2000/svg" width="37.391" height="37.329" viewBox="0 0 37.391 37.329"><g transform="translate(325.5 -98.8)"><path d="M-152.241,201.023h-14.608L-171.5,171.1h19.248a2.356,2.356,0,0,1,2.356,2.356v25.21A2.341,2.341,0,0,1-152.241,201.023Z" transform="translate(-138.224 -64.894)" fill="#e5e5e5"/><path d="M-152.241,201.023h-14.608L-171.5,171.1h4.128l17.487,17.353v10.213A2.356,2.356,0,0,1-152.241,201.023Z" transform="translate(-138.224 -64.894)" fill="#d9d9d9"/><path d="M-147.282,401.448l6.423-7.048H-149.7Z" transform="translate(-157.791 -265.319)" fill="#4455b7"/><path d="M-323.144,98.8h14.731l9.752,30.292h-24.483a2.356,2.356,0,0,1-2.356-2.356V101.156A2.356,2.356,0,0,1-323.144,98.8Z" fill="#518ff5"/><path d="M-101.92,238.06h3.073v-1.434h-7.007V234.3h-2.356v2.356H-112v1.4h8.38a10.875,10.875,0,0,1-2.53,4.61,12.3,12.3,0,0,1-1.957-2.848h-1.864a17.216,17.216,0,0,0,1.537,2.622,14.657,14.657,0,0,0,1.158,1.393c-1.547,1.588-2.407,2.366-2.407,2.366l1.178.983s1.086-.983,2.284-2.2c1.957,2.069,4.395,4.466,4.395,4.466l1.117-1.209s-1.444-1.373-4.1-4.1c-.1-.113-.2-.215-.307-.318.44-.481.85-.963,1.188-1.414A11.65,11.65,0,0,0-101.92,238.06Z" transform="translate(-191.629 -121.619)" fill="#607b88"/><path d="M-277.226,190.055v2.4h3.34a2.887,2.887,0,0,1-1.229,1.9,3.434,3.434,0,0,1-1.352.533,4.14,4.14,0,0,1-1.465,0,3.527,3.527,0,0,1-1.362-.594,3.791,3.791,0,0,1-1.4-1.885,3.665,3.665,0,0,1,0-2.387,3.842,3.842,0,0,1,.891-1.444,3.622,3.622,0,0,1,1.834-1.014,3.707,3.707,0,0,1,1.8.072,3.327,3.327,0,0,1,1.321.779l1.127-1.127c.195-.2.41-.4.594-.6a5.809,5.809,0,0,0-1.977-1.219,6.27,6.27,0,0,0-4.128-.041,6.156,6.156,0,0,0-3.473,3.042,5.947,5.947,0,0,0-.533,1.537,6.163,6.163,0,0,0,.533,3.964,6.213,6.213,0,0,0,1.67,2.049,6.134,6.134,0,0,0,2.233,1.127,6.491,6.491,0,0,0,3.135.031,5.444,5.444,0,0,0,2.51-1.311,5.566,5.566,0,0,0,1.547-2.551,7.151,7.151,0,0,0,.154-3.258C-273.384,190.055-275.31,190.055-277.226,190.055Z" transform="translate(-37.825 -77.446)" fill="#fff"/></g></svg>