<svg xmlns="http://www.w3.org/2000/svg" xmlns:xlink="http://www.w3.org/1999/xlink" width="320.426" height="320.426" viewBox="0 0 320.426 320.426"><defs><linearGradient id="a" x1="-5.054" y1="5.048" x2="-5.055" y2="5.05" gradientUnits="objectBoundingBox"><stop offset="0" stop-color="#f59d9b"/><stop offset="1" stop-color="#e73151"/></linearGradient><linearGradient id="b" x1="-9.074" y1="5.47" x2="-9.076" y2="5.473" xlink:href="#a"/><linearGradient id="c" x1="-8.957" y1="10.794" x2="-8.958" y2="10.8" xlink:href="#a"/><linearGradient id="d" x1="-356.153" y1="311.667" x2="-356.214" y2="311.849" xlink:href="#a"/></defs><path d="M653.35,186.337A160.213,160.213,0,1,0,423.914,330.881l.034-.233a159.988,159.988,0,1,1,135.615,1.294l.029.233A160.259,160.259,0,0,0,653.35,186.337Z" transform="translate(-332.924 -26.105)" fill="#fff"/><path d="M433.35,268.339l.217-.649s-3.246,1.287-18.182-13.4,13.64-70.4,28.253-88.049,32.225-20.205,32.225-20.205q6.36-.524,11.961-.67a68.125,68.125,0,0,0,3.745-12.969s-5.759-.682-5.784-7.4.193-12.7,4.041-12.381h0c-4.013-3.933-2.054-9.843-2.053-9.842-1.461-14.37,18-27.9,28.978-24.93s16.935,12.262,19.463,11.608,9.165-8.047,21.183.156-2.534,18.647-8.667,21.846a6.839,6.839,0,0,1-4.468.649,27.336,27.336,0,0,1,.662,5.891,54.989,54.989,0,0,1-2.582,16.237,72.8,72.8,0,0,1-2.951,8.249l23.177-1.579.069,1.023-23.711,1.616a51.45,51.45,0,0,1-5.317,9.239,42.506,42.506,0,0,1,10.123,6.909,18.317,18.317,0,0,1,2.551,3.384l3.7,2.921-.635.805-1.57-1.238c9.783,16.946,29.109,62.5,27.724,69.981-.674,3.638,2.736,14.349-5.629,18.664-10.828,5.586-20.05-2.437-20.05-2.437l10.012,80.451a159.99,159.99,0,1,0-135.615-1.294c4.167-29.013,8.521-57.809,9.239-62.548ZM553.223,153.545l-16.79-3.534.211-1,16.791,3.534ZM495.458,83.212a.342.342,0,0,1,.4.554c-.115.083-11.48,8.479-10.048,20.209a.342.342,0,0,1-.3.381l-.041,0a.342.342,0,0,1-.339-.3C483.651,91.923,495.339,83.3,495.458,83.212Z" transform="translate(-333.2 -26.381)" fill="#fff" opacity="0.668"/><path d="M605.005,721.238a158.946,158.946,0,0,1-69.013-15.655l-.034.232a160.189,160.189,0,0,0,135.33,1.291l-.029-.232A159,159,0,0,1,605.005,721.238Z" transform="translate(-444.799 -401.036)" fill="#c1cf95"/><path d="M792.587,318.38a18.265,18.265,0,0,0-2.544-3.375,42.4,42.4,0,0,0-10.1-6.891c-.046.063-.09.127-.136.19Z" transform="translate(-579.517 -181.722)" fill="#c1cf95"/><path d="M684.686,238.345a18.2,18.2,0,0,1,.488-3.115.511.511,0,1,1,.98.292,17.532,17.532,0,0,0-.439,2.852c15.828.51,26.409,3.314,33.61,6.548l.129-.164.677.534c.329.155.654.31.968.466a51.307,51.307,0,0,0,5.3-9.214l-4.208.287-.07-1.021,4.742-.323a72.605,72.605,0,0,0,2.944-8.227,54.832,54.832,0,0,0,2.576-16.194,27.256,27.256,0,0,0-.66-5.875c-4.774-.829-9.666-5.8-14.2-8.365-5.964-3.373-7.309-.139-11.3,1.664s-5.06-2.946-11.616-2.728-7.176,9.327-5.9,13.25-1.612,8.086-4.56,9.643-2.81-5.752-2.717-9.028-4.006-3.924-4.006-3.924l0,0h0c-3.838-.316-4.056,5.651-4.031,12.348s5.77,7.377,5.77,7.377a67.946,67.946,0,0,1-3.736,12.934Q680.331,238.228,684.686,238.345Zm44.267-13.12c-.137.661-2.085.815-4.349.344s-3.989-1.389-3.851-2.05,2.085-.815,4.35-.344S729.09,224.564,728.953,225.225Zm-.661-8.987a.511.511,0,0,1-.163,1h0a.514.514,0,0,1-.164-.027l-6.553-2.215a.511.511,0,0,1,.081-.989l6.552-1.076a.511.511,0,1,1,.166,1.009l-4.528.744Zm-8.412-8.791a.511.511,0,0,1,.693-.169c.056.034,5.649,3.373,8.47.677a.512.512,0,0,1,.707.74,5.07,5.07,0,0,1-3.628,1.34,13.489,13.489,0,0,1-6.08-1.883A.511.511,0,0,1,719.88,207.447Zm-6.187,4.547a.511.511,0,0,1,1.02.078c0,.058-.42,5.851,1.61,8,.286.3.555.576.8.831,1.146,1.169,1.9,1.942,1.828,2.86a2.528,2.528,0,0,1-1.183,1.661l-.38.279c-1.618,1.189-2.288,1.682-2.5,2.423a.512.512,0,1,1-.986-.278h0c.307-1.079,1.112-1.671,2.876-2.969l.38-.278c.492-.362.75-.671.771-.92.037-.453-.659-1.164-1.539-2.063-.253-.258-.526-.537-.816-.843C713.24,218.3,713.674,212.25,713.694,211.993Zm3.521,28.418c0,2.375-2.807,1.728-6.37,0s-7.667-.216-5.939-3.455S711.6,234.8,711.6,234.8C718.834,236.956,717.215,238.036,717.215,240.412Zm-13.83-37.78a.511.511,0,0,1,.67.272c1.516,3.595,7.974,2.758,8.038,2.748a.512.512,0,0,1,.139,1.013,14.521,14.521,0,0,1-1.828.108c-2.284,0-6.031-.482-7.291-3.471A.511.511,0,0,1,703.385,202.632Zm-.244,10.408h.005l4.866.05-4.029-2.2a.511.511,0,1,1,.49-.9l5.83,3.178a.511.511,0,0,1-.244.961h-.007l-6.916-.071a.511.511,0,1,1,.005-1.023Zm-.613,7.211c3.607.281,6.475,1.231,6.406,2.122s-3.05,1.387-6.658,1.106-6.475-1.231-6.406-2.123S698.92,219.97,702.528,220.251Zm-5.954-7.391a16.139,16.139,0,0,1,.431,3.377c-.168.551-1.238,1.642-1.954.658S696.574,212.86,696.574,212.86Zm-2.766-4.482a15.75,15.75,0,0,1,.6,3.789c-.081,1.344-2.435,2.811-2.848.957S693.808,208.379,693.808,208.379Zm-5.985,8.755.393,2.029-3.914,2.819-.577-1.379Zm-9.688-5.342c.895.708,2.248,1.778,1.229,3.38a8.2,8.2,0,0,1-1.856,1.958c-.974.8-1.34,1.1-.8,2.168a.512.512,0,0,1-.457.742l-.006,0a.511.511,0,0,1-.457-.28c-.907-1.8.095-2.621,1.064-3.417a7.25,7.25,0,0,0,1.645-1.717c.474-.746.059-1.191-1-2.029-.8-.633-1.891-1.495-1.076-2.664a1.818,1.818,0,0,1,1.495-.924h.007a2.4,2.4,0,0,1,1.731,1.076.511.511,0,1,1-.845.577c-.114-.164-.519-.628-.893-.628-.211,0-.431.163-.655.484C677.059,210.808,677.148,211.011,678.136,211.792Z" transform="translate(-520.726 -119.47)" fill="#fff"/><path d="M684.686,238.345a18.2,18.2,0,0,1,.488-3.115.511.511,0,1,1,.98.292,17.532,17.532,0,0,0-.439,2.852c15.828.51,26.409,3.314,33.61,6.548l.129-.164.677.534c.329.155.654.31.968.466a51.307,51.307,0,0,0,5.3-9.214l-4.208.287-.07-1.021,4.742-.323a72.605,72.605,0,0,0,2.944-8.227,54.832,54.832,0,0,0,2.576-16.194,27.256,27.256,0,0,0-.66-5.875c-4.774-.829-9.666-5.8-14.2-8.365-5.964-3.373-7.309-.139-11.3,1.664s-5.06-2.946-11.616-2.728-7.176,9.327-5.9,13.25-1.612,8.086-4.56,9.643-2.81-5.752-2.717-9.028-4.006-3.924-4.006-3.924l0,0h0c-3.838-.316-4.056,5.651-4.031,12.348s5.77,7.377,5.77,7.377a67.946,67.946,0,0,1-3.736,12.934Q680.331,238.228,684.686,238.345Zm44.267-13.12c-.137.661-2.085.815-4.349.344s-3.989-1.389-3.851-2.05,2.085-.815,4.35-.344S729.09,224.564,728.953,225.225Zm-.661-8.987a.511.511,0,0,1-.163,1h0a.514.514,0,0,1-.164-.027l-6.553-2.215a.511.511,0,0,1,.081-.989l6.552-1.076a.511.511,0,1,1,.166,1.009l-4.528.744Zm-8.412-8.791a.511.511,0,0,1,.693-.169c.056.034,5.649,3.373,8.47.677a.512.512,0,0,1,.707.74,5.07,5.07,0,0,1-3.628,1.34,13.489,13.489,0,0,1-6.08-1.883A.511.511,0,0,1,719.88,207.447Zm-6.187,4.547a.511.511,0,0,1,1.02.078c0,.058-.42,5.851,1.61,8,.286.3.555.576.8.831,1.146,1.169,1.9,1.942,1.828,2.86a2.528,2.528,0,0,1-1.183,1.661l-.38.279c-1.618,1.189-2.288,1.682-2.5,2.423a.512.512,0,1,1-.986-.278h0c.307-1.079,1.112-1.671,2.876-2.969l.38-.278c.492-.362.75-.671.771-.92.037-.453-.659-1.164-1.539-2.063-.253-.258-.526-.537-.816-.843C713.24,218.3,713.674,212.25,713.694,211.993Zm3.521,28.418c0,2.375-2.807,1.728-6.37,0s-7.667-.216-5.939-3.455S711.6,234.8,711.6,234.8C718.834,236.956,717.215,238.036,717.215,240.412Zm-13.83-37.78a.511.511,0,0,1,.67.272c1.516,3.595,7.974,2.758,8.038,2.748a.512.512,0,0,1,.139,1.013,14.521,14.521,0,0,1-1.828.108c-2.284,0-6.031-.482-7.291-3.471A.511.511,0,0,1,703.385,202.632Zm-.244,10.408h.005l4.866.05-4.029-2.2a.511.511,0,1,1,.49-.9l5.83,3.178a.511.511,0,0,1-.244.961h-.007l-6.916-.071a.511.511,0,1,1,.005-1.023Zm-.613,7.211c3.607.281,6.475,1.231,6.406,2.122s-3.05,1.387-6.658,1.106-6.475-1.231-6.406-2.123S698.92,219.97,702.528,220.251Zm-5.954-7.391a16.139,16.139,0,0,1,.431,3.377c-.168.551-1.238,1.642-1.954.658S696.574,212.86,696.574,212.86Zm-2.766-4.482a15.75,15.75,0,0,1,.6,3.789c-.081,1.344-2.435,2.811-2.848.957S693.808,208.379,693.808,208.379Zm-5.985,8.755.393,2.029-3.914,2.819-.577-1.379Zm-9.688-5.342c.895.708,2.248,1.778,1.229,3.38a8.2,8.2,0,0,1-1.856,1.958c-.974.8-1.34,1.1-.8,2.168a.512.512,0,0,1-.457.742l-.006,0a.511.511,0,0,1-.457-.28c-.907-1.8.095-2.621,1.064-3.417a7.25,7.25,0,0,0,1.645-1.717c.474-.746.059-1.191-1-2.029-.8-.633-1.891-1.495-1.076-2.664a1.818,1.818,0,0,1,1.495-.924h.007a2.4,2.4,0,0,1,1.731,1.076.511.511,0,1,1-.845.577c-.114-.164-.519-.628-.893-.628-.211,0-.431.163-.655.484C677.059,210.808,677.148,211.011,678.136,211.792Z" transform="translate(-520.726 -119.47)" fill="url(#a)"/><path d="M678.216,296.459a18.209,18.209,0,0,1-.342-5q-4.362-.111-9.254.018a118.572,118.572,0,0,1-6.464,13.8,8.754,8.754,0,0,0-1.065,4.683,33.12,33.12,0,0,0,.7,5.155l31.566,14.928c-1.195-4.667-2.894-8.994-3.655-11.138-1.068-3.009-.161-6.825.219-8.16a.505.505,0,0,1-.09-.034C681.744,306.462,679.051,300.615,678.216,296.459Z" transform="translate(-513.974 -172.472)" fill="#c1cf95"/><path d="M678.216,296.459a18.209,18.209,0,0,1-.342-5q-4.362-.111-9.254.018a118.572,118.572,0,0,1-6.464,13.8,8.754,8.754,0,0,0-1.065,4.683,33.12,33.12,0,0,0,.7,5.155l31.566,14.928c-1.195-4.667-2.894-8.994-3.655-11.138-1.068-3.009-.161-6.825.219-8.16a.505.505,0,0,1-.09-.034C681.744,306.462,679.051,300.615,678.216,296.459Z" transform="translate(-513.974 -172.472)" fill="url(#b)"/><path d="M734.51,298.143c-7.2-3.234-17.782-6.038-33.61-6.548a17.5,17.5,0,0,0,.326,4.812c1.161,5.706,4.889,10.252,11.08,13.5a.505.505,0,0,1,.24.608c7.562,2.391,15.186-2.111,20.424-7.571a38.343,38.343,0,0,0,2.554-2.969l-1.518-1.2Zm-8.781,2.4a.51.51,0,0,1-.37.158h0a.508.508,0,0,1-.354-.142c-2.611-2.5-6.146-.5-6.181-.479a.512.512,0,1,1-.513-.886,7.829,7.829,0,0,1,2.477-.835,5.591,5.591,0,0,1,4.924,1.46A.512.512,0,0,1,725.729,300.54Z" transform="translate(-535.917 -172.596)" fill="#c1cf95"/><path d="M734.51,298.143c-7.2-3.234-17.782-6.038-33.61-6.548a17.5,17.5,0,0,0,.326,4.812c1.161,5.706,4.889,10.252,11.08,13.5a.505.505,0,0,1,.24.608c7.562,2.391,15.186-2.111,20.424-7.571a38.343,38.343,0,0,0,2.554-2.969l-1.518-1.2Zm-8.781,2.4a.51.51,0,0,1-.37.158h0a.508.508,0,0,1-.354-.142c-2.611-2.5-6.146-.5-6.181-.479a.512.512,0,1,1-.513-.886,7.829,7.829,0,0,1,2.477-.835,5.591,5.591,0,0,1,4.924,1.46A.512.512,0,0,1,725.729,300.54Z" transform="translate(-535.917 -172.596)" fill="url(#c)"/><path d="M778.78,307.727c.047-.063.09-.127.136-.19-.315-.156-.639-.312-.968-.466Z" transform="translate(-578.51 -181.156)" fill="#c1cf95"/><path d="M778.78,307.727c.047-.063.09-.127.136-.19-.315-.156-.639-.312-.968-.466Z" transform="translate(-578.51 -181.156)" fill="url(#d)"/><path d="M766.2,241.624c.88.9,1.576,1.61,1.539,2.063-.02.249-.279.558-.771.92l-.38.278c-1.764,1.3-2.57,1.889-2.876,2.969h0a.512.512,0,1,0,.986.278c.21-.742.88-1.234,2.5-2.423l.38-.279a2.528,2.528,0,0,0,1.183-1.662c.074-.918-.683-1.691-1.828-2.86-.249-.255-.519-.529-.8-.831-2.031-2.145-1.615-7.937-1.611-8a.511.511,0,0,0-1.02-.078c-.02.256-.454,6.3,1.888,8.776C765.67,241.087,765.943,241.366,766.2,241.624Z" transform="translate(-570.502 -139.463)" fill="#6f262c"/><path d="M680.437,226.914c.374,0,.779.464.893.628a.511.511,0,1,0,.845-.577,2.4,2.4,0,0,0-1.731-1.076h-.007a1.818,1.818,0,0,0-1.495.924c-.815,1.169.278,2.032,1.076,2.664,1.06.838,1.474,1.284,1,2.029a7.25,7.25,0,0,1-1.645,1.717c-.969.8-1.971,1.622-1.064,3.417a.511.511,0,0,0,.457.28l.006,0a.512.512,0,0,0,.456-.742c-.539-1.065-.173-1.366.8-2.168a8.2,8.2,0,0,0,1.856-1.958c1.019-1.6-.334-2.671-1.229-3.38-.987-.781-1.077-.984-.873-1.279C680.006,227.077,680.227,226.914,680.437,226.914Z" transform="translate(-523.324 -136.348)" fill="#6f262c"/><path d="M686.786,155.03c5.67-4.486,14.794-4.057,21.487-3.16A31.194,31.194,0,0,1,730.3,166.451a22.123,22.123,0,0,0,8.347.874,4.437,4.437,0,0,0,3.075-1.594l.56.4A5.083,5.083,0,0,1,738.756,168a21.726,21.726,0,0,1-7.973-.741c.248.434.489.873.717,1.322a27.256,27.256,0,0,1,2.09,6,6.822,6.822,0,0,0,4.456-.648c6.118-3.191,20.631-13.607,8.645-21.788s-18.607-.807-21.128-.155-8.464-8.612-19.413-11.577-30.361,10.531-28.9,24.863c0,0-1.955,5.893,2.048,9.815C679.294,175.079,680.777,159.783,686.786,155.03Zm43.982,6.048c.415.413,5.9,2.624,10.056,1.725a5.442,5.442,0,0,0,4.232-3.483c.6-1.6.549-2.817-.159-3.53-1.035-1.044-3.21-.892-4.79-.308-1.534.566-2.567,1.511-2.634,2.409l-.686-.051c.088-1.184,1.269-2.335,3.082-3,1.841-.679,4.261-.8,5.518.469.637.642,1.207,1.9.315,4.259-.98,2.594-3.268,4.022-6.612,4.136a19.509,19.509,0,0,1-7.35-1.381,3.816,3.816,0,0,1-1.561-.9l.625-.287A.2.2,0,0,0,730.768,161.078Z" transform="translate(-522.555 -88.942)" fill="#2b220b"/><path d="M686.426,192.984c-.093,3.276-.231,10.584,2.717,9.028s5.839-5.719,4.56-9.643-.658-13.032,5.9-13.25,7.628,4.53,11.616,2.728,5.332-5.037,11.3-1.664c4.536,2.566,9.428,7.536,14.2,8.365a27.25,27.25,0,0,0-2.09-6c-.228-.448-.469-.888-.717-1.322-6.9-1.679-15.025-5.473-19.115-8.515-6.634-4.938-16.275,1.506-16.371,1.572l-.386-.565a24.279,24.279,0,0,1,5.884-2.756c4.465-1.387,8.367-.974,11.284,1.2,3.919,2.916,11.583,6.534,18.224,8.254A31.193,31.193,0,0,0,711.4,165.836c-6.692-.9-15.817-1.326-21.487,3.16-6.01,4.753-7.492,20.049-7.493,20.061l0,0S686.519,189.708,686.426,192.984Zm4.381-20.586.489.48c-.069.071-6.886,7.154-3.756,14.045l-.624.285C683.591,179.883,690.736,172.469,690.807,172.4Z" transform="translate(-525.711 -102.875)" fill="#2b220b"/><path d="M700.993,246.1l-.392-2.029-4.1,3.469.577,1.379Z" transform="translate(-533.559 -146.388)" fill="#6f262c"/><path d="M716.831,228.278a15.747,15.747,0,0,0-.6-3.789s-2.658,2.892-2.246,4.746S716.749,229.622,716.831,228.278Z" transform="translate(-543.184 -135.58)" fill="#fbfdf9"/><path d="M723.619,237.892a16.133,16.133,0,0,0-.431-3.377s-2.238,3.051-1.523,4.035S723.451,238.443,723.619,237.892Z" transform="translate(-547.371 -141.113)" fill="#fbfdf9"/><path d="M725.609,334.071a.5.5,0,0,0,.147.025.512.512,0,0,0,.455-.275.48.48,0,0,0,.024-.082c-.159-.051-.318-.1-.477-.156C725.758,333.583,725.7,333.76,725.609,334.071Z" transform="translate(-549.627 -195.787)" fill="#6f262c"/><path d="M725.938,334.729h0Z" transform="translate(-549.81 -196.42)" fill="#6f262c"/><path d="M699.776,283.763a.511.511,0,0,0-.636.344,18.209,18.209,0,0,0-.488,3.115q.518.013,1.029.03a17.527,17.527,0,0,1,.439-2.852A.512.512,0,0,0,699.776,283.763Z" transform="translate(-534.75 -168.279)" fill="#6f262c"/><path d="M711.034,309.874c-6.191-3.252-9.919-7.8-11.08-13.5a17.494,17.494,0,0,1-.326-4.812q-.511-.016-1.029-.03a18.214,18.214,0,0,0,.343,5c.835,4.156,3.528,10,11.617,14.255a.489.489,0,0,0,.09.034c.088-.311.149-.488.149-.488.159.057.318.105.477.156A.505.505,0,0,0,711.034,309.874Z" transform="translate(-534.68 -172.56)" fill="#6f262c"/><path d="M723.672,252.057c-.069.891,2.8,1.842,6.406,2.123s6.588-.214,6.658-1.106-2.8-1.842-6.406-2.122S723.741,251.166,723.672,252.057Z" transform="translate(-548.539 -150.141)" fill="#e73151"/><path d="M783.677,257.251c-2.265-.471-4.212-.317-4.35.344s1.587,1.579,3.851,2.05,4.212.317,4.349-.344S785.942,257.723,783.677,257.251Z" transform="translate(-579.255 -153.51)" fill="#e73151"/><path d="M742.067,306.6a7.83,7.83,0,0,0-2.477.835.512.512,0,1,0,.513.886c.035-.02,3.569-2.022,6.181.479a.508.508,0,0,0,.354.142h0a.511.511,0,0,0,.354-.881A5.591,5.591,0,0,0,742.067,306.6Z" transform="translate(-557.191 -180.838)" fill="#6f262c"/><path d="M672.127,173.923l.041,0a.341.341,0,0,0,.3-.38c-1.429-11.7,9.907-20.073,10.022-20.155a.341.341,0,0,0-.4-.552c-.118.085-11.777,8.688-10.3,20.79A.341.341,0,0,0,672.127,173.923Z" transform="translate(-519.842 -95.999)" fill="#1e2481"/><path d="M787.6,235.075a.512.512,0,0,0-.588-.422l-6.552,1.076a.511.511,0,0,0-.081.989l6.553,2.215a.514.514,0,0,0,.164.027h0a.511.511,0,0,0,.163-1l-4.609-1.559,4.528-.744A.511.511,0,0,0,787.6,235.075Z" transform="translate(-579.651 -141.185)" fill="#6f262c"/><path d="M739.3,232.1l6.916.071h.007a.511.511,0,0,0,.244-.961l-5.83-3.178a.511.511,0,1,0-.49.9l4.029,2.2-4.866-.05H739.3a.511.511,0,1,0-.005,1.023Z" transform="translate(-556.89 -137.499)" fill="#6f262c"/><path d="M777.453,222.811a13.489,13.489,0,0,0,6.08,1.883,5.069,5.069,0,0,0,3.628-1.34.512.512,0,0,0-.707-.74c-2.821,2.7-8.413-.643-8.47-.677a.511.511,0,0,0-.531.874Z" transform="translate(-578.089 -134.134)" fill="#6f262c"/><path d="M747.116,215.724a14.518,14.518,0,0,0,1.828-.108.512.512,0,0,0-.139-1.013c-.063.01-6.522.847-8.037-2.748a.511.511,0,0,0-.942.4C741.085,215.242,744.832,215.724,747.116,215.724Z" transform="translate(-557.437 -128.436)" fill="#6f262c"/><path d="M743.382,285.536c-1.728,3.239,2.376,1.728,5.939,3.455s6.37,2.375,6.37,0,1.62-3.455-5.615-5.615C750.076,283.376,745.109,282.3,743.382,285.536Z" transform="translate(-559.191 -167.979)" fill="#6f262c"/><path d="M804.985,199.837a5.084,5.084,0,0,0,3.529-1.873l-.56-.4a4.438,4.438,0,0,1-3.075,1.594,22.122,22.122,0,0,1-8.347-.874q.246.4.48.813A21.725,21.725,0,0,0,804.985,199.837Z" transform="translate(-588.746 -120.724)" fill="#403823"/><path d="M734.523,178.231c-2.917-2.171-6.819-2.585-11.284-1.2a24.279,24.279,0,0,0-5.884,2.756l.386.565c.1-.066,9.737-6.51,16.372-1.572,4.09,3.043,12.216,6.836,19.115,8.515q-.234-.411-.48-.813C746.106,184.765,738.442,181.147,734.523,178.231Z" transform="translate(-545.017 -108.945)" fill="#403823"/><path d="M797.815,180.051a19.51,19.51,0,0,0,7.351,1.381c3.344-.114,5.632-1.543,6.612-4.136.892-2.357.321-3.617-.315-4.259-1.257-1.268-3.677-1.148-5.518-.469-1.813.669-2.994,1.82-3.082,3l.687.051c.066-.9,1.1-1.843,2.634-2.409,1.581-.584,3.755-.736,4.79.308.708.714.763,1.935.159,3.53a5.442,5.442,0,0,1-4.232,3.483c-4.159.9-9.641-1.311-10.056-1.725a.2.2,0,0,1,.035.055l-.625.287A3.815,3.815,0,0,0,797.815,180.051Z" transform="translate(-588.586 -106.649)" fill="#403823"/><path d="M692.013,195.757c-3.129-6.891,3.687-13.974,3.756-14.045l-.489-.48c-.072.071-7.216,7.485-3.891,14.81Z" transform="translate(-530.251 -111.704)" fill="#403823"/><path d="M815.628,282.634l-.069-1.02-23.118,1.575c-.152.353-.305.706-.464,1.057Z" transform="translate(-586.211 -167.105)" fill="#f0f9fe"/><path d="M782.477,286.481l4.208-.287c.159-.351.312-.7.464-1.057l-4.742.323Z" transform="translate(-580.965 -169.051)" fill="#f0f9fe"/><rect width="1.023" height="17.114" transform="matrix(0.206, -0.979, 0.979, 0.206, 203.261, 123.617)" fill="#f0f9fe"/><path d="M812.09,333.995l-3.695-2.914c.467.737.967,1.567,1.5,2.482l1.566,1.235Z" transform="translate(-595.308 -194.403)" fill="#f0f9fe"/><path d="M779.038,308.539c-.2.274-.414.542-.624.81l14.9,11.748c-.528-.915-1.028-1.745-1.5-2.482Z" transform="translate(-578.744 -181.954)" fill="#f0f9fe"/><path d="M776.144,306.04q.41.184.806.37l-.677-.534Z" transform="translate(-577.515 -180.497)" fill="#f0f9fe"/><path d="M776.327,306.613q-.4-.186-.806-.37l-.5.639,1.518,1.2c.21-.269.421-.536.624-.81Z" transform="translate(-576.891 -180.698)" fill="#f0f9fe"/><path d="M758.225,342.406a.334.334,0,0,1,.091-.1c.655-.412.81-.755.846-.919a6.181,6.181,0,0,1-1.536-2.507.341.341,0,1,1,.666-.149,5.64,5.64,0,0,0,1.351,2.166.34.34,0,0,1,.156.147,5.643,5.643,0,0,0,.95.717.341.341,0,0,1-.189.625h0a.341.341,0,0,1-.188-.056,6.219,6.219,0,0,1-.665-.462,2.73,2.73,0,0,1-1.027,1.017.341.341,0,0,1-.181.052c-.008,0-.015,0-.023,0-.076,1.416-.08,6.95,4.328,8.578,0,0,.056,4.921,1.262,6.74l8.809-5.534c-.658-1.365-1.932-4.423-1.507-6.922,0,0,2.279-10.027-.554-13.943s-10.406-2.805-12.081-2.519-3.384,1.951-2.861,3.069l.054.232c.349-.474,1.223-1.244,3.306-1.509a.341.341,0,0,1,.1.674l-.019,0c-2.164.274-2.784,1.107-2.922,1.355l.019.083a12.612,12.612,0,0,1,5.248-.354.341.341,0,0,1-.075.678,10.783,10.783,0,0,0-5.272.443l-.382.18-.089-.386c-.773.267-2.648,1.109-2.4,2.937C753.745,338.876,756.837,341.4,758.225,342.406Z" transform="translate(-564.948 -193.206)" fill="#f59d9b"/><path d="M758.722,337.17a1.416,1.416,0,0,0-.214.389l-.026.088.159.689c.2-.068.325-.1.325-.1Z" transform="translate(-567.768 -197.766)" fill="#ed6772"/><path d="M759.309,336.669a10.782,10.782,0,0,1,5.272-.443.341.341,0,0,0,.075-.678,12.612,12.612,0,0,0-5.248.354l-.019-.083c.137-.248.757-1.081,2.922-1.355l.019,0a.341.341,0,1,0-.1-.674c-2.084.266-2.958,1.035-3.306,1.509l.244,1.065s-.129.033-.325.1l.089.386Z" transform="translate(-567.956 -195.895)" fill="#ed6772"/><path d="M764.361,353.034a.333.333,0,0,1,.235-.408l.007,0a.344.344,0,0,1,.228.026,5.639,5.639,0,0,1-1.351-2.166.341.341,0,1,0-.666.149,6.181,6.181,0,0,0,1.535,2.507A.4.4,0,0,0,764.361,353.034Z" transform="translate(-570.152 -204.964)" fill="#ed6772"/><path d="M769.386,358.991h0Z" transform="translate(-573.785 -209.809)" fill="#ed6772"/><path d="M767.477,356.812a6.2,6.2,0,0,0,.665.462.341.341,0,0,0,.377-.569,5.635,5.635,0,0,1-.949-.717.342.342,0,0,1,.037.075A1.085,1.085,0,0,1,767.477,356.812Z" transform="translate(-572.731 -208.151)" fill="#ed6772"/><path d="M764.077,359.03a.333.333,0,0,0-.068.193.339.339,0,0,0,.319.336c.011-.212.024-.334.024-.334C764.271,359.169,764.178,359.1,764.077,359.03Z" transform="translate(-570.819 -209.83)" fill="#ed6772"/><path d="M764.617,358.254a2.731,2.731,0,0,0,1.027-1.017,6.271,6.271,0,0,1-.544-.48c-.036.165-.191.507-.846.919a.335.335,0,0,0-.091.1c.1.073.194.139.275.195,0,0-.013.122-.024.334.008,0,.014,0,.022,0A.342.342,0,0,0,764.617,358.254Z" transform="translate(-570.901 -208.574)" fill="#ed6772"/><path d="M767.335,355.659c.05.051.1.1.156.148A.341.341,0,0,0,767.335,355.659Z" transform="translate(-572.655 -207.97)" fill="#ed6772"/><path d="M766.933,355.838a.347.347,0,0,0-.037-.075c-.053-.049-.106-.1-.156-.148a.345.345,0,0,0-.228-.026l-.007,0a.333.333,0,0,0-.235.408.39.39,0,0,1-.012.107,6.242,6.242,0,0,0,.544.48A1.086,1.086,0,0,0,766.933,355.838Z" transform="translate(-572.06 -207.925)" fill="#ed6772"/><path d="M665.219,582.044a36.961,36.961,0,0,0,7,2.088,55.031,55.031,0,0,1,5.641,1.569,21.071,21.071,0,0,0,5.709,1.392c.923.05,2.168-.32,1.2-1.294a8.977,8.977,0,0,0-1.734-1.192c-1.506-.926-3.051-1.772-4.517-2.766-.428-.291-.427-.627.082-.707a2.584,2.584,0,0,1,1.134.243q2.646.921,5.364,1.586,1.329.326,2.672.588c.481.094,1.865.6,2.285.3.923-.662-2.52-2.631-3.008-2.936-1.568-.979-3.368-1.671-4.876-2.721.1-.352,4.281,1.037,4.85,1.2.93.268,1.862.536,2.808.729.426.087,1.577.359,1.374-.4-.1-.363-.674-.672-.97-.849q-4.159-2.491-8.476-4.689c.389-.271.886-.1,1.313.012q.931.245,1.874.439a35.281,35.281,0,0,0,3.8.57,1.378,1.378,0,0,0,.741-.069c1.11-.552-.85-1.768-1.284-2.025-3.381-1.984-7.492-2.668-10.656-5.041-1.99-1.492,4.12-1.156,5.522-3.411s-1.526-1.73-5.221-.458-4.446,1.386-7.9.542c-2.5-.611-5.384.193-6.922.667L658.9,578.508A40.8,40.8,0,0,0,665.219,582.044Z" transform="translate(-512.772 -322.403)" fill="#f59d9b"/><path d="M568.587,501.493a3.03,3.03,0,0,0,.19-.366,16.578,16.578,0,0,0-12.813,2.947l.822,1.087a15.474,15.474,0,0,1,12.043-2.63l-.641-.506Z" transform="translate(-455.999 -288.094)" fill="#929b74"/><path d="M556.511,565.183l.1-.684h0l-.216.647Z" transform="translate(-456.249 -323.218)" fill="#929b74"/><path d="M556.65,531.277l45.361,15.187.344-1.094c-.068-.046-.138-.089-.205-.135l3.381-12.677c.182-.043.51-.151.936-.282l.194-.616L594.2,521.813c.137.653.2,1.026.2,1.026l-24.882-19.653-.172.662-.134-.03,35.87,28.333-3.951,12.58-44.157-14.783-.217.647h0Z" transform="translate(-456.34 -289.297)" fill="#929b74"/><path d="M584.989,457.426c.155-.376,8.547-20.691,11.09-28.395a31.51,31.51,0,0,0,.94-7.631v-.941h-1.364v.941a30.153,30.153,0,0,1-1.746,10.126c-4.963,13.965-8.354,23.142-9.282,25.139.3.057.486.1.528.114Z" transform="translate(-471.816 -243.671)" fill="#929b74"/><path d="M658.439,581.222c.067.046.138.089.205.135l4.112-13.095c-.426.131-.755.239-.937.282Z" transform="translate(-512.555 -325.269)" fill="#929b74"/><path d="M584.257,502.228h0l0-.01.168-.647c-.042-.011-.229-.058-.528-.114a3.037,3.037,0,0,1-.19.366l-.4.532.641.506.134.03Z" transform="translate(-471.099 -288.426)" fill="#929b74"/><path d="M585.428,468.043,610.31,487.7s-.063-.373-.2-1.025l-23.823-18.817c1.072-2.325,4.209-10.8,9.35-25.265.345-.97.637-1.956.885-2.952-2.543,7.7-10.935,28.019-11.09,28.395Z" transform="translate(-472.245 -254.229)" fill="#929b74"/><path d="M585.425,503.169h0l0-.012Z" transform="translate(-472.267 -289.368)" fill="#929b74"/><path d="M772.918,385.188a1.223,1.223,0,0,1-1.052-.665l-4.335,2.723,21.161,57.631,1.28-.47-20.78-56.594,15.029-9.443,26.711,44.705,1.171-.7-2.8-4.691c.221,1.145.337,1.89.337,1.89L790.488,387.53s.355.077.931.231l-6.742-11.285-4,2.514c.217.451.368.717.368.717S774.151,385.135,772.918,385.188Z" transform="translate(-572.682 -219.348)" fill="#929b74"/><path d="M778.281,388.3c1.233-.053,8.125-5.482,8.125-5.482s-.151-.267-.368-.717l-8.809,5.534A1.223,1.223,0,0,0,778.281,388.3Z" transform="translate(-578.1 -222.554)" fill="#929b74"/><path d="M838.037,433.253s-.115-.745-.337-1.89l-17.881-29.926c-.576-.153-.931-.231-.931-.231Z" transform="translate(-601.069 -233.057)" fill="#929b74"/><path d="M571.878,643.334a6.16,6.16,0,0,1-3.243-3.861c-1.927-6.234,3.478-16.188,3.533-16.287l-1.195-.657c-.235.428-5.739,10.557-3.641,17.345a7.557,7.557,0,0,0,3.931,4.677c7.088,3.59,2.387,13.947.38,18.37a14.071,14.071,0,0,0-.737,1.776l1.324.33a16.414,16.414,0,0,1,.658-1.544C574.869,659.116,580.134,647.511,571.878,643.334Z" transform="translate(-462.011 -355.107)" fill="#929b74"/></svg>