<svg xmlns="http://www.w3.org/2000/svg" xmlns:xlink="http://www.w3.org/1999/xlink" width="315.844" height="321.586" viewBox="0 0 315.844 321.586"><defs><linearGradient id="a" x1="-5.044" y1="4.605" x2="-5.045" y2="4.607" gradientUnits="objectBoundingBox"><stop offset="0" stop-color="#f59d9b"/><stop offset="1" stop-color="#e73151"/></linearGradient><linearGradient id="b" x1="-8.784" y1="5.624" x2="-8.786" y2="5.627" xlink:href="#a"/><linearGradient id="c" x1="-9.729" y1="12.087" x2="-9.73" y2="12.095" xlink:href="#a"/></defs><path d="M606.238,186.9c0-88.8-70.7-160.793-157.922-160.793S290.394,98.094,290.394,186.9c0,63.571,36.234,118.522,88.819,144.62.016-.076.031-.152.046-.228-52.484-26.071-88.644-80.931-88.644-144.392,0-88.679,70.605-160.568,157.7-160.568s157.7,71.889,157.7,160.568c0,66.455-39.65,123.479-96.177,147.889l.017.237C566.5,310.6,606.238,253.473,606.238,186.9Z" transform="translate(-290.394 -26.105)" fill="#fff"/><path d="M389.813,280.59l.214-.585v0c.018-.088-4.671-3.548-4.9-3.754-4.914-4.379-12.473-10.1-14.08-16.612-2.977-12.061,4.532-26.71,9.972-37.235a175.287,175.287,0,0,1,20.107-30.945c1.363-1.655,2.77-3.28,4.269-4.825,14.8-15.269,31.64-16.683,31.64-16.683,4.8-.117,9.243-.085,13.359.073a60.07,60.07,0,0,0,2.915-12.2,6.451,6.451,0,0,1-5.886-6.409c-.394-6.091-.516-11.53,3.145-11.451-4.023-3.358-2.491-8.828-2.491-8.829-2.177-12.966,15.528-26.275,26.1-24.156s16.733,10.236,19.093,9.51,8.248-7.79,20.091-.976-1.375,17.056-7.013,20.286a6.736,6.736,0,0,1-4.2.827,23.9,23.9,0,0,1,.953,5.313,47.964,47.964,0,0,1-1.554,14.875c-1.782,7.382-4.9,15.148-10.189,21.081-.224.252-.456.5-.691.749a44.883,44.883,0,0,1,4.246,2.511,20.737,20.737,0,0,1,7.737,9.582s18.668,42.023,23.523,62.671-19.7,30.434-19.7,30.434v.019l.113.592-.07.012,3.592,50.6c56.525-24.41,96.174-81.434,96.174-147.889,0-88.679-70.6-160.568-157.7-160.568s-157.7,71.889-157.7,160.568c0,63.461,36.159,118.321,88.642,144.392,4.925-24.519,9.552-47,10.365-50.946Zm64.473-167.612a.334.334,0,0,1,.457.044.3.3,0,0,1-.046.437c-.1.082-10.42,8.3-8.412,18.872a.31.31,0,0,1-.257.361.36.36,0,0,1-.062.005.321.321,0,0,1-.319-.255C443.572,121.51,454.178,113.062,454.285,112.978Z" transform="translate(-290.669 -26.38)" fill="#fff" opacity="0.67"/><path d="M561.819,720.816a159.919,159.919,0,0,1-70.313-16.176l-.047.228a161.218,161.218,0,0,0,133.02,3.506l-.018-.238A160.056,160.056,0,0,1,561.819,720.816Z" transform="translate(-403.78 -399.455)" fill="#c1cf95"/><path d="M652.2,630.152c-.01.032.024.114.136.218a1.608,1.608,0,0,1,.169-.229c.018-.018.04-.033.058-.051-.038,0-.074-.017-.113-.019C652.268,630.081,652.2,630.13,652.2,630.152Z" transform="translate(-492.376 -358.424)" fill="#c1cf95"/><path d="M657.366,291.261a.5.5,0,0,1,.61-.325.466.466,0,0,1,.355.54,15,15,0,0,0-.209,4.055,108.729,108.729,0,0,1,19.82,3.625,5.663,5.663,0,0,1,4.6,1.111.445.445,0,0,1,.157.45,57.307,57.307,0,0,1,6.344,2.762c.239-.248.475-.5.7-.749,5.385-5.932,8.561-13.7,10.375-21.081a47.148,47.148,0,0,0,1.582-14.875,23.519,23.519,0,0,0-.97-5.313c-4.668-.5-9.683-4.764-14.219-6.86-5.961-2.755-7.082.261-10.839,2.112s-5.063-2.414-11.4-1.868-6.42,8.868-4.962,12.371-1.1,7.445-3.871,9.016-3.042-5.088-3.138-8.073-4.1-3.357-4.1-3.357h0c-3.728-.079-3.6,5.36-3.2,11.451A6.522,6.522,0,0,0,651,282.659a59.178,59.178,0,0,1-2.968,12.2q4.828.182,9.079.575A15.608,15.608,0,0,1,657.366,291.261Zm15.9-11.6c-3.508-.066-6.338-.78-6.32-1.6s2.875-1.423,6.383-1.357,6.338.78,6.321,1.6S676.77,279.73,673.262,279.664Zm21.725.719c-2.218-.309-3.939-1.053-3.842-1.662s1.972-.852,4.19-.543,3.939,1.053,3.843,1.662S697.205,280.691,694.987,280.382Zm-5.575-16.247a.513.513,0,0,1,.644-.186c.057.027,5.654,2.771,8.236.168a.518.518,0,0,1,.7-.023.447.447,0,0,1,.025.659,5.254,5.254,0,0,1-3.865,1.423,14.242,14.242,0,0,1-5.56-1.4A.452.452,0,0,1,689.412,264.136Zm-.057,7.311a.49.49,0,0,1,.389-.31l6.353-.98a.5.5,0,0,1,.579.373.469.469,0,0,1-.4.544l-.022,0-4.39.677,4.469,1.421a.46.46,0,0,1,.309.592.5.5,0,0,1-.468.316h0a.527.527,0,0,1-.159-.024l-6.353-2.02A.46.46,0,0,1,689.355,271.447Zm-5.691-2.839a.5.5,0,0,1,.992.017c0,.053-.078,5.347,2.008,7.191.293.259.572.5.826.713,1.175,1,1.951,1.667,1.931,2.509a2.291,2.291,0,0,1-1.052,1.574l-.35.273c-1.5,1.169-2.12,1.652-2.283,2.338a.49.49,0,0,1-.485.362.482.482,0,0,1-.5-.467.444.444,0,0,1,.012-.1c.236-1,.981-1.58,2.618-2.854l.349-.273c.456-.358.689-.651.694-.878.009-.415-.7-1.024-1.607-1.8-.259-.221-.539-.461-.837-.724C683.579,274.366,683.659,268.839,683.664,268.608Zm4.468,22.332a.526.526,0,0,1,.063.032c.706.411,1.858,1.507,1.161,2.712a.5.5,0,0,1-.433.244.482.482,0,0,1-.5-.467.446.446,0,0,1,.06-.222c.388-.672-.6-1.343-.785-1.458-5.452-2.171-11.846,0-11.91.024a.505.505,0,0,1-.637-.275.459.459,0,0,1,.293-.6C675.726,290.835,682.3,288.593,688.132,290.939Zm-14.972-30.309a.511.511,0,0,1,.664.212c1.67,3.192,7.873,2.087,7.936,2.076a.5.5,0,0,1,.582.368.468.468,0,0,1-.391.547,15.707,15.707,0,0,1-2.643.219c-2.2,0-5.156-.472-6.372-2.8A.454.454,0,0,1,673.159,260.631Zm-.3,9.806,4.7-.349-4.08-1.667a.458.458,0,0,1-.277-.606.508.508,0,0,1,.645-.26l.027.011,5.9,2.413a.456.456,0,0,1,.259.613.5.5,0,0,1-.418.28l-6.684.5H672.9a.466.466,0,1,1-.039-.931Zm-5.713-.138a13.985,13.985,0,0,1,.607,3.051c-.131.51-1.1,1.561-1.853.7S667.144,270.3,667.144,270.3Zm-2.929-3.932a13.6,13.6,0,0,1,.8,3.417c0,1.227-2.2,2.688-2.7,1.022S664.215,266.367,664.215,266.367Zm-13.6,6.949a7.6,7.6,0,0,1-1.686,1.88c-.9.783-1.234,1.075-.654,2.015a.452.452,0,0,1-.181.638.516.516,0,0,1-.247.063l0-.005a.5.5,0,0,1-.43-.232c-.979-1.586-.055-2.39.838-3.166a6.741,6.741,0,0,0,1.493-1.65c.417-.7-.01-1.087-1.08-1.792-.808-.532-1.913-1.261-1.194-2.368a1.763,1.763,0,0,1,1.4-.921,2.377,2.377,0,0,1,1.735.886.448.448,0,0,1-.09.654.517.517,0,0,1-.7-.085c-.119-.143-.536-.548-.9-.524-.2.011-.408.171-.605.478-.182.279-.083.459.916,1.118C650.141,270.9,651.51,271.8,650.615,273.316Zm4.529,4.71,3.772-3.374.492,1.826-3.629,2.773Z" transform="translate(-488.868 -151.219)" fill="#fff"/><path d="M657.366,291.261a.5.5,0,0,1,.61-.325.466.466,0,0,1,.355.54,15,15,0,0,0-.209,4.055,108.729,108.729,0,0,1,19.82,3.625,5.663,5.663,0,0,1,4.6,1.111.445.445,0,0,1,.157.45,57.307,57.307,0,0,1,6.344,2.762c.239-.248.475-.5.7-.749,5.385-5.932,8.561-13.7,10.375-21.081a47.148,47.148,0,0,0,1.582-14.875,23.519,23.519,0,0,0-.97-5.313c-4.668-.5-9.683-4.764-14.219-6.86-5.961-2.755-7.082.261-10.839,2.112s-5.063-2.414-11.4-1.868-6.42,8.868-4.962,12.371-1.1,7.445-3.871,9.016-3.042-5.088-3.138-8.073-4.1-3.357-4.1-3.357h0c-3.728-.079-3.6,5.36-3.2,11.451A6.522,6.522,0,0,0,651,282.659a59.178,59.178,0,0,1-2.968,12.2q4.828.182,9.079.575A15.608,15.608,0,0,1,657.366,291.261Zm15.9-11.6c-3.508-.066-6.338-.78-6.32-1.6s2.875-1.423,6.383-1.357,6.338.78,6.321,1.6S676.77,279.73,673.262,279.664Zm21.725.719c-2.218-.309-3.939-1.053-3.842-1.662s1.972-.852,4.19-.543,3.939,1.053,3.843,1.662S697.205,280.691,694.987,280.382Zm-5.575-16.247a.513.513,0,0,1,.644-.186c.057.027,5.654,2.771,8.236.168a.518.518,0,0,1,.7-.023.447.447,0,0,1,.025.659,5.254,5.254,0,0,1-3.865,1.423,14.242,14.242,0,0,1-5.56-1.4A.452.452,0,0,1,689.412,264.136Zm-.057,7.311a.49.49,0,0,1,.389-.31l6.353-.98a.5.5,0,0,1,.579.373.469.469,0,0,1-.4.544l-.022,0-4.39.677,4.469,1.421a.46.46,0,0,1,.309.592.5.5,0,0,1-.468.316h0a.527.527,0,0,1-.159-.024l-6.353-2.02A.46.46,0,0,1,689.355,271.447Zm-5.691-2.839a.5.5,0,0,1,.992.017c0,.053-.078,5.347,2.008,7.191.293.259.572.5.826.713,1.175,1,1.951,1.667,1.931,2.509a2.291,2.291,0,0,1-1.052,1.574l-.35.273c-1.5,1.169-2.12,1.652-2.283,2.338a.49.49,0,0,1-.485.362.482.482,0,0,1-.5-.467.444.444,0,0,1,.012-.1c.236-1,.981-1.58,2.618-2.854l.349-.273c.456-.358.689-.651.694-.878.009-.415-.7-1.024-1.607-1.8-.259-.221-.539-.461-.837-.724C683.579,274.366,683.659,268.839,683.664,268.608Zm4.468,22.332a.526.526,0,0,1,.063.032c.706.411,1.858,1.507,1.161,2.712a.5.5,0,0,1-.433.244.482.482,0,0,1-.5-.467.446.446,0,0,1,.06-.222c.388-.672-.6-1.343-.785-1.458-5.452-2.171-11.846,0-11.91.024a.505.505,0,0,1-.637-.275.459.459,0,0,1,.293-.6C675.726,290.835,682.3,288.593,688.132,290.939Zm-14.972-30.309a.511.511,0,0,1,.664.212c1.67,3.192,7.873,2.087,7.936,2.076a.5.5,0,0,1,.582.368.468.468,0,0,1-.391.547,15.707,15.707,0,0,1-2.643.219c-2.2,0-5.156-.472-6.372-2.8A.454.454,0,0,1,673.159,260.631Zm-.3,9.806,4.7-.349-4.08-1.667a.458.458,0,0,1-.277-.606.508.508,0,0,1,.645-.26l.027.011,5.9,2.413a.456.456,0,0,1,.259.613.5.5,0,0,1-.418.28l-6.684.5H672.9a.466.466,0,1,1-.039-.931Zm-5.713-.138a13.985,13.985,0,0,1,.607,3.051c-.131.51-1.1,1.561-1.853.7S667.144,270.3,667.144,270.3Zm-2.929-3.932a13.6,13.6,0,0,1,.8,3.417c0,1.227-2.2,2.688-2.7,1.022S664.215,266.367,664.215,266.367Zm-13.6,6.949a7.6,7.6,0,0,1-1.686,1.88c-.9.783-1.234,1.075-.654,2.015a.452.452,0,0,1-.181.638.516.516,0,0,1-.247.063l0-.005a.5.5,0,0,1-.43-.232c-.979-1.586-.055-2.39.838-3.166a6.741,6.741,0,0,0,1.493-1.65c.417-.7-.01-1.087-1.08-1.792-.808-.532-1.913-1.261-1.194-2.368a1.763,1.763,0,0,1,1.4-.921,2.377,2.377,0,0,1,1.735.886.448.448,0,0,1-.09.654.517.517,0,0,1-.7-.085c-.119-.143-.536-.548-.9-.524-.2.011-.408.171-.605.478-.182.279-.083.459.916,1.118C650.141,270.9,651.51,271.8,650.615,273.316Zm4.529,4.71,3.772-3.374.492,1.826-3.629,2.773Z" transform="translate(-488.868 -151.219)" fill="url(#a)"/><path d="M638.2,362.455a28.57,28.57,0,0,0,.969,4.655l31.39,11.915a105.022,105.022,0,0,0-4.164-9.942c-1.2-2.686-.535-6.216-.242-7.445a.55.55,0,0,1-.094-.019c-8.069-3.443-11-8.621-12.045-12.359a15.68,15.68,0,0,1-.568-3.215q-4.257-.388-9.079-.575a104.7,104.7,0,0,1-5.4,12.669A7.565,7.565,0,0,0,638.2,362.455Z" transform="translate(-484.843 -201.829)" fill="#c1cf95"/><path d="M638.2,362.455a28.57,28.57,0,0,0,.969,4.655l31.39,11.915a105.022,105.022,0,0,0-4.164-9.942c-1.2-2.686-.535-6.216-.242-7.445a.55.55,0,0,1-.094-.019c-8.069-3.443-11-8.621-12.045-12.359a15.68,15.68,0,0,1-.568-3.215q-4.257-.388-9.079-.575a104.7,104.7,0,0,1-5.4,12.669A7.565,7.565,0,0,0,638.2,362.455Z" transform="translate(-484.843 -201.829)" fill="url(#b)"/><path d="M698.877,352.354a.51.51,0,0,1-.377.164v0a.509.509,0,0,1-.321-.112,4.612,4.612,0,0,0-3.963-.873,6.957,6.957,0,0,0-2.047.765.514.514,0,0,1-.678-.168.449.449,0,0,1,.133-.609,7.884,7.884,0,0,1,2.351-.891c.081-.019.162-.028.243-.043a108.732,108.732,0,0,0-19.82-3.625,15.058,15.058,0,0,0,.531,2.926c1.445,5.132,5.309,9.07,11.484,11.7a.452.452,0,0,1,.267.539c7.1,1.693,13.9-2.305,18.642-7.221a57.3,57.3,0,0,0-6.344-2.762A.445.445,0,0,1,698.877,352.354Z" transform="translate(-505.096 -202.649)" fill="#c1cf95"/><path d="M698.877,352.354a.51.51,0,0,1-.377.164v0a.509.509,0,0,1-.321-.112,4.612,4.612,0,0,0-3.963-.873,6.957,6.957,0,0,0-2.047.765.514.514,0,0,1-.678-.168.449.449,0,0,1,.133-.609,7.884,7.884,0,0,1,2.351-.891c.081-.019.162-.028.243-.043a108.732,108.732,0,0,0-19.82-3.625,15.058,15.058,0,0,0,.531,2.926c1.445,5.132,5.309,9.07,11.484,11.7a.452.452,0,0,1,.267.539c7.1,1.693,13.9-2.305,18.642-7.221a57.3,57.3,0,0,0-6.344-2.762A.445.445,0,0,1,698.877,352.354Z" transform="translate(-505.096 -202.649)" fill="url(#c)"/><path d="M733.506,294.445c.3.263.577.5.837.724.9.772,1.617,1.381,1.607,1.8-.006.227-.239.52-.694.878l-.349.273c-1.636,1.274-2.382,1.856-2.618,2.854a.451.451,0,0,0-.012.1.482.482,0,0,0,.5.467.491.491,0,0,0,.485-.362c.163-.686.783-1.169,2.283-2.338l.35-.273a2.291,2.291,0,0,0,1.052-1.574c.02-.842-.756-1.505-1.931-2.509-.254-.218-.533-.455-.826-.713-2.086-1.845-2.008-7.138-2.008-7.191a.5.5,0,0,0-.992-.017C731.181,286.79,731.1,292.317,733.506,294.445Z" transform="translate(-536.534 -169.17)" fill="#6f262c"/><path d="M651.9,287.785c-1-.658-1.1-.839-.916-1.118.2-.307.4-.467.605-.478.363-.024.78.381.9.524a.517.517,0,0,0,.7.085.448.448,0,0,0,.09-.654,2.377,2.377,0,0,0-1.735-.886,1.763,1.763,0,0,0-1.4.921c-.72,1.107.386,1.836,1.194,2.368,1.07.706,1.5,1.089,1.08,1.792a6.741,6.741,0,0,1-1.493,1.65c-.893.777-1.817,1.58-.838,3.166a.5.5,0,0,0,.43.232l0,.005a.516.516,0,0,0,.247-.063.452.452,0,0,0,.181-.638c-.581-.94-.245-1.233.654-2.015a7.593,7.593,0,0,0,1.686-1.88C654.175,289.283,652.806,288.383,651.9,287.785Z" transform="translate(-490.994 -168.698)" fill="#6f262c"/><path d="M650.219,228.969c-.092-5.266,4.521-9.775,4.579-9.828l.236.217,0,0c5.235-4.383,14.09-4.476,20.618-4.013a30.741,30.741,0,0,1,21.572,11.363,19.923,19.923,0,0,0,6.546.456,4.355,4.355,0,0,0,2.955-1.44l.539.358a4.986,4.986,0,0,1-3.391,1.693,12.013,12.013,0,0,1-1.747.12,24.244,24.244,0,0,1-4.344-.457c.452.612.883,1.241,1.286,1.89a24.046,24.046,0,0,1,2.36,5.344,6.963,6.963,0,0,0,4.273-.827c5.741-3.23,19.2-13.472,7.141-20.286s-18.054.25-20.457.976-8.677-7.39-19.441-9.51-28.792,11.19-26.575,24.156c0,0-1.56,5.472,2.536,8.829h.005A52.773,52.773,0,0,1,650.219,228.969Zm45.983-7.447c.4.373,5.667,2.368,9.663,1.553a5.167,5.167,0,0,0,4.066-3.148c.58-1.441.527-2.545-.154-3.19-.995-.942-3.085-.805-4.6-.277-1.474.512-2.466,1.367-2.53,2.178l-.659-.045c.084-1.07,1.219-2.11,2.961-2.715,1.768-.615,4.095-.722,5.3.423.612.58,1.16,1.718.3,3.848-.942,2.342-3.139,3.635-6.353,3.738-.146.007-.292.009-.433.009-3.805,0-7.878-1.553-8.129-2.063l.6-.26A.166.166,0,0,0,696.2,221.522Z" transform="translate(-489.778 -124.428)" fill="#2b220b"/><path d="M656.467,254.037c.1,2.985.372,9.644,3.138,8.072s5.329-5.513,3.871-9.016-1.37-11.825,4.962-12.371,7.638,3.719,11.4,1.868,4.877-4.867,10.839-2.112c4.536,2.1,9.55,6.361,14.219,6.86a24.045,24.045,0,0,0-2.36-5.344c-.4-.649-.834-1.278-1.286-1.89-6.922-1.287-15.694-5.047-19.941-8.016-6.379-4.461-15.637,1.368-15.73,1.427L665.2,233a24.015,24.015,0,0,1,5.654-2.491c4.289-1.254,8.039-.882,10.843,1.079,4.061,2.839,12.3,6.416,18.987,7.785a30.74,30.74,0,0,0-21.572-11.363c-6.528-.462-15.383-.37-20.618,4.013l0,0,.237.217c-.064.064-6.614,6.465-3.606,12.692l-.6.256a8.416,8.416,0,0,1-.844-3.554,52.777,52.777,0,0,0-1.305,9.04h0S656.372,251.052,656.467,254.037Z" transform="translate(-493.037 -137.097)" fill="#2b220b"/><path d="M671.549,300.541l-3.772,3.374.635,1.225,3.63-2.772Z" transform="translate(-501.113 -177.108)" fill="#6f262c"/><path d="M686.327,285.538a13.6,13.6,0,0,0-.8-3.417s-2.41,2.773-1.906,4.439S686.323,286.766,686.327,285.538Z" transform="translate(-509.907 -166.972)" fill="#fbfdf9"/><path d="M693.335,293.914a13.985,13.985,0,0,0-.607-3.051s-1.995,2.9-1.246,3.753S693.2,294.424,693.335,293.914Z" transform="translate(-514.232 -171.783)" fill="#fbfdf9"/><path d="M700.656,381.468h0Z" transform="translate(-519.426 -221.636)" fill="#6f262c"/><path d="M700.414,380.875a.534.534,0,0,0,.109.022.5.5,0,0,0,.453-.274.426.426,0,0,0,.019-.077c-.155-.037-.31-.072-.466-.115C700.529,380.43,700.481,380.591,700.414,380.875Z" transform="translate(-519.298 -221.065)" fill="#6f262c"/><path d="M673.323,337.264a.466.466,0,0,0-.355-.54.5.5,0,0,0-.61.325,15.608,15.608,0,0,0-.251,4.174c.338.031.674.062,1.007.095A15.009,15.009,0,0,1,673.323,337.264Z" transform="translate(-503.478 -197.007)" fill="#6f262c"/><path d="M685.181,361.474c-6.175-2.635-10.039-6.572-11.484-11.7a15.062,15.062,0,0,1-.531-2.926c-.333-.033-.669-.064-1.007-.095a15.668,15.668,0,0,0,.568,3.215c1.041,3.738,3.976,8.916,12.045,12.359a.547.547,0,0,0,.094.019c.067-.283.115-.445.115-.445.155.043.31.078.466.115A.452.452,0,0,0,685.181,361.474Z" transform="translate(-503.651 -202.533)" fill="#6f262c"/><path d="M706.712,306.709c.017-.815-2.812-1.53-6.321-1.6s-6.366.542-6.383,1.357,2.812,1.53,6.32,1.6S706.694,307.524,706.712,306.709Z" transform="translate(-515.849 -179.621)" fill="#e73151"/><ellipse cx="1.116" cy="4.055" rx="1.116" ry="4.055" transform="translate(201.814 128.613) rotate(-82.151)" fill="#e73151"/><path d="M723.069,356a5.663,5.663,0,0,0-4.6-1.111q2.558.746,4.76,1.562A.445.445,0,0,0,723.069,356Z" transform="translate(-529.422 -206.956)" fill="#6f262c"/><path d="M712.453,355.954a.449.449,0,0,0-.133.609.514.514,0,0,0,.678.168,6.957,6.957,0,0,1,2.047-.765,4.612,4.612,0,0,1,3.963.873.508.508,0,0,0,.321.112v0a.509.509,0,0,0,.377-.164.445.445,0,0,0,.1-.207q-2.2-.812-4.76-1.562c-.081.015-.163.024-.243.043A7.882,7.882,0,0,0,712.453,355.954Z" transform="translate(-525.983 -207.084)" fill="#6f262c"/><path d="M766.446,253.367a4.986,4.986,0,0,0,3.391-1.693l-.539-.358a4.356,4.356,0,0,1-2.955,1.44,19.923,19.923,0,0,1-6.546-.456q.285.36.558.73a24.241,24.241,0,0,0,4.344.457A12.016,12.016,0,0,0,766.446,253.367Z" transform="translate(-552.565 -150.022)" fill="#403823"/><path d="M697.4,233.984c-2.8-1.961-6.554-2.333-10.843-1.079A24.017,24.017,0,0,0,680.9,235.4l.372.514c.093-.059,9.351-5.888,15.73-1.427,4.247,2.969,13.018,6.729,19.941,8.016q-.273-.37-.558-.73C709.7,240.4,701.46,236.823,697.4,233.984Z" transform="translate(-508.796 -139.492)" fill="#403823"/><path d="M764.387,236.89c.142,0,.287,0,.433-.009,3.215-.1,5.411-1.4,6.353-3.738.857-2.13.308-3.268-.3-3.848-1.208-1.145-3.534-1.038-5.3-.423-1.742.6-2.877,1.645-2.961,2.715l.659.045c.064-.811,1.057-1.665,2.53-2.178,1.519-.528,3.609-.665,4.6.277.681.645.734,1.749.154,3.19a5.167,5.167,0,0,1-4.066,3.148c-4,.815-9.264-1.18-9.663-1.553a.165.165,0,0,1,.034.05l-.6.26C756.509,235.337,760.581,236.89,764.387,236.89Z" transform="translate(-550.655 -137.423)" fill="#403823"/><path d="M655.279,246.513c.889-3.687,2.367-7.56,4.814-9.611l-.236-.217C659.8,236.738,655.187,241.247,655.279,246.513Z" transform="translate(-494.139 -141.972)" fill="#403823"/><path d="M655.281,246.779a8.417,8.417,0,0,0,.844,3.554l.6-.256c-3.008-6.226,3.542-12.628,3.606-12.692l-.237-.217C657.648,239.219,656.17,243.091,655.281,246.779Z" transform="translate(-494.143 -142.238)" fill="#403823"/><path d="M641.216,238.276a.375.375,0,0,0,.063-.005.31.31,0,0,0,.262-.361c-2.045-10.569,8.459-18.791,8.565-18.872a.3.3,0,0,0,.047-.437.344.344,0,0,0-.465-.044c-.109.084-10.908,8.533-8.8,19.465A.325.325,0,0,0,641.216,238.276Z" transform="translate(-485.997 -131.958)" fill="#1e2481"/><path d="M744.064,277.514a14.242,14.242,0,0,0,5.56,1.4,5.254,5.254,0,0,0,3.865-1.423.447.447,0,0,0-.025-.659.518.518,0,0,0-.7.023c-2.581,2.6-8.179-.14-8.236-.168a.513.513,0,0,0-.644.186A.452.452,0,0,0,744.064,277.514Z" transform="translate(-543.637 -163.959)" fill="#6f262c"/><path d="M713.64,272.729a15.713,15.713,0,0,0,2.643-.219.468.468,0,0,0,.391-.547.5.5,0,0,0-.582-.368c-.063.012-6.266,1.116-7.936-2.076a.511.511,0,0,0-.664-.212.454.454,0,0,0-.226.624C708.484,272.257,711.44,272.729,713.64,272.729Z" transform="translate(-523.191 -159.895)" fill="#6f262c"/><path d="M744.119,292.418l6.353,2.02a.527.527,0,0,0,.159.024h0a.5.5,0,0,0,.468-.316.46.46,0,0,0-.309-.592l-4.469-1.421,4.39-.677.022,0a.469.469,0,0,0,.4-.544.5.5,0,0,0-.579-.373l-6.353.98a.49.49,0,0,0-.389.31A.46.46,0,0,0,744.119,292.418Z" transform="translate(-543.588 -171.598)" fill="#6f262c"/><path d="M706.635,288.532h.038l6.684-.5a.5.5,0,0,0,.418-.28.456.456,0,0,0-.259-.613l-5.9-2.414-.027-.011a.508.508,0,0,0-.645.26.458.458,0,0,0,.277.606l4.08,1.667-4.7.349a.466.466,0,1,0,.039.931Z" transform="translate(-522.568 -168.383)" fill="#6f262c"/><path d="M712.523,335.44a.459.459,0,0,0-.293.6.506.506,0,0,0,.637.275c.064-.024,6.458-2.2,11.91-.024.181.115,1.174.786.785,1.458a.447.447,0,0,0-.06.222.482.482,0,0,0,.5.467.5.5,0,0,0,.433-.244c.7-1.205-.455-2.3-1.161-2.712a.521.521,0,0,0-.063-.032C719.377,333.1,712.8,335.343,712.523,335.44Z" transform="translate(-526.031 -195.727)" fill="#6f262c"/><path d="M617.553,609.684a34.557,34.557,0,0,0,6.088,2.333l.449.14a55.923,55.923,0,0,1,5.32,1.906,21.3,21.3,0,0,0,5.341,1.732c.617.087,1.207-.02,1.338-.239.1-.163-.064-.4-.217-.579a6.325,6.325,0,0,0-1.207-.976q-.168-.114-.331-.228c-.471-.332-.948-.657-1.424-.981-.646-.439-1.3-.9-1.948-1.368-.407-.06-.724-.222-.714-.524l-.032-.023c-.259-.2-.371-.424-.306-.613.035-.1.151-.274.543-.3a2.4,2.4,0,0,1,.44.061,8.676,8.676,0,0,1,1.2-.909c.628-.443,1.266-.873,1.9-1.306l-.02-.016.044-.1a.216.216,0,0,1,.123-.113.5.5,0,0,1,.218-.018c.626-.431,1.246-.869,1.847-1.335.387-.3.356-.6-.143-.635a2.621,2.621,0,0,0-1.072.315q-2.471,1.061-5.035,1.894-1.255.408-2.526.76c-.457.126-1.746.7-2.178.465-.953-.522,2.2-2.6,2.639-2.918,1.427-1.021,3.1-1.8,4.463-2.886-.131-.31-4.039,1.3-4.574,1.5-.874.321-1.749.644-2.645.9-.4.115-1.491.459-1.363-.247.064-.338.591-.667.86-.853q3.771-2.6,7.719-4.948l-.148-.092a2.045,2.045,0,0,0-1.078.188q-.877.3-1.769.557a35.814,35.814,0,0,1-3.614.836,1.41,1.41,0,0,1-.721,0c-1.122-.407.661-1.676,1.057-1.944,2.823-1.91,6.331-2.886,9.087-4.894a21.2,21.2,0,0,0-3.873.615c-3.7.846-4.453.9-7.771-.18a.153.153,0,0,1-.1-.2h0v0a14.139,14.139,0,0,0-6.333.015l-4.825,12.03a39.75,39.75,0,0,0,5.073,3.234h0A.171.171,0,0,1,617.553,609.684Z" transform="translate(-470.292 -338.631)" fill="#f59d9b"/><path d="M662.539,631.35c.826.269,1.674.524,2.519.758.108.03.264.085.444.148.469.167,1.34.478,1.6.331a.149.149,0,0,0,.1-.13c.015-.272-.421-.912-2.589-2.418l-.161-.113c-.493-.352-1.024-.678-1.553-1a21.25,21.25,0,0,1-3.535,1.282C660.414,630.621,661.475,631,662.539,631.35Z" transform="translate(-496.45 -357.797)" fill="#f59d9b"/><path d="M671.161,626.579c.855.315,1.74.641,2.633.9l.056.016c.219.063.885.255,1.061.111.04-.034.052-.1.034-.2-.044-.244-.463-.529-.714-.7l-.081-.055c-.389-.268-.784-.532-1.177-.8q-.961.328-1.909.688Z" transform="translate(-502.944 -356.104)" fill="#f59d9b"/><path d="M514.83,590.588l.089.029.129-.614Z" transform="translate(-415.689 -336.378)" fill="#929b74"/><path d="M562.406,559.136c.214-.028.631-.121,1.18-.224l.254-.632-.579-.236c-.327-.133-32.577-13.411-33.207-27.271a1.8,1.8,0,0,1-.162.231l-1.011-.8a2.725,2.725,0,0,0,.2-.312,16.946,16.946,0,0,0-12.56,2.01l.738,1.031a15.793,15.793,0,0,1,11.49-1.846c.426,6.094,6.216,12.642,17.217,19.475a127.587,127.587,0,0,0,16.2,8.382L557.7,570.066,515.377,556.1l-.22.589-.129.614,43.453,14.336.281-.7c-.254-.19-.512-.376-.762-.572Z" transform="translate(-416.121 -303.067)" fill="#929b74"/><path d="M614.977,595.162,610.571,606.4c.249.2.507.382.761.572l4.825-12.03C615.608,595.042,615.191,595.134,614.977,595.162Z" transform="translate(-469.182 -339.093)" fill="#929b74"/><path d="M547.753,523.846c-.676,1.412-1.192,2.446-1.484,2.955.17.039.34.075.508.119l.445.136.011.442c0,.062.009.123.011.185.327-.523.951-1.755,1.756-3.429Z" transform="translate(-433.257 -299.977)" fill="#929b74"/><path d="M562.666,464.364l.044-.1.35-5.8-1.32-.07-.337,5.587c-3.112,7.013-7.354,16.437-10.034,22.141l1.25.408C555.972,479.421,561.286,467.476,562.666,464.364Z" transform="translate(-436.165 -263.964)" fill="#929b74"/><path d="M546.981,530.67l-.445-.136c-.169-.044-.339-.08-.508-.119a2.714,2.714,0,0,1-.2.312l1.011.8A1.811,1.811,0,0,0,547,531.3c0-.062-.01-.123-.011-.185Z" transform="translate(-433.001 -303.591)" fill="#929b74"/><path d="M653.487,630.343a2.048,2.048,0,0,0-.759-.23c-.018.018-.04.033-.058.051a1.617,1.617,0,0,0-.169.229c.021.019.04.038.067.059.359.278.732.546,1.1.811.091,0,.182-.012.269-.024.378-.069.751-.156,1.124-.245-.489-.195-.976-.393-1.457-.6Z" transform="translate(-492.567 -358.448)" fill="#f59d9b"/><path d="M664.457,584.392c-3.261,1.061-4,1.02-7.678.179s-6.555-1.07-5,.858,7.423,1.106,5.637,2.628c-.111.095-.226.183-.34.273.762.031,1.042.225,1.176.416.217.311.1.74-.362,1.311-.8,1-2.633,1.283-4.1,1.514-.826.13-1.76.276-1.832.51-.012.037-.009.153.277.4a23.6,23.6,0,0,0,5.458,3.151,31.26,31.26,0,0,1,4.361,2.314c.59.4,1.566,1.156,1.487,1.739a.617.617,0,0,1-.467.478,1.557,1.557,0,0,1-.811.007,36.193,36.193,0,0,1-3.632-.843c-.593-.171-1.191-.359-1.779-.56l-.106-.037a2.331,2.331,0,0,0-.691-.169c2.181,1.306,4.342,2.686,6.447,4.109q.745-.248,1.5-.477a37.21,37.21,0,0,0,6.566-2.486,39.767,39.767,0,0,0,5.406-3.458L670.5,584.613A10.5,10.5,0,0,0,664.457,584.392Z" transform="translate(-492.141 -333.046)" fill="#f59d9b"/><path d="M662.095,624.857c.652.474,1.366.9,2.06,1.314.2.119.4.244.605.366q.465-.192.935-.376l-.107-.042C663.855,625.435,662.685,625.012,662.095,624.857Z" transform="translate(-497.934 -355.556)" fill="#f59d9b"/><path d="M652.962,631.982c-.239-.174-.481-.344-.714-.524C652.238,631.76,652.555,631.923,652.962,631.982Z" transform="translate(-492.409 -359.188)" fill="#f59d9b"/><path d="M652.777,615.768q.947-.362,1.909-.688c-2.148-1.448-4.351-2.85-6.574-4.17l-.234-.138.24-.128a1.6,1.6,0,0,1,1.3.074l.1.036c.579.2,1.172.386,1.76.555a35.822,35.822,0,0,0,3.6.837,1.256,1.256,0,0,0,.631.008c.239-.087.254-.193.258-.226.046-.336-.646-.97-1.351-1.448a31.09,31.09,0,0,0-4.315-2.288,24.012,24.012,0,0,1-3.683-1.918q-3.947,2.349-7.719,4.948c-.269.185-.8.515-.861.853-.128.706.959.362,1.363.247.9-.255,1.771-.578,2.645-.9.535-.2,4.443-1.811,4.574-1.5-1.363,1.084-3.036,1.865-4.463,2.886-.443.317-3.592,2.4-2.639,2.919.432.237,1.722-.339,2.178-.465q1.272-.352,2.526-.76,2.564-.833,5.035-1.894a2.624,2.624,0,0,1,1.072-.315c.5.03.529.336.143.635-.6.466-1.221.9-1.847,1.335a21.2,21.2,0,0,1,3.939,1.346Z" transform="translate(-484.518 -345.33)" fill="#f59d9b"/><path d="M645.292,597.727c.131-.418.953-.549,2.1-.728,1.411-.222,3.168-.5,3.893-1.4.247-.306.508-.722.349-.952-.1-.145-.418-.3-1.3-.277-2.756,2.009-6.264,2.985-9.087,4.894-.4.269-2.179,1.537-1.057,1.944a1.411,1.411,0,0,0,.721,0,35.79,35.79,0,0,0,3.614-.836q.892-.259,1.768-.557a2.045,2.045,0,0,1,1.078-.188c-.583-.375-1.156-.766-1.7-1.189C645.346,598.174,645.226,597.94,645.292,597.727Z" transform="translate(-485.571 -338.782)" fill="#f59d9b"/><path d="M654.393,627.074c.608.261,1.225.509,1.845.751a21.244,21.244,0,0,0,3.535-1.282c-.142-.085-.284-.174-.425-.258a22.414,22.414,0,0,1-2.492-1.638l-.071-.056c-.634.433-1.272.862-1.9,1.306a8.677,8.677,0,0,0-1.2.909,2.381,2.381,0,0,1,.593.216Z" transform="translate(-493.26 -355.409)" fill="#f59d9b"/><path d="M644.865,594.309c-3.62.828-4.352.877-7.584-.172a.168.168,0,0,0-.209.095c.052.015.106.027.157.044,3.261,1.061,4,1.02,7.677.179a20.3,20.3,0,0,1,4.133-.622c.062-.047.121-.1.183-.147A18.122,18.122,0,0,0,644.865,594.309Z" transform="translate(-484.04 -338.402)" fill="#ed6772"/><path d="M652.061,630.323a.9.9,0,0,1,.073-.145c-.112-.1-.147-.187-.136-.218s.072-.071.25-.082c.039,0,.075.015.113.019.051-.049.108-.093.16-.141a2.572,2.572,0,0,0-.282-.036C651.758,629.749,651.716,630.034,652.061,630.323Z" transform="translate(-492.178 -358.231)" fill="#ed6772"/><path d="M673.721,626.366c.269.185.8.515.86.853.128.706-.959.363-1.363.247-.9-.255-1.771-.578-2.645-.9l-.26-.1-.213.086c.19.075.335.132.411.16.861.318,1.751.645,2.657.9l.055.016c.514.149,1.086.286,1.377.047a.473.473,0,0,0,.142-.485c-.067-.367-.536-.685-.847-.9l-.079-.053c-.33-.228-.666-.451-1-.677l-.183.063C673,625.875,673.361,626.118,673.721,626.366Z" transform="translate(-502.414 -355.946)" fill="#ed6772"/><path d="M637.437,630.587c1.043.751,2.121,1.452,3.173,2.2a8.611,8.611,0,0,1,1.566,1.229c.851.968-.385,1.2-1.271,1.075a21.283,21.283,0,0,1-5.385-1.747,55.427,55.427,0,0,0-5.3-1.9,37.211,37.211,0,0,1-6.566-2.486c-.046-.025-.091-.052-.137-.077a.15.15,0,0,0,.052.214,34.787,34.787,0,0,0,6.147,2.358l.448.141a55.593,55.593,0,0,1,5.288,1.894,21.6,21.6,0,0,0,5.43,1.761,3.574,3.574,0,0,0,.471.031,1.415,1.415,0,0,0,1.207-.432c.149-.254.064-.567-.254-.929a6.58,6.58,0,0,0-1.266-1.029l-.327-.225c-.475-.333-.951-.659-1.428-.984-.52-.354-1.048-.72-1.572-1.093C637.618,630.588,637.527,630.59,637.437,630.587Z" transform="translate(-476.516 -357.767)" fill="#ed6772"/><path d="M662.44,628.665c.5.3,1,.614,1.474.951.444.317,3.592,2.4,2.639,2.919-.431.237-1.721-.34-2.178-.466q-1.272-.351-2.526-.759-1.706-.555-3.37-1.213c-.092.023-.187.04-.279.062,1.183.471,2.386.908,3.593,1.3.832.27,1.683.526,2.533.761.1.029.25.082.421.142.815.289,1.52.513,1.888.309a.457.457,0,0,0,.259-.382c.031-.527-.81-1.355-2.723-2.684l-.158-.111c-.446-.32-.92-.614-1.4-.9l-.157.063Z" transform="translate(-495.808 -357.611)" fill="#ed6772"/><path d="M630.247,631.35a55.365,55.365,0,0,1,5.3,1.9A21.281,21.281,0,0,0,640.937,635c.886.123,2.122-.107,1.271-1.075a8.606,8.606,0,0,0-1.566-1.229c-1.052-.743-2.129-1.445-3.173-2.2a2.7,2.7,0,0,1-.3-.026c.647.471,1.3.929,1.948,1.368.476.324.952.649,1.424.981q.163.115.331.228a6.331,6.331,0,0,1,1.207.976c.153.175.315.416.217.579-.13.219-.721.326-1.338.239a21.31,21.31,0,0,1-5.341-1.733,55.872,55.872,0,0,0-5.32-1.906l-.449-.14a34.584,34.584,0,0,1-6.088-2.333.171.171,0,0,0-.216.055h0c.046.025.091.052.137.077A37.22,37.22,0,0,0,630.247,631.35Z" transform="translate(-476.546 -357.678)" fill="#ed6772"/><path d="M664.153,629.83l.161.113c2.168,1.506,2.6,2.146,2.589,2.419a.149.149,0,0,1-.1.13c-.264.147-1.136-.165-1.6-.332-.18-.064-.336-.119-.444-.148-.845-.234-1.693-.489-2.519-.758-1.064-.346-2.126-.729-3.174-1.138-.082.022-.162.049-.245.07q1.665.655,3.37,1.213,1.254.408,2.526.759c.457.126,1.746.7,2.178.466.953-.522-2.195-2.6-2.639-2.919-.471-.337-.97-.647-1.474-.951-.059.028-.121.051-.181.079C663.129,629.152,663.661,629.478,664.153,629.83Z" transform="translate(-496.15 -357.7)" fill="#ed6772"/><path d="M656.6,606.068l.148.092.04-.024A.752.752,0,0,0,656.6,606.068Z" transform="translate(-494.833 -345.217)" fill="#ed6772"/><path d="M673.88,626.57l.08.055c.251.169.67.454.714.7.018.1.006.165-.034.2-.176.144-.842-.048-1.061-.111l-.056-.016c-.893-.255-1.778-.581-2.633-.9l-.1-.037-.22.082.26.1c.874.321,1.749.643,2.645.9.4.116,1.49.459,1.363-.247-.064-.338-.591-.667-.86-.853-.36-.248-.724-.491-1.087-.736l-.191.066C673.1,626.038,673.491,626.3,673.88,626.57Z" transform="translate(-502.675 -356.023)" fill="#ed6772"/><path d="M652.018,629.38c-.392.025-.508.2-.543.3-.065.188.047.412.306.613l.032.023a.547.547,0,0,1,.041-.179c-.345-.288-.3-.574.178-.6a2.57,2.57,0,0,1,.282.036c.047-.044.1-.085.144-.128A2.389,2.389,0,0,0,652.018,629.38Z" transform="translate(-491.97 -358.044)" fill="#ed6772"/><path d="M660.7,624.046a.216.216,0,0,0-.123.113l-.044.1.02.016.364-.251A.5.5,0,0,0,660.7,624.046Z" transform="translate(-497.034 -355.098)" fill="#ed6772"/><path d="M644.893,594.64c-3.681.841-4.416.882-7.677-.179-.052-.017-.105-.029-.157-.044v0h0a.152.152,0,0,0,.1.2c3.317,1.076,4.068,1.026,7.771.18a21.2,21.2,0,0,1,3.873-.615c.074-.054.15-.106.223-.162A20.294,20.294,0,0,0,644.893,594.64Z" transform="translate(-484.025 -338.587)" fill="#ed6772"/><path d="M660.982,624.4a27.949,27.949,0,0,0,2.988,1.935l.021-.009.157-.063c-.2-.122-.405-.247-.605-.366-.694-.418-1.409-.841-2.06-1.314.59.155,1.76.578,3.494,1.262l.107.042.213-.086C664.275,625.4,661.1,624.125,660.982,624.4Z" transform="translate(-497.319 -355.285)" fill="#ed6772"/><path d="M652.411,630.737a.9.9,0,0,0-.073.145c.013.011.022.021.035.031.309.239.622.47.939.7.09,0,.18,0,.27,0-.372-.265-.745-.533-1.1-.811C652.451,630.775,652.432,630.756,652.411,630.737Z" transform="translate(-492.464 -358.791)" fill="#ed6772"/><path d="M657.282,604.088l.106.037c.588.2,1.186.39,1.779.56a36.19,36.19,0,0,0,3.632.843,1.556,1.556,0,0,0,.811-.007.617.617,0,0,0,.467-.478c.08-.583-.9-1.34-1.487-1.739a31.25,31.25,0,0,0-4.361-2.314,23.607,23.607,0,0,1-5.457-3.151c-.286-.243-.289-.359-.277-.4.073-.234,1.006-.38,1.832-.51,1.469-.231,3.3-.517,4.1-1.514.461-.57.579-1,.362-1.311-.134-.191-.414-.385-1.176-.416-.061.049-.121.1-.183.147,1.232.009,1.725.416.866,1.48-1.556,1.928-7.424,1.107-5.637,2.629,2.845,2.422,6.749,3.39,9.833,5.476.4.268,2.179,1.537,1.057,1.944a1.4,1.4,0,0,1-.721,0,35.9,35.9,0,0,1-3.614-.836q-.892-.259-1.768-.557a1.615,1.615,0,0,0-1.266-.12q3.4,2.024,6.672,4.237l.184-.063c-2.105-1.424-4.266-2.8-6.447-4.109A2.332,2.332,0,0,1,657.282,604.088Z" transform="translate(-492.557 -338.408)" fill="#ed6772"/><path d="M653.956,630.08a2.6,2.6,0,0,0-.79-.28c-.052.048-.109.091-.16.141a2.046,2.046,0,0,1,.759.23l.121.053c.481.206.968.4,1.457.6.092-.022.187-.038.279-.062C655.063,630.542,654.507,630.317,653.956,630.08Z" transform="translate(-492.85 -358.276)" fill="#ed6772"/><path d="M652.962,631.763a2.69,2.69,0,0,0,.3.026c-.316-.228-.63-.458-.939-.7-.014-.01-.023-.021-.035-.031a.546.546,0,0,0-.04.179C652.481,631.419,652.723,631.589,652.962,631.763Z" transform="translate(-492.412 -358.969)" fill="#ed6772"/><path d="M658.307,594.457c.159.23-.1.645-.349.952-.725.9-2.482,1.174-3.893,1.4-1.144.179-1.966.31-2.1.728-.066.214.054.447.372.716.546.424,1.118.814,1.7,1.189a.754.754,0,0,1,.188.068l-.04.024a24.007,24.007,0,0,0,3.683,1.918,31.083,31.083,0,0,1,4.315,2.288c.705.478,1.4,1.112,1.351,1.448,0,.034-.019.139-.258.226a1.256,1.256,0,0,1-.632-.008,35.8,35.8,0,0,1-3.6-.836c-.588-.169-1.181-.355-1.76-.555l-.1-.036a1.6,1.6,0,0,0-1.3-.074l-.24.128.233.138c2.223,1.32,4.427,2.722,6.574,4.17l.191-.066q-3.272-2.209-6.672-4.237a1.616,1.616,0,0,1,1.266.12q.876.3,1.769.557a35.884,35.884,0,0,0,3.614.836,1.4,1.4,0,0,0,.721,0c1.122-.407-.661-1.676-1.057-1.944-3.085-2.086-6.989-3.055-9.833-5.476-1.786-1.522,4.081-.7,5.637-2.628.859-1.064.367-1.47-.866-1.48-.073.056-.149.108-.223.162C657.889,594.155,658.205,594.311,658.307,594.457Z" transform="translate(-492.347 -338.587)" fill="#ed6772"/><path d="M664.885,625.378a21.208,21.208,0,0,0-3.939-1.346l-.364.251.071.056a22.4,22.4,0,0,0,2.492,1.638c.141.084.283.172.425.258.06-.028.121-.051.181-.079a27.96,27.96,0,0,1-2.988-1.935c.118-.28,3.293,1,4.315,1.4l.22-.082Z" transform="translate(-497.1 -355.102)" fill="#ed6772"/><path d="M654.217,629.783l-.118-.052a2.379,2.379,0,0,0-.593-.216c-.048.043-.1.084-.144.128a2.6,2.6,0,0,1,.79.28c.551.237,1.108.462,1.666.681.082-.021.163-.049.245-.07C655.442,630.292,654.824,630.044,654.217,629.783Z" transform="translate(-493.049 -358.119)" fill="#ed6772"/><path d="M778.942,598.566l.044.6.071-.012Z" transform="translate(-563.133 -341.09)" fill="#929b74"/><path d="M731.582,523.279,699.943,528.7l-5.122-10.889c3.425-1.587,20.977-10.187,30.943-24.009l.151-.208-5.7-30.714-1.3.214,5.609,30.217c-10.847,14.869-30.64,23.55-30.839,23.636l-.591.256.372.792a7.79,7.79,0,0,0,.82.2l5.218,11.007c-.185.146-.378.282-.566.425l.221.47,32.592-5.588-.044-.6Z" transform="translate(-515.645 -266.433)" fill="#929b74"/><path d="M694.738,585.627a7.8,7.8,0,0,1-.82-.2l5.472,11.633c.188-.143.381-.279.566-.425Z" transform="translate(-515.727 -333.86)" fill="#929b74"/><path d="M536.148,633.572,517.9,639.361a1,1,0,0,0-.407.246.894.894,0,0,0,.047,1.318l5.758,5.066-23.761,10.778a.93.93,0,0,0-.561.841.964.964,0,0,0,.992.932,1.044,1.044,0,0,0,.434-.093l25.063-11.37a.986.986,0,0,0,.294-.2.894.894,0,0,0-.047-1.317l-5.6-4.929,16.675-5.289a.921.921,0,0,0,.622-1.182A1.007,1.007,0,0,0,536.148,633.572Z" transform="translate(-407.065 -360.324)" fill="#f0f9fe"/><path d="M714.727,626.15l14.3,4.668-4.107,3.7a.938.938,0,0,0-.152.176.9.9,0,0,0,.31,1.287l14.312,8.476a1.027,1.027,0,0,0,.528.143h0a1.008,1.008,0,0,0,.839-.435.9.9,0,0,0-.309-1.287l-13.237-7.839,4.36-3.929a.929.929,0,0,0,.25-.366.919.919,0,0,0-.61-1.187l-15.829-5.168a1.009,1.009,0,0,0-1.244.567A.919.919,0,0,0,714.727,626.15Z" transform="translate(-527.227 -355.272)" fill="#f0f9fe"/><path d="M557.968,524.5l-4.107,3.7a.949.949,0,0,0-.153.176.9.9,0,0,0,.311,1.286l14.311,8.475a1.027,1.027,0,0,0,.528.143h0a1.008,1.008,0,0,0,.839-.435.9.9,0,0,0-.31-1.286l-13.237-7.84,4.36-3.929a.907.907,0,0,0-.361-1.553l-6.995-2.284c-.286.608-.559,1.18-.813,1.709Z" transform="translate(-436.75 -298.384)" fill="#f0f9fe"/><path d="M532.877,514.47l-.027-.009a1.007,1.007,0,0,0-1.253.592.921.921,0,0,0,.63,1.178l7.425,2.424c.249-.521.521-1.095.81-1.71Z" transform="translate(-425.075 -294.787)" fill="#f0f9fe"/><path d="M551.628,520.453l-1.25-.408c-.289.615-.561,1.189-.81,1.71l1.247.407C551.069,521.633,551.341,521.061,551.628,520.453Z" transform="translate(-435.094 -297.885)" fill="#f0f9fe"/><path d="M689.907,534.4a1.037,1.037,0,0,0,1.4.029L702.6,524.25l3,4.929a.959.959,0,0,0,.317.316,1.031,1.031,0,0,0,1.373-.27l9.162-13.192.015-.023a.9.9,0,0,0-.308-1.287,1.029,1.029,0,0,0-1.368.29l-8.276,11.917-2.825-4.642a.926.926,0,0,0-.145-.182,1.037,1.037,0,0,0-1.4-.028l-12.208,11.007a.906.906,0,0,0-.276.447h0A.9.9,0,0,0,689.907,534.4Z" transform="translate(-513.567 -294.878)" fill="#f0f9fe"/></svg>