<svg xmlns="http://www.w3.org/2000/svg" xmlns:xlink="http://www.w3.org/1999/xlink" width="320.426" height="320.426" viewBox="0 0 320.426 320.426"><defs><linearGradient id="a" x1="-4.25" y1="3.944" x2="-4.251" y2="3.946" gradientUnits="objectBoundingBox"><stop offset="0" stop-color="#f59d9b"/><stop offset="1" stop-color="#e73151"/></linearGradient><linearGradient id="b" x1="-31.175" y1="160.306" x2="-31.18" y2="160.375" xlink:href="#a"/><linearGradient id="c" x1="-6.856" y1="11.106" x2="-6.857" y2="11.11" xlink:href="#a"/></defs><path d="M645.667,186.374A160.213,160.213,0,1,0,412.634,329.169c0-.082.009-.162.013-.244a160,160,0,1,1,152.331-3.647c.008.081.016.163.023.244A160.218,160.218,0,0,0,645.667,186.374Z" transform="translate(-325.241 -26.105)" fill="#fff"/><path d="M414.161,309.192l0-.026c.305-4.456.641-9.047,1.008-13.747q-.859-.425-1.652-.914c-5.17-3.209-8.2-8.531-9.069-15.877q-.54-.274-1.064-.582c-1.79-1.023-1.408-2.4-.272-2.629,0-.01,0-.02,0-.03a.36.36,0,0,1,.418-.222c-.182-.4-.875-1.249-1.069-1.629-.922-1.8.03-2.423.629-2.63a.341.341,0,0,1,.232-.3c-2.494-2.91,1.245-3.508,1.245-3.508q.362.3.727.586c6.388-69.865,28.654-90.674,28.9-90.907l.007-.007h0c8.449-10.712,17.983-18.931,30.653-22.833.1-6.717-.266-16.425-2.576-24.608,0,0-5.845,1.967-8.929-4.488s-5.6-12.315-1.748-13.763h0c-5.657-1.958-6.462-8.545-6.461-8.545-7.948-13.173,4.626-35.069,16.549-37.2s21.889,4.094,24.024,2.314,5.161-11.927,20.464-9.5,6.051,19.111,1.6,24.985a7.286,7.286,0,0,1-4.007,2.66,29.1,29.1,0,0,1,3.32,5.373,58.612,58.612,0,0,1,4.906,16.812c.336,2.135.6,4.328.764,6.55l2.007-1.591a3.61,3.61,0,1,1,1.961,2.32l-3.791,2.829a50.285,50.285,0,0,1-2.294,17.075c-2.165,6.474-6.287,13.064-12.572,15.646,9.327.831,18.366,3.4,25.927,8.69a60.42,60.42,0,0,1,16.042,17.281v0l.021.035A95.511,95.511,0,0,1,546.148,188c5.621,11.04,13.817,29.005,18.769,48.308h0l.705-.187c.142.538,3.482,13.247,3.749,20.366.278,7.411-9.279,11.751-9.988,12.06-.074.039-.147.076-.221.114,2.276,18.457,4.36,38.633,6.094,56.9A159.983,159.983,0,1,0,412.924,329.2c.347-6.292.756-12.989,1.237-20.011Zm29.48-229a.364.364,0,0,1,.638.35c-.073.134-7.192,13.394-.472,24.037a.364.364,0,0,1-.307.559h0a.365.365,0,0,1-.308-.17C436.242,93.962,443.568,80.332,443.642,80.2Z" transform="translate(-325.518 -26.382)" fill="#fff" opacity="0.651"/><path d="M592.629,714.453a158.342,158.342,0,0,1-72.365-17.382c-.005.082-.009.161-.013.243A159.489,159.489,0,0,0,671.7,693.69c-.008-.081-.015-.162-.023-.243A158.288,158.288,0,0,1,592.629,714.453Z" transform="translate(-432.377 -394.25)" fill="#c1cf95"/><path d="M532,361.578c-.249.231-22.38,20.906-28.729,90.323l0,0C511.227,382.746,531.712,361.867,532,361.578Z" transform="translate(-423.438 -210.876)" fill="#c1cf95"/><path d="M524.048,626.224c-.364,4.67-.7,9.231-1,13.659l1.006-13.657Z" transform="translate(-434.399 -356.97)" fill="#c1cf95"/><path d="M637.456,221.052a19.928,19.928,0,0,1-8.9-6.68,19.312,19.312,0,0,1-3.542-7.847.543.543,0,0,1,1.073-.165,18.586,18.586,0,0,0,3.37,7.4,19.143,19.143,0,0,0,11.119,7.149,83.739,83.739,0,0,1,9.807.271c6.247-2.565,10.343-9.114,12.5-15.546a49.946,49.946,0,0,0,2.28-16.966l-8.4,6.264a11.4,11.4,0,0,1,1.386.674.543.543,0,1,1-.542.94,7.392,7.392,0,0,0-5.742-.98,9.811,9.811,0,0,0-5.2,4.214.543.543,0,0,1-.945-.533,10.758,10.758,0,0,1,5.851-4.725,7.464,7.464,0,0,1,1.891-.256l11.523-9.132c-.164-2.207-.425-4.387-.76-6.508a58.22,58.22,0,0,0-4.876-16.7,28.91,28.91,0,0,0-3.3-5.339c-4.957,1.37-11.9-1.179-17.419-1.582-7.252-.531-7.073,3.184-10.081,6.721s-6.192-.53-12.383,2.653-2.653,12.2.354,15.387,2.122,8.49,0,11.32-5.306-4.245-6.7-7.428-5.584-1.956-5.621-1.946h0c-3.825,1.438-1.327,7.261,1.737,13.675s8.874,4.46,8.874,4.46c2.3,8.131,2.659,17.776,2.56,24.45a53.639,53.639,0,0,1,5.84-1.443A115.008,115.008,0,0,1,637.456,221.052Zm9.653-12.367a8.337,8.337,0,0,1,2-1.925,5.934,5.934,0,0,1,5.386-.833.543.543,0,1,1-.344,1.029,4.815,4.815,0,0,0-4.4.682A7.344,7.344,0,0,0,648,209.3a.543.543,0,0,1-.893-.617ZM626.17,184.453c-1.133-.619-.37-4.562-.37-4.562a17.172,17.172,0,0,1,1.945,3.045C627.834,183.54,627.3,185.072,626.17,184.453Zm25.582-11.689c-.623-.008-1.117-.848-1.1-1.874s.531-1.852,1.155-1.843,1.117.848,1.1,1.874S652.376,172.773,651.753,172.764Zm10.719,4.3c.168.7-1.63,1.727-4.016,2.3s-4.456.475-4.624-.221,1.631-1.727,4.016-2.3S662.3,176.369,662.471,177.066ZM644.249,163.92a.723.723,0,0,1,1.017-.108c.054.042,3.073,2.31,9.608.458a.724.724,0,1,1,.395,1.393,19.159,19.159,0,0,1-5.224.789c-3.773,0-5.587-1.43-5.689-1.514A.723.723,0,0,1,644.249,163.92Zm-2.085,6.681a.543.543,0,0,1,.68.3c.022.058,2.251,5.8,5.173,6.94.411.159.795.3,1.149.433,1.629.6,2.706,1,3.052,1.915a2.682,2.682,0,0,1-.381,2.13l-.237.439c-1.013,1.875-1.432,2.652-1.3,3.459a.543.543,0,0,1-.449.625.549.549,0,0,1-.086.007h0a.543.543,0,0,1-.534-.454c-.2-1.175.308-2.108,1.413-4.154l.237-.438a1.725,1.725,0,0,0,.322-1.232c-.171-.452-1.158-.817-2.413-1.28-.359-.134-.749-.277-1.166-.439-3.369-1.31-5.7-7.309-5.793-7.564A.543.543,0,0,1,642.164,170.6Zm-.191,12.808c.338.886-2.3,2.714-5.885,4.081s-6.771,1.757-7.109.87,2.3-2.714,5.885-4.081S641.636,182.523,641.974,183.41Zm-6.845-5.354c-.623-.008-1.117-.848-1.1-1.874s.531-1.852,1.155-1.843,1.117.848,1.1,1.874S635.752,178.065,635.129,178.056Zm-9.083-6.873c6.719-1.175,8.439-4.552,8.456-4.586a.724.724,0,1,1,1.308.619c-.078.166-1.987,4.075-9.515,5.393a.74.74,0,0,1-.126.011.724.724,0,0,1-.124-1.437Zm-15.714,18.731a8.69,8.69,0,0,1-.891,2.72c-.571,1.212-.784,1.666.215,2.444a.543.543,0,0,1-.334.971h0a.541.541,0,0,1-.333-.114c-1.685-1.311-1.1-2.558-.53-3.763a7.665,7.665,0,0,0,.8-2.392c.116-.931-.484-1.169-1.881-1.492-1.052-.244-2.492-.577-2.243-2.067a1.926,1.926,0,0,1,1.021-1.567,2.551,2.551,0,0,1,2.148.245.543.543,0,0,1-.549.935,1.531,1.531,0,0,0-1.141-.2c-.2.1-.34.352-.408.761-.063.376.116.53,1.417.831C608.8,187.5,610.581,187.915,610.332,189.914Zm7.832,4.3-1.179-1.061,2.358-5.188,1.3,1.768Zm2.949-11.791c-1.238-1.592,0-5.573,0-5.573a16.634,16.634,0,0,1,2.3,3.362C623.943,181.535,622.351,184.011,621.113,182.419Z" transform="translate(-477.924 -97.113)" fill="#fff"/><path d="M637.456,221.052a19.928,19.928,0,0,1-8.9-6.68,19.312,19.312,0,0,1-3.542-7.847.543.543,0,0,1,1.073-.165,18.586,18.586,0,0,0,3.37,7.4,19.143,19.143,0,0,0,11.119,7.149,83.739,83.739,0,0,1,9.807.271c6.247-2.565,10.343-9.114,12.5-15.546a49.946,49.946,0,0,0,2.28-16.966l-8.4,6.264a11.4,11.4,0,0,1,1.386.674.543.543,0,1,1-.542.94,7.392,7.392,0,0,0-5.742-.98,9.811,9.811,0,0,0-5.2,4.214.543.543,0,0,1-.945-.533,10.758,10.758,0,0,1,5.851-4.725,7.464,7.464,0,0,1,1.891-.256l11.523-9.132c-.164-2.207-.425-4.387-.76-6.508a58.22,58.22,0,0,0-4.876-16.7,28.91,28.91,0,0,0-3.3-5.339c-4.957,1.37-11.9-1.179-17.419-1.582-7.252-.531-7.073,3.184-10.081,6.721s-6.192-.53-12.383,2.653-2.653,12.2.354,15.387,2.122,8.49,0,11.32-5.306-4.245-6.7-7.428-5.584-1.956-5.621-1.946h0c-3.825,1.438-1.327,7.261,1.737,13.675s8.874,4.46,8.874,4.46c2.3,8.131,2.659,17.776,2.56,24.45a53.639,53.639,0,0,1,5.84-1.443A115.008,115.008,0,0,1,637.456,221.052Zm9.653-12.367a8.337,8.337,0,0,1,2-1.925,5.934,5.934,0,0,1,5.386-.833.543.543,0,1,1-.344,1.029,4.815,4.815,0,0,0-4.4.682A7.344,7.344,0,0,0,648,209.3a.543.543,0,0,1-.893-.617ZM626.17,184.453c-1.133-.619-.37-4.562-.37-4.562a17.172,17.172,0,0,1,1.945,3.045C627.834,183.54,627.3,185.072,626.17,184.453Zm25.582-11.689c-.623-.008-1.117-.848-1.1-1.874s.531-1.852,1.155-1.843,1.117.848,1.1,1.874S652.376,172.773,651.753,172.764Zm10.719,4.3c.168.7-1.63,1.727-4.016,2.3s-4.456.475-4.624-.221,1.631-1.727,4.016-2.3S662.3,176.369,662.471,177.066ZM644.249,163.92a.723.723,0,0,1,1.017-.108c.054.042,3.073,2.31,9.608.458a.724.724,0,1,1,.395,1.393,19.159,19.159,0,0,1-5.224.789c-3.773,0-5.587-1.43-5.689-1.514A.723.723,0,0,1,644.249,163.92Zm-2.085,6.681a.543.543,0,0,1,.68.3c.022.058,2.251,5.8,5.173,6.94.411.159.795.3,1.149.433,1.629.6,2.706,1,3.052,1.915a2.682,2.682,0,0,1-.381,2.13l-.237.439c-1.013,1.875-1.432,2.652-1.3,3.459a.543.543,0,0,1-.449.625.549.549,0,0,1-.086.007h0a.543.543,0,0,1-.534-.454c-.2-1.175.308-2.108,1.413-4.154l.237-.438a1.725,1.725,0,0,0,.322-1.232c-.171-.452-1.158-.817-2.413-1.28-.359-.134-.749-.277-1.166-.439-3.369-1.31-5.7-7.309-5.793-7.564A.543.543,0,0,1,642.164,170.6Zm-.191,12.808c.338.886-2.3,2.714-5.885,4.081s-6.771,1.757-7.109.87,2.3-2.714,5.885-4.081S641.636,182.523,641.974,183.41Zm-6.845-5.354c-.623-.008-1.117-.848-1.1-1.874s.531-1.852,1.155-1.843,1.117.848,1.1,1.874S635.752,178.065,635.129,178.056Zm-9.083-6.873c6.719-1.175,8.439-4.552,8.456-4.586a.724.724,0,1,1,1.308.619c-.078.166-1.987,4.075-9.515,5.393a.74.74,0,0,1-.126.011.724.724,0,0,1-.124-1.437Zm-15.714,18.731a8.69,8.69,0,0,1-.891,2.72c-.571,1.212-.784,1.666.215,2.444a.543.543,0,0,1-.334.971h0a.541.541,0,0,1-.333-.114c-1.685-1.311-1.1-2.558-.53-3.763a7.665,7.665,0,0,0,.8-2.392c.116-.931-.484-1.169-1.881-1.492-1.052-.244-2.492-.577-2.243-2.067a1.926,1.926,0,0,1,1.021-1.567,2.551,2.551,0,0,1,2.148.245.543.543,0,0,1-.549.935,1.531,1.531,0,0,0-1.141-.2c-.2.1-.34.352-.408.761-.063.376.116.53,1.417.831C608.8,187.5,610.581,187.915,610.332,189.914Zm7.832,4.3-1.179-1.061,2.358-5.188,1.3,1.768Zm2.949-11.791c-1.238-1.592,0-5.573,0-5.573a16.634,16.634,0,0,1,2.3,3.362C623.943,181.535,622.351,184.011,621.113,182.419Z" transform="translate(-477.924 -97.113)" fill="url(#a)"/><path d="M688.287,302.984a28.567,28.567,0,0,0,5.638.78.536.536,0,0,1,.5.478,14.908,14.908,0,0,0,3.671-.986A83.749,83.749,0,0,0,688.287,302.984Z" transform="translate(-525.557 -178.877)" fill="#c1cf95"/><path d="M688.287,302.984a28.567,28.567,0,0,0,5.638.78.536.536,0,0,1,.5.478,14.908,14.908,0,0,0,3.671-.986A83.749,83.749,0,0,0,688.287,302.984Z" transform="translate(-525.557 -178.877)" fill="url(#b)"/><path d="M636.776,317.391a35.134,35.134,0,0,0,3.013,4.628h37.056c-3.264-3.935-6.857-7.315-8.56-9.027-2.394-2.407-3.254-6.493-3.493-7.938a.538.538,0,0,1-.076.016h-.024a27.012,27.012,0,0,1-8.71-1.726,115.007,115.007,0,0,0-14.253,1.8,53.638,53.638,0,0,0-5.84,1.443c-.035,2.392-.129,4.405-.216,5.826A9.291,9.291,0,0,0,636.776,317.391Z" transform="translate(-496.42 -179.054)" fill="#c1cf95"/><path d="M636.776,317.391a35.134,35.134,0,0,0,3.013,4.628h37.056c-3.264-3.935-6.857-7.315-8.56-9.027-2.394-2.407-3.254-6.493-3.493-7.938a.538.538,0,0,1-.076.016h-.024a27.012,27.012,0,0,1-8.71-1.726,115.007,115.007,0,0,0-14.253,1.8,53.638,53.638,0,0,0-5.84,1.443c-.035,2.392-.129,4.405-.216,5.826A9.291,9.291,0,0,0,636.776,317.391Z" transform="translate(-496.42 -179.054)" fill="url(#c)"/><path d="M696.864,198.3c.416.162.806.305,1.166.439,1.254.463,2.242.828,2.412,1.28a1.724,1.724,0,0,1-.322,1.232l-.237.438c-1.1,2.045-1.609,2.979-1.413,4.154a.543.543,0,0,0,.535.454h0a.551.551,0,0,0,.086-.007.544.544,0,0,0,.449-.625c-.135-.808.284-1.584,1.3-3.459l.237-.439a2.683,2.683,0,0,0,.381-2.13c-.346-.915-1.422-1.313-3.052-1.915-.354-.131-.738-.273-1.149-.433-2.922-1.136-5.151-6.882-5.173-6.94a.543.543,0,0,0-1.014.388C691.169,190.992,693.5,196.991,696.864,198.3Z" transform="translate(-527.074 -116.535)" fill="#6f262c"/><path d="M712.062,186.594c-.623-.008-1.14.816-1.155,1.843s.48,1.865,1.1,1.874,1.14-.816,1.155-1.843S712.685,186.6,712.062,186.594Z" transform="translate(-538.064 -114.666)" fill="#6f262c"/><path d="M674.741,198.474c-.623-.008-1.14.816-1.155,1.843s.48,1.865,1.1,1.874,1.14-.816,1.155-1.843S675.364,198.483,674.741,198.474Z" transform="translate(-517.469 -121.222)" fill="#6f262c"/><path d="M696.446,175.767c.1.085,1.916,1.514,5.689,1.514a19.158,19.158,0,0,0,5.224-.789.724.724,0,1,0-.395-1.393c-6.535,1.853-9.555-.416-9.608-.458a.724.724,0,0,0-.91,1.125Z" transform="translate(-529.905 -107.983)" fill="#6f262c"/><path d="M655.049,186.6a.74.74,0,0,0,.126-.011c7.528-1.318,9.437-5.227,9.515-5.393a.724.724,0,1,0-1.308-.619c-.017.034-1.737,3.41-8.456,4.586a.724.724,0,0,0,.124,1.437Z" transform="translate(-506.817 -111.114)" fill="#6f262c"/><path d="M611.17,224.012c-1.3-.3-1.48-.456-1.417-.831.068-.409.205-.666.408-.761a1.531,1.531,0,0,1,1.141.2.543.543,0,0,0,.549-.935,2.551,2.551,0,0,0-2.147-.245A1.926,1.926,0,0,0,608.683,223c-.249,1.49,1.191,1.824,2.243,2.067,1.4.323,2,.562,1.88,1.492a7.661,7.661,0,0,1-.8,2.392c-.567,1.205-1.155,2.452.531,3.763a.541.541,0,0,0,.333.114h0a.543.543,0,0,0,.334-.971c-1-.777-.786-1.231-.215-2.444a8.693,8.693,0,0,0,.891-2.72C614.133,224.7,612.35,224.285,611.17,224.012Z" transform="translate(-481.63 -133.793)" fill="#6f262c"/><path d="M593.278,126.3l.335.138c3.405-6.876,12.352-10.6,19.179-12.779a33.076,33.076,0,0,1,26.854,3.422,20.548,20.548,0,0,0,6.842-2.189,4.666,4.666,0,0,0,2.371-2.766l.7.169a5.348,5.348,0,0,1-2.7,3.217,19.972,19.972,0,0,1-6.328,2.129c.728.477,1.438.981,2.124,1.517a28.932,28.932,0,0,1,4.724,4.8,7.242,7.242,0,0,0,3.983-2.643c4.422-5.836,13.619-22.411-1.592-24.825s-18.218,7.668-20.34,9.436-12.027-4.422-23.878-2.3S581.2,127.507,589.1,140.595c0,0,.8,6.545,6.421,8.49h0a65.227,65.227,0,0,1-2.616-10.3C590.528,133.135,593.244,126.383,593.278,126.3Zm43.064-14.393c.568.24,6.785.235,10.487-2.281a5.725,5.725,0,0,0,2.755-5.065c-.039-1.794-.574-2.963-1.547-3.38-1.421-.61-3.482.395-4.794,1.587-1.273,1.158-1.908,2.486-1.619,3.388l-.689.223c-.381-1.189.317-2.777,1.822-4.143,1.528-1.388,3.841-2.457,5.568-1.717.873.375,1.927,1.379,1.985,4.029.064,2.915-1.6,5.212-4.819,6.637a20.509,20.509,0,0,1-7.714,1.548,4.011,4.011,0,0,1-1.876-.261l.5-.526A.2.2,0,0,0,636.342,111.907Z" transform="translate(-469.282 -64.934)" fill="#2b220b"/><path d="M608.643,171.065c1.4,3.184,4.58,10.258,6.7,7.428s3.007-8.136,0-11.32-6.544-12.2-.354-15.387,9.374.884,12.383-2.653,2.83-7.252,10.081-6.721c5.516.4,12.462,2.952,17.419,1.582a28.928,28.928,0,0,0-4.724-4.8c-.686-.536-1.4-1.04-2.124-1.517-7.587,1.447-18.132.983-23.739-.481-8.413-2.2-15.276,7.883-15.345,7.985l-.6-.4A25.532,25.532,0,0,1,613,139.771c3.807-3.112,7.776-4.246,11.476-3.278,5.36,1.4,15.287,1.884,22.669.623a33.076,33.076,0,0,0-26.854-3.422c-6.827,2.175-15.774,5.9-19.179,12.779l.333.138c-.04.1-3.9,9.69,1.871,15.179l-.5.525a10.315,10.315,0,0,1-2.408-3.5,65.188,65.188,0,0,0,2.616,10.3C603.059,169.109,607.252,167.9,608.643,171.065Z" transform="translate(-476.79 -84.968)" fill="#2b220b"/><path d="M635.33,234.243l1.179,1.061,2.476-4.481-1.3-1.768Z" transform="translate(-496.355 -138.092)" fill="#6f262c"/><path d="M646.213,207.465a16.64,16.64,0,0,0-2.3-3.362s-1.238,3.981,0,5.573S646.743,208.792,646.213,207.465Z" transform="translate(-500.789 -124.324)" fill="#fbfdf9"/><path d="M654.808,210.938s-.763,3.943.37,4.562,1.664-.913,1.575-1.518A17.172,17.172,0,0,0,654.808,210.938Z" transform="translate(-506.968 -128.098)" fill="#fbfdf9"/><path d="M700.971,306.445a.537.537,0,0,0,.458-.5.478.478,0,0,0-.013-.095c-.173.024-.345.049-.521.066C700.894,305.919,700.916,306.112,700.971,306.445Z" transform="translate(-532.544 -180.483)" fill="#6f262c"/><path d="M657.786,277.192a18.583,18.583,0,0,1-3.37-7.4.543.543,0,0,0-1.073.165,19.311,19.311,0,0,0,3.542,7.847,19.929,19.929,0,0,0,8.9,6.68q1.555-.094,3.117-.14A19.143,19.143,0,0,1,657.786,277.192Z" transform="translate(-506.256 -160.296)" fill="#6f262c"/><path d="M690.044,303.811a28.564,28.564,0,0,1-5.638-.78q-1.562.045-3.117.14A27.009,27.009,0,0,0,690,304.9h.024a.53.53,0,0,0,.076-.016c-.055-.333-.077-.526-.077-.526.176-.018.348-.043.521-.066A.535.535,0,0,0,690.044,303.811Z" transform="translate(-521.698 -178.923)" fill="#6f262c"/><path d="M662.222,223.2c.338.887,3.52.5,7.109-.87s6.223-3.195,5.886-4.081-3.521-.5-7.109.87S661.884,222.311,662.222,223.2Z" transform="translate(-511.149 -131.866)" fill="#6f262c"/><path d="M718.036,205.935c.168.7,2.238.8,4.624.221s4.184-1.6,4.017-2.3-2.238-.8-4.624-.221S717.868,205.238,718.036,205.935Z" transform="translate(-541.97 -123.863)" fill="#6f262c"/><path d="M703.286,272.615a.542.542,0,0,0,.447-.233,7.342,7.342,0,0,1,1.745-1.665,4.815,4.815,0,0,1,4.4-.682.543.543,0,1,0,.344-1.029,5.934,5.934,0,0,0-5.386.833,8.334,8.334,0,0,0-2,1.925.542.542,0,0,0,.445.85Z" transform="translate(-533.541 -159.972)" fill="#6f262c"/><path d="M715.572,132.222l-.7-.169a4.666,4.666,0,0,1-2.371,2.766,20.548,20.548,0,0,1-6.842,2.189q.448.273.886.56a19.973,19.973,0,0,0,6.328-2.129A5.348,5.348,0,0,0,715.572,132.222Z" transform="translate(-535.14 -84.86)" fill="#403823"/><path d="M634.68,141.361c-3.7-.968-7.669.166-11.476,3.278a25.531,25.531,0,0,0-4.655,5.008l.6.4c.069-.1,6.932-10.186,15.345-7.985,5.607,1.464,16.151,1.928,23.739.481q-.439-.287-.886-.56C649.967,143.245,640.041,142.763,634.68,141.361Z" transform="translate(-486.99 -89.836)" fill="#403823"/><path d="M699.125,117.91a20.508,20.508,0,0,0,7.713-1.548c3.215-1.425,4.883-3.722,4.819-6.637-.058-2.651-1.112-3.654-1.985-4.029-1.727-.741-4.04.329-5.568,1.717-1.5,1.366-2.2,2.954-1.822,4.143l.689-.223c-.289-.9.347-2.229,1.619-3.388,1.312-1.192,3.373-2.2,4.794-1.587.972.418,1.507,1.587,1.546,3.38a5.725,5.725,0,0,1-2.755,5.065c-3.7,2.516-9.919,2.521-10.487,2.281a.2.2,0,0,1,.057.04l-.5.526A4.012,4.012,0,0,0,699.125,117.91Z" transform="translate(-530.487 -70.109)" fill="#403823"/><path d="M599.516,176.355c-.7-4.344-.89-9.128.7-12.342h0l-.335-.138C599.849,163.956,597.132,170.709,599.516,176.355Z" transform="translate(-476.056 -102.118)" fill="#403823"/><path d="M600.086,176.527a10.315,10.315,0,0,0,2.408,3.5l.5-.525c-5.767-5.489-1.911-15.082-1.871-15.179l-.333-.138h0C599.2,167.4,599.382,172.183,600.086,176.527Z" transform="translate(-476.619 -102.285)" fill="#403823"/><path d="M584.426,170.7h0a.362.362,0,0,0,.305-.555c-6.679-10.575.4-23.749.469-23.883a.362.362,0,0,0-.634-.348c-.073.135-7.355,13.678-.445,24.617A.362.362,0,0,0,584.426,170.7Z" transform="translate(-466.453 -92.089)" fill="#1e2481"/><path d="M747.024,221.472a3.586,3.586,0,0,1-1.949-2.305l-1.995,1.581q.131,1.758.176,3.535Z" transform="translate(-555.812 -132.638)" fill="#fbfdf9"/><path d="M720.513,232.515l8.4-6.264q-.042-1.775-.176-3.535l-11.523,9.132A8.435,8.435,0,0,1,720.513,232.515Z" transform="translate(-541.51 -134.588)" fill="#fbfdf9"/><path d="M707.315,243.354l.172-.136a7.462,7.462,0,0,0-1.89.256,10.758,10.758,0,0,0-5.851,4.725.543.543,0,1,0,.945.533,9.811,9.811,0,0,1,5.2-4.214,7.392,7.392,0,0,1,5.742.98.543.543,0,1,0,.543-.94,11.394,11.394,0,0,0-1.386-.674l-.5.376Z" transform="translate(-531.831 -145.908)" fill="#6f262c"/><path d="M716.826,243.353l2.968.907.5-.376a8.436,8.436,0,0,0-3.3-.666Z" transform="translate(-541.326 -145.917)" fill="#6f262c"/><path d="M751.64,214.127l-2.294,1.711a3.6,3.6,0,1,0-1.949-2.305l2.317-1.837Z" transform="translate(-558.111 -127.03)" fill="#fbfdf9"/><path d="M749.507,219.186l2.294-1.711-1.926-2.43-2.317,1.837A3.587,3.587,0,0,0,749.507,219.186Z" transform="translate(-558.282 -130.365)" fill="#fbfdf9"/><path d="M523.041,656.914h0l0-.026Z" transform="translate(-434.397 -373.975)" fill="#c1cf95"/><path d="M816.779,478.438c.032-.593.645-.876,1.495-2.025,1.127-1.524.092-1.93-.822-2.744a1.807,1.807,0,0,1-.559-.842,12.566,12.566,0,0,1-4.837,3.389.358.358,0,0,1-.146.033.362.362,0,0,1-.147-.693c3.608-1.6,4.751-3.434,4.762-3.453a.359.359,0,0,1,.388-.164,2.85,2.85,0,0,1,.742-1.093c1.016-.993.611-2.462,0-3.58-.477-.871-.766-.82-.774-1.529A18.718,18.718,0,0,1,809.8,472.6a.362.362,0,1,1-.356-.63,18.355,18.355,0,0,0,7.178-7.211.359.359,0,0,1,.359-.2,7.482,7.482,0,0,0-.542-3.391c-.406-1.22-2.744-2.439-2.642-.61s-.61,2.337-3.15,5.081A12.094,12.094,0,0,1,802,469.2c-1.826-.2.611-4.979.713-8.029s-2.947-1.016-4.776,2.947c-1.481,3.209-4.024,4.62-5.157,5.526l8.326,17.988Z" transform="translate(-583.142 -265.231)" fill="#f59d9b"/><path d="M567.773,361.563h0l-.007.007.006-.005Z" transform="translate(-459.079 -211.228)" fill="#c1cf95"/><path d="M585.894,604.242l-.551-.106-.015-.245c-.646.317-1.3.6-1.966.857l24.574,1.889.524-.2A166.38,166.38,0,0,1,585.894,604.242Z" transform="translate(-467.626 -344.585)" fill="#c1cf95"/><path d="M502.2,589.528a.36.36,0,0,1-.064-.4h0c-.256-.116-.512-.232-.762-.359.863,7.3,3.875,12.587,9.014,15.775q.787.488,1.642.909c.021-.262.04-.522.061-.784C506.826,601.96,503.292,597.122,502.2,589.528Z" transform="translate(-422.423 -336.528)" fill="#929b74"/><path d="M644.065,609.759l-.145,0-.047.018Z" transform="translate(-501.078 -347.837)" fill="#929b74"/><path d="M525.357,624.463h0c-.021.263-.041.522-.061.784l0,0Z" transform="translate(-435.641 -355.993)" fill="#929b74"/><path d="M586.625,481.4l91.3-20.223h0a1.821,1.821,0,0,1,.534-.571l-.122-.262-90.5,20.049c2.064-5.062,9.165-23.585,8.461-37.06l-.722.038C596.372,458.789,586.625,481.4,586.625,481.4Z" transform="translate(-469.199 -256.199)" fill="#929b74"/><path d="M810.066,523.318h0Z" transform="translate(-592.793 -300.493)" fill="#929b74"/><path d="M578.118,609.778c-20.881,8.073-41.072,12.546-52.756,6.534l-.058.786a30.741,30.741,0,0,0,13.667,2.709,77.635,77.635,0,0,0,18.092-2.49,178.241,178.241,0,0,0,22.972-7.51q-.873-.017-1.725-.041Z" transform="translate(-435.533 -347.842)" fill="#929b74"/><path d="M791.584,482.682h0l7.928,17.128.02-.008.26.612.024.052h0l.627-.367-8.326-17.988A1.822,1.822,0,0,0,791.584,482.682Z" transform="translate(-582.557 -277.677)" fill="#929b74"/><path d="M513.142,605.284h0c-5.2-2.5-7.943-7.115-9.218-12.411a1.305,1.305,0,0,1-.222-1c-.084-.415-.162-.832-.23-1.253l-.137-.064a.355.355,0,0,1-.11-.082c1.094,7.594,4.628,12.432,9.891,15.14l.017-.225Z" transform="translate(-423.447 -337.477)" fill="#929b74"/><path d="M505.427,596.356a2.963,2.963,0,0,1-.5-.342,1.3,1.3,0,0,1-.129-.156c1.275,5.3,4.016,9.914,9.218,12.411l.331-.3c-.445-.227-.878-.468-1.3-.727A17.392,17.392,0,0,1,505.427,596.356Z" transform="translate(-424.313 -340.462)" fill="#929b74"/><path d="M504.233,591.5a.828.828,0,0,0,.054-.472c-.224-.1-.4-.18-.507-.232.068.421.146.838.23,1.253a1.3,1.3,0,0,1,.189-.481A.748.748,0,0,0,504.233,591.5Z" transform="translate(-423.767 -337.727)" fill="#929b74"/><path d="M525.432,624.182h0l.016-.226Z" transform="translate(-435.717 -355.713)" fill="#929b74"/><path d="M638.531,609.812l.4.031,1.977-.146.047-.018c-.643-.018-1.279-.038-1.9-.062Z" transform="translate(-498.124 -347.76)" fill="#929b74"/><path d="M585.1,481.446s9.747-22.61,8.942-38.029l-.723.038c.41,7.855-2.021,17.676-4.133,24.532-2.3,7.459-4.727,13.119-4.751,13.175l-.56,1.3,92.108-20.4.059.127a7.594,7.594,0,0,1,.353-.96Z" transform="translate(-467.681 -256.241)" fill="#929b74"/><path d="M807.058,520.69l.361.78c.115-.046.231-.09.346-.136C807.564,521.159,807.326,520.944,807.058,520.69Z" transform="translate(-591.13 -299.04)" fill="#929b74"/><path d="M504.272,564.813l-.466-.053c.147.111.293.224.44.33C504.256,565,504.261,564.908,504.272,564.813Z" transform="translate(-423.782 -323.361)" fill="#929b74"/><path d="M810.063,523.318h0Z" transform="translate(-592.79 -300.493)" fill="#929b74"/><path d="M525.471,623.827l.008-.1h0Z" transform="translate(-435.738 -355.583)" fill="#929b74"/><path d="M578.19,609.8l-1.977.146-.4-.031c-13.05,4.888-26.219,8.457-36.855,8.457a28.915,28.915,0,0,1-13.167-2.666l-.331.3h0l-.008.1-.016.226C537.118,622.342,557.309,617.869,578.19,609.8Z" transform="translate(-435.61 -347.86)" fill="#929b74"/><path d="M799.073,500.521l-7.928-17.128h0a7.585,7.585,0,0,0-.353.96l7.245,15.653c.268.254.506.469.706.644C798.853,500.606,798.964,500.565,799.073,500.521Z" transform="translate(-582.123 -278.389)" fill="#929b74"/><path d="M810.036,523.254l-.024-.052.022.051h0Z" transform="translate(-592.763 -300.429)" fill="#929b74"/><path d="M497.418,582.043a.358.358,0,0,1-.217-.436c-1.129.227-1.509,1.6.27,2.612q.52.305,1.058.578-.139-1.178-.2-2.427C497.766,582.172,497.435,582.049,497.418,582.043Z" transform="translate(-419.606 -332.645)" fill="#f59d9b"/><path d="M498.116,566.554c.014.008.239.136.64.347q.094-1.558.279-3.2l.717.082h0l.015-.151q-.363-.281-.723-.582s-3.716.594-1.237,3.486A.355.355,0,0,1,498.116,566.554Z" transform="translate(-419.997 -322.4)" fill="#f59d9b"/><path d="M498.207,576.011q-.056-1.737.028-3.6c-.6-.309-.943-.5-.961-.515a.36.36,0,0,1-.177-.347c-.6.205-1.542.822-.625,2.613.193.377.882,1.221,1.063,1.618a.319.319,0,0,1,.05.008C497.6,575.791,497.823,575.873,498.207,576.011Z" transform="translate(-419.522 -327.087)" fill="#f59d9b"/><path d="M503.235,564.506h0c.006-.049.012-.1.017-.146l0,0-.015.151Z" transform="translate(-423.467 -323.139)" fill="#f59d9b"/><path d="M503.257,564.364c-.005.049-.012.1-.017.147h0l.252.029C503.414,564.481,503.335,564.425,503.257,564.364Z" transform="translate(-423.47 -323.144)" fill="#f59d9b"/><path d="M519.878,565.338a.362.362,0,1,1,0,.724c-6.256,0-12.516-2.478-15.812-4.024-.038,1.188-.021,2.324.031,3.426a80.9,80.9,0,0,0,14.018,3.657.362.362,0,0,1-.044.721h0l-.045,0a80.492,80.492,0,0,1-13.892-3.6c.052.763.132,1.5.229,2.22,1.49.681,8.919,4.011,12.33,4.211a.362.362,0,0,1-.02.723h-.022c-3.319-.2-9.977-3.094-12.159-4.08.141.863.313,1.7.521,2.494a53.781,53.781,0,0,0,16.032,5.241l2.787-2.5,15.545,1.195c.664-.257,1.32-.54,1.966-.857l-.954-15.485c-1.861.15-6.938.135-10.429-3.9-4.344-5.024-14.043-4.933-11.317-1.264s8.94,6.5,4.6,7.56a23.582,23.582,0,0,1-18.86-4.008c-.131,1.2-.218,2.347-.272,3.469C507.258,562.761,513.579,565.338,519.878,565.338Z" transform="translate(-423.85 -315.974)" fill="#f59d9b"/><path d="M560.538,604.327l-15.545-1.195-2.788,2.5C548.024,606.583,554.59,606.627,560.538,604.327Z" transform="translate(-444.938 -344.164)" fill="#f59d9b"/><path d="M501.984,564.719c0-.042.007-.086.011-.128l-.717-.082q-.188,1.645-.279,3.2c.193.1.43.223.7.359Q501.788,566.454,501.984,564.719Z" transform="translate(-422.231 -323.208)" fill="#f59d9b"/><path d="M501.885,586.1c-.105-.809-.181-1.652-.232-2.523q-.417-.144-.736-.258.064,1.248.2,2.427c.25.127.506.243.762.359Z" transform="translate(-422.187 -333.593)" fill="#f59d9b"/><path d="M501.554,573.835c-.266-.13-.5-.25-.711-.356q-.084,1.867-.028,3.6c.2.072.445.159.73.258Q501.481,575.665,501.554,573.835Z" transform="translate(-422.118 -328.156)" fill="#f59d9b"/><path d="M503.224,564.695h0c0,.042-.007.086-.011.128C503.216,564.779,503.219,564.738,503.224,564.695Z" transform="translate(-423.454 -323.326)" fill="#f59d9b"/><path d="M504.491,594.613q-.119-.5-.222-1A1.306,1.306,0,0,0,504.491,594.613Z" transform="translate(-424.026 -339.281)" fill="#f59d9b"/><path d="M503,586.244q-.158-1.13-.248-2.28l-.182-.063c.051.871.127,1.714.232,2.523A.36.36,0,0,1,503,586.244Z" transform="translate(-423.1 -333.914)" fill="#f59d9b"/><path d="M502.546,574.324l-.092-.045q-.071,1.828-.008,3.506l.169.059C502.546,576.673,502.527,575.5,502.546,574.324Z" transform="translate(-423.015 -328.599)" fill="#f59d9b"/><path d="M502.858,564.981q-.2,1.734-.284,3.35l.078.039C502.688,567.227,502.759,566.094,502.858,564.981Z" transform="translate(-423.102 -323.469)" fill="#f59d9b"/><path d="M502.75,568.212c.2.1.408.2.638.311.053-1.121.14-2.273.272-3.469-.147-.106-.293-.219-.44-.33l-.252-.029c0,.043-.008.084-.013.127C502.857,565.935,502.786,567.069,502.75,568.212Z" transform="translate(-423.198 -323.309)" fill="#f59d9b"/><path d="M503.316,574.673c-.22-.1-.424-.2-.616-.294-.019,1.171,0,2.349.069,3.521l.579.2C503.294,577,503.278,575.862,503.316,574.673Z" transform="translate(-423.167 -328.654)" fill="#f59d9b"/><path d="M505.151,593.839c-.208-.8-.38-1.631-.521-2.494l-.056-.025a.828.828,0,0,1-.054.472c-.01.024-.021.046-.033.069a1.3,1.3,0,0,0-.189.481q.1.5.222,1a1.3,1.3,0,0,0,.129.156A2.968,2.968,0,0,0,505.151,593.839Z" transform="translate(-424.052 -338.008)" fill="#f59d9b"/><path d="M503.506,586.334l.265.122c-.1-.72-.177-1.456-.229-2.22l-.563-.193q.089,1.148.248,2.28A.359.359,0,0,1,503.506,586.334Z" transform="translate(-423.325 -333.993)" fill="#f59d9b"/><path d="M859.436,494.363h0Z" transform="translate(-620.037 -284.514)" fill="#c1cf95"/><path d="M859.433,494.363h0Z" transform="translate(-620.035 -284.514)" fill="#c1cf95"/><path d="M722.681,523.886l.527-.341-.137-.3q-.387.021-.783.031h0l.283.667c-1.179.476-2.364.935-3.549,1.4-9.558,5.957-38.625,23.506-67.237,35.063q.925.011,1.872.015,7.768-3.2,16.3-7.253A530.781,530.781,0,0,0,722.681,523.886Z" transform="translate(-505.188 -300.277)" fill="#c1cf95"/><path d="M810.694,522.493l-.627.367q.4-.009.783-.031Z" transform="translate(-592.79 -300.036)" fill="#c1cf95"/><path d="M810.064,523.319h0Z" transform="translate(-592.791 -300.493)" fill="#c1cf95"/><path d="M666.966,554.472c-6.136,2.922-12.741,5.861-19.45,8.511q.938.02,1.9.032c28.611-11.557,57.678-29.106,67.237-35.063q-1.8.7-3.618,1.378C703.917,534.9,686.257,545.287,666.966,554.472Z" transform="translate(-502.847 -302.882)" fill="#c1cf95"/><path d="M856.627,514.182c-.266-7.074-3.585-19.7-3.727-20.235l-.7.186s.041.155.109.423c.008.029.016.059.023.089.631,2.461,3.328,13.29,3.569,19.537l0,.027a5.83,5.83,0,0,1-.167,1.869,9,9,0,0,1-1.311,3.032,17.118,17.118,0,0,1-6.448,5.593c-.913.511-1.537.786-1.585.807l-.007,0c.032.254.063.51.094.764.073-.038.147-.075.22-.114C847.4,525.858,856.9,521.546,856.627,514.182Z" transform="translate(-612.789 -284.141)" fill="#929b74"/><path d="M867.378,541.271a5.826,5.826,0,0,0,.167-1.869l0-.027v.027A7.5,7.5,0,0,1,867.378,541.271Z" transform="translate(-624.42 -309.346)" fill="#929b74"/><path d="M650.562,608.287c-.41.166-.816.326-1.223.488l6.713-.5Q653.216,608.32,650.562,608.287Z" transform="translate(-504.076 -347.018)" fill="#929b74"/><path d="M849.959,556.033a17.118,17.118,0,0,0,6.448-5.593A18.944,18.944,0,0,1,849.959,556.033Z" transform="translate(-614.778 -315.435)" fill="#929b74"/><path d="M857.869,494.549l.051.194.645-.378Z" transform="translate(-619.17 -284.514)" fill="#929b74"/><path d="M776.3,564.807l-.009,0c-18.955,10.046-38.671,15.143-56.294,17.529l6.258-.462s-.123.1-.357.277a167.554,167.554,0,0,0,50.488-16.581c-.031-.254-.062-.51-.094-.764Z" transform="translate(-542.859 -323.304)" fill="#929b74"/><path d="M859.683,495.314l.023.089C859.7,495.373,859.691,495.343,859.683,495.314Z" transform="translate(-620.174 -285.039)" fill="#929b74"/><path d="M680.169,603.594a207.232,207.232,0,0,1-24.762,1.83l-6.713.5-.518.207q2.056.041,4.228.043c2.1,0,4.287-.031,6.538-.1a203.67,203.67,0,0,0,27.129-2.659c.234-.179.357-.277.357-.277Z" transform="translate(-503.333 -344.164)" fill="#929b74"/><path d="M586.3,543.154c.058,0,35.821-1.633,58.751-7.253a294.994,294.994,0,0,0,36.887-11.646c1.248-.777,2.16-1.355,2.688-1.691l-.057-.122A297.115,297.115,0,0,1,644.874,535.2c-22.616,5.542-58.255,7.216-58.612,7.232l-.735.033.048.771c.455-.037.72-.083.72-.083Z" transform="translate(-468.562 -299.915)" fill="#929b74"/><path d="M588.342,603.8a166.423,166.423,0,0,0,22.566,2.2q.869-.327,1.736-.663a166.7,166.7,0,0,1-24.166-2.245h0q-.349.186-.7.359l.015.245Z" transform="translate(-470.061 -344.138)" fill="#929b74"/><path d="M645.714,608.231q-.868.344-1.735.679l.145,0,2.243-.166c.407-.162.813-.322,1.223-.488Q646.639,608.25,645.714,608.231Z" transform="translate(-501.127 -346.992)" fill="#929b74"/><path d="M646.028,609.6l.518-.207-2.243.166Q645.154,609.582,646.028,609.6Z" transform="translate(-501.31 -347.636)" fill="#929b74"/><path d="M809.4,521.827l-.02.008.28.6Z" transform="translate(-592.415 -299.668)" fill="#929b74"/><path d="M639.707,608.79c.623.024,1.259.044,1.9.062q.867-.335,1.735-.679-.965-.019-1.9-.046Q640.576,608.462,639.707,608.79Z" transform="translate(-498.77 -346.934)" fill="#929b74"/><path d="M801.961,524.085c1.2-.469,2.41-.937,3.608-1.422h0s-.242-.187-.631-.526c-.115.046-.231.089-.346.136l.057.122C804.121,522.731,803.209,523.308,801.961,524.085Z" transform="translate(-588.305 -299.833)" fill="#929b74"/><path d="M808.974,521.845c-.11.044-.22.086-.33.13.389.339.628.523.631.526l-.022-.051Z" transform="translate(-592.005 -299.678)" fill="#929b74"/><path d="M587.291,584.15h0l-.935-15.209h0s-.266.046-.72.083l.954,15.485Q586.942,584.335,587.291,584.15Z" transform="translate(-468.936 -325.594)" fill="#929b74"/><path d="M859.545,494.787c-.069-.269-.109-.422-.11-.423h0C859.472,494.505,859.51,494.646,859.545,494.787Z" transform="translate(-620.037 -284.513)" fill="#929b74"/><path d="M847.986,563c-.5.273-1.022.542-1.585.807C846.449,563.782,847.073,563.507,847.986,563Z" transform="translate(-612.837 -322.386)" fill="#929b74"/><path d="M859.734,495.513A138,138,0,0,1,863.3,515.05C863.062,508.8,860.365,497.974,859.734,495.513Z" transform="translate(-620.186 -285.066)" fill="#929b74"/><path d="M865.746,543.632a9.665,9.665,0,0,1-1.311,3.032A9,9,0,0,0,865.746,543.632Z" transform="translate(-622.79 -311.69)" fill="#929b74"/><path d="M744.443,494.364l-.645.378c.423,1.63,3.388,13.273,3.629,19.725.243,6.493-8.99,10.573-9.083,10.613l-.051.025c-27.828,14.75-57.336,18.581-77.189,19.2q-3.78.118-7.281.1c-.582.239-1.163.478-1.738.71q2.653.03,5.489-.008l24.762-1.83c17.623-2.387,37.338-7.483,56.294-17.529l.009,0c.563-.265,1.086-.534,1.585-.807a18.946,18.946,0,0,0,6.448-5.593,9.664,9.664,0,0,0,1.311-3.032,7.506,7.506,0,0,0,.166-1.869v-.027a137.992,137.992,0,0,0-3.569-19.538l-.023-.089c-.036-.141-.074-.282-.11-.423Z" transform="translate(-505.227 -284.274)" fill="#929b74"/><path d="M689.172,604.17,664.409,606A207.222,207.222,0,0,0,689.172,604.17Z" transform="translate(-512.334 -344.74)" fill="#929b74"/><path d="M614.1,562.184a178.447,178.447,0,0,1-25.22-2.175l-.856-13.91c5.238-.272,37.212-2.1,58.155-7.236a298.631,298.631,0,0,0,33.441-10.331c1.261-.771,2.359-1.449,3.275-2.02A294.967,294.967,0,0,1,646,538.158c-22.93,5.62-58.693,7.25-58.751,7.253l.935,15.209a166.681,166.681,0,0,0,24.166,2.245Q613.225,562.529,614.1,562.184Z" transform="translate(-469.527 -302.081)" fill="#929b74"/><path d="M647.874,607.365q.925.019,1.876.029c.575-.232,1.156-.471,1.738-.71q-.948,0-1.872-.015Q648.745,607.02,647.874,607.365Z" transform="translate(-503.277 -346.125)" fill="#929b74"/><path d="M806.28,523.988l-.283-.667c-.012.008-1.173.759-3.266,2.063C803.916,524.923,805.1,524.464,806.28,523.988Z" transform="translate(-588.73 -300.486)" fill="#929b74"/><path d="M798.227,525.383c2.093-1.3,3.254-2.055,3.266-2.063h0c-1.2.485-2.4.953-3.608,1.422-.916.57-2.014,1.249-3.275,2.02Q796.422,526.083,798.227,525.383Z" transform="translate(-584.235 -300.479)" fill="#929b74"/><path d="M645.346,606.6q-.87.344-1.742.682.937.027,1.9.046.871-.344,1.742-.7Q646.284,606.617,645.346,606.6Z" transform="translate(-500.92 -346.085)" fill="#929b74"/><path d="M587.249,568.941l.935,15.209h0l-.935-15.209Z" transform="translate(-469.829 -325.596)" fill="#929b74"/><path d="M786.763,684.163l.687-1.274a5.928,5.928,0,0,1-2.549-7.977c2.568-4.772,7.1-8.562,10.452-10.9l-.828-1.187c-3.479,2.43-8.193,6.38-10.908,11.423h0A7.356,7.356,0,0,0,786.763,684.163Z" transform="translate(-577.689 -377.267)" fill="#929b74"/><path d="M541.165,429.6c3.806-4.18,7.742-8.5,3.636-13.06-4.82-5.345,6.446-18.307,11.193-22.851l-1-1.046c-.739.706-18.011,17.386-11.269,24.867,3.012,3.342.638,6.429-3.63,11.116-2.846,3.125-5.789,6.357-6.076,10.06l1.443.112C535.71,435.59,538.483,432.545,541.165,429.6Z" transform="translate(-440.413 -228.211)" fill="#929b74"/><path d="M498.581,570.874a.356.356,0,0,0-.185.151.351.351,0,0,0-.045.148,2.12,2.12,0,0,1,.406-.1C498.694,571.006,498.638,570.94,498.581,570.874Z" transform="translate(-420.772 -326.736)" fill="#ed6772"/><path d="M498.526,571.487c.017.01.359.205.961.514.012-.263.025-.527.041-.794-.4-.211-.626-.339-.64-.347a.355.355,0,0,0-.309-.02c.057.066.113.132.175.2a2.125,2.125,0,0,0-.406.1A.36.36,0,0,0,498.526,571.487Z" transform="translate(-420.768 -326.699)" fill="#ed6772"/><path d="M519.9,578.092a.362.362,0,1,0,0-.724c-6.3,0-12.62-2.577-15.772-4.08-.012.259-.033.526-.041.78C507.389,575.614,513.649,578.092,519.9,578.092Z" transform="translate(-423.914 -328.046)" fill="#ed6772"/><path d="M501.648,572.056c-.272-.136-.509-.258-.7-.359-.016.267-.029.531-.041.794.207.106.445.226.711.356C501.627,572.583,501.634,572.324,501.648,572.056Z" transform="translate(-422.18 -327.186)" fill="#ed6772"/><path d="M502.613,572.542l-.078-.039c-.015.268-.021.527-.032.791l.092.045Q502.6,572.94,502.613,572.542Z" transform="translate(-423.063 -327.632)" fill="#ed6772"/><path d="M503.324,573.681c.008-.255.029-.522.041-.78-.231-.11-.443-.214-.638-.311q-.012.4-.019.8C502.9,573.48,503.1,573.578,503.324,573.681Z" transform="translate(-423.176 -327.679)" fill="#ed6772"/><path d="M498.811,581.034a.358.358,0,0,0-.415.221c0,.01,0,.02,0,.03a1.7,1.7,0,0,1,.391-.036C498.875,581.252,498.872,581.169,498.811,581.034Z" transform="translate(-420.794 -332.338)" fill="#ed6772"/><path d="M498.591,581.731c.017.007.348.129.908.328q-.02-.387-.033-.78c-.384-.138-.608-.221-.622-.226a.3.3,0,0,0-.05-.008c.061.134.065.218-.029.215a1.7,1.7,0,0,0-.391.036A.358.358,0,0,0,498.591,581.731Z" transform="translate(-420.775 -332.345)" fill="#ed6772"/><path d="M518.09,587.108l.044,0h0a.362.362,0,0,0,.045-.721,80.894,80.894,0,0,1-14.018-3.657c.012.259.02.522.037.777A80.474,80.474,0,0,0,518.09,587.108Z" transform="translate(-423.956 -333.26)" fill="#ed6772"/><path d="M500.843,581.57q.013.394.033.78.32.114.736.258c-.015-.257-.029-.517-.039-.78C501.288,581.729,501.044,581.642,500.843,581.57Z" transform="translate(-422.146 -332.635)" fill="#ed6772"/><path d="M502.652,582.209l-.169-.059c.01.263.024.523.039.78l.182.063C502.684,582.732,502.667,582.471,502.652,582.209Z" transform="translate(-423.052 -332.956)" fill="#ed6772"/><path d="M503.441,582.483l-.579-.2c.016.261.032.523.052.784l.563.193C503.46,583.006,503.453,582.742,503.441,582.483Z" transform="translate(-423.261 -333.028)" fill="#ed6772"/><path d="M503.04,589.575h0a.36.36,0,0,0,.064.4c-.019-.133-.041-.263-.059-.4Z" transform="translate(-423.341 -337.055)" fill="#ed6772"/><path d="M503.4,590.124c-.023-.143-.045-.286-.066-.43-.081-.036-.159-.076-.24-.113.018.135.04.265.059.4a.35.35,0,0,0,.11.081Z" transform="translate(-423.389 -337.058)" fill="#ed6772"/><path d="M503.713,589.872c-.027-.012-.053-.026-.081-.038.021.144.043.287.066.43.111.051.283.131.507.232A.832.832,0,0,0,503.713,589.872Z" transform="translate(-423.686 -337.197)" fill="#ed6772"/><path d="M517.044,594.394h.022a.362.362,0,0,0,.02-.723c-3.411-.2-10.84-3.53-12.33-4.211.039.288.082.573.128.854C507.067,591.3,513.725,594.2,517.044,594.394Z" transform="translate(-424.287 -336.97)" fill="#ed6772"/><path d="M503.087,589.564l0,0,0,0Z" transform="translate(-423.384 -337.051)" fill="#ed6772"/><path d="M503.332,589.461q-.022-.15-.043-.3a.359.359,0,0,0-.2.18v.008C503.172,589.385,503.251,589.425,503.332,589.461Z" transform="translate(-423.388 -336.827)" fill="#ed6772"/><path d="M504.152,590.094l.056.025c-.046-.281-.089-.566-.128-.854l-.265-.122a.36.36,0,0,0-.279-.011q.021.15.043.3c.028.012.054.026.081.038A.833.833,0,0,1,504.152,590.094Z" transform="translate(-423.632 -336.796)" fill="#ed6772"/><path d="M846.884,471.879c.131-.222.268-.44.391-.667a.362.362,0,0,0-.174-.481.353.353,0,0,0-.123-.03c-.01.118-.017.233-.033.36A6.246,6.246,0,0,0,846.884,471.879Z" transform="translate(-613.109 -271.452)" fill="#ed6772"/><path d="M837.124,470.9a18.355,18.355,0,0,1-7.178,7.211.362.362,0,0,0,.356.63,18.72,18.72,0,0,0,7.086-6.866,6.247,6.247,0,0,1,.061-.818c.016-.127.024-.242.033-.36A.359.359,0,0,0,837.124,470.9Z" transform="translate(-603.628 -271.423)" fill="#ed6772"/><path d="M846.835,488.156a3.564,3.564,0,0,0,.253-.353.35.35,0,0,0-.233-.534A1.441,1.441,0,0,0,846.835,488.156Z" transform="translate(-613.049 -280.596)" fill="#ed6772"/><path d="M839.888,487.422c-.011.019-1.154,1.857-4.762,3.453a.361.361,0,1,0,.293.66,12.568,12.568,0,0,0,4.837-3.389,1.441,1.441,0,0,1,.021-.887A.359.359,0,0,0,839.888,487.422Z" transform="translate(-606.48 -280.571)" fill="#ed6772"/></svg>