<svg xmlns="http://www.w3.org/2000/svg" width="319.98" height="302.598" viewBox="0 0 319.98 302.598"><path d="M414.161,309.192l0-.026c.305-4.456.641-9.047,1.008-13.747q-.859-.425-1.652-.914c-5.17-3.209-8.2-8.531-9.069-15.877q-.54-.274-1.064-.582c-1.79-1.023-1.408-2.4-.272-2.629,0-.01,0-.02,0-.03a.36.36,0,0,1,.418-.222c-.182-.4-.875-1.249-1.069-1.629-.922-1.8.03-2.423.629-2.63a.341.341,0,0,1,.232-.3c-2.494-2.91,1.245-3.508,1.245-3.508q.362.3.727.586c6.388-69.865,28.654-90.674,28.9-90.907l.007-.007h0c8.449-10.712,17.983-18.931,30.653-22.833.1-6.717-.266-16.425-2.576-24.608,0,0-5.845,1.967-8.929-4.488s-5.6-12.315-1.748-13.763h0c-5.657-1.958-6.462-8.545-6.461-8.545-7.948-13.173,4.626-35.069,16.549-37.2s21.889,4.094,24.024,2.314,5.161-11.927,20.464-9.5,6.051,19.111,1.6,24.985a7.286,7.286,0,0,1-4.007,2.66,29.1,29.1,0,0,1,3.32,5.373,58.612,58.612,0,0,1,4.906,16.812c.336,2.135.6,4.328.764,6.55l2.007-1.591a3.61,3.61,0,1,1,1.961,2.32l-3.791,2.829a50.285,50.285,0,0,1-2.294,17.075c-2.165,6.474-6.287,13.064-12.572,15.646,9.327.831,18.366,3.4,25.927,8.69a60.42,60.42,0,0,1,16.042,17.281v0l.021.035A95.511,95.511,0,0,1,546.148,188c5.621,11.04,13.817,29.005,18.769,48.308h0l.705-.187c.142.538,3.482,13.247,3.749,20.366.278,7.411-9.279,11.751-9.988,12.06-.074.039-.147.076-.221.114,2.276,18.457,4.36,38.633,6.094,56.9A159.983,159.983,0,1,0,412.924,329.2c.347-6.292.756-12.989,1.237-20.011Zm29.48-229a.364.364,0,0,1,.638.35c-.073.134-7.192,13.394-.472,24.037a.364.364,0,0,1-.307.559h0a.365.365,0,0,1-.308-.17C436.242,93.962,443.568,80.332,443.642,80.2Z" transform="translate(-325.741 -26.605)" fill="#fff" opacity="0.651"/></svg>