<svg xmlns="http://www.w3.org/2000/svg" xmlns:xlink="http://www.w3.org/1999/xlink" width="315.844" height="317.274" viewBox="0 0 315.844 317.274"><defs><linearGradient id="a" x1="-2366.295" y1="358.57" x2="-2366.862" y2="358.788" gradientUnits="objectBoundingBox"><stop offset="0" stop-color="#f59d9b"/><stop offset="1" stop-color="#e73151"/></linearGradient><linearGradient id="b" x1="-4.823" y1="4.44" x2="-4.824" y2="4.442" xlink:href="#a"/><linearGradient id="c" x1="-2736.252" y1="318.789" x2="-2736.907" y2="318.979" xlink:href="#a"/><linearGradient id="d" x1="-2625.883" y1="355.254" x2="-2626.512" y2="355.468" xlink:href="#a"/><linearGradient id="e" x1="-397.793" y1="77.05" x2="-397.889" y2="77.097" xlink:href="#a"/><linearGradient id="f" x1="-11.934" y1="26.552" x2="-11.936" y2="26.568" xlink:href="#a"/><linearGradient id="g" x1="-8.555" y1="7.952" x2="-8.557" y2="7.957" xlink:href="#a"/><linearGradient id="h" x1="-712.741" y1="118.558" x2="-712.411" y2="118.22" gradientUnits="objectBoundingBox"><stop offset="0" stop-color="#f59d9b" stop-opacity="0"/><stop offset="1" stop-color="#e73151"/></linearGradient><linearGradient id="i" x1="-18379.016" y1="4311.443" x2="-18370.496" y2="4298.876" xlink:href="#h"/><linearGradient id="j" x1="-785.958" y1="119.336" x2="-785.595" y2="119" xlink:href="#h"/><linearGradient id="k" x1="-1123.624" y1="128.462" x2="-1123.107" y2="128.107" xlink:href="#h"/><linearGradient id="l" x1="-898.609" y1="121.167" x2="-898.195" y2="120.829" xlink:href="#h"/><linearGradient id="m" x1="-178.124" y1="42.729" x2="-178.041" y2="42.605" xlink:href="#h"/><linearGradient id="n" x1="-65.7" y1="11.697" x2="-65.672" y2="11.662" xlink:href="#h"/><linearGradient id="o" x1="-19.744" y1="14.503" x2="-19.748" y2="14.511" xlink:href="#a"/><linearGradient id="p" x1="-8.525" y1="6.834" x2="-8.527" y2="6.838" xlink:href="#a"/><linearGradient id="q" x1="-4994.972" y1="383.573" x2="-4992.846" y2="382.409" xlink:href="#h"/><linearGradient id="r" x1="-64.303" y1="16.467" x2="-64.274" y2="16.422" xlink:href="#h"/><linearGradient id="s" x1="-26.373" y1="26.853" x2="-26.361" y2="26.775" xlink:href="#h"/></defs><path d="M604.575,184.742c0-87.613-70.7-158.637-157.922-158.637S288.731,97.129,288.731,184.742a158.7,158.7,0,0,0,94.323,145.246l.049-.221a158.475,158.475,0,0,1-94.151-145.025c0-87.49,70.605-158.415,157.7-158.415s157.7,70.925,157.7,158.415a158.485,158.485,0,0,1-83.489,139.811l.03.235A158.706,158.706,0,0,0,604.575,184.742Z" transform="translate(-288.731 -26.105)" fill="#fff"/><path d="M720.3,246.822a13.22,13.22,0,0,1,2.394-.49c2.172-.219,1.309-1.179,1.309-1.179s-2.415-1.847-5.348-4.164a25.47,25.47,0,0,1,1.536,5.227C720.231,246.418,720.266,246.62,720.3,246.822Z" transform="translate(-528.756 -145.636)" fill="#fff" opacity="0.67"/><path d="M567.856,298.656c.041-.168.079-.338.119-.506.129-.537.257-1.075.378-1.616.04-.177.075-.355.114-.533.118-.54.235-1.081.344-1.623.036-.181.068-.363.1-.544.1-.538.207-1.077.3-1.617.035-.2.065-.409.1-.613.084-.513.167-1.027.241-1.542a55.117,55.117,0,0,0,.592-8.24s-5.394.3-6.506-5.848a36.635,36.635,0,0,1-.885-8.524c-3.662.051-7.733-.248-10.224-1.743l1.51,3.729-18.548,20.909a17.212,17.212,0,0,0-2.718,6.485c.116.05.188.085.208.1l-.281.559a6.1,6.1,0,0,0,3.6,6.339l30.985-3.179.015-.043C567.508,299.95,567.7,299.3,567.856,298.656Z" transform="translate(-424.982 -159.386)" fill="#fff" opacity="0.67"/><path d="M399.784,250.573h0l.2-.905q.609-2.869,1.221-5.738,1.765-8.214,3.563-16.42l.431-2c-5.283-2.585-10.554-5.257-15.752-8.076l-.039-.02h0a205.882,205.882,0,0,1-31.913-20.841c-9.127-7.417-25.358-22.194-15.718-35.062,19.267-25.725,69.844-41.012,69.844-41.012l.921,2.285c.287-.571,3.154-5.965,10.909-10.024l.661-.347a28.861,28.861,0,0,1,5.576-9.321.318.318,0,0,1,.455.443,28.31,28.31,0,0,0-5.2,8.44l1.9-1c3.826-9.195,13.913-16.938,21.412-16.262,10.5.947,17.44,8.5,19.641,7.488s7.069-8.867,19.362-3.292c5.79,2.626,6.279,6.663,4.647,10.608,1.286,1.033,2.685,2.165,4.186,3.365,7.233,5.782,8.822,11.986,8.822,11.986l-2.23,3.446,3.433-5.282c10.5,7.15,12.122,8.657,22.336,16.182,8.791,6.478,18.6,12.776,23.486,22.982,3.933,8.216,3.951,18.007,1.084,26.653a50.2,50.2,0,0,1-27.4,29.8c-1.209.529-2.454.966-3.708,1.381h0c-1.422.471-2.853.915-4.255,1.433l-.166.062q-.455.17-.9.352l-.1.04q-.495.2-.982.426l-.129.061q-.413.192-.819.4l-.2.1c-.311.165-.62.336-.924.52a9.485,9.485,0,0,0-2.971,2.652c-1.979,2.849-1.295,6.3-.743,10.484q.072.543.146,1.086.185,1.384.375,2.771.118.859.236,1.719.215,1.55.434,3.1c1.7,12.06,3.528,24.155,4.623,36.252l5.6,43.336A158.485,158.485,0,0,0,604.631,185.02c0-87.49-70.6-158.415-157.7-158.415s-157.7,70.925-157.7,158.415a158.475,158.475,0,0,0,94.151,145.024c2.183-9.832,4.295-19.047,5.557-25.725C392.335,286.361,395.993,268.452,399.784,250.573Z" transform="translate(-289.009 -26.383)" fill="#fff" opacity="0.67"/><path d="M709.673,263.438q-.207-.034-.41-.078a59.979,59.979,0,0,1-.34,10.607c-.851,7.713-2.96,15.97-7.4,22.609a31.27,31.27,0,0,1-3.6,4.459,67.465,67.465,0,0,1,11.446,3.783c11.549,4.9,32.884,6.046,33.683-2.141l-.251-.583c.026-.012.12-.051.27-.107a9.106,9.106,0,0,0-1.518-4.288,292.548,292.548,0,0,1-15.481-30.154l1.361-2.084C722.168,267.416,711.9,263.8,709.673,263.438Z" transform="translate(-517.303 -158.08)" fill="#fff" opacity="0.67"/><path d="M566.145,717.283a157.865,157.865,0,0,1-63.837-13.391l-.049.221a158.975,158.975,0,0,0,138.465-5.2l-.03-.235A157.716,157.716,0,0,1,566.145,717.283Z" transform="translate(-408.266 -400.23)" fill="#c1cf95"/><path d="M516.083,456.66c5.221,2.818,10.517,5.491,15.823,8.076h0Z" transform="translate(-415.677 -265.605)" fill="#c1cf95"/><path d="M541.163,495.78q-.616,2.868-1.227,5.738l4.805-22.158Q542.94,487.568,541.163,495.78Z" transform="translate(-428.977 -278.232)" fill="#c1cf95"/><path d="M801.32,467.721l-.13.061Z" transform="translate(-574.817 -271.758)" fill="#c1cf95"/><path d="M799.085,468.765l-.2.1Z" transform="translate(-573.531 -272.339)" fill="#c1cf95"/><path d="M787.657,486.631c.048.361.1.723.147,1.085q-.073-.543-.146-1.086c-.555-4.181-1.242-7.635.746-10.484C786.415,478.994,787.1,482.448,787.657,486.631Z" transform="translate(-566.942 -276.444)" fill="#c1cf95"/><path d="M806.146,465.737l-.167.062Z" transform="translate(-577.491 -270.655)" fill="#c1cf95"/><path d="M789.566,508.463q.118.859.237,1.719Q789.683,509.322,789.566,508.463Z" transform="translate(-568.328 -294.421)" fill="#c1cf95"/><path d="M803.807,466.67l-.1.04Z" transform="translate(-576.221 -271.174)" fill="#c1cf95"/><path d="M613.076,334.509c.039-.177.075-.355.114-.533C613.151,334.154,613.116,334.332,613.076,334.509Z" transform="translate(-469.8 -197.361)" fill="#fff"/><path d="M613.076,334.509c.039-.177.075-.355.114-.533C613.151,334.154,613.116,334.332,613.076,334.509Z" transform="translate(-469.8 -197.361)" fill="url(#a)"/><path d="M654.658,253.809A59.984,59.984,0,0,0,655,243.2c-2.056-.443-3.8-1.611-3.449-2.451.245-.58,1.507-1.211,2.955-1.643-.036-.2-.07-.4-.11-.606a25.485,25.485,0,0,0-1.536-5.227l-.088-.07c-4.51-.021-9.787-3.768-14.354-5.382-6.032-2.131-6.744,1.059-10.115,3.367-2.122,1.452-3.6.331-5.905-.384-2.3,1.424-6.311,3.56-9.753,5.341a13.894,13.894,0,0,0,1.268,7.567c1.817,3.4-.167,7.7-2.624,9.607-2.414,1.875-3.48-4.592-3.94-7.69-.536.022-1.256.074-2.105.132a2.236,2.236,0,0,1,.512.4.477.477,0,1,1-.683.667c-.131-.132-.58-.493-.925-.431-.194.034-.37.219-.523.551-.14.3-.024.477,1.01,1.034.938.5,2.355,1.269,1.68,2.907a7.65,7.65,0,0,1-1.388,2.1c-.765.9-1.053,1.234-.384,2.123a.477.477,0,0,1-.382.764h0a.476.476,0,0,1-.383-.191c-1.126-1.5-.339-2.425.423-3.317a6.778,6.778,0,0,0,1.234-1.846c.315-.763-.14-1.1-1.25-1.7-.836-.45-1.98-1.066-1.424-2.274a1.687,1.687,0,0,1,.43-.663c-.871.047-1.809.083-2.775.1a36.631,36.631,0,0,0,.885,8.524c1.112,6.153,6.506,5.848,6.506,5.848a55.109,55.109,0,0,1-.592,8.24c.007-.051.017-.1.024-.154,1.625-3.872,6.38-1.163,7.77-.263a.472.472,0,0,1,.445-.209.478.478,0,0,1,.42.529,16.573,16.573,0,0,0,4.028,11.811c2.221.242,4.8.447,8.424.517,0,0,4.848-2.323,15.337.048a31.275,31.275,0,0,0,3.6-4.459C651.7,269.779,653.807,261.522,654.658,253.809Zm-42.7,2.542-.755-1.172,3.207-3.856.688,1.8Zm41.581-4.275c-.019.63-1.784,1.088-3.943,1.023s-3.893-.629-3.874-1.259,1.784-1.088,3.943-1.023S653.56,251.446,653.541,252.077Zm-1.839-5.97c.031,1.357-1.092,2.355-2.793,2.482-.111.008-.224.011-.337.011-1.547,0-3.112-.787-3.318-2.4a3.389,3.389,0,0,1,2.385-3.824.637.637,0,0,1,.343,1.226,2.115,2.115,0,0,0-1.465,2.438c.119.933,1.271,1.357,2.3,1.279.756-.057,1.633-.4,1.616-1.184-.016-.714-.254-1.179-.635-1.242a.694.694,0,0,0-.74.431.637.637,0,1,1-1.194-.443,1.973,1.973,0,0,1,2.144-1.241C650.8,243.774,651.666,244.493,651.7,246.107Zm-10.58-9.407a.636.636,0,0,1,.888.145c.035.047,2.028,2.618,7.86,2.618h.194a.637.637,0,0,1,.006,1.273h-.2c-6.567,0-8.8-3.017-8.889-3.145A.637.637,0,0,1,641.122,236.7Zm-3.319,5.185a.478.478,0,0,1,.508.418c0,.054.565,5.447,2.781,7.089.308.231.6.44.874.633,1.243.889,2.065,1.477,2.146,2.332a2.362,2.362,0,0,1-.818,1.72l-.3.317c-1.3,1.357-1.831,1.919-1.9,2.635a.477.477,0,0,1-.475.426h-.048a.477.477,0,0,1-.427-.523h0c.106-1.042.75-1.718,2.163-3.2l.3-.316c.393-.413.581-.74.559-.971-.04-.423-.795-.962-1.751-1.645-.274-.2-.571-.409-.887-.643-2.555-1.893-3.139-7.525-3.163-7.762A.478.478,0,0,1,637.8,241.885Zm-13.81-3.245c5.976.562,8.218-1.906,8.24-1.931a.637.637,0,0,1,.967.828c-.1.111-2.164,2.461-7.475,2.461-.579,0-1.2-.028-1.85-.09a.637.637,0,1,1,.119-1.268Zm2.382,7.4c.119.933,1.273,1.357,2.3,1.279.756-.057,1.633-.4,1.615-1.184-.016-.714-.253-1.179-.635-1.242a.694.694,0,0,0-.74.431.637.637,0,1,1-1.194-.443,1.974,1.974,0,0,1,2.144-1.241c.8.134,1.66.853,1.7,2.467.03,1.357-1.092,2.355-2.793,2.482q-.167.011-.337.011c-1.547,0-3.112-.787-3.318-2.4a3.389,3.389,0,0,1,2.385-3.824.637.637,0,0,1,.343,1.226A2.117,2.117,0,0,0,626.375,246.04Zm-9.177.992c-.682-1.638,1.292-4.729,1.292-4.729a14.66,14.66,0,0,1,1.172,3.386C619.8,246.938,617.88,248.671,617.2,247.032Zm3.821,2.9c-.819-.788.744-3.958.744-3.958a15.032,15.032,0,0,1,.945,3.033C622.642,249.542,621.837,250.719,621.019,249.931ZM622.5,253.9c-.081-.831,2.578-1.771,5.941-2.1s6.154.079,6.235.91-2.579,1.771-5.941,2.1S622.578,254.73,622.5,253.9Zm17.719,21.483a.477.477,0,0,1-.66.14l-.01-.007c-2.807-1.875-5.731.54-5.76.565a.477.477,0,1,1-.615-.729,7.323,7.323,0,0,1,2.142-1.172,5.217,5.217,0,0,1,4.764.542A.477.477,0,0,1,640.215,275.381Zm5.88-11.365a2.572,2.572,0,0,1-1.906-.643,1.358,1.358,0,0,0-1.1-.318c-.533.139-1.1.834-1.727,2.124a2.014,2.014,0,0,1-1.866,1.179,2.882,2.882,0,0,1-2.5-1.652.61.61,0,0,0-.389-.335,3.981,3.981,0,0,0-2.344.58.478.478,0,1,1-.473-.83,4.768,4.768,0,0,1,3.1-.664,1.564,1.564,0,0,1,.966.83A1.938,1.938,0,0,0,639.5,265.4a1.061,1.061,0,0,0,1-.643c.781-1.6,1.5-2.41,2.347-2.629a2.234,2.234,0,0,1,1.882.458c.709.493,1.035.52,1.172.493s.252-.186.41-.439a1.4,1.4,0,0,1,.76-.709.478.478,0,0,1,.26.919,1.533,1.533,0,0,0-.209.3A1.623,1.623,0,0,1,646.1,264.017Z" transform="translate(-462.837 -137.923)" fill="#fff"/><path d="M654.658,253.809A59.984,59.984,0,0,0,655,243.2c-2.056-.443-3.8-1.611-3.449-2.451.245-.58,1.507-1.211,2.955-1.643-.036-.2-.07-.4-.11-.606a25.485,25.485,0,0,0-1.536-5.227l-.088-.07c-4.51-.021-9.787-3.768-14.354-5.382-6.032-2.131-6.744,1.059-10.115,3.367-2.122,1.452-3.6.331-5.905-.384-2.3,1.424-6.311,3.56-9.753,5.341a13.894,13.894,0,0,0,1.268,7.567c1.817,3.4-.167,7.7-2.624,9.607-2.414,1.875-3.48-4.592-3.94-7.69-.536.022-1.256.074-2.105.132a2.236,2.236,0,0,1,.512.4.477.477,0,1,1-.683.667c-.131-.132-.58-.493-.925-.431-.194.034-.37.219-.523.551-.14.3-.024.477,1.01,1.034.938.5,2.355,1.269,1.68,2.907a7.65,7.65,0,0,1-1.388,2.1c-.765.9-1.053,1.234-.384,2.123a.477.477,0,0,1-.382.764h0a.476.476,0,0,1-.383-.191c-1.126-1.5-.339-2.425.423-3.317a6.778,6.778,0,0,0,1.234-1.846c.315-.763-.14-1.1-1.25-1.7-.836-.45-1.98-1.066-1.424-2.274a1.687,1.687,0,0,1,.43-.663c-.871.047-1.809.083-2.775.1a36.631,36.631,0,0,0,.885,8.524c1.112,6.153,6.506,5.848,6.506,5.848a55.109,55.109,0,0,1-.592,8.24c.007-.051.017-.1.024-.154,1.625-3.872,6.38-1.163,7.77-.263a.472.472,0,0,1,.445-.209.478.478,0,0,1,.42.529,16.573,16.573,0,0,0,4.028,11.811c2.221.242,4.8.447,8.424.517,0,0,4.848-2.323,15.337.048a31.275,31.275,0,0,0,3.6-4.459C651.7,269.779,653.807,261.522,654.658,253.809Zm-42.7,2.542-.755-1.172,3.207-3.856.688,1.8Zm41.581-4.275c-.019.63-1.784,1.088-3.943,1.023s-3.893-.629-3.874-1.259,1.784-1.088,3.943-1.023S653.56,251.446,653.541,252.077Zm-1.839-5.97c.031,1.357-1.092,2.355-2.793,2.482-.111.008-.224.011-.337.011-1.547,0-3.112-.787-3.318-2.4a3.389,3.389,0,0,1,2.385-3.824.637.637,0,0,1,.343,1.226,2.115,2.115,0,0,0-1.465,2.438c.119.933,1.271,1.357,2.3,1.279.756-.057,1.633-.4,1.616-1.184-.016-.714-.254-1.179-.635-1.242a.694.694,0,0,0-.74.431.637.637,0,1,1-1.194-.443,1.973,1.973,0,0,1,2.144-1.241C650.8,243.774,651.666,244.493,651.7,246.107Zm-10.58-9.407a.636.636,0,0,1,.888.145c.035.047,2.028,2.618,7.86,2.618h.194a.637.637,0,0,1,.006,1.273h-.2c-6.567,0-8.8-3.017-8.889-3.145A.637.637,0,0,1,641.122,236.7Zm-3.319,5.185a.478.478,0,0,1,.508.418c0,.054.565,5.447,2.781,7.089.308.231.6.44.874.633,1.243.889,2.065,1.477,2.146,2.332a2.362,2.362,0,0,1-.818,1.72l-.3.317c-1.3,1.357-1.831,1.919-1.9,2.635a.477.477,0,0,1-.475.426h-.048a.477.477,0,0,1-.427-.523h0c.106-1.042.75-1.718,2.163-3.2l.3-.316c.393-.413.581-.74.559-.971-.04-.423-.795-.962-1.751-1.645-.274-.2-.571-.409-.887-.643-2.555-1.893-3.139-7.525-3.163-7.762A.478.478,0,0,1,637.8,241.885Zm-13.81-3.245c5.976.562,8.218-1.906,8.24-1.931a.637.637,0,0,1,.967.828c-.1.111-2.164,2.461-7.475,2.461-.579,0-1.2-.028-1.85-.09a.637.637,0,1,1,.119-1.268Zm2.382,7.4c.119.933,1.273,1.357,2.3,1.279.756-.057,1.633-.4,1.615-1.184-.016-.714-.253-1.179-.635-1.242a.694.694,0,0,0-.74.431.637.637,0,1,1-1.194-.443,1.974,1.974,0,0,1,2.144-1.241c.8.134,1.66.853,1.7,2.467.03,1.357-1.092,2.355-2.793,2.482q-.167.011-.337.011c-1.547,0-3.112-.787-3.318-2.4a3.389,3.389,0,0,1,2.385-3.824.637.637,0,0,1,.343,1.226A2.117,2.117,0,0,0,626.375,246.04Zm-9.177.992c-.682-1.638,1.292-4.729,1.292-4.729a14.66,14.66,0,0,1,1.172,3.386C619.8,246.938,617.88,248.671,617.2,247.032Zm3.821,2.9c-.819-.788.744-3.958.744-3.958a15.032,15.032,0,0,1,.945,3.033C622.642,249.542,621.837,250.719,621.019,249.931ZM622.5,253.9c-.081-.831,2.578-1.771,5.941-2.1s6.154.079,6.235.91-2.579,1.771-5.941,2.1S622.578,254.73,622.5,253.9Zm17.719,21.483a.477.477,0,0,1-.66.14l-.01-.007c-2.807-1.875-5.731.54-5.76.565a.477.477,0,1,1-.615-.729,7.323,7.323,0,0,1,2.142-1.172,5.217,5.217,0,0,1,4.764.542A.477.477,0,0,1,640.215,275.381Zm5.88-11.365a2.572,2.572,0,0,1-1.906-.643,1.358,1.358,0,0,0-1.1-.318c-.533.139-1.1.834-1.727,2.124a2.014,2.014,0,0,1-1.866,1.179,2.882,2.882,0,0,1-2.5-1.652.61.61,0,0,0-.389-.335,3.981,3.981,0,0,0-2.344.58.478.478,0,1,1-.473-.83,4.768,4.768,0,0,1,3.1-.664,1.564,1.564,0,0,1,.966.83A1.938,1.938,0,0,0,639.5,265.4a1.061,1.061,0,0,0,1-.643c.781-1.6,1.5-2.41,2.347-2.629a2.234,2.234,0,0,1,1.882.458c.709.493,1.035.52,1.172.493s.252-.186.41-.439a1.4,1.4,0,0,1,.76-.709.478.478,0,0,1,.26.919,1.533,1.533,0,0,0-.209.3A1.623,1.623,0,0,1,646.1,264.017Z" transform="translate(-462.837 -137.923)" fill="url(#b)"/><path d="M615.017,324.68c.035-.2.065-.409.1-.613C615.082,324.272,615.052,324.476,615.017,324.68Z" transform="translate(-470.884 -191.849)" fill="#fff"/><path d="M615.017,324.68c.035-.2.065-.409.1-.613C615.082,324.272,615.052,324.476,615.017,324.68Z" transform="translate(-470.884 -191.849)" fill="url(#c)"/><path d="M614.107,329.636c.036-.181.068-.363.1-.544C614.175,329.273,614.143,329.455,614.107,329.636Z" transform="translate(-470.376 -194.644)" fill="#fff"/><path d="M614.107,329.636c.036-.181.068-.363.1-.544C614.175,329.273,614.143,329.455,614.107,329.636Z" transform="translate(-470.376 -194.644)" fill="url(#d)"/><path d="M611.377,338.818c-.04.169-.078.338-.119.506-.157.646-.348,1.294-.557,1.946.209-.653.4-1.3.558-1.949C611.3,339.154,611.337,338.985,611.377,338.818Z" transform="translate(-468.475 -200.055)" fill="#fff"/><path d="M611.377,338.818c-.04.169-.078.338-.119.506-.157.646-.348,1.294-.557,1.946.209-.653.4-1.3.558-1.949C611.3,339.154,611.337,338.985,611.377,338.818Z" transform="translate(-468.475 -200.055)" fill="url(#e)"/><path d="M652.8,346.879c-3.628-.07-6.2-.274-8.424-.517a20.579,20.579,0,0,0,9.5,5.868.471.471,0,0,1,.32.52c5.393.71,10.211-2,13.945-5.823C657.648,344.556,652.8,346.879,652.8,346.879Z" transform="translate(-487.331 -203.972)" fill="#c1cf95"/><path d="M652.8,346.879c-3.628-.07-6.2-.274-8.424-.517a20.579,20.579,0,0,0,9.5,5.868.471.471,0,0,1,.32.52c5.393.71,10.211-2,13.945-5.823C657.648,344.556,652.8,346.879,652.8,346.879Z" transform="translate(-487.331 -203.972)" fill="url(#f)"/><path d="M632.766,376.5c-8.345,2.352-15.749-1.4-22.213-6.431a15.468,15.468,0,0,1-5.077-6.22c-1.28-3.2-.609-6.382.412-9.524-1.021,3.143-1.694,6.329-.413,9.528a15.46,15.46,0,0,0,5.076,6.22c6.464,5.034,13.869,8.782,22.213,6.431a4.427,4.427,0,0,0,3.12-3.288A4.429,4.429,0,0,1,632.766,376.5Z" transform="translate(-465.233 -208.682)" fill="#c1cf95"/><path d="M632.766,376.5c-8.345,2.352-15.749-1.4-22.213-6.431a15.468,15.468,0,0,1-5.077-6.22c-1.28-3.2-.609-6.382.412-9.524-1.021,3.143-1.694,6.329-.413,9.528a15.46,15.46,0,0,0,5.076,6.22c6.464,5.034,13.869,8.782,22.213,6.431a4.427,4.427,0,0,0,3.12-3.288A4.429,4.429,0,0,1,632.766,376.5Z" transform="translate(-465.233 -208.682)" fill="url(#g)"/><path d="M686.891,268.663c.315.234.612.446.887.643.956.683,1.711,1.223,1.751,1.645.022.231-.166.558-.559.971l-.3.316c-1.413,1.48-2.057,2.156-2.163,3.2h0a.477.477,0,0,0,.427.523h.048a.477.477,0,0,0,.475-.426c.073-.716.609-1.278,1.9-2.635l.3-.317a2.362,2.362,0,0,0,.818-1.72c-.082-.856-.9-1.444-2.146-2.332-.27-.193-.566-.4-.874-.633-2.216-1.642-2.776-7.035-2.78-7.089a.478.478,0,0,0-.951.094C683.752,261.138,684.336,266.77,686.891,268.663Z" transform="translate(-509.259 -156.427)" fill="#6f262c"/><path d="M700.62,252.591h.2a.637.637,0,1,0-.006-1.273h-.194c-5.832,0-7.824-2.571-7.86-2.618a.637.637,0,1,0-1.033.744C691.823,249.574,694.053,252.591,700.62,252.591Z" transform="translate(-513.669 -149.779)" fill="#6f262c"/><path d="M652.613,251.648c.655.061,1.271.09,1.85.09,5.311,0,7.378-2.35,7.475-2.461a.637.637,0,0,0-.967-.828c-.022.025-2.264,2.493-8.24,1.931a.637.637,0,1,0-.119,1.268Z" transform="translate(-491.573 -149.662)" fill="#6f262c"/><path d="M605.562,269.92c-.556,1.208.589,1.824,1.424,2.274,1.11.6,1.565.939,1.25,1.7A6.777,6.777,0,0,1,607,275.742c-.762.892-1.549,1.813-.423,3.316a.476.476,0,0,0,.383.191h0a.477.477,0,0,0,.382-.764c-.668-.89-.381-1.227.384-2.123a7.648,7.648,0,0,0,1.388-2.1c.675-1.638-.742-2.4-1.68-2.907-1.035-.557-1.15-.73-1.01-1.034.153-.332.329-.517.523-.551.345-.062.794.3.925.431a.477.477,0,1,0,.683-.667,2.236,2.236,0,0,0-.512-.4c-.623.043-1.313.088-2.054.128A1.688,1.688,0,0,0,605.562,269.92Z" transform="translate(-465.531 -161.289)" fill="#6f262c"/><path d="M726.926,221.218a1.78,1.78,0,0,0,.41.165c.435.092.419-.214.136-.738A4.705,4.705,0,0,1,726.926,221.218Z" transform="translate(-533.36 -134.32)" fill="#2b220b"/><path d="M723.8,201.6c-1.055-1.25-2-2.524-1.626-3.032.315-.422,1.131-.168,2.371.588a2.37,2.37,0,0,0-.71-2.153c-1.065-.848-3.046-.473-4.437.235a4.649,4.649,0,0,0-1.885,1.593,1.645,1.645,0,0,1,.407.016c.973.16,3.025,2.272,4.946,3.9A5.032,5.032,0,0,0,723.8,201.6Z" transform="translate(-528.12 -120.897)" fill="#2b220b"/><path d="M730.682,210.178a7.87,7.87,0,0,0,2.245,1.409c1.146.361-.062-.945-1.364-2.453A5.327,5.327,0,0,1,730.682,210.178Z" transform="translate(-535.462 -127.917)" fill="#2b220b"/><path d="M718.271,215.286c1.251.981,2.422,1.88,3.259,2.42a4.1,4.1,0,0,0,.767-.812c-.385-.566-.928-1.254-1.512-1.947-.324.083-.663.153-1.017.207A14.091,14.091,0,0,1,718.271,215.286Z" transform="translate(-528.537 -131.15)" fill="#2b220b"/><path d="M711.836,225.221c2.425,1.57,5.584,3.53,5.869,3.326.193-.138-1.268-1.674-3.056-3.425a14.2,14.2,0,0,1-2.036.112C712.358,225.235,712.1,225.229,711.836,225.221Z" transform="translate(-524.95 -136.811)" fill="#2b220b"/><path d="M611.88,191.923c.172.359-.229.915-.865,1.532,4.545-2.378,10.4-3.031,15.065-3.226a29.125,29.125,0,0,1,20.624,7.777,3.854,3.854,0,0,1,.662.342c.253.174.859.581,1.637,1.093a22.059,22.059,0,0,0,3.262.005c-1.623-1.57-3.385-3.2-4.391-4.106a4.4,4.4,0,0,1-1.906-.753l.544-.331a.181.181,0,0,0-.039-.047,1.475,1.475,0,0,0,.328.153c-1.016-1.121-1.527-2.809-.485-3.051.631-.146,3.253,1.916,5.789,3.911a12.654,12.654,0,0,0,2.846-.257c-.793-.914-1.6-1.781-2.137-2.319a3.205,3.205,0,0,1-1.1-2.07l-.057,0c-.048-1.1.913-2.282,2.507-3.094,1.619-.824,3.83-1.2,5.119-.166a3.068,3.068,0,0,1,.913,3.031c1.5,1,3.512,2.571,5.92,4.5,1.64-3.946,1.148-7.982-4.668-10.609-12.349-5.576-17.239,2.282-19.45,3.292s-9.181-6.541-19.73-7.488c-7.533-.676-17.666,7.067-21.509,16.262C607.111,192.961,611.325,190.767,611.88,191.923Z" transform="translate(-463.086 -111.71)" fill="#2b220b"/><path d="M614.8,209.6l.04.031c-.005.007-.067.089-.166.23.013.095.146.134.44.1,2.3-.263,7.131-4.194,8.635-4.15.936.028,1.3.656.97,1.445.494-.267.995-.52,1.508-.75,3.953-1.758,7.584-1.8,10.5-.123a53.933,53.933,0,0,0,14.095,4.987,1.47,1.47,0,0,1-.351-.542c-.152-1.133,2.516-.634,3.977-.017a29.125,29.125,0,0,0-20.624-7.777c-4.669.195-10.52.848-15.065,3.226C617.506,207.479,615.342,208.934,614.8,209.6Z" transform="translate(-470.784 -124.52)" fill="#2b220b"/><path d="M614.545,252.074c2.091.63,4.642,2.163,4.844,3.113s-2.016,1.812-4.271,1.747c-.162,0-.374,0-.62.01.461,3.1,1.527,9.565,3.94,7.69,2.457-1.909,4.441-6.207,2.624-9.607a13.894,13.894,0,0,1-1.268-7.567c-3.442,1.781-6.31,3.206-6.31,3.206S612.454,251.444,614.545,252.074Z" transform="translate(-469.905 -149.236)" fill="#2b220b"/><path d="M640.073,210.417c-6.63-3.818-14.793,3.149-14.874,3.22l-.046-.053c-2.185,1.656-4.791,3.877-3.585,3.857,1.6-.028,10.955-5.752,12.06-5.261s-.089,2.419-1.542,3.221-10.555,6.476-10.19,6.866,8.2-2.87,9.364-3.377,5.048-.715,4.615.566a6.119,6.119,0,0,1-1.858,1.423c2.3.715,3.784,1.836,5.905.384,3.371-2.307,4.083-5.5,10.115-3.367,4.567,1.614,9.844,5.361,14.354,5.382-3.313-2.619-7.259-5.815-9.146-7.637A55.327,55.327,0,0,1,640.073,210.417Z" transform="translate(-474.475 -127.995)" fill="#2b220b"/><path d="M624.787,285.517l.755,1.172,3.141-3.228-.688-1.8Z" transform="translate(-476.346 -168.261)" fill="#6f262c"/><path d="M689.262,305.879a.477.477,0,0,0-.589-.329,1.4,1.4,0,0,0-.76.709c-.158.253-.263.409-.41.439s-.463,0-1.172-.493a2.233,2.233,0,0,0-1.881-.458c-.843.219-1.566,1.03-2.347,2.629a1.061,1.061,0,0,1-1,.643,1.938,1.938,0,0,1-1.638-1.114,1.563,1.563,0,0,0-.966-.83,4.768,4.768,0,0,0-3.1.664.478.478,0,1,0,.473.83,3.981,3.981,0,0,1,2.344-.58.61.61,0,0,1,.389.335,2.882,2.882,0,0,0,2.5,1.653,2.014,2.014,0,0,0,1.866-1.179c.628-1.29,1.194-1.985,1.727-2.124a1.358,1.358,0,0,1,1.1.318,2.571,2.571,0,0,0,1.906.643,1.623,1.623,0,0,0,1.028-.869,1.533,1.533,0,0,1,.209-.3A.478.478,0,0,0,689.262,305.879Z" transform="translate(-504.493 -181.539)" fill="#6f262c"/><path d="M639.406,261.333s-1.974,3.091-1.292,4.729,2.607-.094,2.464-1.343A14.66,14.66,0,0,0,639.406,261.333Z" transform="translate(-483.703 -156.953)" fill="#fbfdf9"/><path d="M647.349,269.605s-1.562,3.17-.744,3.958,1.624-.389,1.688-.925A15.031,15.031,0,0,0,647.349,269.605Z" transform="translate(-488.39 -161.554)" fill="#fbfdf9"/><path d="M665.318,361.708a.435.435,0,0,0,.058.009h0a.478.478,0,0,0,.456-.334.44.44,0,0,0,.008-.079c-.155-.02-.309-.039-.466-.065C665.373,361.256,665.348,361.423,665.318,361.708Z" transform="translate(-498.966 -212.527)" fill="#6f262c"/><path d="M637.556,331.442q.337.039.685.077a16.573,16.573,0,0,1-4.028-11.811.478.478,0,0,0-.42-.529.472.472,0,0,0-.445.209c.245.159.388.263.388.263A17.037,17.037,0,0,0,637.556,331.442Z" transform="translate(-481.128 -189.129)" fill="#6f262c"/><path d="M653.013,352.763a20.579,20.579,0,0,1-9.5-5.868l-.685-.077a20.741,20.741,0,0,0,10.035,6.4v0c.156.026.311.045.465.065A.471.471,0,0,0,653.013,352.763Z" transform="translate(-486.436 -204.505)" fill="#6f262c"/><path d="M662.406,283.5c-.081-.831-2.872-1.238-6.234-.91s-6.022,1.268-5.941,2.1,2.872,1.238,6.235.91S662.487,284.334,662.406,283.5Z" transform="translate(-490.57 -168.716)" fill="#e73151"/><ellipse cx="1.142" cy="3.91" rx="1.142" ry="3.91" transform="matrix(0.03, -1, 1, 0.03, 182.757, 115.059)" fill="#e73151"/><path d="M680.977,333.282a5.217,5.217,0,0,0-4.764-.542,7.323,7.323,0,0,0-2.142,1.172.477.477,0,1,0,.616.729c.029-.025,2.953-2.44,5.76-.565l.01.007a.477.477,0,0,0,.52-.8Z" transform="translate(-503.774 -196.483)" fill="#6f262c"/><path d="M711.3,224.505a14.189,14.189,0,0,0,2.036-.112q-.292-.286-.593-.577a22.058,22.058,0,0,1-3.262-.005c.323.212.673.441,1.043.681C710.791,224.5,711.051,224.505,711.3,224.505Z" transform="translate(-523.632 -136.081)" fill="#3c331e"/><path d="M725.616,220.147c.218.14.414.257.581.343a4.694,4.694,0,0,0,.546-.573c-.093-.172-.216-.368-.36-.581A4.1,4.1,0,0,1,725.616,220.147Z" transform="translate(-532.63 -133.591)" fill="#3c331e"/><path d="M659.363,214.049a53.935,53.935,0,0,1-14.095-4.987c-2.916-1.677-6.546-1.634-10.5.123-.513.23-1.014.483-1.508.75a3.687,3.687,0,0,1-1.388,1.515c-.475.322-1.137.8-1.842,1.333l.046.053c.081-.071,8.245-7.038,14.874-3.22a55.326,55.326,0,0,0,15.172,5.224Q659.645,214.378,659.363,214.049Z" transform="translate(-479.337 -127.194)" fill="#3c331e"/><path d="M703.479,212.174a1.474,1.474,0,0,1-.328-.153.181.181,0,0,1,.039.047l-.544.331a4.4,4.4,0,0,0,1.906.753c-.286-.256-.514-.456-.657-.575A4.19,4.19,0,0,1,703.479,212.174Z" transform="translate(-519.808 -129.523)" fill="#3c331e"/><path d="M716.367,198.032a4.65,4.65,0,0,1,1.885-1.593c1.391-.708,3.372-1.083,4.437-.235a2.37,2.37,0,0,1,.71,2.153c.19.115.387.241.6.379a3.068,3.068,0,0,0-.913-3.031c-1.289-1.029-3.5-.658-5.119.166-1.593.812-2.555,2-2.507,3.094l.057,0A.864.864,0,0,1,716.367,198.032Z" transform="translate(-526.979 -120.099)" fill="#3c331e"/><path d="M718.771,214.473c.355-.054.693-.124,1.017-.207q-.23-.273-.464-.543a12.657,12.657,0,0,1-2.846.257l.8.625A14.091,14.091,0,0,0,718.771,214.473Z" transform="translate(-527.534 -130.469)" fill="#3c331e"/><path d="M729.572,209.125q.248.211.493.409a5.327,5.327,0,0,0,.881-1.043c-.146-.17-.293-.342-.439-.514A5.031,5.031,0,0,1,729.572,209.125Z" transform="translate(-534.839 -127.272)" fill="#3c331e"/><path d="M614.8,217.85a.414.414,0,0,0-.127.261c.1-.142.161-.223.166-.23Z" transform="translate(-470.69 -132.765)" fill="#4256a2"/><path d="M600.622,199.3a.318.318,0,0,0-.458-.443,28.846,28.846,0,0,0-5.6,9.321l.837-.438A28.3,28.3,0,0,1,600.622,199.3Z" transform="translate(-459.478 -122.149)" fill="#1e2481"/><path d="M612.224,336.793c.129-.537.257-1.075.378-1.616C612.481,335.717,612.353,336.255,612.224,336.793Z" transform="translate(-469.325 -198.029)" fill="#fff"/><path d="M612.224,336.793c.129-.537.257-1.075.378-1.616C612.481,335.717,612.353,336.255,612.224,336.793Z" transform="translate(-469.325 -198.029)" fill="url(#h)"/><path d="M610.683,344.344l-.015.044h0Z" transform="translate(-468.456 -203.129)" fill="#fff"/><path d="M610.683,344.344l-.015.044h0Z" transform="translate(-468.456 -203.129)" fill="url(#i)"/><path d="M613.333,331.941c.118-.54.235-1.081.344-1.623C613.568,330.861,613.451,331.4,613.333,331.941Z" transform="translate(-469.944 -195.326)" fill="#fff"/><path d="M613.333,331.941c.118-.54.235-1.081.344-1.623C613.568,330.861,613.451,331.4,613.333,331.941Z" transform="translate(-469.944 -195.326)" fill="url(#j)"/><path d="M615.481,320.593c-.074.515-.157,1.029-.241,1.542C615.324,321.622,615.407,321.108,615.481,320.593Z" transform="translate(-471.009 -189.917)" fill="#fff"/><path d="M615.481,320.593c-.074.515-.157,1.029-.241,1.542C615.324,321.622,615.407,321.108,615.481,320.593Z" transform="translate(-471.009 -189.917)" fill="url(#k)"/><path d="M614.339,327.066c.1-.538.207-1.077.3-1.617C614.546,325.989,614.443,326.528,614.339,327.066Z" transform="translate(-470.506 -192.618)" fill="#fff"/><path d="M614.339,327.066c.1-.538.207-1.077.3-1.617C614.546,325.989,614.443,326.528,614.339,327.066Z" transform="translate(-470.506 -192.618)" fill="url(#l)"/><path d="M608.787,344.442c-.467,1.451-1.022,2.914-1.5,4.386.479-1.472,1.034-2.936,1.5-4.386Z" transform="translate(-466.571 -203.183)" fill="#c1cf95"/><path d="M608.787,344.442c-.467,1.451-1.022,2.914-1.5,4.386.479-1.472,1.034-2.936,1.5-4.386Z" transform="translate(-466.571 -203.183)" fill="url(#m)"/><path d="M666.32,369.837c.6,1.057,1.6,2.72,2.69,4.717a4.433,4.433,0,0,1,.433,3.1,4.432,4.432,0,0,0-.431-3.1c-1.093-2-2.091-3.661-2.69-4.718-1.471-2.591-1.258-6.246-1.124-7.536h0C665.063,363.582,664.848,367.243,666.32,369.837Z" transform="translate(-498.854 -213.115)" fill="#c1cf95"/><path d="M666.32,369.837c.6,1.057,1.6,2.72,2.69,4.717a4.433,4.433,0,0,1,.433,3.1,4.432,4.432,0,0,0-.431-3.1c-1.093-2-2.091-3.661-2.69-4.718-1.471-2.591-1.258-6.246-1.124-7.536h0C665.063,363.582,664.848,367.243,666.32,369.837Z" transform="translate(-498.854 -213.115)" fill="url(#n)"/><path d="M612.6,320.017c-.094.54-.2,1.079-.3,1.617-.035.182-.067.363-.1.544-.109.543-.225,1.083-.344,1.623-.039.178-.075.356-.114.533-.121.54-.249,1.078-.378,1.616-.04.167-.077.336-.117.5-.158.647-.349,1.3-.558,1.949l-.015.043.067-.007a91.041,91.041,0,0,1,13.546.983,17.4,17.4,0,0,1-3.633-11.765.461.461,0,0,1,.084-.21c-1.391-.9-6.145-3.609-7.77.263-.007.051-.017.1-.024.154-.074.515-.157,1.029-.241,1.542C612.663,319.608,612.633,319.813,612.6,320.017Z" transform="translate(-468.485 -187.186)" fill="#fff"/><path d="M612.6,320.017c-.094.54-.2,1.079-.3,1.617-.035.182-.067.363-.1.544-.109.543-.225,1.083-.344,1.623-.039.178-.075.356-.114.533-.121.54-.249,1.078-.378,1.616-.04.167-.077.336-.117.5-.158.647-.349,1.3-.558,1.949l-.015.043.067-.007a91.041,91.041,0,0,1,13.546.983,17.4,17.4,0,0,1-3.633-11.765.461.461,0,0,1,.084-.21c-1.391-.9-6.145-3.609-7.77.263-.007.051-.017.1-.024.154-.074.515-.157,1.029-.241,1.542C612.663,319.608,612.633,319.813,612.6,320.017Z" transform="translate(-468.485 -187.186)" fill="url(#o)"/><path d="M635.828,365.535a4.439,4.439,0,0,0-.375-.921c-1.092-2-2.091-3.66-2.69-4.717-1.472-2.594-1.257-6.255-1.124-7.541a.47.47,0,0,1-.086-.013A21.021,21.021,0,0,1,621,345.41a91.037,91.037,0,0,0-13.546-.983l-.067.007c-.467,1.451-1.022,2.914-1.5,4.386-1.021,3.142-1.692,6.326-.412,9.524a15.469,15.469,0,0,0,5.077,6.22c6.464,5.034,13.869,8.783,22.213,6.431a4.423,4.423,0,0,0,3.061-5.46Z" transform="translate(-465.235 -203.175)" fill="#c1cf95"/><path d="M635.828,365.535a4.439,4.439,0,0,0-.375-.921c-1.092-2-2.091-3.66-2.69-4.717-1.472-2.594-1.257-6.255-1.124-7.541a.47.47,0,0,1-.086-.013A21.021,21.021,0,0,1,621,345.41a91.037,91.037,0,0,0-13.546-.983l-.067.007c-.467,1.451-1.022,2.914-1.5,4.386-1.021,3.142-1.692,6.326-.412,9.524a15.469,15.469,0,0,0,5.077,6.22c6.464,5.034,13.869,8.783,22.213,6.431a4.423,4.423,0,0,0,3.061-5.46Z" transform="translate(-465.235 -203.175)" fill="url(#p)"/><path d="M665.373,361.238s-.027.171-.058.469h0c.03-.285.055-.452.057-.469Z" transform="translate(-498.963 -212.526)" fill="#6f262c"/><path d="M665.373,361.238s-.027.171-.058.469h0c.03-.285.055-.452.057-.469Z" transform="translate(-498.963 -212.526)" fill="url(#q)"/><path d="M634.3,327.346a17.074,17.074,0,0,0,2.447,4.284l.659.078a17.037,17.037,0,0,1-3.82-11.791s-.143-.1-.388-.263a.462.462,0,0,0-.084.21A16.984,16.984,0,0,0,634.3,327.346Z" transform="translate(-480.972 -189.395)" fill="#6f262c"/><path d="M634.3,327.346a17.074,17.074,0,0,0,2.447,4.284l.659.078a17.037,17.037,0,0,1-3.82-11.791s-.143-.1-.388-.263a.462.462,0,0,0-.084.21A16.984,16.984,0,0,0,634.3,327.346Z" transform="translate(-480.972 -189.395)" fill="url(#r)"/><path d="M651.9,353.575a.474.474,0,0,0,.086.013c.031-.3.058-.469.058-.469h0v0a20.741,20.741,0,0,1-10.035-6.4l-.659-.078A21.021,21.021,0,0,0,651.9,353.575Z" transform="translate(-485.607 -204.407)" fill="#6f262c"/><path d="M651.9,353.575a.474.474,0,0,0,.086.013c.031-.3.058-.469.058-.469h0v0a20.741,20.741,0,0,1-10.035-6.4l-.659-.078A21.021,21.021,0,0,0,651.9,353.575Z" transform="translate(-485.607 -204.407)" fill="url(#s)"/><path d="M704.064,263.973a.637.637,0,1,0,1.194.443.694.694,0,0,1,.74-.431c.381.064.619.528.635,1.242.017.783-.86,1.127-1.616,1.184-1.027.078-2.18-.346-2.3-1.279a2.115,2.115,0,0,1,1.465-2.438.637.637,0,0,0-.343-1.226,3.389,3.389,0,0,0-2.385,3.824c.206,1.613,1.771,2.4,3.318,2.4.113,0,.226,0,.337-.011,1.7-.127,2.824-1.125,2.793-2.482-.035-1.614-.9-2.333-1.7-2.467A1.973,1.973,0,0,0,704.064,263.973Z" transform="translate(-519.129 -157.015)" fill="#6f262c"/><path d="M658.8,262.695a.637.637,0,0,0-.343-1.227,3.389,3.389,0,0,0-2.385,3.824c.206,1.613,1.771,2.4,3.318,2.4q.17,0,.337-.011c1.7-.127,2.823-1.125,2.793-2.482-.036-1.614-.9-2.333-1.7-2.467a1.974,1.974,0,0,0-2.144,1.241.637.637,0,1,0,1.194.443.7.7,0,0,1,.74-.431c.381.064.619.529.635,1.242.018.783-.859,1.127-1.615,1.184-1.027.078-2.18-.346-2.3-1.279A2.117,2.117,0,0,1,658.8,262.695Z" transform="translate(-493.788 -157.015)" fill="#6f262c"/><path d="M593.586,227.841a7.156,7.156,0,0,1,1.833-.453,17.373,17.373,0,0,1,1.188-10.648l-1.91,1A18.292,18.292,0,0,0,593.586,227.841Z" transform="translate(-458.765 -132.148)" fill="#f59d9b"/><path d="M582.612,242.018c.17-2,.888-3.325,2.583-3.483-3.756-2.574-3.607-7.253-3.5-8.422a6.134,6.134,0,0,0-1.763.454c.06.234.118.467.19.7a.318.318,0,0,1-.3.411v0a.319.319,0,0,1-.3-.225c-.061-.2-.109-.4-.161-.6a6.132,6.132,0,0,0-1.166.842.478.478,0,0,1-.671-.68,7.153,7.153,0,0,1,1.617-1.107,18.572,18.572,0,0,1,.869-9.924l-.664.347c-7.79,4.058-10.67,9.453-10.959,10.024l4.016,9.917C574.88,241.77,578.95,242.069,582.612,242.018Z" transform="translate(-444.875 -133.954)" fill="#f59d9b"/><path d="M568.312,243.412l3.982,9.829.061.035-4.016-9.917C568.322,243.391,568.312,243.412,568.312,243.412Z" transform="translate(-444.817 -146.955)" fill="#f59d9b"/><path d="M603.051,261.789l-.006,0c-1.694.158-2.413,1.482-2.583,3.483.966-.013,1.9-.05,2.775-.1a1.693,1.693,0,0,1,.8-.43,2.242,2.242,0,0,1,1.254.3c.85-.058,1.569-.11,2.105-.132l-.025-.169C606.925,261.718,603.051,261.789,603.051,261.789Z" transform="translate(-462.773 -157.204)" fill="#f59d9b"/><path d="M632.563,234.594c-2.923.618-4.2,2.952-4.537,5.574,3.443-1.781,7.458-3.917,9.753-5.341A9.828,9.828,0,0,0,632.563,234.594Z" transform="translate(-478.168 -141.944)" fill="#f59d9b"/><path d="M607.516,268.443a1.693,1.693,0,0,0-.8.43c.74-.04,1.43-.085,2.054-.128A2.242,2.242,0,0,0,607.516,268.443Z" transform="translate(-466.254 -160.906)" fill="#f59d9b"/><path d="M597.6,221.507a7.158,7.158,0,0,1,3.753.593q.029-.313.063-.629c-.7-5.333,3.16-10.415,3.211-10.478l.245.189a14.538,14.538,0,0,1,4.177-3.171c.636-.617,1.037-1.173.865-1.532-.555-1.156-4.769,1.038-11.126,4.38A17.373,17.373,0,0,0,597.6,221.507Z" transform="translate(-460.977 -126.267)" fill="#f59d9b"/><path d="M601.871,243.452a6.111,6.111,0,0,0-3.533-.689c-.1,1.169-.252,5.848,3.5,8.422h0A57.779,57.779,0,0,1,601.871,243.452Z" transform="translate(-461.559 -146.604)" fill="#f59d9b"/><path d="M618.641,210.322a14.537,14.537,0,0,0-4.177,3.171l.219.169C615.226,212.992,617.39,211.537,618.641,210.322Z" transform="translate(-470.584 -128.577)" fill="#f59d9b"/><path d="M606.6,240.655q-.034.316-.063.629c.063.028.124.062.187.092C606.671,241.136,606.629,240.9,606.6,240.655Z" transform="translate(-466.149 -145.451)" fill="#f59d9b"/><path d="M627.4,219.476c.432-1.281-3.455-1.073-4.615-.566s-9,3.766-9.364,3.377,8.738-6.064,10.19-6.866,2.647-2.73,1.542-3.221-10.465,5.234-12.06,5.261c-1.206.02,1.4-2.2,3.585-3.857l-.371-.429a22.447,22.447,0,0,1,3.6-2.419c.328-.789-.035-1.418-.97-1.445-1.5-.044-6.334,3.887-8.635,4.15-.293.034-.426-.005-.44-.1-.784,1.118-4.029,6.153-2.661,11.008.02.012.04.023.059.036a.474.474,0,0,1,.16.631,8.408,8.408,0,0,0,.677,1.41l-.546.329a9.045,9.045,0,0,1-.737-1.538.5.5,0,0,1-.063-.024,6.1,6.1,0,0,0-.583-.35,57.767,57.767,0,0,0-.027,7.733h0l.006,0s3.874-.071,4.321,2.954c.008.055.016.112.025.169.246-.01.457-.015.619-.01,2.255.065,4.472-.8,4.271-1.747s-2.753-2.484-4.844-3.113-1.06-1.407-1.06-1.407,2.868-1.425,6.31-3.206c.335-2.622,1.613-4.956,4.537-5.574a9.827,9.827,0,0,1,5.217.233A6.12,6.12,0,0,0,627.4,219.476Z" transform="translate(-465.91 -128.015)" fill="#f59d9b"/><path d="M632.8,212.569a22.441,22.441,0,0,0-3.6,2.419l.371.429c.706-.535,1.367-1.01,1.842-1.333A3.686,3.686,0,0,0,632.8,212.569Z" transform="translate(-478.806 -129.827)" fill="#f59d9b"/><path d="M610.026,217.232l-.245-.189c-.051.062-3.907,5.144-3.211,10.478.412-3.843,1.364-7.933,3.454-10.287Z" transform="translate(-466.129 -132.316)" fill="#f59d9b"/><path d="M607.8,244.951a9.05,9.05,0,0,0,.737,1.538l.546-.329a8.41,8.41,0,0,1-.677-1.41c0,.009,0,.019-.01.027A.472.472,0,0,1,607.8,244.951Z" transform="translate(-466.858 -147.728)" fill="#f59d9b"/><path d="M607.563,228.908c-1.367-4.855,1.878-9.891,2.661-11.008a.414.414,0,0,1,.126-.261l-.219-.169h0c-2.091,2.354-3.043,6.444-3.455,10.287.031.24.074.481.124.721A7.15,7.15,0,0,1,607.563,228.908Z" transform="translate(-466.235 -132.553)" fill="#f59d9b"/><path d="M593.264,244.715a.319.319,0,0,0,.3.225v0a.318.318,0,0,0,.3-.411c-.072-.235-.13-.468-.19-.7a6.192,6.192,0,0,0-.58.29C593.156,244.318,593.2,244.515,593.264,244.715Z" transform="translate(-458.651 -147.216)" fill="#f59d9b"/><path d="M592.194,229.363c.195-.1.393-.185.6-.265A18.292,18.292,0,0,1,593.9,219l-.837.438A18.572,18.572,0,0,0,592.194,229.363Z" transform="translate(-457.963 -133.405)" fill="#f59d9b"/><path d="M595.78,240.736a7.153,7.153,0,0,0-1.833.453q.088.459.206.92a6.134,6.134,0,0,1,1.763-.454c.015-.174.03-.271.03-.272Q595.855,241.061,595.78,240.736Z" transform="translate(-459.125 -145.496)" fill="#6f262c"/><path d="M588.786,243.46a.478.478,0,0,0,.671.68,6.129,6.129,0,0,1,1.166-.842q-.125-.475-.221-.945A7.153,7.153,0,0,0,588.786,243.46Z" transform="translate(-456.165 -146.395)" fill="#6f262c"/><path d="M601.747,242.288q.036-.5.084-1.015a7.158,7.158,0,0,0-3.753-.593q.075.324.166.647s-.014.1-.03.272A6.11,6.11,0,0,1,601.747,242.288Z" transform="translate(-461.435 -145.44)" fill="#6f262c"/><path d="M608.733,243.283c-.019-.013-.04-.023-.059-.036q.094.334.219.667A.474.474,0,0,0,608.733,243.283Z" transform="translate(-467.343 -146.892)" fill="#6f262c"/><path d="M606.93,243.437a.489.489,0,0,0,.063.024,9.128,9.128,0,0,1-.375-1.3c-.062-.031-.124-.064-.187-.092q-.048.513-.084,1.015A6.11,6.11,0,0,1,606.93,243.437Z" transform="translate(-466.044 -146.239)" fill="#6f262c"/><path d="M607.331,243.577a.472.472,0,0,0,.6-.173c.005-.008.005-.018.01-.027q-.124-.333-.219-.667a7.155,7.155,0,0,0-.762-.429A9.1,9.1,0,0,0,607.331,243.577Z" transform="translate(-466.385 -146.354)" fill="#6f262c"/><path d="M592.606,242.021q.1.471.22.945a6.217,6.217,0,0,1,.581-.29q-.119-.461-.206-.92C593,241.835,592.8,241.923,592.606,242.021Z" transform="translate(-458.374 -146.063)" fill="#6f262c"/><path d="M735.867,216.82c-1.508-1.2-2.914-2.332-4.205-3.365-1.842,4.432-6.373,8.75-9.074,10.828a6.368,6.368,0,0,1-3.994,1.32c.01.023.018.047.028.07,2.933,2.317,5.348,4.164,5.348,4.164s.864.96-1.309,1.179a13.222,13.222,0,0,0-2.394.49,38.36,38.36,0,0,1,.494,4.094c.135.029.273.055.41.078,2.223.365,12.495,3.978,17.761,2.023l3.557-5.449,2.24-3.446S743.132,222.6,735.867,216.82Zm-1.713,11.5a.478.478,0,0,1-.29.1h0a.477.477,0,0,1-.38-.189,6.125,6.125,0,0,0-7.471-1.624.477.477,0,1,1-.412-.861l.023-.01a7.174,7.174,0,0,1,8.621,1.917A.478.478,0,0,1,734.154,228.322Z" transform="translate(-528.783 -130.32)" fill="#f59d9b"/><path d="M764.447,261.257l3.537-5.442-3.557,5.449Z" transform="translate(-554.304 -153.883)" fill="#f59d9b"/><path d="M715.647,255.777c-.356.84,1.393,2.008,3.449,2.451a38.36,38.36,0,0,0-.494-4.094C717.154,254.567,715.892,255.2,715.647,255.777Z" transform="translate(-527.045 -152.948)" fill="#f59d9b"/><path d="M718.545,240.9c-.01-.023-.018-.047-.028-.07h-.06Z" transform="translate(-528.63 -145.548)" fill="#f59d9b"/><path d="M715.228,217.5c-.837-.54-2.008-1.439-3.259-2.42-.206.008-.412.022-.619.022a19.265,19.265,0,0,1-4.408-.528c1.006.9,2.768,2.536,4.391,4.106a11.406,11.406,0,0,0,2.125-.354A4.1,4.1,0,0,0,715.228,217.5Z" transform="translate(-522.224 -130.94)" fill="#f59d9b"/><path d="M721.794,205.645c-1.921-1.631-3.973-3.743-4.946-3.9a.579.579,0,0,0-.68.891l-.579.024a3.206,3.206,0,0,0,1.1,2.07c.536.539,1.343,1.405,2.137,2.319a8.472,8.472,0,0,0,.951-.262A5.018,5.018,0,0,0,721.794,205.645Z" transform="translate(-527.046 -123.792)" fill="#f59d9b"/><path d="M702.713,205.481c-1.042.241-.531,1.929.485,3.051a18.286,18.286,0,0,0,5.3.86C705.966,207.4,703.344,205.334,702.713,205.481Z" transform="translate(-519.538 -125.88)" fill="#f59d9b"/><path d="M720.123,204.171a5.735,5.735,0,0,1-.739,1.731c1.3,1.508,2.51,2.814,1.364,2.453a7.868,7.868,0,0,1-2.245-1.409,6.883,6.883,0,0,1-2.993,1.536c.584.693,1.127,1.381,1.512,1.947.039-.053.079-.1.115-.16l.555.308a4.7,4.7,0,0,1-.31.433c.284.524.3.83-.136.738a1.776,1.776,0,0,1-.41-.165,4.693,4.693,0,0,1-2.184,1.1,14.113,14.113,0,0,1-1.7.316c1.788,1.751,3.249,3.286,3.056,3.425-.284.2-3.443-1.756-5.868-3.326q-.66-.021-1.353-.076.759.858,1.456,1.779a25.428,25.428,0,0,1,2.9,5.169,6.369,6.369,0,0,0,3.994-1.32c2.7-2.078,7.232-6.4,9.074-10.828-2.408-1.925-4.415-3.5-5.92-4.5A7.477,7.477,0,0,1,720.123,204.171Z" transform="translate(-523.28 -124.684)" fill="#f59d9b"/><path d="M705.671,221.935c.315.031.626.056.934.078-.778-.512-1.384-.919-1.637-1.093a3.854,3.854,0,0,0-.662-.342Q705.009,221.232,705.671,221.935Z" transform="translate(-520.736 -134.283)" fill="#f59d9b"/><path d="M727.908,200.888c-.378.508.571,1.782,1.626,3.032a5.01,5.01,0,0,0,.564-1.371,6.492,6.492,0,0,0,.181-1.073C729.039,200.72,728.222,200.465,727.908,200.888Z" transform="translate(-533.866 -123.217)" fill="#f59d9b"/><path d="M702.7,224.311a43.089,43.089,0,0,1-4.854-.689c1.887,1.822,5.833,5.018,9.146,7.637h.06a25.425,25.425,0,0,0-2.9-5.169Q703.462,225.166,702.7,224.311Z" transform="translate(-517.148 -135.976)" fill="#f59d9b"/><path d="M695.335,219.768a1.469,1.469,0,0,0,.351.542,45.352,45.352,0,0,0,4.992.8q-.662-.7-1.365-1.357C697.851,219.134,695.183,218.635,695.335,219.768Z" transform="translate(-515.733 -133.456)" fill="#f59d9b"/><path d="M728.014,219.283l-.555-.308c-.036.055-.077.106-.115.16.145.213.267.409.36.581A4.705,4.705,0,0,0,728.014,219.283Z" transform="translate(-533.593 -133.391)" fill="#f59d9b"/><path d="M719.131,222.6a4.693,4.693,0,0,0,2.184-1.1c-.168-.086-.363-.2-.581-.343a4.1,4.1,0,0,1-1.77.826,11.407,11.407,0,0,1-2.125.354q.3.291.593.577A14.116,14.116,0,0,0,719.131,222.6Z" transform="translate(-527.738 -134.608)" fill="#f59d9b"/><path d="M708.005,224.318q.692.055,1.353.076c-.37-.24-.72-.469-1.043-.681-.307-.021-.618-.047-.934-.078Q707.7,223.972,708.005,224.318Z" transform="translate(-522.453 -135.984)" fill="#f59d9b"/><path d="M696.133,221.838q.282.329.76.792a43.08,43.08,0,0,0,4.854.689q-.307-.347-.623-.682A45.354,45.354,0,0,1,696.133,221.838Z" transform="translate(-516.182 -134.983)" fill="#f59d9b"/><path d="M710.624,213.85l-.8-.625a18.287,18.287,0,0,1-5.3-.86,4.186,4.186,0,0,0,.416.4c.142.119.371.319.657.575a19.266,19.266,0,0,0,4.408.529C710.212,213.872,710.418,213.858,710.624,213.85Z" transform="translate(-520.868 -129.714)" fill="#f59d9b"/><path d="M732.242,203.54a5.008,5.008,0,0,1-.564,1.371c.146.173.293.345.439.514a5.737,5.737,0,0,0,.739-1.731,7.5,7.5,0,0,0,.163-.849c-.21-.138-.407-.264-.6-.379A6.48,6.48,0,0,1,732.242,203.54Z" transform="translate(-536.015 -124.208)" fill="#f59d9b"/><path d="M716.441,201.733a.864.864,0,0,0-.852.931l.579-.024A1.642,1.642,0,0,1,716.441,201.733Z" transform="translate(-527.031 -123.8)" fill="#f59d9b"/><path d="M726.348,210.974q-.244-.2-.493-.409a5.018,5.018,0,0,1-2.014,1.14,8.467,8.467,0,0,1-.951.262c.156.18.311.361.464.543A6.883,6.883,0,0,0,726.348,210.974Z" transform="translate(-531.115 -128.713)" fill="#f59d9b"/><path d="M734.067,240.257l-.023.01a.477.477,0,1,0,.412.861,6.125,6.125,0,0,1,7.471,1.624.477.477,0,0,0,.38.189h0a.477.477,0,0,0,.38-.767A7.174,7.174,0,0,0,734.067,240.257Z" transform="translate(-537.206 -144.841)" fill="#6f262c"/><path d="M508.416,336.782h8.726A21.175,21.175,0,0,0,508.416,336.782Z" transform="translate(-411.385 -198.674)" fill="#929b74"/><path d="M502.164,337.342h0Z" transform="translate(-407.882 -199.234)" fill="#929b74"/><path d="M532.808,335.845c-.032.217-.056.436-.073.655l.281-.559C533,335.93,532.924,335.9,532.808,335.845Z" transform="translate(-424.949 -198.401)" fill="#929b74"/><path d="M501.773,334.554l.173.613c8.68-2.457,13.56,0,13.56,0h-2.059a9.478,9.478,0,0,1,1.774.568l.291-.578c.017-.219.04-.437.073-.655C514.542,334.053,509.708,332.309,501.773,334.554Z" transform="translate(-407.683 -197.059)" fill="#929b74"/><path d="M502.337,337.954c.911-.258,1.776-.457,2.6-.612h-2.774Z" transform="translate(-407.886 -199.234)" fill="#929b74"/><path d="M532.079,338.622Z" transform="translate(-424.583 -199.946)" fill="#929b74"/><path d="M532.366,337.342l-.287.568h0Z" transform="translate(-424.583 -199.234)" fill="#929b74"/><path d="M502.164,335.973h2.774a21.178,21.178,0,0,1,8.726,0h2.059S510.844,333.517,502.164,335.973Z" transform="translate(-407.901 -197.865)" fill="#929b74"/><path d="M832.34,351.973h0Z" transform="translate(-592.206 -207.372)" fill="#929b74"/><path d="M804.736,351.373h9.539A23.814,23.814,0,0,0,804.736,351.373Z" transform="translate(-576.828 -206.773)" fill="#929b74"/><path d="M799.311,351.1a5.057,5.057,0,0,0,.019-.69c-.15.056-.244.1-.27.107Z" transform="translate(-573.628 -206.502)" fill="#929b74"/><path d="M828.764,352.584l.178-.611h-2.71C827.045,352.13,827.889,352.329,828.764,352.584Z" transform="translate(-588.806 -207.372)" fill="#929b74"/><path d="M799.626,349.749l.254.589a12.626,12.626,0,0,1,2.014-.585h-2.265s5.834-2.529,14.514,0l.179-.614c-7.865-2.292-13.41-.552-14.676-.08A5.067,5.067,0,0,1,799.626,349.749Z" transform="translate(-573.993 -205.152)" fill="#929b74"/><path d="M799.631,350.564H801.9a23.814,23.814,0,0,1,9.539,0h2.71C805.465,348.035,799.631,350.564,799.631,350.564Z" transform="translate(-573.995 -205.963)" fill="#929b74"/><path d="M516.034,456.635l-.037-.02h0Z" transform="translate(-415.604 -265.58)" fill="#929b74"/><path d="M551.2,474.859l-.433,2c.146-.665.289-1.331.435-2Z" transform="translate(-435.015 -275.729)" fill="#929b74"/><path d="M539.494,530.2h0q.1-.453.193-.9Z" transform="translate(-428.722 -306.009)" fill="#929b74"/><path d="M800.158,467.858q-.415.192-.823.4Q799.743,468.051,800.158,467.858Z" transform="translate(-573.784 -271.834)" fill="#929b74"/><path d="M790.068,472.169a9.511,9.511,0,0,1,2.985-2.652c.305-.184.615-.355.928-.52-.312.165-.622.335-.927.518A9.506,9.506,0,0,0,790.068,472.169Z" transform="translate(-568.62 -272.468)" fill="#929b74"/><path d="M788.717,502.219q.186,1.384.377,2.771Q788.9,503.6,788.717,502.219Z" transform="translate(-567.855 -290.948)" fill="#929b74"/><path d="M802.469,466.761q-.5.2-.986.426Q801.971,466.964,802.469,466.761Z" transform="translate(-574.983 -271.224)" fill="#929b74"/><path d="M790.536,515.436q-.22-1.551-.436-3.1Q790.316,513.886,790.536,515.436Z" transform="translate(-568.627 -296.576)" fill="#929b74"/><path d="M804.841,465.877q-.457.17-.907.352Q804.385,466.047,804.841,465.877Z" transform="translate(-576.351 -270.732)" fill="#929b74"/><path d="M810.629,462.507h0c-1.427.471-2.865.916-4.272,1.433C807.763,463.423,809.2,462.979,810.629,462.507Z" transform="translate(-577.714 -268.858)" fill="#929b74"/><path d="M583,554.725Z" transform="translate(-453.012 -320.155)" fill="#929b74"/><path d="M556.128,582.046c-10.8-11.433,9.829-27.947,9.83-27.947l-.4-.5a52.314,52.314,0,0,0-6.3,6.2c-4.268,4.975-6.579,9.614-6.87,13.79a11.372,11.372,0,0,0,3.269,8.889,16.381,16.381,0,0,1,2.355,3.207l.225-.894A17.117,17.117,0,0,0,556.128,582.046Z" transform="translate(-435.928 -319.529)" fill="#929b74"/><path d="M543.258,661.381l.28-1.116c-.233.219-.467.432-.7.633l.832.965c5.907-5.09,12.173-15.881,12.723-26.657a21.5,21.5,0,0,0-3.237-13.2l-.212.842C560.3,634.709,552.112,653.747,543.258,661.381Z" transform="translate(-430.612 -357.578)" fill="#929b74"/><path d="M583.069,555.22l-.4-.495-.264,1.052C582.808,555.43,583.052,555.233,583.069,555.22Z" transform="translate(-452.681 -320.155)" fill="#929b74"/><path d="M554.467,574.309c.559-8.06,9.51-16.35,12.031-18.532l.264-1.052h0s-20.627,16.514-9.83,27.947a17.111,17.111,0,0,1,2.114,2.749l.212-.842a17.628,17.628,0,0,0-1.864-2.346A10.146,10.146,0,0,1,554.467,574.309Z" transform="translate(-436.734 -320.155)" fill="#929b74"/><path d="M553.471,623.9l-.225.894a20.791,20.791,0,0,1,2.4,11.4c-.512,9.991-6.1,19.988-11.582,25.125l-.28,1.116C552.638,654.8,560.823,635.764,553.471,623.9Z" transform="translate(-431.138 -358.634)" fill="#929b74"/><path d="M735.274,594.165s21.526,13.843,15.766,25.276a13.983,13.983,0,0,0-1.375,4.265l.539,1.107a12.93,12.93,0,0,1,1.4-5.083c2.486-4.937.47-11.041-5.832-17.651a63.574,63.574,0,0,0-10.159-8.45l-.689,1.071c.026.016.357.232.907.616Z" transform="translate(-537.878 -341.796)" fill="#929b74"/><path d="M767.182,660.2l-.468-.961c-2.144,10.123,8.1,18.074,8.214,18.163l.77-1.009c-.022-.017-.445-.347-1.085-.938l.7,1.438S765.788,669.647,767.182,660.2Z" transform="translate(-555.434 -378.295)" fill="#929b74"/><path d="M751.474,620.112c5.76-11.432-15.766-25.276-15.766-25.276l.561,1.152c3.97,2.77,19.411,14.357,14.636,23.838a14.761,14.761,0,0,0-1.274,3.591l.468.961A13.98,13.98,0,0,1,751.474,620.112Z" transform="translate(-538.311 -342.467)" fill="#929b74"/><path d="M776.1,678.1l-.7-1.438c-2.273-2.1-7.291-7.527-6.893-14.148l-.539-1.107C766.569,670.851,776.1,678.1,776.1,678.1Z" transform="translate(-556.216 -379.499)" fill="#929b74"/></svg>