<svg xmlns="http://www.w3.org/2000/svg" xmlns:xlink="http://www.w3.org/1999/xlink" width="316.786" height="316.786" viewBox="0 0 316.786 316.786"><defs><linearGradient id="a" x1="-5.192" y1="4.665" x2="-5.193" y2="4.667" gradientUnits="objectBoundingBox"><stop offset="0" stop-color="#f59d9b"/><stop offset="1" stop-color="#e73151"/></linearGradient><linearGradient id="b" x1="-10.004" y1="12.28" x2="-10.006" y2="12.287" xlink:href="#a"/><linearGradient id="c" x1="-9.044" y1="5.713" x2="-9.046" y2="5.716" xlink:href="#a"/></defs><path d="M632.994,184.5A158.393,158.393,0,1,0,403.075,325.857c.015-.075.029-.151.043-.226a158.162,158.162,0,1,1,133.043,4.612l.016.233A158.436,158.436,0,0,0,632.994,184.5Z" transform="translate(-316.208 -26.105)" fill="#fff"/><path d="M415.048,265.418l.242-.608s-3.185,1.049-16.669-13.8,16.857-66.583,31.79-82.67,31.915-17.576,31.915-17.576c4.844-.125,9.327-.09,13.481.076a65.624,65.624,0,0,0,2.94-12.852s-5.542-.332-5.94-6.752-.521-12.151,3.174-12.064c-4.058-3.537-2.513-9.3-2.516-9.3-2.2-13.66,15.664-27.683,26.327-25.449S516.672,95.2,519.052,94.438s8.319-8.207,20.266-1.028-1.388,17.972-7.074,21.372a6.547,6.547,0,0,1-4.232.869,26.147,26.147,0,0,1,.961,5.6,52.663,52.663,0,0,1-1.568,15.67,61.4,61.4,0,0,1-5.5,15.133,41.2,41.2,0,0,1,12.643,2.057c7.307,2.412,19.817,3.179,17.106,10.146s2.827,11.1,2.859,17.018-6.981,8.612-10.22,2.444c-3.1-5.9-5.883-.172-12.21-1.219,6.12,17.69,14.965,47.527,14.047,70,0,0-.2,19.329-13.749,18.25l0,0,4.064,59.768A158.182,158.182,0,1,0,403.4,325.909c5.4-28.175,10.87-55.909,11.764-60.446ZM479.732,90.739a.328.328,0,1,1,.415.507c-.105.086-10.507,8.746-8.485,19.883a.326.326,0,0,1-.26.38.331.331,0,0,1-.062.005h0a.327.327,0,0,1-.322-.268C468.926,99.725,479.624,90.827,479.732,90.739Z" transform="translate(-316.486 -26.383)" fill="#fff" opacity="0.67"/><path d="M583.8,719.187a157.5,157.5,0,0,1-71.482-17.039c-.015.075-.029.151-.043.226a158.787,158.787,0,0,0,133.1,4.619l-.016-.233A157.676,157.676,0,0,1,583.8,719.187Z" transform="translate(-425.404 -402.622)" fill="#c1cf95"/><path d="M715.859,256.841c-.184-.159-.37-.317-.56-.471-1.829-1.974-.3-2.828,2.588-2.944a61.408,61.408,0,0,0,5.5-15.133,52.664,52.664,0,0,0,1.568-15.67,26.147,26.147,0,0,0-.961-5.6c-4.625-.526-9.595-5.02-14.087-7.229-5.9-2.9-7.013.275-10.735,2.225s-5.015-2.542-11.288-1.968-6.36,9.342-4.916,13.033-1.095,7.844-3.834,9.5-3.014-5.36-3.108-8.5-4.06-3.537-4.06-3.537h0c-3.7-.087-3.572,5.645-3.174,12.064s5.94,6.752,5.94,6.752a65.635,65.635,0,0,1-2.94,12.852c3.19.128,6.183.335,9,.608a17.471,17.471,0,0,1,.249-4.4.491.491,0,0,1,.956.226,16.813,16.813,0,0,0-.206,4.272,102.01,102.01,0,0,1,19.623,3.816,5.364,5.364,0,0,1,4.571,1.171.486.486,0,0,1,.154.478,55.062,55.062,0,0,1,6.281,2.907c.237-.261.471-.524.7-.789A37.508,37.508,0,0,0,715.859,256.841Zm-41.513-27.332a7.876,7.876,0,0,1-1.67,1.981c-.89.825-1.223,1.132-.648,2.123a.492.492,0,0,1-.425.738h0a.493.493,0,0,1-.425-.245c-.97-1.671-.055-2.518.831-3.338a6.95,6.95,0,0,0,1.479-1.738c.415-.742-.009-1.145-1.072-1.889-.8-.56-1.9-1.329-1.182-2.495a1.742,1.742,0,0,1,1.388-.969,2.318,2.318,0,0,1,1.72.934.491.491,0,0,1-.778.6c-.118-.151-.531-.567-.89-.552-.2.011-.4.178-.6.5-.178.3-.082.484.908,1.177C673.876,226.967,675.233,227.917,674.346,229.509Zm5.116,6.26-.63-1.29,3.736-3.555.49,1.923Zm6.469-8.9c-.5-1.755,1.888-4.676,1.888-4.676a15.085,15.085,0,0,1,.791,3.6C688.6,227.089,686.43,228.627,685.93,226.872ZM718.3,236.961c-2.2-.326-3.9-1.11-3.807-1.751s1.953-.9,4.151-.572,3.9,1.11,3.807,1.751S720.5,237.287,718.3,236.961ZM696.68,216.152a.491.491,0,0,1,.657.224c1.654,3.362,7.8,2.2,7.862,2.187a.491.491,0,1,1,.19.964,14.64,14.64,0,0,1-2.621.231c-2.179,0-5.108-.5-6.313-2.948A.491.491,0,0,1,696.68,216.152Zm-.11,7.756c.2-.037,4.835-.881,7.969,1.324a.491.491,0,0,1-.284.893h0a.491.491,0,0,1-.282-.09c-2.791-1.964-7.177-1.171-7.222-1.163a.491.491,0,1,1-.181-.965Zm-7.085,6.384c-.741-.9,1.235-3.954,1.235-3.954a15.359,15.359,0,0,1,.6,3.214C691.19,230.09,690.226,231.2,689.484,230.293Zm7.3,5.912c-3.475-.07-6.279-.822-6.261-1.681s2.848-1.5,6.323-1.429,6.278.822,6.261,1.681S700.255,236.274,696.78,236.2Zm15.267,15.4c.131,2.278-2.595,1.814-6.109.356s-7.362.221-5.886-2.982,6.3-2.443,6.3-2.443C713.406,248.2,711.916,249.326,712.047,251.6Zm-.3-14.4-.345.286c-1.487,1.232-2.1,1.742-2.263,2.465a.491.491,0,0,1-.97-.109.475.475,0,0,1,.012-.106c.233-1.053.974-1.665,2.595-3.009l.344-.285c.451-.374.683-.686.687-.925.01-.436-.7-1.079-1.591-1.891-.257-.233-.534-.486-.83-.762-2.383-2.241-2.3-8.066-2.3-8.31a.491.491,0,0,1,.982.018c0,.056-.077,5.634,1.99,7.576.29.273.564.521.817.751,1.164,1.058,1.933,1.756,1.914,2.641A2.433,2.433,0,0,1,711.744,237.2Zm1.012-17.349a.492.492,0,0,1,.665-.2c.055.029,5.6,2.918,8.158.178a.492.492,0,0,1,.72.67,5.028,5.028,0,0,1-3.83,1.5,13.428,13.428,0,0,1-5.508-1.478A.492.492,0,0,1,712.755,219.852Zm.722,6.271c.2-.037,4.835-.881,7.969,1.325a.491.491,0,0,1-.565.8c-2.791-1.964-7.176-1.171-7.222-1.162a.491.491,0,1,1-.182-.966Z" transform="translate(-512.47 -127.76)" fill="#fff"/><path d="M715.859,256.841c-.184-.159-.37-.317-.56-.471-1.829-1.974-.3-2.828,2.588-2.944a61.408,61.408,0,0,0,5.5-15.133,52.664,52.664,0,0,0,1.568-15.67,26.147,26.147,0,0,0-.961-5.6c-4.625-.526-9.595-5.02-14.087-7.229-5.9-2.9-7.013.275-10.735,2.225s-5.015-2.542-11.288-1.968-6.36,9.342-4.916,13.033-1.095,7.844-3.834,9.5-3.014-5.36-3.108-8.5-4.06-3.537-4.06-3.537h0c-3.7-.087-3.572,5.645-3.174,12.064s5.94,6.752,5.94,6.752a65.635,65.635,0,0,1-2.94,12.852c3.19.128,6.183.335,9,.608a17.471,17.471,0,0,1,.249-4.4.491.491,0,0,1,.956.226,16.813,16.813,0,0,0-.206,4.272,102.01,102.01,0,0,1,19.623,3.816,5.364,5.364,0,0,1,4.571,1.171.486.486,0,0,1,.154.478,55.062,55.062,0,0,1,6.281,2.907c.237-.261.471-.524.7-.789A37.508,37.508,0,0,0,715.859,256.841Zm-41.513-27.332a7.876,7.876,0,0,1-1.67,1.981c-.89.825-1.223,1.132-.648,2.123a.492.492,0,0,1-.425.738h0a.493.493,0,0,1-.425-.245c-.97-1.671-.055-2.518.831-3.338a6.95,6.95,0,0,0,1.479-1.738c.415-.742-.009-1.145-1.072-1.889-.8-.56-1.9-1.329-1.182-2.495a1.742,1.742,0,0,1,1.388-.969,2.318,2.318,0,0,1,1.72.934.491.491,0,0,1-.778.6c-.118-.151-.531-.567-.89-.552-.2.011-.4.178-.6.5-.178.3-.082.484.908,1.177C673.876,226.967,675.233,227.917,674.346,229.509Zm5.116,6.26-.63-1.29,3.736-3.555.49,1.923Zm6.469-8.9c-.5-1.755,1.888-4.676,1.888-4.676a15.085,15.085,0,0,1,.791,3.6C688.6,227.089,686.43,228.627,685.93,226.872ZM718.3,236.961c-2.2-.326-3.9-1.11-3.807-1.751s1.953-.9,4.151-.572,3.9,1.11,3.807,1.751S720.5,237.287,718.3,236.961ZM696.68,216.152a.491.491,0,0,1,.657.224c1.654,3.362,7.8,2.2,7.862,2.187a.491.491,0,1,1,.19.964,14.64,14.64,0,0,1-2.621.231c-2.179,0-5.108-.5-6.313-2.948A.491.491,0,0,1,696.68,216.152Zm-.11,7.756c.2-.037,4.835-.881,7.969,1.324a.491.491,0,0,1-.284.893h0a.491.491,0,0,1-.282-.09c-2.791-1.964-7.177-1.171-7.222-1.163a.491.491,0,1,1-.181-.965Zm-7.085,6.384c-.741-.9,1.235-3.954,1.235-3.954a15.359,15.359,0,0,1,.6,3.214C691.19,230.09,690.226,231.2,689.484,230.293Zm7.3,5.912c-3.475-.07-6.279-.822-6.261-1.681s2.848-1.5,6.323-1.429,6.278.822,6.261,1.681S700.255,236.274,696.78,236.2Zm15.267,15.4c.131,2.278-2.595,1.814-6.109.356s-7.362.221-5.886-2.982,6.3-2.443,6.3-2.443C713.406,248.2,711.916,249.326,712.047,251.6Zm-.3-14.4-.345.286c-1.487,1.232-2.1,1.742-2.263,2.465a.491.491,0,0,1-.97-.109.475.475,0,0,1,.012-.106c.233-1.053.974-1.665,2.595-3.009l.344-.285c.451-.374.683-.686.687-.925.01-.436-.7-1.079-1.591-1.891-.257-.233-.534-.486-.83-.762-2.383-2.241-2.3-8.066-2.3-8.31a.491.491,0,0,1,.982.018c0,.056-.077,5.634,1.99,7.576.29.273.564.521.817.751,1.164,1.058,1.933,1.756,1.914,2.641A2.433,2.433,0,0,1,711.744,237.2Zm1.012-17.349a.492.492,0,0,1,.665-.2c.055.029,5.6,2.918,8.158.178a.492.492,0,0,1,.72.67,5.028,5.028,0,0,1-3.83,1.5,13.428,13.428,0,0,1-5.508-1.478A.492.492,0,0,1,712.755,219.852Zm.722,6.271c.2-.037,4.835-.881,7.969,1.325a.491.491,0,0,1-.565.8c-2.791-1.964-7.176-1.171-7.222-1.162a.491.491,0,1,1-.182-.966Z" transform="translate(-512.47 -127.76)" fill="url(#a)"/><path d="M722.61,314.278a.49.49,0,0,1-.373.172h0a.491.491,0,0,1-.319-.119,4.359,4.359,0,0,0-3.925-.92,6.65,6.65,0,0,0-2.028.806.491.491,0,1,1-.54-.821,7.533,7.533,0,0,1,2.328-.939c.078-.02.156-.028.234-.044a102.018,102.018,0,0,0-19.623-3.816,16.836,16.836,0,0,0,.526,3.082c1.432,5.407,5.26,9.555,11.376,12.331a.484.484,0,0,1,.265.569c7.029,1.778,13.762-2.432,18.462-7.609a55.058,55.058,0,0,0-6.281-2.907A.471.471,0,0,1,722.61,314.278Z" transform="translate(-529.047 -183.437)" fill="#c1cf95"/><path d="M722.61,314.278a.49.49,0,0,1-.373.172h0a.491.491,0,0,1-.319-.119,4.359,4.359,0,0,0-3.925-.92,6.65,6.65,0,0,0-2.028.806.491.491,0,1,1-.54-.821,7.533,7.533,0,0,1,2.328-.939c.078-.02.156-.028.234-.044a102.018,102.018,0,0,0-19.623-3.816,16.836,16.836,0,0,0,.526,3.082c1.432,5.407,5.26,9.555,11.376,12.331a.484.484,0,0,1,.265.569c7.029,1.778,13.762-2.432,18.462-7.609a55.058,55.058,0,0,0-6.281-2.907A.471.471,0,0,1,722.61,314.278Z" transform="translate(-529.047 -183.437)" fill="url(#b)"/><path d="M677.616,311a17.452,17.452,0,0,1-.563-3.387c-2.813-.273-5.805-.48-9-.608a114.031,114.031,0,0,1-5.349,13.349,8.411,8.411,0,0,0-.76,4.548,31.775,31.775,0,0,0,.961,4.9l31.1,12.553c-1.405-4.408-3.276-8.462-4.125-10.475-1.194-2.831-.532-6.551-.242-7.844a.511.511,0,0,1-.09-.019C681.555,320.389,678.648,314.933,677.616,311Z" transform="translate(-508.736 -182.548)" fill="#c1cf95"/><path d="M677.616,311a17.452,17.452,0,0,1-.563-3.387c-2.813-.273-5.805-.48-9-.608a114.031,114.031,0,0,1-5.349,13.349,8.411,8.411,0,0,0-.76,4.548,31.775,31.775,0,0,0,.961,4.9l31.1,12.553c-1.405-4.408-3.276-8.462-4.125-10.475-1.194-2.831-.532-6.551-.242-7.844a.511.511,0,0,1-.09-.019C681.555,320.389,678.648,314.933,677.616,311Z" transform="translate(-508.736 -182.548)" fill="url(#c)"/><path d="M759.248,252.313c-.253-.23-.527-.479-.817-.751-2.066-1.942-1.99-7.52-1.99-7.576a.491.491,0,0,0-.982-.018c0,.244-.084,6.069,2.3,8.31.3.276.573.529.83.763.894.813,1.6,1.455,1.591,1.891,0,.239-.237.55-.687.925l-.344.285c-1.621,1.344-2.362,1.957-2.6,3.009a.479.479,0,0,0-.012.106.491.491,0,0,0,.97.109c.16-.724.776-1.233,2.263-2.465l.345-.286a2.433,2.433,0,0,0,1.042-1.661C761.181,254.07,760.411,253.371,759.248,252.313Z" transform="translate(-560.845 -147.174)" fill="#6f262c"/><path d="M675.695,245.257c-.991-.693-1.086-.881-.908-1.177.2-.323.4-.49.6-.5.359-.015.771.4.89.552a.491.491,0,0,0,.777-.6,2.317,2.317,0,0,0-1.72-.934,1.742,1.742,0,0,0-1.388.969c-.715,1.166.382,1.934,1.183,2.495,1.063.744,1.487,1.148,1.072,1.889a6.952,6.952,0,0,1-1.479,1.738c-.886.819-1.8,1.667-.831,3.338a.493.493,0,0,0,.425.245h0a.492.492,0,0,0,.425-.738c-.576-.991-.242-1.3.648-2.123a7.877,7.877,0,0,0,1.67-1.981C677.949,246.835,676.592,245.885,675.695,245.257Z" transform="translate(-515.186 -146.679)" fill="#6f262c"/><path d="M673.973,182.012c-.086-5.544,4.48-10.29,4.536-10.347l.234.229h0c5.187-4.617,13.961-4.716,20.426-4.228a29.94,29.94,0,0,1,21.377,11.971,18.587,18.587,0,0,0,6.48.481,4.222,4.222,0,0,0,2.927-1.517l.534.381a4.84,4.84,0,0,1-3.359,1.784,11.212,11.212,0,0,1-1.731.123,22.626,22.626,0,0,1-4.3-.48c.449.646.874,1.31,1.268,1.992a26.206,26.206,0,0,1,2.338,5.63,6.547,6.547,0,0,0,4.232-.869c5.686-3.4,19.021-14.193,7.074-21.372s-17.885.263-20.266,1.028-8.595-7.785-19.258-10.018-28.523,11.789-26.327,25.449c0,0-1.542,5.762,2.516,9.3h0A58.975,58.975,0,0,1,673.973,182.012Zm45.549-7.836c.4.394,5.614,2.5,9.574,1.639a5.183,5.183,0,0,0,4.028-3.317c.575-1.519.522-2.681-.153-3.361-.987-.994-3.056-.848-4.561-.292-1.459.539-2.443,1.44-2.506,2.294l-.652-.048c.083-1.127,1.207-2.222,2.932-2.86,1.753-.647,4.056-.761,5.253.445.606.61,1.15,1.809.3,4.054-.934,2.468-3.11,3.83-6.293,3.939-.141.006-.285.008-.429.008-3.77,0-7.806-1.636-8.053-2.174l.593-.273A.177.177,0,0,0,719.522,174.176Z" transform="translate(-513.179 -98.762)" fill="#2b220b"/><path d="M680.259,208.8c.094,3.144.368,10.16,3.108,8.5s5.279-5.809,3.834-9.5-1.358-12.458,4.916-13.033,7.567,3.918,11.288,1.968,4.832-5.127,10.735-2.225c4.493,2.209,9.462,6.7,14.088,7.229a26.2,26.2,0,0,0-2.338-5.63c-.394-.682-.819-1.345-1.268-1.992-6.859-1.355-15.552-5.318-19.76-8.447-6.314-4.7-15.491,1.441-15.583,1.5l-.369-.541a23.105,23.105,0,0,1,5.6-2.625c4.249-1.322,7.964-.929,10.741,1.136,4.024,2.992,12.193,6.76,18.816,8.2a29.94,29.94,0,0,0-21.377-11.971c-6.465-.488-15.239-.389-20.426,4.228h0l.234.229c-.066.067-6.553,6.812-3.572,13.371l-.6.271a9.328,9.328,0,0,1-.836-3.753,58.967,58.967,0,0,0-1.3,9.534h0S680.166,205.652,680.259,208.8Z" transform="translate(-516.702 -112.474)" fill="#2b220b"/><path d="M691.695,262.5l.63,1.29,3.6-2.922-.489-1.923Z" transform="translate(-525.333 -155.786)" fill="#6f262c"/><path d="M707.629,243.926c.5,1.755,2.674.217,2.678-1.076a15.082,15.082,0,0,0-.791-3.6S707.129,242.172,707.629,243.926Z" transform="translate(-534.169 -144.815)" fill="#fbfdf9"/><path d="M717.368,251.814a15.352,15.352,0,0,0-.6-3.214s-1.977,3.051-1.235,3.954S717.235,252.351,717.368,251.814Z" transform="translate(-538.514 -150.022)" fill="#fbfdf9"/><path d="M724.512,344.86a.5.5,0,0,0,.113.024h0a.491.491,0,0,0,.449-.289.425.425,0,0,0,.018-.081c-.156-.039-.311-.077-.467-.122C724.626,344.393,724.578,344.562,724.512,344.86Z" transform="translate(-543.61 -203.373)" fill="#6f262c"/><path d="M697.26,298.195a.491.491,0,0,0-.956-.226,17.468,17.468,0,0,0-.249,4.4c.335.032.669.065,1,.1A16.813,16.813,0,0,1,697.26,298.195Z" transform="translate(-527.737 -177.307)" fill="#6f262c"/><path d="M709.008,323.885c-6.116-2.776-9.944-6.925-11.376-12.331a16.833,16.833,0,0,1-.526-3.082c-.33-.035-.665-.067-1-.1a17.455,17.455,0,0,0,.563,3.387c1.032,3.938,3.94,9.394,11.932,13.021a.5.5,0,0,0,.09.019c.066-.3.114-.467.114-.467.156.045.311.083.467.122A.484.484,0,0,0,709.008,323.885Z" transform="translate(-527.79 -183.312)" fill="#6f262c"/><ellipse cx="1.555" cy="6.293" rx="1.555" ry="6.293" transform="translate(178.018 108.318) rotate(-88.854)" fill="#e73151"/><path d="M776.335,267.154c-2.2-.326-4.056-.07-4.151.572s1.609,1.426,3.807,1.751,4.056.07,4.151-.572S778.533,267.48,776.335,267.154Z" transform="translate(-570.159 -160.277)" fill="#e73151"/><path d="M747.223,318.243a5.364,5.364,0,0,0-4.571-1.171q2.541.787,4.725,1.649A.486.486,0,0,0,747.223,318.243Z" transform="translate(-553.713 -188.095)" fill="#6f262c"/><path d="M736.592,318.194a.491.491,0,1,0,.54.82,6.652,6.652,0,0,1,2.028-.806,4.359,4.359,0,0,1,3.925.92.492.492,0,0,0,.319.119h0a.491.491,0,0,0,.373-.172.471.471,0,0,0,.1-.215q-2.188-.858-4.725-1.65c-.078.016-.156.024-.233.044A7.531,7.531,0,0,0,736.592,318.194Z" transform="translate(-550.214 -188.234)" fill="#6f262c"/><path d="M790.827,208.466a4.839,4.839,0,0,0,3.359-1.784l-.534-.381a4.222,4.222,0,0,1-2.927,1.517,18.587,18.587,0,0,1-6.48-.481q.283.381.553.771a22.632,22.632,0,0,0,4.3.48A11.207,11.207,0,0,0,790.827,208.466Z" transform="translate(-576.878 -126.464)" fill="#403823"/><path d="M721.234,187.738c-2.778-2.065-6.493-2.458-10.741-1.136a23.106,23.106,0,0,0-5.6,2.625l.369.541c.092-.063,9.268-6.2,15.583-1.5,4.208,3.129,12.9,7.092,19.76,8.447q-.27-.39-.553-.771C733.427,194.5,725.258,190.73,721.234,187.738Z" transform="translate(-532.683 -115.065)" fill="#403823"/><path d="M788.723,190.74c.144,0,.288,0,.429-.008,3.183-.109,5.359-1.471,6.293-3.939.849-2.244.3-3.443-.3-4.054-1.2-1.206-3.5-1.093-5.253-.445-1.725.638-2.849,1.733-2.932,2.86l.652.048c.063-.854,1.047-1.755,2.506-2.294,1.505-.556,3.575-.7,4.561.292.675.681.728,1.842.153,3.361a5.183,5.183,0,0,1-4.028,3.317c-3.96.857-9.178-1.245-9.574-1.639a.179.179,0,0,1,.034.053l-.593.273C780.917,189.1,784.952,190.74,788.723,190.74Z" transform="translate(-574.887 -112.828)" fill="#403823"/><path d="M679.126,201c.881-3.883,2.346-7.96,4.77-10.118l-.234-.229C683.605,190.708,679.039,195.453,679.126,201Z" transform="translate(-518.332 -117.747)" fill="#403823"/><path d="M679.127,201.285a9.326,9.326,0,0,0,.836,3.753l.6-.271c-2.981-6.56,3.506-13.3,3.572-13.371l-.234-.229C681.473,193.325,680.008,197.4,679.127,201.285Z" transform="translate(-518.333 -118.035)" fill="#403823"/><path d="M664.972,192.04h0a.332.332,0,0,0,.063-.005.326.326,0,0,0,.26-.38c-2.023-11.137,8.379-19.8,8.485-19.883a.328.328,0,0,0-.415-.507c-.109.088-10.807,8.987-8.715,20.507A.327.327,0,0,0,664.972,192.04Z" transform="translate(-510.119 -106.909)" fill="#1e2481"/><path d="M777.732,234.276a.492.492,0,0,0-.72-.67c-2.554,2.741-8.1-.149-8.158-.178a.491.491,0,1,0-.46.868,13.428,13.428,0,0,0,5.508,1.478A5.029,5.029,0,0,0,777.732,234.276Z" transform="translate(-567.905 -141.541)" fill="#6f262c"/><path d="M737.721,229.151a14.648,14.648,0,0,0,2.621-.231.491.491,0,1,0-.19-.964c-.062.012-6.209,1.175-7.862-2.187a.491.491,0,0,0-.882.434C732.613,228.653,735.542,229.151,737.721,229.151Z" transform="translate(-547.423 -137.154)" fill="#6f262c"/><path d="M745.48,294.085s-4.823-.759-6.3,2.443,2.372,1.524,5.886,2.982,6.24,1.922,6.109-.356S752.536,295.755,745.48,294.085Z" transform="translate(-551.6 -175.311)" fill="#6f262c"/><path d="M769.57,248.842c.046-.009,4.431-.8,7.222,1.162a.491.491,0,0,0,.565-.8c-3.135-2.206-7.773-1.362-7.969-1.325a.491.491,0,1,0,.182.966Z" transform="translate(-568.38 -149.514)" fill="#6f262c"/><path d="M731.408,243.843c.046-.008,4.431-.8,7.222,1.163a.491.491,0,0,0,.282.089h0a.491.491,0,0,0,.284-.893c-3.135-2.205-7.773-1.361-7.969-1.324a.491.491,0,1,0,.181.965Z" transform="translate(-547.126 -146.73)" fill="#6f262c"/><path d="M641.023,589.439a35.54,35.54,0,0,0,6.5,2.62,52.852,52.852,0,0,1,5.254,2,20.23,20.23,0,0,0,5.335,1.839c.878.13,2.1-.113,1.26-1.131a8.6,8.6,0,0,0-1.551-1.295c-1.358-1.02-2.76-1.964-4.073-3.047-.384-.316-.356-.637.141-.668a2.476,2.476,0,0,1,1.062.333q2.448,1.117,4.989,2,1.241.43,2.5.8c.452.133,1.73.741,2.159.49.941-.55-2.175-2.741-2.615-3.075-1.413-1.075-3.071-1.9-4.421-3.04.13-.327,4,1.374,4.531,1.581.866.339,1.732.678,2.62.949.4.119,1.476.484,1.35-.26-.059-.356-.586-.7-.852-.9q-3.755-2.753-7.687-5.239c.4-.225.858-.017,1.254.128q.869.318,1.752.587a33.942,33.942,0,0,0,3.581.884,1.319,1.319,0,0,0,.712,0c1.112-.429-.653-1.766-1.047-2.049-3.055-2.2-6.926-3.219-9.741-5.77-1.77-1.6,4.042-.738,5.585-2.769s-1.3-1.79-4.952-.9-4.375.93-7.605-.186a12.939,12.939,0,0,0-6.428-.031l-4.777,12.663A39.208,39.208,0,0,0,641.023,589.439Z" transform="translate(-494.238 -330.609)" fill="#f59d9b"/><path d="M647.818,432.452c-2.76-2.016-3.14-2.638-4.494-6.139s-2.781-5.978-3.569-3.551,3.24,6.706.913,6.168c-3.7-.856-6.748-3.451-10.3-4.706-.455-.161-2.562-.848-2.28.309a1.322,1.322,0,0,0,.408.587,34,34,0,0,0,2.769,2.436q.726.57,1.483,1.1c.346.245.779.5.821.957q-4.286-1.809-8.689-3.321c-.312-.108-.9-.341-1.224-.187-.683.32.229,1,.557,1.257.728.575,1.5,1.092,2.273,1.61.473.317,4.079,2.522,3.884,2.818-1.708-.459-3.331-1.352-5.02-1.9-.525-.17-4.1-1.478-4.018-.392.039.494,1.268,1.195,1.634,1.492q1.024.823,2.085,1.6,2.173,1.585,4.486,2.957a2.475,2.475,0,0,1,.879.682c.257.423.01.632-.468.5-1.639-.461-3.215-1.072-4.827-1.606a8.651,8.651,0,0,0-1.949-.533c-1.316-.11-.817,1.034-.21,1.68a20.239,20.239,0,0,0,4.556,3.33,52.829,52.829,0,0,1,4.643,3.171,35.488,35.488,0,0,0,5.864,3.847,39.153,39.153,0,0,0,5.686,2.207l6.879-7.728C650.283,438.556,649.741,433.856,647.818,432.452Z" transform="translate(-486.146 -246.48)" fill="#f59d9b"/><path d="M553.661,504.557a2.86,2.86,0,0,0,.2-.341,15.922,15.922,0,0,0-12.448,2.128l.731,1.089a14.876,14.876,0,0,1,11.686-1.871l-.583-.517Z" transform="translate(-441.636 -292.138)" fill="#929b74"/><path d="M799.681,341.389c3.239,6.168,10.253,3.475,10.22-2.444s-5.57-10.051-2.859-17.018-9.8-7.735-17.106-10.146a41.2,41.2,0,0,0-12.643-2.057c-.628,1.169-1.3,2.312-2.027,3.414a20.494,20.494,0,0,1,6.4,10.265,16.278,16.278,0,0,1,.416,2.23c.624,1.545,2.753,6.909,5.392,14.538C793.8,341.217,796.583,335.488,799.681,341.389Z" transform="translate(-571.877 -184.057)" fill="#00a991"/><path d="M795.155,360c.3.078.594.134.881.181-2.639-7.629-4.768-12.993-5.392-14.538C791.412,352.061,788.921,358.412,795.155,360Z" transform="translate(-580.442 -204.072)" fill="#00a991"/><path d="M773,312.685c.19.153.376.311.56.47.728-1.1,1.4-2.245,2.027-3.414C772.7,309.856,771.174,310.711,773,312.685Z" transform="translate(-570.175 -184.074)" fill="#00a991"/><path d="M538.779,564.9c.084-.424.129-.653.129-.653h0l-.242.608Z" transform="translate(-440.104 -325.818)" fill="#929b74"/><path d="M538.922,488.892l42.664,17.023.287-.762c-.252-.2-.507-.4-.754-.6l4.36-11.824c.212-.03.626-.127,1.171-.237l.2-.517-8.914-7.9c.084.616.124.98.124.98l-25.281-22.4L563.238,438.8s.192.17.51.472c.979-2.329,1.764-4.206,2.182-5.208l.043-.1.346-6.109-1.3-.074-.334,5.887c-4.309,10.325-10.806,25.617-12.205,28.228.283.07.459.124.5.137l-.222.692-.177.553h0l-.129-.035,32.86,29.119L580.831,504.2,539.294,487.63l-.243.609h0S539.006,488.467,538.922,488.892Z" transform="translate(-440.247 -249.812)" fill="#929b74"/><path d="M634.162,585.9c.247.207.5.4.754.6l4.777-12.663c-.545.109-.959.207-1.171.237Z" transform="translate(-493.29 -331.161)" fill="#929b74"/><path d="M569.733,507.894h0Z" transform="translate(-457.407 -294.434)" fill="#929b74"/><path d="M569.734,507.2l.177-.553-.178.553Z" transform="translate(-457.407 -293.739)" fill="#929b74"/><path d="M569.039,505.533l-.022.071.222-.693c-.04-.013-.215-.067-.5-.137a2.874,2.874,0,0,1-.2.341l-.411.488.583.517.129.035Z" transform="translate(-456.512 -292.696)" fill="#929b74"/><path d="M569.733,507.109h0l.178-.553.023-.071Z" transform="translate(-457.407 -293.65)" fill="#929b74"/><path d="M570.186,476.5l25.281,22.4s-.04-.363-.124-.98l-24.325-21.556c1.543-2.91,6.913-15.566,10.142-23.247-.318-.3-.51-.472-.51-.472Z" transform="translate(-457.659 -263.668)" fill="#929b74"/><path d="M803.481,577.646v0l0,0Z" transform="translate(-587.591 -333.282)" fill="#fff"/><path d="M688.331,464.251c8.041,2.074,16.266,4.329,23.6,6.4l-.02-.006s.3-.166.775-.46c-7.5-2.118-15.962-4.442-24.191-6.564l-.387-.1-.731.821c.04.326.076.615.111.859Z" transform="translate(-522.928 -269.719)" fill="#c1cf95"/><path d="M729.181,515.005l.311-.576c-16.83-9.083-52.653-36.923-57.516-40.724l6.939-7.8c23.024,5.948,47.721,13.43,47.969,13.5l.381-1.253c-.075-.023-2.352-.712-6.125-1.828.051.252.1.471.152.652l-.131.037c3.71,1.1,5.913,1.766,5.913,1.766s-2.2-.668-5.913-1.766l-1.13.318c-.055-.193-.109-.429-.163-.7l-17.577-5.073c-7.334-2.067-15.559-4.323-23.6-6.4l-.843.947a3.218,3.218,0,0,0,.159.753l-6.1,6.428c-.12-.033-.239-.073-.36-.107l-.53.6s39.912,31.369,58.159,41.215c-18.247-9.846-58.159-41.215-58.159-41.215l.53-.6c-.231-.066-.46-.136-.69-.206l-.789.886.548.43c.4.314,40.163,31.516,58.252,41.276l.309-.572v0Z" transform="translate(-513.289 -270.641)" fill="#c1cf95"/><path d="M678.841,466.231c-.035-.244-.071-.533-.111-.859l-6.879,7.728c.23.07.459.14.69.206Z" transform="translate(-514.281 -270.752)" fill="#f59d9b"/><path d="M673.769,474.492l6.1-6.428a3.221,3.221,0,0,1-.159-.753l-6.3,7.074C673.53,474.419,673.648,474.459,673.769,474.492Z" transform="translate(-515.148 -271.832)" fill="#f59d9b"/><path d="M742.8,479.609l17.577,5.073v0C755.935,483.369,749.769,481.574,742.8,479.609Z" transform="translate(-553.794 -278.681)" fill="#929b74"/><path d="M742.772,479.023c6.972,1.965,13.138,3.76,17.576,5.069-.044-.219-.088-.459-.132-.721-4.294-1.264-10.123-2.96-16.689-4.814-.479.294-.775.46-.775.46Z" transform="translate(-553.769 -278.095)" fill="#929b74"/><path d="M779.156,446.507l1.593,16.519.623.184c-.953-4.744-1.838-21.42-1.848-21.6l-1.307.069c.015.242.118,2.217.281,4.819C778.909,446.495,779.156,446.507,779.156,446.507Z" transform="translate(-573.521 -257.52)" fill="#707070"/><path d="M780.322,468.937l.781.23-1.593-16.519s-.248-.012-.658-.006q.043.687.092,1.424C779.277,459.136,779.776,465.654,780.322,468.937Z" transform="translate(-573.874 -263.661)" fill="#707070"/><path d="M783.993,490.644l-.073-.021.65.192.131-.037c-.051-.18-.1-.4-.152-.652l-.623-.184Z" transform="translate(-576.697 -284.436)" fill="#707070"/><path d="M782.469,491.06c.054.267.108.5.163.7l1.13-.318-.65-.192Z" transform="translate(-575.889 -285.058)" fill="#707070"/><path d="M782.467,491.05v0l.643.185Z" transform="translate(-575.888 -285.053)" fill="#707070"/><path d="M783.018,490.355l-.067-.7-.781-.23c.043.262.088.5.132.721l.644.19Z" transform="translate(-575.722 -284.147)" fill="#707070"/></svg>