<svg xmlns="http://www.w3.org/2000/svg" xmlns:xlink="http://www.w3.org/1999/xlink" width="320.426" height="320.426" viewBox="0 0 320.426 320.426"><defs><linearGradient id="a" x1="-4.771" y1="4.31" x2="-4.773" y2="4.312" gradientUnits="objectBoundingBox"><stop offset="0" stop-color="#f59d9b"/><stop offset="1" stop-color="#e73151"/></linearGradient><linearGradient id="b" x1="-8328.567" y1="986.042" x2="-8330.46" y2="986.615" xlink:href="#a"/><linearGradient id="c" x1="-4792.765" y1="725.315" x2="-4793.857" y2="725.746" xlink:href="#a"/><linearGradient id="d" x1="-6547.274" y1="897.161" x2="-6548.764" y2="897.688" xlink:href="#a"/><linearGradient id="e" x1="-268.998" y1="35.534" x2="-269.06" y2="35.557" xlink:href="#a"/><linearGradient id="f" x1="-403.525" y1="53.023" x2="-403.618" y2="53.057" xlink:href="#a"/><linearGradient id="g" x1="-476.889" y1="3974.385" x2="-476.991" y2="3977.239" xlink:href="#a"/><linearGradient id="h" x1="-134.701" y1="29.778" x2="-134.732" y2="29.796" xlink:href="#a"/><linearGradient id="i" x1="-10.664" y1="18.059" x2="-10.667" y2="18.07" xlink:href="#a"/><linearGradient id="j" x1="-19.228" y1="15.086" x2="-19.233" y2="15.096" xlink:href="#a"/><linearGradient id="k" x1="-723.545" y1="94.969" x2="-723.228" y2="94.71" gradientUnits="objectBoundingBox"><stop offset="0" stop-color="#f59d9b" stop-opacity="0"/><stop offset="1" stop-color="#e73151"/></linearGradient><linearGradient id="l" x1="-651.03" y1="96.367" x2="-650.744" y2="96.101" xlink:href="#k"/><linearGradient id="m" x1="-855.751" y1="95.478" x2="-855.376" y2="95.221" xlink:href="#k"/><linearGradient id="n" x1="-680.145" y1="110.135" x2="-679.846" y2="109.827" xlink:href="#k"/><linearGradient id="o" x1="-5706.359" y1="938.858" x2="-5703.847" y2="936.215" xlink:href="#k"/><linearGradient id="p" x1="-143.644" y1="19.292" x2="-143.585" y2="19.235" xlink:href="#k"/><linearGradient id="q" x1="-24.555" y1="18.58" x2="-24.561" y2="18.59" xlink:href="#a"/><linearGradient id="r" x1="-9.155" y1="6.109" x2="-9.157" y2="6.113" xlink:href="#a"/><linearGradient id="s" x1="-5152.648" y1="385.049" x2="-5150.563" y2="383.905" xlink:href="#k"/><linearGradient id="t" x1="-132.526" y1="22.478" x2="-132.47" y2="22.417" xlink:href="#k"/><linearGradient id="u" x1="-171453.547" y1="70697.367" x2="-171418.844" y2="70592.266" xlink:href="#k"/><linearGradient id="v" x1="-21.648" y1="17.549" x2="-21.639" y2="17.5" xlink:href="#k"/></defs><g transform="translate(-2474.575)"><g transform="translate(2474.575 0)"><path d="M647.641,186.319a160.213,160.213,0,1,0-226.23,146.023l.043-.227a159.994,159.994,0,1,1,135.82-1.82l.032.233A160.222,160.222,0,0,0,647.641,186.319Z" transform="translate(-327.215 -26.105)" fill="#fff"/><path d="M397.462,249.3c-17.453-6.782-7.221-36.125-.324-47.228,13.739-22.122,35.642-34.965,59.829-39.753l-5.917-2.67.408-.9L458.666,162a114.668,114.668,0,0,1,13.726-1.638c.145-.6.289-1.209.425-1.816.021-.091.04-.184.061-.276q.232-1.047.445-2.1c.015-.075.03-.15.044-.225q.213-1.075.4-2.156c.012-.069.023-.138.035-.208q.185-1.082.339-2.17a59.778,59.778,0,0,0,.633-8.887s-5.853.336-7.06-6.348-2.044-12.678,1.844-13.04c-4.692-3.209-3.781-9.442-3.781-9.44-3.983-14.052,13.013-30.954,24.468-29.927S509.27,93,511.672,91.9s7.711-9.63,21.122-3.575.761,19.014-4.784,23.28a6.915,6.915,0,0,1-4.333,1.433,27.664,27.664,0,0,1,1.7,5.75,55.621,55.621,0,0,1,.288,16.623c-.927,8.376-3.218,17.343-8.04,24.553a33.847,33.847,0,0,1-3.973,4.907q5.515,1.543,10.859,3.572L536.127,164l.354.926-10.593,4.049c20.494,8.072,38.521,21.482,50.1,39.4,21.739,33.653,10.763,55.2-15,50.994-1.69-.141-13.4-1.867-13.82-4.139,0,0,5.7,41.334,10.381,75.335a159.984,159.984,0,1,0-135.821,1.82l16.159-85.906C427.229,252.766,410.135,254.227,397.462,249.3ZM470,92.876a.33.33,0,1,1,.475.459c-.1.1-9.945,10.471-6.451,21.905a.33.33,0,0,1-.219.413h0a.338.338,0,0,1-.1.017.331.331,0,0,1-.315-.234C459.782,103.623,469.9,92.982,470,92.876Z" transform="translate(-327.491 -26.381)" fill="#fff" opacity="0.67"/><path d="M603.41,720.883a159.385,159.385,0,0,1-65.963-14.191l-.043.227a160.574,160.574,0,0,0,135.872-1.813l-.032-.233A159.316,159.316,0,0,1,603.41,720.883Z" transform="translate(-443.196 -400.681)" fill="#c1cf95"/><path d="M674.451,412.439c2.109-.158,4.213-.843,6.321-1.111a24.624,24.624,0,0,1,3.2-.293c-.561-.75-1.142-1.484-1.735-2.208-.85.422-1.723.8-2.6,1.17C679.01,410.265,674.286,412.053,674.451,412.439Z" transform="translate(-518.835 -237.311)" fill="#c1cf95"/><path d="M633.538,325.513q.028-.116.055-.232c.017-.07.033-.141.05-.211a114.641,114.641,0,0,0-13.724,1.638l11.541,5.207C632.183,329.758,633.023,327.622,633.538,325.513Z" transform="translate(-488.743 -191.089)" fill="#c1cf95"/><path d="M695.264,396.9c-.214-.009-.427-.023-.64-.039C694.918,397.036,695.155,397.046,695.264,396.9Z" transform="translate(-529.97 -230.709)" fill="#c1cf95"/><path d="M674.056,399.955a40.334,40.334,0,0,1-3.789,2.239q-.978.509-1.985.964c-.459.208-1.026.418-1.173.939q4.9-1.055,9.856-1.8c-.428-.491-.862-.978-1.306-1.456q-.616-.595-1.186-1.23A1.552,1.552,0,0,1,674.056,399.955Z" transform="translate(-514.785 -232.223)" fill="#c1cf95"/><path d="M696.8,233.707a55.609,55.609,0,0,0-.288-16.62,27.661,27.661,0,0,0-1.7-5.749c-4.913.016-10.673-4.081-15.655-5.843-6.548-2.315-7.321,1.152-10.982,3.655s-5.569-2.047-12.075-.673-5.517,10.578-3.548,14.268-.181,8.358-2.851,10.431-3.821-5.246-4.306-8.533-4.691-3.21-4.691-3.21h0c-3.887.362-3.051,6.356-1.844,13.038s7.058,6.346,7.059,6.346a59.769,59.769,0,0,1-.633,8.886c0-.035.012-.069.016-.1,1.771-4.219,6.964-1.242,8.453-.275a.492.492,0,0,1,.9.331,17.773,17.773,0,0,0,1.241,7.678c.168.427.356.84.552,1.247a127.754,127.754,0,0,1,28.339,4.582,33.85,33.85,0,0,0,3.972-4.906C693.588,251.047,695.878,242.082,696.8,233.707Zm-52.515-3.178a8.288,8.288,0,0,1-1.5,2.276c-.818.956-1.154,1.352-.418,2.334a.5.5,0,0,1-.4.794h0a.5.5,0,0,1-.4-.2c-1.212-1.618-.363-2.612.458-3.573a7.366,7.366,0,0,0,1.34-2.01c.348-.846-.149-1.221-1.367-1.877-.9-.485-2.132-1.148-1.537-2.44a1.829,1.829,0,0,1,1.322-1.174,2.412,2.412,0,0,1,1.9.76.5.5,0,0,1-.709.692c-.143-.145-.633-.544-1.022-.476-.218.039-.414.244-.583.612s.028.57,1.107,1.152C643.487,227.945,645.015,228.769,644.29,230.529Zm6.153,5.94-.818-1.274,3.479-4.187.748,1.956Zm45.145-4.645c-.021.685-1.937,1.182-4.281,1.111s-4.227-.683-4.206-1.367,1.937-1.182,4.281-1.111S695.609,231.14,695.588,231.824Zm-3.214-7.467a.661.661,0,0,1-.561.311h0a.663.663,0,0,1-.35-.1,5.736,5.736,0,0,0-6.085-.014.662.662,0,0,1-.745-1.093,7.056,7.056,0,0,1,7.53-.015A.662.662,0,0,1,692.375,224.357Zm-10.221-9.2a.662.662,0,0,1,.89.145,5.953,5.953,0,0,0,1.888,1.442,14.288,14.288,0,0,0,6.876,1.411h.006a.662.662,0,0,1,.006,1.322l-.221,0c-7.112,0-9.528-3.264-9.629-3.4A.662.662,0,0,1,682.154,215.157Zm-3.664,5.613a.5.5,0,0,1,.543.445c.005.059.614,5.925,3.028,7.713.338.252.656.478.95.688,1.345.962,2.234,1.6,2.321,2.518a2.432,2.432,0,0,1-.881,1.85l-.328.342c-1.41,1.479-1.994,2.09-2.077,2.877a.5.5,0,0,1-.493.44H681.5a.5.5,0,0,1-.44-.544c.114-1.125.813-1.856,2.344-3.461l.325-.342c.44-.459.638-.811.614-1.07-.045-.47-.868-1.058-1.91-1.8-.3-.214-.621-.441-.964-.7-2.769-2.05-3.4-8.154-3.425-8.413A.5.5,0,0,1,678.49,220.77Zm-15.015-3.507.028,0c6.578.617,8.946-2.077,8.969-2.1a.661.661,0,0,1,1.038.82l-.031.036c-.1.12-2.338,2.661-8.091,2.661-.63,0-1.3-.03-2.011-.1a.662.662,0,0,1,.1-1.32Zm9.7,7.723a.662.662,0,0,1-.561.311h0a.653.653,0,0,1-.35-.1,5.79,5.79,0,0,0-6.083-.015.661.661,0,0,1-.767-1.078l.02-.014a7.058,7.058,0,0,1,7.53-.015A.662.662,0,0,1,673.174,224.986Zm-17.045,1.36c-.74-1.778,1.4-5.135,1.4-5.135a15.945,15.945,0,0,1,1.272,3.676C658.961,226.244,656.869,228.124,656.129,226.346Zm4.147,3.148c-.891-.855.808-4.3.808-4.3a16.318,16.318,0,0,1,1.026,3.3C662.039,229.072,661.168,230.349,660.277,229.494Zm1.6,4.308c-.088-.9,2.8-1.923,6.451-2.279s6.681.086,6.769.988-2.8,1.923-6.451,2.279S661.97,234.7,661.882,233.8Zm19.211,23.316a.5.5,0,0,1-.688.137,4.62,4.62,0,0,0-4.249-.483,7.026,7.026,0,0,0-2.033,1.1.5.5,0,0,1-.639-.76c.038-.031,3.8-3.135,7.472-.681A.5.5,0,0,1,681.092,257.119Zm6.4-12.358a2.782,2.782,0,0,1-2.053-.692,1.49,1.49,0,0,0-1.208-.349c-.586.152-1.205.911-1.893,2.318a2.166,2.166,0,0,1-2,1.27h0a3.107,3.107,0,0,1-2.692-1.781.679.679,0,0,0-.435-.378,4.35,4.35,0,0,0-2.562.63.5.5,0,1,1-.492-.862c.2-.116,2.031-1.126,3.346-.719a1.675,1.675,0,0,1,1.035.89,2.127,2.127,0,0,0,1.8,1.223,1.174,1.174,0,0,0,1.108-.711c.845-1.73,1.627-2.606,2.534-2.842a2.4,2.4,0,0,1,2.024.493c.776.539,1.139.566,1.287.538.168-.035.286-.207.46-.487a1.5,1.5,0,0,1,.813-.759.5.5,0,1,1,.269.955,1.534,1.534,0,0,0-.241.329A1.744,1.744,0,0,1,687.493,244.761Z" transform="translate(-498.64 -124.679)" fill="#fff"/><path d="M696.8,233.707a55.609,55.609,0,0,0-.288-16.62,27.661,27.661,0,0,0-1.7-5.749c-4.913.016-10.673-4.081-15.655-5.843-6.548-2.315-7.321,1.152-10.982,3.655s-5.569-2.047-12.075-.673-5.517,10.578-3.548,14.268-.181,8.358-2.851,10.431-3.821-5.246-4.306-8.533-4.691-3.21-4.691-3.21h0c-3.887.362-3.051,6.356-1.844,13.038s7.058,6.346,7.059,6.346a59.769,59.769,0,0,1-.633,8.886c0-.035.012-.069.016-.1,1.771-4.219,6.964-1.242,8.453-.275a.492.492,0,0,1,.9.331,17.773,17.773,0,0,0,1.241,7.678c.168.427.356.84.552,1.247a127.754,127.754,0,0,1,28.339,4.582,33.85,33.85,0,0,0,3.972-4.906C693.588,251.047,695.878,242.082,696.8,233.707Zm-52.515-3.178a8.288,8.288,0,0,1-1.5,2.276c-.818.956-1.154,1.352-.418,2.334a.5.5,0,0,1-.4.794h0a.5.5,0,0,1-.4-.2c-1.212-1.618-.363-2.612.458-3.573a7.366,7.366,0,0,0,1.34-2.01c.348-.846-.149-1.221-1.367-1.877-.9-.485-2.132-1.148-1.537-2.44a1.829,1.829,0,0,1,1.322-1.174,2.412,2.412,0,0,1,1.9.76.5.5,0,0,1-.709.692c-.143-.145-.633-.544-1.022-.476-.218.039-.414.244-.583.612s.028.57,1.107,1.152C643.487,227.945,645.015,228.769,644.29,230.529Zm6.153,5.94-.818-1.274,3.479-4.187.748,1.956Zm45.145-4.645c-.021.685-1.937,1.182-4.281,1.111s-4.227-.683-4.206-1.367,1.937-1.182,4.281-1.111S695.609,231.14,695.588,231.824Zm-3.214-7.467a.661.661,0,0,1-.561.311h0a.663.663,0,0,1-.35-.1,5.736,5.736,0,0,0-6.085-.014.662.662,0,0,1-.745-1.093,7.056,7.056,0,0,1,7.53-.015A.662.662,0,0,1,692.375,224.357Zm-10.221-9.2a.662.662,0,0,1,.89.145,5.953,5.953,0,0,0,1.888,1.442,14.288,14.288,0,0,0,6.876,1.411h.006a.662.662,0,0,1,.006,1.322l-.221,0c-7.112,0-9.528-3.264-9.629-3.4A.662.662,0,0,1,682.154,215.157Zm-3.664,5.613a.5.5,0,0,1,.543.445c.005.059.614,5.925,3.028,7.713.338.252.656.478.95.688,1.345.962,2.234,1.6,2.321,2.518a2.432,2.432,0,0,1-.881,1.85l-.328.342c-1.41,1.479-1.994,2.09-2.077,2.877a.5.5,0,0,1-.493.44H681.5a.5.5,0,0,1-.44-.544c.114-1.125.813-1.856,2.344-3.461l.325-.342c.44-.459.638-.811.614-1.07-.045-.47-.868-1.058-1.91-1.8-.3-.214-.621-.441-.964-.7-2.769-2.05-3.4-8.154-3.425-8.413A.5.5,0,0,1,678.49,220.77Zm-15.015-3.507.028,0c6.578.617,8.946-2.077,8.969-2.1a.661.661,0,0,1,1.038.82l-.031.036c-.1.12-2.338,2.661-8.091,2.661-.63,0-1.3-.03-2.011-.1a.662.662,0,0,1,.1-1.32Zm9.7,7.723a.662.662,0,0,1-.561.311h0a.653.653,0,0,1-.35-.1,5.79,5.79,0,0,0-6.083-.015.661.661,0,0,1-.767-1.078l.02-.014a7.058,7.058,0,0,1,7.53-.015A.662.662,0,0,1,673.174,224.986Zm-17.045,1.36c-.74-1.778,1.4-5.135,1.4-5.135a15.945,15.945,0,0,1,1.272,3.676C658.961,226.244,656.869,228.124,656.129,226.346Zm4.147,3.148c-.891-.855.808-4.3.808-4.3a16.318,16.318,0,0,1,1.026,3.3C662.039,229.072,661.168,230.349,660.277,229.494Zm1.6,4.308c-.088-.9,2.8-1.923,6.451-2.279s6.681.086,6.769.988-2.8,1.923-6.451,2.279S661.97,234.7,661.882,233.8Zm19.211,23.316a.5.5,0,0,1-.688.137,4.62,4.62,0,0,0-4.249-.483,7.026,7.026,0,0,0-2.033,1.1.5.5,0,0,1-.639-.76c.038-.031,3.8-3.135,7.472-.681A.5.5,0,0,1,681.092,257.119Zm6.4-12.358a2.782,2.782,0,0,1-2.053-.692,1.49,1.49,0,0,0-1.208-.349c-.586.152-1.205.911-1.893,2.318a2.166,2.166,0,0,1-2,1.27h0a3.107,3.107,0,0,1-2.692-1.781.679.679,0,0,0-.435-.378,4.35,4.35,0,0,0-2.562.63.5.5,0,1,1-.492-.862c.2-.116,2.031-1.126,3.346-.719a1.675,1.675,0,0,1,1.035.89,2.127,2.127,0,0,0,1.8,1.223,1.174,1.174,0,0,0,1.108-.711c.845-1.73,1.627-2.606,2.534-2.842a2.4,2.4,0,0,1,2.024.493c.776.539,1.139.566,1.287.538.168-.035.286-.207.46-.487a1.5,1.5,0,0,1,.813-.759.5.5,0,1,1,.269.955,1.534,1.534,0,0,0-.241.329A1.744,1.744,0,0,1,687.493,244.761Z" transform="translate(-498.64 -124.679)" fill="url(#a)"/><path d="M653.616,310.146c.012-.069.023-.138.035-.207C653.639,310.008,653.628,310.077,653.616,310.146Z" transform="translate(-507.34 -182.739)" fill="#fff"/><path d="M653.616,310.146c.012-.069.023-.138.035-.207C653.639,310.008,653.628,310.077,653.616,310.146Z" transform="translate(-507.34 -182.739)" fill="url(#b)"/><path d="M651.5,320.678c.021-.091.04-.184.06-.276C651.536,320.494,651.517,320.586,651.5,320.678Z" transform="translate(-506.17 -188.513)" fill="#fff"/><path d="M651.5,320.678c.021-.091.04-.184.06-.276C651.536,320.494,651.517,320.586,651.5,320.678Z" transform="translate(-506.17 -188.513)" fill="url(#c)"/><path d="M652.623,315.438c.015-.075.03-.15.044-.225C652.653,315.288,652.638,315.363,652.623,315.438Z" transform="translate(-506.792 -185.65)" fill="#fff"/><path d="M652.623,315.438c.015-.075.03-.15.044-.225C652.653,315.288,652.638,315.363,652.623,315.438Z" transform="translate(-506.792 -185.65)" fill="url(#d)"/><path d="M643.679,342.463h0a20.725,20.725,0,0,0-1.062,5.345h0A20.7,20.7,0,0,1,643.679,342.463Z" transform="translate(-501.27 -200.688)" fill="#c1cf95"/><path d="M643.679,342.463h0a20.725,20.725,0,0,0-1.062,5.345h0A20.7,20.7,0,0,1,643.679,342.463Z" transform="translate(-501.27 -200.688)" fill="url(#e)"/><path d="M642.618,356.607h0a10.682,10.682,0,0,0,.707,3.463h0A10.7,10.7,0,0,1,642.618,356.607Z" transform="translate(-501.27 -208.493)" fill="#c1cf95"/><path d="M642.618,356.607h0a10.682,10.682,0,0,0,.707,3.463h0A10.7,10.7,0,0,1,642.618,356.607Z" transform="translate(-501.27 -208.493)" fill="url(#f)"/><path d="M694.611,396.857l.006,0c.213.016.426.029.64.039l0,0C695.043,396.887,694.827,396.873,694.611,396.857Z" transform="translate(-529.963 -230.705)" fill="#c1cf95"/><path d="M694.611,396.857l.006,0c.213.016.426.029.64.039l0,0C695.043,396.887,694.827,396.873,694.611,396.857Z" transform="translate(-529.963 -230.705)" fill="url(#g)"/><path d="M647.809,325.54q-.027.116-.056.233c-.515,2.109-1.354,4.245-2.078,6.4h0c.724-2.157,1.564-4.294,2.079-6.4C647.774,325.694,647.791,325.616,647.809,325.54Z" transform="translate(-502.958 -191.348)" fill="#c1cf95"/><path d="M647.809,325.54q-.027.116-.056.233c-.515,2.109-1.354,4.245-2.078,6.4h0c.724-2.157,1.564-4.294,2.079-6.4C647.774,325.694,647.791,325.616,647.809,325.54Z" transform="translate(-502.958 -191.348)" fill="url(#h)"/><path d="M692.268,335.2a.489.489,0,0,1,.332.542c5.833.778,11.049-2.135,15.1-6.254a127.756,127.756,0,0,0-28.339-4.582C681.7,329.749,686.03,333.211,692.268,335.2Z" transform="translate(-521.544 -191)" fill="#c1cf95"/><path d="M692.268,335.2a.489.489,0,0,1,.332.542c5.833.778,11.049-2.135,15.1-6.254a127.756,127.756,0,0,0-28.339-4.582C681.7,329.749,686.03,333.211,692.268,335.2Z" transform="translate(-521.544 -191)" fill="url(#i)"/><path d="M650.255,372.337a17.609,17.609,0,0,1-5.146-5.95l0,0a17.608,17.608,0,0,0,5.146,5.95,42.5,42.5,0,0,0,9.786,5.929l0,0A42.528,42.528,0,0,1,650.255,372.337Z" transform="translate(-502.643 -213.889)" fill="#c1cf95"/><path d="M650.255,372.337a17.609,17.609,0,0,1-5.146-5.95l0,0a17.608,17.608,0,0,0,5.146,5.95,42.5,42.5,0,0,0,9.786,5.929l0,0A42.528,42.528,0,0,1,650.255,372.337Z" transform="translate(-502.643 -213.889)" fill="url(#j)"/><path d="M730.966,249.475c.343.257.665.484.964.7,1.042.745,1.865,1.333,1.91,1.8.024.259-.173.61-.614,1.07l-.325.342c-1.531,1.6-2.23,2.337-2.344,3.461a.5.5,0,0,0,.44.544h.052a.5.5,0,0,0,.493-.44c.082-.787.667-1.4,2.077-2.877l.328-.342a2.431,2.431,0,0,0,.881-1.85c-.087-.92-.976-1.555-2.321-2.518-.294-.21-.612-.436-.95-.688-2.413-1.788-3.022-7.654-3.028-7.713a.5.5,0,0,0-.988.1C727.568,241.321,728.2,247.425,730.966,249.475Z" transform="translate(-548.134 -144.428)" fill="#6f262c"/><path d="M745.8,232.181l.221,0a.662.662,0,0,0-.006-1.322h-.006a14.289,14.289,0,0,1-6.876-1.411A5.952,5.952,0,0,1,737.242,228a.662.662,0,0,0-1.073.772C736.27,228.917,738.686,232.181,745.8,232.181Z" transform="translate(-552.835 -137.382)" fill="#6f262c"/><path d="M694.054,231.118c.713.067,1.381.1,2.01.1,5.754,0,7.987-2.541,8.091-2.661q.016-.017.031-.036a.661.661,0,0,0-1.038-.82c-.023.026-2.391,2.721-8.969,2.1l-.028,0a.662.662,0,0,0-.1,1.32Z" transform="translate(-529.317 -137.216)" fill="#6f262c"/><path d="M645.491,251.942c-1.079-.581-1.275-.784-1.107-1.152s.365-.573.583-.612c.389-.069.879.331,1.022.476a.5.5,0,0,0,.709-.692,2.412,2.412,0,0,0-1.9-.76,1.829,1.829,0,0,0-1.322,1.174c-.595,1.292.638,1.955,1.537,2.44,1.218.656,1.715,1.032,1.367,1.877a7.365,7.365,0,0,1-1.34,2.01c-.821.961-1.67,1.954-.458,3.573a.5.5,0,0,0,.4.2h0a.5.5,0,0,0,.4-.794c-.736-.983-.4-1.378.418-2.334a8.29,8.29,0,0,0,1.5-2.276C648.031,253.31,646.5,252.486,645.491,251.942Z" transform="translate(-501.66 -149.218)" fill="#6f262c"/><path d="M642.778,172.118c4.869-5.479,14.052-6.662,20.891-6.948a31.58,31.58,0,0,1,23.447,9.462,22.3,22.3,0,0,0,8.523-.123,4.414,4.414,0,0,0,2.843-1.946l.6.327a5.057,5.057,0,0,1-3.257,2.276,21.645,21.645,0,0,1-7.982.232,30.06,30.06,0,0,1,1.959,2.36,27.647,27.647,0,0,1,3.145,5.615,6.914,6.914,0,0,0,4.332-1.432c5.544-4.265,18.192-17.222,4.783-23.276s-18.717,2.479-21.118,3.575-9.97-7.1-21.423-8.131-28.447,15.872-24.464,29.921c0,0-.911,6.23,3.781,9.438h0S637.617,177.924,642.778,172.118ZM687.1,169.3c.46.358,6.139,1.876,10.136.485a5.412,5.412,0,0,0,3.756-3.951c.4-1.648.2-2.847-.584-3.466-1.148-.906-3.276-.492-4.766.276-1.446.744-2.351,1.8-2.308,2.7l-.684.033c-.056-1.179.97-2.458,2.679-3.338,1.735-.893,4.11-1.3,5.5-.2.706.556,1.422,1.73.826,4.166-.653,2.679-2.739,4.366-6.027,4.883a19.389,19.389,0,0,1-7.423-.474,3.8,3.8,0,0,1-1.65-.7l.582-.359A.2.2,0,0,0,687.1,169.3Z" transform="translate(-496.765 -96.718)" fill="#2b220b"/><path d="M648.761,210.327c.485,3.287,1.636,10.606,4.306,8.533s4.819-6.74,2.851-10.431-2.958-12.893,3.548-14.268,8.415,3.175,12.075.673,4.434-5.97,10.982-3.655c4.982,1.762,10.742,5.859,15.655,5.843a27.637,27.637,0,0,0-3.145-5.615,30.1,30.1,0,0,0-1.959-2.36c-7.01-.826-15.478-3.584-19.879-6.09-7.147-4.072-15.884,3.457-15.971,3.533l-.449-.511a24.125,24.125,0,0,1,5.475-3.433c4.24-1.91,8.142-1.974,11.284-.184,4.185,2.383,12.086,5,18.812,5.919a31.58,31.58,0,0,0-23.447-9.462c-6.839.286-16.022,1.469-20.891,6.948-5.161,5.806-3.939,21.349-3.939,21.349h0S648.276,207.04,648.761,210.327Zm.72-24.779.54.415c-.06.078-5.931,7.9-2.007,14.319l-.581.356C643.263,193.812,649.418,185.628,649.481,185.549Z" transform="translate(-501.997 -110.366)" fill="#2b220b"/><path d="M664.116,267.559l.818,1.274,3.409-3.505-.748-1.956Z" transform="translate(-513.134 -157.041)" fill="#6f262c"/><path d="M733.58,289.436a.5.5,0,0,0-.612-.343,1.5,1.5,0,0,0-.813.759c-.174.28-.292.452-.46.487-.148.028-.511,0-1.287-.538a2.4,2.4,0,0,0-2.024-.493c-.907.236-1.689,1.113-2.534,2.842a1.174,1.174,0,0,1-1.108.711,2.127,2.127,0,0,1-1.8-1.223,1.675,1.675,0,0,0-1.035-.89c-1.315-.407-3.142.6-3.346.719a.5.5,0,1,0,.491.862,4.35,4.35,0,0,1,2.562-.63.679.679,0,0,1,.435.378,3.107,3.107,0,0,0,2.692,1.781h0a2.166,2.166,0,0,0,2-1.27c.688-1.407,1.307-2.165,1.893-2.318a1.49,1.49,0,0,1,1.208.349,2.782,2.782,0,0,0,2.053.692,1.743,1.743,0,0,0,1.1-.934,1.535,1.535,0,0,1,.24-.329A.5.5,0,0,0,733.58,289.436Z" transform="translate(-543.041 -171.225)" fill="#6f262c"/><path d="M679.844,241.508s-2.144,3.356-1.4,5.135,2.832-.1,2.675-1.458A15.945,15.945,0,0,0,679.844,241.508Z" transform="translate(-520.954 -144.975)" fill="#fbfdf9"/><path d="M688.377,250.4s-1.7,3.442-.808,4.3,1.762-.423,1.834-1A16.319,16.319,0,0,0,688.377,250.4Z" transform="translate(-525.935 -149.884)" fill="#fbfdf9"/><path d="M707.7,349.428a.44.44,0,0,0,.059.009v0a.5.5,0,0,0,.473-.345.49.49,0,0,0,.009-.081c-.161-.022-.321-.041-.483-.068C707.755,348.951,707.729,349.126,707.7,349.428Z" transform="translate(-537.185 -204.263)" fill="#6f262c"/><rect transform="translate(170.57 144.678)" fill="#6f262c"/><path d="M675.478,313.211c.189.008.377.015.566.024-.2-.407-.384-.82-.552-1.247a17.774,17.774,0,0,1-1.241-7.678.492.492,0,0,0-.9-.331c.256.166.406.275.406.275A18.29,18.29,0,0,0,675.478,313.211Z" transform="translate(-518.231 -179.327)" fill="#6f262c"/><path d="M691.57,335.173c-6.237-1.991-10.57-5.453-12.907-10.294-.189-.009-.377-.016-.566-.024,1.868,4,5.665,8.348,13.321,10.792h0l0,0v0c.162.027.322.046.483.068A.489.489,0,0,0,691.57,335.173Z" transform="translate(-520.849 -190.971)" fill="#6f262c"/><path d="M704.688,265.359c-.088-.9-3.119-1.345-6.769-.988s-6.539,1.376-6.451,2.279,3.119,1.345,6.769.988S704.776,266.261,704.688,265.359Z" transform="translate(-528.226 -157.524)" fill="#e73151"/><path d="M747.756,263.246c-.021.684,1.862,1.3,4.206,1.367s4.26-.427,4.281-1.111-1.862-1.3-4.206-1.367S747.776,262.561,747.756,263.246Z" transform="translate(-559.29 -156.355)" fill="#e73151"/><path d="M717.146,319.629a.5.5,0,0,0,.639.76,7.026,7.026,0,0,1,2.033-1.1,4.62,4.62,0,0,1,4.249.483.5.5,0,1,0,.551-.825C720.943,316.494,717.184,319.6,717.146,319.629Z" transform="translate(-542.301 -187.19)" fill="#6f262c"/><path d="M629.821,197.148a.338.338,0,0,0,.1-.017h0a.33.33,0,0,0,.219-.413c-3.494-11.432,6.35-21.8,6.45-21.9a.33.33,0,1,0-.475-.459c-.1.106-10.217,10.745-6.608,22.556A.331.331,0,0,0,629.821,197.148Z" transform="translate(-493.605 -107.862)" fill="#1e2481"/><path d="M749.437,245.164a7.056,7.056,0,0,0-7.53.015.662.662,0,0,0,.745,1.093,5.735,5.735,0,0,1,6.085.014.662.662,0,0,0,.35.1h0a.661.661,0,0,0,.35-1.222Z" transform="translate(-555.909 -146.397)" fill="#6f262c"/><path d="M699.031,246.581l-.02.014a.661.661,0,0,0,.767,1.078,5.79,5.79,0,0,1,6.083.015.653.653,0,0,0,.35.1h0a.661.661,0,0,0,.35-1.222A7.058,7.058,0,0,0,699.031,246.581Z" transform="translate(-532.237 -147.171)" fill="#6f262c"/><path d="M652.722,312.558q.213-1.075.4-2.156Q652.936,311.483,652.722,312.558Z" transform="translate(-506.847 -182.995)" fill="#fff"/><path d="M652.722,312.558q.213-1.075.4-2.156Q652.936,311.483,652.722,312.558Z" transform="translate(-506.847 -182.995)" fill="url(#k)"/><path d="M651.631,317.816q.233-1.046.444-2.1Q651.865,316.769,651.631,317.816Z" transform="translate(-506.245 -185.927)" fill="#fff"/><path d="M651.631,317.816q.233-1.046.444-2.1Q651.865,316.769,651.631,317.816Z" transform="translate(-506.245 -185.927)" fill="url(#l)"/><path d="M653.694,307.267q.185-1.082.339-2.169Q653.879,306.185,653.694,307.267Z" transform="translate(-507.383 -180.068)" fill="#fff"/><path d="M653.694,307.267q.185-1.082.339-2.169Q653.879,306.185,653.694,307.267Z" transform="translate(-507.383 -180.068)" fill="url(#m)"/><path d="M650.973,321.017c-.136.607-.279,1.212-.425,1.816h0Q650.767,321.927,650.973,321.017Z" transform="translate(-505.647 -188.853)" fill="#fff"/><path d="M650.973,321.017c-.136.607-.279,1.212-.425,1.816h0Q650.767,321.927,650.973,321.017Z" transform="translate(-505.647 -188.853)" fill="url(#n)"/><path d="M650.488,325.069h0c-.017.07-.033.141-.05.211C650.454,325.21,650.471,325.139,650.488,325.069Z" transform="translate(-505.586 -191.089)" fill="#c1cf95"/><path d="M650.488,325.069h0c-.017.07-.033.141-.05.211C650.454,325.21,650.471,325.139,650.488,325.069Z" transform="translate(-505.586 -191.089)" fill="url(#o)"/><path d="M708.782,358.238c.234.411.525.91.854,1.477l.008.008c-.332-.572-.625-1.074-.86-1.488-1.606-2.83-1.363-6.829-1.219-8.207h0C707.42,351.4,707.175,355.4,708.782,358.238Z" transform="translate(-537.053 -204.861)" fill="#c1cf95"/><path d="M708.782,358.238c.234.411.525.91.854,1.477l.008.008c-.332-.572-.625-1.074-.86-1.488-1.606-2.83-1.363-6.829-1.219-8.207h0C707.42,351.4,707.175,355.4,708.782,358.238Z" transform="translate(-537.053 -204.861)" fill="url(#p)"/><path d="M662.338,311.091c-.135-.3-.26-.593-.371-.879a18.423,18.423,0,0,1-1.286-8.112.483.483,0,0,1,.086-.217c-1.488-.967-6.682-3.945-8.453.275,0,.035-.011.069-.016.1q-.154,1.087-.339,2.169c-.012.069-.023.138-.035.207q-.187,1.081-.4,2.156c-.015.075-.029.15-.044.225q-.211,1.053-.445,2.1c-.021.092-.04.184-.06.276q-.2.911-.424,1.816C654.461,310.978,658.4,310.941,662.338,311.091Z" transform="translate(-505.647 -177.23)" fill="#fff"/><path d="M662.338,311.091c-.135-.3-.26-.593-.371-.879a18.423,18.423,0,0,1-1.286-8.112.483.483,0,0,1,.086-.217c-1.488-.967-6.682-3.945-8.453.275,0,.035-.011.069-.016.1q-.154,1.087-.339,2.169c-.012.069-.023.138-.035.207q-.187,1.081-.4,2.156c-.015.075-.029.15-.044.225q-.211,1.053-.445,2.1c-.021.092-.04.184-.06.276q-.2.911-.424,1.816C654.461,310.978,658.4,310.941,662.338,311.091Z" transform="translate(-505.647 -177.23)" fill="url(#q)"/><path d="M657.962,324.694c-3.94-.15-7.877-.112-11.788.119-.017.07-.034.141-.051.211s-.035.154-.054.23c-.515,2.11-1.355,4.247-2.079,6.4l3.493,1.576-.408.9-3.393-1.531a20.7,20.7,0,0,0-1.062,5.345h1.4v.992h-1.4a10.7,10.7,0,0,0,.707,3.461l1.916-1.3.557.82-2.064,1.4a17.606,17.606,0,0,0,5.146,5.95,42.527,42.527,0,0,0,9.78,5.927c-.229-.353-.458-.706-.669-1.071-.487-.94-.684-2.413.8-1.851a10.419,10.419,0,0,1,2.068,1.255c1.681,1.143,3.294,2.361,5.029,3.429l.03.015c.215.016.432.03.648.039a.548.548,0,0,0,.026-.468,2.948,2.948,0,0,0-.787-1.07q-2.213-2.334-4.191-4.862-.967-1.237-1.875-2.518c-.326-.459-1.51-1.668-1.39-2.245.261-1.27,3.949,1.406,4.5,1.774,1.762,1.182,3.339,2.738,5.155,3.824.321-.272-3.1-3.986-3.544-4.5-.719-.846-1.438-1.694-2.086-2.592-.293-.4-1.119-1.48-.227-1.621.427-.067,1.023.392,1.348.618q4.572,3.184,8.912,6.667c.1-.532-.315-.973-.63-1.365q-.7-.858-1.343-1.751a40.424,40.424,0,0,1-2.386-3.7,1.566,1.566,0,0,1-.276-.806c.057-1.417,2.256.063,2.728.4a28.84,28.84,0,0,1,3.355,2.883c-.33-.567-.621-1.066-.854-1.477-1.608-2.833-1.363-6.836-1.218-8.211a.437.437,0,0,1-.09-.014C663.5,333.368,659.713,328.566,657.962,324.694Z" transform="translate(-501.269 -190.83)" fill="#c1cf95"/><path d="M657.962,324.694c-3.94-.15-7.877-.112-11.788.119-.017.07-.034.141-.051.211s-.035.154-.054.23c-.515,2.11-1.355,4.247-2.079,6.4l3.493,1.576-.408.9-3.393-1.531a20.7,20.7,0,0,0-1.062,5.345h1.4v.992h-1.4a10.7,10.7,0,0,0,.707,3.461l1.916-1.3.557.82-2.064,1.4a17.606,17.606,0,0,0,5.146,5.95,42.527,42.527,0,0,0,9.78,5.927c-.229-.353-.458-.706-.669-1.071-.487-.94-.684-2.413.8-1.851a10.419,10.419,0,0,1,2.068,1.255c1.681,1.143,3.294,2.361,5.029,3.429l.03.015c.215.016.432.03.648.039a.548.548,0,0,0,.026-.468,2.948,2.948,0,0,0-.787-1.07q-2.213-2.334-4.191-4.862-.967-1.237-1.875-2.518c-.326-.459-1.51-1.668-1.39-2.245.261-1.27,3.949,1.406,4.5,1.774,1.762,1.182,3.339,2.738,5.155,3.824.321-.272-3.1-3.986-3.544-4.5-.719-.846-1.438-1.694-2.086-2.592-.293-.4-1.119-1.48-.227-1.621.427-.067,1.023.392,1.348.618q4.572,3.184,8.912,6.667c.1-.532-.315-.973-.63-1.365q-.7-.858-1.343-1.751a40.424,40.424,0,0,1-2.386-3.7,1.566,1.566,0,0,1-.276-.806c.057-1.417,2.256.063,2.728.4a28.84,28.84,0,0,1,3.355,2.883c-.33-.567-.621-1.066-.854-1.477-1.608-2.833-1.363-6.836-1.218-8.211a.437.437,0,0,1-.09-.014C663.5,333.368,659.713,328.566,657.962,324.694Z" transform="translate(-501.269 -190.83)" fill="url(#r)"/><path d="M707.754,348.941h0s-.027.177-.06.487h0c.032-.3.058-.477.06-.487Z" transform="translate(-537.183 -204.263)" fill="#6f262c"/><path d="M707.754,348.941h0s-.027.177-.06.487h0c.032-.3.058-.477.06-.487Z" transform="translate(-537.183 -204.263)" fill="url(#s)"/><path d="M674.394,312.582c.112.286.236.58.371.879l.555.023a18.289,18.289,0,0,1-1.72-8.957s-.15-.108-.406-.275a.483.483,0,0,0-.086.217A18.422,18.422,0,0,0,674.394,312.582Z" transform="translate(-518.073 -179.6)" fill="#6f262c"/><path d="M674.394,312.582c.112.286.236.58.371.879l.555.023a18.289,18.289,0,0,1-1.72-8.957s-.15-.108-.406-.275a.483.483,0,0,0-.086.217A18.422,18.422,0,0,0,674.394,312.582Z" transform="translate(-518.073 -179.6)" fill="url(#t)"/><path d="M707.829,348.935l0,0h0Z" transform="translate(-537.257 -204.26)" fill="#6f262c"/><path d="M707.829,348.935l0,0h0Z" transform="translate(-537.257 -204.26)" fill="url(#u)"/><path d="M690.585,336.091a.437.437,0,0,0,.091.014c.032-.309.06-.487.06-.487-7.657-2.444-11.453-6.795-13.321-10.792l-.555-.023C678.611,328.677,682.4,333.479,690.585,336.091Z" transform="translate(-520.166 -190.942)" fill="#6f262c"/><path d="M690.585,336.091a.437.437,0,0,0,.091.014c.032-.309.06-.487.06-.487-7.657-2.444-11.453-6.795-13.321-10.792l-.555-.023C678.611,328.677,682.4,333.479,690.585,336.091Z" transform="translate(-520.166 -190.942)" fill="url(#v)"/><path d="M760.68,197.954a5.057,5.057,0,0,0,3.257-2.276l-.6-.327a4.413,4.413,0,0,1-2.843,1.946,22.3,22.3,0,0,1-8.523.123q.371.377.728.766A21.644,21.644,0,0,0,760.68,197.954Z" transform="translate(-561.615 -119.504)" fill="#403823"/><path d="M689.341,185.162c-3.142-1.79-7.044-1.725-11.284.184a24.125,24.125,0,0,0-5.475,3.433l.449.511c.088-.077,8.824-7.606,15.971-3.533,4.4,2.506,12.869,5.264,19.879,6.09q-.357-.389-.728-.766C701.427,190.164,693.526,187.545,689.341,185.162Z" transform="translate(-517.803 -113.165)" fill="#403823"/><path d="M752.382,179.15a19.39,19.39,0,0,0,7.423.474c3.287-.517,5.374-2.2,6.027-4.883.6-2.435-.121-3.609-.826-4.166-1.394-1.1-3.769-.689-5.5.2-1.708.88-2.735,2.159-2.679,3.338l.684-.033c-.043-.895.862-1.953,2.308-2.7,1.489-.768,3.617-1.182,4.766-.276.785.619.988,1.818.584,3.466a5.413,5.413,0,0,1-3.756,3.951c-4,1.391-9.676-.127-10.136-.485a.193.193,0,0,1,.042.05l-.583.359A3.8,3.8,0,0,0,752.382,179.15Z" transform="translate(-560.932 -105.465)" fill="#403823"/><path d="M650.528,208.6c-3.924-6.424,1.948-14.241,2.007-14.319l-.54-.415c-.062.079-6.217,8.263-2.048,15.091Z" transform="translate(-504.516 -118.684)" fill="#403823"/><path d="M696.091,373.43a4.812,4.812,0,0,1-3.326,5.936,20.387,20.387,0,0,1-6.438.76c-.108.143-.346.134-.64-.039a23.643,23.643,0,0,1-7.256-1.774c.4.613.817,1.212,1.269,1.786.8.017,1.554.214,1.214.968a1.574,1.574,0,0,1-.192.249q.571.635,1.186,1.23c.444.478.877.965,1.306,1.456.365-.055.729-.115,1.095-.168.392-.056,1.13-.2,1.482.051.735.526-.488,1.117-.928,1.347-.142.074-.285.143-.428.214.594.724,1.174,1.458,1.735,2.208.982.005,1.767.171,1.619.72a1.31,1.31,0,0,1-.63.606,42.477,42.477,0,0,0,4.535,5.058,47.132,47.132,0,0,0,6.822,5.038l11.712-10.215c-.213-1.751-.686-5.35-2.591-7.788-2.51-3.214-2.743-4.052-3.147-8.5s-1.23-7.749-2.938-5.238,1.519,8.735-.984,7.35c-2.678-1.48-4.755-3.761-6.945-5.889.588,1.013,1.3,2.248,2.061,3.634A4.81,4.81,0,0,1,696.091,373.43Z" transform="translate(-521.031 -213.932)" fill="#f59d9b"/><path d="M685.677,394.669a23.634,23.634,0,0,1-7.253-1.776l0,0a23.645,23.645,0,0,0,7.256,1.774Z" transform="translate(-521.03 -228.518)" fill="#f59d9b"/><path d="M702.492,392.444a20.381,20.381,0,0,1-6.437.76l0,0a20.388,20.388,0,0,0,6.438-.76,4.793,4.793,0,0,0,2.892-2.279A4.8,4.8,0,0,1,702.492,392.444Z" transform="translate(-530.758 -227.013)" fill="#f59d9b"/><path d="M714.386,375.293a4.812,4.812,0,0,1-.026,4.653,4.81,4.81,0,0,0,.027-4.655c-.758-1.386-1.473-2.622-2.061-3.634l-.008-.008C712.909,372.663,713.626,373.9,714.386,375.293Z" transform="translate(-539.736 -216.794)" fill="#f59d9b"/><path d="M679.354,387.472a10.412,10.412,0,0,0-2.068-1.255c-1.479-.561-1.282.911-.8,1.851.211.365.44.718.669,1.071a23.634,23.634,0,0,0,7.253,1.776l-.03-.015C682.648,389.833,681.035,388.614,679.354,387.472Z" transform="translate(-519.766 -224.765)" fill="#f59d9b"/><path d="M687.129,363.582a1.567,1.567,0,0,0,.276.806,40.433,40.433,0,0,0,2.386,3.7q.647.892,1.343,1.751c.315.392.731.833.63,1.365q-4.34-3.483-8.912-6.667c-.325-.226-.921-.685-1.348-.618-.892.141-.066,1.216.227,1.621.648.9,1.368,1.745,2.086,2.592.44.518,3.865,4.233,3.544,4.5-1.816-1.086-3.392-2.641-5.155-3.824-.549-.368-4.237-3.045-4.5-1.774-.12.577,1.064,1.786,1.39,2.245q.907,1.281,1.875,2.518,1.977,2.528,4.191,4.862a2.946,2.946,0,0,1,.787,1.07.548.548,0,0,1-.026.468,20.381,20.381,0,0,0,6.437-.76,4.808,4.808,0,0,0,2.916-6.93c-.76-1.391-1.477-2.63-2.067-3.644a28.841,28.841,0,0,0-3.355-2.883C689.385,363.645,687.185,362.165,687.129,363.582Z" transform="translate(-520.629 -212.009)" fill="#f59d9b"/><path d="M651.038,398.3a24.62,24.62,0,0,0-3.2.293c-2.108.267-4.211.953-6.321,1.111-.165-.386,4.56-2.174,5.186-2.441.874-.373,1.748-.748,2.6-1.17q-.6-.731-1.22-1.445-4.958.753-9.856,1.8c.147-.522.714-.731,1.173-.939q1.007-.455,1.985-.964a40.334,40.334,0,0,0,3.789-2.239,1.549,1.549,0,0,0,.416-.347q-.532-.591-1.022-1.217a8.762,8.762,0,0,0-1.4.1c-4.452.685-8.6,3.05-13.148,3.236-2.857.117,2.814-4,2.412-7.012s-2.62-.43-4.971,3.367-2.936,4.441-6.623,6.191c-3.067,1.456-5.216,4.932-6.053,6.183l6.7,13.948a47.044,47.044,0,0,0,7.808-1.394,42.472,42.472,0,0,0,7.741-3.21,63.1,63.1,0,0,1,6.156-2.688,24.175,24.175,0,0,0,6.088-2.891c.856-.623,1.691-1.85.117-2.014a10.392,10.392,0,0,0-2.411.2c-2.014.268-4,.636-6.032.814-.594.052-.838-.246-.444-.685a2.958,2.958,0,0,1,1.184-.6q3.021-1.1,5.924-2.471,1.418-.673,2.8-1.41c.314-.167,1.067-.45,1.618-.778-.322-.421-.643-.842-.949-1.275Z" transform="translate(-485.906 -224.574)" fill="#f59d9b"/><path d="M682.476,397.859c.341-.754-.414-.951-1.214-.968q.491.624,1.022,1.217A1.57,1.57,0,0,0,682.476,397.859Z" transform="translate(-522.597 -230.724)" fill="#f59d9b"/><path d="M690.753,406.513c.44-.231,1.663-.822.928-1.347-.352-.252-1.091-.108-1.482-.051-.366.053-.729.113-1.095.168q.622.713,1.22,1.445C690.467,406.657,690.611,406.587,690.753,406.513Z" transform="translate(-526.924 -235.211)" fill="#f59d9b"/><path d="M697.319,414.475c.147-.55-.637-.715-1.619-.72l.04.052c.306.433.627.854.949,1.275A1.31,1.31,0,0,0,697.319,414.475Z" transform="translate(-530.564 -240.03)" fill="#f59d9b"/><path d="M778.456,333.194l-11.619,4.441q.693.263,1.382.534l10.591-4.048Z" transform="translate(-569.82 -195.572)" fill="#f0f9fe"/><path d="M737.114,348.2l.354.927,14.346-5.484q-.689-.271-1.382-.534Z" transform="translate(-553.417 -201.042)" fill="#f0f9fe"/><path d="M603.336,321.469l-.408.9,5.916,2.669q.847-.168,1.7-.322Z" transform="translate(-479.367 -189.102)" fill="#f0f9fe"/><path d="M617.828,328.725q-.85.155-1.7.322l12.93,5.833q.149-.475.309-.949Z" transform="translate(-486.653 -193.106)" fill="#f0f9fe"/><path d="M645.3,340.346h0q-.159.473-.309.949h0Q645.137,340.82,645.3,340.346Z" transform="translate(-502.578 -199.52)" fill="#f0f9fe"/><path d="M648.79,341.922l-3.493-1.576q-.159.474-.308.949l3.393,1.531Z" transform="translate(-502.579 -199.519)" fill="#f0f9fe"/><path d="M613.636,364.335l-24.807,16.858.557.82,24.659-16.757c-.129-.264-.256-.53-.366-.8C613.664,364.413,613.651,364.374,613.636,364.335Z" transform="translate(-471.586 -212.756)" fill="#f0f9fe"/><path d="M644.239,364.449c-.015-.039-.028-.077-.043-.117h0c.015.039.027.078.043.117.11.274.237.54.366.8l0,0C644.476,364.988,644.349,364.723,644.239,364.449Z" transform="translate(-502.141 -212.756)" fill="#f0f9fe"/><path d="M646.114,361.427l-1.916,1.3c.015.039.028.078.043.116.11.275.237.54.366.8l2.064-1.4Z" transform="translate(-502.143 -211.153)" fill="#f0f9fe"/><rect width="0.992" height="26.453" transform="translate(186.205 157.708) rotate(-70.174)" fill="#f0f9fe"/><rect width="0.992" height="15.618" transform="translate(189.726 153.136) rotate(-84.21)" fill="#f0f9fe"/><path d="M623.247,354.393H607.523v.992h15.724Q623.227,354.888,623.247,354.393Z" transform="translate(-481.903 -207.271)" fill="#f0f9fe"/><path d="M642.606,354.393h0q-.02.5,0,.992h0Q642.586,354.888,642.606,354.393Z" transform="translate(-501.258 -207.271)" fill="#f0f9fe"/><path d="M644,354.393h-1.4q-.02.5,0,.992H644Z" transform="translate(-501.26 -207.271)" fill="#f0f9fe"/><path d="M722.384,426.168l-.1-.066-.792.69,42.5,43.469.945-.925-41.525-42.468,11.2-9.77c3.616,2.461,27.523,18.613,34.287,20.223l.245-1.031c-2.372-.251-6.473-2.136-11.544-5.271-11.062-6.838-15.762-9.892-15.762-9.892s.551.061,1.5.187c-4.79-3.131-8.3-5.529-8.4-5.6l-.422-.289-.523.457c.047.384.082.682.115.856Z" transform="translate(-544.79 -240.949)" fill="#929b74"/><path d="M723.359,426.73l11.723-9.426c-.034-.174-.068-.472-.115-.856l-11.712,10.215Z" transform="translate(-545.769 -241.516)" fill="#929b74"/><path d="M782.675,438.038c5.07,3.135,9.171,5.02,11.544,5.271l.061-.256c-4.458-1.061-17.241-9.08-25.872-14.72-.945-.127-1.5-.187-1.5-.187S771.614,431.2,782.675,438.038Z" transform="translate(-569.86 -247.971)" fill="#929b74"/><path d="M614.26,424.161l6.258,13.681c.224-.018.447-.048.671-.069l-6.7-13.948C614.4,423.963,614.32,424.083,614.26,424.161Z" transform="translate(-485.621 -245.586)" fill="#929b74"/><path d="M558.135,432.881l-1.38-.195c-10.371,3.814-22.412,8.079-22.591,8.142l.35.991,13.254-5.158Z" transform="translate(-441.418 -250.477)" fill="#929b74"/><path d="M580.556,560.117a4.588,4.588,0,0,0,1.359,3.439c5.25,5.106,1.509,21.753-5.278,34.1l1.16.637c6.992-12.718,10.908-29.978,5.041-35.681a3.271,3.271,0,0,1-.958-2.488c.008-2.643,2.077-6.6,5.986-11.454a81.169,81.169,0,0,1,6.08-6.7l-.917-.953C592.52,541.507,580.576,553.08,580.556,560.117Z" transform="translate(-464.858 -310.246)" fill="#929b74"/><path d="M783.581,615.138c-1.48,4.337-1.257,10.34.66,17.843a74.842,74.842,0,0,0,3.306,9.944l1.215-.52c-.073-.169-7.27-17.038-3.929-26.837,3.555-10.427-11.431-25.7-12.07-26.346l-.939.932C771.974,590.3,786.875,605.479,783.581,615.138Z" transform="translate(-572.571 -336.851)" fill="#929b74"/></g></g></svg>