<svg xmlns="http://www.w3.org/2000/svg" width="150.12" height="150.12" viewBox="0 0 150.12 150.12"><g transform="translate(-233 -349)"><g transform="translate(233 349)" fill="#fff" opacity="0.67"><path d="M 75.05991363525391 149.6198272705078 C 64.99417114257812 149.6198272705078 55.22977447509766 147.6485595703125 46.03799438476562 143.7607574462891 C 41.62011337280273 141.8921508789062 37.35903549194336 139.5792999267578 33.37311553955078 136.886474609375 C 29.42491340637207 134.2191162109375 25.71221351623535 131.1558532714844 22.33809280395508 127.7817306518555 C 18.96397399902344 124.4076156616211 15.90071392059326 120.6949157714844 13.23335361480713 116.746711730957 C 10.54053401947021 112.7607955932617 8.227673530578613 108.4997100830078 6.359073638916016 104.0818328857422 C 2.47127366065979 94.89005279541016 0.499993622303009 85.12565612792969 0.499993622303009 75.05991363525391 C 0.499993622303009 64.99417114257812 2.47127366065979 55.22977447509766 6.359073638916016 46.03799438476562 C 8.227673530578613 41.62011337280273 10.54053401947021 37.35903549194336 13.23335361480713 33.37311553955078 C 15.90071392059326 29.42491340637207 18.96397399902344 25.71221351623535 22.33809280395508 22.33809280395508 C 25.71221351623535 18.96397399902344 29.42491340637207 15.90071392059326 33.37311553955078 13.23335361480713 C 37.35903549194336 10.54053401947021 41.62011337280273 8.227673530578613 46.03799438476562 6.359073638916016 C 55.22977447509766 2.47127366065979 64.99417114257812 0.499993622303009 75.05991363525391 0.499993622303009 C 85.12565612792969 0.499993622303009 94.89005279541016 2.47127366065979 104.0818328857422 6.359073638916016 C 108.4997100830078 8.227673530578613 112.7607955932617 10.54053401947021 116.746711730957 13.23335361480713 C 120.6949157714844 15.90071392059326 124.4076156616211 18.96397399902344 127.7817306518555 22.33809280395508 C 131.1558532714844 25.71221351623535 134.2191162109375 29.42491340637207 136.886474609375 33.37311553955078 C 139.5792999267578 37.35903549194336 141.8921508789062 41.62011337280273 143.7607574462891 46.03799438476562 C 147.6485595703125 55.22977447509766 149.6198272705078 64.99417114257812 149.6198272705078 75.05991363525391 C 149.6198272705078 85.12565612792969 147.6485595703125 94.89005279541016 143.7607574462891 104.0818328857422 C 141.8921508789062 108.4997100830078 139.5792999267578 112.7607955932617 136.886474609375 116.746711730957 C 134.2191162109375 120.6949157714844 131.1558532714844 124.4076156616211 127.7817306518555 127.7817306518555 C 124.4076156616211 131.1558532714844 120.6949157714844 134.2191162109375 116.746711730957 136.886474609375 C 112.7607955932617 139.5792999267578 108.4997100830078 141.8921508789062 104.0818328857422 143.7607574462891 C 94.89005279541016 147.6485595703125 85.12565612792969 149.6198272705078 75.05991363525391 149.6198272705078 Z" stroke="none"/><path d="M 75.05991363525391 1 C 65.06145477294922 1 55.36259460449219 2.957992553710938 46.23274993896484 6.819580078125 C 41.84461212158203 8.675613403320312 37.61217498779297 10.97291564941406 33.65301513671875 13.64767456054688 C 29.73119354248047 16.29719543457031 26.04325103759766 19.34002685546875 22.691650390625 22.691650390625 C 19.34002685546875 26.04325103759766 16.29719543457031 29.73119354248047 13.64767456054688 33.65301513671875 C 10.97291564941406 37.61217498779297 8.675613403320312 41.84461212158203 6.819580078125 46.23274993896484 C 2.957992553710938 55.36259460449219 1 65.06145477294922 1 75.05991363525391 C 1 85.05837249755859 2.957992553710938 94.75723266601562 6.819580078125 103.8870697021484 C 8.675613403320312 108.2752151489258 10.97291564941406 112.5076522827148 13.64767456054688 116.4668121337891 C 16.29719543457031 120.3886337280273 19.34002685546875 124.0765762329102 22.691650390625 127.4281768798828 C 26.04325103759766 130.77978515625 29.73119354248047 133.8226318359375 33.65301513671875 136.4721527099609 C 37.61217498779297 139.1469116210938 41.84461212158203 141.4442138671875 46.23274993896484 143.3002471923828 C 55.36259460449219 147.1618347167969 65.06145477294922 149.1198272705078 75.05991363525391 149.1198272705078 C 85.05837249755859 149.1198272705078 94.75723266601562 147.1618347167969 103.8870697021484 143.3002471923828 C 108.2752151489258 141.4442138671875 112.5076522827148 139.1469116210938 116.4668121337891 136.4721527099609 C 120.3886337280273 133.8226318359375 124.0765762329102 130.77978515625 127.4281768798828 127.4281768798828 C 130.77978515625 124.0765762329102 133.8226318359375 120.3886337280273 136.4721527099609 116.4668121337891 C 139.1469116210938 112.5076522827148 141.4442138671875 108.2752151489258 143.3002471923828 103.8870697021484 C 147.1618347167969 94.75723266601562 149.1198272705078 85.05837249755859 149.1198272705078 75.05991363525391 C 149.1198272705078 65.06145477294922 147.1618347167969 55.36259460449219 143.3002471923828 46.23274993896484 C 141.4442138671875 41.84461212158203 139.1469116210938 37.61217498779297 136.4721527099609 33.65301513671875 C 133.8226318359375 29.73119354248047 130.77978515625 26.04325103759766 127.4281768798828 22.691650390625 C 124.0765762329102 19.34002685546875 120.3886337280273 16.29719543457031 116.4668121337891 13.64767456054688 C 112.5076522827148 10.97291564941406 108.2752151489258 8.675613403320312 103.8870697021484 6.819580078125 C 94.75723266601562 2.957992553710938 85.05837249755859 1 75.05991363525391 1 M 75.05991363525391 0 C 116.5143585205078 0 150.1198272705078 33.60547637939453 150.1198272705078 75.05991363525391 C 150.1198272705078 116.5143585205078 116.5143585205078 150.1198272705078 75.05991363525391 150.1198272705078 C 33.60547637939453 150.1198272705078 0 116.5143585205078 0 75.05991363525391 C 0 33.60547637939453 33.60547637939453 0 75.05991363525391 0 Z" stroke="none" fill="#707070"/></g><g transform="translate(274 392.019)"><path d="M36,39H28s0-5,4-5S36,39,36,39Z" fill="#d9896d"/><path d="M53.12,23.1,50,27l-.11.01A4.882,4.882,0,0,0,50,26V25a2.006,2.006,0,0,0-2-2H46V19c-5,0-5-8-5-8s-3,5-6,5l.99-3.98C35.69,12.43,30.78,19,24,19V13l-6,5v5H16a2.006,2.006,0,0,0-2,2v1a5.4,5.4,0,0,0,.99,2.99C14.69,28.87,10,26.84,10,22a10.8,10.8,0,0,1,4-8A8.613,8.613,0,0,1,6,9s8-1,12-3,6-5,14-5A11.785,11.785,0,0,1,42,6a4.333,4.333,0,0,1,4-2c3,0,8,2,8,8v8.6a3.99,3.99,0,0,1-.88,2.5Z" fill="#5e3616"/><path d="M38,41.63A13.167,13.167,0,0,1,19,32a7.739,7.739,0,0,1-4-3l-.01-.01A5.4,5.4,0,0,1,14,26V25a2.006,2.006,0,0,1,2-2h2V18l6-5v6c6.78,0,11.69-6.57,11.99-6.98L35,16c3,0,6-5,6-5s0,8,5,8v4h2a2.006,2.006,0,0,1,2,2v1a4.882,4.882,0,0,1-.11,1.01A7.411,7.411,0,0,1,45,32a13.448,13.448,0,0,1-7,9.63ZM28,39h8s0-5-4-5S28,39,28,39Z" fill="#f2c4b2"/><path d="M63,62v1H50a5.422,5.422,0,0,0,4.51-2.13A8.422,8.422,0,0,0,55.99,56H56Z" fill="#21abab"/><path d="M48,63H5V58.74A6.01,6.01,0,0,1,9.61,52.9l14.85-3.53a1.794,1.794,0,0,0,.6-.26A7.944,7.944,0,0,0,32,53h2.6L41,59.36Z" fill="#34c1ad"/><path d="M18,25H17a1,1,0,0,0-1,1v1c0,1.1.9,3,2,3h0Z" fill="#f2a283"/><path d="M46,25h1a1,1,0,0,1,1,1v1c0,1.1-.9,3-2,3h0Z" fill="#f2a283"/><path d="M14,14a10.8,10.8,0,0,0-4,8c0,4.84,4.69,6.87,4.99,6.99A5.4,5.4,0,0,1,14,26V25a2.006,2.006,0,0,1,2-2h2V18l-6,2a8.76,8.76,0,0,1,2-6Z" fill="#3b220e"/><path d="M46,19v4h2a2.006,2.006,0,0,1,2,2V21Z" fill="#3b220e"/><path d="M24,13l-6,5v2l6-5Z" fill="#d9896d"/><path d="M41,13s0,8,5,8V19c-5,0-5-8-5-8s-2.669,4.444-5.49,4.949L35,18C38,18,41,13,41,13Z" fill="#d9896d"/><path d="M35.271,14.91l.719-2.89C35.69,12.43,30.78,19,24,19v2C29.424,21,33.644,16.8,35.271,14.91Z" fill="#d9896d"/><ellipse cx="1" cy="2" rx="1" ry="2" transform="translate(31 28)" fill="#d9896d"/><path d="M28,35a4.986,4.986,0,0,0-9-2.979,13.965,13.965,0,0,0,4.481,7.93A4.983,4.983,0,0,0,28,35Z" fill="#f2a283"/><path d="M37,36a4.985,4.985,0,0,0,2.82,4.48A13.768,13.768,0,0,0,45,32.019,4.977,4.977,0,0,0,37,36Z" fill="#f2a283"/><path d="M41,59.36,34.6,53H32a7.944,7.944,0,0,1-6.94-3.89,1.794,1.794,0,0,1-.6.26l-4.146.986C21.113,52.391,23.947,56,34,56l4,7H48Z" fill="#21abab"/><path d="M38,51.488h0L42,55Z" fill="none"/><path d="M36.43,50.11,38,51.488h0Z" fill="none"/><path d="M38,47.564h0a1.906,1.906,0,0,0-.25-.024,1.906,1.906,0,0,1,.25.024Z" fill="none"/><path d="M42,55l-4-3.512v.1l-.91-.777a1.9,1.9,0,0,0-1.34-.54,1.987,1.987,0,0,0-.97.26,1.438,1.438,0,0,0-.35,2.3l.17.17L41,59.36,48,63h2a5.422,5.422,0,0,0,4.51-2.13A8.422,8.422,0,0,0,55.99,56a2.437,2.437,0,0,0,.01-.27L54,53V46a2,2,0,1,0-4,0v3l-5.87-5.46A1.857,1.857,0,0,0,42.79,43a1.94,1.94,0,0,0-.99.27,1.363,1.363,0,0,0-.39,2.21L46,50l-4.91-4.64a1.851,1.851,0,0,0-1.33-.54,1.894,1.894,0,0,0-.98.26,1.485,1.485,0,0,0-.3,2.34l.835.84-.225-.18A1.866,1.866,0,0,0,38,47.564v3.924Z" fill="#f2bca7"/><path d="M36.78,47.8a1.448,1.448,0,0,0-.35,2.31L38,51.488V47.564a1.906,1.906,0,0,0-.25-.024A1.987,1.987,0,0,0,36.78,47.8Z" fill="#f2bca7"/><path d="M36.347,48.178a1.413,1.413,0,0,0,.083,1.932l4.507,3.957A1.51,1.51,0,0,0,43,54h0Z" fill="#f2ab8f"/><path d="M46.525,60.368l-4.81-2.062a4.036,4.036,0,0,1-1.265-.856l-5.743-5.743a.983.983,0,0,1-.25-.926,1.411,1.411,0,0,0-.027,2.049l.17.17L41,59.36,48,63h2a5.422,5.422,0,0,0,4.51-2.13,8.4,8.4,0,0,0,1.475-4.807,5.752,5.752,0,0,1-5.068,4.842,7.71,7.71,0,0,1-4.392-.537Z" fill="#f2ab8f"/><path d="M44.5,52.5a.707.707,0,0,0,0-1l-6.1-6.1a1.466,1.466,0,0,0,.075,2.015l.835.84-.225-.18c-.016-.016-.036-.027-.053-.043L43.5,52.5a.707.707,0,0,0,1,0Z" fill="#f2ab8f"/><path d="M47.5,50.5a.707.707,0,0,0,0-1l-6-6a1.363,1.363,0,0,0-.346,1.654L46,50l.5.5A.707.707,0,0,0,47.5,50.5Z" fill="#f2ab8f"/><path d="M34.43,52.83a1.438,1.438,0,0,1,.35-2.3,1.987,1.987,0,0,1,.97-.26,1.9,1.9,0,0,1,1.34.54l.91.777v-.1L36.43,50.11a1.448,1.448,0,0,1,.35-2.31,1.987,1.987,0,0,1,.97-.26,1.906,1.906,0,0,1,.25.024V41.63a13.824,13.824,0,0,1-12,0v5.79a1.978,1.978,0,0,1-.94,1.69A7.944,7.944,0,0,0,32,53h2.6Z" fill="#ff5d54"/><path d="M52,45a1,1,0,0,1,.571-.9A1.788,1.788,0,0,0,52,44a2.088,2.088,0,0,0-2,2v3l2,2Z" fill="#f2ab8f"/><path d="M38,41.63a13.824,13.824,0,0,1-12,0v5.79a1.978,1.978,0,0,1-.94,1.69,7.536,7.536,0,0,0,1.193,1.538L38,43.6Z" fill="#e7544c"/><path d="M32,33c-3.955,0-5,3.925-5,6a1,1,0,0,0,1,1h8a1,1,0,0,0,1-1C37,36.925,35.955,33,32,33Zm-2.9,5c.209-1.187.862-3,2.9-3,2.023,0,2.682,1.813,2.9,3Z"/><path d="M39,24V22c-2.206,0-4-1.346-4-3H33C33,21.757,35.691,24,39,24Z"/><path d="M31,19H29c0,1.654-1.794,3-4,3v2C28.309,24,31,21.757,31,19Z"/><path d="M35,27.071a1,1,0,0,0,.681.878l6,2,.632-1.9L38.6,26.813l3.841-1.92L41.55,23.1l-6,3A1,1,0,0,0,35,27.071Z"/><path d="M29,27.071a1,1,0,0,0-.55-.966l-6-3-.894,1.79,3.841,1.92-3.71,1.236.632,1.9,6-2A1,1,0,0,0,29,27.071Z"/><path d="M63.65,61.241l-6.684-5.73a.99.99,0,0,0-.159-.375L55,52.673V46a3,3,0,0,0-6,0v.7l-4.154-3.863a2.941,2.941,0,0,0-3.561-.434,2.64,2.64,0,0,0-1.169,1.429A2.983,2.983,0,0,0,39,43.923V42.242a14.289,14.289,0,0,0,6.859-9.483,8.412,8.412,0,0,0,4.906-5.148l.016.014L53.9,23.72A5.024,5.024,0,0,0,55,20.6V12c0-6.557-5.521-9-9-9a5.744,5.744,0,0,0-3.959,1.4A12.982,12.982,0,0,0,32,0,18.671,18.671,0,0,0,20.209,3.534,27.757,27.757,0,0,1,17.553,5.1c-3.8,1.9-11.6,2.893-11.677,2.9a1,1,0,0,0-.805,1.364,9.537,9.537,0,0,0,6.711,5.408A11.185,11.185,0,0,0,9,22c0,4.923,4.152,7.238,5.328,7.8a8.866,8.866,0,0,0,3.813,2.964C19.737,39.608,25.12,44,32,44a14.7,14.7,0,0,0,5-.855v3.5a2.924,2.924,0,0,0-.724.3A2.518,2.518,0,0,0,35.02,48.79a2.322,2.322,0,0,0,0,.577,2.935,2.935,0,0,0-.741.3,2.524,2.524,0,0,0-1.256,1.845,2.258,2.258,0,0,0-.006.486H32a6.913,6.913,0,0,1-5.634-2.733A2.994,2.994,0,0,0,27,47.42V44H25v3.42a1,1,0,0,1-.769.973L9.379,51.93A6.976,6.976,0,0,0,4,58.739V63H6V58.739a4.984,4.984,0,0,1,3.842-4.864l14.834-3.532A8.883,8.883,0,0,0,32,54h2v-.187l6.3,6.26a.968.968,0,0,0,.244.178l7,3.636A1,1,0,0,0,48,64h2c3.572,0,6.075-2.3,6.787-6.009L62,62.46V63h2V62A1,1,0,0,0,63.65,61.241ZM11,22a9.876,9.876,0,0,1,3.6-7.2A1,1,0,0,0,14,13,7.57,7.57,0,0,1,7.593,9.782c2.544-.394,7.766-1.344,10.854-2.887a30.07,30.07,0,0,0,2.844-1.679A16.779,16.779,0,0,1,32,2a10.724,10.724,0,0,1,9.143,4.515,1.006,1.006,0,0,0,1.745-.055A3.394,3.394,0,0,1,46,5c1.947,0,7,1.257,7,7v8.6a3.008,3.008,0,0,1-.658,1.874l-1.441,1.8A3,3,0,0,0,48,22H47V19a1,1,0,0,0-1-1c-3.939,0-4-6.931-4-7a1,1,0,0,0-1.857-.514,13.571,13.571,0,0,1-3.749,4.064l.576-2.306a1,1,0,0,0-1.783-.824c-.045.062-4.29,5.912-10.187,6.529V13a1,1,0,0,0-1.641-.768l-6,5A1,1,0,0,0,17,18v4H16a3,3,0,0,0-3,3v1c0,.171.011.34.026.508A6.084,6.084,0,0,1,11,22Zm8.98,9.805a1,1,0,0,0-.692-.763C17.217,30.42,15,28.246,15,26V25a1,1,0,0,1,1-1h2a1,1,0,0,0,1-1V18.468l4-3.333V19a1,1,0,0,0,1,1c4.28,0,7.811-2.362,10.075-4.422l-.045.179A1,1,0,0,0,35,17c2.068,0,3.991-1.754,5.276-3.288.45,2.409,1.628,5.628,4.724,6.2V23a1,1,0,0,0,1,1h2a1,1,0,0,1,1,1v1c0,2.246-2.217,4.42-4.288,5.042a1,1,0,0,0-.692.763C42.787,38,38.069,42,32,42S21.213,38,19.98,31.805ZM50,62H48.244L41.6,58.547,35.144,52.13A.426.426,0,0,1,35,51.771a.531.531,0,0,1,.285-.376.959.959,0,0,1,1.152.178l4.911,4.188a1,1,0,1,0,1.309-1.512L37.144,49.4A.426.426,0,0,1,37,49.044a.533.533,0,0,1,.285-.376.936.936,0,0,1,1.1.124l4.91,4.915a1.061,1.061,0,0,0,1.656-.323,1,1,0,0,0-.215-1.089l-5.547-5.576a.5.5,0,0,1,.1-.779.945.945,0,0,1,1.115.144l4.91,4.643A1,1,0,0,0,46.7,49.288l-4.64-4.575a.168.168,0,0,1-.06-.166.58.58,0,0,1,.309-.42.966.966,0,0,1,1.145.149l5.867,5.456A1,1,0,0,0,51,49V46a1,1,0,0,1,2,0v7a1,1,0,0,0,.193.591L55,56.048C54.9,58.984,53.557,62,50,62Z"/><path d="M18,35.929a1,1,0,0,0-.4-.729l-4-3-1.2,1.6,3.078,2.308-1.185,1.185A1,1,0,0,0,14.4,38.8l4,3,1.2-1.6-3.078-2.308,1.185-1.185A1,1,0,0,0,18,35.929Z"/><path d="M7,41h4.132l-.964,1.445A1,1,0,0,0,11,44h6V42H12.868l.964-1.445A1,1,0,0,0,13,39H7Z"/><path d="M21,45H15a1,1,0,0,0-.832,1.555L15.132,48H11v2h6a1,1,0,0,0,.832-1.555L16.868,47H21Z"/><path d="M51.4,31.2l-4,3a1,1,0,0,0-.107,1.507l1.185,1.185L45.4,39.2l1.2,1.6,4-3a1,1,0,0,0,.107-1.507l-1.185-1.185L52.6,32.8Z"/><path d="M54.882,42.472a1,1,0,0,0-.05-1.027L53.868,40H58V38H52a1,1,0,0,0-.832,1.555L52.132,41H48v2h6a1,1,0,0,0,.882-.528Z"/></g></g></svg>