<svg xmlns="http://www.w3.org/2000/svg" width="150.12" height="150.12" viewBox="0 0 150.12 150.12"><g transform="translate(-559 -349)"><g transform="translate(559 349)" fill="#fff" opacity="0.67"><path d="M 75.05991363525391 149.6198272705078 C 64.99417114257812 149.6198272705078 55.22977447509766 147.6485595703125 46.03799438476562 143.7607574462891 C 41.62011337280273 141.8921508789062 37.35903549194336 139.5792999267578 33.37311553955078 136.886474609375 C 29.42491340637207 134.2191162109375 25.71221351623535 131.1558532714844 22.33809280395508 127.7817306518555 C 18.96397399902344 124.4076156616211 15.90071392059326 120.6949157714844 13.23335361480713 116.746711730957 C 10.54053401947021 112.7607955932617 8.227673530578613 108.4997100830078 6.359073638916016 104.0818328857422 C 2.47127366065979 94.89005279541016 0.499993622303009 85.12565612792969 0.499993622303009 75.05991363525391 C 0.499993622303009 64.99417114257812 2.47127366065979 55.22977447509766 6.359073638916016 46.03799438476562 C 8.227673530578613 41.62011337280273 10.54053401947021 37.35903549194336 13.23335361480713 33.37311553955078 C 15.90071392059326 29.42491340637207 18.96397399902344 25.71221351623535 22.33809280395508 22.33809280395508 C 25.71221351623535 18.96397399902344 29.42491340637207 15.90071392059326 33.37311553955078 13.23335361480713 C 37.35903549194336 10.54053401947021 41.62011337280273 8.227673530578613 46.03799438476562 6.359073638916016 C 55.22977447509766 2.47127366065979 64.99417114257812 0.499993622303009 75.05991363525391 0.499993622303009 C 85.12565612792969 0.499993622303009 94.89005279541016 2.47127366065979 104.0818328857422 6.359073638916016 C 108.4997100830078 8.227673530578613 112.7607955932617 10.54053401947021 116.746711730957 13.23335361480713 C 120.6949157714844 15.90071392059326 124.4076156616211 18.96397399902344 127.7817306518555 22.33809280395508 C 131.1558532714844 25.71221351623535 134.2191162109375 29.42491340637207 136.886474609375 33.37311553955078 C 139.5792999267578 37.35903549194336 141.8921508789062 41.62011337280273 143.7607574462891 46.03799438476562 C 147.6485595703125 55.22977447509766 149.6198272705078 64.99417114257812 149.6198272705078 75.05991363525391 C 149.6198272705078 85.12565612792969 147.6485595703125 94.89005279541016 143.7607574462891 104.0818328857422 C 141.8921508789062 108.4997100830078 139.5792999267578 112.7607955932617 136.886474609375 116.746711730957 C 134.2191162109375 120.6949157714844 131.1558532714844 124.4076156616211 127.7817306518555 127.7817306518555 C 124.4076156616211 131.1558532714844 120.6949157714844 134.2191162109375 116.746711730957 136.886474609375 C 112.7607955932617 139.5792999267578 108.4997100830078 141.8921508789062 104.0818328857422 143.7607574462891 C 94.89005279541016 147.6485595703125 85.12565612792969 149.6198272705078 75.05991363525391 149.6198272705078 Z" stroke="none"/><path d="M 75.05991363525391 1 C 65.06145477294922 1 55.36259460449219 2.957992553710938 46.23274993896484 6.819580078125 C 41.84461212158203 8.675613403320312 37.61217498779297 10.97291564941406 33.65301513671875 13.64767456054688 C 29.73119354248047 16.29719543457031 26.04325103759766 19.34002685546875 22.691650390625 22.691650390625 C 19.34002685546875 26.04325103759766 16.29719543457031 29.73119354248047 13.64767456054688 33.65301513671875 C 10.97291564941406 37.61217498779297 8.675613403320312 41.84461212158203 6.819580078125 46.23274993896484 C 2.957992553710938 55.36259460449219 1 65.06145477294922 1 75.05991363525391 C 1 85.05837249755859 2.957992553710938 94.75723266601562 6.819580078125 103.8870697021484 C 8.675613403320312 108.2752151489258 10.97291564941406 112.5076522827148 13.64767456054688 116.4668121337891 C 16.29719543457031 120.3886337280273 19.34002685546875 124.0765762329102 22.691650390625 127.4281768798828 C 26.04325103759766 130.77978515625 29.73119354248047 133.8226318359375 33.65301513671875 136.4721527099609 C 37.61217498779297 139.1469116210938 41.84461212158203 141.4442138671875 46.23274993896484 143.3002471923828 C 55.36259460449219 147.1618347167969 65.06145477294922 149.1198272705078 75.05991363525391 149.1198272705078 C 85.05837249755859 149.1198272705078 94.75723266601562 147.1618347167969 103.8870697021484 143.3002471923828 C 108.2752151489258 141.4442138671875 112.5076522827148 139.1469116210938 116.4668121337891 136.4721527099609 C 120.3886337280273 133.8226318359375 124.0765762329102 130.77978515625 127.4281768798828 127.4281768798828 C 130.77978515625 124.0765762329102 133.8226318359375 120.3886337280273 136.4721527099609 116.4668121337891 C 139.1469116210938 112.5076522827148 141.4442138671875 108.2752151489258 143.3002471923828 103.8870697021484 C 147.1618347167969 94.75723266601562 149.1198272705078 85.05837249755859 149.1198272705078 75.05991363525391 C 149.1198272705078 65.06145477294922 147.1618347167969 55.36259460449219 143.3002471923828 46.23274993896484 C 141.4442138671875 41.84461212158203 139.1469116210938 37.61217498779297 136.4721527099609 33.65301513671875 C 133.8226318359375 29.73119354248047 130.77978515625 26.04325103759766 127.4281768798828 22.691650390625 C 124.0765762329102 19.34002685546875 120.3886337280273 16.29719543457031 116.4668121337891 13.64767456054688 C 112.5076522827148 10.97291564941406 108.2752151489258 8.675613403320312 103.8870697021484 6.819580078125 C 94.75723266601562 2.957992553710938 85.05837249755859 1 75.05991363525391 1 M 75.05991363525391 0 C 116.5143585205078 0 150.1198272705078 33.60547637939453 150.1198272705078 75.05991363525391 C 150.1198272705078 116.5143585205078 116.5143585205078 150.1198272705078 75.05991363525391 150.1198272705078 C 33.60547637939453 150.1198272705078 0 116.5143585205078 0 75.05991363525391 C 0 33.60547637939453 33.60547637939453 0 75.05991363525391 0 Z" stroke="none" fill="#707070"/></g><g transform="translate(602 393.019)"><path d="M26,41.63a12.515,12.515,0,0,1-4.22-3.46L22,38V30s3-1,10-1,10,1,10,1v8l.22.17A12.515,12.515,0,0,1,38,41.63a13.824,13.824,0,0,1-12,0Z" fill="#f5f5f5"/><ellipse cx="2" cy="3" rx="2" ry="3" transform="translate(23 22)" fill="#5e3616"/><ellipse cx="2" cy="3" rx="2" ry="3" transform="translate(37 22)" fill="#5e3616"/><path d="M35.99,12.02C35.69,12.43,30.78,19,24,19V13l-6,5v5H16a2.006,2.006,0,0,0-2,2v1a5.4,5.4,0,0,0,.99,2.99C14.69,28.87,10,26.84,10,22a10.8,10.8,0,0,1,4-8A8.613,8.613,0,0,1,6,9s8-1,12-3,6-5,14-5A11.785,11.785,0,0,1,42,6a4.333,4.333,0,0,1,4-2c3,0,8,2,8,8v8.6a3.99,3.99,0,0,1-.88,2.5L50,27l-.11.01A4.882,4.882,0,0,0,50,26V25a2.006,2.006,0,0,0-2-2H46V19c-5,0-5-8-5-8s-3,5-6,5Z" fill="#5e3616"/><path d="M48,23H46V19c-5,0-5-8-5-8s-3,5-6,5l.99-3.98C35.69,12.43,30.78,19,24,19V13l-6,5v5H16a2.006,2.006,0,0,0-2,2v1a5.4,5.4,0,0,0,.99,2.99L15,29a7.739,7.739,0,0,0,4,3,14.457,14.457,0,0,0,2.78,6.17L22,38V30s3-1,10-1,10,1,10,1v8l.22.17A14.457,14.457,0,0,0,45,32a7.411,7.411,0,0,0,4.89-4.99A4.882,4.882,0,0,0,50,26V25A2.006,2.006,0,0,0,48,23ZM25,28c-1.1,0-2-1.34-2-3s.9-3,2-3,2,1.34,2,3S26.1,28,25,28Zm14,0c-1.1,0-2-1.34-2-3s.9-3,2-3,2,1.34,2,3S40.1,28,39,28Z" fill="#f2c4b2"/><path d="M38,46.42a1.991,1.991,0,0,0,.92,1.68c-.39.52-2.47,2.9-6.92,2.9s-6.53-2.38-6.92-2.9A1.991,1.991,0,0,0,26,46.42V41.63a13.824,13.824,0,0,0,12,0Z" fill="#f2b59d"/><path d="M59,57.74V62H5V57.74A6.01,6.01,0,0,1,9.61,51.9l14.85-3.53a2.016,2.016,0,0,0,.62-.27c.39.52,2.47,2.9,6.92,2.9s6.53-2.38,6.92-2.9a2.016,2.016,0,0,0,.62.27L54.39,51.9A6.01,6.01,0,0,1,59,57.74Z" fill="#34c1ad"/><path d="M15,59.706a2.293,2.293,0,0,1,1.635-2.2l27.123-8.137-4.218-1a2.016,2.016,0,0,1-.62-.27c-.39.52-2.47,2.9-6.92,2.9s-6.53-2.38-6.92-2.9a2.016,2.016,0,0,1-.62.27L9.61,51.9A6.01,6.01,0,0,0,5,57.74V62H17.294A2.294,2.294,0,0,1,15,59.706Z" fill="#21abab"/><path d="M38,41.63a13.824,13.824,0,0,1-12,0v4.79a1.991,1.991,0,0,1-.92,1.68,7.107,7.107,0,0,0,2.264,1.81L38,43.25Z" fill="#ed9776"/><path d="M18,25H17a1,1,0,0,0-1,1v1c0,1.1.9,3,2,3h0Z" fill="#f2a283"/><path d="M46,25h1a1,1,0,0,1,1,1v1c0,1.1-.9,3-2,3h0Z" fill="#f2a283"/><path d="M14,14a10.8,10.8,0,0,0-4,8c0,4.84,4.69,6.87,4.99,6.99A5.4,5.4,0,0,1,14,26V25a2.006,2.006,0,0,1,2-2h2V18l-6,2a8.76,8.76,0,0,1,2-6Z" fill="#3b220e"/><path d="M46,19v4h2a2.006,2.006,0,0,1,2,2V21Z" fill="#3b220e"/><path d="M24,13l-6,5v2l6-5Z" fill="#d9896d"/><path d="M41,13s0,8,5,8V19c-5,0-5-8-5-8s-2.669,4.444-5.49,4.949L35,18C38,18,41,13,41,13Z" fill="#d9896d"/><path d="M35.271,14.91l.719-2.89C35.69,12.43,30.78,19,24,19v2C29.424,21,33.644,16.8,35.271,14.91Z" fill="#d9896d"/><path d="M33,29.009V29c0-1.1-.448-2-1-2s-1,.9-1,2v.009c.327,0,.655-.009,1-.009S32.673,29,33,29.009Z" fill="#d9896d"/><path d="M32,41a10.031,10.031,0,0,1-2.146-.215A4.959,4.959,0,0,1,26,35.914V29.292A21.656,21.656,0,0,0,22,30v8l-.22.17A12.515,12.515,0,0,0,26,41.63a13.824,13.824,0,0,0,12,0,12.515,12.515,0,0,0,4.22-3.46L42,38S37,41,32,41Z" fill="#d4d4d4"/><path d="M54.621,50.93,39.769,47.393A1,1,0,0,1,39,46.42V42.242a14.289,14.289,0,0,0,6.859-9.483,8.412,8.412,0,0,0,4.906-5.148l.016.014L53.9,23.72A5.024,5.024,0,0,0,55,20.6V12c0-6.557-5.521-9-9-9a5.744,5.744,0,0,0-3.959,1.4A12.982,12.982,0,0,0,32,0,18.671,18.671,0,0,0,20.209,3.534,27.757,27.757,0,0,1,17.553,5.1c-3.8,1.9-11.6,2.893-11.677,2.9a1,1,0,0,0-.805,1.364,9.537,9.537,0,0,0,6.711,5.408A11.185,11.185,0,0,0,9,22c0,4.922,4.151,7.238,5.328,7.8a8.866,8.866,0,0,0,3.813,2.964C19.737,39.608,25.12,44,32,44a14.7,14.7,0,0,0,5-.855V46.42a2.986,2.986,0,0,0,.537,1.7A8.073,8.073,0,0,1,32,50a8.07,8.07,0,0,1-5.537-1.879A2.986,2.986,0,0,0,27,46.42V44H25v2.42a1,1,0,0,1-.769.973L9.379,50.93A6.976,6.976,0,0,0,4,57.739V62H6V57.739a4.984,4.984,0,0,1,3.842-4.864l14.852-3.537c.04-.009.076-.026.115-.037A9.871,9.871,0,0,0,32,52a9.871,9.871,0,0,0,7.191-2.7c.039.011.075.028.115.037l14.852,3.537A4.984,4.984,0,0,1,58,57.739V62h2V57.739a6.976,6.976,0,0,0-5.379-6.809ZM38,25c0-1.221.592-2,1-2s1,.779,1,2-.592,2-1,2S38,26.221,38,25Zm1-4c-1.683,0-3,1.757-3,4a4.5,4.5,0,0,0,1.206,3.21C35.79,28.087,34.07,28,32,28s-3.79.087-5.206.21A4.5,4.5,0,0,0,28,25c0-2.243-1.317-4-3-4s-3,1.757-3,4a4.2,4.2,0,0,0,1.692,3.6c-.5.087-.9.169-1.2.24L19,22.735V18.468l4-3.333v3.187a4.648,4.648,0,0,0-1.707.971l1.4,1.425A3.469,3.469,0,0,1,25,20a3.478,3.478,0,0,1,2.293.707l1.414-1.414c-.024-.024-.1-.089-.193-.168a18.216,18.216,0,0,0,5.561-3.547l-.045.179A1,1,0,0,0,35,17c2.068,0,3.991-1.754,5.276-3.288.45,2.409,1.628,5.628,4.724,6.2v2.823l-3.488,6.1c-.309-.071-.7-.153-1.2-.24A4.2,4.2,0,0,0,42,25C42,22.757,40.683,21,39,21ZM24,25c0-1.221.592-2,1-2s1,.779,1,2-.592,2-1,2S24,26.221,24,25Zm25,1c0,2.246-2.217,4.42-4.288,5.042a1,1,0,0,0-.692.763A14.371,14.371,0,0,1,43,34.98V30.265L46.58,24H48a1,1,0,0,1,1,1ZM11,22a9.876,9.876,0,0,1,3.6-7.2A1,1,0,0,0,14,13,7.57,7.57,0,0,1,7.593,9.782c2.544-.394,7.766-1.344,10.854-2.887a30.07,30.07,0,0,0,2.844-1.679A16.779,16.779,0,0,1,32,2a10.724,10.724,0,0,1,9.143,4.515,1.006,1.006,0,0,0,1.745-.055A3.394,3.394,0,0,1,46,5c1.947,0,7,1.257,7,7v8.6a3.008,3.008,0,0,1-.658,1.874l-1.441,1.8A3,3,0,0,0,48,22H47V19a1,1,0,0,0-1-1c-3.939,0-4-6.931-4-7a1,1,0,0,0-1.857-.514,13.571,13.571,0,0,1-3.749,4.064l.576-2.306a1,1,0,0,0-1.783-.824c-.045.062-4.29,5.912-10.187,6.529V13a1,1,0,0,0-1.641-.768l-6,5A1,1,0,0,0,17,18v4H16a3,3,0,0,0-3,3v1c0,.171.011.34.026.508A6.084,6.084,0,0,1,11,22Zm8.287,9.042C17.217,30.42,15,28.246,15,26V25a1,1,0,0,1,1-1h1.42L21,30.265V34.98a14.371,14.371,0,0,1-1.02-3.175,1,1,0,0,0-.693-.763ZM22.948,38H23V30.774A42.33,42.33,0,0,1,32,30a42.3,42.3,0,0,1,9,.774V38h.052A11.783,11.783,0,0,1,32,42a11.783,11.783,0,0,1-9.052-4Z"/><path d="M24.684,33.051l.632,1.9a24.016,24.016,0,0,1,13.369,0l.631-1.9a25.989,25.989,0,0,0-14.632,0Z"/><path d="M24.684,37.051l.632,1.9a24.016,24.016,0,0,1,13.369,0l.631-1.9a25.989,25.989,0,0,0-14.632,0Z"/><path d="M53,46V44h2V42H53V40H51v2H49v2h2v2Z"/><path d="M11,32v2H9v2h2v2h2V36h2V34H13V32Z"/><path d="M39,18a5.311,5.311,0,0,0-3.707,1.293l1.4,1.425a4.065,4.065,0,0,1,4.6-.011l1.414-1.414A5.311,5.311,0,0,0,39,18Z"/></g></g></svg>