<svg xmlns="http://www.w3.org/2000/svg" width="150.12" height="150.12" viewBox="0 0 150.12 150.12">
  <g id="Group_207" data-name="Group 207" transform="translate(-883 -349)">
    <g id="Path_2485" data-name="Path 2485" transform="translate(883 349)" fill="#fff" opacity="0.67">
      <path d="M 75.05991363525391 149.6198272705078 C 64.99417114257812 149.6198272705078 55.22977447509766 147.6485595703125 46.03799438476562 143.7607574462891 C 41.62011337280273 141.8921508789062 37.35903549194336 139.5792999267578 33.37311553955078 136.886474609375 C 29.42491340637207 134.2191162109375 25.71221351623535 131.1558532714844 22.33809280395508 127.7817306518555 C 18.96397399902344 124.4076156616211 15.90071392059326 120.6949157714844 13.23335361480713 116.746711730957 C 10.54053401947021 112.7607955932617 8.227673530578613 108.4997100830078 6.359073638916016 104.0818328857422 C 2.47127366065979 94.89005279541016 0.499993622303009 85.12565612792969 0.499993622303009 75.05991363525391 C 0.499993622303009 64.99417114257812 2.47127366065979 55.22977447509766 6.359073638916016 46.03799438476562 C 8.227673530578613 41.62011337280273 10.54053401947021 37.35903549194336 13.23335361480713 33.37311553955078 C 15.90071392059326 29.42491340637207 18.96397399902344 25.71221351623535 22.33809280395508 22.33809280395508 C 25.71221351623535 18.96397399902344 29.42491340637207 15.90071392059326 33.37311553955078 13.23335361480713 C 37.35903549194336 10.54053401947021 41.62011337280273 8.227673530578613 46.03799438476562 6.359073638916016 C 55.22977447509766 2.47127366065979 64.99417114257812 0.499993622303009 75.05991363525391 0.499993622303009 C 85.12565612792969 0.499993622303009 94.89005279541016 2.47127366065979 104.0818328857422 6.359073638916016 C 108.4997100830078 8.227673530578613 112.7607955932617 10.54053401947021 116.746711730957 13.23335361480713 C 120.6949157714844 15.90071392059326 124.4076156616211 18.96397399902344 127.7817306518555 22.33809280395508 C 131.1558532714844 25.71221351623535 134.2191162109375 29.42491340637207 136.886474609375 33.37311553955078 C 139.5792999267578 37.35903549194336 141.8921508789062 41.62011337280273 143.7607574462891 46.03799438476562 C 147.6485595703125 55.22977447509766 149.6198272705078 64.99417114257812 149.6198272705078 75.05991363525391 C 149.6198272705078 85.12565612792969 147.6485595703125 94.89005279541016 143.7607574462891 104.0818328857422 C 141.8921508789062 108.4997100830078 139.5792999267578 112.7607955932617 136.886474609375 116.746711730957 C 134.2191162109375 120.6949157714844 131.1558532714844 124.4076156616211 127.7817306518555 127.7817306518555 C 124.4076156616211 131.1558532714844 120.6949157714844 134.2191162109375 116.746711730957 136.886474609375 C 112.7607955932617 139.5792999267578 108.4997100830078 141.8921508789062 104.0818328857422 143.7607574462891 C 94.89005279541016 147.6485595703125 85.12565612792969 149.6198272705078 75.05991363525391 149.6198272705078 Z" stroke="none"/>
      <path d="M 75.05991363525391 1 C 65.06145477294922 1 55.36259460449219 2.957992553710938 46.23274993896484 6.819580078125 C 41.84461212158203 8.675613403320312 37.61217498779297 10.97291564941406 33.65301513671875 13.64767456054688 C 29.73119354248047 16.29719543457031 26.04325103759766 19.34002685546875 22.691650390625 22.691650390625 C 19.34002685546875 26.04325103759766 16.29719543457031 29.73119354248047 13.64767456054688 33.65301513671875 C 10.97291564941406 37.61217498779297 8.675613403320312 41.84461212158203 6.819580078125 46.23274993896484 C 2.957992553710938 55.36259460449219 1 65.06145477294922 1 75.05991363525391 C 1 85.05837249755859 2.957992553710938 94.75723266601562 6.819580078125 103.8870697021484 C 8.675613403320312 108.2752151489258 10.97291564941406 112.5076522827148 13.64767456054688 116.4668121337891 C 16.29719543457031 120.3886337280273 19.34002685546875 124.0765762329102 22.691650390625 127.4281768798828 C 26.04325103759766 130.77978515625 29.73119354248047 133.8226318359375 33.65301513671875 136.4721527099609 C 37.61217498779297 139.1469116210938 41.84461212158203 141.4442138671875 46.23274993896484 143.3002471923828 C 55.36259460449219 147.1618347167969 65.06145477294922 149.1198272705078 75.05991363525391 149.1198272705078 C 85.05837249755859 149.1198272705078 94.75723266601562 147.1618347167969 103.8870697021484 143.3002471923828 C 108.2752151489258 141.4442138671875 112.5076522827148 139.1469116210938 116.4668121337891 136.4721527099609 C 120.3886337280273 133.8226318359375 124.0765762329102 130.77978515625 127.4281768798828 127.4281768798828 C 130.77978515625 124.0765762329102 133.8226318359375 120.3886337280273 136.4721527099609 116.4668121337891 C 139.1469116210938 112.5076522827148 141.4442138671875 108.2752151489258 143.3002471923828 103.8870697021484 C 147.1618347167969 94.75723266601562 149.1198272705078 85.05837249755859 149.1198272705078 75.05991363525391 C 149.1198272705078 65.06145477294922 147.1618347167969 55.36259460449219 143.3002471923828 46.23274993896484 C 141.4442138671875 41.84461212158203 139.1469116210938 37.61217498779297 136.4721527099609 33.65301513671875 C 133.8226318359375 29.73119354248047 130.77978515625 26.04325103759766 127.4281768798828 22.691650390625 C 124.0765762329102 19.34002685546875 120.3886337280273 16.29719543457031 116.4668121337891 13.64767456054688 C 112.5076522827148 10.97291564941406 108.2752151489258 8.675613403320312 103.8870697021484 6.819580078125 C 94.75723266601562 2.957992553710938 85.05837249755859 1 75.05991363525391 1 M 75.05991363525391 0 C 116.5143585205078 0 150.1198272705078 33.60547637939453 150.1198272705078 75.05991363525391 C 150.1198272705078 116.5143585205078 116.5143585205078 150.1198272705078 75.05991363525391 150.1198272705078 C 33.60547637939453 150.1198272705078 0 116.5143585205078 0 75.05991363525391 C 0 33.60547637939453 33.60547637939453 0 75.05991363525391 0 Z" stroke="none" fill="#707070"/>
    </g>
    <g id="_21-Measure_the_fever" data-name="21-Measure the fever" transform="translate(926 392.001)">
      <path id="Path_2740" data-name="Path 2740" d="M52,28.1s2.88,0,2.88,1.8S52,32.61,52,32.61Z" fill="#f2a283"/>
      <path id="Path_2741" data-name="Path 2741" d="M12,25l-.05-.13,2.04-.78c-.04,1-.83,2.56-.92,4.05a2,2,0,0,1-2,1.86H9.51C10.22,27.67,11.11,25.44,12,25Z" fill="#34c1ad"/>
      <rect id="Rectangle_58" data-name="Rectangle 58" width="6" height="6" transform="translate(1 17)" fill="#34c1ad"/>
      <path id="Path_2742" data-name="Path 2742" d="M7,24a2.006,2.006,0,0,1-2,2H3a2,2,0,0,1-2-2V23H7Z" fill="#bfbfbf"/>
      <path id="Path_2743" data-name="Path 2743" d="M7,23V16a2.006,2.006,0,0,0-2-2H9l6.22.8A2,2,0,0,1,17,16.79v4.77a2.009,2.009,0,0,1-1.37,1.9l-1.64.63-2.04.78L9,26H5a2.006,2.006,0,0,0,2-2Z" fill="#e3e3e3"/>
      <path id="Path_2744" data-name="Path 2744" d="M5,14a2.006,2.006,0,0,1,2,2v1H1V16a2.006,2.006,0,0,1,2-2Z" fill="#bfbfbf"/>
      <rect id="Rectangle_59" data-name="Rectangle 59" width="2" height="6" transform="translate(5 17)" fill="#21abab"/>
      <path id="Path_2745" data-name="Path 2745" d="M5,24a2.006,2.006,0,0,1-2,2H5a2.006,2.006,0,0,0,2-2V23H5Z" fill="#a3a3a3"/>
      <path id="Path_2746" data-name="Path 2746" d="M5,14H3a2.006,2.006,0,0,1,2,2v1H7V16a2.006,2.006,0,0,0-2-2Z" fill="#a3a3a3"/>
      <path id="Path_2747" data-name="Path 2747" d="M9,26l2.95-1.13L12,25c-.89.44-1.78,2.67-2.49,5C8.62,32.91,8,36,8,36v5.74a3.184,3.184,0,0,1-.96,2.3,3.184,3.184,0,0,1-2.3.96,3.254,3.254,0,0,1-2.71-1.45l-.48-.73A3.216,3.216,0,0,1,1,41.01V40c0-7,3-7,3-10a3.275,3.275,0,0,0-1.21-2.45A2.2,2.2,0,0,1,2,25.88v-.15A2,2,0,0,0,3,26Z" fill="#e3e3e3"/>
      <path id="Path_2748" data-name="Path 2748" d="M39,37V47.73A39.313,39.313,0,0,1,34,48S18,49,18,34C18,34,29,37,39,37Z" fill="#e3e3e3"/>
      <path id="Path_2749" data-name="Path 2749" d="M18.78,30H20a91.931,91.931,0,0,0,24,3V46s-.6,1.19-5,1.73V37c-10,0-21-3-21-3V30Z" fill="#f5f5f5"/>
      <path id="Path_2750" data-name="Path 2750" d="M60.28,58.11C54.27,58.87,46,63,46,63H35c2-4,11-7,11-7a23.11,23.11,0,0,1,8.01-1.92c.63-.05,1.3-.08,1.99-.08l6,4a15,15,0,0,0-1.72.11Z" fill="#164b8d"/>
      <path id="Path_2751" data-name="Path 2751" d="M34,51v3l-1,1s-5,3-5,8H24c0-6,6-9,6-9V51Z" fill="#13969d"/>
      <path id="Path_2752" data-name="Path 2752" d="M63,61v2H46s8.27-4.13,14.28-4.89C61.8,58.76,63,59.91,63,61Z" fill="#34c1ad"/>
      <path id="Path_2753" data-name="Path 2753" d="M54,54l.01.08A23.11,23.11,0,0,0,46,56s-9,3-11,7H28c0-5,5-8,5-8l1-1,3-3,14.17-2H54Z" fill="#34c1ad"/>
      <path id="Path_2754" data-name="Path 2754" d="M51.17,49,37,51l-3,3V48a39.314,39.314,0,0,0,5-.27c4.4-.54,5-1.73,5-1.73v-.07A19.3,19.3,0,0,0,52,36V49Z" fill="#f2a283"/>
      <path id="Path_2755" data-name="Path 2755" d="M53.33,26H45c-7.24,0-14-13-20-13a6.437,6.437,0,0,1-4,3V26c0,.94-1.15,2.63-2.22,4H20a91.931,91.931,0,0,0,24,3V45.93A19.3,19.3,0,0,0,52,36l3.17-1.21A3.582,3.582,0,0,0,57,31.25V29.2A3.579,3.579,0,0,0,53.33,26ZM52,32.61V28.1s2.88,0,2.88,1.8S52,32.61,52,32.61Z" fill="#f2c4b2"/>
      <path id="Path_2756" data-name="Path 2756" d="M63,24.23c0,2.68-1.39,8.55-5,11.62l-1.56,1.4A7.043,7.043,0,0,0,54,42.5V43H52V36l3.17-1.21A3.582,3.582,0,0,0,57,31.25V29.2A3.579,3.579,0,0,0,53.33,26H45c-7.24,0-14-13-20-13a6.437,6.437,0,0,1-4,3V14.55a12.845,12.845,0,0,1,4.41-9.58A15.915,15.915,0,0,1,36.06,1h8.08C54.56,1,63,8.2,63,17.09Z" fill="#5e3616"/>
      <path id="Path_2757" data-name="Path 2757" d="M52,20H50C35.628,20,28.6,4.4,28.042,3.1A15.106,15.106,0,0,0,25.41,4.97,12.845,12.845,0,0,0,21,14.55V16a6.437,6.437,0,0,0,4-3c6,0,12.76,13,20,13h8.33A3.579,3.579,0,0,1,57,29.2V25a5,5,0,0,0-5-5Z" fill="#452810"/>
      <path id="Path_2758" data-name="Path 2758" d="M54.821,34.923,52,36v7h2v-.5a6.935,6.935,0,0,1,1.828-4.634,2.47,2.47,0,0,1-1.007-2.943Z" fill="#452810"/>
      <path id="Path_2759" data-name="Path 2759" d="M44,45.93V46s-.6,1.19-5,1.73A39.313,39.313,0,0,1,34,48v6l3-3,4.835-.682L52,41V36a19.3,19.3,0,0,1-8,9.93Z" fill="#ed9776"/>
      <path id="Path_2760" data-name="Path 2760" d="M25,15a6.459,6.459,0,0,1,5,3,18.5,18.5,0,0,0,13.9,7.894C37.075,24.7,30.7,13,25,13a6.437,6.437,0,0,1-4,3v2.491C22.745,17.925,25,16.84,25,15Z" fill="#f2a283"/>
      <path id="Path_2761" data-name="Path 2761" d="M11.439,28.684,12,27c0-.807,1.289-1.6,1.791-1.886a4.724,4.724,0,0,0,.2-1.024l-2.04.78L12,25c-.89.44-1.78,2.67-2.49,5h1.56a1.985,1.985,0,0,0,.782-.162,1,1,0,0,1-.413-1.154Z" fill="#13969d"/>
      <path id="Path_2762" data-name="Path 2762" d="M6,43a2,2,0,0,1-2-2V37c0-4,2-5,2-5V30a2,2,0,0,1,2-2h2l.215-.072C10.771,26.471,11.385,25.3,12,25l-.05-.13L9,26H3a2,2,0,0,1-1-.27v.15a2.2,2.2,0,0,0,.79,1.67A3.275,3.275,0,0,1,4,30c0,3-3,3-3,10v1.01a3.216,3.216,0,0,0,.55,1.81l.48.73A3.254,3.254,0,0,0,4.74,45a3.184,3.184,0,0,0,2.3-.96A3.184,3.184,0,0,0,8,41.74V41A2,2,0,0,1,6,43Z" fill="#d4d4d4"/>
      <path id="Path_2763" data-name="Path 2763" d="M14,23H12a3,3,0,0,1-3-3V14H5a2.006,2.006,0,0,1,2,2v8a2.006,2.006,0,0,1-2,2H9l2.95-1.13,2.04-.78,1.64-.63A2.009,2.009,0,0,0,17,21.56V20a3,3,0,0,1-3,3Z" fill="#d4d4d4"/>
      <path id="Path_2764" data-name="Path 2764" d="M20.7,34.66C19.015,34.276,18,34,18,34c0,15,16,14,16,14a39.314,39.314,0,0,0,5-.27v-2.4C26.379,45.427,22.121,39.21,20.7,34.66Z" fill="#bfbfbf"/>
      <path id="Path_2765" data-name="Path 2765" d="M39,45.325v2.4c4.4-.54,5-1.73,5-1.73V45a45.039,45.039,0,0,1-5,.325Z" fill="#e3e3e3"/>
      <path id="Path_2766" data-name="Path 2766" d="M20,30H18v4s1.015.276,2.7.66A14.666,14.666,0,0,1,20,30Z" fill="#e3e3e3"/>
      <path id="Path_2767" data-name="Path 2767" d="M44,32c-7.531,0-22.146-3.543-23.835-3.959A22.474,22.474,0,0,1,18.78,30H20a91.931,91.931,0,0,0,24,3V45.93a15.879,15.879,0,0,0,2-1.37V32Z" fill="#f2b59d"/>
      <path id="Path_2768" data-name="Path 2768" d="M32,51v3s-4,2-5,6v.5a1.5,1.5,0,0,1-2.8.726A8.615,8.615,0,0,0,24,63h4c0-5,5-8,5-8l1-1V51Z" fill="#107c82"/>
      <path id="Path_2769" data-name="Path 2769" d="M60.28,58.11C54.27,58.87,46,63,46,63h6.043a2,2,0,0,1,1.19-1.568,18.735,18.735,0,0,1,9.411-1.486A5.3,5.3,0,0,0,60.28,58.11Z" fill="#13969d"/>
      <path id="Path_2770" data-name="Path 2770" d="M50.005,59.493a7.944,7.944,0,0,1-2.6.693c-4.774.42-6.01-.877-5.684-2.415C39.107,59.031,36.064,60.871,35,63H46s8.27-4.13,14.28-4.89A15,15,0,0,1,62,58l-1.392-.928a30.352,30.352,0,0,0-10.6,2.421Z" fill="#072c58"/>
      <path id="Path_2771" data-name="Path 2771" d="M54,54V52c-11,0-17,5-17,5a4.333,4.333,0,0,1-4-2s-5,3-5,8h7c2-4,11-7,11-7a23.11,23.11,0,0,1,8.01-1.92Z" fill="#13969d"/>
      <path id="Path_2772" data-name="Path 2772" d="M51.408,33.419a1,1,0,0,0,.592.194.963.963,0,0,0,.3-.046c.366-.115,3.575-1.194,3.575-3.664,0-1.928-2.009-2.806-3.875-2.806a1,1,0,0,0-1,1v4.516a1,1,0,0,0,.408.806ZM53,29.24c.451.117.875.322.875.663,0,.409-.4.8-.875,1.123Z"/>
      <path id="Path_2773" data-name="Path 2773" d="M53,47V44h1a1,1,0,0,0,1-1v-.5a6.018,6.018,0,0,1,2.1-4.508l1.547-1.384C62.692,33.163,64,26.783,64,24.234V17.085C64,7.664,55.092,0,44.143,0H36.06A16.83,16.83,0,0,0,24.7,4.259l1.342,1.482A14.84,14.84,0,0,1,36.06,2h8.083C53.989,2,62,8.768,62,17.085v7.149c0,2.779-1.478,8.151-4.667,10.871l-1.564,1.4A8.152,8.152,0,0,0,53.017,42H53V36.688l2.523-.966a1,1,0,0,0,.147-.071A4.552,4.552,0,0,0,58,31.25V29.2A4.568,4.568,0,0,0,53.331,25H45c-3.382,0-6.867-3.393-10.236-6.673C31.422,15.073,28.266,12,25,12a1,1,0,0,0-.905.574A5.213,5.213,0,0,1,22,14.506a11.306,11.306,0,0,1,.8-4.138l-1.86-.736A13.292,13.292,0,0,0,20,14.549V26c0,.078-.071.817-1.716,3H18a1,1,0,0,0-1,1v4c0,4.54,1.4,8.155,4.155,10.746C25.128,48.477,30.74,48.974,33,49.013V50H30a1,1,0,0,0-1,1v2.415c-1.589.956-6,4.1-6,9.585h2c0-5.293,5.4-8.079,5.447-8.1A1,1,0,0,0,31,54V52h2v1.586l-.626.626C31.572,54.725,27,57.87,27,63h2c0-4.358,4.471-7.116,4.515-7.143a1.025,1.025,0,0,0,.192-.15l3.764-3.764L51.241,50H53v3.161a24.029,24.029,0,0,0-7.38,1.911c-.9.3-9.424,3.3-11.515,7.481A1,1,0,0,0,35,64H46a1,1,0,0,0,.447-.1c.088-.044,7.967-3.951,13.7-4.745C61.3,59.706,62,60.5,62,61v2h2V61a3.436,3.436,0,0,0-1.189-2.417.969.969,0,0,0,.146-.293,1,1,0,0,0-.4-1.122l-6-4A1.006,1.006,0,0,0,56,53c-.34,0-.673.007-1,.019V49a1,1,0,0,0-1-1H51.17a.93.93,0,0,0-.139.01l-14.171,2a1,1,0,0,0-.567.283L35,51.586v-2.6c7.349-.13,9.29-1.662,9.785-2.364A18.975,18.975,0,0,0,51,40.35V47Zm6.119,10.281c-5.475.96-12.056,4.086-13.352,4.719H37.005c2.426-2.375,7.313-4.384,9.311-5.052a1.035,1.035,0,0,0,.13-.052A23.441,23.441,0,0,1,55.7,55ZM56,29.2v2.05a2.581,2.581,0,0,1-1.272,2.635l-3.085,1.181a1.006,1.006,0,0,0-.229.153L51.4,35.2,45,40V33.37L50.46,27h2.871A2.6,2.6,0,0,1,56,29.2ZM25.529,14.043c2.349.371,5.137,3.086,7.84,5.717C37.024,23.319,40.805,27,45.076,27h2.75l-4.283,5a93.651,93.651,0,0,1-22.9-2.855C21.821,27.39,22,26.516,22,26V16.717a7.654,7.654,0,0,0,3.529-2.674ZM19.05,35.3A93.21,93.21,0,0,0,38,37.99v8.843c-1.11.1-2.448.168-4.061.169-.073.006-7.072.375-11.423-3.723A11.655,11.655,0,0,1,19.05,35.3ZM43,45.588a7.8,7.8,0,0,1-3,.981V37a1,1,0,0,0-1-1,91.472,91.472,0,0,1-20-2.775V31h.856A92.468,92.468,0,0,0,43,34Zm2-1.525V42.5l4.311-3.233A17.67,17.67,0,0,1,45,44.063Z"/>
      <path id="Path_2774" data-name="Path 2774" d="M24.769,7.072,23.231,5.793a14.461,14.461,0,0,0-1.21,1.684l1.7,1.046a12.5,12.5,0,0,1,1.048-1.451Z"/>
      <rect id="Rectangle_60" data-name="Rectangle 60" width="9" height="2" transform="translate(23 24)"/>
      <path id="Path_2775" data-name="Path 2775" d="M18,21.559V16.79a2.991,2.991,0,0,0-2.651-2.979l-6.221-.8A1.1,1.1,0,0,0,9,13H3a3,3,0,0,0-3,3v8a2.979,2.979,0,0,0,1.042,2.254A3.249,3.249,0,0,0,2.128,28.3,2.236,2.236,0,0,1,3,30a3.749,3.749,0,0,1-.874,2.224C1.229,33.594,0,35.472,0,40v1.014a4.244,4.244,0,0,0,.715,2.361L1.2,44.1A4.257,4.257,0,0,0,9,41.743V36.1c.362-1.8.8-3.555,1.254-5.1h.817a3,3,0,0,0,2.993-2.8,9.7,9.7,0,0,1,.494-2.142c.134-.435.258-.853.341-1.253l1.05-.4A3,3,0,0,0,18,21.559ZM3,25a1,1,0,0,1-1-1H6a1,1,0,0,1-1,1Zm3-3H2V18H6ZM3,15H5a1,1,0,0,1,1,1H2a1,1,0,0,1,1-1ZM7.02,35.8A.925.925,0,0,0,7,36v5.743A2.257,2.257,0,0,1,2.865,43l-.486-.729A2.25,2.25,0,0,1,2,41.014V40c0-3.933.956-5.393,1.8-6.681A5.62,5.62,0,0,0,5,30a4.14,4.14,0,0,0-1.363-3H9a.992.992,0,0,0,.358-.066l.22-.085A48.9,48.9,0,0,0,7.02,35.8Zm5.048-7.729a1,1,0,0,1-1,.925h-.179c.594-1.707,1.161-2.889,1.555-3.1l-.061-.123.192-.074a10.454,10.454,0,0,0-.507,2.381Zm3.206-5.553L8.815,25h-1A2.966,2.966,0,0,0,8,24V16a2.966,2.966,0,0,0-.184-1h1.12l6.174.8a1,1,0,0,1,.89.993v4.769a1.016,1.016,0,0,1-.726.96Z"/>
      <rect id="Rectangle_61" data-name="Rectangle 61" width="5" height="2" transform="translate(10 17)"/>
      <rect id="Rectangle_62" data-name="Rectangle 62" width="5" height="2" transform="translate(10 20)"/>
      <path id="Path_2776" data-name="Path 2776" d="M10.721,8.693A3.673,3.673,0,0,0,12,6a3.672,3.672,0,0,0-1.278-2.69l-.428.408L9.279,4.7c.487.5.721.77.721,1.3s-.234.8-.721,1.307A3.673,3.673,0,0,0,8,10h2C10,9.468,10.234,9.2,10.721,8.693Z"/>
      <path id="Path_2777" data-name="Path 2777" d="M10,4l.3-.282.426-.41Z"/>
      <path id="Path_2778" data-name="Path 2778" d="M18,4l.3-.282.426-.41Z"/>
      <path id="Path_2779" data-name="Path 2779" d="M18.721,8.693A3.673,3.673,0,0,0,20,6a3.672,3.672,0,0,0-1.278-2.69l-.428.408L17.279,4.7c.487.5.721.77.721,1.3s-.234.8-.721,1.307A3.673,3.673,0,0,0,16,10h2C18,9.468,18.234,9.2,18.721,8.693Z"/>
      <path id="Path_2780" data-name="Path 2780" d="M2,4l.295-.282.426-.41Z"/>
      <path id="Path_2781" data-name="Path 2781" d="M2.721,8.693A3.673,3.673,0,0,0,4,6,3.672,3.672,0,0,0,2.722,3.31l-.428.408L1.279,4.7C1.766,5.2,2,5.47,2,6s-.234.8-.721,1.307A3.673,3.673,0,0,0,0,10H2C2,9.468,2.234,9.2,2.721,8.693Z"/>
    </g>
  </g>
</svg>
