<svg xmlns="http://www.w3.org/2000/svg" width="150.12" height="150.12" viewBox="0 0 150.12 150.12"><g transform="translate(-222 -1071.487)"><g transform="translate(222 1071.487)" fill="#fff" opacity="0.67"><path d="M 75.05991363525391 149.6198272705078 C 64.99417114257812 149.6198272705078 55.22977447509766 147.6485595703125 46.03799438476562 143.7607574462891 C 41.62011337280273 141.8921508789062 37.35903549194336 139.5792999267578 33.37311553955078 136.886474609375 C 29.42491340637207 134.2191162109375 25.71221351623535 131.1558532714844 22.33809280395508 127.7817306518555 C 18.96397399902344 124.4076156616211 15.90071392059326 120.6949157714844 13.23335361480713 116.746711730957 C 10.54053401947021 112.7607955932617 8.227673530578613 108.4997100830078 6.359073638916016 104.0818328857422 C 2.47127366065979 94.89005279541016 0.499993622303009 85.12565612792969 0.499993622303009 75.05991363525391 C 0.499993622303009 64.99417114257812 2.47127366065979 55.22977447509766 6.359073638916016 46.03799438476562 C 8.227673530578613 41.62011337280273 10.54053401947021 37.35903549194336 13.23335361480713 33.37311553955078 C 15.90071392059326 29.42491340637207 18.96397399902344 25.71221351623535 22.33809280395508 22.33809280395508 C 25.71221351623535 18.96397399902344 29.42491340637207 15.90071392059326 33.37311553955078 13.23335361480713 C 37.35903549194336 10.54053401947021 41.62011337280273 8.227673530578613 46.03799438476562 6.359073638916016 C 55.22977447509766 2.47127366065979 64.99417114257812 0.499993622303009 75.05991363525391 0.499993622303009 C 85.12565612792969 0.499993622303009 94.89005279541016 2.47127366065979 104.0818328857422 6.359073638916016 C 108.4997100830078 8.227673530578613 112.7607955932617 10.54053401947021 116.746711730957 13.23335361480713 C 120.6949157714844 15.90071392059326 124.4076156616211 18.96397399902344 127.7817306518555 22.33809280395508 C 131.1558532714844 25.71221351623535 134.2191162109375 29.42491340637207 136.886474609375 33.37311553955078 C 139.5792999267578 37.35903549194336 141.8921508789062 41.62011337280273 143.7607574462891 46.03799438476562 C 147.6485595703125 55.22977447509766 149.6198272705078 64.99417114257812 149.6198272705078 75.05991363525391 C 149.6198272705078 85.12565612792969 147.6485595703125 94.89005279541016 143.7607574462891 104.0818328857422 C 141.8921508789062 108.4997100830078 139.5792999267578 112.7607955932617 136.886474609375 116.746711730957 C 134.2191162109375 120.6949157714844 131.1558532714844 124.4076156616211 127.7817306518555 127.7817306518555 C 124.4076156616211 131.1558532714844 120.6949157714844 134.2191162109375 116.746711730957 136.886474609375 C 112.7607955932617 139.5792999267578 108.4997100830078 141.8921508789062 104.0818328857422 143.7607574462891 C 94.89005279541016 147.6485595703125 85.12565612792969 149.6198272705078 75.05991363525391 149.6198272705078 Z" stroke="none"/><path d="M 75.05991363525391 1 C 65.06145477294922 1 55.36259460449219 2.957992553710938 46.23274993896484 6.819580078125 C 41.84461212158203 8.675613403320312 37.61217498779297 10.97291564941406 33.65301513671875 13.64767456054688 C 29.73119354248047 16.29719543457031 26.04325103759766 19.34002685546875 22.691650390625 22.691650390625 C 19.34002685546875 26.04325103759766 16.29719543457031 29.73119354248047 13.64767456054688 33.65301513671875 C 10.97291564941406 37.61217498779297 8.675613403320312 41.84461212158203 6.819580078125 46.23274993896484 C 2.957992553710938 55.36259460449219 1 65.06145477294922 1 75.05991363525391 C 1 85.05837249755859 2.957992553710938 94.75723266601562 6.819580078125 103.8870697021484 C 8.675613403320312 108.2752151489258 10.97291564941406 112.5076522827148 13.64767456054688 116.4668121337891 C 16.29719543457031 120.3886337280273 19.34002685546875 124.0765762329102 22.691650390625 127.4281768798828 C 26.04325103759766 130.77978515625 29.73119354248047 133.8226318359375 33.65301513671875 136.4721527099609 C 37.61217498779297 139.1469116210938 41.84461212158203 141.4442138671875 46.23274993896484 143.3002471923828 C 55.36259460449219 147.1618347167969 65.06145477294922 149.1198272705078 75.05991363525391 149.1198272705078 C 85.05837249755859 149.1198272705078 94.75723266601562 147.1618347167969 103.8870697021484 143.3002471923828 C 108.2752151489258 141.4442138671875 112.5076522827148 139.1469116210938 116.4668121337891 136.4721527099609 C 120.3886337280273 133.8226318359375 124.0765762329102 130.77978515625 127.4281768798828 127.4281768798828 C 130.77978515625 124.0765762329102 133.8226318359375 120.3886337280273 136.4721527099609 116.4668121337891 C 139.1469116210938 112.5076522827148 141.4442138671875 108.2752151489258 143.3002471923828 103.8870697021484 C 147.1618347167969 94.75723266601562 149.1198272705078 85.05837249755859 149.1198272705078 75.05991363525391 C 149.1198272705078 65.06145477294922 147.1618347167969 55.36259460449219 143.3002471923828 46.23274993896484 C 141.4442138671875 41.84461212158203 139.1469116210938 37.61217498779297 136.4721527099609 33.65301513671875 C 133.8226318359375 29.73119354248047 130.77978515625 26.04325103759766 127.4281768798828 22.691650390625 C 124.0765762329102 19.34002685546875 120.3886337280273 16.29719543457031 116.4668121337891 13.64767456054688 C 112.5076522827148 10.97291564941406 108.2752151489258 8.675613403320312 103.8870697021484 6.819580078125 C 94.75723266601562 2.957992553710938 85.05837249755859 1 75.05991363525391 1 M 75.05991363525391 0 C 116.5143585205078 0 150.1198272705078 33.60547637939453 150.1198272705078 75.05991363525391 C 150.1198272705078 116.5143585205078 116.5143585205078 150.1198272705078 75.05991363525391 150.1198272705078 C 33.60547637939453 150.1198272705078 0 116.5143585205078 0 75.05991363525391 C 0 33.60547637939453 33.60547637939453 0 75.05991363525391 0 Z" stroke="none" fill="#707070"/></g><g transform="translate(197.56 1023.339)"><path d="M86.357,113.492c-.965.971-1.687,1.7-1.83,1.809a1.567,1.567,0,1,0,1.929,2.47c.317-.248,1.09-1.027,2.125-2.068,2.551-2.567,6.829-6.871,7.558-7.008,1.668-.313,3.607-.5,5.451-.678a32.974,32.974,0,0,0,6.339-.974,9.318,9.318,0,0,0,1.191-.491,9.7,9.7,0,0,0,3.828-3.383,6.189,6.189,0,0,0,.746-5.4,6.651,6.651,0,0,0-.347-.845c-1.353-2.72-4.221-1.723-6.737-.849a11.9,11.9,0,0,1-1.761.526,69.82,69.82,0,0,1-7.775.519,66.333,66.333,0,0,0-8.394.6,20.34,20.34,0,0,0-9.03,3.989c-3.245,2.23-6.668,4.582-16.61,4.518a1.567,1.567,0,0,0-.012,3.134c10.911.07,14.751-2.569,18.392-5.072,4.682,8.59-1.06,17.047,4.935,9.208Z" transform="translate(-0.023)" fill="#000050"/><path d="M162.214,171.09l-14.98,8.724a3.186,3.186,0,0,1-3.329.1,3.417,3.417,0,0,1-1.068-1.027,3.679,3.679,0,0,1-.564-1.386,3.012,3.012,0,0,1,1.39-3.265c3.015-1.675,10.537-6.158,13.868-8.385l-17.25,9.638a3.4,3.4,0,0,1-3.608-.048,3.547,3.547,0,0,1-1.03-1.1,3.643,3.643,0,0,1-.5-1.418,3.322,3.322,0,0,1,1.5-3.2l15.414-9.052-14.4,7.421a3.336,3.336,0,0,1-3.531-.109,3.216,3.216,0,0,1-.934-1.054,3.317,3.317,0,0,1-.4-1.36,3.494,3.494,0,0,1,1.8-3.216l13.462-8.57a23.149,23.149,0,0,0,5.21-4.81c3.208-3.636,11.513-10.613,17.4-11.6,7.973-1.336,16.925,1.173,23.608-1.344l-.454,23.644a9.608,9.608,0,0,0-4.055.321c-2.344.628-4.181,2.459-6.058,4.011a46.842,46.842,0,0,0-4.83,4.787,48.228,48.228,0,0,1-4,4.051,31.847,31.847,0,0,1-5.991,4.079l-14.016,7.323a3.323,3.323,0,0,1-3.69-.2,3.5,3.5,0,0,1-1.31-2.4c-.305-3.177,9.6-8.639,12.353-10.559Z" transform="translate(-56.729 -32.509)" fill="#000050" fill-rule="evenodd"/><path d="M283.224,345.075l3.56,1.968a3.323,3.323,0,0,0,3.694-.116,3.5,3.5,0,0,0,1.366-2.363,3.276,3.276,0,0,0-1.639-3.187,66.486,66.486,0,0,1-6.981,3.7Z" transform="translate(-176.358 -195.795)" fill="#000050" fill-rule="evenodd"/><path d="M84.3,129.839c-3.188.224-13.419,8.738-22.857,5.592,0,13.959.1,26.484,0,30.831,1.393,1.874,15.8,6.408,22.848,7.607a5.2,5.2,0,0,1-.371-1.724,4.886,4.886,0,0,1-4.856-.324,5.12,5.12,0,0,1-1.49-1.581,5.221,5.221,0,0,1-.718-2.031,4.888,4.888,0,0,1,.724-3.289,4.533,4.533,0,0,1-1.1-.582,4.791,4.791,0,0,1-1.392-1.57,4.889,4.889,0,0,1-.595-2.007,4.665,4.665,0,0,1,.439-2.346,1.026,1.026,0,0,1,.207-.393,5.718,5.718,0,0,1,1.878-1.919l13.462-8.57a16.4,16.4,0,0,0,2.6-2.09q.328-.365.656-.738c.493-.559,1.058-1.153,1.678-1.765l.071-.079c-.908-.894-2.748-1.761-4.8-3.176-3.064-2.115-6.482-5.522-6.39-9.847Z" transform="translate(0 -27.585)" fill="#000050" fill-rule="evenodd"/><path d="M383.722,270.227a15.528,15.528,0,0,0-6.23,3.468l1.833,1.03a3.336,3.336,0,0,0,3.533-.026,3.214,3.214,0,0,0,.959-1.031,3.317,3.317,0,0,0,.434-1.35,3.2,3.2,0,0,0-.528-2.09Z" transform="translate(-251.318 -139.219)" fill="#000050" fill-rule="evenodd"/><path d="M349.278,294.81l3.781,2.294a3.4,3.4,0,0,0,3.608.037,3.547,3.547,0,0,0,1.055-1.072,3.649,3.649,0,0,0,.536-1.405,3.322,3.322,0,0,0-1.426-3.239l-2.416-1.589a57.776,57.776,0,0,0-5.128,4.963l-.01.011Z" transform="translate(-228.883 -154.813)" fill="#000050" fill-rule="evenodd"/><path d="M321.97,320.6l3.354,2.061a3.186,3.186,0,0,0,3.325.181,3.419,3.419,0,0,0,1.092-1,3.675,3.675,0,0,0,.6-1.373,3.011,3.011,0,0,0-1.313-3.3c-.5-.295-1.132-.673-1.848-1.109a37.641,37.641,0,0,1-5.076,4.446h0l-.032.023-.032.023-.03.021h0l-.033.023Z" transform="translate(-207.168 -175.666)" fill="#000050" fill-rule="evenodd"/></g></g></svg>