<svg xmlns="http://www.w3.org/2000/svg" width="150.12" height="150.12" viewBox="0 0 150.12 150.12"><g fill="#fff" opacity="0.67"><path d="M 75.05991363525391 149.6198272705078 C 64.99417114257812 149.6198272705078 55.22977447509766 147.6485595703125 46.03799438476562 143.7607574462891 C 41.62011337280273 141.8921508789062 37.35903549194336 139.5792999267578 33.37311553955078 136.886474609375 C 29.42491340637207 134.2191162109375 25.71221351623535 131.1558532714844 22.33809280395508 127.7817306518555 C 18.96397399902344 124.4076156616211 15.90071392059326 120.6949157714844 13.23335361480713 116.746711730957 C 10.54053401947021 112.7607955932617 8.227673530578613 108.4997100830078 6.359073638916016 104.0818328857422 C 2.47127366065979 94.89005279541016 0.499993622303009 85.12565612792969 0.499993622303009 75.05991363525391 C 0.499993622303009 64.99417114257812 2.47127366065979 55.22977447509766 6.359073638916016 46.03799438476562 C 8.227673530578613 41.62011337280273 10.54053401947021 37.35903549194336 13.23335361480713 33.37311553955078 C 15.90071392059326 29.42491340637207 18.96397399902344 25.71221351623535 22.33809280395508 22.33809280395508 C 25.71221351623535 18.96397399902344 29.42491340637207 15.90071392059326 33.37311553955078 13.23335361480713 C 37.35903549194336 10.54053401947021 41.62011337280273 8.227673530578613 46.03799438476562 6.359073638916016 C 55.22977447509766 2.47127366065979 64.99417114257812 0.499993622303009 75.05991363525391 0.499993622303009 C 85.12565612792969 0.499993622303009 94.89005279541016 2.47127366065979 104.0818328857422 6.359073638916016 C 108.4997100830078 8.227673530578613 112.7607955932617 10.54053401947021 116.746711730957 13.23335361480713 C 120.6949157714844 15.90071392059326 124.4076156616211 18.96397399902344 127.7817306518555 22.33809280395508 C 131.1558532714844 25.71221351623535 134.2191162109375 29.42491340637207 136.886474609375 33.37311553955078 C 139.5792999267578 37.35903549194336 141.8921508789062 41.62011337280273 143.7607574462891 46.03799438476562 C 147.6485595703125 55.22977447509766 149.6198272705078 64.99417114257812 149.6198272705078 75.05991363525391 C 149.6198272705078 85.12565612792969 147.6485595703125 94.89005279541016 143.7607574462891 104.0818328857422 C 141.8921508789062 108.4997100830078 139.5792999267578 112.7607955932617 136.886474609375 116.746711730957 C 134.2191162109375 120.6949157714844 131.1558532714844 124.4076156616211 127.7817306518555 127.7817306518555 C 124.4076156616211 131.1558532714844 120.6949157714844 134.2191162109375 116.746711730957 136.886474609375 C 112.7607955932617 139.5792999267578 108.4997100830078 141.8921508789062 104.0818328857422 143.7607574462891 C 94.89005279541016 147.6485595703125 85.12565612792969 149.6198272705078 75.05991363525391 149.6198272705078 Z" stroke="none"/><path d="M 75.05991363525391 1 C 65.06145477294922 1 55.36259460449219 2.957992553710938 46.23274993896484 6.819580078125 C 41.84461212158203 8.675613403320312 37.61217498779297 10.97291564941406 33.65301513671875 13.64767456054688 C 29.73119354248047 16.29719543457031 26.04325103759766 19.34002685546875 22.691650390625 22.691650390625 C 19.34002685546875 26.04325103759766 16.29719543457031 29.73119354248047 13.64767456054688 33.65301513671875 C 10.97291564941406 37.61217498779297 8.675613403320312 41.84461212158203 6.819580078125 46.23274993896484 C 2.957992553710938 55.36259460449219 1 65.06145477294922 1 75.05991363525391 C 1 85.05837249755859 2.957992553710938 94.75723266601562 6.819580078125 103.8870697021484 C 8.675613403320312 108.2752151489258 10.97291564941406 112.5076522827148 13.64767456054688 116.4668121337891 C 16.29719543457031 120.3886337280273 19.34002685546875 124.0765762329102 22.691650390625 127.4281768798828 C 26.04325103759766 130.77978515625 29.73119354248047 133.8226318359375 33.65301513671875 136.4721527099609 C 37.61217498779297 139.1469116210938 41.84461212158203 141.4442138671875 46.23274993896484 143.3002471923828 C 55.36259460449219 147.1618347167969 65.06145477294922 149.1198272705078 75.05991363525391 149.1198272705078 C 85.05837249755859 149.1198272705078 94.75723266601562 147.1618347167969 103.8870697021484 143.3002471923828 C 108.2752151489258 141.4442138671875 112.5076522827148 139.1469116210938 116.4668121337891 136.4721527099609 C 120.3886337280273 133.8226318359375 124.0765762329102 130.77978515625 127.4281768798828 127.4281768798828 C 130.77978515625 124.0765762329102 133.8226318359375 120.3886337280273 136.4721527099609 116.4668121337891 C 139.1469116210938 112.5076522827148 141.4442138671875 108.2752151489258 143.3002471923828 103.8870697021484 C 147.1618347167969 94.75723266601562 149.1198272705078 85.05837249755859 149.1198272705078 75.05991363525391 C 149.1198272705078 65.06145477294922 147.1618347167969 55.36259460449219 143.3002471923828 46.23274993896484 C 141.4442138671875 41.84461212158203 139.1469116210938 37.61217498779297 136.4721527099609 33.65301513671875 C 133.8226318359375 29.73119354248047 130.77978515625 26.04325103759766 127.4281768798828 22.691650390625 C 124.0765762329102 19.34002685546875 120.3886337280273 16.29719543457031 116.4668121337891 13.64767456054688 C 112.5076522827148 10.97291564941406 108.2752151489258 8.675613403320312 103.8870697021484 6.819580078125 C 94.75723266601562 2.957992553710938 85.05837249755859 1 75.05991363525391 1 M 75.05991363525391 0 C 116.5143585205078 0 150.1198272705078 33.60547637939453 150.1198272705078 75.05991363525391 C 150.1198272705078 116.5143585205078 116.5143585205078 150.1198272705078 75.05991363525391 150.1198272705078 C 33.60547637939453 150.1198272705078 0 116.5143585205078 0 75.05991363525391 C 0 33.60547637939453 33.60547637939453 0 75.05991363525391 0 Z" stroke="none" fill="#707070"/></g></svg>