<svg xmlns="http://www.w3.org/2000/svg" width="150.12" height="150.12" viewBox="0 0 150.12 150.12"><g transform="translate(-217 -1099)"><g transform="translate(217 1099)" fill="#fff" opacity="0.67"><path d="M 75.05991363525391 149.6198272705078 C 64.99417114257812 149.6198272705078 55.22977447509766 147.6485595703125 46.03799438476562 143.7607574462891 C 41.62011337280273 141.8921508789062 37.35903549194336 139.5792999267578 33.37311553955078 136.886474609375 C 29.42491340637207 134.2191162109375 25.71221351623535 131.1558532714844 22.33809280395508 127.7817306518555 C 18.96397399902344 124.4076156616211 15.90071392059326 120.6949157714844 13.23335361480713 116.746711730957 C 10.54053401947021 112.7607955932617 8.227673530578613 108.4997100830078 6.359073638916016 104.0818328857422 C 2.47127366065979 94.89005279541016 0.499993622303009 85.12565612792969 0.499993622303009 75.05991363525391 C 0.499993622303009 64.99417114257812 2.47127366065979 55.22977447509766 6.359073638916016 46.03799438476562 C 8.227673530578613 41.62011337280273 10.54053401947021 37.35903549194336 13.23335361480713 33.37311553955078 C 15.90071392059326 29.42491340637207 18.96397399902344 25.71221351623535 22.33809280395508 22.33809280395508 C 25.71221351623535 18.96397399902344 29.42491340637207 15.90071392059326 33.37311553955078 13.23335361480713 C 37.35903549194336 10.54053401947021 41.62011337280273 8.227673530578613 46.03799438476562 6.359073638916016 C 55.22977447509766 2.47127366065979 64.99417114257812 0.499993622303009 75.05991363525391 0.499993622303009 C 85.12565612792969 0.499993622303009 94.89005279541016 2.47127366065979 104.0818328857422 6.359073638916016 C 108.4997100830078 8.227673530578613 112.7607955932617 10.54053401947021 116.746711730957 13.23335361480713 C 120.6949157714844 15.90071392059326 124.4076156616211 18.96397399902344 127.7817306518555 22.33809280395508 C 131.1558532714844 25.71221351623535 134.2191162109375 29.42491340637207 136.886474609375 33.37311553955078 C 139.5792999267578 37.35903549194336 141.8921508789062 41.62011337280273 143.7607574462891 46.03799438476562 C 147.6485595703125 55.22977447509766 149.6198272705078 64.99417114257812 149.6198272705078 75.05991363525391 C 149.6198272705078 85.12565612792969 147.6485595703125 94.89005279541016 143.7607574462891 104.0818328857422 C 141.8921508789062 108.4997100830078 139.5792999267578 112.7607955932617 136.886474609375 116.746711730957 C 134.2191162109375 120.6949157714844 131.1558532714844 124.4076156616211 127.7817306518555 127.7817306518555 C 124.4076156616211 131.1558532714844 120.6949157714844 134.2191162109375 116.746711730957 136.886474609375 C 112.7607955932617 139.5792999267578 108.4997100830078 141.8921508789062 104.0818328857422 143.7607574462891 C 94.89005279541016 147.6485595703125 85.12565612792969 149.6198272705078 75.05991363525391 149.6198272705078 Z" stroke="none"/><path d="M 75.05991363525391 1 C 65.06145477294922 1 55.36259460449219 2.957992553710938 46.23274993896484 6.819580078125 C 41.84461212158203 8.675613403320312 37.61217498779297 10.97291564941406 33.65301513671875 13.64767456054688 C 29.73119354248047 16.29719543457031 26.04325103759766 19.34002685546875 22.691650390625 22.691650390625 C 19.34002685546875 26.04325103759766 16.29719543457031 29.73119354248047 13.64767456054688 33.65301513671875 C 10.97291564941406 37.61217498779297 8.675613403320312 41.84461212158203 6.819580078125 46.23274993896484 C 2.957992553710938 55.36259460449219 1 65.06145477294922 1 75.05991363525391 C 1 85.05837249755859 2.957992553710938 94.75723266601562 6.819580078125 103.8870697021484 C 8.675613403320312 108.2752151489258 10.97291564941406 112.5076522827148 13.64767456054688 116.4668121337891 C 16.29719543457031 120.3886337280273 19.34002685546875 124.0765762329102 22.691650390625 127.4281768798828 C 26.04325103759766 130.77978515625 29.73119354248047 133.8226318359375 33.65301513671875 136.4721527099609 C 37.61217498779297 139.1469116210938 41.84461212158203 141.4442138671875 46.23274993896484 143.3002471923828 C 55.36259460449219 147.1618347167969 65.06145477294922 149.1198272705078 75.05991363525391 149.1198272705078 C 85.05837249755859 149.1198272705078 94.75723266601562 147.1618347167969 103.8870697021484 143.3002471923828 C 108.2752151489258 141.4442138671875 112.5076522827148 139.1469116210938 116.4668121337891 136.4721527099609 C 120.3886337280273 133.8226318359375 124.0765762329102 130.77978515625 127.4281768798828 127.4281768798828 C 130.77978515625 124.0765762329102 133.8226318359375 120.3886337280273 136.4721527099609 116.4668121337891 C 139.1469116210938 112.5076522827148 141.4442138671875 108.2752151489258 143.3002471923828 103.8870697021484 C 147.1618347167969 94.75723266601562 149.1198272705078 85.05837249755859 149.1198272705078 75.05991363525391 C 149.1198272705078 65.06145477294922 147.1618347167969 55.36259460449219 143.3002471923828 46.23274993896484 C 141.4442138671875 41.84461212158203 139.1469116210938 37.61217498779297 136.4721527099609 33.65301513671875 C 133.8226318359375 29.73119354248047 130.77978515625 26.04325103759766 127.4281768798828 22.691650390625 C 124.0765762329102 19.34002685546875 120.3886337280273 16.29719543457031 116.4668121337891 13.64767456054688 C 112.5076522827148 10.97291564941406 108.2752151489258 8.675613403320312 103.8870697021484 6.819580078125 C 94.75723266601562 2.957992553710938 85.05837249755859 1 75.05991363525391 1 M 75.05991363525391 0 C 116.5143585205078 0 150.1198272705078 33.60547637939453 150.1198272705078 75.05991363525391 C 150.1198272705078 116.5143585205078 116.5143585205078 150.1198272705078 75.05991363525391 150.1198272705078 C 33.60547637939453 150.1198272705078 0 116.5143585205078 0 75.05991363525391 C 0 33.60547637939453 33.60547637939453 0 75.05991363525391 0 Z" stroke="none" fill="#707070"/></g><g transform="translate(258.316 1142)" opacity="0.998"><path d="M48,31s3,0,3,2-3,3-3,3Z" transform="translate(2.19)" fill="#000050"/><path d="M51,63H27a3,3,0,0,1,3-3l18-6h3Z" transform="translate(1.878)" fill="#000050"/><path d="M43.545,28h9.1a4,4,0,0,1,4.043,3.65V34a4.117,4.117,0,0,1-2.021,4.04L50.3,40V54L31.15,60V52.88a16.3,16.3,0,0,1-10.235-5.01L25.831,46A2.073,2.073,0,0,0,23.7,44H18.022a19.382,19.382,0,0,1-1.766-4l-2.436-1.14A3.086,3.086,0,0,1,12,36.09v-.04a3,3,0,0,1,.66-1.86c1.2-1.5,3.6-4.69,3.6-6.19V17a7.063,7.063,0,0,0,4.256-4c6.383,0,13.575,15,21.278,15ZM50.3,31v5s3.192-1,3.192-3S50.3,31,50.3,31Z" fill="#000050"/><path d="M51,47.44V48H48V40l4.1-1.96C53.62,37.06,54,35.77,54,34V31.65A3.859,3.859,0,0,0,50.2,28H40c-7.24,0-14-15-20-15a6.83,6.83,0,0,1-4,4V16A14.613,14.613,0,0,1,20.6,5.4,16.053,16.053,0,0,1,31.71,1h9.43C51.56,1,60,9.06,60,19v8c0,3-1.39,9.56-5,13l-1.56,1.56A8.328,8.328,0,0,0,51,47.44Z" transform="translate(2.684)" fill="#000050"/><path d="M21,17s3,1,4,3c.944,1.888,4.57,7.335,14.228,7.939C32.279,26.945,25.786,13,20,13a6.83,6.83,0,0,1-4,4v3.735C17.511,20.272,20.282,19.153,21,17Z" transform="translate(0.97)" fill="#000050"/><path d="M39.793,48.294A37.565,37.565,0,0,1,30,53v7l13-4.333V49.886a2,2,0,0,0-3.207-1.592Z" transform="translate(1.594)" fill="#000050"/><path d="M13,36H12v.09a3.1,3.1,0,0,0,1.71,2.77L16,40V31S15,36,13,36Z" fill="#000050"/><path d="M51,24H49C32.4,23.126,27.248,6.217,26.214,1.965A15.849,15.849,0,0,0,20.6,5.4,14.613,14.613,0,0,0,16,16v1a6.83,6.83,0,0,0,4-4c6,0,12.76,15,20,15H50.2A3.859,3.859,0,0,1,54,31.65V27A3,3,0,0,0,51,24Z" transform="translate(2.684)" fill="#000050"/><path d="M50.91,38.609,48,40v8h3v-.56a8.31,8.31,0,0,1,1.671-4.977,3.919,3.919,0,0,1-1.761-3.854Z" transform="translate(2.684)" fill="#000050"/><path d="M49,61H37.789a1.774,1.774,0,0,1-.96-3.276L30,60a3,3,0,0,0-3,3H51V59A2,2,0,0,1,49,61Z" transform="translate(1.878)" fill="#000050"/><rect width="9.487" height="1.999" transform="translate(3.685 49.052) rotate(-18.453)" fill="#000050"/><rect width="9.487" height="1.999" transform="translate(3.685 56.052) rotate(-18.453)" fill="#000050"/><rect width="4.216" height="1.999" transform="translate(8.684 51.052) rotate(-18.453)" fill="#000050"/><rect width="3.162" height="1.999" transform="translate(15.235 49.052) rotate(-18.453)" fill="#000050"/><rect width="4.216" height="1.999" transform="translate(3.684 45.052) rotate(-18.453)" fill="#000050"/><rect width="3.162" height="1.999" transform="translate(9.684 43.052) rotate(-18.453)" fill="#000050"/><path d="M48,37a.983.983,0,0,0,.316-.052C48.693,36.823,52,35.645,52,33c0-2.373-2.616-3-4-3a1,1,0,0,0-1,1v5A1,1,0,0,0,48,37Zm1-4.855c.5.131,1,.381,1,.855a1.914,1.914,0,0,1-1,1.384Z" transform="translate(2.222)" fill="#000050"/><path d="M42.761,0H32.826C23.117,0,15.215,7.178,15.215,16V28c0,.625-.876,2.463-3.345,5.587a4.014,4.014,0,0,0,1.516,6.163l2,.95a21.624,21.624,0,0,0,1.706,3.776,1.063,1.063,0,0,0,.927.524h5.623a1.073,1.073,0,0,1,.843.406l-4,1.54a1.016,1.016,0,0,0-.632.7.964.964,0,0,0,.248.9,17.057,17.057,0,0,0,9.868,5.207v5.379A4.044,4.044,0,0,0,26.805,63a1.028,1.028,0,0,0,1.054,1H53.147A1.028,1.028,0,0,0,54.2,63V54a1.028,1.028,0,0,0-1.054-1H49.986a1.105,1.105,0,0,0-.333.052l-9.483,3,.666,1.9L50.157,55h1.937v7H29.2a2.13,2.13,0,0,1,1.824-1,1.105,1.105,0,0,0,.333-.052l3.161-1-.666-1.9-1.774.565V52.885a1.02,1.02,0,0,0-.933-.993,14.964,14.964,0,0,1-8.4-3.656l3.4-1.309A1,1,0,0,0,26.805,46a3.084,3.084,0,0,0-3.161-3H18.658a17.874,17.874,0,0,1-1.37-3.251,1.013,1.013,0,0,0-.549-.644l-2.412-1.144a2.09,2.09,0,0,1-1.22-1.908,2.048,2.048,0,0,1,.448-1.266c2.5-3.162,3.767-5.446,3.767-6.787V17.68a8.009,8.009,0,0,0,3.819-3.61c2.417.5,5.306,3.58,8.113,6.568C33.105,24.749,37.092,29,41.557,29H52.3a2.966,2.966,0,0,1,2.95,2.652V34c0,1.651-.385,2.489-1.467,3.169L49.532,39.1a1,1,0,0,0-.6.9V52H51.04V49h2.107A1.028,1.028,0,0,0,54.2,48v-.557a7.084,7.084,0,0,1,2.257-5.171l1.631-1.548c4.225-3.824,5.6-10.9,5.6-13.724V19C63.684,8.523,54.3,0,42.761,0ZM61.577,27c0,3.146-1.57,9.223-4.96,12.293l-1.649,1.565A9.027,9.027,0,0,0,52.105,47H51.04V40.631l3.719-1.686c.04-.018.079-.039.118-.061A5.133,5.133,0,0,0,57.362,34V31.652A5,5,0,0,0,52.3,27H41.557c-3.519,0-7.186-3.91-10.734-7.691C27.3,15.55,23.969,12,20.483,12a1.05,1.05,0,0,0-1,.684,6.176,6.176,0,0,1-2.125,2.664C17.744,7.932,24.521,2,32.826,2h9.935C53.136,2,61.577,9.626,61.577,19Z" transform="translate(0)" fill="#000050"/><path d="M25.445,23.168l-6,4a1,1,0,0,0,0,1.664l6,4,1.11-1.664L21.8,28l4.752-3.168Z" transform="translate(0.826)" fill="#000050"/><rect width="2.108" height="2.001" transform="translate(36.205 57.383) rotate(-18.418)" fill="#000050"/></g></g></svg>