<svg xmlns="http://www.w3.org/2000/svg" width="150.12" height="150.12" viewBox="0 0 150.12 150.12"><g transform="translate(-244 -1101.77)"><g transform="translate(244 1101.77)" fill="#fff" opacity="0.67"><path d="M 75.05991363525391 149.6198272705078 C 64.99417114257812 149.6198272705078 55.22977447509766 147.6485595703125 46.03799438476562 143.7607574462891 C 41.62011337280273 141.8921508789062 37.35903549194336 139.5792999267578 33.37311553955078 136.886474609375 C 29.42491340637207 134.2191162109375 25.71221351623535 131.1558532714844 22.33809280395508 127.7817306518555 C 18.96397399902344 124.4076156616211 15.90071392059326 120.6949157714844 13.23335361480713 116.746711730957 C 10.54053401947021 112.7607955932617 8.227673530578613 108.4997100830078 6.359073638916016 104.0818328857422 C 2.47127366065979 94.89005279541016 0.499993622303009 85.12565612792969 0.499993622303009 75.05991363525391 C 0.499993622303009 64.99417114257812 2.47127366065979 55.22977447509766 6.359073638916016 46.03799438476562 C 8.227673530578613 41.62011337280273 10.54053401947021 37.35903549194336 13.23335361480713 33.37311553955078 C 15.90071392059326 29.42491340637207 18.96397399902344 25.71221351623535 22.33809280395508 22.33809280395508 C 25.71221351623535 18.96397399902344 29.42491340637207 15.90071392059326 33.37311553955078 13.23335361480713 C 37.35903549194336 10.54053401947021 41.62011337280273 8.227673530578613 46.03799438476562 6.359073638916016 C 55.22977447509766 2.47127366065979 64.99417114257812 0.499993622303009 75.05991363525391 0.499993622303009 C 85.12565612792969 0.499993622303009 94.89005279541016 2.47127366065979 104.0818328857422 6.359073638916016 C 108.4997100830078 8.227673530578613 112.7607955932617 10.54053401947021 116.746711730957 13.23335361480713 C 120.6949157714844 15.90071392059326 124.4076156616211 18.96397399902344 127.7817306518555 22.33809280395508 C 131.1558532714844 25.71221351623535 134.2191162109375 29.42491340637207 136.886474609375 33.37311553955078 C 139.5792999267578 37.35903549194336 141.8921508789062 41.62011337280273 143.7607574462891 46.03799438476562 C 147.6485595703125 55.22977447509766 149.6198272705078 64.99417114257812 149.6198272705078 75.05991363525391 C 149.6198272705078 85.12565612792969 147.6485595703125 94.89005279541016 143.7607574462891 104.0818328857422 C 141.8921508789062 108.4997100830078 139.5792999267578 112.7607955932617 136.886474609375 116.746711730957 C 134.2191162109375 120.6949157714844 131.1558532714844 124.4076156616211 127.7817306518555 127.7817306518555 C 124.4076156616211 131.1558532714844 120.6949157714844 134.2191162109375 116.746711730957 136.886474609375 C 112.7607955932617 139.5792999267578 108.4997100830078 141.8921508789062 104.0818328857422 143.7607574462891 C 94.89005279541016 147.6485595703125 85.12565612792969 149.6198272705078 75.05991363525391 149.6198272705078 Z" stroke="none"/><path d="M 75.05991363525391 1 C 65.06145477294922 1 55.36259460449219 2.957992553710938 46.23274993896484 6.819580078125 C 41.84461212158203 8.675613403320312 37.61217498779297 10.97291564941406 33.65301513671875 13.64767456054688 C 29.73119354248047 16.29719543457031 26.04325103759766 19.34002685546875 22.691650390625 22.691650390625 C 19.34002685546875 26.04325103759766 16.29719543457031 29.73119354248047 13.64767456054688 33.65301513671875 C 10.97291564941406 37.61217498779297 8.675613403320312 41.84461212158203 6.819580078125 46.23274993896484 C 2.957992553710938 55.36259460449219 1 65.06145477294922 1 75.05991363525391 C 1 85.05837249755859 2.957992553710938 94.75723266601562 6.819580078125 103.8870697021484 C 8.675613403320312 108.2752151489258 10.97291564941406 112.5076522827148 13.64767456054688 116.4668121337891 C 16.29719543457031 120.3886337280273 19.34002685546875 124.0765762329102 22.691650390625 127.4281768798828 C 26.04325103759766 130.77978515625 29.73119354248047 133.8226318359375 33.65301513671875 136.4721527099609 C 37.61217498779297 139.1469116210938 41.84461212158203 141.4442138671875 46.23274993896484 143.3002471923828 C 55.36259460449219 147.1618347167969 65.06145477294922 149.1198272705078 75.05991363525391 149.1198272705078 C 85.05837249755859 149.1198272705078 94.75723266601562 147.1618347167969 103.8870697021484 143.3002471923828 C 108.2752151489258 141.4442138671875 112.5076522827148 139.1469116210938 116.4668121337891 136.4721527099609 C 120.3886337280273 133.8226318359375 124.0765762329102 130.77978515625 127.4281768798828 127.4281768798828 C 130.77978515625 124.0765762329102 133.8226318359375 120.3886337280273 136.4721527099609 116.4668121337891 C 139.1469116210938 112.5076522827148 141.4442138671875 108.2752151489258 143.3002471923828 103.8870697021484 C 147.1618347167969 94.75723266601562 149.1198272705078 85.05837249755859 149.1198272705078 75.05991363525391 C 149.1198272705078 65.06145477294922 147.1618347167969 55.36259460449219 143.3002471923828 46.23274993896484 C 141.4442138671875 41.84461212158203 139.1469116210938 37.61217498779297 136.4721527099609 33.65301513671875 C 133.8226318359375 29.73119354248047 130.77978515625 26.04325103759766 127.4281768798828 22.691650390625 C 124.0765762329102 19.34002685546875 120.3886337280273 16.29719543457031 116.4668121337891 13.64767456054688 C 112.5076522827148 10.97291564941406 108.2752151489258 8.675613403320312 103.8870697021484 6.819580078125 C 94.75723266601562 2.957992553710938 85.05837249755859 1 75.05991363525391 1 M 75.05991363525391 0 C 116.5143585205078 0 150.1198272705078 33.60547637939453 150.1198272705078 75.05991363525391 C 150.1198272705078 116.5143585205078 116.5143585205078 150.1198272705078 75.05991363525391 150.1198272705078 C 33.60547637939453 150.1198272705078 0 116.5143585205078 0 75.05991363525391 C 0 33.60547637939453 33.60547637939453 0 75.05991363525391 0 Z" stroke="none" fill="#707070"/></g><g transform="translate(220.561 1079.83)" opacity="0.997"><path d="M144.708,202.3a8.615,8.615,0,0,1,5.883,10.68l.005,0q-.021.072-.048.141a8.614,8.614,0,0,1-10.637,5.741l0,.006q-.072-.021-.141-.048a8.622,8.622,0,0,1,4.939-16.521Z" transform="translate(-57.724 -113.47)" fill="#000050"/><path d="M73.2,290.341a27.154,27.154,0,0,1,7.669.992c2.53.779,4.1,2.078,4.1,3.714s-1.565,2.935-4.1,3.714a27.155,27.155,0,0,1-7.669.992,27.152,27.152,0,0,1-7.669-.992c-2.53-.779-4.1-2.078-4.1-3.714s1.565-2.935,4.1-3.714A27.152,27.152,0,0,1,73.2,290.341Z" transform="translate(0 -184)" fill="#000050"/><path d="M84.97,333.77a1.563,1.563,0,0,0-.417-1.065,10.473,10.473,0,0,1-3.217,1.572,28.366,28.366,0,0,1-8,1.062h-.253a28.367,28.367,0,0,1-8-1.062,10.472,10.472,0,0,1-3.217-1.572,1.563,1.563,0,0,0-.417,1.065c0,1.636,1.565,2.935,4.1,3.714a27.146,27.146,0,0,0,7.669.993,27.146,27.146,0,0,0,7.669-.993c2.53-.778,4.1-2.078,4.1-3.714Z" transform="translate(-0.001 -217.792)" fill="#000050"/><path d="M84.97,356.809a1.563,1.563,0,0,0-.417-1.065,10.474,10.474,0,0,1-3.217,1.572,28.365,28.365,0,0,1-8,1.061h-.253a28.366,28.366,0,0,1-8-1.061,10.473,10.473,0,0,1-3.217-1.572,1.564,1.564,0,0,0-.417,1.066c0,1.635,1.565,2.935,4.1,3.714a27.154,27.154,0,0,0,7.669.992,27.154,27.154,0,0,0,7.669-.992c2.53-.779,4.1-2.078,4.1-3.714Z" transform="translate(-0.001 -236.312)" fill="#000050"/><path d="M84.97,379.849a1.563,1.563,0,0,0-.417-1.065,10.477,10.477,0,0,1-3.217,1.572,28.365,28.365,0,0,1-8,1.062h-.253a28.366,28.366,0,0,1-8-1.062,10.476,10.476,0,0,1-3.217-1.572,1.563,1.563,0,0,0-.417,1.065c0,1.635,1.565,2.935,4.1,3.714a27.155,27.155,0,0,0,7.669.992,27.155,27.155,0,0,0,7.669-.992c2.53-.779,4.1-2.078,4.1-3.714Z" transform="translate(-0.001 -254.646)" fill="#000050"/><path d="M84.97,402.889a1.563,1.563,0,0,0-.417-1.065,10.477,10.477,0,0,1-3.217,1.572,28.365,28.365,0,0,1-8,1.062h-.253a28.366,28.366,0,0,1-8-1.062,10.477,10.477,0,0,1-3.217-1.572,1.563,1.563,0,0,0-.417,1.065c0,1.635,1.565,2.935,4.1,3.714a27.157,27.157,0,0,0,7.669.992,27.157,27.157,0,0,0,7.669-.992c2.53-.779,4.1-2.078,4.1-3.714Z" transform="translate(-0.001 -272.98)" fill="#000050"/><path d="M168.231,99.488a2.239,2.239,0,0,1-.709-1,3.8,3.8,0,0,1-.227-1.363,4.483,4.483,0,0,1,.921-2.874v-.1l.3-.184a2.224,2.224,0,0,1,.356-.23l.1-.051c1.027-.63,2.093-1.223,3.14-1.822,1.624-.929,3.248-1.86,4.86-2.811,1.651-.975,3.307-1.972,4.9-3.037a14.611,14.611,0,0,0,2.561-1.986,2.213,2.213,0,0,0,.2-.308,5.482,5.482,0,0,0,.078-3.7,6.7,6.7,0,0,0-2.044-3.351,3.026,3.026,0,0,0-.415-.27,9.062,9.062,0,0,0-1.1-.485,15.694,15.694,0,0,0-8.543-.342c-2.62.611-5.419,2-6.721,4.476-.126.239-.228.5-.336.745-1.272,2.9-2.068,5.117-4.4,7.392a5.5,5.5,0,0,1-2.823,1.54,3.708,3.708,0,0,1-2.432-.326,2.51,2.51,0,0,1-.6-.447c-.8-.821-.435-1.9-.076-2.808.345-.872.748-1.736,1.135-2.591.546-1.207,1.085-2.412,1.558-3.65a26.525,26.525,0,0,1,4.148-7.347c.7-.875,1.283-1.944,2.021-2.783s1.463-1.669,2.172-2.524a21.889,21.889,0,0,1,3.781-3.237,10.7,10.7,0,0,1,3.494-1.948,68.143,68.143,0,0,1,7.64-1.174,35.646,35.646,0,0,1,7.666.076,42.117,42.117,0,0,1,5.636,1.094,13.145,13.145,0,0,0,1.534.355,7.447,7.447,0,0,0,2.37-.15c1.951-.358,3.949-.906,5.866-1.4l2.032-.925,4.763,18.824-2.353.653a46.983,46.983,0,0,0-10.455,7.724c-1.728,1.581-3.856,4.794-6.016,5.74-.494.216-1,.515-1.48.763a19.685,19.685,0,0,1-2.49,1.093c-4.379,1.539-12.769,3.958-16.313,5.6a2.946,2.946,0,0,1-2.672-.081,5.257,5.257,0,0,1-1.042-.772Z" transform="translate(-75.241 0)" fill="#000050" fill-rule="evenodd"/><path d="M202.26,150.093a21.391,21.391,0,0,0,1.966-2.7c.384-.611.752-1.235,1.095-1.87a6.955,6.955,0,0,0,.522-1.095c.279-.937.767-2.525,1.077-3.7a8.379,8.379,0,0,0-5.2,3.682c-.113.214-.2.448-.3.67a31.244,31.244,0,0,1-2.875,5.682,3.911,3.911,0,0,0,2.066.4,3.087,3.087,0,0,0,1.651-1.061Zm4.539-4.065c-.385.748-.806,1.484-1.254,2.2-.331.526-.68,1.051-1.051,1.56,1.555.162,3.964-.1,4.774-1.276a30.442,30.442,0,0,0,3.769-8.224l.013-.042a15.7,15.7,0,0,0-4.508.11c-.117.413-.223.794-.274,1.016-.269,1.19-.578,2.323-.927,3.494a3.3,3.3,0,0,1-.158.378c-.121.266-.252.528-.386.788Z" transform="translate(-109.526 -64.045)" fill="#000050" fill-rule="evenodd"/></g></g></svg>