<svg xmlns="http://www.w3.org/2000/svg" xmlns:xlink="http://www.w3.org/1999/xlink" width="330" height="330" viewBox="0 0 330 330"><defs><linearGradient id="a" x1="-25.798" y1="0.5" x2="-24.798" y2="0.5" gradientUnits="objectBoundingBox"><stop offset="0" stop-color="#94edcb"/><stop offset="1" stop-color="#8ceae7"/></linearGradient><linearGradient id="b" x1="-2.611" y1="2.329" x2="-2.611" y2="1.297" gradientUnits="objectBoundingBox"><stop offset="0" stop-color="#ffd0ce"/><stop offset="1" stop-color="#f4aaa7"/></linearGradient><linearGradient id="c" x1="18.228" y1="38.306" x2="19.359" y2="38.306" xlink:href="#b"/><linearGradient id="d" x1="-7.005" y1="38.772" x2="-5.755" y2="38.772" xlink:href="#b"/></defs><g transform="translate(-475 -4439)"><g transform="translate(475 4439)" fill="#fff" opacity="0.67"><path d="M 165 329.5 C 153.8385467529297 329.5 142.6842956542969 328.3755798339844 131.8470001220703 326.157958984375 C 121.2853775024414 323.9967041015625 110.8966217041016 320.7718811035156 100.9693298339844 316.572998046875 C 91.22216796875 312.4502563476562 81.82091522216797 307.3474731445312 73.02683258056641 301.4062805175781 C 64.31616973876953 295.5214538574219 56.12504196166992 288.7631530761719 48.68095779418945 281.319091796875 C 41.23687362670898 273.875 34.47854232788086 265.683837890625 28.59370803833008 256.9731750488281 C 22.65254211425781 248.1790771484375 17.54974937438965 238.7778778076172 13.42704200744629 229.0306701660156 C 9.228124618530273 219.1033782958984 6.003291606903076 208.7146301269531 3.842083215713501 198.1530456542969 C 1.624416708946228 187.3157501220703 0.5 176.1614532470703 0.5 165 C 0.5 153.8385467529297 1.624416708946228 142.6842956542969 3.842083215713501 131.8470001220703 C 6.003291606903076 121.2853775024414 9.228124618530273 110.8966217041016 13.42704200744629 100.9693298339844 C 17.54974937438965 91.22216796875 22.65254211425781 81.82091522216797 28.59370803833008 73.02683258056641 C 34.47854232788086 64.31616973876953 41.23687362670898 56.12504196166992 48.68095779418945 48.68095779418945 C 56.12504196166992 41.23687362670898 64.31616973876953 34.47854232788086 73.02683258056641 28.59370803833008 C 81.82091522216797 22.65254211425781 91.22216796875 17.54974937438965 100.9693298339844 13.42704200744629 C 110.8966217041016 9.228124618530273 121.2853775024414 6.003291606903076 131.8470001220703 3.842083215713501 C 142.6842956542969 1.624416708946228 153.8385467529297 0.5 165 0.5 C 176.1614532470703 0.5 187.3157501220703 1.624416708946228 198.1530456542969 3.842083215713501 C 208.7146301269531 6.003291606903076 219.1033782958984 9.228124618530273 229.0306701660156 13.42704200744629 C 238.7778778076172 17.54974937438965 248.1790771484375 22.65254211425781 256.9731750488281 28.59370803833008 C 265.683837890625 34.47854232788086 273.875 41.23687362670898 281.319091796875 48.68095779418945 C 288.7631530761719 56.12504196166992 295.5214538574219 64.31616973876953 301.4062805175781 73.02683258056641 C 307.3474731445312 81.82091522216797 312.4502563476562 91.22216796875 316.572998046875 100.9693298339844 C 320.7718811035156 110.8966217041016 323.9967041015625 121.2853775024414 326.157958984375 131.8470001220703 C 328.3755798339844 142.6842956542969 329.5 153.8385467529297 329.5 165 C 329.5 176.1614532470703 328.3755798339844 187.3157501220703 326.157958984375 198.1530456542969 C 323.9967041015625 208.7146301269531 320.7718811035156 219.1033782958984 316.572998046875 229.0306701660156 C 312.4502563476562 238.7778778076172 307.3474731445312 248.1790771484375 301.4062805175781 256.9731750488281 C 295.5214538574219 265.683837890625 288.7631530761719 273.875 281.319091796875 281.319091796875 C 273.875 288.7631530761719 265.683837890625 295.5214538574219 256.9731750488281 301.4062805175781 C 248.1790771484375 307.3474731445312 238.7778778076172 312.4502563476562 229.0306701660156 316.572998046875 C 219.1033782958984 320.7718811035156 208.7146301269531 323.9967041015625 198.1530456542969 326.157958984375 C 187.3157501220703 328.3755798339844 176.1614532470703 329.5 165 329.5 Z" stroke="none"/><path d="M 165 1 C 153.8721618652344 1 142.7515869140625 2.121002197265625 131.9472045898438 4.3319091796875 C 121.4179534912109 6.48651123046875 111.0610046386719 9.701507568359375 101.1640777587891 13.88751220703125 C 91.44662475585938 17.9976806640625 82.07408142089844 23.08493041992188 73.3067626953125 29.008056640625 C 64.62240600585938 34.87503051757812 56.45608520507812 41.6129150390625 49.03448486328125 49.03448486328125 C 41.6129150390625 56.45608520507812 34.87503051757812 64.62240600585938 29.008056640625 73.3067626953125 C 23.08493041992188 82.07408142089844 17.9976806640625 91.44662475585938 13.88751220703125 101.1640777587891 C 9.701507568359375 111.0610046386719 6.48651123046875 121.4179534912109 4.3319091796875 131.9472045898438 C 2.121002197265625 142.7515869140625 1 153.8721618652344 1 165 C 1 176.1278381347656 2.121002197265625 187.2484130859375 4.3319091796875 198.0527954101562 C 6.48651123046875 208.58203125 9.701507568359375 218.9389953613281 13.88751220703125 228.8358764648438 C 17.9976806640625 238.5533447265625 23.08493041992188 247.9259185791016 29.008056640625 256.6932373046875 C 34.87503051757812 265.3775329589844 41.6129150390625 273.5439147949219 49.03448486328125 280.9655151367188 C 56.45608520507812 288.3870849609375 64.62240600585938 295.1249694824219 73.3067626953125 300.991943359375 C 82.07408142089844 306.9150390625 91.44662475585938 312.0023193359375 101.1640777587891 316.1124572753906 C 111.0610046386719 320.2984924316406 121.4179534912109 323.5134887695312 131.9472045898438 325.6680908203125 C 142.7515869140625 327.8789978027344 153.8721618652344 329 165 329 C 176.1278381347656 329 187.2484130859375 327.8789978027344 198.0527954101562 325.6680908203125 C 208.58203125 323.5134887695312 218.9389953613281 320.2984924316406 228.8358764648438 316.1124572753906 C 238.5533447265625 312.0023193359375 247.9259185791016 306.9150390625 256.6932373046875 300.991943359375 C 265.3775329589844 295.1249694824219 273.5439147949219 288.3870849609375 280.9655151367188 280.9655151367188 C 288.3870849609375 273.5439147949219 295.1249694824219 265.3775329589844 300.991943359375 256.6932373046875 C 306.9150390625 247.9259185791016 312.0023193359375 238.5533447265625 316.1124572753906 228.8358764648438 C 320.2984924316406 218.9389953613281 323.5134887695312 208.58203125 325.6680908203125 198.0527954101562 C 327.8789978027344 187.2484130859375 329 176.1278381347656 329 165 C 329 153.8721618652344 327.8789978027344 142.7515869140625 325.6680908203125 131.9472045898438 C 323.5134887695312 121.4179534912109 320.2984924316406 111.0610046386719 316.1124572753906 101.1640777587891 C 312.0023193359375 91.44662475585938 306.9150390625 82.07408142089844 300.991943359375 73.3067626953125 C 295.1249694824219 64.62240600585938 288.3870849609375 56.45608520507812 280.9655151367188 49.03448486328125 C 273.5439147949219 41.6129150390625 265.3775329589844 34.87503051757812 256.6932373046875 29.008056640625 C 247.9259185791016 23.08493041992188 238.5533447265625 17.9976806640625 228.8358764648438 13.88751220703125 C 218.9389953613281 9.701507568359375 208.58203125 6.48651123046875 198.0527954101562 4.3319091796875 C 187.2484130859375 2.121002197265625 176.1278381347656 1 165 1 M 165 0 C 256.126953125 0 330 73.87298583984375 330 165 C 330 256.126953125 256.126953125 330 165 330 C 73.87298583984375 330 0 256.126953125 0 165 C 0 73.87298583984375 73.87298583984375 0 165 0 Z" stroke="none" fill="#707070"/></g><g transform="translate(313.653 4310.996)"><rect width="123.088" height="183.962" rx="38.546" transform="translate(384.435 388.557) rotate(180)" fill="#4acfd3"/><rect width="123.088" height="183.962" rx="38.546" transform="translate(391.166 388.557) rotate(180)" fill="url(#a)"/><circle cx="4.259" cy="4.259" r="4.259" transform="translate(325.363 374.573)" fill="#92ffdd"/><g transform="translate(277.847 233.723)"><rect width="106.588" height="134.737" transform="translate(106.588 134.737) rotate(180)" fill="#dcfafb" opacity="0.6"/></g><g transform="translate(275.734 162.119)"><g transform="translate(59.949 18.806)"><ellipse cx="7.651" cy="5.665" rx="7.651" ry="5.665" transform="matrix(0.055, -0.998, 0.998, 0.055, 0, 15.287)" fill="#003977"/><ellipse cx="7.651" cy="4.882" rx="7.651" ry="4.882" transform="translate(0 15.279) rotate(-86.853)" fill="#004381"/></g><path d="M574.308,205.014c-.147,3.313-1.227,6.126-2.44,6.07-1.3-.06-3.077-3-2.93-6.318s.972-4.481,2.885-4.393S574.456,201.7,574.308,205.014Z" transform="translate(-504.395 -188.689)" fill="#004381"/><path d="M469.82,347.384c0-4.279,9.83-10.826,15.955-10.826,8.589,0,16.877,5.1,16.877,11.078s-8.288,10.575-16.877,10.575S469.82,353.364,469.82,347.384Z" transform="translate(-435.548 -283.292)" fill="#008baf"/><path d="M502.664,677.911c-.778-6.953-7.349-27.006-7.349-27.006H446.808l-10.692,11-2.529,45.923,69.794.019C503.66,696.506,503.542,685.762,502.664,677.911Z" transform="translate(-410.379 -501.651)" fill="#00649f"/><path d="M513.538,296.267l-23.351.04,1.534-19.426,1.021-21.942,18.525,19.382Z" transform="translate(-449.696 -226.596)" fill="url(#b)"/><ellipse cx="3.123" cy="3.577" rx="3.123" ry="3.577" transform="matrix(1, -0.017, 0.017, 1, 62.468, 23.181)" fill="url(#c)"/><path d="M513.4,230.817l-5.123.092c-4.108.072-8.674-3.529-9.587-9.313-.458-2.9-1.251-9.177-1.251-9.177l-1.9-22.464,26.171-.456-.792,34.232A7.468,7.468,0,0,1,513.4,230.817Z" transform="translate(-453.414 -181.139)" fill="#ffd0ce"/><path d="M511.035,179.781c-6.109.737-9.822-2.157-16.228-1.9a5.7,5.7,0,0,1-5.989-6.568c1.33-6.475,11.8-5.29,15.776-5.06,9.6.553,13.288-.995,15.479-1.91a1.573,1.573,0,0,1,2.207,1.457C522.047,175.435,517.3,179.025,511.035,179.781Z" transform="translate(-448.68 -163.575)" fill="#005592"/><path d="M485.375,194.612c-.671,2-.386,7.751-2.268,8.124s-6.268-1.4-6.267-11.387c0-3.654,2.467-9.763,6.852-8.091C491.391,186.194,487.02,189.718,485.375,194.612Z" transform="translate(-440.425 -176.606)" fill="#005592"/><path d="M520.575,372.013s-7.748,6.015-21.6,2.666l7.232,47.71L504.639,461.9l.489,2.542,37.459-2.578L528.006,405.39Z" transform="translate(-455.798 -307.921)" fill="#b4f1f4"/><path d="M423.071,366.668l13.86-7.485,7.056,2.562,22.929,56.57V487.8s-10.142,2.2-10.8,2.2-33.042-1.952-33.042-1.952l5.262-51.821-2.866-42.876Z" transform="translate(-403.074 -299.008)" fill="#00a6ba"/><path d="M565.094,351.51l9.959,48.35,8.417,28.211,1.514-32.214,2.083-30.979h0Z" transform="translate(-501.73 -293.678)" fill="#00a6ba"/><path d="M624.839,395.175c3.547,1.074,4.909,8.778,5.963,16.2,1.329,9.359,3.313,95.4,3.313,95.4s-7.649-13.463-9.624-16.471c-1.321-2.011-2.7-7.259-3.029-9.8C618.733,459.325,617.925,393.082,624.839,395.175Z" transform="translate(-539.5 -323.976)" fill="#00a6ba"/><path d="M491.229,242.354a4.215,4.215,0,0,0-1.429-.088,3.591,3.591,0,1,0,.788,7.11,4.214,4.214,0,0,0,1.349-.384Z" transform="translate(-446.987 -217.775)" fill="url(#d)"/><path d="M453.088,354.391c-.981,3.255-5.067,17.527-5.067,17.527l6.911,1.5-5.709,5.108,35.025,32.816s-23.459-60.237-23.923-62.2c0,0-5.106,2.059-6.35,3.076A6.5,6.5,0,0,0,453.088,354.391Z" transform="translate(-420.406 -292.039)" fill="#008baf"/><path d="M576.67,360.679l-4.131,3.342,5.705,1.508-2.078,42.525s-4.99-16.066-8.565-31.9c-2.652-11.744-4.257-24.68-5.237-27.373,0,0,3.045,1.309,4.1,1.96C567.136,351.158,576.67,360.679,576.67,360.679Z" transform="translate(-499.833 -291.783)" fill="#008baf"/><g transform="translate(40.079)"><path d="M511.86,164.8c-2.356-1.773-6.085-3.455-11.645-2.3-10.164,2.108-11.342,19.195-11.379,19.923l2.086.1c.008-.163,1.13-16.274,9.733-18.057a11.759,11.759,0,0,1,7.365.448C508.084,164.939,511.96,164.876,511.86,164.8Z" transform="translate(-488.836 -162.119)" fill="#00bac8"/></g><path d="M514.6,278.58h-2.967a1.368,1.368,0,0,0-1.29.933,10.858,10.858,0,0,1-8.415-5.2l-2.326-3.875-.994.6,2.326,3.875a12.025,12.025,0,0,0,9.387,5.769,1.369,1.369,0,0,0,1.312,1H514.6a1.372,1.372,0,0,0,1.368-1.368v-.364A1.372,1.372,0,0,0,514.6,278.58Z" transform="translate(-455.548 -237.36)" fill="#005592"/><g transform="translate(34.229 19.243)"><ellipse cx="5.665" cy="7.651" rx="5.665" ry="7.651" transform="translate(0.235 1.216) rotate(-6.16)" fill="#004381"/><ellipse cx="4.882" cy="7.651" rx="4.882" ry="7.651" transform="translate(0.236 1.224) rotate(-6.161)" fill="#003977"/><ellipse cx="4.471" cy="6.036" rx="4.471" ry="6.036" transform="translate(0.191 2.849) rotate(-6.16)" fill="#00bac8"/><ellipse cx="3.746" cy="5.895" rx="3.746" ry="5.895" transform="translate(0 3.006) rotate(-6.161)" fill="#00d0d3"/></g><path d="M633.267,426.513s-.449-29.919.333-30.684c1.225-1.2,4.433,1.388,5.908,3.058,4.054,4.589,23.438,46.538,19.158,62.476-.653,2.434-7.8,5.113-7.8,5.113s-10.441-10.376-10.838-11.292c-2.658-6.142-5.959-26.028-5.959-26.028A4.7,4.7,0,0,1,633.267,426.513Z" transform="translate(-548.996 -324.251)" fill="#00a6ba"/><path d="M384.643,417.158s-4.068-34.58-5.077-35.26c-1.579-1.065-8.692,5.864-10.371,8.644-4.627,7.66-8.133,25.676-9.5,33.542-1.65,9.471-2.943,25.862-1.45,34.574.46,2.684,3.214,10.945,3.214,10.945l18.693-28.147Z" transform="translate(-357.584 -314.71)" fill="#00a6ba"/><path d="M489.484,519.9h42.838l9.628-60.707H499.111Z" transform="translate(-449.207 -368.477)" fill="#dcfafb"/><path d="M608.363,534.315l-7.936-4.528a66.334,66.334,0,0,1-6.492-3.218c-.872-.652-7.651-5.267-7.873-7.709a7.6,7.6,0,0,1,.415-1.518,11.461,11.461,0,0,0-.8-1.773c-.294-.384,1.011-1.274,2.562-1.12.092.009,1.3.248,2.719.531a25.905,25.905,0,0,0,5.81.059,16.592,16.592,0,0,0-4.5-1.769c-1.106-.195-3.656-.252-4.4-1.258-.2-.277,0-1.624,1.824-1.979,1.6-.311,10.131.817,15.4,1.99.653.145,1.252-3.711,1.252-3.711,1.621,0,4.165,2.669,4.945,3.805,1.744,2.54,3.615,13.063,3.615,13.063Z" transform="translate(-515.996 -402.6)" fill="#ffd0ce"/><path d="M637.688,563.933l13.754-9.488s11.435,9.812,11.464,14.416c.013,2.024-2.928,6.17-4.953,7.462a11.462,11.462,0,0,1-6.362,1.181C646.413,576.166,637.688,563.933,637.688,563.933Z" transform="translate(-552.157 -434.646)" fill="#00a6ba"/><path d="M470.468,558.164l13.05-3.887s4.408-.665,5.553-1.521c.872-.652,7.651-5.266,7.873-7.709a7.625,7.625,0,0,0-.415-1.518,11.485,11.485,0,0,1,.8-1.773c.294-.384-1.011-1.274-2.561-1.119-.092.009-1.3.247-2.72.53a25.9,25.9,0,0,1-5.809.059,24.566,24.566,0,0,1,4.56-1.432c1.106-.195,3.656-.252,4.4-1.258.2-.277,0-1.624-1.824-1.979-1.6-.311-10.308.033-15.461,1.654a.514.514,0,0,1-.654-.609l.486-2.133c-2.962.164-3.606,2.041-4.452,3.1-1.922,2.407-9.352,10.245-9.352,10.245Z" transform="translate(-431.466 -421.464)" fill="#ffd0ce"/><path d="M409.508,578.946l-9.423-16.627-11.742,5-14.173,14.8s-5.245,11.951-4.213,12.9c1.2,1.1,11.868-1.586,14.271-2.35C391.555,590.33,409.508,578.946,409.508,578.946Z" transform="translate(-366.085 -440.115)" fill="#00a6ba"/></g></g></g></svg>