<svg xmlns="http://www.w3.org/2000/svg" width="323.871" height="323.871" viewBox="0 0 323.871 323.871"><g transform="translate(0)" fill="#fff" opacity="0.67"><path d="M 161.9354858398438 323.3709716796875 C 150.9819793701172 323.3709716796875 140.0354919433594 322.2674865722656 129.4000701904297 320.0911865234375 C 119.0352325439453 317.9702453613281 108.8400268554688 314.8054504394531 99.09765625 310.6847839355469 C 89.53206634521484 306.6388549804688 80.30598449707031 301.631103515625 71.67569732666016 295.8006591796875 C 63.1273193359375 290.0254516601562 55.08877563476562 283.3930358886719 47.78335952758789 276.0876159667969 C 40.47794342041016 268.7821960449219 33.84552764892578 260.74365234375 28.0703182220459 252.1952819824219 C 22.23986053466797 243.5649871826172 17.23211097717285 234.3388977050781 13.18619441986084 224.7733154296875 C 9.06552791595459 215.0309448242188 5.900735855102539 204.8357391357422 3.779777526855469 194.4709014892578 C 1.603485822677612 183.8354797363281 0.4999858438968658 172.8889923095703 0.4999858438968658 161.9354858398438 C 0.4999858438968658 150.9819793701172 1.603485822677612 140.0354919433594 3.779777526855469 129.4000701904297 C 5.900735855102539 119.0352325439453 9.06552791595459 108.8400268554688 13.18619441986084 99.09765625 C 17.23211097717285 89.53206634521484 22.23986053466797 80.30598449707031 28.0703182220459 71.67569732666016 C 33.84552764892578 63.1273193359375 40.47794342041016 55.08877563476562 47.78335952758789 47.78335952758789 C 55.08877563476562 40.47794342041016 63.1273193359375 33.84552764892578 71.67569732666016 28.0703182220459 C 80.30598449707031 22.23986053466797 89.53206634521484 17.23211097717285 99.09765625 13.18619441986084 C 108.8400268554688 9.06552791595459 119.0352325439453 5.900735855102539 129.4000701904297 3.779777526855469 C 140.0354919433594 1.603485822677612 150.9819793701172 0.4999858438968658 161.9354858398438 0.4999858438968658 C 172.8889923095703 0.4999858438968658 183.8354797363281 1.603485822677612 194.4709014892578 3.779777526855469 C 204.8357391357422 5.900735855102539 215.0309448242188 9.06552791595459 224.7733154296875 13.18619441986084 C 234.3388977050781 17.23211097717285 243.5649871826172 22.23986053466797 252.1952819824219 28.0703182220459 C 260.74365234375 33.84552764892578 268.7821960449219 40.47794342041016 276.0876159667969 47.78335952758789 C 283.3930358886719 55.08877563476562 290.0254516601562 63.1273193359375 295.8006591796875 71.67569732666016 C 301.631103515625 80.30598449707031 306.6388549804688 89.53206634521484 310.6847839355469 99.09765625 C 314.8054504394531 108.8400268554688 317.9702453613281 119.0352325439453 320.0911865234375 129.4000701904297 C 322.2674865722656 140.0354919433594 323.3709716796875 150.9819793701172 323.3709716796875 161.9354858398438 C 323.3709716796875 172.8889923095703 322.2674865722656 183.8354797363281 320.0911865234375 194.4709014892578 C 317.9702453613281 204.8357391357422 314.8054504394531 215.0309448242188 310.6847839355469 224.7733154296875 C 306.6388549804688 234.3388977050781 301.631103515625 243.5649871826172 295.8006591796875 252.1952819824219 C 290.0254516601562 260.74365234375 283.3930358886719 268.7821960449219 276.0876159667969 276.0876159667969 C 268.7821960449219 283.3930358886719 260.74365234375 290.0254516601562 252.1952819824219 295.8006591796875 C 243.5649871826172 301.631103515625 234.3388977050781 306.6388549804688 224.7733154296875 310.6847839355469 C 215.0309448242188 314.8054504394531 204.8357391357422 317.9702453613281 194.4709014892578 320.0911865234375 C 183.8354797363281 322.2674865722656 172.8889923095703 323.3709716796875 161.9354858398438 323.3709716796875 Z" stroke="none"/><path d="M 161.9354858398438 1 C 151.0155639648438 1 140.102783203125 2.100067138671875 129.5003204345703 4.2696533203125 C 119.1677703857422 6.38397216796875 109.0044097900391 9.538848876953125 99.29244995117188 13.64669799804688 C 89.75657653808594 17.68002319335938 80.55911254882812 22.6722412109375 71.95561218261719 28.48464965820312 C 63.43356323242188 34.24203491210938 55.41983032226562 40.85397338867188 48.13690185546875 48.13690185546875 C 40.85397338867188 55.41983032226562 34.24203491210938 63.43356323242188 28.48464965820312 71.95561218261719 C 22.6722412109375 80.55911254882812 17.68002319335938 89.75657653808594 13.64669799804688 99.29244995117188 C 9.538848876953125 109.0044097900391 6.38397216796875 119.1677703857422 4.2696533203125 129.5003204345703 C 2.100067138671875 140.102783203125 1 151.0155639648438 1 161.9354858398438 C 1 172.8554077148438 2.100067138671875 183.7681884765625 4.2696533203125 194.3706512451172 C 6.38397216796875 204.7031860351562 9.538848876953125 214.8665771484375 13.64669799804688 224.5785217285156 C 17.68002319335938 234.1144104003906 22.6722412109375 243.3118591308594 28.48464965820312 251.9153594970703 C 34.24203491210938 260.4374084472656 40.85397338867188 268.4511413574219 48.13690185546875 275.7340698242188 C 55.41983032226562 283.0169982910156 63.43356323242188 289.6289367675781 71.95561218261719 295.3863220214844 C 80.55911254882812 301.19873046875 89.75657653808594 306.1909484863281 99.29244995117188 310.2242736816406 C 109.0044097900391 314.3321228027344 119.1677703857422 317.4869995117188 129.5003204345703 319.601318359375 C 140.102783203125 321.7709045410156 151.0155639648438 322.8709716796875 161.9354858398438 322.8709716796875 C 172.8554077148438 322.8709716796875 183.7681884765625 321.7709045410156 194.3706512451172 319.601318359375 C 204.7031860351562 317.4869995117188 214.8665771484375 314.3321228027344 224.5785217285156 310.2242736816406 C 234.1144104003906 306.1909484863281 243.3118591308594 301.19873046875 251.9153594970703 295.3863220214844 C 260.4374084472656 289.6289367675781 268.4511413574219 283.0169982910156 275.7340698242188 275.7340698242188 C 283.0169982910156 268.4511413574219 289.6289367675781 260.4374084472656 295.3863220214844 251.9153594970703 C 301.19873046875 243.3118591308594 306.1909484863281 234.1144104003906 310.2242736816406 224.5785217285156 C 314.3321228027344 214.8665771484375 317.4869995117188 204.7031860351562 319.601318359375 194.3706512451172 C 321.7709045410156 183.7681884765625 322.8709716796875 172.8554077148438 322.8709716796875 161.9354858398438 C 322.8709716796875 151.0155639648438 321.7709045410156 140.102783203125 319.601318359375 129.5003204345703 C 317.4869995117188 119.1677703857422 314.3321228027344 109.0044097900391 310.2242736816406 99.29244995117188 C 306.1909484863281 89.75657653808594 301.19873046875 80.55911254882812 295.3863220214844 71.95561218261719 C 289.6289367675781 63.43356323242188 283.0169982910156 55.41983032226562 275.7340698242188 48.13690185546875 C 268.4511413574219 40.85397338867188 260.4374084472656 34.24203491210938 251.9153594970703 28.48464965820312 C 243.3118591308594 22.6722412109375 234.1144104003906 17.68002319335938 224.5785217285156 13.64669799804688 C 214.8665771484375 9.538848876953125 204.7031860351562 6.38397216796875 194.3706512451172 4.2696533203125 C 183.7681884765625 2.100067138671875 172.8554077148438 1 161.9354858398438 1 M 161.9354858398438 0 C 251.3699951171875 0 323.8709716796875 72.50099182128906 323.8709716796875 161.9354858398438 C 323.8709716796875 251.3699951171875 251.3699951171875 323.8709716796875 161.9354858398438 323.8709716796875 C 72.50099182128906 323.8709716796875 0 251.3699951171875 0 161.9354858398438 C 0 72.50099182128906 72.50099182128906 0 161.9354858398438 0 Z" stroke="none" fill="#707070"/></g><g transform="translate(57.904 64.529)"><path d="M272.6,237.99c4.927,2.286,18.081,24.555,18.671,25.529,1.268,2.153,8.4,15,8.374,15.083,8.6,6.556,17.752,12.943,17.752,12.943l.382,4.852s-17.307-2.619-26.505-7.84c-6.821-3.871-18.339-22.753-18.615-24.625a21.162,21.162,0,0,1-.206-4.66S267.706,235.734,272.6,237.99Z" transform="translate(-156.041 -212.997)" fill="#ff505c"/><path d="M281.2,340.99c-.69-.673-7.073.745-7.091,1.138-.052,1.212.2,5.806.892,6.333.668.512,7.117-.3,7.1-1.47C282.091,345.98,281.866,341.641,281.2,340.99Z" transform="translate(-154.276 -164.105)" fill="#ff505c"/><path d="M274.632,345.257s-2.46,4.634.087,7.728c0,0,15.642-1.178,20.248-2.487,0,0-.58-5.747-4.666-5.741a59.831,59.831,0,0,0-8.1.64S277.946,348.068,274.632,345.257Z" transform="translate(-154.533 -162.232)" fill="#1f0d52"/><path d="M254.615,342.432c-.4-.879-6.852-1.907-7.013-1.546-.494,1.109-1.948,5.473-1.5,6.218.435.72,6.732,2.333,7.147,1.24C253.608,347.4,254.994,343.28,254.615,342.432Z" transform="translate(-167.612 -164.105)" fill="#ff505c"/><path d="M246.978,344.081s-3.992,3.407-2.761,7.219c0,0,14.981,4.653,19.746,5.128,0,0,1.571-5.559-2.231-7.055A59.538,59.538,0,0,0,253.965,347S249.025,347.914,246.978,344.081Z" transform="translate(-168.579 -162.553)" fill="#1f0d52"/><path d="M261.21,294.218c.479,1.08,1.006,2.214,1.535,3.379,3.678,7.976,8.162,17.261,8.861,22.183,8.457,9.626,7.552,29.3,8.172,40.162.485,8.909,1.046,18.646,1.288,19.444.016.03,9.313.872,9.313.872,2.121-11.736,6.89-49.314,6.89-57.479,0-8.446-7.508-41.3-13.32-52.037-5.529-10.213-23.868,10.086-25.977,12.8C257.164,284.58,258.814,288.853,261.21,294.218Z" transform="translate(-162.035 -198.729)" fill="#b1a6ff"/><path d="M260.1,287.01c.479,1.08,1.006,2.214,1.535,3.379a210.95,210.95,0,0,1,8.861,22.182c5.131,17.025,7.007,49,9.459,59.606.8.466,2.3.923,6.169.585.124-7.869-4.585-17.261-5.936-24.877-2.6-14.543,1.518-30.309-5.579-43.942-1.992-3.824-5.079-7.684-5.073-12.191,0-2.231,1.285-4.851-.114-6.923-2.487-3.69-6.583-.854-8.395,1.9a.724.724,0,0,0-.7.1C260.256,286.9,260.17,286.947,260.1,287.01Z" transform="translate(-160.925 -191.521)" fill="#9287fc"/><path d="M272.456,259.271a22.737,22.737,0,0,0,5.159,15.8c3.312,3.727,14.636-14.435,11.385-19-4.949-6.951-11.554-15.835-16.4-18.078C267.707,235.734,272.456,259.271,272.456,259.271Z" transform="translate(-156.041 -212.998)" fill="#f88"/><path d="M273.13,238.178s3.25,1.6,3.988,6.579,1.72,18.662.453,23.786a44.554,44.554,0,0,1-1.3,4.834h-.009l-2.9-4.3s-3.106-4.781-2.627-5.915S273.13,238.178,273.13,238.178Z" transform="translate(-155.898 -212.836)" fill="#e55773"/><path d="M246.506,376.13c2.312,2.641,8.66,3.994,8.66,3.994,5.645-12.374,11.282-36.519,12.136-50.5,1.323-21.719,5.05-42.914,4.886-48.605-.032-.913-.044-1.4-.044-1.4-5.622-6.162-12.469-9.5-16.485-9.76-1.587-.112-2.718.258-3.177,1.109A59.8,59.8,0,0,0,249,278.736c-.093.242-.167.482-.245.721-5.34,15.151-3.708,23.262-2.808,42.842C246.387,331.535,249.864,370.969,246.506,376.13Z" transform="translate(-168.098 -197.804)" fill="#b1a6ff"/><path d="M246.506,373.044c.621,1.214,5.713,3.694,5.821,3.2,1.805-7.847,1.919-13.944,3-21.915,1.046-7.719.025-15.729-.687-23.43a126.528,126.528,0,0,0-1.9-13.474c-.889-4.354-2.131-8.617-2.553-13.04-.847-8.639.891-17.221,3.9-25.293a.58.58,0,0,0-.028-.56.64.64,0,0,0-.088-1.118,10.073,10.073,0,0,0-5.209-1.044c-5.34,15.151-3.708,23.262-2.808,42.842.437,9.237,2.143,23.666,2.193,33.86C248.23,369.992,246.975,372,246.506,373.044Z" transform="translate(-168.098 -194.718)" fill="#9287fc"/><path d="M292.077,289.537c-.22.693-2.712,1.948-6.37,3.259a87.668,87.668,0,0,1-15.19,3.806c-7.521,1.164-15.087,1.134-19.128.369-1.653-.311-2.714-.752-2.964-1.285-.783-1.68-1.77-11.784-2.094-22.668-.059-2.108-.1-4.247-.1-6.342-.06-10.943.708-21.193,3.186-23.1.56-.441,1.209-.9,1.932-1.385a36.363,36.363,0,0,1,3.744-2.243,35.2,35.2,0,0,1,7.715-2.978,32,32,0,0,1,15.4-.236s0,.013.016.013a31.463,31.463,0,0,1,4.247,1.27c.338.118.678.251,1.032.382,4.836,1.948,4.144,12.478,3.361,21.312a84.993,84.993,0,0,0-.574,10.16,20.112,20.112,0,0,0,.295,2.33C287.667,278.714,291.267,284.8,292.077,289.537Z" transform="translate(-167.514 -213.911)" fill="#f88"/><path d="M266.959,233.6v4.731s1.118,2.05,0,2.274c-2.458.493-6.005-2.271-6.005-2.271v-7.224Z" transform="translate(-160.52 -216.189)" fill="#ff505c"/><path d="M260.954,234.558v-3.193s2.659,3.383,5.609,3.55C266.563,234.915,263.405,236.195,260.954,234.558Z" transform="translate(-160.52 -216.071)" fill="#fc3c4c"/><path d="M269.262,224.574a32.9,32.9,0,0,1,2.765,8.664c.392,2.966-5.039,6.881-9.464,2.7s-3.2-10.57-3.2-10.57Z" transform="translate(-161.348 -219.295)" fill="#ff505c"/><path d="M261.77,265.906c4.941-7.137,3.405-17.078-1.917-23.847a5.167,5.167,0,0,0-4.66-2.138c.295.118,3.759,2.138,3.539,2.581a153.91,153.91,0,0,1-9.394,16.65,39.213,39.213,0,0,0-3.112,5.648c0,2.094.044,4.234.1,6.342.324,10.884,1.311,20.988,2.094,22.668.251.532,1.311.973,2.964,1.285,1.46-4.485-.28-9.793.308-14.307C252.523,274.491,258.393,270.76,261.77,265.906Z" transform="translate(-167.513 -212.033)" fill="#e55773"/><path d="M267.437,222.589a2.7,2.7,0,0,0-2.208.945c-1.429-.721-3.2-.742-4.144.723A3.166,3.166,0,0,0,258,226.1a2.212,2.212,0,0,0,.973,2.832,2.981,2.981,0,0,0-.2,2.5c.072.19.1.361.13.391a2.63,2.63,0,0,0-.243.518,2.133,2.133,0,0,0,.274,1.572c.413.931.285,2.06,1.5,2.419a1.81,1.81,0,0,0,2.251-1.285c.441-1.46-.434-3.153-.724-4.564a7.332,7.332,0,0,0-.382-1.636,4.44,4.44,0,0,1,1.186-.183,11.735,11.735,0,0,0,2.413-.218c.4-.068.556-.285.922-.258.2.015.347.3.578.319,2.771.173,6.926-.15,6.89-3.91C273.538,221.045,269.114,219.646,267.437,222.589Z" transform="translate(-162.004 -220.995)" fill="#32187c"/><path d="M260.289,230.519c-.069-.077-.144-.142-.212-.221-.621-.734.547-1.684,1.169-.948a6,6,0,0,0,2.684,1.93c1.473.506,2.17.075,3.177-.867a.791.791,0,0,1,1.075.091c.891,1.046,3.448-.407,3.764,1.2.251,1.277-1.172,3.535-2.731,4.017-4.152,1.288-7.122-1.46-9.4-4.016A.729.729,0,0,1,260.289,230.519Z" transform="translate(-161.148 -217.154)" fill="#32187c"/><path d="M228.8,274.843a70.916,70.916,0,0,0,8.377,13.909,20.686,20.686,0,0,0,8.054,6.46,2.775,2.775,0,0,0,.369.118v.015h.015c9.3,3.155,21.221-9.232,21.221-9.232-.1-.428-.737-5.708-.737-5.708-.737.028-11.356,5.545-14.615,4.585-1.075-.294-11.8-23.331-16.285-28.714-.208-.251-.459-.532-.723-.826-.988-1.106-.012-4.513-1.457-5.514-1.961-1.4-4.1-2.2-5.8-.988C221.99,252.693,223.465,263.68,228.8,274.843Z" transform="translate(-178.081 -208.005)" fill="#ff505c"/><path d="M251.736,270.406q.19.706.379,1.41a.738.738,0,0,1-1.422.392c-.127-.469-.252-.941-.378-1.41A.737.737,0,0,1,251.736,270.406Z" transform="translate(-165.584 -197.782)" fill="#fc3c4c"/><path d="M237.8,290.489c1.491,2.094,4.218,3.215,7.492,3.715,10.456,1.594,26.591-3.2,26.591-3.2l-.383-4.854s-16.37,1.329-19.63-4.115c-.59-.987,1.15-12.269,4.19-15.189,1.355-1.3,2.786-2.581,4.025-3.658a17.422,17.422,0,0,0,5.855-10.073,18.028,18.028,0,0,0-.8-9.453,5.421,5.421,0,0,0-8.51-2.243c-4.675,3.821-11.8,12.714-13.966,15.457-.383.487-.6.765-.634.811C234.176,267.968,231.507,281.655,237.8,290.489Z" transform="translate(-173.174 -211.88)" fill="#ff505c"/><path d="M237.8,285.118c1.491,2.094,4.218,3.215,7.492,3.715a3.212,3.212,0,0,0-.265-2.2c-1.134-2.538-3.318-4.41-4.084-7.213-.9-3.228-.016-7.005.721-10.219a18.942,18.942,0,0,1,3.672-7.684,13.872,13.872,0,0,0,2.95-5.1.672.672,0,0,0-.442-.841c-.8-2.168-2.758-4.16-5.177-4.07-.383.487-.6.765-.634.811C234.176,262.6,231.507,276.284,237.8,285.118Z" transform="translate(-173.174 -206.509)" fill="#fc3c4c"/><path d="M254.612,269.464c1.252-1.2,9.132-8.92,10.338-16.6.549-3.492-.532-11.921-4.879-12.927-6.964-1.613-16.269,8.495-22.688,16.124C240.331,262.711,246.792,267.359,254.612,269.464Z" transform="translate(-171.712 -212.08)" fill="#f88"/><g transform="translate(95.229 71.954)"><path d="M262.709,270.613c2.64.195,6.387,1.612,7.412,4.417.493,1.352-.364,1.7-1.271.752-1.749-1.817-3.5-2.525-.733.027.559.515,1.463,1.855,1.083,2.279-.807.9-2.56-1.2-3.453-2.009-1.009-.257.771,1.988.816,2.568.209,2.621-3.209-1.476-3.576-1.369-1.025.3,1.712,2.7-.006,2.649-1.289-.04-2.863-3.253-3.77-3.868-.746-.5-1.6-.327-1.764-1.369C257.072,272.366,261.593,270.532,262.709,270.613Z" transform="translate(-257.425 -269.392)" fill="#ff505c"/><path d="M260.236,271.213c.917-.459,3.174-1.563,4.233-1.416.577.081,1.233.506.588,1.046a3.187,3.187,0,0,1-1.494.546c-.439.071-.892.277-1.329.311A6.014,6.014,0,0,1,260.236,271.213Z" transform="translate(-256.093 -269.784)" fill="#ff505c"/></g><path d="M252.192,270.156a.879.879,0,0,1,.131-.059,1,1,0,0,1,1.087-.024,1.782,1.782,0,0,1,1.249.243.985.985,0,0,1,.9.214.907.907,0,0,1,1.4.308c.19.532.358,1.068.5,1.612.206.77-.875,1.161-1.382.732a.913.913,0,0,1-1.47.268c-.024.087-.027.175-.055.26a.879.879,0,0,1-1.226.441,1.11,1.11,0,0,1-.593-1.069c-.016.024-.028.049-.046.071-.385.494-1.345.481-1.525-.176A2.55,2.55,0,0,1,252.192,270.156Z" transform="translate(-165.216 -197.763)" fill="#fc3c4c"/><path d="M231.74,243.8q-2.511-6.331-5.2-12.592a.739.739,0,0,0-.919-.416.632.632,0,0,0-.139-.04c-2.212-.134-3.761-.869-5.554.755a17.427,17.427,0,0,0-4.33,7.013c-1.68,5.057-.049,10.532,4.966,12.841a16.034,16.034,0,0,0,8.049,1.111c1.237-.1,4.764.065,5.52-1.5S232.319,245.266,231.74,243.8Z" transform="translate(-182.357 -216.495)" fill="#241368"/><path d="M225.733,253.245c-.38,3.818-.506,7.079-.506,7.079s-4.129,1.786-4.357,4.24a7.145,7.145,0,0,0,1.357,4.048c1.209,2.043,2.969,4.277,4.165,6.516a16.991,16.991,0,0,0,13.876-14.112c-2.832-7.082-7.967-15.782-13.374-16.841C224.019,243.612,226.32,247.3,225.733,253.245Z" transform="translate(-179.558 -210.015)" fill="#ffe49b"/><path d="M223.82,260.306s5.563,11.739,5.337,14.192c-.117,1.2,4.441-2.851,7.589-7.271-4.1-6.747-1.905-9.011-2.864-12.893-2.335-9.453-8.395-10.178-8.395-10.178a9.59,9.59,0,0,1-1.162,9.07C223.945,257.045,223.82,260.306,223.82,260.306Z" transform="translate(-178.151 -209.997)" fill="#ffbe7d"/><path d="M195.386,362.043l5.014,2.609s3.5-5.118,6.563-9.409,22.506-25.114,22.506-25.114c6.268-9.366-2.389-26.281-2.389-26.281l-14.365,4.719s3.348,9.085,3.068,9.483c-.457.649-.959,1.342-1.5,2.094a44.714,44.714,0,0,0-6.873,13.169c-1.165,3.6-5.884,14.646-9.057,21.93C196.64,359.2,195.386,362.043,195.386,362.043Z" transform="translate(-191.652 -181.656)" fill="#ff505c"/><path d="M224.526,308.9s1.357,15.808,2.271,19.628a9.82,9.82,0,0,1,.236,1.58,1.141,1.141,0,0,0,.03.2c.413,3.408,4.011,13.524,10.191,36.56.059.223.118.442.164.65a60.677,60.677,0,0,1,1.488,7.61l5.413-2.405s-.664-5.087-1.181-10.338.4-33.712.4-33.712c-1.46-11.164-11.3-32.785-11.3-32.785Z" transform="translate(-177.816 -185.431)" fill="#ff505c"/><path d="M198.19,340.529s-5.069,1.727-5.336,5.8c0,0,10.393,7.685,14.732,9.931,0,0,4.963-1.684,1.922-4.535a70.413,70.413,0,0,1-6.215-6.952S198.688,344.936,198.19,340.529Z" transform="translate(-192.854 -164.24)" fill="#1f0d52"/><path d="M233.919,347.572s-1.467,4.739,1.541,7.384c0,0,12.185-3.482,16.524-5.51,0,0,1.658-4.865-2.374-4.2s-9.924,1.307-9.924,1.307A4.023,4.023,0,0,1,233.919,347.572Z" transform="translate(-173.526 -162.031)" fill="#1f0d52"/><path d="M197.4,350.006a.736.736,0,0,0,1.226-.235,103.738,103.738,0,0,1,9.35-18.127,78.045,78.045,0,0,0,8.451-15.027.732.732,0,0,0,.236-.724.74.74,0,0,0-1.032-.664,4.66,4.66,0,0,0-2.3-.323,44.714,44.714,0,0,0-6.873,13.168C205.287,331.676,200.567,342.722,197.4,350.006Z" transform="translate(-190.698 -176.42)" fill="#fc3c4c"/><path d="M226.246,320.018c.413,3.408,4.011,13.524,10.191,36.56.059.223.118.442.164.65.293-.177.515-1.74.544-2.169.855-10.781-4.321-21.309-3.422-31.959a24.33,24.33,0,0,1,4.557-4.216c.752-.577-.205-1.711-.942-1.137a27.935,27.935,0,0,0-3.29,2.922c.118-.636.236-1.27.413-1.9.117-.5-.236-1.121-.826-.973C231.482,318.307,228.34,318.633,226.246,320.018Z" transform="translate(-176.999 -175.131)" fill="#fc3c4c"/><path d="M204.882,336.4a69.832,69.832,0,0,0,7.831,3.377c11.874,4.41,34.835,10.073,51.9-3.377,0,0-11.946-.988-9.645-16.1,2.935-19.336-5.25-45.455-16.592-49.362-11.356-3.923-26.148,0-26.148,0a19.525,19.525,0,0,0-5.87,6.415,25.938,25.938,0,0,0-3.481,13.45C202.876,302.455,213.48,311.082,204.882,336.4Z" transform="translate(-188.096 -198.109)" fill="#5f40d4"/><path d="M204.882,333.778a69.836,69.836,0,0,0,7.831,3.377c.413-.826.723-1.74,1.032-2.478a50.377,50.377,0,0,0,2.817-8.215,27.822,27.822,0,0,0-.973-14.571c-3.259-10.574-11.548-23.392-3.051-33.67a.653.653,0,0,0-.385-1.062.717.717,0,0,0-.4-.459,25.564,25.564,0,0,0-5.4-1.975,25.938,25.938,0,0,0-3.481,13.45C202.876,299.828,213.48,308.456,204.882,333.778Z" transform="translate(-188.096 -195.482)" fill="#32187c"/><path d="M250.271,295.178c-22.181,9.673-46.191-2.922-46.294-2.966.413-.795,4.837-8.746,6.194-11.8A16.8,16.8,0,0,0,211.4,275.3a38.462,38.462,0,0,0-.029-7.875c-.089-.959-.193-1.681-.236-2.021a.432.432,0,0,1-.028-.118c-1.786-8.878-5.663-19.408,4.644-22.651a20.918,20.918,0,0,1,4.513-.857h.015a43.335,43.335,0,0,1,6.533-.044,62.813,62.813,0,0,1,6.725,2.905c1.224.619,2.522,1.327,3.761,2.11,3.717,2.329,4.528,7.005,4.395,10.189-.089,2.212-3.308,8.318-3.05,9.49C240.517,274.977,248.56,292.139,250.271,295.178Z" transform="translate(-187.573 -211.197)" fill="#ffe49b"/><path d="M231.013,264.434c-3.259,2.476-7.89,2.506-11.666,3.951-3.318,1.283-6.755,4.352-10.25,5.118a38.46,38.46,0,0,0-.029-7.875.828.828,0,0,1,.1-.118c-.1-.619-.208-1.252-.341-1.9a.325.325,0,0,0-.015-.118,15.651,15.651,0,0,1,3.259-4.115c4.277-4.039,3.908-13.966,3.908-13.966.973,4.957.5,12.536-1.149,15.574a34.807,34.807,0,0,1-3.318,4.868c0,.059.043.1.043.177-.1,1.621,9.912-1.7,11.105-2.007a24.837,24.837,0,0,1,8.067-.929C231.411,263.135,231.486,264.079,231.013,264.434Z" transform="translate(-185.275 -209.403)" fill="#ffbe7d"/><path d="M224.252,240.4v4.159s1.119,2.051,0,2.274c-2.457.491-6.005-3.343-6.005-3.343v-5.579Z" transform="translate(-180.797 -212.963)" fill="#ff505c"/><path d="M218.247,241.336v-3.175s3.056,2.917,6.005,3.084C224.252,241.245,220.7,242.97,218.247,241.336Z" transform="translate(-180.797 -212.844)" fill="#fc3c4c"/><path d="M226.344,231.381a32.9,32.9,0,0,1,2.765,8.664c.394,2.967-5.038,6.881-9.462,2.7s-3.2-10.57-3.2-10.57Z" transform="translate(-181.724 -216.063)" fill="#ff505c"/><path d="M232.21,232.314c-.3-.187-.7-.2-.985-.383-.9-.581-.528-.854-1.05-1.429a3.624,3.624,0,0,0-1.5-1.053,8.927,8.927,0,0,0-5.1.028.593.593,0,0,0-.351.227c-4.365.2-6.513,4.57-8.971,7.7a26.736,26.736,0,0,0-5.787,14.338c-.631,11.173,13.441,8.954,20.271,7.563.414-.084.855-.51.63-.984-1.675-3.5-5.364-5.082-6.675-8.865a51.661,51.661,0,0,1-1.961-6.79,1.646,1.646,0,0,0,2.5-.854,8.958,8.958,0,0,0,.568-5.048,8.089,8.089,0,0,1,0-1.727,4.387,4.387,0,0,1,3.388-2.029c.336.336.619.841.932,1.174a4.85,4.85,0,0,0,1.674,1.168c.985.411,2.354.5,3.037-.5A1.781,1.781,0,0,0,232.21,232.314Z" transform="translate(-185.453 -217.154)" fill="#32187c"/><g transform="translate(158.739 77.372)"><path d="M300.858,276.651c.724-4.087,6.386-3.3,7.038-2.723.556.5.255,1.549-.358,1.242a1.869,1.869,0,0,0-2.094.24,3.468,3.468,0,0,1,3.52,1.131c.379.428.117,1.293-.338,1.15a7.9,7.9,0,0,0-1.922-.364,4.042,4.042,0,0,1,1.4.959c.526.538.276,1.526-.358,1.242a3.321,3.321,0,0,0-2.839-.084,5.181,5.181,0,0,1,1.314.052c.6.124.842,1.4.207,1.431-.74.04-1.475.1-2.2.181a1.456,1.456,0,0,1-1.874.412,4.017,4.017,0,0,1-1.7-2.576.8.8,0,0,1-.167-.547c0-.087.028-.158.035-.24A2.2,2.2,0,0,1,300.858,276.651Z" transform="translate(-300.488 -273.458)" fill="#ff505c"/></g><g transform="translate(135.671 76.513)"><path d="M316.518,289.034l-8.983,3.438h0a5.033,5.033,0,0,1-6.489-2.9l-1.962-5.131a5.032,5.032,0,0,1,2.9-6.491l8.983-3.438a5.025,5.025,0,0,1,6.491,2.9l1.964,5.132a5.034,5.034,0,0,1-2.394,6.263A5.223,5.223,0,0,1,316.518,289.034Zm-15.145-5.469,1.963,5.131a2.576,2.576,0,0,0,3.321,1.484l8.983-3.439a2.568,2.568,0,0,0,1.484-3.32l-1.963-5.131a2.572,2.572,0,0,0-3.321-1.482l-8.984,3.436c-.088.034-.175.074-.258.115A2.577,2.577,0,0,0,301.373,283.565Z" transform="translate(-278.245 -272.255)" fill="#331b6c"/><path d="M302.837,329.126l48.623-18.6a6.151,6.151,0,0,0,3.547-7.945l-9.638-25.188a6.153,6.153,0,0,0-7.945-3.547l-48.623,18.6a6.152,6.152,0,0,0-3.547,7.945l9.636,25.188A6.155,6.155,0,0,0,302.837,329.126Z" transform="translate(-284.846 -272.609)" fill="#9486fa"/><path d="M304.3,328.568l48.623-18.606a6.151,6.151,0,0,0,3.547-7.943l-9.638-25.188a6.154,6.154,0,0,0-7.945-3.548l-48.623,18.606a6.15,6.15,0,0,0-3.547,7.943l9.638,25.188A6.152,6.152,0,0,0,304.3,328.568Z" transform="translate(-284.153 -272.875)" fill="#6b5ae4"/><rect width="2.591" height="39.273" transform="translate(62.541 39.47) rotate(159.058)" fill="#ffe49b"/><rect width="2.591" height="39.274" transform="matrix(-0.934, 0.357, -0.357, -0.934, 26.881, 53.115)" fill="#ffe49b"/></g><path d="M303.957,280.962a.224.224,0,0,0,.029-.2,1.26,1.26,0,0,0,.963.056,1.127,1.127,0,0,0,.528-.925.2.2,0,0,0,0-.043,1.777,1.777,0,0,0,1.926.08.981.981,0,0,0,.17-1.434,3.41,3.41,0,0,0,.733.227c.967.18,1.428-.793,1.4-1.494a.233.233,0,0,0-.159-.217.178.178,0,0,0-.034-.06,7.253,7.253,0,0,0-1.454-1.27,3.168,3.168,0,0,0-1.442-.674c-.944-.038-.916.936-.789,1.56-.463-.457-1.05-.761-1.7-.1a1.484,1.484,0,0,0-.45,1.4,1.989,1.989,0,0,0-.9-.33c-.835-.071-.99.833-.9,1.354a1.8,1.8,0,0,0,.28.667.493.493,0,0,0-.183.018c-.522.143-.58.838-.5,1.18A1.387,1.387,0,0,0,303.957,280.962Z" transform="translate(-141.295 -195.35)" fill="#ff505c"/><path d="M220.436,265.24c-4.626.829-8.868,6.836-11.413,10.3-3.132,4.274-5.1,9.1-4.721,14.45.066.95,1.534.788,1.467-.156-.571-8.145,5.526-16.857,11.922-21.562,1.836-1.351,2.36-2.051,4.79-1.413,2.451.642,2.079,1.125,3.088,2.96a35.978,35.978,0,0,1,2.178,5.23,32.016,32.016,0,0,1,2.162,12.72c-.055.941,1.4,1.172,1.459.226.324-5.514-1.1-10.694-3.119-15.782C226.888,268.781,224.884,264.445,220.436,265.24Z" transform="translate(-187.44 -200.032)" fill="#9287fc"/><path d="M237.692,273.286s-1.121,4.793-1.239,5.206c0,0-1.534.885-4.07,2.063-6.386,2.964-21.119,6.106-31.148,3.879-9.791-2.181-7.462-21.118.383-30.394.015-.044.059-.075.09-.118,6.207-7.374,13.183,7.123,11.959,8.288a12.7,12.7,0,0,0-1.4,1.7c-2.523,3.509-5.237,9.557-4.5,10.012a18.457,18.457,0,0,0,5.28,1.121,88.974,88.974,0,0,0,11.607-.441C231.2,274.052,237.353,273.213,237.692,273.286Z" transform="translate(-191.942 -206.349)" fill="#ff505c"/><path d="M221.774,271.1a88.968,88.968,0,0,1-11.607.441,18.456,18.456,0,0,1-5.28-1.121c-.737-.456,1.976-6.5,4.5-10.012a8.038,8.038,0,0,0-2.184-.959.923.923,0,0,0-.708-.177c-.058-.015-.133-.031-.19-.044a.729.729,0,0,0-.737,1.106c-2.391,3.731-7.892,10.383-2.3,13.214,5,2.522,13.688,1.386,18.289-1.534A.645.645,0,0,0,221.774,271.1Z" transform="translate(-189.062 -202.85)" fill="#fc3c4c"/><path d="M211.634,269.688c1.13-1.077,8.443-8.462,9.532-15.378.494-3.149,1.085-10.316-2.832-11.223-6.274-1.453-14.657,7.656-20.441,14.531C200.548,263.6,204.589,267.791,211.634,269.688Z" transform="translate(-190.461 -210.579)" fill="#ffe49b"/><g transform="translate(42.032 64.501)"><path d="M224.737,266.618c2.481-.923,6.479-1.2,8.579.925,1.012,1.025.376,1.693-.841,1.215-2.348-.923-4.239-.836-.658.327.724.236,2.1,1.078,1.935,1.621-.358,1.153-2.827-.022-3.975-.388-1.026.187,1.528,1.487,1.811,1.994,1.282,2.3-3.534,0-3.821.248-.807.7,2.681,1.74,1.1,2.41-1.187.5-3.957-1.765-5.041-1.945-.886-.148-1.585.367-2.171-.507C220.345,270.559,223.687,267.007,224.737,266.618Z" transform="translate(-221.354 -264.163)" fill="#ff505c"/><path d="M223,267.851c.643-.8,2.233-2.745,3.255-3.053.56-.168,1.332-.055.972.706a3.229,3.229,0,0,1-1.128,1.119c-.373.248-.7.622-1.08.836A6.08,6.08,0,0,1,223,267.851Z" transform="translate(-220.572 -264.73)" fill="#ff505c"/></g><g transform="translate(16.124 65.112)"><path d="M224.928,266.557a4.992,4.992,0,0,0-4.492-1.317c-4.626.829-8.868,6.836-11.413,10.3-3.132,4.274-5.1,9.1-4.721,14.45.066.95,1.534.788,1.467-.156-.571-8.145,5.526-16.857,11.922-21.563,1.836-1.349,2.36-2.05,4.79-1.411a5.432,5.432,0,0,1,1.622.63A1.3,1.3,0,0,1,224.928,266.557Z" transform="translate(-203.564 -265.145)" fill="#9287fc"/><path d="M221.693,272.07a1.427,1.427,0,0,1-1.212.988,30.643,30.643,0,0,1,1.726,11.427c-.055.941,1.4,1.172,1.459.226A33.244,33.244,0,0,0,221.693,272.07Z" transform="translate(-195.861 -261.856)" fill="#9287fc"/><path d="M203.787,282.663s.289,9.664,1.516,13.989c0,0,22.538.24,27.8-1.037,0,0-.276-12.878-1.013-15.149C227.956,279.9,211.219,280.37,203.787,282.663Z" transform="translate(-203.787 -257.973)" fill="#b1a6ff"/><path d="M203.787,282.845s12.151,7.225,14.531,7.569,13.132-7.749,13.776-9.766A59.593,59.593,0,0,0,203.787,282.845Z" transform="translate(-203.787 -258.155)" fill="#9287fc"/><path d="M215.237,284.97a1.081,1.081,0,1,0-.609,1.4A1.081,1.081,0,0,0,215.237,284.97Z" transform="translate(-199.342 -256.056)" fill="#ffe49b"/></g></g></svg>