<svg xmlns="http://www.w3.org/2000/svg" width="323.871" height="323.871" viewBox="0 0 323.871 323.871"><g transform="translate(0)" fill="#fff" opacity="0.67"><path d="M 161.9354858398438 323.3709716796875 C 150.9819793701172 323.3709716796875 140.0354919433594 322.2674865722656 129.4000701904297 320.0911865234375 C 119.0352325439453 317.9702453613281 108.8400268554688 314.8054504394531 99.09765625 310.6847839355469 C 89.53206634521484 306.6388549804688 80.30598449707031 301.631103515625 71.67569732666016 295.8006591796875 C 63.1273193359375 290.0254516601562 55.08877563476562 283.3930358886719 47.78335952758789 276.0876159667969 C 40.47794342041016 268.7821960449219 33.84552764892578 260.74365234375 28.0703182220459 252.1952819824219 C 22.23986053466797 243.5649871826172 17.23211097717285 234.3388977050781 13.18619441986084 224.7733154296875 C 9.06552791595459 215.0309448242188 5.900735855102539 204.8357391357422 3.779777526855469 194.4709014892578 C 1.603485822677612 183.8354797363281 0.4999858438968658 172.8889923095703 0.4999858438968658 161.9354858398438 C 0.4999858438968658 150.9819793701172 1.603485822677612 140.0354919433594 3.779777526855469 129.4000701904297 C 5.900735855102539 119.0352325439453 9.06552791595459 108.8400268554688 13.18619441986084 99.09765625 C 17.23211097717285 89.53206634521484 22.23986053466797 80.30598449707031 28.0703182220459 71.67569732666016 C 33.84552764892578 63.1273193359375 40.47794342041016 55.08877563476562 47.78335952758789 47.78335952758789 C 55.08877563476562 40.47794342041016 63.1273193359375 33.84552764892578 71.67569732666016 28.0703182220459 C 80.30598449707031 22.23986053466797 89.53206634521484 17.23211097717285 99.09765625 13.18619441986084 C 108.8400268554688 9.06552791595459 119.0352325439453 5.900735855102539 129.4000701904297 3.779777526855469 C 140.0354919433594 1.603485822677612 150.9819793701172 0.4999858438968658 161.9354858398438 0.4999858438968658 C 172.8889923095703 0.4999858438968658 183.8354797363281 1.603485822677612 194.4709014892578 3.779777526855469 C 204.8357391357422 5.900735855102539 215.0309448242188 9.06552791595459 224.7733154296875 13.18619441986084 C 234.3388977050781 17.23211097717285 243.5649871826172 22.23986053466797 252.1952819824219 28.0703182220459 C 260.74365234375 33.84552764892578 268.7821960449219 40.47794342041016 276.0876159667969 47.78335952758789 C 283.3930358886719 55.08877563476562 290.0254516601562 63.1273193359375 295.8006591796875 71.67569732666016 C 301.631103515625 80.30598449707031 306.6388549804688 89.53206634521484 310.6847839355469 99.09765625 C 314.8054504394531 108.8400268554688 317.9702453613281 119.0352325439453 320.0911865234375 129.4000701904297 C 322.2674865722656 140.0354919433594 323.3709716796875 150.9819793701172 323.3709716796875 161.9354858398438 C 323.3709716796875 172.8889923095703 322.2674865722656 183.8354797363281 320.0911865234375 194.4709014892578 C 317.9702453613281 204.8357391357422 314.8054504394531 215.0309448242188 310.6847839355469 224.7733154296875 C 306.6388549804688 234.3388977050781 301.631103515625 243.5649871826172 295.8006591796875 252.1952819824219 C 290.0254516601562 260.74365234375 283.3930358886719 268.7821960449219 276.0876159667969 276.0876159667969 C 268.7821960449219 283.3930358886719 260.74365234375 290.0254516601562 252.1952819824219 295.8006591796875 C 243.5649871826172 301.631103515625 234.3388977050781 306.6388549804688 224.7733154296875 310.6847839355469 C 215.0309448242188 314.8054504394531 204.8357391357422 317.9702453613281 194.4709014892578 320.0911865234375 C 183.8354797363281 322.2674865722656 172.8889923095703 323.3709716796875 161.9354858398438 323.3709716796875 Z" stroke="none"/><path d="M 161.9354858398438 1 C 151.0155639648438 1 140.102783203125 2.100067138671875 129.5003204345703 4.2696533203125 C 119.1677703857422 6.38397216796875 109.0044097900391 9.538848876953125 99.29244995117188 13.64669799804688 C 89.75657653808594 17.68002319335938 80.55911254882812 22.6722412109375 71.95561218261719 28.48464965820312 C 63.43356323242188 34.24203491210938 55.41983032226562 40.85397338867188 48.13690185546875 48.13690185546875 C 40.85397338867188 55.41983032226562 34.24203491210938 63.43356323242188 28.48464965820312 71.95561218261719 C 22.6722412109375 80.55911254882812 17.68002319335938 89.75657653808594 13.64669799804688 99.29244995117188 C 9.538848876953125 109.0044097900391 6.38397216796875 119.1677703857422 4.2696533203125 129.5003204345703 C 2.100067138671875 140.102783203125 1 151.0155639648438 1 161.9354858398438 C 1 172.8554077148438 2.100067138671875 183.7681884765625 4.2696533203125 194.3706512451172 C 6.38397216796875 204.7031860351562 9.538848876953125 214.8665771484375 13.64669799804688 224.5785217285156 C 17.68002319335938 234.1144104003906 22.6722412109375 243.3118591308594 28.48464965820312 251.9153594970703 C 34.24203491210938 260.4374084472656 40.85397338867188 268.4511413574219 48.13690185546875 275.7340698242188 C 55.41983032226562 283.0169982910156 63.43356323242188 289.6289367675781 71.95561218261719 295.3863220214844 C 80.55911254882812 301.19873046875 89.75657653808594 306.1909484863281 99.29244995117188 310.2242736816406 C 109.0044097900391 314.3321228027344 119.1677703857422 317.4869995117188 129.5003204345703 319.601318359375 C 140.102783203125 321.7709045410156 151.0155639648438 322.8709716796875 161.9354858398438 322.8709716796875 C 172.8554077148438 322.8709716796875 183.7681884765625 321.7709045410156 194.3706512451172 319.601318359375 C 204.7031860351562 317.4869995117188 214.8665771484375 314.3321228027344 224.5785217285156 310.2242736816406 C 234.1144104003906 306.1909484863281 243.3118591308594 301.19873046875 251.9153594970703 295.3863220214844 C 260.4374084472656 289.6289367675781 268.4511413574219 283.0169982910156 275.7340698242188 275.7340698242188 C 283.0169982910156 268.4511413574219 289.6289367675781 260.4374084472656 295.3863220214844 251.9153594970703 C 301.19873046875 243.3118591308594 306.1909484863281 234.1144104003906 310.2242736816406 224.5785217285156 C 314.3321228027344 214.8665771484375 317.4869995117188 204.7031860351562 319.601318359375 194.3706512451172 C 321.7709045410156 183.7681884765625 322.8709716796875 172.8554077148438 322.8709716796875 161.9354858398438 C 322.8709716796875 151.0155639648438 321.7709045410156 140.102783203125 319.601318359375 129.5003204345703 C 317.4869995117188 119.1677703857422 314.3321228027344 109.0044097900391 310.2242736816406 99.29244995117188 C 306.1909484863281 89.75657653808594 301.19873046875 80.55911254882812 295.3863220214844 71.95561218261719 C 289.6289367675781 63.43356323242188 283.0169982910156 55.41983032226562 275.7340698242188 48.13690185546875 C 268.4511413574219 40.85397338867188 260.4374084472656 34.24203491210938 251.9153594970703 28.48464965820312 C 243.3118591308594 22.6722412109375 234.1144104003906 17.68002319335938 224.5785217285156 13.64669799804688 C 214.8665771484375 9.538848876953125 204.7031860351562 6.38397216796875 194.3706512451172 4.2696533203125 C 183.7681884765625 2.100067138671875 172.8554077148438 1 161.9354858398438 1 M 161.9354858398438 0 C 251.3699951171875 0 323.8709716796875 72.50099182128906 323.8709716796875 161.9354858398438 C 323.8709716796875 251.3699951171875 251.3699951171875 323.8709716796875 161.9354858398438 323.8709716796875 C 72.50099182128906 323.8709716796875 0 251.3699951171875 0 161.9354858398438 C 0 72.50099182128906 72.50099182128906 0 161.9354858398438 0 Z" stroke="none" fill="#707070"/></g><g transform="translate(51.034 74.719)"><g transform="translate(58.969 41.442)"><g transform="translate(0 0)"><rect width="114.042" height="2.099" transform="translate(2.028 4.522)" fill="#ff5722"/><path d="M593.767,286.62l-5.572-5.572,5.572-5.572Z" transform="translate(-588.195 -275.477)" fill="#ff5722"/><path d="M788.145,286.62l5.572-5.572-5.572-5.572Z" transform="translate(-676.707 -275.477)" fill="#ff5722"/></g></g><path d="M545.193,245.177l1.348.33,2.9,2.965,4.007.743a10.358,10.358,0,0,1,7.3,5.412l4.616,8.891a52.882,52.882,0,0,1,5.74,19.677l1.447,16.24-6.488,1.587-6.115-23.207c-.323-1.224-3.222-7.9-3.222-7.9Z" transform="translate(-510.191 -220.622)" fill="#ff9800"/><path d="M553.281,500.984h13.454l-4.876-3.378-1.083-3.124h-7.495Z" transform="translate(-513.771 -330.982)" fill="#ffcebd"/><path d="M551.731,497.825l.63,7.488c0,1.1,0,0,1.1,0h16.421l7.856-.663v-.691a4.1,4.1,0,0,0-2.568-2.377l-5.909-1.683-8.5-4.2.345,3.158h-6.933Z" transform="translate(-513.085 -331.518)" fill="#ffcd39"/><path d="M556.523,349.452s-.208,25.41-.621,41.39c-.417,16.152-3.27,34.873-2.452,41.47h-8.667s-2.361-22.158-.239-36.374a12.68,12.68,0,0,0-1.1-7.293c-3.8-8.057-10.307-37.666-8.792-43.268Z" transform="translate(-505.426 -264.978)" fill="#4d5068"/><path d="M552.924,513.915H574.9c1.571,0,2.845-.582,2.845-2.153H551.731v.96A1.193,1.193,0,0,0,552.924,513.915Z" transform="translate(-513.085 -338.631)" fill="#fff"/><path d="M534.433,348.631c-.136,8.712,5.554,33.858,9.014,41.185a12.68,12.68,0,0,1,1.1,7.293,118.88,118.88,0,0,0-.657,22l6.339-16.26a7.588,7.588,0,0,0,.518-2.96l-5.868-47.246-2.316-4.627Z" transform="translate(-505.427 -266.148)" fill="#231f20" opacity="0.2"/><path d="M515.367,363.583a43.676,43.676,0,0,0,1.078,14.026l3.908,16.08a18.241,18.241,0,0,1-.651,10.729l-11.2,24.839c1.3,1.787,4.222,1.488,5.6,3.206l4.023.663,14.027-29.178a7.573,7.573,0,0,0,.77-2.9L535.04,348.9l-18.351-.362Z" transform="translate(-493.949 -266.375)" fill="#4d5068"/><path d="M545.077,272.491l-13.5.062,2.15-35.311h8.023a29.065,29.065,0,0,1,2.972-.257,3.066,3.066,0,0,0-1.363,2.095,19.238,19.238,0,0,0-.109,3.784c.049,1.064,3.231,5.881,3.231,6.862C546.485,250.888,545.077,271.33,545.077,272.491Z" transform="translate(-504.165 -216.987)" fill="#e7ad99"/><path d="M529.653,252.913c-.636,10.452-6.1,54.19-6.1,54.19l28.156,1.418c0-1.161-8.777-50.573-8.777-51.735a9.872,9.872,0,0,0-1.187-2.651C537.052,256.326,532.128,254.288,529.653,252.913Z" transform="translate(-500.611 -224.046)" fill="#fff"/><path d="M547.084,225.31a5.222,5.222,0,0,1-3.507,1.9c-2.594.194-5.257.062-7.881.014a1.55,1.55,0,0,1-1.525-1.548V210.75H549.3a34.51,34.51,0,0,0,.074,4.92,35.668,35.668,0,0,0,1.279,4.773c.062.248-.563.256-.817.222-.495-.066-.643.135-.65.213A6.7,6.7,0,0,1,547.084,225.31Z" transform="translate(-505.312 -205.382)" fill="#e7ad99"/><path d="M550.74,204.875a10.748,10.748,0,0,0,.051-3.413.413.413,0,0,0-.124-.3.4.4,0,0,0-.315-.03,12.036,12.036,0,0,0-2.518,1.012A12.24,12.24,0,0,1,543.2,203.2a4.128,4.128,0,0,1-2.048-.255c-.663-.351-1.129-.816-1.956-.79-1.5.046-2.428,1.591-3.771,2.069-1.3.464-3.141-.269-4.214.776a3.072,3.072,0,0,0-.7,1.949,33.348,33.348,0,0,0,.254,8.639c.2,1.252.411,2.544.651,3.769a15.4,15.4,0,0,0,1.673,3.41,11.974,11.974,0,0,0,2.234-5.4c0-1.062-.292-2.126-.341-3.2a1.882,1.882,0,0,1,.062-.713,1.208,1.208,0,0,1,.695-.687,2.1,2.1,0,0,1,.99-.117.676.676,0,0,1,.495.206.748.748,0,0,1,.11.4q.118,1.435.237,2.87l1.18-.119a.474.474,0,0,0,.212-.056c.156-.1.137-.331.114-.516a4.832,4.832,0,0,1,1.3-3.677,6.72,6.72,0,0,1,2.8-1.738c1.622-.507,3.439-.4,4.928-1.217a5.44,5.44,0,0,0,2.46-3.224A7.111,7.111,0,0,0,550.74,204.875Z" transform="translate(-503.617 -201.119)" fill="#4d5068"/><path d="M521.076,241.546l-1.329.692-.829,1.4a9,9,0,0,1-4.05,3.626l-1.414.638a11.192,11.192,0,0,0-6.277,7.555l-2.561,10.517a57.138,57.138,0,0,0-.972,22.125l2.651,17.415h7.217l.458-25.926a24.654,24.654,0,0,1,.412-4.073s-.814,26.863-.446,30c.5,4.227,16.542,4.228,17.024,0,1.151-10.124-1.221-52.123-4.879-54.892l1.5-1.149-3.342-1.42a3.379,3.379,0,0,1-1.995-2.468,11.134,11.134,0,0,0-.269-1.161Z" transform="translate(-491.51 -219.015)" fill="#ff9800"/><path d="M552.526,247.549l.95.708,3.467,3.426a13.735,13.735,0,0,1,3.017,4.752c1.9,4.806,6.365,45.637,4.1,51.736-.846,2.278-9.824,2.428-9.721,0,.765-17.956-2.04-45.22-.85-51.35a11.989,11.989,0,0,0-.012-4.638Z" transform="translate(-513.437 -221.672)" fill="#ff9800"/><path d="M584.055,346.7v7.162l.154.032a1.512,1.512,0,0,0,1.79-1.187l.694-3.51.9.157a2.091,2.091,0,0,1,1.69,1.648l.59,2.935a16.31,16.31,0,0,0,.708,4.263,1.361,1.361,0,0,0,1.473.96h0l.269-8.6-1.5-5.975-1.567-1.911-4.916,1.234Z" transform="translate(-527.394 -263.778)" fill="#326ebd"/><path d="M554.962,235.75c-1.279,1.279-6.374.615-6.155-.809.267-1.743,4.576-2.708,1.548-6.394-1.148-1.4,5.256-2.673,6.535-1.394C558.446,228.711,556.519,234.192,554.962,235.75Z" transform="translate(-511.788 -212.41)" fill="#f3f8fe"/><g transform="translate(33.696 11.788)"><path d="M548.134,226.836c-.018-.041-1.848-4.069-5.243-3.868l-.042-.69c3.876-.234,5.835,4.094,5.917,4.278Z" transform="translate(-542.849 -222.269)" fill="#f3f8fe"/></g><g transform="translate(31.642 15.095)"><path d="M544.364,236.214a3,3,0,0,1-1.528-.44c-1.7-1-2.938-3.506-3.671-7.443l.679-.127c.866,4.649,2.295,6.358,3.342,6.974a2.058,2.058,0,0,0,1.546.3l.22.655A1.991,1.991,0,0,1,544.364,236.214Z" transform="translate(-539.165 -228.204)" fill="#f3f8fe"/></g><path d="M541.623,223.38c.24,1.667-.26,3.118-1.116,3.241s-1.745-1.129-1.985-2.8.26-3.118,1.116-3.241S541.383,221.712,541.623,223.38Z" transform="translate(-507.212 -209.732)" fill="#e7ad99"/><path d="M555.333,236.111c1.492-1.5,3.316-6.583,2.1-8.374a10.618,10.618,0,0,0-2.276-.284c-2.077,0-4.031.756-4.111,1.116a.151.151,0,0,0,.033.052c2.323,2.828.655,4.411-.448,5.459-.483.458-.938.891-1,1.3,0,.018-.01.065.066.154a4.9,4.9,0,0,0,3.1.806A13.535,13.535,0,0,0,555.333,236.111Z" transform="translate(-512.153 -212.776)" fill="#326ebd"/><g transform="translate(0 90.468)"><rect width="15.304" height="25.077" transform="translate(26.665 10.438) rotate(14.587)" fill="#f2b906"/><rect width="13.705" height="29.1" transform="translate(5.503 13.477)" fill="#5ddaf4"/><rect width="15.304" height="25.077" transform="translate(18.099 17.5)" fill="#ff5722"/><g transform="translate(0 18.591)"><path d="M483.874,401.986l1.855,16.681a6.549,6.549,0,0,0,6.525,5.981h23.677a6.55,6.55,0,0,0,6.525-5.981l1.855-16.681Zm8.98,20.176a.919.919,0,1,1-1.839,0V407.455a.919.919,0,0,1,1.839,0Zm4.791,0a.919.919,0,1,1-1.838,0V407.455a.919.919,0,1,1,1.838,0Zm4.791,0a.919.919,0,1,1-1.839,0V407.455a.919.919,0,0,1,1.839,0Zm4.791,0a.919.919,0,1,1-1.838,0V407.455a.919.919,0,0,1,1.838,0Zm4.791,0a.919.919,0,1,1-1.839,0V407.455a.919.919,0,0,1,1.839,0Zm4.791,0a.919.919,0,1,1-1.838,0V407.455a.919.919,0,0,1,1.838,0Z" transform="translate(-483.047 -399.096)" fill="#fec55e"/><path d="M484.38,406.536l39.59-1.484.341-3.066H483.874Z" transform="translate(-483.047 -399.096)" fill="#231f20" opacity="0.3"/><rect width="42.037" height="4.743" rx="2.371" transform="translate(0 0)" fill="#fec55e"/><path d="M523.636,396.8H483.18a.79.79,0,0,0-.79.79v1.577h42.037V397.59A.79.79,0,0,0,523.636,396.8Z" transform="translate(-482.39 -396.8)" fill="#feb423"/></g><g transform="translate(7.713)"><path d="M.952,0h0A.951.951,0,0,1,1.9.951V19.771a.951.951,0,0,1-.951.951h0A.951.951,0,0,1,0,19.77V.952A.952.952,0,0,1,.952,0Z" transform="translate(1.648 21.828) rotate(-149.983)" fill="#191c3c"/><rect width="1.903" height="20.722" rx="0.952" transform="matrix(0.866, -0.5, 0.5, 0.866, 14.597, 3.885)" fill="#191c3c"/><g transform="translate(9.957)"><path d="M514.095,366.673a3.23,3.23,0,1,0,3.23-3.23A3.23,3.23,0,0,0,514.095,366.673Z" transform="translate(-514.095 -363.443)" fill="#fec55e"/><path d="M516.905,367.917a1.664,1.664,0,1,0,1.664-1.664A1.664,1.664,0,0,0,516.905,367.917Z" transform="translate(-515.339 -364.687)" fill="#fff"/></g></g></g><path d="M510.852,356.323l-.692,9.59h0a2.747,2.747,0,0,0,2.008,2.107l.266.068,5.491.387a2.587,2.587,0,0,0,2.358-1.182l.405-.63a3.431,3.431,0,0,0,.546-1.858v-1.183a4.851,4.851,0,0,0-1.6-3.6l-3.44-3.1v-.593Z" transform="translate(-494.683 -269.823)" fill="#326ebd"/><g transform="translate(22.331 50.225)" opacity="0.25"><path d="M528,325.794c-1.269-2.749-2.822-5.526-2.8-8.553.022-3.722,2.437-7.163,2.233-10.879-.109-1.985-.941-4.11-.006-5.864.449-.843,1.271-1.487,1.518-2.409.686-2.556-4.158-4.208-4.268-6.852A49.16,49.16,0,0,0,523,297.512s-.8,26.531-.453,29.938c.014.052.027.1.042.157.05.173.1.344.159.516.775,1.474,3.653,2.311,6.817,2.512A17.78,17.78,0,0,0,528,325.794Z" transform="translate(-522.457 -291.236)" fill="#bf7200"/></g><g transform="translate(46.098 56.899)" opacity="0.3"><path d="M568.429,303.593c-.626-.925-2.082-.007-2.559,1-1.282,2.72-.757,5.934.11,8.814s2.06,5.738,2.046,8.746c-.013,2.756-1.042,5.392-1.595,8.091a13.479,13.479,0,0,0-.253,4.2c1.685-.234,3.131-.788,3.447-1.637.98-2.636.7-11.76-.084-21.659a48.186,48.186,0,0,1-.889-6.609A1.854,1.854,0,0,0,568.429,303.593Z" transform="translate(-565.102 -303.211)" fill="#bf7200"/></g><g transform="translate(11.482 30.91)" opacity="0.25"><path d="M507.164,309.528q-.41-4.5-.82-9.008c-.06-.655.121-1.579.777-1.539.511.031.906.718,1.385.536.349-.133.38-.609.337-.979a15.93,15.93,0,0,0-1.613-5.367,22.77,22.77,0,0,1-1.9-3.915c-.76-2.667.2-5.516-.012-8.282a9.089,9.089,0,0,1-.027-3.546c.373-1.132,1.84-2,2.772-1.256l-1.776-5.653a3.954,3.954,0,0,1,3.468.757c.138-1.465-.99-2.7-1.637-4.02a8.088,8.088,0,0,1-.357-5.667,15.158,15.158,0,0,1,2.655-5.011,11.189,11.189,0,0,0-3.243,5.534l-2.561,10.517a57.138,57.138,0,0,0-.972,22.125l2.651,17.415h.83A9.956,9.956,0,0,0,507.164,309.528Z" transform="translate(-502.992 -256.579)" fill="#ff9a7a"/></g><path d="M849.6,412.815a7.514,7.514,0,0,1-1.068,7.389l-18.533,23.709a8.568,8.568,0,0,0-1.46,5.482l.045.58s-2.359,5.339-3.892,4.791c-3.067-1.1-6.33-8.677-5.311-10.157.488-.709,2.511-1.921,4.544-3.2,5.931-3.724,14.59-25,14.59-25l-11.45-15,16.848-3Z" transform="translate(-631.479 -288.46)" fill="#dc9e82"/><g transform="translate(187.707 111.486)" opacity="0.4"><path d="M823.92,442.62c5.931-3.724,14.59-25,14.59-25l-11.45-15c.344.451,6.223-1.1,6.934-1.279,4.111-1.024,7,2.155,8.9,5.364,1.539,2.593,4.4,7.393,3.839,10.484a11.947,11.947,0,0,1-2.146,4.452c-3.49,5.119-6.4,10.8-11.13,14.966-3.966,3.489-6.53,6.733-6.53,12.155.238,2.055.828,3.256-.292,5.235a8.1,8.1,0,0,1-1.635,2,.694.694,0,0,1-.317-.031c-3.067-1.1-6.33-8.677-5.311-10.157C819.864,445.108,821.887,443.9,823.92,442.62Z" transform="translate(-819.186 -401.154)" fill="#a58877"/></g><path d="M818.929,477.911s-2.9,6.163,6.272,6.891a69.7,69.7,0,0,0,.965,7.165,37.3,37.3,0,0,1,4.541,4.055,1.821,1.821,0,0,1-.616,2.48h0a2.032,2.032,0,0,1-1.639.109l-4.774-.889a3.286,3.286,0,0,1-2.089-1.344l-10.035-14.3,6.988-4.975Z" transform="translate(-628.1 -323.288)" fill="#326ebd"/><path d="M812.531,484.778l9.924,14.143a3.288,3.288,0,0,0,2.089,1.344l4.774.889a2.216,2.216,0,0,0,1.428-.011,2.218,2.218,0,0,1-.656.757,2.032,2.032,0,0,1-1.639.109l-4.774-.889a3.286,3.286,0,0,1-2.089-1.344l-10.035-14.3Z" transform="translate(-628.1 -326.686)" fill="#fff"/><path d="M844.067,467.306l.354-4.395c-.722-1.059-2.072-1.1-1.64-5.73,1.07-11.486,1.07-38.542,1.07-38.542s-9.352-1.525-10.4.962c-2.895,6.84,3.271,26.8,1.526,40.872-.367,2.962-2.474,2.956-1.84,7.316l9.222,1.4Q843.22,468.256,844.067,467.306Z" transform="translate(-637.445 -297.203)" fill="#dc9e82"/><g transform="translate(195.218 120.973)" opacity="0.4"><path d="M843.622,467.808c-2.887-1.84-4.558-5.253-5.141-8.663-.626-3.657-.216-7.4-.094-11.107.269-8.168-.866-16.38.077-24.5.205-1.767.5-3.56.725-5.348-2.511-.084-5.2.14-5.741,1.408-2.895,6.84,3.271,26.8,1.526,40.872-.367,2.962-2.474,2.956-1.84,7.316l9.222,1.4C842.78,468.732,843.2,468.273,843.622,467.808Z" transform="translate(-832.662 -418.177)" fill="#a58877"/></g><path d="M823.175,349.481c-2.533,3.05-2.828,10.966-1.953,14.252.636,2.389,1.944,4.49,2.75,6.809,2.094,6.028-.8,14.693-1.88,20.8,6.152-1.112,13.014,1.694,19.235,1.9a44.393,44.393,0,0,0,12.57-1.79c-.76-5.578-2.474-10.555-4.189-15.8-1.709-5.228-3.516-11.3-3.557-16.747-.022-2.893-.4-5.015-.142-7.9.155-1.714-.184-5.332-.706-5.436a3.352,3.352,0,0,0-2.45.074l-9.817,2.5c-2.451.624-6.665-1.165-8.729.279A5.783,5.783,0,0,0,823.175,349.481Z" transform="translate(-632.183 -264.978)" fill="#fff"/><g transform="translate(188.799 80.582)" opacity="0.2"><path d="M823.338,349.625a5.786,5.786,0,0,1,1.131-1.053c2.064-1.444,6.278.346,8.729-.279l9.817-2.5c1.021-.26.15.159,1.353-.053a5.194,5.194,0,0,1,1.285.966c.11.117.211.243.312.368a18.89,18.89,0,0,1,.206,4.081c-.26,2.882.115,4.682.137,7.575.041,5.451,1.854,11.841,3.563,17.069,1.715,5.25,3.43,10.227,4.189,15.8a44.387,44.387,0,0,1-12.57,1.79c-.058,0-.118-.008-.177-.01.006-.287.017-.572.032-.848a72.3,72.3,0,0,0-1.658-19.609c-.832-3.7-2.111-7.812-4.915-10.527-2.568-2.486-6.491-1.757-9.705-3.115a9.443,9.443,0,0,1-3.921-3.125C821.458,353.564,822.149,351.058,823.338,349.625Z" transform="translate(-821.145 -345.704)" fill="#6c98e3"/></g><path d="M818.493,241.034c-.336-1.535-1.275-3.086-.758-4.571.424-1.219,1.681-1.9,2.579-2.832a8.791,8.791,0,0,0,2.032-6.1,16.469,16.469,0,0,1,.146-3.178c.437-2.113,2.005-3.777,3.118-5.626a7.785,7.785,0,0,1,1.269-1.814,5.946,5.946,0,0,1,2.143-1.1q2.56-.887,5.158-1.659a4.122,4.122,0,0,1,2.579-.182,4.177,4.177,0,0,1,1.547,1.256l2.678,3.011a3.155,3.155,0,0,1,1.526,1.979,8.982,8.982,0,0,1-.262,3.931,6.308,6.308,0,0,0,.112,3.9c.561,1.2,1.812,2.048,2.093,3.342.274,1.264-.464,2.5-1.129,3.609-1.142,1.9-2.187,4.091-1.741,6.266.27,1.316,1.071,2.493,1.238,3.827a4.231,4.231,0,0,1-1.7,3.88c-.7.5-1.625.857-1.932,1.667a9.545,9.545,0,0,0-.131,1.937,2.882,2.882,0,0,1-3.134,2.079,8.534,8.534,0,0,1-3.769-1.59,8.136,8.136,0,0,0-3.785-1.542c-2.664-.126-5.232,2.317-7.734,1.393-2.025-.749-2.7-3.31-2.542-5.462S818.955,243.143,818.493,241.034Z" transform="translate(-630.769 -206.747)" fill="#ff9800"/><rect width="10.873" height="12.507" transform="translate(204.308 43.706) rotate(180)" fill="#ffcebd"/><path d="M832.419,258.219c-.609,2.031,12.094.908,10.523-.517-2.616-2.372-1.729-12.2-1.729-12.2h-7.237S833.612,254.24,832.419,258.219Z" transform="translate(-637.328 -220.766)" fill="#dc9e82"/><path d="M839.479,237.378c1.955.955,5.324-2.007,5.2-6.908,0-.1.369-.236.733-.342a.512.512,0,0,0,.3-.755c-2.172-3.585-1.809-9.643-3.207-11.042-3.36-3.36-17.195,0-17.195,0v8.063C825.312,233.758,839.479,237.378,839.479,237.378Z" transform="translate(-634.191 -208.077)" fill="#dc9e82"/><path d="M840.539,269.658l-1.021-4.042c-.92-3.645-3.04-7.027-6.32-8.4l-.99,1.027-.855,4.894-11.195-4.431-7.026,7.18L821,304.66v4.478c18.4,2.513,21.546-.244,21.546-.244l-.353-26.046.031-.037c1.806-2.165,3.283-5.7,1.481-7.956A23.04,23.04,0,0,1,840.539,269.658Z" transform="translate(-628.8 -225.952)" fill="#326ebd"/><path d="M806.993,249.248c.094-.307.19-.613.287-.918l1.247-3.931a19.67,19.67,0,0,1,1.236-3.227c.485-.926,1.115-1.77,1.6-2.7a9.785,9.785,0,0,0,.766-6.969c-.2-.733-.479-1.445-.611-2.193a18.1,18.1,0,0,1,.345-6.089,11.161,11.161,0,0,1,2.288-4.993,14.23,14.23,0,0,1,7.389-4.212c1.211-.331,2.388-.789,3.58-1.111a13.421,13.421,0,0,1,4.538-.038c1.8.181,6.146.59,6.976,2.65.6,1.483-.271,2.5-1.509,3.216-1.485.856-2.678,1.163-3.853,2.52-2.523,2.913-3.324,6.981-3.417,10.73a17.439,17.439,0,0,1-.248,3.361,4.433,4.433,0,0,1-1.735,2.8c-1.923,1.265-4.009.925-5.765,2.646-2.655,2.6-3.086,6.643-4.445,10.1a18.72,18.72,0,0,1-4.162,6.36,4.449,4.449,0,0,1-2.532,1.493c-3.09.324-2.859-5.174-2.572-7.024A17.914,17.914,0,0,1,806.993,249.248Z" transform="translate(-625.747 -206.243)" fill="#a58877" opacity="0.4"/><g transform="translate(200.798 16.632)"><rect width="7.132" height="0.507" transform="translate(0)" fill="#4d5068"/></g><g transform="translate(209.477 16.632)"><rect width="0.563" height="0.507" transform="translate(0)" fill="#4d5068"/></g><g transform="translate(184.333 32.755)" opacity="0.2"><path d="M820.159,259.889l.531.2c.753.283,1.209,2.386,1.794,3.009.921.984,2.315,1.47,3.261,2.519a6.463,6.463,0,0,1,1.765,4.037c.1,3.3-2.648,6.582-3.288,9.776-1.153,5.749,4.843,6.637,9.028,5.56a2.117,2.117,0,0,1-.174,1.889,8.049,8.049,0,0,1-1.224,1.479c-3.079,3.32-3.393,7.4-4.1,11.749-.8,4.925,2.427,6.321,3.839,10.511a5.4,5.4,0,0,1,.176.694c-3.006-.12-6.569-.417-10.77-.99v-4.478l-7.862-38.774Z" transform="translate(-813.133 -259.889)" fill="#19375f"/></g><path d="M839.187,258.162l3.27,3.1V265.4l-1.635-3.77-1.635,4.847-3.731-1.616-1.917,4.908-6.879-11.73.9-2.334,9.873,7.719.845-4.667Z" transform="translate(-634.788 -225.281)" fill="#4d5068" opacity="0.4"/><path d="M839.187,255.263l3.27,3.105V262.5l-1.635-2.154-1.635,3.231h-3.731l-2.154,2.872-6.642-9.693.9-3.949,9.873,7.719.845-4.667Z" transform="translate(-634.788 -223.998)" fill="#f5f7f9"/><path d="M819.039,264.271s-4.155-.258-5.083,8.257l2.8,25.925,7.719,21.555h4.36l-4.36-23.327-.108-25.143a7.427,7.427,0,0,0-5.33-7.266Z" transform="translate(-629.164 -229.074)" fill="#326ebd"/><g transform="translate(184.792 36.212)" opacity="0.2"><path d="M825.385,320.815c-.41-7.829-4.518-15.048-5.385-22.841-.307-2.753-.2-5.546-.63-8.284-.608-3.9-2.274-7.575-2.882-11.474-.618-3.954-.146-8.06.273-12.124-1.131,1.027-2.351,3.09-2.8,7.243l2.8,25.925,7.718,21.555Z" transform="translate(-813.956 -266.092)" fill="#19375f"/></g><path d="M853.783,245.926c-1.24,1.241-6.183.6-5.971-.784.259-1.69,4.439-2.627,1.5-6.2-1.114-1.355,5.1-2.593,6.339-1.353C857.163,239.1,855.293,244.416,853.783,245.926Z" transform="translate(-644.148 -217.036)" fill="#f3f8fe"/><g transform="translate(200.034 18.787)"><path d="M847.259,238.228c-.026-.035-2.6-3.472-5.772-2.576l-.182-.645c3.624-1.027,6.379,2.667,6.495,2.825Z" transform="translate(-841.305 -234.827)" fill="#f3f8fe"/></g><g transform="translate(198.448 20.893)"><path d="M843.5,246.377a2.915,2.915,0,0,1-1.483-.427c-1.651-.971-2.849-3.4-3.56-7.22l.659-.123c.839,4.509,2.225,6.167,3.241,6.765a2,2,0,0,0,1.5.294l.213.636A1.924,1.924,0,0,1,843.5,246.377Z" transform="translate(-838.459 -238.607)" fill="#f3f8fe"/></g><path d="M854.142,246.276c1.447-1.454,3.216-6.385,2.034-8.123a10.307,10.307,0,0,0-2.207-.275c-2.015,0-3.91.733-3.988,1.083a.178.178,0,0,0,.032.05c2.254,2.743.636,4.279-.434,5.295-.468.445-.91.864-.971,1.259,0,.017-.009.062.065.149a4.756,4.756,0,0,0,3.008.781A13.106,13.106,0,0,0,854.142,246.276Z" transform="translate(-644.503 -217.391)" fill="#a8d9fb"/><g transform="translate(207.677 13.356)"><path d="M855.017,228.612c0-.361.028-3.529,1.027-3.529s1.027,3.168,1.027,3.529-.028,3.53-1.027,3.53S855.017,228.973,855.017,228.612Zm.507,0a6.165,6.165,0,0,0,.5,3.027c.195-.1.542-1.2.542-3.027a6.161,6.161,0,0,0-.5-3.026C855.871,225.685,855.524,226.781,855.524,228.612Z" transform="translate(-855.017 -225.083)" fill="#4d5068"/></g><path d="M802.976,246.761c.113-.3.229-.6.346-.9l1.5-3.842a19.7,19.7,0,0,1,1.441-3.142c.544-.892,1.227-1.693,1.768-2.587a9.779,9.779,0,0,0,1.213-6.9c-.148-.745-.385-1.473-.468-2.227a18.1,18.1,0,0,1,.737-6.054,11.162,11.162,0,0,1,2.6-4.834,14.236,14.236,0,0,1,7.645-3.727c1.229-.251,2.434-.633,3.645-.877a13.393,13.393,0,0,1,4.531.255c1.783.3,6.094.985,6.79,3.094.927,2.815-2.611,3.389-4.477,4.118-1.641.641-2.191,1.527-2.946,3.133a19.53,19.53,0,0,0-1.725,6.075c-.282,2.486-.125,5.164-1.447,7.289a17.063,17.063,0,0,1-3.826,3.655,9.564,9.564,0,0,0-1.828,1.914c-1.323,1.98-.74,5.526-.793,7.784a25.012,25.012,0,0,1-.874,7.218,12.562,12.562,0,0,1-4.027,5.84,5.5,5.5,0,0,1-1.915,1.083,6.447,6.447,0,0,1-2.79-.014,5.562,5.562,0,0,1-2.031-.631,5.457,5.457,0,0,1-1.82-2.274c-1.75-3.384-2.836-7.294-2.012-11.013A17.856,17.856,0,0,1,802.976,246.761Z" transform="translate(-623.843 -205.738)" fill="#ffad33"/><path d="M802.216,249.194a17.856,17.856,0,0,1,.76-2.433c.113-.3.229-.6.346-.9l1.5-3.842a19.7,19.7,0,0,1,1.441-3.142c.544-.892,1.227-1.693,1.768-2.587a9.78,9.78,0,0,0,1.213-6.9c-.148-.745-.385-1.473-.468-2.227a18.1,18.1,0,0,1,.737-6.054,11.162,11.162,0,0,1,2.6-4.834,14.236,14.236,0,0,1,7.645-3.727c1.229-.251,2.434-.633,3.645-.877a12.825,12.825,0,0,1,4.359.226,10.318,10.318,0,0,0-1.2,1.212c-1.889,2.259-2.9,5.1-3.873,7.883s-1.993,5.622-3.893,7.872c-.862,1.02-1.888,1.895-2.736,2.927-3.393,4.129-3.424,9.962-3.623,15.3a35.451,35.451,0,0,1-1.754,11.044,17.059,17.059,0,0,1-2.809,4.941,5.15,5.15,0,0,1-1.831-.6,5.457,5.457,0,0,1-1.82-2.274C802.478,256.824,801.392,252.913,802.216,249.194Z" transform="translate(-623.843 -205.738)" fill="#ff9800"/><g transform="translate(176.738 95.347)"><rect width="15.304" height="25.077" transform="translate(26.665 10.438) rotate(14.587)" fill="#f2b906"/><rect width="13.705" height="29.1" transform="translate(5.502 13.478)" fill="#5ddaf4"/><rect width="15.304" height="25.077" transform="translate(18.099 17.501)" fill="#ff5722"/><g transform="translate(0 18.591)"><path d="M800.99,410.741l1.855,16.681a6.55,6.55,0,0,0,6.525,5.981h23.677a6.549,6.549,0,0,0,6.525-5.981l1.855-16.681Zm8.979,20.176a.919.919,0,1,1-1.838,0V416.21a.919.919,0,1,1,1.838,0Zm4.791,0a.919.919,0,0,1-1.839,0V416.21a.919.919,0,0,1,1.839,0Zm4.791,0a.919.919,0,0,1-1.839,0V416.21a.919.919,0,0,1,1.839,0Zm4.791,0a.919.919,0,0,1-1.839,0V416.21a.919.919,0,0,1,1.839,0Zm4.791,0a.919.919,0,1,1-1.838,0V416.21a.919.919,0,1,1,1.838,0Zm4.791,0a.919.919,0,0,1-1.839,0V416.21a.919.919,0,0,1,1.839,0Z" transform="translate(-800.163 -407.851)" fill="#fec55e"/><path d="M801.5,415.291l39.589-1.484.341-3.066H800.99Z" transform="translate(-800.163 -407.851)" fill="#231f20" opacity="0.3"/><rect width="42.037" height="4.743" rx="2.371" fill="#fec55e"/><path d="M840.752,405.555H800.3a.79.79,0,0,0-.79.79v1.577h42.037v-1.577A.791.791,0,0,0,840.752,405.555Z" transform="translate(-799.506 -405.555)" fill="#feb423"/></g><g transform="translate(7.714)"><path d="M.952,0h0A.952.952,0,0,1,1.9.952V19.77a.952.952,0,0,1-.952.952h0A.951.951,0,0,1,0,19.771V.952A.952.952,0,0,1,.952,0Z" transform="matrix(-0.866, -0.5, 0.5, -0.866, 1.648, 21.829)" fill="#191c3c"/><path d="M.951,0h0A.951.951,0,0,1,1.9.951V19.77a.952.952,0,0,1-.952.952h0A.951.951,0,0,1,0,19.77V.951A.951.951,0,0,1,.951,0Z" transform="matrix(0.866, -0.5, 0.5, 0.866, 14.596, 3.885)" fill="#191c3c"/><g transform="translate(9.955)"><path d="M831.21,375.427a3.23,3.23,0,1,0,3.23-3.23A3.23,3.23,0,0,0,831.21,375.427Z" transform="translate(-831.21 -372.197)" fill="#fec55e"/><path d="M834.02,376.671a1.664,1.664,0,1,0,1.664-1.664A1.664,1.664,0,0,0,834.02,376.671Z" transform="translate(-832.454 -373.441)" fill="#fff"/></g></g></g><path d="M836.423,364.279l1.857,4.094a2.363,2.363,0,0,1-.478,2.643l-.779.783-.34,3.87c-.084.957-.307,2.055-1.218,2.055h0a1.738,1.738,0,0,1-1.688-1.325l-.017-.071-1.178-1.268a2.746,2.746,0,0,1-.645-1.177l-.432-1.656a2.916,2.916,0,0,1-.059-1.2l.879-6.752Z" transform="translate(-636.89 -273.345)" fill="#326ebd"/><path d="M506.563,493.373l-2.282,4.949a1.744,1.744,0,0,0,1.1,2.407l16.107,4.615,6.082-.294a3.481,3.481,0,0,0,.943-1.713l-7.291-3.493-4.78-5.1-1.171,2.435-6.267-2.441Z" transform="translate(-492.009 -330.491)" fill="#ffcd39"/><path d="M503.322,501.182l-.743,1.456a1.02,1.02,0,0,0,.55,1.419l15.88,5.467,6.587-.318a2.305,2.305,0,0,0,2.191-2.414h0l-9.656.467Z" transform="translate(-491.277 -333.947)" fill="#fff"/><path d="M833.538,499.624s5.023,6.956,10.921-1.316c0,0,5.548,5.418,12.066,6.432a1.942,1.942,0,0,1,1.645,1.919h0a1.3,1.3,0,0,1-1.3,1.3H832.662v-8.488Z" transform="translate(-637.445 -332.675)" fill="#326ebd"/><path d="M856.869,512.826H832.662v1.226h24.207a1.3,1.3,0,0,0,1.3-1.3,1.941,1.941,0,0,0-.123-.681A1.3,1.3,0,0,1,856.869,512.826Z" transform="translate(-637.445 -338.767)" fill="#fff"/></g></svg>