<svg xmlns="http://www.w3.org/2000/svg" width="323.871" height="323.871" viewBox="0 0 323.871 323.871"><g transform="translate(-140 -1963)"><g transform="translate(140 1963)" fill="#fff" opacity="0.67"><path d="M 161.9354858398438 323.3709716796875 C 150.9819793701172 323.3709716796875 140.0354919433594 322.2674865722656 129.4000701904297 320.0911865234375 C 119.0352325439453 317.9702453613281 108.8400268554688 314.8054504394531 99.09765625 310.6847839355469 C 89.53206634521484 306.6388549804688 80.30598449707031 301.631103515625 71.67569732666016 295.8006591796875 C 63.1273193359375 290.0254516601562 55.08877563476562 283.3930358886719 47.78335952758789 276.0876159667969 C 40.47794342041016 268.7821960449219 33.84552764892578 260.74365234375 28.0703182220459 252.1952819824219 C 22.23986053466797 243.5649871826172 17.23211097717285 234.3388977050781 13.18619441986084 224.7733154296875 C 9.06552791595459 215.0309448242188 5.900735855102539 204.8357391357422 3.779777526855469 194.4709014892578 C 1.603485822677612 183.8354797363281 0.4999858438968658 172.8889923095703 0.4999858438968658 161.9354858398438 C 0.4999858438968658 150.9819793701172 1.603485822677612 140.0354919433594 3.779777526855469 129.4000701904297 C 5.900735855102539 119.0352325439453 9.06552791595459 108.8400268554688 13.18619441986084 99.09765625 C 17.23211097717285 89.53206634521484 22.23986053466797 80.30598449707031 28.0703182220459 71.67569732666016 C 33.84552764892578 63.1273193359375 40.47794342041016 55.08877563476562 47.78335952758789 47.78335952758789 C 55.08877563476562 40.47794342041016 63.1273193359375 33.84552764892578 71.67569732666016 28.0703182220459 C 80.30598449707031 22.23986053466797 89.53206634521484 17.23211097717285 99.09765625 13.18619441986084 C 108.8400268554688 9.06552791595459 119.0352325439453 5.900735855102539 129.4000701904297 3.779777526855469 C 140.0354919433594 1.603485822677612 150.9819793701172 0.4999858438968658 161.9354858398438 0.4999858438968658 C 172.8889923095703 0.4999858438968658 183.8354797363281 1.603485822677612 194.4709014892578 3.779777526855469 C 204.8357391357422 5.900735855102539 215.0309448242188 9.06552791595459 224.7733154296875 13.18619441986084 C 234.3388977050781 17.23211097717285 243.5649871826172 22.23986053466797 252.1952819824219 28.0703182220459 C 260.74365234375 33.84552764892578 268.7821960449219 40.47794342041016 276.0876159667969 47.78335952758789 C 283.3930358886719 55.08877563476562 290.0254516601562 63.1273193359375 295.8006591796875 71.67569732666016 C 301.631103515625 80.30598449707031 306.6388549804688 89.53206634521484 310.6847839355469 99.09765625 C 314.8054504394531 108.8400268554688 317.9702453613281 119.0352325439453 320.0911865234375 129.4000701904297 C 322.2674865722656 140.0354919433594 323.3709716796875 150.9819793701172 323.3709716796875 161.9354858398438 C 323.3709716796875 172.8889923095703 322.2674865722656 183.8354797363281 320.0911865234375 194.4709014892578 C 317.9702453613281 204.8357391357422 314.8054504394531 215.0309448242188 310.6847839355469 224.7733154296875 C 306.6388549804688 234.3388977050781 301.631103515625 243.5649871826172 295.8006591796875 252.1952819824219 C 290.0254516601562 260.74365234375 283.3930358886719 268.7821960449219 276.0876159667969 276.0876159667969 C 268.7821960449219 283.3930358886719 260.74365234375 290.0254516601562 252.1952819824219 295.8006591796875 C 243.5649871826172 301.631103515625 234.3388977050781 306.6388549804688 224.7733154296875 310.6847839355469 C 215.0309448242188 314.8054504394531 204.8357391357422 317.9702453613281 194.4709014892578 320.0911865234375 C 183.8354797363281 322.2674865722656 172.8889923095703 323.3709716796875 161.9354858398438 323.3709716796875 Z" stroke="none"/><path d="M 161.9354858398438 1 C 151.0155639648438 1 140.102783203125 2.100067138671875 129.5003204345703 4.2696533203125 C 119.1677703857422 6.38397216796875 109.0044097900391 9.538848876953125 99.29244995117188 13.64669799804688 C 89.75657653808594 17.68002319335938 80.55911254882812 22.6722412109375 71.95561218261719 28.48464965820312 C 63.43356323242188 34.24203491210938 55.41983032226562 40.85397338867188 48.13690185546875 48.13690185546875 C 40.85397338867188 55.41983032226562 34.24203491210938 63.43356323242188 28.48464965820312 71.95561218261719 C 22.6722412109375 80.55911254882812 17.68002319335938 89.75657653808594 13.64669799804688 99.29244995117188 C 9.538848876953125 109.0044097900391 6.38397216796875 119.1677703857422 4.2696533203125 129.5003204345703 C 2.100067138671875 140.102783203125 1 151.0155639648438 1 161.9354858398438 C 1 172.8554077148438 2.100067138671875 183.7681884765625 4.2696533203125 194.3706512451172 C 6.38397216796875 204.7031860351562 9.538848876953125 214.8665771484375 13.64669799804688 224.5785217285156 C 17.68002319335938 234.1144104003906 22.6722412109375 243.3118591308594 28.48464965820312 251.9153594970703 C 34.24203491210938 260.4374084472656 40.85397338867188 268.4511413574219 48.13690185546875 275.7340698242188 C 55.41983032226562 283.0169982910156 63.43356323242188 289.6289367675781 71.95561218261719 295.3863220214844 C 80.55911254882812 301.19873046875 89.75657653808594 306.1909484863281 99.29244995117188 310.2242736816406 C 109.0044097900391 314.3321228027344 119.1677703857422 317.4869995117188 129.5003204345703 319.601318359375 C 140.102783203125 321.7709045410156 151.0155639648438 322.8709716796875 161.9354858398438 322.8709716796875 C 172.8554077148438 322.8709716796875 183.7681884765625 321.7709045410156 194.3706512451172 319.601318359375 C 204.7031860351562 317.4869995117188 214.8665771484375 314.3321228027344 224.5785217285156 310.2242736816406 C 234.1144104003906 306.1909484863281 243.3118591308594 301.19873046875 251.9153594970703 295.3863220214844 C 260.4374084472656 289.6289367675781 268.4511413574219 283.0169982910156 275.7340698242188 275.7340698242188 C 283.0169982910156 268.4511413574219 289.6289367675781 260.4374084472656 295.3863220214844 251.9153594970703 C 301.19873046875 243.3118591308594 306.1909484863281 234.1144104003906 310.2242736816406 224.5785217285156 C 314.3321228027344 214.8665771484375 317.4869995117188 204.7031860351562 319.601318359375 194.3706512451172 C 321.7709045410156 183.7681884765625 322.8709716796875 172.8554077148438 322.8709716796875 161.9354858398438 C 322.8709716796875 151.0155639648438 321.7709045410156 140.102783203125 319.601318359375 129.5003204345703 C 317.4869995117188 119.1677703857422 314.3321228027344 109.0044097900391 310.2242736816406 99.29244995117188 C 306.1909484863281 89.75657653808594 301.19873046875 80.55911254882812 295.3863220214844 71.95561218261719 C 289.6289367675781 63.43356323242188 283.0169982910156 55.41983032226562 275.7340698242188 48.13690185546875 C 268.4511413574219 40.85397338867188 260.4374084472656 34.24203491210938 251.9153594970703 28.48464965820312 C 243.3118591308594 22.6722412109375 234.1144104003906 17.68002319335938 224.5785217285156 13.64669799804688 C 214.8665771484375 9.538848876953125 204.7031860351562 6.38397216796875 194.3706512451172 4.2696533203125 C 183.7681884765625 2.100067138671875 172.8554077148438 1 161.9354858398438 1 M 161.9354858398438 0 C 251.3699951171875 0 323.8709716796875 72.50099182128906 323.8709716796875 161.9354858398438 C 323.8709716796875 251.3699951171875 251.3699951171875 323.8709716796875 161.9354858398438 323.8709716796875 C 72.50099182128906 323.8709716796875 0 251.3699951171875 0 161.9354858398438 C 0 72.50099182128906 72.50099182128906 0 161.9354858398438 0 Z" stroke="none" fill="#707070"/></g></g></svg>