<svg xmlns="http://www.w3.org/2000/svg" width="323.871" height="326.228" viewBox="0 0 323.871 326.228"><g transform="translate(-140 -1963)"><g transform="translate(140 1963)" fill="#fff" opacity="0.67"><path d="M 161.9354858398438 323.3709716796875 C 150.9819793701172 323.3709716796875 140.0354919433594 322.2674865722656 129.4000701904297 320.0911865234375 C 119.0352325439453 317.9702453613281 108.8400268554688 314.8054504394531 99.09765625 310.6847839355469 C 89.53206634521484 306.6388549804688 80.30598449707031 301.631103515625 71.67569732666016 295.8006591796875 C 63.1273193359375 290.0254516601562 55.08877563476562 283.3930358886719 47.78335952758789 276.0876159667969 C 40.47794342041016 268.7821960449219 33.84552764892578 260.74365234375 28.0703182220459 252.1952819824219 C 22.23986053466797 243.5649871826172 17.23211097717285 234.3388977050781 13.18619441986084 224.7733154296875 C 9.06552791595459 215.0309448242188 5.900735855102539 204.8357391357422 3.779777526855469 194.4709014892578 C 1.603485822677612 183.8354797363281 0.4999858438968658 172.8889923095703 0.4999858438968658 161.9354858398438 C 0.4999858438968658 150.9819793701172 1.603485822677612 140.0354919433594 3.779777526855469 129.4000701904297 C 5.900735855102539 119.0352325439453 9.06552791595459 108.8400268554688 13.18619441986084 99.09765625 C 17.23211097717285 89.53206634521484 22.23986053466797 80.30598449707031 28.0703182220459 71.67569732666016 C 33.84552764892578 63.1273193359375 40.47794342041016 55.08877563476562 47.78335952758789 47.78335952758789 C 55.08877563476562 40.47794342041016 63.1273193359375 33.84552764892578 71.67569732666016 28.0703182220459 C 80.30598449707031 22.23986053466797 89.53206634521484 17.23211097717285 99.09765625 13.18619441986084 C 108.8400268554688 9.06552791595459 119.0352325439453 5.900735855102539 129.4000701904297 3.779777526855469 C 140.0354919433594 1.603485822677612 150.9819793701172 0.4999858438968658 161.9354858398438 0.4999858438968658 C 172.8889923095703 0.4999858438968658 183.8354797363281 1.603485822677612 194.4709014892578 3.779777526855469 C 204.8357391357422 5.900735855102539 215.0309448242188 9.06552791595459 224.7733154296875 13.18619441986084 C 234.3388977050781 17.23211097717285 243.5649871826172 22.23986053466797 252.1952819824219 28.0703182220459 C 260.74365234375 33.84552764892578 268.7821960449219 40.47794342041016 276.0876159667969 47.78335952758789 C 283.3930358886719 55.08877563476562 290.0254516601562 63.1273193359375 295.8006591796875 71.67569732666016 C 301.631103515625 80.30598449707031 306.6388549804688 89.53206634521484 310.6847839355469 99.09765625 C 314.8054504394531 108.8400268554688 317.9702453613281 119.0352325439453 320.0911865234375 129.4000701904297 C 322.2674865722656 140.0354919433594 323.3709716796875 150.9819793701172 323.3709716796875 161.9354858398438 C 323.3709716796875 172.8889923095703 322.2674865722656 183.8354797363281 320.0911865234375 194.4709014892578 C 317.9702453613281 204.8357391357422 314.8054504394531 215.0309448242188 310.6847839355469 224.7733154296875 C 306.6388549804688 234.3388977050781 301.631103515625 243.5649871826172 295.8006591796875 252.1952819824219 C 290.0254516601562 260.74365234375 283.3930358886719 268.7821960449219 276.0876159667969 276.0876159667969 C 268.7821960449219 283.3930358886719 260.74365234375 290.0254516601562 252.1952819824219 295.8006591796875 C 243.5649871826172 301.631103515625 234.3388977050781 306.6388549804688 224.7733154296875 310.6847839355469 C 215.0309448242188 314.8054504394531 204.8357391357422 317.9702453613281 194.4709014892578 320.0911865234375 C 183.8354797363281 322.2674865722656 172.8889923095703 323.3709716796875 161.9354858398438 323.3709716796875 Z" stroke="none"/><path d="M 161.9354858398438 1 C 151.0155639648438 1 140.102783203125 2.100067138671875 129.5003204345703 4.2696533203125 C 119.1677703857422 6.38397216796875 109.0044097900391 9.538848876953125 99.29244995117188 13.64669799804688 C 89.75657653808594 17.68002319335938 80.55911254882812 22.6722412109375 71.95561218261719 28.48464965820312 C 63.43356323242188 34.24203491210938 55.41983032226562 40.85397338867188 48.13690185546875 48.13690185546875 C 40.85397338867188 55.41983032226562 34.24203491210938 63.43356323242188 28.48464965820312 71.95561218261719 C 22.6722412109375 80.55911254882812 17.68002319335938 89.75657653808594 13.64669799804688 99.29244995117188 C 9.538848876953125 109.0044097900391 6.38397216796875 119.1677703857422 4.2696533203125 129.5003204345703 C 2.100067138671875 140.102783203125 1 151.0155639648438 1 161.9354858398438 C 1 172.8554077148438 2.100067138671875 183.7681884765625 4.2696533203125 194.3706512451172 C 6.38397216796875 204.7031860351562 9.538848876953125 214.8665771484375 13.64669799804688 224.5785217285156 C 17.68002319335938 234.1144104003906 22.6722412109375 243.3118591308594 28.48464965820312 251.9153594970703 C 34.24203491210938 260.4374084472656 40.85397338867188 268.4511413574219 48.13690185546875 275.7340698242188 C 55.41983032226562 283.0169982910156 63.43356323242188 289.6289367675781 71.95561218261719 295.3863220214844 C 80.55911254882812 301.19873046875 89.75657653808594 306.1909484863281 99.29244995117188 310.2242736816406 C 109.0044097900391 314.3321228027344 119.1677703857422 317.4869995117188 129.5003204345703 319.601318359375 C 140.102783203125 321.7709045410156 151.0155639648438 322.8709716796875 161.9354858398438 322.8709716796875 C 172.8554077148438 322.8709716796875 183.7681884765625 321.7709045410156 194.3706512451172 319.601318359375 C 204.7031860351562 317.4869995117188 214.8665771484375 314.3321228027344 224.5785217285156 310.2242736816406 C 234.1144104003906 306.1909484863281 243.3118591308594 301.19873046875 251.9153594970703 295.3863220214844 C 260.4374084472656 289.6289367675781 268.4511413574219 283.0169982910156 275.7340698242188 275.7340698242188 C 283.0169982910156 268.4511413574219 289.6289367675781 260.4374084472656 295.3863220214844 251.9153594970703 C 301.19873046875 243.3118591308594 306.1909484863281 234.1144104003906 310.2242736816406 224.5785217285156 C 314.3321228027344 214.8665771484375 317.4869995117188 204.7031860351562 319.601318359375 194.3706512451172 C 321.7709045410156 183.7681884765625 322.8709716796875 172.8554077148438 322.8709716796875 161.9354858398438 C 322.8709716796875 151.0155639648438 321.7709045410156 140.102783203125 319.601318359375 129.5003204345703 C 317.4869995117188 119.1677703857422 314.3321228027344 109.0044097900391 310.2242736816406 99.29244995117188 C 306.1909484863281 89.75657653808594 301.19873046875 80.55911254882812 295.3863220214844 71.95561218261719 C 289.6289367675781 63.43356323242188 283.0169982910156 55.41983032226562 275.7340698242188 48.13690185546875 C 268.4511413574219 40.85397338867188 260.4374084472656 34.24203491210938 251.9153594970703 28.48464965820312 C 243.3118591308594 22.6722412109375 234.1144104003906 17.68002319335938 224.5785217285156 13.64669799804688 C 214.8665771484375 9.538848876953125 204.7031860351562 6.38397216796875 194.3706512451172 4.2696533203125 C 183.7681884765625 2.100067138671875 172.8554077148438 1 161.9354858398438 1 M 161.9354858398438 0 C 251.3699951171875 0 323.8709716796875 72.50099182128906 323.8709716796875 161.9354858398438 C 323.8709716796875 251.3699951171875 251.3699951171875 323.8709716796875 161.9354858398438 323.8709716796875 C 72.50099182128906 323.8709716796875 0 251.3699951171875 0 161.9354858398438 C 0 72.50099182128906 72.50099182128906 0 161.9354858398438 0 Z" stroke="none" fill="#707070"/></g><g transform="translate(-214 1537)"><path d="M657.691,257.561l-.148.054a42.031,42.031,0,0,0-.8,9.624c0,.1.011.19.015.286A41.939,41.939,0,0,1,657.691,257.561Z" transform="translate(-137.877 274.109)" fill="none" stroke="#d95c00" stroke-width="3"/><path d="M580.448,518.816l-.064-.093-4.145,2.56c-.717.784-1.41,1.527-2.087,2.244.23.1.439.2.639.305a8.366,8.366,0,0,1,2.542,1.423l4.568-1.716-.352-2.353,34.857-17.193c.628-2.278,1.089-10.928,2.138-14.21-.921,2.181-6.409,11.737-35.8,27.478l-1.437.888Z" transform="translate(-93.011 147.923)" fill="none" stroke="#d95c00" stroke-width="3"/><path d="M628.592,572.772l.953-.359-.944.273Z" transform="translate(-122.594 103.024)" fill="none" stroke="#d95c00" stroke-width="3"/><path d="M780.162,317.307a20.6,20.6,0,0,0,2.15-3.2q-.463.421-.957.826Q780.8,316.147,780.162,317.307Z" transform="translate(-204.954 243.385)" fill="none" stroke="#d95c00" stroke-width="3"/><path d="M546.29,552.3l1.006-.727-1.736.717c.113.028.225.059.337.093C546.025,552.347,546.159,552.322,546.29,552.3Z" transform="translate(-77.476 114.35)" fill="none" stroke="#d95c00" stroke-width="3"/><path d="M492.774,568.139l-3.169.55c-3.192,2.227-6.028,4.077-8.505,5.592a7.256,7.256,0,0,1-.614,5.414,8.267,8.267,0,0,1-4.784,4.1,6.825,6.825,0,0,1-.771,3.1,7.937,7.937,0,0,1-10.041,3.551,6.918,6.918,0,0,1-3.136-2.635,7,7,0,0,1-7.568,1.878c-3.184-1.365-4.275-5.351-2.438-8.9-3.184-1.365-4.276-5.351-2.438-8.9a8.5,8.5,0,0,1,1.832-2.381,5.752,5.752,0,0,1-1.647-4.935,8.523,8.523,0,0,0-6.389-2.626,8.879,8.879,0,0,0-.755-1.153,1.829,1.829,0,0,1-.194,1.016,2.3,2.3,0,0,1-2.933.96,1.933,1.933,0,0,1-1.055-2.67,2.254,2.254,0,0,1,2.316-1.121,9.175,9.175,0,0,0-6.954-1.694,7.767,7.767,0,0,0-6.538,6.673,11.138,11.138,0,0,0-3.978-.044c-5.215.893-8.543,5.271-7.432,9.778-5.215.893-8.543,5.271-7.433,9.779.864,3.508,4.164,6.051,8.042,6.59a9.36,9.36,0,0,0-.267,5.479,10.569,10.569,0,0,0,11.786,7.891,8.93,8.93,0,0,0,3.889-1.673,10.879,10.879,0,0,0,8.15,1.823,9.177,9.177,0,0,0,7.038-5.17,13.191,13.191,0,0,0,6.72.6,12.471,12.471,0,0,0,3.1-.953,10.4,10.4,0,0,0,9.354,3.361,8.929,8.929,0,0,0,3.889-1.673,10.877,10.877,0,0,0,8.15,1.823,9.176,9.176,0,0,0,7.038-5.17,13.193,13.193,0,0,0,6.72.6c6.361-1.089,10.38-6.586,8.977-12.278a10.861,10.861,0,0,0-4.818-6.493,8.187,8.187,0,0,0,.465-5.329,9.162,9.162,0,0,0-2.429-4.254l-1.055.3Zm-71.816,18.1a1.561,1.561,0,0,1-1.915,1.1,6.938,6.938,0,0,1-5.357-8.524,1.56,1.56,0,0,1,3.067.577,3.853,3.853,0,0,0,3.106,4.934A1.561,1.561,0,0,1,420.958,586.236Zm19.61-6.942a2.3,2.3,0,0,1-2.933.96,1.934,1.934,0,0,1-1.055-2.671,2.3,2.3,0,0,1,2.933-.96A1.934,1.934,0,0,1,440.568,579.294Z" transform="translate(-2.693 111.316)" fill="#d4e8f9"/><path d="M577.748,565.9l.345-.129a8.37,8.37,0,0,0-2.542-1.423A7.94,7.94,0,0,1,577.748,565.9Z" transform="translate(-93.772 107.405)" fill="#d4e8f9"/><path d="M546.493,553.3l.2-.143c-.132.026-.265.051-.394.084C546.362,553.264,546.428,553.282,546.493,553.3Z" transform="translate(-77.876 113.485)" fill="#d4e8f9"/><path d="M426.505,608.58a3.853,3.853,0,0,1-3.106-4.934,1.56,1.56,0,0,0-3.067-.577,6.938,6.938,0,0,0,5.357,8.524,1.561,1.561,0,0,0,.816-3.014Z" transform="translate(-9.339 87.057)" fill="#d4e8f9"/><path d="M507.125,549.1a6.45,6.45,0,0,1,4.417-2.666,38.379,38.379,0,0,1,4.482-2.8,3.874,3.874,0,0,0-1.224-.652c-.008-.042-.013-.084-.024-.126a2.685,2.685,0,0,0-2.039-1.9c-.275.635-.682,1.039-1.137,1.039-.775,0-1.412-1.167-1.494-2.665a3.1,3.1,0,0,0-1.479-.108,2.724,2.724,0,0,0-2.28,2.352,3.843,3.843,0,0,0-1.387-.016,44817.729,44817.729,0,0,1-5.184,6.891,3.122,3.122,0,0,0,2.048,2.127A6.991,6.991,0,0,1,507.125,549.1Z" transform="translate(-52.557 121.083)" fill="#d4e8f9"/><path d="M536.631,545.2c.013.052.015.1.025.154a7.112,7.112,0,0,1,3.41-.037l1.736-.717-1.006.727c.091-.019.18-.042.273-.058a9.251,9.251,0,0,1,8.218,2.81,7.3,7.3,0,0,1,.8.284,6.914,6.914,0,0,1,2.106,1.409c.333.115.646.235.932.36.677-.717,1.37-1.461,2.087-2.244l4.145-2.56-4.579-6.583-3.861,3.32s-5.42-3.949-15.464,1.336A3.3,3.3,0,0,1,536.631,545.2Z" transform="translate(-71.981 121.319)" fill="#f9a78a"/><path d="M589.832,550.85l1.437-.888c-.309.166-.617.331-.932.5Z" transform="translate(-101.532 115.223)" fill="#f9a78a"/><path d="M547.208,553.268a6.05,6.05,0,0,1,2.956,2.687,8.225,8.225,0,0,1,5.25-.261,9.251,9.251,0,0,0-8.218-2.81c-.093.016-.181.039-.273.058l-.2.143C546.888,553.139,547.049,553.2,547.208,553.268Z" transform="translate(-78.109 113.704)" fill="#f9a78a"/><path d="M528.236,552.1c.084.036.163.08.243.121a8.409,8.409,0,0,1,2.843-1.323c-.01-.051-.012-.1-.025-.154a3.3,3.3,0,0,0-1.183-1.8,38.4,38.4,0,0,0-4.482,2.8A5.082,5.082,0,0,1,528.236,552.1Z" transform="translate(-66.648 115.778)" fill="#f9a78a"/><path d="M500.688,571.753a11.368,11.368,0,0,1,2.442,1.108,7.561,7.561,0,0,1,1.695-3.86,3.75,3.75,0,0,1-2.744-2.733,3.324,3.324,0,0,1,.093-1.931,3.812,3.812,0,0,1-.757-.2,6.814,6.814,0,0,0-1.816,2.2,6.315,6.315,0,0,0-.648,2.025,6.865,6.865,0,0,1,1.668,3.031C500.65,571.515,500.665,571.634,500.688,571.753Z" transform="translate(-52.15 107.518)" fill="#fff"/><path d="M541.28,553.14l-3.485,1.441a2.873,2.873,0,0,1-.111.32,4.3,4.3,0,0,1,.381.281,7.96,7.96,0,0,1,3.552-1.948C541.5,553.2,541.393,553.168,541.28,553.14Z" transform="translate(-73.195 113.497)" fill="#fff"/><path d="M538.569,582.161l-1.845,1.206,4.712-1.948.207-.237Z" transform="translate(-72.674 98.259)" fill="#fff"/><path d="M499.317,577.281a8.5,8.5,0,0,0-1.832,2.381c-1.837,3.551-.746,7.536,2.438,8.9-1.837,3.551-.745,7.536,2.438,8.9a7,7,0,0,0,7.568-1.878,6.918,6.918,0,0,0,3.136,2.635,7.937,7.937,0,0,0,10.041-3.551,6.823,6.823,0,0,0,.771-3.1,8.266,8.266,0,0,0,4.784-4.1,7.256,7.256,0,0,0,.614-5.414c-10.281,6.291-14.287,6.757-11.074,3.938a49.311,49.311,0,0,1,6.294-4.64l-11.2,4.209c-2.5-.684-.176-1.876-.176-1.876l9.652-4.865s-10.585,4.652-13.752,4.069c-2.943-.542-.482-2.169-.482-2.169l3.011-1.244a.549.549,0,0,1-.24-.861l-.606.193c-2.131.308-2.214-.405-1.991-.968a4.093,4.093,0,0,1-.914.163c-2.953.107-.939-1.987-.939-1.987l6.234-4.37a1.672,1.672,0,0,1-.217-.127,4.612,4.612,0,0,1-.491-.056l-3.859,2.248c-2.786,1.056-2.131-.685-1.954-1.078a3.511,3.511,0,0,1-.3-.2,3.106,3.106,0,0,1-1.357.59,3.391,3.391,0,0,1-1.366-.048,7.56,7.56,0,0,0-1.695,3.86,11.37,11.37,0,0,0-2.442-1.108c-.022-.119-.038-.238-.068-.358a6.865,6.865,0,0,0-1.668-3.031A5.752,5.752,0,0,0,499.317,577.281Z" transform="translate(-50.868 103.537)" fill="#fff"/><path d="M539,555.76l3.261-2.357c-.065-.022-.131-.04-.2-.059a7.958,7.958,0,0,0-3.552,1.948A4.1,4.1,0,0,1,539,555.76Z" transform="translate(-73.649 113.386)" fill="#fff"/><path d="M538.3,573.606l3.376-2.768h-.006c-.337.246-2.726,1.979-5.4,3.639Z" transform="translate(-72.427 103.88)" fill="#fff"/><path d="M505.013,561.338a3.75,3.75,0,0,0,2.744,2.733,9.654,9.654,0,0,1,5.9-3.3,10.916,10.916,0,0,1,1.339-.135l3.53-2.552a7.636,7.636,0,0,1,1.43-1.852,4.287,4.287,0,0,0-.381-.281,2.9,2.9,0,0,0,.111-.32l-3.3,1.366c-4.216,1.4-3.81-.807-3.81-.807.51-.4,1.008-.764,1.5-1.118a6.449,6.449,0,0,0-4.417,2.666,6.991,6.991,0,0,0-5.3,1.477,3.8,3.8,0,0,0,.757.2A3.325,3.325,0,0,0,505.013,561.338Z" transform="translate(-55.083 112.448)" fill="#fff"/><path d="M519.047,567.256a10.894,10.894,0,0,0-1.339.135,9.653,9.653,0,0,0-5.9,3.3,3.391,3.391,0,0,0,1.366.048,3.105,3.105,0,0,0,1.357-.59,3.517,3.517,0,0,0,.3.2c.021-.048.037-.08.037-.08Z" transform="translate(-59.138 105.826)" fill="#fff"/><path d="M536.817,557.611a7.639,7.639,0,0,0-1.43,1.852l1.916-1.385A4.1,4.1,0,0,0,536.817,557.611Z" transform="translate(-71.948 111.067)" fill="#fff"/><path d="M531.43,571.142l-.257.149a4.566,4.566,0,0,0,.491.056A1.265,1.265,0,0,1,531.43,571.142Z" transform="translate(-69.658 103.715)" fill="#fff"/><path d="M538,552.951a2.9,2.9,0,0,1-.075,1.4l3.485-1.441A7.111,7.111,0,0,0,538,552.951Z" transform="translate(-73.328 113.723)" fill="#fff"/><path d="M568.656,560.88a6.917,6.917,0,0,0-2.106-1.409,7.29,7.29,0,0,0-.8-.284,9.061,9.061,0,0,1,.942,1.176A14.169,14.169,0,0,1,568.656,560.88Z" transform="translate(-88.449 110.211)" fill="#fff"/><path d="M546.283,556.343a6.051,6.051,0,0,0-2.956-2.687c-.159-.068-.32-.128-.482-.183l-3.261,2.357a3.648,3.648,0,0,1,.812,1.539,3.329,3.329,0,0,1,.066,1.221c5.252-1.794,9.2-1.868,12.014-1.331a9.065,9.065,0,0,0-.942-1.176A8.224,8.224,0,0,0,546.283,556.343Z" transform="translate(-74.228 113.315)" fill="#fff"/><path d="M547.251,580.575l-.207.237,1.808-.747Z" transform="translate(-78.282 98.866)" fill="#fff"/><path d="M520.748,572.836a3.791,3.791,0,0,1-2.537-.444c-.177.393-.833,2.134,1.954,1.078l3.859-2.248a4.53,4.53,0,0,1-.821-.208A3.205,3.205,0,0,1,520.748,572.836Z" transform="translate(-62.509 103.784)" fill="#fff"/><path d="M526.126,574.48c2.672-1.66,5.061-3.393,5.4-3.639l-4.056.71a5.75,5.75,0,0,1-2.961-.24l-6.234,4.37s-2.015,2.094.939,1.987a4.09,4.09,0,0,0,.914-.163,2.5,2.5,0,0,1,.358-.6Z" transform="translate(-62.284 103.878)" fill="#fff"/><path d="M549.242,568.863l-5.155.9-3.377,2.768Z" transform="translate(-74.84 104.953)" fill="#fff"/><path d="M534.137,583.326l-5.455,1.737a.549.549,0,0,0,.24.861l3.37-1.393Z" transform="translate(-68.242 97.094)" fill="#fff"/><path d="M529.524,553.22a8.407,8.407,0,0,0-2.843,1.323c-.081-.041-.159-.085-.243-.121a5.082,5.082,0,0,0-2.6-.357c-.493.353-.991.721-1.5,1.118,0,0-.407,2.2,3.81.807l3.3-1.366A2.9,2.9,0,0,0,529.524,553.22Z" transform="translate(-64.849 113.453)" fill="#fff"/><path d="M530.3,564.4a7.646,7.646,0,0,1,.89-2.731l-3.53,2.552A11.176,11.176,0,0,1,530.3,564.4Z" transform="translate(-67.747 108.863)" fill="#fff"/><path d="M524.341,563.285a44.394,44.394,0,0,1,4.633-1.89,3.328,3.328,0,0,0-.066-1.221,3.648,3.648,0,0,0-.812-1.539l-1.917,1.385a7.647,7.647,0,0,0-.89,2.732,11.178,11.178,0,0,0-2.64-.18l-4.17,3.014s-.016.032-.037.08a3.791,3.791,0,0,0,2.537.444,3.205,3.205,0,0,0,2.455-1.822,4.533,4.533,0,0,0,.821.208l.257-.149A1.062,1.062,0,0,1,524.341,563.285Z" transform="translate(-62.74 110.511)" fill="#fff"/><path d="M473.351,599.564a2.3,2.3,0,0,0-2.933.96,1.934,1.934,0,0,0,1.055,2.671,2.3,2.3,0,0,0,2.933-.96A1.933,1.933,0,0,0,473.351,599.564Z" transform="translate(-36.53 88.375)" fill="#fff"/><path d="M481.086,562.954a2.008,2.008,0,0,0-1.248-1.654,2.345,2.345,0,0,0-.617-.161A9.292,9.292,0,0,1,481.086,562.954Z" transform="translate(-41.428 109.15)" fill="#fff"/><path d="M473.9,562.234a1.933,1.933,0,0,0,1.055,2.67,2.3,2.3,0,0,0,2.933-.96,1.829,1.829,0,0,0,.194-1.016,9.292,9.292,0,0,0-1.866-1.815A2.254,2.254,0,0,0,473.9,562.234Z" transform="translate(-38.421 109.176)" fill="#fff"/><path d="M583.516,569.153c.03.12.045.239.067.358a11.24,11.24,0,0,1,3.21,1.622l-1.108-7.425-4.568,1.716A7.036,7.036,0,0,1,583.516,569.153Z" transform="translate(-96.797 107.754)" fill="#f9bba2"/><path d="M623.779,574.114l.1-.915c-1.816.687-3.167,1.22-3.959,1.584Z" transform="translate(-117.882 102.597)" fill="#f9bba2"/><path d="M574.7,563.988c-.2-.1-.41-.2-.639-.305l-.08.085Q574.342,563.863,574.7,563.988Z" transform="translate(-92.916 107.768)" fill="#f9bba2"/><path d="M609.929,575.473l4.563-.792c.793-.365,2.143-.9,3.959-1.585l.01-.086Z" transform="translate(-112.453 102.7)" fill="#f9bba2"/><path d="M575.894,569.241a7.036,7.036,0,0,0-2.4-3.728l-.345.129a7.941,7.941,0,0,0-2.2-1.552q-.353-.125-.719-.22l-.234.249a8.212,8.212,0,0,1,.5,8.86,10.058,10.058,0,0,1-3.41,3.783,5.867,5.867,0,0,1,.492,1.168c2.477-1.515,5.313-3.364,8.505-5.592l3.169-.55-.085-.568a11.24,11.24,0,0,0-3.21-1.622C575.939,569.48,575.924,569.36,575.894,569.241Z" transform="translate(-89.175 107.666)" fill="#f9bba2"/><path d="M572.962,563.34l.08-.085c-.286-.125-.6-.245-.932-.36.107.1.212.211.311.322C572.6,563.252,572.784,563.294,572.962,563.34Z" transform="translate(-91.902 108.196)" fill="#f9bba2"/><path d="M573.1,563.972l.234-.249c-.178-.047-.358-.088-.541-.123C572.9,563.72,573,563.845,573.1,563.972Z" transform="translate(-92.273 107.813)" fill="#f9bba2"/><path d="M532.249,571.592a1.655,1.655,0,0,0,.217.126l.164-.115C532.5,571.607,532.375,571.6,532.249,571.592Z" transform="translate(-70.243 103.47)" fill="#f9bba2"/><path d="M548.136,570.769l-.045.033h.006Z" transform="translate(-78.851 103.917)" fill="#f9bba2"/><path d="M546.371,575.3l-5.606,3.664,3.074-.979C545.265,576.358,546.371,575.3,546.371,575.3Z" transform="translate(-74.87 101.454)" fill="#f9bba2"/><path d="M526.239,580.849l4.818-3.949-2.028.872a27.513,27.513,0,0,1-6,3.024c-.223.563-.14,1.276,1.991.968l.606-.193A2.948,2.948,0,0,1,526.239,580.849Z" transform="translate(-65.187 100.586)" fill="#f9bba2"/><path d="M545.259,573.275a8.212,8.212,0,0,0-.5-8.86c-11.7,12.336-17.256,14.746-14.372,10.786.775-1.064,1.577-2.047,2.308-2.893l-4.712,1.948-2.417,1.579a2.569,2.569,0,0,1-.953-.187l-3.01,1.244s-2.461,1.628.482,2.169c3.168.583,13.753-4.069,13.753-4.069l-9.652,4.865s-2.322,1.192.176,1.876l11.2-4.209a49.3,49.3,0,0,0-6.295,4.64c-3.213,2.819.792,2.353,11.073-3.938a5.871,5.871,0,0,0-.492-1.168A10.057,10.057,0,0,0,545.259,573.275Z" transform="translate(-63.934 107.37)" fill="#f9bba2"/><path d="M542.382,564.154l-1.092.636c-.013.053-.026.107-.042.159Z" transform="translate(-75.133 107.512)" fill="#f9bba2"/><path d="M536.079,565.7c.016-.052.029-.106.042-.159l-4.386,2.555a1.257,1.257,0,0,0,.235.205c.126.007.253.015.382.011Z" transform="translate(-69.963 106.755)" fill="#f9bba2"/><path d="M568.232,562.438a8.829,8.829,0,0,1,1.857.163c-.1-.11-.2-.217-.311-.322a14.175,14.175,0,0,0-1.96-.517C567.965,561.981,568.1,562.205,568.232,562.438Z" transform="translate(-89.57 108.812)" fill="#f9bba2"/><path d="M523.487,581.237a2.5,2.5,0,0,0-.358.6,27.509,27.509,0,0,0,6-3.024Z" transform="translate(-65.287 99.548)" fill="#f9bba2"/><path d="M532.713,585.966l-3.37,1.393a2.569,2.569,0,0,0,.953.187Z" transform="translate(-68.664 95.66)" fill="#f9bba2"/><path d="M539.88,567.6s-1.106,1.056-2.532,2.685l1.6-.51-1.808.747c-.731.846-1.533,1.828-2.308,2.893-2.884,3.96,2.673,1.55,14.372-10.786-.1-.127-.2-.253-.307-.372a8.826,8.826,0,0,0-1.857-.164c-.127-.232-.267-.457-.414-.676-2.817-.537-6.762-.463-12.014,1.331a3.216,3.216,0,0,1-.077.4l1.092-.636-1.134.794a3.819,3.819,0,0,1-3.078,2.551,4.5,4.5,0,0,1-.649.062l-.164.116a5.748,5.748,0,0,0,2.961.24l4.056-.71.045-.033-.039.032,5.156-.9-8.532,3.67-4.818,3.949a2.95,2.95,0,0,0-.612.722l5.455-1.737Z" transform="translate(-68.378 109.159)" fill="#f9bba2"/><path d="M533.734,568.445a3.819,3.819,0,0,0,3.078-2.551l-3.727,2.613A4.5,4.5,0,0,0,533.734,568.445Z" transform="translate(-70.697 106.566)" fill="#f9bba2"/><path d="M531.445,567.63l4.386-2.555a3.223,3.223,0,0,0,.077-.4,44.364,44.364,0,0,0-4.633,1.89A1.062,1.062,0,0,0,531.445,567.63Z" transform="translate(-69.673 107.227)" fill="#f9bba2"/><path d="M693.2,409.537c6.945-9.9,8.681-20.4,7.076-33.827C698,356.7,667,360.658,667,360.658l-1.128.315c.21,1.861.348,2.972.348,2.972-11.026,13.463-23.889,6.84-23.889,6.84,2.02-2.6,1.409-6.59.641-9.277-3.327-1.08-8.758-1.742-17.024,8.752-.222.282-2.491,4.2-2.62,4.536L608.057,411.53a3.616,3.616,0,0,1-1,1.426L575.61,440.371l.987,1.418,16.2-13.931,1.415,12.461-10.672,6.592c29.387-15.742,34.875-25.3,35.8-27.478-1.049,3.282-1.51,11.932-2.138,14.21l-34.857,17.193.352,2.353,18.356-6.894-1.236,11.141.944-.273c19.238-7.209,81.047-28.74,93.042-48.976-12,20.236-73.8,41.767-93.042,48.976L614.5,453.2c-1.54,11.147-3.245,61.943-3.834,80.757a162.274,162.274,0,0,0,72.182-17.484C682.709,478.439,692.2,412.386,693.2,409.537ZM617.225,422.3s5.506-31.929,14.033-41.447C622.731,390.367,617.225,422.3,617.225,422.3Zm-4.457,16.22s53.866-27.478,66.559-57.942C666.634,411.037,612.768,438.515,612.768,438.515Z" transform="translate(-93.804 218.274)" fill="#000050"/><path d="M588.728,551.906l-.928.573.065.093Z" transform="translate(-100.428 114.167)" fill="#80aee5"/><path d="M595.533,580.2l6.218-1.795-6.872,1.192Q595.22,579.883,595.533,580.2Z" transform="translate(-104.275 99.769)" fill="#80aee5"/><path d="M594.257,581.013l-.524.091.122.816,1.055-.3Q594.6,581.3,594.257,581.013Z" transform="translate(-103.652 98.351)" fill="#80aee5"/><path d="M583.278,528.177l.505-.39c.315-.167.623-.332.932-.5l10.673-6.592-1.415-12.461-16.2,13.931,4.579,6.583Z" transform="translate(-94.979 137.897)" fill="#000050"/><path d="M609.477,548.611l-18.356,6.894,1.108,7.425c.209.152.412.311.608.477l6.872-1.192,8.531-2.463Z" transform="translate(-102.233 115.958)" fill="#000050"/><path d="M594.156,580.446c-.2-.166-.4-.325-.608-.477l.084.568Z" transform="translate(-103.552 98.918)" fill="#80aee5"/><path d="M726.18,348.267l8.973-3.237,7.887,2.581,1.787-.5c-.316-2.808-.795-7.323-1.205-12.306a28.081,28.081,0,0,1-20.293,10.026c-.813.025-1.617,0-2.416-.048l-.009.01a21.726,21.726,0,0,1,1.022,2.852c.752.244,1.4.509,1.942.672A3.7,3.7,0,0,0,726.18,348.267Z" transform="translate(-172.754 232.136)" fill="#f9d0b9"/><path d="M721.739,369.09s12.863,6.624,23.889-6.84c0,0-.138-1.111-.348-2.972l-1.787.5-7.887-2.581-8.973,3.237a3.7,3.7,0,0,1-2.312.051c-.545-.163-1.19-.428-1.942-.672C723.148,362.5,723.759,366.491,721.739,369.09Z" transform="translate(-173.208 219.968)" fill="#f9d0b9"/><path d="M763.447,279.741l-.015.01-1.192,8.628-1.137.164a43.043,43.043,0,0,0,.97,4.36l1.114-1.266Z" transform="translate(-194.598 262.057)" fill="#f9d0b9"/><path d="M766.221,279.485l-.018.127.015-.01Z" transform="translate(-197.369 262.196)" fill="#f9d0b9"/><path d="M773.976,322.178a34.654,34.654,0,0,1-3.418,4.652q.022.271.044.54a35.072,35.072,0,0,0,4.341-6.248A14.215,14.215,0,0,1,773.976,322.178Z" transform="translate(-199.735 239.571)" fill="#f9d0b9"/><path d="M779.742,316.277q-.782,1.59-1.7,3.07a14.2,14.2,0,0,0,.967-1.057q.635-1.159,1.193-2.379C780.054,316.035,779.9,316.156,779.742,316.277Z" transform="translate(-203.803 242.402)" fill="#f9d0b9"/><path d="M769.949,320.733q.031.439.062.877c.055.119.088.188.088.188-.022.036-.045.069-.067.1l.012.158a9.056,9.056,0,0,0,3.6-2.279q.914-1.48,1.7-3.07c-.477.374-.968.741-1.487,1.092A23.781,23.781,0,0,1,769.949,320.733Z" transform="translate(-199.405 241.968)" fill="#f9d0b9"/><path d="M703.264,250.205a66.86,66.86,0,0,0-1.08-26.232l-3.736,3.233c-3.809,3.153-8.721,4.678-10.9,4.436-6.979-.774-6.247-8.443-6.247-8.443-3.59,7.873-19.631,14.227-23.578,15.69a40.13,40.13,0,0,0,.953,20.943C676.788,263.428,698.192,252.9,703.264,250.205Zm-19.852,7.042c-.945.213-2.068-1.159-2.509-3.064s-.031-3.624.913-3.837,2.068,1.159,2.509,3.065S684.357,257.034,683.412,257.248Zm-4.836-12.757a9.98,9.98,0,0,1,3.37-.229,3.972,3.972,0,0,0-1.057-2.287,4.314,4.314,0,0,0-2.978-1.087,1.544,1.544,0,0,1,.1-3.087,6.869,6.869,0,0,1,7.1,7,1.6,1.6,0,0,1-.01.181c.542.2,1.073.433,1.59.677.6.324,1.182.687,1.752,1.049.54.416,1.077.827,1.573,1.284-.655-.209-1.27-.463-1.883-.712-.625-.222-1.245-.439-1.854-.665-.591-.178-1.178-.36-1.767-.522a1.533,1.533,0,0,1-2.29-.47,14.1,14.1,0,0,0-3.453-.112c-.311.047-.635.06-.945.131l-.474.087-.466.123a9.332,9.332,0,0,0-1.851.689A6.84,6.84,0,0,1,678.576,244.491Zm-13.436,15.072c-.945.213-2.069-1.159-2.509-3.064s-.032-3.624.914-3.837,2.068,1.159,2.509,3.064S666.084,259.349,665.139,259.563Zm-6.22-8.1.155-.564a1.075,1.075,0,0,1,.105-.275l.131-.267a4.716,4.716,0,0,1,.673-1l.444-.416a4.015,4.015,0,0,1,.491-.358,5.4,5.4,0,0,1,2.24-.8,5.155,5.155,0,0,1,2.3.21,17.957,17.957,0,0,0-2.132.548,8.222,8.222,0,0,0-1.864.871,7.256,7.256,0,0,0-.8.6,7.031,7.031,0,0,0-.682.75,6.612,6.612,0,0,0-.6.865,3.463,3.463,0,0,0-.264.476c-.087.163-.176.328-.279.495-.006-.188,0-.378.012-.57A2.813,2.813,0,0,1,658.919,251.465Z" transform="translate(-137.904 292.78)" fill="#f9d0b9"/><path d="M676.4,311.635a32.228,32.228,0,0,1-13.192-11.7,38.634,38.634,0,0,1-4.517-9.576,41.821,41.821,0,0,1-1.89-10.978c0,.1,0,.19,0,.285.6,18.918,13.483,34.034,29.278,35l.477-.543A26.7,26.7,0,0,1,676.4,311.635Z" transform="translate(-137.92 262.251)" fill="#f9d0b9"/><path d="M770.157,325.714q.088,1.2.183,2.373a34.656,34.656,0,0,0,3.418-4.652A9.056,9.056,0,0,1,770.157,325.714Z" transform="translate(-199.517 238.314)" fill="#f9d0b9"/><path d="M708.475,262.356a1.6,1.6,0,0,0,.01-.181,6.869,6.869,0,0,0-7.1-7,1.544,1.544,0,0,0-.1,3.087,4.314,4.314,0,0,1,2.978,1.087,3.972,3.972,0,0,1,1.057,2.287c.273.025.544.057.813.1A11.067,11.067,0,0,1,708.475,262.356Z" transform="translate(-161.284 275.405)" fill="#f9d0b9"/><path d="M712.5,272.3a1.533,1.533,0,0,0,2.29.47,15.457,15.457,0,0,0-1.963-.426C712.717,272.331,712.608,272.32,712.5,272.3Z" transform="translate(-168.187 266.098)" fill="#f9d0b9"/><path d="M769.846,328.284c.048-.014.095-.031.142-.046l-.012-.158C769.934,328.149,769.889,328.214,769.846,328.284Z" transform="translate(-199.348 235.791)" fill="#f9d0b9"/><path d="M769.366,325.666c.145.331.257.576.328.73q-.031-.438-.062-.877C769.544,325.568,769.455,325.62,769.366,325.666Z" transform="translate(-199.088 237.182)" fill="#f9d0b9"/><path d="M763.227,307.06c.321,1.164.669,2.269,1.015,3.28l.1-4.546Z" transform="translate(-195.752 247.9)" fill="#f9d0b9"/><path d="M723.338,344.189a28.081,28.081,0,0,0,20.293-10.026q-.022-.269-.044-.54a29.828,29.828,0,0,1-10.921,7.964,26.347,26.347,0,0,1-9.345,2.031c-.645.02-1.285.008-1.921-.019l-.477.542C721.721,344.19,722.526,344.213,723.338,344.189Z" transform="translate(-172.764 232.779)" fill="#f9d0b9"/><path d="M757.237,328.472a30.67,30.67,0,0,1-10.6,10.29,29.83,29.83,0,0,0,10.921-7.964q-.094-1.173-.183-2.373C757.331,328.441,757.285,328.458,757.237,328.472Z" transform="translate(-186.739 235.602)" fill="#f9d0b9"/><path d="M669.082,175.449c15.739-.484,29.136,13.13,31.381,31.086a6.291,6.291,0,0,1,3.793,3.331,14.912,14.912,0,0,0,.828-4.216s2.325-16.217-8.12-24.041l-7.878-5.911a9.022,9.022,0,0,1-.743-.621c-3.232-3.011-29.55-26.693-46.109-15.5,0,0-8.441,7.279,4.752,15.294,0,0-21.932-6.867-21.061,3.4a10.142,10.142,0,0,0,3.859,9.336s-15.083,10.247,9.945,15.412c0,0,.263-.091.731-.263C643.545,187.424,655.025,175.881,669.082,175.449Z" transform="translate(-120.792 328.973)" fill="#0a2256"/><path d="M687.166,198.444c15.565-.479,28.834,12.832,31.3,30.493l.065.022c-2.245-17.956-15.641-31.57-31.381-31.086-14.057.432-25.537,11.975-28.624,27.3l.148-.054C661.943,210.106,673.3,198.871,687.166,198.444Z" transform="translate(-138.859 306.549)" fill="#0a2256"/><path d="M705.306,237.683l2.563-1.745.017-.127s3.016-8.429,10.646-6.232c.037.01.071.026.107.037-2.464-17.661-15.733-30.971-31.3-30.493-13.865.426-25.224,11.662-28.493,26.677,3.947-1.463,19.988-7.817,23.578-15.69,0,0-.732,7.668,6.248,8.443,2.183.242,7.094-1.282,10.9-4.436l3.736-3.233a66.86,66.86,0,0,1,1.08,26.232c.725-.385,1.12-.611,1.12-.611C705.428,236.889,705.362,237.284,705.306,237.683Z" transform="translate(-139.035 305.869)" fill="#0a2256"/><path d="M762.956,279.763l-2.563,1.745a23.813,23.813,0,0,0,.234,7.047l1.138-.164Z" transform="translate(-194.121 262.045)" fill="#0a2256"/><path d="M786.2,286.291l.542,1.38a26.587,26.587,0,0,1-1.875,4.24c6.572-5.973,8.385-14.025,6.1-18.648a68.49,68.49,0,0,1-4,9.369Q786.67,284.5,786.2,286.291Z" transform="translate(-207.513 265.577)" fill="#f9d0b9"/><path d="M785.064,301.8a39.085,39.085,0,0,1-2.289,6.446q.494-.406.957-.826a26.584,26.584,0,0,0,1.875-4.24Z" transform="translate(-206.374 250.073)" fill="#f9d0b9"/><path d="M766.309,279.553l-.07-.068,0,.117Z" transform="translate(-197.387 262.196)" fill="#f9d0b9"/><path d="M787.811,294.5c-.547,1.072-.955,1.827-1.1,2.083l.391.994C787.378,296.573,787.615,295.548,787.811,294.5Z" transform="translate(-208.515 254.035)" fill="#f9d0b9"/><path d="M781.763,308.306c.155-.121.311-.242.462-.365a39.106,39.106,0,0,0,2.289-6.446l-.1-.252A38.835,38.835,0,0,1,781.763,308.306Z" transform="translate(-205.824 250.373)" fill="#f9d0b9"/><path d="M775.278,288.506l-.055.1L766,279.633l-.073.049-.26,11.9,1.479-1.681c.038,3.33.224,7.04.476,10.688a23.784,23.784,0,0,0,3.907-2.93c.519-.351,1.01-.718,1.487-1.092a38.824,38.824,0,0,0,2.652-7.063Z" transform="translate(-197.078 262.115)" fill="#f9d0b9"/><path d="M787.572,297.188l.1.252q.466-1.792.773-3.659l-.167.33C788.081,295.155,787.843,296.181,787.572,297.188Z" transform="translate(-208.98 254.427)" fill="#f9d0b9"/><path d="M767.027,302.112l-1.479,1.681-.1,4.546c.691,2.018,1.371,3.654,1.789,4.607.089-.046.178-.1.266-.147C767.252,309.152,767.066,305.442,767.027,302.112Z" transform="translate(-196.959 249.901)" fill="#f9d0b9"/><path d="M790.171,269.9c-.043-1.342-.151-2.662-.314-3.961l-.065-.022a42.613,42.613,0,0,1,.382,4.269C790.171,270.091,790.174,270,790.171,269.9Z" transform="translate(-210.187 269.568)" fill="#f9d0b9"/><path d="M789.688,265.967c.163,1.3.271,2.62.314,3.961,0,.1,0,.19,0,.286s.012.19.015.285a42.2,42.2,0,0,1-.539,8.168,68.5,68.5,0,0,0,4-9.369A6.292,6.292,0,0,0,789.688,265.967Z" transform="translate(-210.018 269.541)" fill="#f9d0b9"/><path d="M789.114,284.052l.168-.33a42.189,42.189,0,0,0,.539-8.168c0-.1-.011-.19-.015-.285A42.091,42.091,0,0,1,789.114,284.052Z" transform="translate(-209.818 264.487)" fill="#f9d0b9"/><path d="M775.674,284.806l-4.711-11.983-4.568,3.11,9.224,8.974Z" transform="translate(-197.473 265.816)" fill="#f9d0b9"/><path d="M766.242,271.634l.07.068,4.568-3.11,4.711,11.983c.14-.256.548-1.011,1.1-2.083a42.1,42.1,0,0,0,.691-8.784,42.7,42.7,0,0,0-.382-4.269c-.037-.011-.07-.027-.107-.037C769.258,263.2,766.242,271.634,766.242,271.634Z" transform="translate(-197.39 270.047)" fill="#f9d0b9"/><path d="M699.72,343.819a26.7,26.7,0,0,0,10.158,2.49l6.772-7.7C709.572,343.09,703.893,344.111,699.72,343.819Z" transform="translate(-161.243 230.067)" fill="#fff"/><path d="M770.085,327.439c.007.1.014.195.021.292.022-.036.045-.068.067-.1C770.173,327.627,770.14,327.558,770.085,327.439Z" transform="translate(-199.478 236.138)" fill="#fff"/><path d="M695.576,308.036l12.068-13.719a43.041,43.041,0,0,1-.97-4.36l-3.338.482a45.079,45.079,0,0,0,2.193-8.1c-5.072,2.692-26.476,13.223-44.592,9.627a38.632,38.632,0,0,0,4.517,9.576c7.037,1.968,21.275,3.033,41.628-9.482-20.353,12.515-34.591,11.449-41.628,9.482a32.227,32.227,0,0,0,13.192,11.7C682.819,313.536,688.5,312.515,695.576,308.036Z" transform="translate(-140.169 260.643)" fill="#fff"/><path d="M743.829,317.681a7.1,7.1,0,0,1-4.7-.3,7.1,7.1,0,0,0,4.7.3c.043-.069.088-.135.13-.2-.007-.1-.014-.195-.021-.292-.071-.154-.183-.4-.328-.73a4.589,4.589,0,0,1-1.9.6l.114-5.212c-.346-1.01-.694-2.116-1.015-3.28l-12.068,13.719A70.54,70.54,0,0,0,741.67,311.4a70.54,70.54,0,0,1-12.931,10.886l-6.772,7.7c.637.027,1.276.039,1.921.019a26.346,26.346,0,0,0,9.345-2.031A30.669,30.669,0,0,0,743.829,317.681Z" transform="translate(-173.332 246.393)" fill="#fff"/><path d="M757.13,289.23a23.808,23.808,0,0,1-.234-7.047l-1.162.791,1.162-.791c.056-.4.121-.794.208-1.178,0,0-.395.226-1.12.611a45.074,45.074,0,0,1-2.193,8.1Z" transform="translate(-190.625 261.37)" fill="#fff"/><path d="M765.2,320.962a4.589,4.589,0,0,0,1.9-.6c-.418-.953-1.1-2.59-1.789-4.607Z" transform="translate(-196.823 242.49)" fill="#fff"/><ellipse cx="1.754" cy="3.542" rx="1.754" ry="3.542" transform="translate(523.925 545.841) rotate(-13.114)" fill="#0a2256"/><path d="M710.327,282.626c-.945.213-1.354,1.931-.913,3.837s1.564,3.278,2.509,3.064,1.354-1.931.914-3.836S711.272,282.413,710.327,282.626Z" transform="translate(-166.415 260.501)" fill="#0a2256"/><path d="M699.072,270.734l.474-.087c.31-.071.633-.084.945-.131a14.1,14.1,0,0,1,3.453.112,1.529,1.529,0,0,1-.2-.677,6.476,6.476,0,0,0-.071-.683,9.98,9.98,0,0,0-3.37.229,6.84,6.84,0,0,0-3.549,2.048,9.337,9.337,0,0,1,1.851-.689Z" transform="translate(-159.632 267.774)" fill="#0a2256"/><path d="M717.514,272.011c.589.162,1.176.344,1.767.522.609.227,1.23.443,1.854.665.613.248,1.228.5,1.883.712-.5-.457-1.033-.868-1.573-1.284-.57-.362-1.15-.725-1.753-1.049-.518-.244-1.048-.475-1.591-.677A1.538,1.538,0,0,1,717.514,272.011Z" transform="translate(-170.912 266.861)" fill="#0a2256"/><path d="M712.177,270.686c.109.016.218.027.327.044a15.46,15.46,0,0,1,1.963.426,1.538,1.538,0,0,0,.589-1.111,11.066,11.066,0,0,0-2.336-.618c-.269-.043-.541-.075-.813-.1a6.458,6.458,0,0,1,.071.683A1.528,1.528,0,0,0,712.177,270.686Z" transform="translate(-167.865 267.715)" fill="#0a2256"/><path d="M661.574,281.328a3.47,3.47,0,0,1,.264-.476,6.605,6.605,0,0,1,.6-.865,7.028,7.028,0,0,1,.682-.75,7.271,7.271,0,0,1,.8-.6,8.224,8.224,0,0,1,1.864-.871,17.953,17.953,0,0,1,2.132-.548,5.154,5.154,0,0,0-2.3-.21,5.4,5.4,0,0,0-2.24.8,4.014,4.014,0,0,0-.491.358l-.444.416a4.717,4.717,0,0,0-.673,1l-.131.267a1.077,1.077,0,0,0-.106.275l-.155.564a2.813,2.813,0,0,0-.071.573c-.01.192-.018.382-.012.57C661.4,281.656,661.487,281.491,661.574,281.328Z" transform="translate(-140.362 263.566)" fill="#0a2256"/><path d="M538,508.394s-3.006,2.678-3.006,5.98,1.346,5.98,3.006,5.98,3.005-2.678,3.005-5.98S538,508.394,538,508.394Zm1.737,9.208a.869.869,0,1,1-.869-.859A.864.864,0,0,1,539.736,517.6Z" transform="translate(-71.734 137.811)" fill="#63c6f7"/><path d="M525.12,507.121c1.465,0,2.653-2.232,2.653-4.984s-2.653-4.984-2.653-4.984-2.652,2.232-2.652,4.984S523.656,507.121,525.12,507.121Zm.869-4.011a.859.859,0,1,1-.869.858A.863.863,0,0,1,525.989,503.109Z" transform="translate(-64.928 143.919)" fill="#63c6f7"/><path d="M524.379,535.666a.732.732,0,0,1,.159,1.448,3.025,3.025,0,0,1,.57.079,4.993,4.993,0,0,0,.366-1.951,4.654,4.654,0,0,0-1.5-2.99,4.654,4.654,0,0,0-1.5,2.99c0,.11,0,.218.01.325a3.274,3.274,0,0,1,1.175.682A.74.74,0,0,1,524.379,535.666Z" transform="translate(-64.928 124.847)" fill="#63c6f7"/><path d="M523.983,542.177c.455,0,.862-.4,1.137-1.039a3.023,3.023,0,0,0-.57-.079.767.767,0,0,1-.159.018.737.737,0,0,1-.742-.733.745.745,0,0,1,.016-.15,3.273,3.273,0,0,0-1.175-.682C522.57,541.011,523.208,542.177,523.983,542.177Z" transform="translate(-64.939 120.902)" fill="#63c6f7"/><path d="M529.145,511.914a.858.858,0,1,0-.869-.858A.863.863,0,0,0,529.145,511.914Z" transform="translate(-68.084 136.831)" fill="#fff"/><path d="M541.576,527.537a.869.869,0,1,0,.869-.858A.864.864,0,0,0,541.576,527.537Z" transform="translate(-75.311 127.875)" fill="#fff"/><path d="M526.53,540.461a.742.742,0,0,0-1.467-.15,3.184,3.184,0,0,1,.685.853c.068,0,.133.009.2.012A.734.734,0,0,0,526.53,540.461Z" transform="translate(-66.338 120.784)" fill="#fff"/><path d="M525.045,541.005a.732.732,0,0,0,.726.883.761.761,0,0,0,.159-.018c-.067,0-.133-.013-.2-.012A3.182,3.182,0,0,0,525.045,541.005Z" transform="translate(-66.319 120.091)" fill="#fff"/><path d="M532.883,388.171a10.683,10.683,0,0,0,14.849-2.007,10.387,10.387,0,0,0-2.032-14.671,10.683,10.683,0,0,0-14.848,2.007A10.387,10.387,0,0,0,532.883,388.171Zm-2.428-7.544a2.742,2.742,0,0,1,1.128-3.915,2.908,2.908,0,0,1,.9-.258,7.2,7.2,0,1,1,6.467,10.3c-.039,0-.077-.005-.116-.006a1.558,1.558,0,0,0,1.061.792c.948,0-.985,1.662-2.315,1.471s-6.993-3.21-4.487-5.216l.009,0a7.1,7.1,0,0,1-.918-1.7A3.35,3.35,0,0,1,530.455,380.627Z" transform="translate(-68.311 213.359)" fill="#fff"/><path d="M533.347,388.057a7.027,7.027,0,0,1,.756-3.164,2.908,2.908,0,0,0-.9.258,2.742,2.742,0,0,0-1.128,3.915,3.35,3.35,0,0,0,1.731,1.469A7.034,7.034,0,0,1,533.347,388.057Z" transform="translate(-69.928 204.919)" fill="#d4e8f9"/><path d="M537.589,400.968l-.009,0c-2.506,2.006,3.157,5.026,4.487,5.216s3.263-1.471,2.315-1.471a1.558,1.558,0,0,1-1.061-.792A7.229,7.229,0,0,1,537.589,400.968Z" transform="translate(-72.796 196.184)" fill="#d4e8f9"/><path d="M539.891,381.828a2.741,2.741,0,0,1-1.128,3.915,3.089,3.089,0,0,1-2.42.067,7.1,7.1,0,0,0,.918,1.7c.1-.019,2.068-.415,2.6-1.068.542-.669,2.843.268,2.437,1.337a3.485,3.485,0,0,0,.7,2.685c.039,0,.077.006.116.006a7.136,7.136,0,1,0-6.467-10.3A3.335,3.335,0,0,1,539.891,381.828Z" transform="translate(-72.467 209.645)" fill="#fff"/><path d="M539.891,381.828a2.741,2.741,0,0,1-1.128,3.915,3.089,3.089,0,0,1-2.42.067,7.1,7.1,0,0,0,.918,1.7c.1-.019,2.068-.415,2.6-1.068.542-.669,2.843.268,2.437,1.337a3.485,3.485,0,0,0,.7,2.685c.039,0,.077.006.116.006a7.136,7.136,0,1,0-6.467-10.3A3.335,3.335,0,0,1,539.891,381.828Z" transform="translate(-72.467 209.645)" fill="#d4e8f9" opacity="0.47"/><path d="M535.8,390.509a3.089,3.089,0,0,0,2.421-.067,2.741,2.741,0,0,0,1.128-3.915,3.335,3.335,0,0,0-3.249-1.661,6.984,6.984,0,0,0-.3,5.642Z" transform="translate(-71.924 204.945)" fill="#d4e8f9"/><path d="M535.8,390.509a3.089,3.089,0,0,0,2.421-.067,2.741,2.741,0,0,0,1.128-3.915,3.335,3.335,0,0,0-3.249-1.661,6.984,6.984,0,0,0-.3,5.642Z" transform="translate(-71.924 204.945)" fill="#d4e8f9" opacity="0.47"/><path d="M543.385,399.7c.406-1.07-1.895-2.006-2.437-1.337-.528.652-2.5,1.049-2.6,1.068a7.229,7.229,0,0,0,5.732,2.954A3.485,3.485,0,0,1,543.385,399.7Z" transform="translate(-73.559 197.722)" fill="#d4e8f9"/><path d="M543.385,399.7c.406-1.07-1.895-2.006-2.437-1.337-.528.652-2.5,1.049-2.6,1.068a7.229,7.229,0,0,0,5.732,2.954A3.485,3.485,0,0,1,543.385,399.7Z" transform="translate(-73.559 197.722)" fill="#d4e8f9" opacity="0.47"/><path d="M580.682,342.768a7.99,7.99,0,0,0,6.233-9.47,8.085,8.085,0,0,0-9.586-6.158,7.989,7.989,0,0,0-6.232,9.471A8.084,8.084,0,0,0,580.682,342.768Zm-5.758-11.082a5.557,5.557,0,0,1,7.772-.561c.022.02.042.041.064.061a1.166,1.166,0,0,0-.212-.98c-.547-.467,1.407-.474,2.079.291s2.417,5.3-.042,5.222l-.006,0a5.372,5.372,0,0,1-.33,1.438,2.5,2.5,0,0,1,.26,1.7,2.129,2.129,0,0,1-2.627,1.7,2.2,2.2,0,0,1-.642-.3,5.558,5.558,0,0,1-5.748-.889A5.4,5.4,0,0,1,574.924,331.686Z" transform="translate(-91.255 236.396)" fill="#fff"/><path d="M593.521,352.379a2.2,2.2,0,0,0,.642.3,2.129,2.129,0,0,0,2.627-1.7,2.5,2.5,0,0,0-.26-1.7,5.4,5.4,0,0,1-.985,1.65A5.477,5.477,0,0,1,593.521,352.379Z" transform="translate(-103.537 224.271)" fill="#d4e8f9"/><path d="M598.3,339.189l.006,0c2.459.076.714-4.457.042-5.222s-2.626-.758-2.079-.291a1.166,1.166,0,0,1,.212.98A5.4,5.4,0,0,1,598.3,339.189Z" transform="translate(-104.979 232.923)" fill="#d4e8f9"/><path d="M578.662,342.74a5.558,5.558,0,0,0,5.748.889,2.483,2.483,0,0,1-1.047-2.555,2.129,2.129,0,0,1,2.627-1.7,2.321,2.321,0,0,1,1.429,1.16,5.377,5.377,0,0,0,.33-1.438,4.692,4.692,0,0,0-2.038-.663c-.65.119-1.506-1.555-.731-1.973a2.673,2.673,0,0,0,.951-1.895c-.022-.02-.042-.041-.064-.061a5.557,5.557,0,0,0-7.772.561A5.4,5.4,0,0,0,578.662,342.74Z" transform="translate(-94.426 233.021)" fill="#fff"/><path d="M578.662,342.74a5.558,5.558,0,0,0,5.748.889,2.483,2.483,0,0,1-1.047-2.555,2.129,2.129,0,0,1,2.627-1.7,2.321,2.321,0,0,1,1.429,1.16,5.377,5.377,0,0,0,.33-1.438,4.692,4.692,0,0,0-2.038-.663c-.65.119-1.506-1.555-.731-1.973a2.673,2.673,0,0,0,.951-1.895c-.022-.02-.042-.041-.064-.061a5.557,5.557,0,0,0-7.772.561A5.4,5.4,0,0,0,578.662,342.74Z" transform="translate(-94.426 233.021)" fill="#d4e8f9" opacity="0.47"/><path d="M593.794,346.653a2.129,2.129,0,0,0-2.627,1.7,2.483,2.483,0,0,0,1.048,2.555,5.477,5.477,0,0,0,2.024-1.45,5.4,5.4,0,0,0,.985-1.65A2.32,2.32,0,0,0,593.794,346.653Z" transform="translate(-102.23 225.737)" fill="#d4e8f9"/><path d="M593.794,346.653a2.129,2.129,0,0,0-2.627,1.7,2.483,2.483,0,0,0,1.048,2.555,5.477,5.477,0,0,0,2.024-1.45,5.4,5.4,0,0,0,.985-1.65A2.32,2.32,0,0,0,593.794,346.653Z" transform="translate(-102.23 225.737)" fill="#d4e8f9" opacity="0.47"/><path d="M594.4,338.1c-.775.418.081,2.092.732,1.973a4.691,4.691,0,0,1,2.038.663,5.4,5.4,0,0,0-1.818-4.53A2.673,2.673,0,0,1,594.4,338.1Z" transform="translate(-103.847 231.373)" fill="#d4e8f9"/><path d="M594.4,338.1c-.775.418.081,2.092.732,1.973a4.691,4.691,0,0,1,2.038.663,5.4,5.4,0,0,0-1.818-4.53A2.673,2.673,0,0,1,594.4,338.1Z" transform="translate(-103.847 231.373)" fill="#d4e8f9" opacity="0.47"/><path d="M782.732,163.181a5.99,5.99,0,0,0,7.1,4.563,5.92,5.92,0,0,0,4.618-7.017,5.99,5.99,0,0,0-7.1-4.563A5.919,5.919,0,0,0,782.732,163.181Zm2.836-3.648a4.117,4.117,0,0,1,5.758-.416c.017.014.031.03.047.045a.865.865,0,0,0-.158-.726c-.406-.346,1.043-.351,1.541.216s1.79,3.926-.031,3.869l0,0a3.977,3.977,0,0,1-.244,1.065,1.852,1.852,0,0,1,.193,1.256,1.577,1.577,0,0,1-1.947,1.263,1.625,1.625,0,0,1-.475-.222,4.118,4.118,0,0,1-4.259-.658A4,4,0,0,1,785.567,159.533Z" transform="translate(-206.279 329.276)" fill="#fff"/><path d="M799.346,174.865a1.623,1.623,0,0,0,.475.222,1.577,1.577,0,0,0,1.947-1.263,1.853,1.853,0,0,0-.193-1.256,4.009,4.009,0,0,1-.73,1.223A4.056,4.056,0,0,1,799.346,174.865Z" transform="translate(-215.378 320.292)" fill="#d4e8f9"/><path d="M802.888,165.092l0,0c1.822.057.529-3.3.031-3.869s-1.946-.562-1.541-.216a.864.864,0,0,1,.157.726A4,4,0,0,1,802.888,165.092Z" transform="translate(-216.447 326.703)" fill="#d4e8f9"/><path d="M788.337,167.723a4.118,4.118,0,0,0,4.259.658,1.839,1.839,0,0,1-.776-1.893,1.577,1.577,0,0,1,1.947-1.263,1.72,1.72,0,0,1,1.058.859,3.972,3.972,0,0,0,.244-1.065,3.491,3.491,0,0,0-1.51-.491c-.482.088-1.116-1.153-.542-1.462a1.98,1.98,0,0,0,.706-1.4c-.017-.015-.031-.031-.048-.045a4.117,4.117,0,0,0-5.758.416A4,4,0,0,0,788.337,167.723Z" transform="translate(-208.628 326.775)" fill="#fff"/><path d="M788.337,167.723a4.118,4.118,0,0,0,4.259.658,1.839,1.839,0,0,1-.776-1.893,1.577,1.577,0,0,1,1.947-1.263,1.72,1.72,0,0,1,1.058.859,3.972,3.972,0,0,0,.244-1.065,3.491,3.491,0,0,0-1.51-.491c-.482.088-1.116-1.153-.542-1.462a1.98,1.98,0,0,0,.706-1.4c-.017-.015-.031-.031-.048-.045a4.117,4.117,0,0,0-5.758.416A4,4,0,0,0,788.337,167.723Z" transform="translate(-208.628 326.775)" fill="#d4e8f9" opacity="0.47"/><path d="M799.549,170.623a1.578,1.578,0,0,0-1.947,1.263,1.839,1.839,0,0,0,.776,1.893,4.056,4.056,0,0,0,1.5-1.074,4.013,4.013,0,0,0,.73-1.223A1.72,1.72,0,0,0,799.549,170.623Z" transform="translate(-214.41 321.378)" fill="#d4e8f9"/><path d="M799.549,170.623a1.578,1.578,0,0,0-1.947,1.263,1.839,1.839,0,0,0,.776,1.893,4.056,4.056,0,0,0,1.5-1.074,4.013,4.013,0,0,0,.73-1.223A1.72,1.72,0,0,0,799.549,170.623Z" transform="translate(-214.41 321.378)" fill="#d4e8f9" opacity="0.47"/><path d="M800,164.288c-.574.31.06,1.55.542,1.462a3.492,3.492,0,0,1,1.51.491,4,4,0,0,0-1.347-3.357A1.98,1.98,0,0,1,800,164.288Z" transform="translate(-215.608 325.555)" fill="#d4e8f9"/><path d="M800,164.288c-.574.31.06,1.55.542,1.462a3.492,3.492,0,0,1,1.51.491,4,4,0,0,0-1.347-3.357A1.98,1.98,0,0,1,800,164.288Z" transform="translate(-215.608 325.555)" fill="#d4e8f9" opacity="0.47"/><path d="M580.468,465.653a5.9,5.9,0,0,1-1.986-.5A2.642,2.642,0,0,0,580.468,465.653Z" transform="translate(-95.365 161.307)" fill="#fff"/><path d="M569.927,431.437a8.781,8.781,0,1,0,8.887,8.781A8.835,8.835,0,0,0,569.927,431.437Zm3.907,15.4c-3.875,3.092-8.283-.009-8.283-.009a6.268,6.268,0,0,0,2.005-.926,5.837,5.837,0,0,1-.761-.8,2.844,2.844,0,0,1-2.363.066,2.3,2.3,0,0,1-1.256-3.18,2.662,2.662,0,0,1,2.455-1.369,5.87,5.87,0,1,1,8.2,6.214Z" transform="translate(-85.887 179.628)" fill="#fff"/><path d="M567.876,451.564a2.662,2.662,0,0,0-2.455,1.369,2.3,2.3,0,0,0,1.256,3.18,2.844,2.844,0,0,0,2.363-.066,5.64,5.64,0,0,1-1.164-4.483Z" transform="translate(-88.132 168.692)" fill="#d4e8f9"/><path d="M576.359,464.552a2.641,2.641,0,0,1-1.986-.5,5.893,5.893,0,0,1-1.448-.925,6.267,6.267,0,0,1-2,.926s4.408,3.1,8.283.009a5.9,5.9,0,0,1-2.4.512C576.65,464.574,576.5,464.563,576.359,464.552Z" transform="translate(-91.256 162.408)" fill="#d4e8f9"/><path d="M576.894,440.856a5.853,5.853,0,0,0-5.8,4.89,2.825,2.825,0,0,1,1.038.225,2.3,2.3,0,0,1,1.256,3.18,2.488,2.488,0,0,1-1.131,1.078,5.844,5.844,0,0,0,.761.8c.423-.276.711-.5.711-.5a2.343,2.343,0,0,0,.737,1.428,5.9,5.9,0,0,0,1.986.5,10.608,10.608,0,0,0,3.63-1.213,7.713,7.713,0,0,1-.786.723,5.795,5.795,0,0,0-2.4-11.1Z" transform="translate(-91.351 174.51)" fill="#fff"/><path d="M576.894,440.856a5.853,5.853,0,0,0-5.8,4.89,2.825,2.825,0,0,1,1.038.225,2.3,2.3,0,0,1,1.256,3.18,2.488,2.488,0,0,1-1.131,1.078,5.844,5.844,0,0,0,.761.8c.423-.276.711-.5.711-.5a2.343,2.343,0,0,0,.737,1.428,5.9,5.9,0,0,0,1.986.5,10.608,10.608,0,0,0,3.63-1.213,7.713,7.713,0,0,1-.786.723,5.795,5.795,0,0,0-2.4-11.1Z" transform="translate(-91.351 174.51)" fill="#d4e8f9" opacity="0.47"/><path d="M573.294,454.97a2.3,2.3,0,0,0-1.256-3.18,2.825,2.825,0,0,0-1.038-.225,5.641,5.641,0,0,0,1.164,4.483A2.487,2.487,0,0,0,573.294,454.97Z" transform="translate(-91.256 168.691)" fill="#d4e8f9"/><path d="M573.294,454.97a2.3,2.3,0,0,0-1.256-3.18,2.825,2.825,0,0,0-1.038-.225,5.641,5.641,0,0,0,1.164,4.483A2.487,2.487,0,0,0,573.294,454.97Z" transform="translate(-91.256 168.691)" fill="#d4e8f9" opacity="0.47"/><path d="M582.831,464.8c.146.011.291.022.439.022a5.9,5.9,0,0,0,2.4-.512,7.7,7.7,0,0,0,.786-.723A10.607,10.607,0,0,1,582.831,464.8Z" transform="translate(-97.728 162.156)" fill="#d4e8f9"/><path d="M582.831,464.8c.146.011.291.022.439.022a5.9,5.9,0,0,0,2.4-.512,7.7,7.7,0,0,0,.786-.723A10.607,10.607,0,0,1,582.831,464.8Z" transform="translate(-97.728 162.156)" fill="#d4e8f9" opacity="0.47"/><path d="M576.022,462.025s-.288.227-.711.5a5.9,5.9,0,0,0,1.448.925A2.342,2.342,0,0,1,576.022,462.025Z" transform="translate(-93.642 163.007)" fill="#d4e8f9"/><path d="M576.022,462.025s-.288.227-.711.5a5.9,5.9,0,0,0,1.448.925A2.342,2.342,0,0,1,576.022,462.025Z" transform="translate(-93.642 163.007)" fill="#d4e8f9" opacity="0.47"/><path d="M752.632,141.872a6.931,6.931,0,0,1-1.779-1.656A3.108,3.108,0,0,0,752.632,141.872Z" transform="translate(-189.028 337.872)" fill="#fff"/><path d="M743.682,122.95a10.67,10.67,0,0,0,14.414-4.083,10.41,10.41,0,0,0-4.132-14.241,10.67,10.67,0,0,0-14.414,4.083A10.41,10.41,0,0,0,743.682,122.95Zm-3.5-7.128a2.738,2.738,0,0,1,.551-4.036,3.2,3.2,0,0,1,3.364-.026,7.064,7.064,0,0,1,8.911-1.788,6.885,6.885,0,0,1,2.733,9.42,7.031,7.031,0,0,1-6.726,3.541c-5.852,1.012-8.637-4.742-8.637-4.742a7.541,7.541,0,0,0,2.634.179,6.924,6.924,0,0,1-.327-1.261A3.374,3.374,0,0,1,740.187,115.822Z" transform="translate(-182.162 357.925)" fill="#fff"/><path d="M745.057,122.176a6.911,6.911,0,0,1,.622-.913,3.2,3.2,0,0,0-3.364.026,2.738,2.738,0,0,0-.551,4.036,3.373,3.373,0,0,0,2.5,1.287A6.821,6.821,0,0,1,745.057,122.176Z" transform="translate(-183.74 348.423)" fill="#d4e8f9"/><path d="M748.344,139.525a3.107,3.107,0,0,1-1.779-1.656,6.9,6.9,0,0,1-.969-1.793,7.54,7.54,0,0,1-2.634-.179s2.784,5.754,8.637,4.742a7.038,7.038,0,0,1-2.808-.84C748.635,139.715,748.49,139.62,748.344,139.525Z" transform="translate(-184.74 340.219)" fill="#d4e8f9"/><path d="M749.377,125.145a2.772,2.772,0,0,0-.067,1.911,6.931,6.931,0,0,0,1.779,1.656,12.706,12.706,0,0,0,4.5.809,9.379,9.379,0,0,1-1.244.305,7.031,7.031,0,0,0,6.726-3.541,6.885,6.885,0,0,0-2.733-9.42,7.064,7.064,0,0,0-8.911,1.788,3.321,3.321,0,0,1,.95.829,2.738,2.738,0,0,1-.551,4.036,3.01,3.01,0,0,1-1.81.484,6.924,6.924,0,0,0,.327,1.261C748.944,125.218,749.377,125.145,749.377,125.145Z" transform="translate(-187.485 351.031)" fill="#fff"/><path d="M749.377,125.145a2.772,2.772,0,0,0-.067,1.911,6.931,6.931,0,0,0,1.779,1.656,12.706,12.706,0,0,0,4.5.809,9.379,9.379,0,0,1-1.244.305,7.031,7.031,0,0,0,6.726-3.541,6.885,6.885,0,0,0-2.733-9.42,7.064,7.064,0,0,0-8.911,1.788,3.321,3.321,0,0,1,.95.829,2.738,2.738,0,0,1-.551,4.036,3.01,3.01,0,0,1-1.81.484,6.924,6.924,0,0,0,.327,1.261C748.944,125.218,749.377,125.145,749.377,125.145Z" transform="translate(-187.485 351.031)" fill="#d4e8f9" opacity="0.47"/><path d="M488.3,411.9l2.128-13.759h-15.39l2.026,13.971A71.283,71.283,0,0,1,488.3,411.9Z" transform="translate(-39.154 197.722)" fill="#e7eaf4"/><path d="M408.7,444.788c20.408-8.484,22.543-2.928,22.543-2.928l2.392,13.829c16.371,1.814,16.5-6.649,16.5-6.649V430.9c-1.447-1.5-4.307-2.33-8.183-2.635l-.224,1.446h-1.775V436.1h-7.47v-6.386H430.9l-.179-1.234c-11.663.988-28.092,4.335-42.316,7.62l1.348,12.938v1.589Zm-7.752-4.323a4.015,4.015,0,0,0,6.015-.856,1.626,1.626,0,1,1,2.519,2.058,7.229,7.229,0,0,1-10.387,1.469,1.625,1.625,0,0,1,1.853-2.671Z" transform="translate(8.188 180.349)" fill="#e7eaf4"/><path d="M342.223,444.56c-16.944,3.914-32.666,8.3-39.939,10.383q1.711,7.123,4.034,13.995l35.9-10.013Z" transform="translate(56.716 171.497)" fill="#e7eaf4"/><path d="M409.387,455.918a7.229,7.229,0,0,0,10.387-1.469,1.626,1.626,0,1,0-2.519-2.058,4.015,4.015,0,0,1-6.015.856,1.625,1.625,0,0,0-1.853,2.671Z" transform="translate(-2.102 167.566)" fill="#e7eaf4"/><path d="M481.239,429.553v-.995h7.47v.995h1.775l.224-1.446a71.28,71.28,0,0,0-11.237.212l.179,1.234Z" transform="translate(-41.564 181.512)" fill="#768edd"/><rect width="16.47" height="11.385" transform="translate(435.675 606.065)" fill="#e7eaf4"/><rect width="7.47" height="0.995" transform="translate(439.675 610.07)" fill="#e7eaf4"/></g></g></svg>