<svg xmlns="http://www.w3.org/2000/svg" width="323.186" height="323.186" viewBox="0 0 323.186 323.186"><path d="M641.218,740.34q-3.254,0-6.476-.132l-.064.219q3.253.132,6.539.134,4.193,0,8.332-.216l-.085-.218Q645.368,740.338,641.218,740.34Z" transform="translate(-479.608 -417.376)" fill="#fff"/><path d="M634.728,740.307l-.063.22h.006l.064-.219Z" transform="translate(-479.738 -417.475)" fill="#fff"/><path d="M615.1,187.757A161.593,161.593,0,1,0,408.475,343.046l-.047-.25a161.362,161.362,0,1,1,91.31-.337c.012.076.024.15.036.226A161.716,161.716,0,0,0,615.1,187.757Z" transform="translate(-291.914 -26.105)" fill="#fff"/><path d="M405.621,327.921a66.726,66.726,0,0,1,3.776-38.984l-.013-.013s1.537-26.519,7.247-38.543l.009-.02-.4.021.4-.021c1.109-2.378-3.335-.088-5.361-.531a5.166,5.166,0,0,1-3.525-2.762l-11.69-23.616a31.315,31.315,0,0,1-3.25-13.893V182.714a25.716,25.716,0,0,1,19.875-25.047l11.682-2.722.216.384h3.245A14.292,14.292,0,0,0,435,153.4l.75-.436-.006-.788a6.28,6.28,0,0,1-8.1-6.015,6.284,6.284,0,0,1-6.25-5.648,7.732,7.732,0,0,1-.447-.658,6.239,6.239,0,0,1-5.734-7.52,6.265,6.265,0,0,1-4.466-7.821,6.273,6.273,0,0,1,.264-9.326,6.271,6.271,0,0,1-1.562-9.2,6.276,6.276,0,0,1,2.382-9.642,6.258,6.258,0,0,1,2.824-7.569,6.284,6.284,0,0,1,5.032-8.072c0-.044,0-.087.011-.131a6.269,6.269,0,0,1,9.217-4.689,6.267,6.267,0,0,1,9.375-4.481,6.269,6.269,0,0,1,9.931-.248,6.266,6.266,0,0,1,10.333.882,6.269,6.269,0,0,1,8.091,3.342,6.273,6.273,0,0,1,7.824,4.34c.077,0,.152-.012.23-.012a6.27,6.27,0,0,1,5.895,8.443,6.267,6.267,0,0,1,4.1,8.879,6.268,6.268,0,0,1,1.219,8.946,6.28,6.28,0,0,1,1.613,11.585,6.283,6.283,0,0,1-2.91,10.03,6.284,6.284,0,0,1-5.547,9.235c-.113,0-.224-.011-.336-.017a6.267,6.267,0,0,1-5.617,8.286,6.268,6.268,0,0,1-9.3,3.333,6.248,6.248,0,0,1-5.158,2.963l-.012,1.576,1.889.92a14.287,14.287,0,0,0,6.255,1.442l1.678.129.068-.13,13.56,2.354a25.712,25.712,0,0,1,19.787,16.612L512.9,204.828a31.329,31.329,0,0,1,1.659,14.133L512.91,233.6a9.808,9.808,0,0,1-7.486,8.462c-8.248,1.934-20.072.546-20.072.546h0a36.8,36.8,0,0,0,0,11.061l0,0h0c6.418,14.264,5.558,31.821,5.356,34.812l1.761,15.508s4.218,17.9,7.548,38.756a161.376,161.376,0,1,0-91.312.337c-1-5.2-2-10.223-2.9-14.314Q405.708,328.342,405.621,327.921Z" transform="translate(-292.192 -26.383)" fill="#fff" opacity="0.67"/><path d="M634.822,715.932q3.222.13,6.476.132,4.149,0,8.247-.212a152.047,152.047,0,0,0-9.1-19.369Z" transform="translate(-479.688 -393.1)" fill="#fff" opacity="0.67"/><path d="M640.377,696.244,634.806,715.8h.007l5.622-19.449C640.416,696.315,640.4,696.279,640.377,696.244Z" transform="translate(-479.765 -392.967)" fill="#fff"/><path d="M549.683,726.481l.047.245a158.385,158.385,0,0,0,37.668,6.11l.063-.22A158.122,158.122,0,0,1,549.683,726.481Z" transform="translate(-432.883 -409.785)" fill="#3d5a80"/><path d="M668,732.123l.085.217a158.231,158.231,0,0,0,37.093-6.383c-.012-.074-.023-.147-.035-.221A158.016,158.016,0,0,1,668,732.123Z" transform="translate(-497.595 -409.371)" fill="#3d5a80"/><path d="M587.577,645.9c.02.035.039.071.058.106l2-6.915v0l-2,6.915a152.052,152.052,0,0,1,9.1,19.369,158.023,158.023,0,0,0,37.143-6.387c-3.269-20.467-7.41-38.037-7.41-38.037l-1.729-15.22c-.019.284-.032.438-.032.438-14.7,13.476-66.343,14.75-79.8.013a65.466,65.466,0,0,0-3.707,38.26q.086.414.177.828c.886,4.015,1.873,8.942,2.851,14.048a158.119,158.119,0,0,0,37.777,6.136Z" transform="translate(-426.938 -342.623)" fill="#3d5a80"/><path d="M579.753,190.976a11.807,11.807,0,0,1-1.7-3.407c-1.154-3.614-.57-7.03,1.306-7.629a2.9,2.9,0,0,1,2.723.883v-6.932a14.952,14.952,0,0,1,14.952-14.952h5.11a14.952,14.952,0,0,1,14.952,14.952h0v6.929a2.9,2.9,0,0,1,2.721-.882c1.876.6,2.46,4.015,1.306,7.629a11.8,11.8,0,0,1-1.7,3.408A7.491,7.491,0,0,1,624.6,193.4c0-.078-.012-.154-.012-.233a6.171,6.171,0,0,1,4.3-5.88,6.162,6.162,0,0,1,2.427-8.27,6.153,6.153,0,0,1-.12-7.777,6.152,6.152,0,0,1-4.087-8.729,6.132,6.132,0,0,1-2.14-7.085,6.168,6.168,0,0,1-4.442-4.321,6.106,6.106,0,0,1-5.887-3.712,6.151,6.151,0,0,1-7.116-2.886,6.143,6.143,0,0,1-7.057-1.835,6.166,6.166,0,0,1-7.308,1.733,6.234,6.234,0,0,1-.588-.3,6.148,6.148,0,0,1-7.9,1.771,6.166,6.166,0,0,1-5.141,5.169,6.166,6.166,0,0,1-3.1,4.675,6.147,6.147,0,0,1-3.393,7.465,6.123,6.123,0,0,1-.972,5.892,6.153,6.153,0,0,1-.837,8.519,6.141,6.141,0,0,1,2.623,6.914,6.16,6.16,0,0,1,1.79,5.692,6.138,6.138,0,0,1,2.252,1.111A7.4,7.4,0,0,1,579.753,190.976Z" transform="translate(-444.441 -89.802)" fill="#293241"/><path d="M589.25,252.841a6.426,6.426,0,0,0-1.81.21,6.17,6.17,0,0,1,1.838,4.389h0a6.131,6.131,0,0,1,3.713,1.251,23.284,23.284,0,0,1-1.382-4.334A4.317,4.317,0,0,1,589.25,252.841Z" transform="translate(-453.817 -150.319)" fill="#293241"/><path d="M668.68,254.354a23.262,23.262,0,0,1-3.791,8.65h0l.151-.2c.066.121.135.239.207.355a6.2,6.2,0,0,1,.675.363,6.155,6.155,0,0,1,4.909-2.9,6.167,6.167,0,0,1,5.85-4.221c.111,0,.22.011.33.016a6.076,6.076,0,0,1-.177-.629,6.854,6.854,0,0,0-5.8-2.955A4.329,4.329,0,0,1,668.68,254.354Z" transform="translate(-496.179 -150.289)" fill="#293241"/><path d="M605.421,275.772l.251.326c-.048.087-.1.17-.15.253.118,0,.233.01.349.017-.156-.2-.3-.415-.45-.624C605.421,275.753,605.421,275.763,605.421,275.772Z" transform="translate(-463.709 -162.901)" fill="#293241"/><path d="M578.349,276.588a6.887,6.887,0,0,0,6.267,3,36.4,36.4,0,0,1-4.367-3.387A6.144,6.144,0,0,1,578.349,276.588Z" transform="translate(-448.831 -163.131)" fill="#293241"/><path d="M584.476,281.459l-.03,0v0a7.474,7.474,0,0,1-6.686-2.952,6.169,6.169,0,0,0,6.136,5.543h0A6.139,6.139,0,0,1,584.476,281.459Z" transform="translate(-448.505 -164.387)" fill="#293241"/><path d="M587.547,272.278a6.161,6.161,0,0,1,4.483-2.855,7.3,7.3,0,0,0,.543-.849l.173.225c0-.009,0-.019,0-.028a23.3,23.3,0,0,1-2.425-4.313,6.131,6.131,0,0,0-3.713-1.251h0a6.138,6.138,0,0,1-3.972,5.765A36.4,36.4,0,0,0,587,272.358c.034,0,.067,0,.1,0Q587.324,272.322,587.547,272.278Z" transform="translate(-451.146 -155.977)" fill="#293241"/><path d="M595.289,288.208a6.136,6.136,0,0,1-3.7,1.241h0a6.166,6.166,0,0,0,7.951,5.9l-.04-5.279A36.064,36.064,0,0,1,595.289,288.208Z" transform="translate(-456.069 -169.684)" fill="#293241"/><path d="M604.1,279.09l0-.438c-.447-.492-.878-1-1.28-1.523-.116-.008-.231-.016-.349-.017-.026.043-.051.087-.078.13a6.151,6.151,0,0,1-2.461,4.794,36.062,36.062,0,0,0,4.21,1.866l-.037-4.809Z" transform="translate(-460.669 -163.61)" fill="#293241"/><path d="M595.289,286.4q-1.3-.673-2.529-1.443c-.2.035-.394.066-.593.085a6.138,6.138,0,0,0-.58,2.6h0A6.136,6.136,0,0,0,595.289,286.4Z" transform="translate(-456.103 -167.936)" fill="#293241"/><path d="M599.22,277.405a7.49,7.49,0,0,1-4.99,3.351q1.232.771,2.529,1.443A6.15,6.15,0,0,0,599.22,277.405Z" transform="translate(-457.541 -163.784)" fill="#293241"/><path d="M593.708,280.069a7.364,7.364,0,0,0,4.483-2.855A6.16,6.16,0,0,0,593.708,280.069Z" transform="translate(-457.259 -163.692)" fill="#293241"/><path d="M568.5,263.583a36.487,36.487,0,0,1-2.223-3.012,5.832,5.832,0,0,1-2.345-.143,6.125,6.125,0,0,0,5.63,7.38A7.451,7.451,0,0,1,568.5,263.583Z" transform="translate(-440.865 -154.467)" fill="#293241"/><path d="M575.711,269.083c.005.115,0,.229.015.344a6.864,6.864,0,0,0,.885,2.763,6.137,6.137,0,0,1,.374-1.708Q576.33,269.8,575.711,269.083Z" transform="translate(-447.423 -159.235)" fill="#293241"/><path d="M576.86,250.872a6.136,6.136,0,0,0-2.252-1.111,6.168,6.168,0,0,1-5.238,4.877,36.463,36.463,0,0,0,2.223,3.012,7.467,7.467,0,0,1,5.267-6.778Z" transform="translate(-443.903 -148.62)" fill="#293241"/><path d="M582.744,257.706a6.171,6.171,0,0,0-1.838-4.389,6.881,6.881,0,0,0-5.205,7q.62.716,1.275,1.4A6.165,6.165,0,0,1,582.744,257.706Z" transform="translate(-447.37 -150.564)" fill="#293241"/><path d="M578.115,272.235a6.128,6.128,0,0,0-.374,1.708c.086.15.174.3.27.442a6.145,6.145,0,0,0,1.9-.391C579.29,273.43,578.7,272.839,578.115,272.235Z" transform="translate(-448.529 -160.968)" fill="#293241"/><path d="M578.584,267.214c.58.6,1.175,1.2,1.8,1.758a6.139,6.139,0,0,0,3.972-5.765A6.165,6.165,0,0,0,578.584,267.214Z" transform="translate(-448.963 -155.999)" fill="#293241"/><path d="M559.2,248.609a36.127,36.127,0,0,1-1.856-3.825,6.139,6.139,0,0,1-3.448-1.651,6.148,6.148,0,0,0,4.385,7.676c.011-.055.017-.11.03-.165A6.123,6.123,0,0,1,559.2,248.609Z" transform="translate(-435.307 -144.99)" fill="#293241"/><path d="M570.346,242.585c.051.012.1.029.148.042a6.16,6.16,0,0,0-1.79-5.692,6.109,6.109,0,0,1-6.731,4.4,36.122,36.122,0,0,0,1.856,3.826A6.165,6.165,0,0,1,570.346,242.585Z" transform="translate(-439.843 -141.593)" fill="#293241"/><path d="M566.431,257.815q-.757-1.142-1.427-2.342a6.129,6.129,0,0,0-.888,2.034c-.013.055-.019.11-.03.165a5.835,5.835,0,0,0,2.345.143Z" transform="translate(-441.046 -151.782)" fill="#293241"/><path d="M572.82,249.506c-.05-.013-.1-.031-.148-.042a6.165,6.165,0,0,0-6.516,2.577q.671,1.2,1.427,2.342A6.169,6.169,0,0,0,572.82,249.506Z" transform="translate(-442.147 -148.386)" fill="#293241"/><path d="M553.7,228.705a36.112,36.112,0,0,1-1.03-5.859,6.117,6.117,0,0,1-.606-.337,6.155,6.155,0,0,0-.259,9.153A6.163,6.163,0,0,1,553.7,228.705Z" transform="translate(-433.259 -133.685)" fill="#293241"/><path d="M565.467,228.271a6.142,6.142,0,0,0-2.623-6.914,6.138,6.138,0,0,1-6.691.849,36.086,36.086,0,0,0,1.031,5.859,6.149,6.149,0,0,1,8.283.206Z" transform="translate(-436.648 -133.066)" fill="#293241"/><path d="M556.1,236.471a6.163,6.163,0,0,0-1.9,2.957,6.139,6.139,0,0,0,3.448,1.651A35.911,35.911,0,0,1,556.1,236.471Z" transform="translate(-435.624 -141.358)" fill="#293241"/><path d="M566.759,234.793a6.149,6.149,0,0,0-8.283-.206,35.932,35.932,0,0,0,1.552,4.607,6.109,6.109,0,0,0,6.731-4.4Z" transform="translate(-437.929 -139.494)" fill="#293241"/><path d="M551.637,208.142a36.593,36.593,0,0,1,.253-4.22,6.182,6.182,0,0,1-2.229-1.761,6.154,6.154,0,0,0,1.533,9.03,6.18,6.18,0,0,1,.549-.422C551.68,209.9,551.637,209.027,551.637,208.142Z" transform="translate(-432.401 -122.54)" fill="#293241"/><path d="M562.641,210.68a6.153,6.153,0,0,0,.837-8.519,6.143,6.143,0,0,1-7.438,1.761,36.566,36.566,0,0,0-.253,4.22c0,.885.043,1.759.105,2.627a6.154,6.154,0,0,1,6.748-.089Z" transform="translate(-436.451 -122.542)" fill="#293241"/><path d="M555.337,221.558a6.2,6.2,0,0,0-.549.422,6.108,6.108,0,0,0,.606.337C555.371,222.065,555.355,221.811,555.337,221.558Z" transform="translate(-435.963 -133.208)" fill="#293241"/><path d="M562.772,220.149a6.154,6.154,0,0,0-6.748.089c.018.253.034.507.058.759a6.138,6.138,0,0,0,6.691-.849Z" transform="translate(-436.597 -131.9)" fill="#293241"/><path d="M552.533,188.28a35.938,35.938,0,0,1,1.4-4.714A6.176,6.176,0,0,1,552,180.837a6.158,6.158,0,0,0-2.338,9.463A6.177,6.177,0,0,1,552.533,188.28Z" transform="translate(-432.387 -110.858)" fill="#293241"/><path d="M564.6,193.721a6.123,6.123,0,0,0,.972-5.892,6.127,6.127,0,0,1-6.366-.842,35.93,35.93,0,0,0-1.4,4.714,6.143,6.143,0,0,1,6.794,2.02Z" transform="translate(-437.564 -114.238)" fill="#293241"/><path d="M553.562,201.39a36.166,36.166,0,0,1,.644-3.781,6.176,6.176,0,0,0-2.873,2.02A6.182,6.182,0,0,0,553.562,201.39Z" transform="translate(-434.054 -120.071)" fill="#293241"/><path d="M563.794,199.224A6.143,6.143,0,0,0,557,197.2a36.163,36.163,0,0,0-.644,3.781,6.143,6.143,0,0,0,7.438-1.761Z" transform="translate(-436.774 -119.667)" fill="#293241"/><path d="M559.461,171.057a36.213,36.213,0,0,1,2.03-3.6,6.177,6.177,0,0,1-2.57-3.358,6.14,6.14,0,0,0-2.773,7.428,6,6,0,0,1,3.312-.47Z" transform="translate(-436.475 -101.697)" fill="#293241"/><path d="M569.054,179.307a6.147,6.147,0,0,0,3.393-7.465,6.141,6.141,0,0,1-6.352-.177,36.207,36.207,0,0,0-2.03,3.6A6.166,6.166,0,0,1,569.054,179.307Z" transform="translate(-440.988 -105.841)" fill="#293241"/><path d="M558.537,182.9q.614-1.638,1.377-3.2a6,6,0,0,0-3.312.47A6.176,6.176,0,0,0,558.537,182.9Z" transform="translate(-436.938 -110.229)" fill="#293241"/><path d="M567.329,183.819a6.166,6.166,0,0,0-4.99-4.041q-.763,1.56-1.377,3.2a6.127,6.127,0,0,0,6.366.842Z" transform="translate(-439.305 -110.298)" fill="#293241"/><path d="M567.8,153.8q.9-1.078,1.884-2.081a6.157,6.157,0,0,1-2.238-5.472,6.168,6.168,0,0,0-4.941,7.923,6.108,6.108,0,0,1,5.3-.37Z" transform="translate(-439.989 -92.929)" fill="#293241"/><path d="M578.409,164.562a6.167,6.167,0,0,0,3.1-4.675,6.128,6.128,0,0,1-4.839-1.31q-.98,1-1.884,2.081A6.177,6.177,0,0,1,578.409,164.562Z" transform="translate(-446.873 -98.678)" fill="#293241"/><path d="M565.42,166.448a36.4,36.4,0,0,1,2.726-3.727,6.108,6.108,0,0,0-5.3.37A6.178,6.178,0,0,0,565.42,166.448Z" transform="translate(-440.347 -100.716)" fill="#293241"/><path d="M574.992,167.17a6.177,6.177,0,0,0-3.627-3.9,36.412,36.412,0,0,0-2.726,3.727,6.141,6.141,0,0,0,6.352.177Z" transform="translate(-443.511 -101.251)" fill="#293241"/><path d="M579.779,141.657a36.372,36.372,0,0,1,4.135-2.816,6.024,6.024,0,0,1-.871-4.192,6.156,6.156,0,0,0-9.049,4.6c-.006.043-.006.086-.011.129a6.215,6.215,0,0,1,.951-.08A6.152,6.152,0,0,1,579.779,141.657Z" transform="translate(-446.411 -86.061)" fill="#293241"/><path d="M588.324,152.355a6.166,6.166,0,0,0,5.141-5.169,6.138,6.138,0,0,1-2.288-2.151,36.381,36.381,0,0,0-4.135,2.816,6.136,6.136,0,0,1,1.323,3.81A6.28,6.28,0,0,1,588.324,152.355Z" transform="translate(-453.592 -92.255)" fill="#293241"/><path d="M576.172,151.618a36.508,36.508,0,0,1,3.557-3.194,6.083,6.083,0,0,0-5.8-2.278A6.157,6.157,0,0,0,576.172,151.618Z" transform="translate(-446.394 -92.829)" fill="#293241"/><path d="M583.866,155.884a6.3,6.3,0,0,0,.041-.694,6.138,6.138,0,0,0-1.323-3.81,36.512,36.512,0,0,0-3.557,3.194,6.128,6.128,0,0,0,4.839,1.31Z" transform="translate(-449.213 -95.784)" fill="#293241"/><path d="M597.193,132.158a36.022,36.022,0,0,1,5.443-2.224,6.156,6.156,0,0,1,.964-5.319,6.154,6.154,0,0,0-9.2,4.4A6.184,6.184,0,0,1,597.193,132.158Z" transform="translate(-457.598 -80.425)" fill="#293241"/><path d="M601.081,142.98c0,.036-.014.07-.02.106a6.148,6.148,0,0,0,7.9-1.771,6.153,6.153,0,0,1-2.817-3.652,36.017,36.017,0,0,0-5.444,2.224A6.138,6.138,0,0,1,601.081,142.98Z" transform="translate(-461.057 -88.155)" fill="#293241"/><path d="M594.722,138.92a6.189,6.189,0,0,0,.456.861q.945-.552,1.925-1.047a6.184,6.184,0,0,0-2.8-3.145A6.128,6.128,0,0,0,594.722,138.92Z" transform="translate(-457.561 -87.001)" fill="#293241"/><path d="M598.648,145.873c.006-.036.015-.07.02-.106a6.137,6.137,0,0,0-.383-3.092q-.98.5-1.925,1.047A6.138,6.138,0,0,0,598.648,145.873Z" transform="translate(-458.729 -90.942)" fill="#293241"/><path d="M617.7,125.429a6.18,6.18,0,0,1,.4,1.417,36.338,36.338,0,0,1,5.393-.636,6.072,6.072,0,0,1,1.386-3.933,6.156,6.156,0,0,0-9.75.243A6.132,6.132,0,0,1,617.7,125.429Z" transform="translate(-468.953 -78.331)" fill="#293241"/><path d="M619.312,139.274a6.24,6.24,0,0,0,.588.3,6.166,6.166,0,0,0,7.308-1.733,6.184,6.184,0,0,1-1.385-3.853,36.334,36.334,0,0,0-5.393.636A6.169,6.169,0,0,1,619.312,139.274Z" transform="translate(-471.257 -86.113)" fill="#293241"/><path d="M612.673,131a36.024,36.024,0,0,1,3.935-.994,6.095,6.095,0,0,0-2.971-4.325,6.155,6.155,0,0,0-.964,5.319Z" transform="translate(-467.525 -81.489)" fill="#293241"/><path d="M615.781,140.07a6.169,6.169,0,0,0,1.118-4.645,36.025,36.025,0,0,0-3.936.994A6.154,6.154,0,0,0,615.781,140.07Z" transform="translate(-467.813 -86.91)" fill="#293241"/><path d="M643.746,126.756a6.178,6.178,0,0,1,3.506-3.612,6.153,6.153,0,0,0-10.145-.866,6.183,6.183,0,0,1,1.387,3.924A36.434,36.434,0,0,1,643.746,126.756Z" transform="translate(-480.983 -78.332)" fill="#293241"/><path d="M637.953,136.472a6.156,6.156,0,0,1-.848,1.362,6.143,6.143,0,0,0,7.057,1.835,6.116,6.116,0,0,1-.418-5.144,36.435,36.435,0,0,0-5.251-.554A6.139,6.139,0,0,1,637.953,136.472Z" transform="translate(-481.011 -86.102)" fill="#293241"/><path d="M633.983,129.064c.522-.022,1.044-.04,1.571-.04.4,0,.8.017,1.2.03a6.183,6.183,0,0,0-1.387-3.924,6.072,6.072,0,0,0-1.387,3.933Z" transform="translate(-479.34 -81.184)" fill="#293241"/><path d="M636.216,136.435a6.141,6.141,0,0,0,.54-2.5c-.4-.013-.8-.03-1.2-.03-.527,0-1.049.017-1.57.04a6.183,6.183,0,0,0,1.385,3.853A6.159,6.159,0,0,0,636.216,136.435Z" transform="translate(-479.34 -86.064)" fill="#293241"/><path d="M660.559,131.12a35.986,35.986,0,0,1,3.82,1.4,6.186,6.186,0,0,1,3.531-2.713,6.156,6.156,0,0,0-7.944-3.28A6.156,6.156,0,0,1,660.559,131.12Z" transform="translate(-493.526 -81.716)" fill="#293241"/><path d="M653.007,141.592a6.151,6.151,0,0,0,7.116,2.886,6.132,6.132,0,0,1,.386-5.648,35.991,35.991,0,0,0-3.82-1.4,6.079,6.079,0,0,1-3.681,4.163Z" transform="translate(-489.718 -88.025)" fill="#293241"/><path d="M652.066,130.694a36.061,36.061,0,0,1,4.1.98,6.157,6.157,0,0,0-.593-4.592A6.178,6.178,0,0,0,652.066,130.694Z" transform="translate(-489.234 -82.269)" fill="#293241"/><path d="M652.007,140.364a6.076,6.076,0,0,0,3.681-4.163,36.069,36.069,0,0,0-4.1-.98,6.117,6.117,0,0,0,.418,5.144Z" transform="translate(-488.762 -86.796)" fill="#293241"/><path d="M678,138.708q1.56.9,3.018,1.938a6.151,6.151,0,0,1,4.533-2.233,6.159,6.159,0,0,0-7.682-4.259,6.116,6.116,0,0,1,.13,4.554Z" transform="translate(-503.334 -86.062)" fill="#293241"/><path d="M669.041,148.541a6.106,6.106,0,0,0,5.887,3.712,6.13,6.13,0,0,1,1.177-5.582q-1.457-1.041-3.018-1.938A6.174,6.174,0,0,1,669.041,148.541Z" transform="translate(-498.506 -92.087)" fill="#293241"/><path d="M669.91,137.185a36.179,36.179,0,0,1,3.661,1.84,6.117,6.117,0,0,0-.13-4.554A6.186,6.186,0,0,0,669.91,137.185Z" transform="translate(-499.013 -86.38)" fill="#293241"/><path d="M668.4,146.234a6.174,6.174,0,0,0,4.047-3.808,36.181,36.181,0,0,0-3.661-1.84,6.132,6.132,0,0,0-.386,5.648Z" transform="translate(-497.899 -89.78)" fill="#293241"/><path d="M694.224,146.528a6.134,6.134,0,0,1-1.068,2.725,36.476,36.476,0,0,1,3.153,3.32,6.058,6.058,0,0,1,3.757-.244,6.154,6.154,0,0,0-5.787-8.286c-.076,0-.151.009-.226.012A6.139,6.139,0,0,1,694.224,146.528Z" transform="translate(-511.714 -91.703)" fill="#293241"/><path d="M682.307,158.4a6.168,6.168,0,0,0,4.442,4.321,6.177,6.177,0,0,1,3.525-3.617,36.45,36.45,0,0,0-3.153-3.32A6.168,6.168,0,0,1,682.307,158.4Z" transform="translate(-505.764 -97.144)" fill="#293241"/><path d="M684.96,146.3a36.368,36.368,0,0,1,3.637,2.966,6.156,6.156,0,0,0,.9-5.2A6.151,6.151,0,0,0,684.96,146.3Z" transform="translate(-507.251 -91.718)" fill="#293241"/><path d="M682.016,154.682a6.168,6.168,0,0,0,4.815-2.616,36.341,36.341,0,0,0-3.637-2.966,6.13,6.13,0,0,0-1.177,5.582Z" transform="translate(-505.508 -94.516)" fill="#293241"/><path d="M704.439,165.385a36.219,36.219,0,0,1,2.887,4.872,6.131,6.131,0,0,1,3.043,1.171,6.15,6.15,0,0,0-4.028-8.714A6.171,6.171,0,0,1,704.439,165.385Z" transform="translate(-517.903 -100.934)" fill="#293241"/><path d="M691.838,169.923a6.132,6.132,0,0,0,2.14,7.085,6.163,6.163,0,0,1,5.523-3.433c.2,0,.405.011.6.03a36.233,36.233,0,0,0-2.887-4.872,6.107,6.107,0,0,1-5.38,1.19Z" transform="translate(-510.768 -104.233)" fill="#293241"/><path d="M700.26,162.72c.652.781,1.269,1.592,1.855,2.427a6.174,6.174,0,0,0,1.9-2.671,6.057,6.057,0,0,0-3.757.244Z" transform="translate(-515.644 -101.85)" fill="#293241"/><path d="M692.316,166.881a6.107,6.107,0,0,0,5.38-1.19c-.586-.835-1.2-1.646-1.855-2.427A6.177,6.177,0,0,0,692.316,166.881Z" transform="translate(-511.274 -101.253)" fill="#293241"/><path d="M714.085,184.412a36.027,36.027,0,0,1,1.765,6.56,6.182,6.182,0,0,1,1.08.157,6.151,6.151,0,0,0-1.2-8.779A6.187,6.187,0,0,1,714.085,184.412Z" transform="translate(-523.214 -111.689)" fill="#293241"/><path d="M696.33,187.166a6.152,6.152,0,0,0,4.087,8.729,6.152,6.152,0,0,1,4.843-2.356c.12,0,.237.011.356.018A36.032,36.032,0,0,0,703.85,187a6.148,6.148,0,0,1-7.52.169Z" transform="translate(-513.07 -114.234)" fill="#293241"/><path d="M712.339,182.944a6.187,6.187,0,0,0,1.649-2.062,6.132,6.132,0,0,0-3.043-1.171Q711.717,181.287,712.339,182.944Z" transform="translate(-521.506 -110.267)" fill="#293241"/><path d="M697.139,183.076a6.148,6.148,0,0,0,7.521-.169q-.62-1.657-1.394-3.233c-.2-.019-.4-.03-.6-.03A6.163,6.163,0,0,0,697.139,183.076Z" transform="translate(-513.893 -110.224)" fill="#293241"/><path d="M718.449,203.071a36.519,36.519,0,0,1,.359,5.056q0,1.853-.184,3.659a6.191,6.191,0,0,1,2.318,1.717,6.162,6.162,0,0,0-1.584-11.369A6.2,6.2,0,0,1,718.449,203.071Z" transform="translate(-525.588 -122.513)" fill="#293241"/><path d="M704.688,205.49a6.153,6.153,0,0,0,.12,7.777,6.163,6.163,0,0,1,5.424-.306,36.105,36.105,0,0,0-.175-8.714,6.119,6.119,0,0,1-5.37,1.243Z" transform="translate(-517.308 -123.682)" fill="#293241"/><path d="M718.234,202.874a6.2,6.2,0,0,0,.909-.938,6.184,6.184,0,0,0-1.08-.157C718.125,202.143,718.183,202.507,718.234,202.874Z" transform="translate(-525.428 -122.368)" fill="#293241"/><path d="M706.349,204.1a6.119,6.119,0,0,0,5.37-1.243c-.051-.367-.109-.731-.171-1.095-.119-.007-.235-.018-.355-.018A6.152,6.152,0,0,0,706.349,204.1Z" transform="translate(-518.962 -122.339)" fill="#293241"/><path d="M713.669,235.555a6.2,6.2,0,0,1,1.758,2.041,6.165,6.165,0,0,0,2.857-9.844,6.129,6.129,0,0,1-2.664.775A36,36,0,0,1,713.669,235.555Z" transform="translate(-522.965 -136.553)" fill="#293241"/><path d="M702.673,224.571a6.162,6.162,0,0,0-2.427,8.27,6.148,6.148,0,0,1,5.555.944,36.014,36.014,0,0,0,1.95-7.028c-.119.007-.235.018-.356.018A6.152,6.152,0,0,1,702.673,224.571Z" transform="translate(-515.191 -134.814)" fill="#293241"/><path d="M718.409,223.882c-.084.841-.205,1.67-.346,2.492a6.129,6.129,0,0,0,2.664-.775A6.19,6.19,0,0,0,718.409,223.882Z" transform="translate(-525.411 -134.472)" fill="#293241"/><path d="M706.62,223.578a6.152,6.152,0,0,0,4.723,2.2c.12,0,.237-.011.355-.018.141-.823.262-1.652.346-2.492a6.163,6.163,0,0,0-5.424.306Z" transform="translate(-519.11 -133.869)" fill="#293241"/><path d="M706.234,250.155a36.269,36.269,0,0,1-4.19,6.812,6.149,6.149,0,0,1,1.141,2.013c.11.006.218.016.33.016a6.167,6.167,0,0,0,5.446-9.063,5.958,5.958,0,0,1-2.726.222Z" transform="translate(-516.579 -148.707)" fill="#293241"/><path d="M695.759,243.207a6.171,6.171,0,0,0-4.3,5.88c0,.079.009.155.012.233a7.466,7.466,0,0,1,1.245,1.859,6.163,6.163,0,0,1,3.441,2.047,36.276,36.276,0,0,0,4.19-6.812A6.168,6.168,0,0,1,695.759,243.207Z" transform="translate(-510.766 -145.017)" fill="#293241"/><path d="M692.2,260.141a6.981,6.981,0,0,0-.4-.64,6.063,6.063,0,0,0,.177.629C692.055,260.134,692.129,260.135,692.2,260.141Z" transform="translate(-511.046 -154)" fill="#293241"/><path d="M712.455,245.334c-.3.767-.62,1.523-.969,2.263a5.958,5.958,0,0,0,2.726-.222A6.2,6.2,0,0,0,712.455,245.334Z" transform="translate(-521.806 -146.227)" fill="#293241"/><path d="M701.151,242.845a6.168,6.168,0,0,0,4.586,3.207c.349-.74.67-1.5.969-2.263a6.147,6.147,0,0,0-5.555-.944Z" transform="translate(-516.113 -144.699)" fill="#293241"/><path d="M693.317,271.088a7.519,7.519,0,0,1-1.37,2.444,6.107,6.107,0,0,1,.107,4.187,6.151,6.151,0,0,0,5.515-8.132,6.129,6.129,0,0,1-2.312-.584C694.635,269.721,693.992,270.42,693.317,271.088Z" transform="translate(-511.066 -159.154)" fill="#293241"/><path d="M691.186,276.886a6.914,6.914,0,0,0,.519-.771c-.209.189-.426.369-.639.554C691.107,276.741,691.148,276.813,691.186,276.886Z" transform="translate(-510.639 -163.103)" fill="#293241"/><path d="M695.035,269.707c.675-.668,1.318-1.367,1.939-2.086a6.182,6.182,0,0,1-1.605-1.1A7.444,7.444,0,0,1,695.035,269.707Z" transform="translate(-512.801 -157.83)" fill="#293241"/><path d="M684.128,260.881a6.167,6.167,0,0,0-5.85,4.221c.108-.005.214-.016.323-.016a6.161,6.161,0,0,1,5.352,3.11c.213-.185.43-.364.639-.554a6.811,6.811,0,0,0,.714-5.107,6.139,6.139,0,0,1-.849-1.637C684.348,260.892,684.24,260.881,684.128,260.881Z" transform="translate(-503.564 -154.715)" fill="#293241"/><path d="M699.4,267.212a6.131,6.131,0,0,0,2.312.584,6.153,6.153,0,0,0-1.141-2.013Q700.008,266.513,699.4,267.212Z" transform="translate(-515.191 -157.434)" fill="#293241"/><path d="M692.2,260.918a6.139,6.139,0,0,0,.848,1.637,6.868,6.868,0,0,0-.626-1.626C692.352,260.923,692.277,260.922,692.2,260.918Z" transform="translate(-511.26 -154.771)" fill="#293241"/><path d="M694.29,261.17a7.486,7.486,0,0,1,.629,2.04c.018.112.023.223.035.334a6.177,6.177,0,0,0,1.605,1.1q.6-.7,1.172-1.429A6.163,6.163,0,0,0,694.29,261.17Z" transform="translate(-512.377 -154.897)" fill="#293241"/><path d="M676.233,284.962c-.057.01-.111.026-.168.035-.173.027-.346.046-.52.061q-1.455.9-3,1.664a6.187,6.187,0,0,1-.929,3.144,6.155,6.155,0,0,0,9.129-3.271c-.108.006-.214.016-.323.016A6.141,6.141,0,0,1,676.233,284.962Z" transform="translate(-499.896 -167.917)" fill="#293241"/><path d="M672.125,270.392a6.155,6.155,0,0,0-4.909,2.9,6.132,6.132,0,0,1,2.134,2.268,7.357,7.357,0,0,0,2.46.794,6.9,6.9,0,0,0,1.469-.017,6.14,6.14,0,0,1-1.154-5.941Z" transform="translate(-497.516 -159.934)" fill="#293241"/><path d="M674.925,284.561v0a7.5,7.5,0,0,1-2.006-.48,6.139,6.139,0,0,1,.352,2.153q1.542-.764,3-1.664A7.469,7.469,0,0,1,674.925,284.561Z" transform="translate(-500.668 -167.457)" fill="#293241"/><path d="M683.449,279.977a6.906,6.906,0,0,0,3.5-2.4c-.038-.074-.079-.146-.12-.217A36.424,36.424,0,0,1,683.449,279.977Z" transform="translate(-506.436 -163.775)" fill="#293241"/><path d="M686.425,279.209a7.45,7.45,0,0,1-4.406,2.553,6.141,6.141,0,0,0,4.19,1.65c.109,0,.215-.011.323-.016a6.106,6.106,0,0,0-.107-4.187Z" transform="translate(-505.639 -164.776)" fill="#293241"/><path d="M678.2,270.355c-.109,0-.215.011-.323.016a6.14,6.14,0,0,0,1.154,5.941,6.775,6.775,0,0,0,1.141-.234,36.435,36.435,0,0,0,3.38-2.613A6.161,6.161,0,0,0,678.2,270.355Z" transform="translate(-503.184 -159.914)" fill="#293241"/><path d="M663.36,291.749q-1.53.6-3.125,1.062l-.029,3.738a6.135,6.135,0,0,0,5.064-2.908A6.193,6.193,0,0,1,663.36,291.749Z" transform="translate(-493.686 -171.642)" fill="#293241"/><path d="M666.176,276.785c.059-.11.128-.215.194-.321a6.2,6.2,0,0,0-.675-.363A7.419,7.419,0,0,0,666.176,276.785Z" transform="translate(-496.737 -163.096)" fill="#293241"/><path d="M662.849,277.724a7.508,7.508,0,0,1-.793-1.153,23.254,23.254,0,0,1-1.742,2.094l-.043,5.7q1.594-.461,3.125-1.062a6.131,6.131,0,0,1-.547-5.583Z" transform="translate(-493.741 -163.307)" fill="#293241"/><path d="M664.881,275.749l0,0h0Z" transform="translate(-496.297 -162.905)" fill="#293241"/><path d="M667.312,290.18a6.2,6.2,0,0,0,1.91,1.892,6.187,6.187,0,0,0,.929-3.144Q668.764,289.614,667.312,290.18Z" transform="translate(-497.601 -170.108)" fill="#293241"/><path d="M666.972,276.919c-.066.106-.135.211-.194.321a7.361,7.361,0,0,0,2.328,1.947A6.132,6.132,0,0,0,666.972,276.919Z" transform="translate(-497.314 -163.534)" fill="#293241"/><path d="M668.574,281.347a7.492,7.492,0,0,1-3.035-2.179,6.132,6.132,0,0,0,.547,5.583q1.451-.569,2.84-1.252A6.14,6.14,0,0,0,668.574,281.347Z" transform="translate(-496.383 -164.744)" fill="#293241"/><path d="M604.962,325.635c.528.043,1.251,2.418,1.781,2.406l0,0-1.588-2.4,1.588,2.4,4.625-2.708c4.514-.6,6.114-3,8.544-7.639l7.99-15.242-1.647-.127a14.032,14.032,0,0,1-6.142-1.415l-1.855-.9.012-1.547a6.183,6.183,0,0,1-4.506-1.775,8.491,8.491,0,0,1-10.526-.324l-.788-.663c-.872-.139-1.731-.315-2.581-.514a6.18,6.18,0,0,1-4.1,4.05l.006.773-.737.428A14.035,14.035,0,0,1,588,302.324h-3.186L593.7,318.09A13.952,13.952,0,0,0,604.962,325.635Z" transform="translate(-452.044 -173.301)" fill="#845848"/><path d="M618.745,293.379c.85.2,1.709.375,2.581.514l-2.317-1.952A6.148,6.148,0,0,1,618.745,293.379Z" transform="translate(-470.993 -171.768)" fill="#845848"/><path d="M613.555,293.641a36.1,36.1,0,0,1-4.141-1.229l.04,5.279A6.18,6.18,0,0,0,613.555,293.641Z" transform="translate(-465.867 -172.002)" fill="#845848"/><path d="M613.1,285.611a23.273,23.273,0,0,1-3.77-4.035l.037,4.809a36.092,36.092,0,0,0,4.141,1.229,6.149,6.149,0,0,0,.264-1.437Z" transform="translate(-465.819 -166.06)" fill="#845848"/><path d="M651.525,294.888l-1.041.88v0c-.14.118-.287.225-.432.334a6.183,6.183,0,0,0,4.506,1.775l.028-3.738C653.583,294.431,652.563,294.684,651.525,294.888Z" transform="translate(-488.129 -172.96)" fill="#845848"/><path d="M656.475,281.291l-.029,3.845-.362.311-2.713,2.294c1.038-.2,2.058-.457,3.062-.747l.044-5.7Z" transform="translate(-489.96 -165.9)" fill="#845848"/><path d="M609.319,280.582l0,.439,0,0,0-.439Z" transform="translate(-465.849 -165.553)" fill="#472f28"/><path d="M630.312,296.8a36.525,36.525,0,0,1-5.752-.458l.788.663a8.491,8.491,0,0,0,10.526.324,6.122,6.122,0,0,1-.725-.86A36.587,36.587,0,0,1,630.312,296.8Z" transform="translate(-474.1 -174.173)" fill="#472f28"/><path d="M632.232,292.74a6.18,6.18,0,0,1-.618-1.117c-.054-.128-.1-.257-.142-.386a8.483,8.483,0,0,1-10.588-.279l-1.568-1.321c.019.2.031.4.031.606,0,.141-.011.278-.021.417l2.317,1.952a35.976,35.976,0,0,0,10.588.128Z" transform="translate(-471.214 -170.495)" fill="#472f28"/><path d="M609.324,280.587l0,.439a23.269,23.269,0,0,0,3.77,4.034l.672.566c.009-.138.021-.276.021-.417,0-.2-.011-.407-.031-.606l-2.208-1.86A23.244,23.244,0,0,1,609.324,280.587Z" transform="translate(-465.815 -165.525)" fill="#472f28"/><path d="M649.575,296.7l1.041-.88c-.725.142-1.458.258-2.2.357a6.124,6.124,0,0,0,.726.86c.146-.108.292-.215.432-.334Z" transform="translate(-487.255 -173.9)" fill="#472f28"/><path d="M652.74,285.138l.029-3.845a23.29,23.29,0,0,1-1.934,1.84l-3.755,3.174c-.12.1-.248.194-.373.288.045.129.087.258.142.386a6.188,6.188,0,0,0,.618,1.117c.74-.1,1.473-.215,2.2-.357l2.713-2.294Z" transform="translate(-486.281 -165.9)" fill="#472f28"/><path d="M598.444,205.784a12.763,12.763,0,0,1,.483,2.111,23.455,23.455,0,0,0,12.242-4.023c.064-.01.129-.014.193-.024l.263-3.712a1.572,1.572,0,0,1,3.136,0l.263,3.716c.064.01.129.013.193.024a19.5,19.5,0,0,0,9.428,4.222,15.543,15.543,0,0,0,2.76.13,12.617,12.617,0,0,1,.524-2.445,10.366,10.366,0,0,1,2.765-4.578v-6.929h0a14.952,14.952,0,0,0-14.952-14.952h-5.11a14.952,14.952,0,0,0-14.952,14.952v6.932A10.368,10.368,0,0,1,598.444,205.784Zm27.2-6.087a6.71,6.71,0,0,0-2.183-.769,1.929,1.929,0,0,1,.1.312,1.945,1.945,0,1,1-3.853.36,6.655,6.655,0,0,0-1.824,1.553c-.133-.074-.207-.121-.207-.121.029-.044.059-.088.088-.131a5.788,5.788,0,0,1,3.638-2.385l.035-.008c.135-.026.271-.044.406-.06l.043-.006a5.784,5.784,0,0,1,3.967.992S625.782,199.534,625.645,199.7Zm-10.2-1.887a.984.984,0,0,1,.071-.078l.007-.007.03-.029.043-.042.052-.047c.078-.071.19-.168.333-.283a10.136,10.136,0,0,1,1.237-.845c.267-.152.559-.31.879-.455a9.9,9.9,0,0,1,2.16-.712,9.213,9.213,0,0,1,1.2-.162l.3-.019h.3c.2,0,.4.008.6.018a9.256,9.256,0,0,1,1.144.144,9.538,9.538,0,0,1,1.035.258l.239.072.228.083c.148.057.294.1.428.162.268.118.518.217.725.329s.4.194.541.284l.46.265a.246.246,0,0,1-.222.44l-.013,0-.467-.207c-.146-.069-.333-.131-.542-.207s-.452-.15-.713-.232c-.13-.041-.271-.068-.414-.1l-.217-.053-.227-.041a8.608,8.608,0,0,0-.966-.129,8.389,8.389,0,0,0-1.035-.012c-.175.011-.35.019-.525.043l-.262.032-.261.047a8.02,8.02,0,0,0-1.015.256,8.487,8.487,0,0,0-.939.371,8.246,8.246,0,0,0-.829.444,7.57,7.57,0,0,0-.7.469,8.359,8.359,0,0,0-.94.812c-.1.1-.179.187-.227.241l-.031.036-.014.019-.018.022a.932.932,0,0,1-1.434-1.176Zm-7.172,3.343a6.658,6.658,0,0,0-1.823-1.552,1.949,1.949,0,1,1-3.757-.672,6.715,6.715,0,0,0-2.184.769c-.138-.163-.207-.265-.207-.265a5.786,5.786,0,0,1,3.967-.992l.052.007c.133.016.265.034.4.059l.056.013a5.791,5.791,0,0,1,3.619,2.381c.03.044.059.087.088.131C608.476,201.031,608.4,201.079,608.27,201.153Zm-9.57-4.407.46-.265c.145-.089.335-.172.541-.284s.456-.211.725-.329c.134-.059.281-.106.428-.162l.228-.083.239-.072a9.539,9.539,0,0,1,1.035-.258,9.256,9.256,0,0,1,1.144-.144c.2-.01.4-.023.6-.018h.3l.3.019a9.217,9.217,0,0,1,1.2.162,9.893,9.893,0,0,1,2.159.712c.32.145.612.3.879.455a10.135,10.135,0,0,1,1.236.845c.144.115.256.211.333.283l.052.047.044.042.03.029.007.007a.984.984,0,0,1,.071.078.932.932,0,0,1-1.434,1.176l-.017-.022-.016-.019-.031-.036c-.047-.054-.123-.138-.227-.241a8.322,8.322,0,0,0-.94-.812,7.349,7.349,0,0,0-.7-.469,8.3,8.3,0,0,0-.828-.444,8.486,8.486,0,0,0-.939-.371,7.914,7.914,0,0,0-1.015-.256l-.261-.047-.262-.032c-.175-.025-.35-.033-.524-.043a8.306,8.306,0,0,0-1.035.012,8.619,8.619,0,0,0-.966.129l-.226.041-.218.053c-.143.035-.284.062-.414.1-.261.082-.5.156-.713.232s-.4.138-.542.207l-.467.207-.012,0a.247.247,0,0,1-.223-.44Z" transform="translate(-458.066 -109.941)" fill="#845848"/><path d="M605.271,274.728c.026.149.052.3.066.451.149.209.295.42.45.624.079.005.159.007.237.015Q605.631,275.284,605.271,274.728Z" transform="translate(-463.625 -162.341)" fill="#845848"/><path d="M597.332,256.284a2.124,2.124,0,0,1-.49-.026,23.29,23.29,0,0,0,1.381,4.334,6.09,6.09,0,0,1,.546.462A22.4,22.4,0,0,1,597.332,256.284Z" transform="translate(-458.997 -152.198)" fill="#845848"/><path d="M668,256.282a23.363,23.363,0,0,1-3.591,8.547c.07.024.142.047.211.074a23.264,23.264,0,0,0,3.791-8.65A2.16,2.16,0,0,1,668,256.282Z" transform="translate(-496.002 -152.171)" fill="#845848"/><path d="M600.5,266.487a6.108,6.108,0,0,0-.546-.462,23.307,23.307,0,0,0,2.425,4.313c-.015-.153-.04-.3-.066-.451A22.43,22.43,0,0,1,600.5,266.487Z" transform="translate(-460.698 -157.552)" fill="#845848"/><path d="M606.672,277.166c-.078-.008-.158-.01-.237-.015.4.526.833,1.03,1.28,1.523v-.193C607.348,278.056,607,277.615,606.672,277.166Z" transform="translate(-464.259 -163.666)" fill="#845848"/><path d="M662.371,275.657l0,0c-.069-.027-.141-.049-.211-.074a23.381,23.381,0,0,1-1.793,2.317l0,.218a23.236,23.236,0,0,0,1.742-2.094l-.008-.013Z" transform="translate(-493.805 -162.798)" fill="#845848"/><path d="M660.367,280.8l0,.218,0,0,0-.218Z" transform="translate(-493.822 -165.673)" fill="#845848"/><path d="M609.318,280.15l0,0v.193l0,0Z" transform="translate(-465.848 -165.317)" fill="#845848"/><path d="M626.34,292.826a8.185,8.185,0,0,1-5.279-1.927l-1.773-1.493c0,.034.01.068.013.1l1.568,1.321a8.483,8.483,0,0,0,10.587.279c-.007-.022-.017-.044-.024-.067A8.183,8.183,0,0,1,626.34,292.826Z" transform="translate(-471.205 -170.368)" fill="#845848"/><path d="M611.877,282.687a22.372,22.372,0,0,1-2.557-2.534l0,.193a23.263,23.263,0,0,0,2.227,2.156l2.208,1.86c0-.035-.009-.068-.013-.1Z" transform="translate(-465.813 -165.293)" fill="#845848"/><path d="M650.8,282.86a23.279,23.279,0,0,0,1.934-1.84l0-.218a23.3,23.3,0,0,1-2.27,2.245l-3.623,3.059c-.063.053-.13.1-.195.15.008.022.017.044.025.067.125-.094.253-.186.373-.288Z" transform="translate(-486.251 -165.64)" fill="#845848"/><path d="M673.432,239.67a4.329,4.329,0,0,0,2.353-1.513,6.941,6.941,0,0,0-.939.083.3.3,0,0,1-.333-.237.3.3,0,0,1,.238-.351l.013,0a7.506,7.506,0,0,1,1.5-.082,11.8,11.8,0,0,0,1.7-3.408c1.154-3.614.57-7.03-1.306-7.629a2.9,2.9,0,0,0-2.721.882v7.444A23.243,23.243,0,0,1,673.432,239.67Z" transform="translate(-500.931 -135.815)" fill="#845848"/><path d="M667.691,233.206a12.6,12.6,0,0,0-.524,2.445,14.965,14.965,0,0,0,2.663-.348.277.277,0,0,1,.07,0,.333.333,0,0,1,.092,0,.25.25,0,0,1,.066.036.287.287,0,0,1,.061.043.421.421,0,0,1,.049.07.59.59,0,0,1,.041.077,1.022,1.022,0,0,1,.033.1c.009.033.017.068.024.106s.014.08.019.124.008.084.01.127.006.095.007.145,0,.094,0,.142,0,.107,0,.164-.007.088-.01.132a17.1,17.1,0,0,1-.457,2.541c-.073.608-.175,1.209-.294,1.8a2.167,2.167,0,0,0,.411-.03,23.24,23.24,0,0,0,.508-4.815v-7.444A10.366,10.366,0,0,0,667.691,233.206Z" transform="translate(-497.517 -137.019)" fill="#845848"/><path d="M589.89,227.414a2.9,2.9,0,0,0-2.723-.883c-1.875.6-2.46,4.015-1.306,7.629a11.8,11.8,0,0,0,1.7,3.407,7.5,7.5,0,0,1,1.508.082l.014,0a.3.3,0,0,1,.238.351.3.3,0,0,1-.334.237,6.95,6.95,0,0,0-.944-.083,4.316,4.316,0,0,0,2.362,1.516,23.231,23.231,0,0,1-.515-4.844Z" transform="translate(-452.63 -135.816)" fill="#845848"/><path d="M596.311,235.283a23.521,23.521,0,0,0,2.616.038,12.762,12.762,0,0,0-.483-2.111,10.368,10.368,0,0,0-2.763-4.577v7.416a23.235,23.235,0,0,0,.515,4.844,2.122,2.122,0,0,0,.49.026,22.4,22.4,0,0,1-.374-4.042S595.914,235.249,596.311,235.283Z" transform="translate(-458.35 -137.022)" fill="#845848"/><path d="M632.9,227.965c.332,0,.664.014.994.042.264.022.526.059.788.1l-.263-3.716a1.572,1.572,0,0,0-3.136,0l-.263,3.712a12.031,12.031,0,0,1,1.764-.136Z" transform="translate(-477.706 -133.936)" fill="#845848"/><path d="M632.9,227.965c.332,0,.664.014.994.042.264.022.526.059.788.1l-.263-3.716a1.572,1.572,0,0,0-3.136,0l-.263,3.712a12.031,12.031,0,0,1,1.764-.136Z" transform="translate(-477.706 -133.936)" fill="#dc9e82" opacity="0.3" style="isolation:isolate"/><path d="M654.726,222.352a4.959,4.959,0,0,1,1.35.048,1.913,1.913,0,0,1,.227.44,6.712,6.712,0,0,1,2.183.769c.138-.163.207-.265.207-.265A5.784,5.784,0,0,0,654.726,222.352Z" transform="translate(-490.694 -133.619)"/><path d="M647.318,223.223a4.942,4.942,0,0,1,1.647-.655,5.789,5.789,0,0,0-3.638,2.385c-.03.043-.059.087-.088.131,0,0,.075.047.207.121a6.654,6.654,0,0,1,1.824-1.553A1.913,1.913,0,0,1,647.318,223.223Z" transform="translate(-485.498 -133.752)"/><path d="M653.714,222.473c.135-.026.27-.046.406-.06C653.985,222.429,653.849,222.447,653.714,222.473Z" transform="translate(-490.174 -133.68)"/><path d="M641.444,218.8l.018-.022.014-.019.031-.036c.047-.054.123-.138.227-.241a8.348,8.348,0,0,1,.94-.812,7.544,7.544,0,0,1,.7-.469,8.265,8.265,0,0,1,.829-.444,8.489,8.489,0,0,1,.939-.371,8.015,8.015,0,0,1,1.015-.256l.261-.047.262-.032c.175-.025.35-.033.525-.043a8.386,8.386,0,0,1,1.035.012,8.625,8.625,0,0,1,.966.129l.227.041.217.053c.143.035.283.062.414.1.261.082.5.156.713.232s.4.138.542.207l.467.207.013,0a.246.246,0,0,0,.222-.44l-.46-.265c-.144-.089-.335-.172-.541-.284s-.456-.211-.725-.329c-.135-.059-.281-.106-.428-.162l-.228-.083-.239-.072a9.544,9.544,0,0,0-1.035-.258,9.263,9.263,0,0,0-1.144-.144c-.2-.01-.4-.023-.6-.018h-.3l-.3.019a9.214,9.214,0,0,0-1.2.162,9.9,9.9,0,0,0-2.16.712c-.32.145-.612.3-.879.455a10.132,10.132,0,0,0-1.236.845c-.144.115-.256.211-.333.283l-.052.048-.043.042-.03.029-.007.007a.972.972,0,0,0-.071.078.932.932,0,0,0,1.434,1.176Z" transform="translate(-482.467 -129.565)"/><path d="M651.539,223.343a6.66,6.66,0,0,0-1.724.707,1.949,1.949,0,1,0,3.756-.672A6.7,6.7,0,0,0,651.539,223.343Z" transform="translate(-488.004 -134.143)"/><path d="M654.63,222.406l.043-.006Z" transform="translate(-490.679 -133.673)"/><path d="M653.635,222.557l.035-.008Z" transform="translate(-490.134 -133.755)"/><path d="M651.995,222.368l-.043.006c-.136.015-.272.034-.407.06l-.035.008a4.943,4.943,0,0,0-1.647.655,1.906,1.906,0,0,0-.048.43,4.828,4.828,0,0,1,3.756-.672,1.912,1.912,0,0,0-.227-.44A4.958,4.958,0,0,0,651.995,222.368Z" transform="translate(-488.006 -133.636)"/><path d="M610.053,222.352a5.786,5.786,0,0,0-3.967.992s.069.1.207.265a6.717,6.717,0,0,1,2.184-.769,1.932,1.932,0,0,1,.227-.44A4.949,4.949,0,0,1,610.053,222.352Z" transform="translate(-464.045 -133.62)"/><path d="M615.141,222.415c.133.015.265.034.4.059C615.406,222.449,615.274,222.431,615.141,222.415Z" transform="translate(-469.036 -133.681)"/><path d="M616.16,222.577a4.97,4.97,0,0,1,1.629.651,1.974,1.974,0,0,1,.048.431,6.656,6.656,0,0,1,1.823,1.552c.131-.074.207-.121.207-.121-.029-.044-.058-.088-.088-.131A5.791,5.791,0,0,0,616.16,222.577Z" transform="translate(-469.567 -133.757)"/><path d="M602.56,217l.012,0,.467-.207c.146-.069.333-.131.542-.207s.452-.15.713-.232c.13-.041.271-.068.414-.1l.218-.053.226-.041a8.641,8.641,0,0,1,.966-.129,8.3,8.3,0,0,1,1.035-.012c.175.011.35.019.525.043l.262.032.261.047a7.918,7.918,0,0,1,1.015.256,8.491,8.491,0,0,1,.939.371,8.292,8.292,0,0,1,.828.444,7.359,7.359,0,0,1,.7.469,8.328,8.328,0,0,1,.94.812c.1.1.179.187.227.241l.031.036.015.019.017.022a.932.932,0,0,0,1.434-1.176.984.984,0,0,0-.071-.078l-.007-.007-.03-.029-.044-.042-.052-.048c-.078-.071-.19-.168-.333-.283a10.136,10.136,0,0,0-1.236-.845c-.267-.152-.559-.31-.879-.455a9.889,9.889,0,0,0-2.159-.712,9.215,9.215,0,0,0-1.2-.162l-.3-.019h-.3c-.2,0-.4.008-.6.018a9.259,9.259,0,0,0-1.144.144,9.549,9.549,0,0,0-1.035.258l-.239.072-.228.083c-.148.057-.294.1-.428.162-.269.118-.518.217-.725.329s-.4.194-.541.284l-.46.265a.247.247,0,0,0,.223.44Z" transform="translate(-461.856 -129.565)"/><path d="M611.308,223.379a1.942,1.942,0,1,0,3.757.672,4.828,4.828,0,0,0-3.757-.672Z" transform="translate(-466.834 -134.143)"/><path d="M616.033,222.548l.056.013Z" transform="translate(-469.528 -133.754)"/><path d="M615.024,222.4l.052.007Z" transform="translate(-468.975 -133.673)"/><path d="M615.182,223.1a4.971,4.971,0,0,0-1.629-.651l-.056-.013c-.131-.025-.263-.044-.4-.059l-.052-.007a4.946,4.946,0,0,0-1.348.048,1.93,1.93,0,0,0-.227.44,4.828,4.828,0,0,1,3.757.672A1.967,1.967,0,0,0,615.182,223.1Z" transform="translate(-466.999 -133.636)"/><path d="M663.707,244.292h0a15.543,15.543,0,0,1-2.76-.13A15.536,15.536,0,0,0,663.707,244.292Z" transform="translate(-494.114 -145.597)" fill="#fefefe"/><path d="M615.431,234.586v0c-.064.009-.129.013-.193.024A23.455,23.455,0,0,1,603,238.631h0a23.455,23.455,0,0,0,12.25-4.023C615.307,234.6,615.369,234.6,615.431,234.586Z" transform="translate(-462.28 -140.328)" fill="#fefefe"/><path d="M602.978,254.385l-.5-.213.053-.154.446.129-.032-4.3c-.282-.03-.51-.061-.669-.079l-.274-.036-.007-.153.274-.036c.16-.018.389-.05.673-.079l-.01-1.327h0v0h22.78l-.009,1.205c.192.021.352.041.473.055l.276.035v.154l-.274.043c-.121.016-.283.041-.477.067l-.03,4.007a6.158,6.158,0,0,1,1.773.343,23.362,23.362,0,0,0,3.591-8.547,1.923,1.923,0,0,1-.539-.081c-1.25-.4-1.923-2.052-1.893-4.178a18.9,18.9,0,0,1-12.125-4.357c-.04-.007-.081-.008-.122-.015l.34,4.815,12.167,5.012-.052.146-12-3.578.041.582a2,2,0,0,1-1.85,2.133q-.07.005-.14.005h-.81a2,2,0,0,1-2-2q0-.071.005-.142l.041-.579L600.15,246.84l-.051-.146,12.109-5.007.341-4.821c-.037.006-.075.008-.113.014a23.454,23.454,0,0,1-12.155,4.02c.11,2.29-.567,4.1-1.883,4.519a1.891,1.891,0,0,1-.453.079,22.4,22.4,0,0,0,1.438,4.77,6.145,6.145,0,0,1,1.813,3.4q.361.555.754,1.09a6.1,6.1,0,0,1,1.032.2Z" transform="translate(-459.324 -141.496)" fill="#fefefe"/><path d="M601.185,267.065a22.429,22.429,0,0,0,1.813,3.4A6.147,6.147,0,0,0,601.185,267.065Z" transform="translate(-461.377 -158.128)" fill="#fefefe"/><path d="M606.97,277.185c.331.449.675.89,1.041,1.315L608,277.389A6.1,6.1,0,0,0,606.97,277.185Z" transform="translate(-464.554 -163.686)" fill="#fefefe"/><path d="M660.388,275.47l.711-.2.05.146-.762.315-.013,1.731a23.387,23.387,0,0,0,1.794-2.317,6.156,6.156,0,0,0-1.773-.343Z" transform="translate(-493.809 -162.374)" fill="#fefefe"/><path d="M631.953,263.471h0l.009-1.205h-22.78v0h22.778Z" transform="translate(-465.574 -155.512)" fill="#fefefe"/><path d="M660.415,269.784h0l.03-4.007h0Z" transform="translate(-493.849 -157.418)" fill="#fefefe"/><path d="M660.4,275.47h0l.005-.664h0Z" transform="translate(-493.843 -162.387)" fill="#fefefe"/><path d="M660.384,276.9h0l-.013,1.732,0,0Z" transform="translate(-493.824 -163.526)" fill="#fefefe"/><path d="M609.211,266.125h0l.033,4.3h0Z" transform="translate(-465.789 -157.607)" fill="#fefefe"/><path d="M609.181,262.271h0l.01,1.328h0Z" transform="translate(-465.773 -155.514)" fill="#fefefe"/><path d="M609.291,276.921h0l0-.578h0Z" transform="translate(-465.832 -163.229)" fill="#fefefe"/><path d="M609.3,277.645l.008,1.111,0,0-.009-1.112Z" transform="translate(-465.837 -163.94)" fill="#fefefe"/><path d="M629.262,270.263a6.13,6.13,0,0,1,2.674-.479l.03-4.007c-.092.012-.189.025-.3.037-.333.037-.739.093-1.2.138l-.741.078-.821.075c-.572.047-1.192.094-1.849.138s-1.346.08-2.064.113-1.455.06-2.207.079c-.376.012-.754.019-1.139.025l-.571.01h-.582l-1.144-.006-1.139-.016c-.751-.016-1.492-.032-2.208-.058s-1.408-.055-2.065-.089-1.277-.072-1.85-.113-1.1-.087-1.563-.126-.872-.084-1.206-.117l-.1-.011.033,4.3,11.485,3.311,6.4-1.766A6.138,6.138,0,0,1,629.262,270.263Z" transform="translate(-465.59 -157.395)" fill="#fefefe"/><path d="M609.294,263.588c.333-.032.74-.081,1.206-.117s.99-.088,1.563-.126,1.193-.079,1.85-.113,1.346-.067,2.065-.089,1.457-.044,2.208-.059l1.139-.016,1.144-.006,1.139-.008c.38,0,.759-.006,1.139,0,.753,0,1.492.011,2.209.023s1.409.036,2.07.061,1.277.058,1.852.091l.823.054.742.058c.465.033.872.075,1.207.1.11.009.209.02.3.03l.009-1.2H609.184l.01,1.327Z" transform="translate(-465.574 -155.514)" fill="#fefefe"/><path d="M626.256,278.949l-5.217,2.153-.281.116-.28-.119-11.188-4.755,0,.578a6.169,6.169,0,0,1,4.432,5.219l1.773,1.493a8.177,8.177,0,0,0,10.371.142A6.153,6.153,0,0,1,626.256,278.949Z" transform="translate(-465.687 -163.172)" fill="#fefefe"/><path d="M609.3,277.646l.008,1.113a22.388,22.388,0,0,0,2.557,2.534l1.867,1.573A6.169,6.169,0,0,0,609.3,277.646Z" transform="translate(-465.803 -163.913)" fill="#fefefe"/><path d="M651.717,275.277a6.136,6.136,0,0,0-2.132,1.511l4.8-1.325.005-.665A6.129,6.129,0,0,0,651.717,275.277Z" transform="translate(-487.87 -162.371)" fill="#fefefe"/><path d="M646.633,279.259a6.152,6.152,0,0,0-.384,4.827c.064-.051.132-.1.195-.15l3.623-3.059a23.321,23.321,0,0,0,2.27-2.245l.013-1.732Z" transform="translate(-485.85 -163.491)" fill="#fefefe"/><path d="M674.151,244.646c.008.039.014.08.019.124C674.165,244.726,674.159,244.685,674.151,244.646Z" transform="translate(-501.377 -145.863)" fill="#fefefe"/><path d="M674.223,245.858c0,.055,0,.107,0,.164C674.222,245.965,674.222,245.913,674.223,245.858Z" transform="translate(-501.414 -146.527)" fill="#fefefe"/><path d="M669.83,243.668a.3.3,0,0,1,.069,0,.28.28,0,0,0-.07,0,14.966,14.966,0,0,1-2.663.348h0A14.973,14.973,0,0,0,669.83,243.668Z" transform="translate(-497.522 -145.323)" fill="#fefefe"/><path d="M670.206,246.182c0,.061-.008.121-.014.183-.055-.318-.187-.5-.442-.447a14.925,14.925,0,0,1-2.727.351c-.029,2.126.644,3.778,1.893,4.178a1.926,1.926,0,0,0,.539.081c.119-.6.221-1.2.294-1.8A17.123,17.123,0,0,0,670.206,246.182Z" transform="translate(-497.439 -146.529)" fill="#fefefe"/><path d="M674.217,245.212c0,.048.006.095.007.145C674.223,245.307,674.22,245.26,674.217,245.212Z" transform="translate(-501.413 -146.173)" fill="#fefefe"/><path d="M673.817,243.853a.42.42,0,0,1,.049.07A.42.42,0,0,0,673.817,243.853Z" transform="translate(-501.193 -145.429)" fill="#fefefe"/><path d="M674.021,244.184a.984.984,0,0,1,.033.1A1.026,1.026,0,0,0,674.021,244.184Z" transform="translate(-501.305 -145.61)" fill="#fefefe"/><path d="M673.532,243.675a.251.251,0,0,1,.066.036A.251.251,0,0,0,673.532,243.675Z" transform="translate(-501.037 -145.331)" fill="#fefefe"/><path d="M599.59,244.655a23.482,23.482,0,0,1-2.7-.035.116.116,0,0,0-.109.054c-.08-.471-.135-1.077.109-1.056a23.472,23.472,0,0,0,2.608.038h0a23.51,23.51,0,0,1-2.616-.038c-.4-.034,0,1.594,0,1.594a22.4,22.4,0,0,0,.374,4.042,1.889,1.889,0,0,0,.453-.079C599.023,248.753,599.7,246.944,599.59,244.655Z" transform="translate(-458.913 -145.267)" fill="#fefefe"/><path d="M632.269,236.538a12.1,12.1,0,0,0-1.844.146l-.341,4.821,1.961-.811.284-.117.284.117,1.958.807-.34-4.815a12.062,12.062,0,0,0-1.845-.147Z" transform="translate(-477.189 -141.393)" fill="#fefefe"/><path d="M632.787,234.279h.117c.329,0,.658.014.986.041-.33-.028-.662-.041-.994-.042h-.117a12.031,12.031,0,0,0-1.764.136v0A12.085,12.085,0,0,1,632.787,234.279Z" transform="translate(-477.713 -140.181)" fill="#fefefe"/><path d="M629.775,250.4l-.041.579q-.005.071-.005.142a2,2,0,0,0,2,2h.81q.07,0,.14-.005a2,2,0,0,0,1.85-2.133l-.041-.582-2.353-.7Z" transform="translate(-476.991 -148.612)" fill="#fefefe"/><path d="M639.452,234.615a19.512,19.512,0,0,0,9.436,4.223,19.5,19.5,0,0,1-9.428-4.222c-.064-.011-.129-.014-.193-.024h0C639.328,234.6,639.391,234.6,639.452,234.615Z" transform="translate(-482.171 -140.331)" fill="#e5eaeb"/><path d="M674.194,244.925c0,.04.008.084.01.127C674.2,245.009,674.2,244.965,674.194,244.925Z" transform="translate(-501.4 -146.016)" fill="#e5eaeb"/><path d="M673.68,243.757a.287.287,0,0,1,.061.043A.287.287,0,0,0,673.68,243.757Z" transform="translate(-501.118 -145.376)" fill="#e5eaeb"/><path d="M674.207,246.228c0,.043-.007.088-.01.132C674.2,246.316,674.2,246.271,674.207,246.228Z" transform="translate(-501.402 -146.73)" fill="#e5eaeb"/><path d="M673.325,243.669a.335.335,0,0,1,.092,0A.335.335,0,0,0,673.325,243.669Z" transform="translate(-500.923 -145.327)" fill="#e5eaeb"/><path d="M674.23,245.539c0,.046,0,.094,0,.142C674.23,245.633,674.231,245.585,674.23,245.539Z" transform="translate(-501.419 -146.352)" fill="#e5eaeb"/><path d="M673.928,244.011a.542.542,0,0,1,.041.077A.6.6,0,0,0,673.928,244.011Z" transform="translate(-501.254 -145.515)" fill="#e5eaeb"/><path d="M674.1,244.407c.009.033.017.068.024.106C674.113,244.475,674.105,244.44,674.1,244.407Z" transform="translate(-501.346 -145.732)" fill="#e5eaeb"/><path d="M638.28,234.47h0c-.262-.039-.524-.075-.788-.1C637.756,234.394,638.018,234.431,638.28,234.47Z" transform="translate(-481.281 -140.233)" fill="#e5eaeb"/><path d="M615.246,234.611A23.455,23.455,0,0,1,603,238.634q.072.512.095,1a23.454,23.454,0,0,0,12.155-4.02c.037-.006.075-.008.113-.014l.072-1.011C615.369,234.6,615.307,234.6,615.246,234.611Z" transform="translate(-462.28 -140.324)" fill="#e5eaeb"/><path d="M648.888,238.839a19.511,19.511,0,0,1-9.436-4.223c-.061-.01-.124-.014-.185-.023l.071,1.011c.04.007.081.008.122.015a18.9,18.9,0,0,0,12.125,4.357q.007-.488.063-1.005A15.534,15.534,0,0,1,648.888,238.839Z" transform="translate(-482.145 -140.325)" fill="#e5eaeb"/><path d="M670.193,245.119c.006-.063.01-.122.014-.183,0-.044.008-.089.01-.132s0-.11,0-.164,0-.1,0-.142,0-.1-.007-.145-.005-.087-.01-.127-.012-.084-.019-.124-.016-.073-.024-.106a1,1,0,0,0-.033-.1.547.547,0,0,0-.041-.077.418.418,0,0,0-.049-.07.284.284,0,0,0-.061-.043.25.25,0,0,0-.066-.036.334.334,0,0,0-.092,0,.3.3,0,0,0-.069,0,14.971,14.971,0,0,1-2.664.348q-.057.517-.063,1.005a14.932,14.932,0,0,0,2.727-.351C670.006,244.614,670.139,244.8,670.193,245.119Z" transform="translate(-497.44 -145.319)" fill="#e5eaeb"/><path d="M596.9,243.619c-.244-.021-.189.585-.109,1.056a.116.116,0,0,1,.109-.054,23.475,23.475,0,0,0,2.7.035q-.023-.487-.095-1A23.473,23.473,0,0,1,596.9,243.619Z" transform="translate(-458.924 -145.295)" fill="#e5eaeb"/><path d="M633.8,234.321c-.327-.027-.657-.04-.986-.041H632.7a12.077,12.077,0,0,0-1.772.137l-.072,1.011a12.1,12.1,0,0,1,1.844-.146h.117a12.062,12.062,0,0,1,1.845.147l-.071-1.01C634.325,234.379,634.063,234.343,633.8,234.321Z" transform="translate(-477.616 -140.177)" fill="#e5eaeb"/><path d="M652.311,252.877l.052-.146L640.2,247.719l.112,1.58Z" transform="translate(-482.655 -147.518)" fill="#eff2f3"/><path d="M602.8,252.736l.051.146,11.947-3.574.112-1.579Z" transform="translate(-462.176 -147.523)" fill="#eff2f3"/><path d="M634.5,249.507l.284.085.283-.085Z" transform="translate(-479.645 -148.527)" fill="#eff2f3"/><path d="M632.189,245.638l-.284.117-1.961.811-.112,1.579,2.357-.705-.284-.085h.567l-.283.085,2.354.7-.112-1.58-1.959-.807Z" transform="translate(-477.049 -146.393)" fill="#eff2f3"/><path d="M608.21,275.517l-.053.153.5.213,0-.237Z" transform="translate(-465.209 -162.779)" fill="#eff2f3"/><path d="M661.115,275.86l-.711.2,0,.264.763-.315Z" transform="translate(-493.836 -162.966)" fill="#eff2f3"/><path d="M660.4,276.3l0,.265h0l0-.264Z" transform="translate(-493.841 -163.209)" fill="#eff2f3"/><path d="M609.283,275.807l0,.237h0l0-.238Z" transform="translate(-465.829 -162.938)" fill="#eff2f3"/><path d="M635.082,283.349l-.274-.079-.286.079Z" transform="translate(-479.656 -167.029)" fill="#eff2f3"/><path d="M620.772,279.12l.274.079h-.56l.286-.079-11.485-3.311,0,.237,11.188,4.755.279.119.281-.116,5.217-2.153a6.153,6.153,0,0,1,.917-1.3Z" transform="translate(-465.676 -162.907)" fill="#eff2f3"/><path d="M648.435,277.629a6.15,6.15,0,0,0-.917,1.3l5.716-2.359,0-.264Z" transform="translate(-486.729 -163.195)" fill="#eff2f3"/><path d="M607.342,265.341l-.274.036.007.153.274.036c.159.017.387.049.669.079l0-.383C607.731,265.292,607.5,265.324,607.342,265.341Z" transform="translate(-464.608 -157.159)" fill="#eff2f3"/><path d="M660.964,265.269l.274-.043v-.154l-.276-.035c-.12-.013-.281-.034-.473-.055l0,.353C660.68,265.31,660.842,265.285,660.964,265.269Z" transform="translate(-493.882 -157.005)" fill="#eff2f3"/><path d="M660.483,265.335h0l0-.353h0Z" transform="translate(-493.887 -157.005)" fill="#eff2f3"/><path d="M609.2,265.262h0l0,.383h0Z" transform="translate(-465.785 -157.159)" fill="#eff2f3"/><path d="M610.52,265.087c.465.039.991.086,1.563.126s1.193.079,1.85.113,1.349.063,2.065.089,1.456.043,2.208.058l1.139.016,1.144.006h.582l.571-.01c.384-.005.763-.012,1.139-.025.752-.019,1.489-.046,2.207-.079s1.408-.069,2.064-.113,1.276-.09,1.849-.138l.821-.075.741-.078c.465-.044.871-.1,1.2-.138.107-.012.2-.024.3-.037l0-.354c-.094-.01-.193-.02-.3-.03-.334-.029-.741-.071-1.207-.1l-.743-.058-.823-.054c-.575-.033-1.191-.067-1.852-.091s-1.353-.048-2.07-.061-1.457-.023-2.209-.023c-.38-.006-.759,0-1.139,0l-1.139.008-1.144.006-1.139.016q-1.128.023-2.208.059c-.719.023-1.409.055-2.065.089s-1.277.075-1.85.113-1.1.09-1.563.126-.873.085-1.206.117l-.1.011,0,.383.1.011C609.648,265,610.055,265.047,610.52,265.087Z" transform="translate(-465.586 -156.476)" fill="#eff2f3"/><path d="M679.215,251.512q-.234.316-.481.591a6.855,6.855,0,0,1,5.8,2.955,6.138,6.138,0,0,1-.142-1.118A7.491,7.491,0,0,0,679.215,251.512Z" transform="translate(-503.829 -149.605)" fill="#f0a202"/><path d="M664.889,275.5c.122.048.24.1.358.158-.071-.116-.141-.234-.207-.355Z" transform="translate(-496.298 -162.66)" fill="#f0a202"/><path d="M692.025,258.74a6.212,6.212,0,0,1,.7.1,7.462,7.462,0,0,0-1.245-1.859,6.149,6.149,0,0,0,.141,1.118A6.942,6.942,0,0,1,692.025,258.74Z" transform="translate(-510.862 -152.613)" fill="#f0a202"/><path d="M691.336,275.545a6.114,6.114,0,0,1,.271.6,7.52,7.52,0,0,0,1.37-2.443c-.367.364-.74.722-1.123,1.07A6.917,6.917,0,0,1,691.336,275.545Z" transform="translate(-510.777 -161.771)" fill="#f0a202"/><path d="M693.961,265.456a6.2,6.2,0,0,1-.742-.849,6.811,6.811,0,0,1-.714,5.107c.382-.348.755-.707,1.123-1.07A7.442,7.442,0,0,0,693.961,265.456Z" transform="translate(-511.419 -156.77)" fill="#f0a202"/><path d="M693.33,262.569a6.192,6.192,0,0,0,.742.849c-.012-.111-.017-.222-.035-.334a7.493,7.493,0,0,0-.629-2.04,6.235,6.235,0,0,0-.7-.1A6.865,6.865,0,0,1,693.33,262.569Z" transform="translate(-511.53 -154.779)" fill="#f0a202"/><path d="M680.94,284.5c-.157.1-.312.2-.471.3.173-.015.347-.034.52-.061.057-.009.111-.025.168-.035C681.084,284.636,681.01,284.569,680.94,284.5Z" transform="translate(-504.832 -167.7)" fill="#f0a202"/><path d="M675.953,282.807a6.906,6.906,0,0,1-1.469.017,7.36,7.36,0,0,1-2.46-.794c.094.174.183.354.262.541.052.121.091.245.135.367a7.5,7.5,0,0,0,2.006.48v0a7.47,7.47,0,0,0,1.344,0c.159-.1.314-.2.471-.3C676.142,283.023,676.047,282.916,675.953,282.807Z" transform="translate(-500.169 -166.34)" fill="#f0a202"/><path d="M682.382,280.249c-.28.19-.566.37-.852.553.07.072.144.138.217.206a7.45,7.45,0,0,0,4.406-2.553,6.124,6.124,0,0,0-.271-.6A6.906,6.906,0,0,1,682.382,280.249Z" transform="translate(-505.373 -164.04)" fill="#f0a202"/><path d="M681.167,283.8c.285-.183.572-.363.852-.553a6.782,6.782,0,0,1-1.141.234C680.971,283.6,681.067,283.7,681.167,283.8Z" transform="translate(-505.052 -167.016)" fill="#f0a202"/><path d="M664.916,275.9c-.118-.055-.236-.11-.358-.158l0,0c-.086.121-.172.243-.261.362a7.519,7.519,0,0,0,.793,1.153,6.1,6.1,0,0,1,.31-.677A7.4,7.4,0,0,1,664.916,275.9Z" transform="translate(-495.964 -162.895)" fill="#f0a202"/><path d="M666.39,277.643a6.134,6.134,0,0,0-.31.677,7.492,7.492,0,0,0,3.035,2.179c-.043-.123-.083-.246-.134-.367-.079-.187-.168-.367-.262-.541A7.36,7.36,0,0,1,666.39,277.643Z" transform="translate(-496.924 -163.927)" fill="#f0a202"/><path d="M664.276,276.1l.008.013c.089-.119.174-.241.26-.362Z" transform="translate(-495.963 -162.909)" fill="#f0a202"/><path d="M676.1,251.587a.3.3,0,0,0-.238.352.3.3,0,0,0,.333.237,6.944,6.944,0,0,1,.939-.083q.246-.275.481-.591a7.5,7.5,0,0,0-1.5.082Z" transform="translate(-502.293 -149.613)" fill="#f0a202"/><path d="M577.179,277.075c-.135,0-.271-.007-.407-.015a7.593,7.593,0,0,0,.439.646,6.221,6.221,0,0,1-.031-.625Z" transform="translate(-448.011 -163.622)" fill="#f0a202"/><path d="M605.423,275.807c.018.189.029.381.029.576.024,0,.047,0,.071,0,.051-.084.1-.167.151-.253Z" transform="translate(-463.712 -162.936)" fill="#f0a202"/><path d="M588.587,252.1q-.246-.275-.481-.591a7.4,7.4,0,0,0-1.859.334,6.147,6.147,0,0,1,.529.466,6.426,6.426,0,0,1,1.81-.21Z" transform="translate(-453.188 -149.622)" fill="#f0a202"/><path d="M582.544,280.612a7.479,7.479,0,0,0,1.863.056v0l.03,0c.056-.119.11-.24.173-.355-.12-.077-.242-.152-.36-.231a6.887,6.887,0,0,1-6.267-3q-.145.007-.292.007v.005a6.2,6.2,0,0,0,.031.625A7.46,7.46,0,0,0,582.544,280.612Z" transform="translate(-448.465 -163.613)" fill="#f0a202"/><path d="M604.353,275.3a7.291,7.291,0,0,1-.543.849,6.237,6.237,0,0,1,.744-.049h0c0-.194-.012-.386-.029-.576Z" transform="translate(-462.824 -162.656)" fill="#f0a202"/><path d="M592.572,283.724c-.034,0-.067,0-.1,0,.119.079.24.154.36.231.058-.107.125-.208.189-.311Q592.8,283.692,592.572,283.724Z" transform="translate(-456.612 -167.234)" fill="#f0a202"/><path d="M605.481,277.1c0,.045-.006.088-.007.133.027-.043.052-.087.078-.13-.024,0-.047,0-.071,0Z" transform="translate(-463.742 -163.65)" fill="#f0a202"/><path d="M592.893,284.7c.2-.02.4-.05.593-.085-.142-.088-.281-.179-.421-.27C593,284.464,592.949,284.585,592.893,284.7Z" transform="translate(-456.843 -167.618)" fill="#f0a202"/><path d="M598.693,277.237c0-.044.007-.088.007-.133h0a6.244,6.244,0,0,0-.744.049,7.365,7.365,0,0,1-4.483,2.855c-.064.1-.131.2-.189.311.14.091.279.182.421.27A7.49,7.49,0,0,0,598.693,277.237Z" transform="translate(-457.018 -163.627)" fill="#f0a202"/><path d="M575.836,271.778c0-.151.012-.3.023-.448a6.859,6.859,0,0,1-.885-2.763c-.011-.116-.01-.229-.016-.344-.2-.228-.4-.453-.591-.686a7.451,7.451,0,0,0,1.062,4.226C575.565,271.772,575.7,271.778,575.836,271.778Z" transform="translate(-446.68 -158.381)" fill="#f0a202"/><path d="M580.175,252.731a6.159,6.159,0,0,0-.529-.466,7.468,7.468,0,0,0-5.267,6.778c.192.233.393.458.591.686A6.881,6.881,0,0,1,580.175,252.731Z" transform="translate(-446.659 -149.994)" fill="#f0a202"/><path d="M577.69,276.532q.147,0,.292-.007c-.1-.142-.184-.292-.27-.441C577.7,276.233,577.691,276.381,577.69,276.532Z" transform="translate(-448.515 -163.089)" fill="#f0a202"/><path d="M591.861,252.175a.3.3,0,0,0,.334-.237.3.3,0,0,0-.238-.351l-.014,0a7.494,7.494,0,0,0-1.508-.082q.234.316.481.591A6.96,6.96,0,0,1,591.861,252.175Z" transform="translate(-455.488 -149.612)" fill="#f0a202"/><path d="M699.337,453.457l0,0,.4.019Z" transform="translate(-515.173 -260.29)" fill="#f0a202"/><path d="M744.7,424.312h0l.091-.015Z" transform="translate(-540.034 -244.312)" fill="#f0a202"/><path d="M610.67,460.86a14.957,14.957,0,0,1-1.762,6.064A13.4,13.4,0,0,0,610.67,460.86Z" transform="translate(-465.61 -264.278)" fill="#f0a202"/><path d="M568.515,402.145l21.918-7.226-34.946-10.265a13.38,13.38,0,0,0,.859-1.3l-3.51-.792-10.869-7.305h-7.826l-2.085.449,2.08-.446h7.827l10.869,7.305,2.013.454-2.013-.454-10.869-7.305h-7.827l-2.08.446-2.508.54a4.005,4.005,0,0,1-3.83-1.248l-.621-.7,7.914-2.435.622-.094-.627.093-7.572,2.33,7.572-2.33.627-.093,6.531-.983V370.4l-7.764-1.863-6.347,1.869a3.919,3.919,0,0,1-4.1-1.228l-.6-.707,9.828-3.566h7.674l-4.2-2.522-6.088,1.043L526.6,364.5a3.822,3.822,0,0,1-4.161-.332l-1.079-.828,5.159-2.828,7.056-2.345h0l-7.059,2.347-4.762,2.611,4.762-2.611,7.059-2.347h.005l5.784,1.782-2.588-4.088-3.919-2.582a3.632,3.632,0,0,1-1.034-5.03c.027-.041.055-.081.083-.121l.067-.093,8.2,5.479,6.24,10,11.06,8.71c-.087-.252-.179-.5-.281-.752.1.249.194.5.281.752l.009.007a11.214,11.214,0,0,1,.7,4.951,13.393,13.393,0,0,1-1.762,6.063c-.019.036-.036.072-.055.109l-.01,0a13.38,13.38,0,0,1-.859,1.3l34.946,10.265.139-.046-.139.046h0l.139-.046a2.424,2.424,0,0,0,.2.145l2.562.753a13.05,13.05,0,0,0,3.435.527l8.613.162h0s11.608,1.362,19.707-.536a9.627,9.627,0,0,0,7.35-8.305l1.62-14.363a30.734,30.734,0,0,0-1.629-13.871l-10.81-29.968a25.241,25.241,0,0,0-19.427-16.3l-13.313-2.31-.067.128,1.444.111c8.57,1.489,14.856,5.546,17.691,14.118,2.7,8.16-15.654,12.506-35.614,13.091l.26,23.009-.26-23.009q-2.087.061-4.192.068l-.459.622.252,22.322-.252-22.322-.153.207-.6-.828c-21.632-.1-43.1-4.552-40.137-13.3,2.881-8.5,9.6-13.157,18.443-14.216h.491l-.212-.377L534.039,313.1a25.241,25.241,0,0,0-19.513,24.582v26.346a30.724,30.724,0,0,0,3.191,13.635l11.477,23.177a5.072,5.072,0,0,0,3.461,2.711c1.99.434,6.353-1.813,5.264.521l28.228-1.475A9.288,9.288,0,0,0,568.515,402.145Zm1.538-63.768a.769.769,0,1,1-.769.77A.769.769,0,0,1,570.053,338.376Zm0,6.68a.769.769,0,1,1-.769.769A.769.769,0,0,1,570.053,345.056Zm0,6.68a.769.769,0,1,1-.769.769A.769.769,0,0,1,570.053,351.736ZM596.542,373.9l0,0h-.008l6.169-7.481,1.391-4.729,1.412-1.889H605.5l10.6-14.017a1.83,1.83,0,0,1,2.92,2.208l-9.989,13.891.225.264,5.021-5.967.769-.291,12.085-3.34a3.661,3.661,0,0,1-2.578,4.489l-7.966,2.154-4.451,6.344.227.267,4.307-4.83h0l.09-.014,1.254-.2,8.551-1.291,2.028-.309-2.028.309,2.423-.366a3.662,3.662,0,0,1-3.146,4.113l-6.977.932-3.541,5.153.268.311.063-.055,4.78-4.157h0l.116-.08,6.235-1.337.038-.009-.038.009.32-.069.079.37a2.822,2.822,0,0,1-2.167,3.35l-2.925.626-4.141,4.141-2.178,2.407,2.267.107-2.267-.107-.094.1-18.744-.988-.4-.019h0l-35.48-1.666Z" transform="translate(-412.795 -180.932)" fill="#f0a202"/><path d="M625.771,513.21h0l-13.384-7.727a3.208,3.208,0,0,0-2.923-.147L588.905,514.6a9.26,9.26,0,0,1-2.369.45l-28.237,1.08h-2.174l2.174-6.145,28.237-1.5a9.287,9.287,0,0,0,2.369-.45l21.918-7.226h0l-21.918,7.226a9.29,9.29,0,0,1-2.369.45l-28.229,1.475-.008.02c-5.606,11.8-7.115,37.828-7.115,37.828l.013.013c.047-.113.089-.228.137-.341,2.487-5.924,4.918-11.709,4.976-11.8l36.731,3.646,37.5,3.721.491,4.324C631.227,544.44,632.072,527.209,625.771,513.21Z" transform="translate(-433.274 -285.563)" fill="#f0a202"/><path d="M747.19,434.3h0l-4.78,4.157,4.78-4.156Z" transform="translate(-538.725 -249.748)" fill="#f0a202"/><path d="M700.937,502.479l-8.613-.162a13.056,13.056,0,0,1-3.435-.527l-2.562-.753C689.237,503.032,700.87,502.482,700.937,502.479Z" transform="translate(-507.893 -286.345)" fill="#f0a202"/><path d="M556.326,579.388c-.058.092-2.489,5.876-4.976,11.8-.048.113-.09.228-.137.341,13.456,14.737,65.094,13.463,79.8-.013,0,0,.013-.153.032-.438l-.491-4.324Z" transform="translate(-433.291 -328.949)" fill="#f0a202"/><path d="M638.857,334.44l-4.625,2.708v0l.027,2.419.459-.622q2.1-.006,4.192-.068l-.05-4.439.05,4.439c19.96-.585,38.313-4.931,35.614-13.091-2.835-8.572-9.121-12.629-17.691-14.118l-1.444-.111L647.4,326.8C644.97,331.436,643.371,333.84,638.857,334.44Z" transform="translate(-479.089 -182.304)" fill="#f0a202"/><path d="M541.808,325.491c-2.965,8.746,18.5,13.2,40.137,13.3l.6.829.153-.207-.028-2.419v0l0,0c-.53.012-1.252-2.362-1.78-2.406a13.952,13.952,0,0,1-11.263-7.545l-8.883-15.766h-.491C551.41,312.335,544.689,316.993,541.808,325.491Z" transform="translate(-428.397 -182.147)" fill="#f0a202"/><path d="M566.733,424.328a13.376,13.376,0,0,0-.707-4.95l-11.068-8.716-6.24-10-7.856-5.251,7.856,5.251,6.24,10,11.068,8.716,0-.008-11.06-8.71-6.24-10-8.2-5.479-.068.093c-.028.04-.056.08-.083.121a3.631,3.631,0,0,0,1.035,5.03L545.331,403l2.588,4.088-5.784-1.782h0l5.782,1.782-5.782-1.782-7.056,2.345-5.159,2.828,1.079.828a3.823,3.823,0,0,0,4.161.332l1.978-1.077,6.088-1.043,4.2,2.522h-7.674l-9.828,3.566.6.707a3.919,3.919,0,0,0,4.1,1.228l6.347-1.869,7.764,1.863v.391l-6.531.983,7.026-1.038-7.026,1.038-.622.094-7.914,2.435.621.7a4.005,4.005,0,0,0,3.83,1.247l2.508-.54-1.295.278,1.295-.278,2.085-.449h7.826l10.869,7.305,3.51.792c.021-.036.044-.071.065-.106A14.956,14.956,0,0,0,566.733,424.328ZM539.74,412.051l-9.431,3.423,9.431-3.423h0Z" transform="translate(-422.08 -227.975)" fill="#845848"/><path d="M611.284,449.7l0,0a13.376,13.376,0,0,1,.707,4.95,11.212,11.212,0,0,0-.7-4.95l-.009-.007,0,.008Z" transform="translate(-466.917 -258.17)" fill="#845848"/><path d="M608.826,474.523c-.021.036-.044.071-.065.107l.01,0C608.79,474.6,608.807,474.559,608.826,474.523Z" transform="translate(-465.543 -271.833)" fill="#845848"/><path d="M718.981,454.492l.093-.1-18.837-.885Z" transform="translate(-515.46 -260.305)" fill="#845848"/><path d="M718.564,418.213l2.178-2.407,4.141-4.141,2.925-.626a2.822,2.822,0,0,0,2.167-3.35l-.079-.37-.32.069-6.351,1.417h0l-4.78,4.156-.062.054.062-.054-.063.055-.268-.311,3.542-5.153,6.977-.932a3.662,3.662,0,0,0,3.146-4.113l-2.423.366-9.8,1.492-.091.015-4.307,4.829,4.307-4.829h0l-4.307,4.83-.227-.267,4.451-6.344,7.966-2.154a3.661,3.661,0,0,0,2.578-4.489l-12.085,3.34-.769.291-5.021,5.967-.225-.264,9.989-13.891a1.83,1.83,0,0,0-2.92-2.208l-10.6,14.017h.006L706.88,405.1l-1.391,4.729-6.169,7.481h.008l6.167-7.479,1.391-4.729,11.5-15.245-11.5,15.245-1.391,4.729-6.167,7.479.4.021Zm-1.5-18.627,12.544-3.544-12.544,3.544-5.021,5.967Z" transform="translate(-514.787 -224.367)" fill="#845848"/><path d="M746.155,422.226l-1.255.2,9.805-1.492Z" transform="translate(-540.028 -242.454)" fill="#845848"/><path d="M753.3,432.443l-.116.08,6.35-1.417Z" transform="translate(-544.609 -248.027)" fill="#845848"/><path d="M718.737,504.286h0a36.1,36.1,0,0,0,0,10.854l0,0a36.1,36.1,0,0,1,0-10.856h0Z" transform="translate(-525.579 -288.005)" fill="#b47a02"/><path d="M719.25,504.286h0Z" transform="translate(-526.09 -288.145)" fill="#b47a02"/><path d="M685.708,500.711l-.139.046.336.1A2.43,2.43,0,0,1,685.708,500.711Z" transform="translate(-507.63 -286.184)" fill="#b47a02"/><path d="M631.963,502.355h0c-.068,0-11.7.553-14.611-1.442l-.336-.1L595.1,508.04a9.287,9.287,0,0,1-2.369.45l-28.237,1.5-2.174,6.145h2.174l28.237-1.08a9.26,9.26,0,0,0,2.369-.45l20.558-9.265a3.208,3.208,0,0,1,2.923.147l13.384,7.727A36.1,36.1,0,0,1,631.963,502.355Z" transform="translate(-439.469 -286.044)" fill="#b47a02"/><path d="M638.683,374.946a.769.769,0,1,0-.769-.769A.77.77,0,0,0,638.683,374.946Z" transform="translate(-481.505 -216.41)" fill="#293241"/><path d="M638.683,390a.769.769,0,1,0-.769-.769A.769.769,0,0,0,638.683,390Z" transform="translate(-481.505 -224.658)" fill="#293241"/><path d="M638.683,405.049a.769.769,0,1,0-.769-.769A.769.769,0,0,0,638.683,405.049Z" transform="translate(-481.505 -232.905)" fill="#293241"/></svg>