<svg xmlns="http://www.w3.org/2000/svg" width="323.186" height="323.186" viewBox="0 0 323.186 323.186"><path d="M435.507,27.1c-89.245,0-161.593,72.414-161.593,161.741A161.774,161.774,0,0,0,397.672,346.127l-.018-.237A161.548,161.548,0,0,1,274.14,188.846c0-89.2,72.246-161.515,161.367-161.515S596.874,99.644,596.874,188.846a161.5,161.5,0,0,1-83.69,141.6l-.012.265A161.723,161.723,0,0,0,597.1,188.846C597.1,99.519,524.752,27.1,435.507,27.1Z" transform="translate(-273.914 -27.105)" fill="#fff"/><path d="M397.279,337.232c-.019-.171-.039-.339-.058-.507l-.034-.3-.038-.331-.047-.4-.024-.213-.311-2.71c-.014-.117-.027-.233-.041-.355-.044-.387-.089-.778-.133-1.159q-.048-.423-.1-.841l-.168-1.463c-.026-.228-.052-.453-.078-.678q-.047-.413-.1-.845l-.112-.975c-.019-.163-.038-.329-.057-.5l-.075-.652-.281-2.441c-.121-1.054-.248-2.16-.383-3.33l-.627-5.459-.04-.352q-.112-.973-.218-1.9c-.06-.518-.12-1.04-.181-1.573q-.162-1.406-.309-2.683c-.052-.455-.1-.914-.158-1.38q-.34-2.957-.593-5.158l-.052-.455-.685-5.956,0-.008q-.417.44-.841.851l-.005.016c-.165.16-.333.314-.5.467-.043.04-.085.081-.129.12-.273.247-.547.482-.823.712q-.136.113-.272.222c-.281.228-.564.45-.849.66l-.064.046c-.283.207-.569.4-.856.593l-.195.128c-.306.2-.613.388-.922.566l-.049.027c-.286.164-.575.317-.864.464l-.236.118c-.289.142-.579.277-.871.4-.1.041-.192.077-.287.116-.192.078-.384.153-.577.224q-.222.082-.443.158c-.14.048-.281.091-.421.134q-.422.131-.844.239c-.118.03-.236.061-.354.089-.164.038-.328.074-.492.107q-.359.073-.722.131l-.112.019-.017,0c-.19.026-.381.044-.571.064a15.506,15.506,0,0,1-4.97-.26q-.238-.05-.475-.106c-.082-.02-.164-.04-.245-.062a16.214,16.214,0,0,1-6.212-3.134c-.031-.025-.06-.054-.092-.08A22.92,22.92,0,0,1,363.655,293a26.3,26.3,0,0,1-3.207-5.726l-.042-.1c-.02-.05-.045-.1-.065-.15s-.039-.1-.06-.157a41.58,41.58,0,0,1-2.554-9.09,48.643,48.643,0,0,1-.73-10.37q.051-4.055.538-8.9l.006-.067q.06-.595.126-1.2c.1-.924.215-1.874.339-2.839.08-.638.167-1.274.255-1.911.026-.191.054-.384.081-.576.308-2.174.654-4.332,1.029-6.463.132-.753.266-1.513.409-2.285.019-.1.037-.2.056-.3l.019-.1c.552-2.925,1.144-5.768,1.742-8.472.132-.616.226-1.04.28-1.258v0c1.483-6.592,2.956-12.271,3.863-16.132q-1.2-3.391,3.758-4.666a26.515,26.515,0,0,0-4.873-5.72c-6.036-5.157-10.53-3.907-6.533-14.569,2.559-6.827,10.4-28.874,18.777-37.081a11.273,11.273,0,0,1-1.387-2.8h0a10.589,10.589,0,0,1,.053-7.05,7.918,7.918,0,0,1,1.961-2.966,19.382,19.382,0,0,1-1.046-4.911A1.146,1.146,0,0,1,374.462,136a6.607,6.607,0,0,1,1.826-2.183l.019-.013c0-1.786.1-3.864.326-6.31l-.064-.007c-.1-.01-.2-.018-.305-.032-.171-.023-.344-.055-.516-.087-.086-.016-.172-.027-.258-.045q-.389-.081-.781-.191a14.364,14.364,0,0,1-10.416-14.048q.012-.681.086-1.353a14.369,14.369,0,0,1,1.9-5.7q.342-.58.739-1.129a14.33,14.33,0,0,1,2.8-2.9,6.027,6.027,0,0,1,1.635-.677,3.218,3.218,0,0,1,.857-.086,2.444,2.444,0,0,1,1.83.949,5.318,5.318,0,0,0,2.229,1.878,1.435,1.435,0,0,0,.411.066,1.189,1.189,0,0,0,.194-.014,1.272,1.272,0,0,0,.7-.379c.629-.47,1.254-.924,1.877-1.371.2-.143.4-.283.6-.424q.671-.476,1.339-.934c.2-.137.4-.276.594-.409q.8-.545,1.6-1.066v0q30.187-19.705,50.163-2.831c.184.028.364.065.546.1l.005-.007c.088.016.173.038.26.054q.245.048.489.1.269.06.535.127c.162.041.323.084.483.129s.349.1.523.156c.158.05.316.1.473.154.172.059.343.121.513.185.155.058.309.116.462.178.168.068.335.14.5.213.151.066.3.132.45.2.164.077.326.158.489.24.146.074.292.147.436.224.16.086.318.176.476.267.141.081.283.162.421.246.156.1.309.195.462.294.136.088.272.175.405.266.152.1.3.214.45.323.129.094.259.187.385.284.148.114.292.233.438.352.122.1.245.2.364.3.144.124.284.253.424.381.114.1.231.207.343.314.14.134.274.274.41.412.107.109.216.215.32.326.136.146.266.3.4.447.1.111.2.219.293.333.134.16.261.326.39.491.086.11.175.217.259.329.135.181.263.367.391.554.071.1.146.2.214.3.167.252.326.509.482.77.025.042.052.081.077.124a17.054,17.054,0,0,1,1.979,5.071q.112.517.193,1.038c.061.393.109.787.146,1.183.49,5.17-1,10.6-2.461,16.12q-.157.6-.314,1.191a62.53,62.53,0,0,0-2.015,10.237c-1.211,11.41-5.686,10.491-8.18,4.546a23.625,23.625,0,0,0,8.325,15.2,8.371,8.371,0,0,1,10.749-1.876l35.112,4.955c.049-.011.1-.02.148-.031l.193-.04q.368-.077.738-.135l.224-.035q.374-.054.748-.09c.065-.007.13-.015.195-.021q.445-.037.891-.052c.111,0,.222,0,.334,0,.187,0,.374,0,.561,0,.135,0,.271.01.406.016q.283.014.565.037c.068.005.137.007.2.013l.073.011a19.122,19.122,0,0,1,4.94,1.181,21.292,21.292,0,0,1,4.931,2.591l.053.039a30.215,30.215,0,0,1,4.607,3.888l.053.053c.3.3.587.613.873.93.162.179.32.362.478.544l.2.239q.846.994,1.616,2.053.317.435.622.883c.016.025.034.048.051.073v0a36.991,36.991,0,0,1,5.6,13.058c3.055,14.461,1.411,33.283-2.718,51.459q-1.223,27.36-4.049,90.538a161.511,161.511,0,0,0,83.7-141.616c0-89.21-72.253-161.53-161.382-161.53s-161.382,72.32-161.382,161.53A161.563,161.563,0,0,0,397.94,346.194q-.293-4-.651-8.878Zm138.666-54.966a1.148,1.148,0,0,1-.923,1.334,5.1,5.1,0,0,1-6.24-3.978,1.147,1.147,0,1,1,2.218-.587,2.832,2.832,0,0,0,3.611,2.307A1.147,1.147,0,0,1,535.945,282.266Zm-5.106-58.536a1.761,1.761,0,1,1,2.626,2.346,4.352,4.352,0,0,0,.1,6.579,1.76,1.76,0,1,1-2.541,2.435,7.835,7.835,0,0,1-.189-11.36Zm-13.614-90.6a5.007,5.007,0,0,0,5.387-5.326,2.027,2.027,0,1,1,4.05.191,9.015,9.015,0,0,1-9.31,9.19,2.028,2.028,0,0,1-.127-4.055Zm-48.94-2.561a6.8,6.8,0,0,1,7.025,6.934,1.53,1.53,0,1,1-3.056.144,3.778,3.778,0,0,0-4.065-4.019,1.53,1.53,0,0,1,.1-3.059Zm-94.917-52.39a1.347,1.347,0,0,1,1.745.763,3.323,3.323,0,0,0,4.523,2.2,1.345,1.345,0,0,1,1.679.9c.217.711-.9,1.68-.9,1.68s-3.37.44-4.718-.214a6.4,6.4,0,0,1-3.1-3.58A1.348,1.348,0,0,1,373.368,78.184ZM335.4,221.381a1.608,1.608,0,0,1,2.239-.4,3.973,3.973,0,0,0,5.954-.848,1.611,1.611,0,1,1,2.494,2.039,7.152,7.152,0,0,1-10.283,1.456A1.611,1.611,0,0,1,335.4,221.381Zm12.265,74.645a1.545,1.545,0,0,1-1.9,1.089,6.875,6.875,0,0,1-5.3-8.447,1.545,1.545,0,1,1,3.036.571,3.818,3.818,0,0,0,3.075,4.889A1.547,1.547,0,0,1,347.665,296.026Z" transform="translate(-274.203 -27.394)" fill="#fff" opacity="0.67"/><path d="M504.53,289.09a6.14,6.14,0,0,1-.66-.128.689.689,0,0,1-.115-1.3q-.192-.335-.382-.654c-.106-.179-.211-.354-.316-.528-.156-.26-.31-.517-.462-.772q-.151-.255-.3-.51c-.3-.527-.592-1.06-.858-1.626a6.269,6.269,0,0,0-1.168,1.937,8.587,8.587,0,0,0-.03,5.721h0a9.319,9.319,0,0,0,1.032,2.15,7.787,7.787,0,0,1,4.28-2.024C505.221,290.518,504.877,289.771,504.53,289.09Z" transform="translate(-397.55 -167.394)" fill="#fff"/><path d="M695.618,729.7q.015.105.029.209a149.922,149.922,0,0,0,18.117-4.468c.014-.079.033-.157.046-.236A149.7,149.7,0,0,1,695.618,729.7Z" transform="translate(-504.204 -409.156)" fill="#8f810a"/><path d="M787.478,701.042l-.013.241q3.378-1.642,6.662-3.445l.011-.247Q790.856,699.4,787.478,701.042Z" transform="translate(-554.992 -393.207)" fill="#8f810a"/><path d="M541.71,672.8c.126,1.092.245,2.124.358,3.108Q541.883,674.311,541.71,672.8Z" transform="translate(-420.655 -378.889)" fill="#8f810a"/><path d="M544.985,701.266c.013.113.025.222.038.331Z" transform="translate(-422.458 -395.33)" fill="#8f810a"/><path d="M544.1,693.613l.157,1.366Q544.182,694.288,544.1,693.613Z" transform="translate(-421.972 -390.91)" fill="#8f810a"/><path d="M546.005,710.132l.032.28C546.026,710.319,546.016,710.226,546.005,710.132Z" transform="translate(-423.017 -400.451)" fill="#8f810a"/><path d="M546.21,711.915l.009.079Z" transform="translate(-423.13 -401.481)" fill="#f6ea89"/><path d="M540.322,660.739l.586,5.1Q540.635,663.457,540.322,660.739Z" transform="translate(-419.888 -371.921)" fill="#f6ea89"/><path d="M535.371,617.733l.64,5.56q-.309-2.682-.641-5.57l0,0Z" transform="translate(-417.172 -347.075)" fill="#f6ea89"/><path d="M537.006,631.914q.236,2.055.554,4.815Q537.293,634.412,537.006,631.914Z" transform="translate(-418.072 -355.271)" fill="#f6ea89"/><path d="M538.668,646.363q.137,1.194.288,2.5C538.863,648.055,538.766,647.215,538.668,646.363Z" transform="translate(-418.99 -363.617)" fill="#f6ea89"/><path d="M539.751,655.77l.2,1.77C539.888,656.962,539.82,656.371,539.751,655.77Z" transform="translate(-419.585 -369.051)" fill="#f6ea89"/><path d="M583.044,735.9a151.176,151.176,0,0,1-35.372-4.174l.016.221a152.315,152.315,0,0,0,62.5,1.728q-.014-.1-.029-.209A151.655,151.655,0,0,1,583.044,735.9Z" transform="translate(-421.814 -412.922)" fill="#f6ea89"/><path d="M738.623,713.973c-.013.079-.031.158-.046.236A149.95,149.95,0,0,0,759.227,706l.013-.241A149.8,149.8,0,0,1,738.623,713.973Z" transform="translate(-527.535 -397.927)" fill="#342b00"/><path d="M461.1,588.994a45.413,45.413,0,0,1-2.387-8.486A38.788,38.788,0,0,0,461.1,588.994Z" transform="translate(-375.141 -329.891)" fill="#b1a12e"/><path d="M459.336,526.4q.113-.881.238-1.784C459.492,525.208,459.411,525.8,459.336,526.4Z" transform="translate(-375.519 -299.648)" fill="#b1a12e"/><path d="M460.08,515.089q.413-2.893.962-6.033C460.691,511.045,460.368,513.06,460.08,515.089Z" transform="translate(-375.914 -290.919)" fill="#b1a12e"/><path d="M463.427,492.3q1.162-5.735,1.627-7.909C464.5,486.917,463.943,489.571,463.427,492.3Z" transform="translate(-377.735 -277.331)" fill="#b1a12e"/><path d="M471.829,614.147a21.4,21.4,0,0,0,4.122,4.347A24.545,24.545,0,0,1,471.829,614.147Z" transform="translate(-382.289 -345.009)" fill="#b1a12e"/><path d="M497.124,631.914a14.5,14.5,0,0,0,4.644.242A15.156,15.156,0,0,1,497.124,631.914Z" transform="translate(-396.128 -355.271)" fill="#b1a12e"/><path d="M533.506,617.559q.4-.383.786-.794a3.689,3.689,0,0,1-.31-.706C533.841,616.547,533.687,617.044,533.506,617.559Z" transform="translate(-416.148 -346.113)" fill="#b1a12e"/><path d="M534.633,615.268a3.689,3.689,0,0,0,.31.705l0,0c-.049-.424-.1-.85-.147-1.281C534.749,614.879,534.689,615.075,534.633,615.268Z" transform="translate(-416.778 -345.323)" fill="#b1a12e"/><path d="M549.936,445.009l-.174-.035,0,0Z" transform="translate(-425.07 -256.092)" fill="#665700"/><path d="M536.416,595.575c0,.025,0,.051.007.076q.884-1.33,1.7-2.855c-.24-.357-.468-.709-.7-1.062A19.37,19.37,0,0,1,536.416,595.575Z" transform="translate(-417.719 -336.297)" fill="#665700"/><path d="M561.137,495.517l.983-7.139h0Q562.1,488.542,561.137,495.517Z" transform="translate(-431.282 -279.548)" fill="#665700"/><path d="M463.313,503.208c-.018.1-.034.189-.052.284.024-.125.046-.25.07-.375Z" transform="translate(-377.673 -287.939)" fill="#f6ea89"/><path d="M467.541,481.612c-.05.2-.139.6-.261,1.175q.131-.591.261-1.172Z" transform="translate(-379.872 -276.118)" fill="#f6ea89"/><path d="M508.652,632.343l.016,0c-.184.027-.367.043-.55.063C508.3,632.384,508.474,632.367,508.652,632.343Z" transform="translate(-402.243 -355.518)" fill="#f6ea89"/><path d="M532.856,619.625l.005-.015c-.157.152-.313.306-.472.451C532.545,619.918,532.7,619.774,532.856,619.625Z" transform="translate(-415.544 -348.165)" fill="#f6ea89"/><path d="M481.673,624.513a15.156,15.156,0,0,0,5.8,2.926,16.357,16.357,0,0,1-5.89-3C481.617,624.463,481.644,624.49,481.673,624.513Z" transform="translate(-387.595 -350.954)" fill="#f6ea89"/><path d="M464.423,600.745c.019.047.041.093.06.14-.04-.094-.077-.192-.116-.287C464.386,600.647,464.4,600.7,464.423,600.745Z" transform="translate(-378.279 -337.183)" fill="#f6ea89"/><path d="M467.731,606.837a28.242,28.242,0,0,1-3-5.345A24.547,24.547,0,0,0,467.731,606.837Z" transform="translate(-378.426 -337.699)" fill="#f6ea89"/><path d="M457.06,546.224c.048-2.715.227-5.5.5-8.311q-.453,4.521-.5,8.311a45.368,45.368,0,0,0,.682,9.68A52.7,52.7,0,0,1,457.06,546.224Z" transform="translate(-374.246 -306.065)" fill="#f6ea89"/><path d="M534.369,612.773c.056-.193.116-.389.166-.578q-.1-.9-.21-1.825A4.3,4.3,0,0,0,534.369,612.773Z" transform="translate(-416.526 -342.827)" fill="#f6ea89"/><path d="M534.738,609.389a18.884,18.884,0,0,0,.628-3.877,8.465,8.465,0,0,0-.838,2.052Q534.634,608.486,534.738,609.389Z" transform="translate(-416.707 -340.021)" fill="#f6ea89"/><path d="M536.249,601.023c.026-.039.051-.081.077-.12,0-.025,0-.051-.007-.076C536.3,600.892,536.274,600.958,536.249,601.023Z" transform="translate(-417.669 -337.315)" fill="#f6ea89"/><path d="M554.087,445.891q-1.661-.413-3.91-.835,1.963.38,3.911.839Z" transform="translate(-425.197 -256.104)" fill="#271f00"/><path d="M559.772,509.466c.215-1.559.406-2.949.577-4.186q-.305,2.22-.577,4.186Z" transform="translate(-430.546 -288.942)" fill="#271f00"/><path d="M610.861,345.207c.54.733,1.054,1.484,1.552,2.247l7.384-8.084a17.239,17.239,0,0,0-1.171-2.765A38.032,38.032,0,0,1,610.861,345.207Z" transform="translate(-458.254 -196.367)" fill="#f3ac42"/><path d="M626.651,287.067h0a25.162,25.162,0,0,0,1.965,5.561q.109.22.225.438c.1.2.206.389.312.582a28.73,28.73,0,0,0,2.363,3.579c.111.142.221.285.335.425a37.632,37.632,0,0,0,4.073,4.323l1.134-1.241c.088-.12.184-.229.277-.343a22.049,22.049,0,0,1-7.779-14.187c-.141-.335-.274-.689-.4-1.056A9.129,9.129,0,0,1,626.651,287.067Z" transform="translate(-466.828 -168.061)" fill="#f3ac42"/><path d="M648.608,322.822c.416.38.841.758,1.284,1.133q.314-1.178.547-2.374c-.143-.111-.279-.229-.419-.343-.093.113-.189.223-.277.343Z" transform="translate(-479.176 -188.208)" fill="#f3ac42"/><path d="M646.057,328.1a38.81,38.81,0,0,1-4,9.335A37.426,37.426,0,0,0,646.057,328.1Z" transform="translate(-475.508 -191.762)" fill="#f3ac42"/><path d="M621.919,343.15l-7.384,8.084a47.83,47.83,0,0,1,2.912,5.107,40.655,40.655,0,0,0,5.075-5.09A17.216,17.216,0,0,0,621.919,343.15Z" transform="translate(-460.289 -199.868)" fill="#f3ac42"/><path d="M651.578,327.671h0c-.016.06-.035.12-.051.18C651.543,327.79,651.562,327.731,651.578,327.671Z" transform="translate(-480.84 -191.807)" fill="#c02800"/><path d="M633.444,362.257l.047-.058-.047.055Z" transform="translate(-470.932 -210.732)" fill="#c02800"/><path d="M629.245,323.983a17.239,17.239,0,0,1,1.171,2.765l7.008-7.671a37.631,37.631,0,0,1-4.073-4.323c.08.1.152.2.234.3A37.99,37.99,0,0,1,629.245,323.983Z" transform="translate(-468.339 -184.381)" fill="#c02800"/><path d="M626.652,289.69h0Z" transform="translate(-467.211 -170.999)" fill="#c02800"/><path d="M632.578,305.272a26.756,26.756,0,0,0,2.363,3.579A28.736,28.736,0,0,1,632.578,305.272Z" transform="translate(-470.375 -179.439)" fill="#c02800"/><path d="M632.62,340.76l.047-.055c.05-.06.1-.12.147-.18q.322-.39.634-.788l.019-.025q.361-.462.707-.934l.005-.007q.339-.462.664-.933l.049-.07q.281-.411.552-.827c.046-.07.092-.14.137-.21.126-.2.25-.4.373-.6.094-.152.188-.3.28-.457l.024-.042a38.81,38.81,0,0,0,4-9.335c.016-.06.035-.12.051-.18-.443-.375-.868-.753-1.284-1.133l-7.008,7.671A17.217,17.217,0,0,1,632.62,340.76Z" transform="translate(-469.852 -189.856)" fill="#c02800"/><path d="M604.6,385.552l.131-.07-.134.068Z" transform="translate(-455.124 -223.49)" fill="#c02800"/><path d="M619,374.381v0q-.87.729-1.779,1.41Q618.128,375.111,619,374.381Z" transform="translate(-461.982 -217.36)" fill="#c02800"/><path d="M596.683,360.959h0c.683,1.463,1.315,2.971,1.854,4.484l5.688-6.227c-.5-.762-1.012-1.514-1.552-2.247A38.032,38.032,0,0,1,596.683,360.959Z" transform="translate(-450.542 -207.586)" fill="#fcfcfc"/><path d="M601.068,368.515c.388,1.088.727,2.176,1,3.251.163.129.323.257.493.387l.134-.068c.139-.073.277-.15.416-.224.191-.1.38-.207.569-.313.153-.087.3-.174.457-.263q.272-.158.541-.321.212-.127.421-.257.3-.186.6-.378c.115-.074.23-.148.345-.224q.352-.233.7-.474l.231-.159q.442-.31.875-.633l.047-.035q.91-.679,1.779-1.41a47.844,47.844,0,0,0-2.912-5.107Z" transform="translate(-452.908 -210.447)" fill="#fcfcfc"/><path d="M607.157,337.621a38.033,38.033,0,0,0,7.765-8.6,17.216,17.216,0,0,0-4.639-5.545v0a33.847,33.847,0,0,1-5.834,10.814C605.4,335.359,606.307,336.469,607.157,337.621Z" transform="translate(-454.693 -189.081)" fill="#c02800"/><path d="M626.654,289.691a23.473,23.473,0,0,0,1.965,5.561A25.159,25.159,0,0,1,626.654,289.691Z" transform="translate(-467.144 -170.854)" fill="#c02800"/><path d="M619.5,290.4a29.3,29.3,0,0,1-1.238,13.562v0a17.216,17.216,0,0,1,4.639,5.545,38,38,0,0,0,4.339-8.932c-.082-.1-.154-.2-.234-.3-.114-.141-.224-.283-.335-.425a26.761,26.761,0,0,1-2.363-3.579c-.106-.193-.212-.387-.312-.582q-.115-.219-.225-.438a23.474,23.474,0,0,1-1.965-5.561h0A6.8,6.8,0,0,1,619.5,290.4Z" transform="translate(-462.3 -170.453)" fill="#c02800"/><path d="M593.416,353.618c.473.9.935,1.83,1.378,2.78h0a38.028,38.028,0,0,0,5.986-3.99c-.85-1.152-1.757-2.262-2.708-3.335A27.014,27.014,0,0,1,593.416,353.618Z" transform="translate(-448.762 -203.304)" fill="#c02800"/><path d="M500.122,248.371h0c-.212,2.284-.307,4.223-.3,5.891h0C499.815,252.594,499.911,250.654,500.122,248.371Z" transform="translate(-397.7 -148.227)" fill="#f8b95a"/><path d="M500.139,269.669h0a18.081,18.081,0,0,0,.977,4.585h0A18.083,18.083,0,0,1,500.139,269.669Z" transform="translate(-397.862 -159.917)" fill="#f8b95a"/><path d="M544.082,302.671a9.669,9.669,0,0,1-1.674-1.158,9.9,9.9,0,0,1-1.066-1.076l.992,2.537A1.981,1.981,0,0,1,544.082,302.671Z" transform="translate(-420.39 -176.82)" fill="#f8b95a"/><path d="M549.985,305.483a37.8,37.8,0,0,1,12.987,6.463q.444-.843.93-1.711c-.768-2.595-2.569-4.869-4.744-7.1a9.226,9.226,0,0,1-9.857,1.407,1.828,1.828,0,0,1,.684.941Z" transform="translate(-424.409 -178.122)" fill="#f8b95a"/><path d="M525.119,251.243a4.713,4.713,0,0,1,3.119-.81,10.047,10.047,0,0,1,2.146-5.863,9.646,9.646,0,0,1,1.206-1.268,15.315,15.315,0,0,1-.669-4.285c0-.116.005-.23.006-.346a17.089,17.089,0,0,0-2.3.465,1.069,1.069,0,0,1-.562-2.063,19.171,19.171,0,0,1,3-.563A17.812,17.812,0,0,1,536.315,226a17.782,17.782,0,0,0-2.281.59c-.45.147-.9.316-1.342.5h0c-.2.082-.4.169-.593.258l-.079.035-.09.042a23.614,23.614,0,0,0-9.105,18.65,23.882,23.882,0,0,0,.176,2.873A9.549,9.549,0,0,1,525.119,251.243Z" transform="translate(-409.97 -135.561)" fill="#f8b95a"/><path d="M532.382,287.613c-.035-.22-.066-.441-.088-.667l-.007-.076a3.392,3.392,0,0,0-2.509.631,10.745,10.745,0,0,1,.56,1.358l.008.016.008.033c.065.2.115.395.168.592C530.575,287.718,531.517,286.933,532.382,287.613Z" transform="translate(-414.06 -169.367)" fill="#f8b95a"/><path d="M545.792,276.947c-.2.069-.394.133-.595.186a7.752,7.752,0,0,1-3.888.016.859.859,0,0,1,.423-1.664,6.028,6.028,0,0,0,2.82.038,21.036,21.036,0,0,1-3.344-5.429,8.425,8.425,0,0,0-.669.74,8.924,8.924,0,0,0,1.163,12.181,8.047,8.047,0,0,0,6.038,1.955,7.951,7.951,0,0,0,4.361-1.834C550.064,281.136,547.8,279.14,545.792,276.947Z" transform="translate(-418.629 -159.887)" fill="#f8b95a"/><path d="M525.826,288.4h0a9.086,9.086,0,0,0-1.76-3.114A23.491,23.491,0,0,0,526.3,291.4a9.192,9.192,0,0,0-.474-3.007Z" transform="translate(-410.939 -168.425)" fill="#f8b95a"/><path d="M503.726,283.576h0c.266.566.554,1.1.858,1.626C504.28,284.675,503.992,284.142,503.726,283.576Z" transform="translate(-399.83 -167.608)" fill="#f8b95a"/><path d="M582.6,319.944q-.485.867-.93,1.711.676.519,1.328,1.068A9.54,9.54,0,0,0,582.6,319.944Z" transform="translate(-442.52 -187.498)" fill="#f8b95a"/><path d="M598.109,322.114c-.021.042-.041.084-.062.127l0-.013a34.752,34.752,0,0,1-2.7,4.281l0,0c-.046.062-.095.121-.141.182q-.349.466-.716.928c-.061.077-.121.154-.183.231-.294.365-.6.728-.907,1.088-.088.1-.18.2-.269.3-.209.237-.421.473-.637.707-.149.161-.3.321-.452.48-.209.22-.423.438-.639.657-.071.071-.139.145-.21.215l0,0h0l.091.161a13.4,13.4,0,0,1,4.87-3.7c.217.235.426.478.639.718a33.848,33.848,0,0,0,5.834-10.814c-.572-1.528-1.061-2.938-1.476-4.243A30.528,30.528,0,0,1,598.109,322.114Z" transform="translate(-447.409 -183.468)" fill="#f8b95a"/><path d="M615.356,290.9c-.092-.024-.182-.054-.272-.082v0c.005.044.008.087.014.13l0,.03a30.076,30.076,0,0,1-.183,8.5c-.015.1-.032.191-.048.287-.026.148-.05.3-.079.445-.009.05-.017.1-.027.151.415,1.306.9,2.716,1.476,4.243a29.3,29.3,0,0,0,1.238-13.562A5.736,5.736,0,0,1,615.356,290.9Z" transform="translate(-460.596 -171.243)" fill="#f8b95a"/><path d="M596.916,348.093c-.212-.24-.422-.482-.639-.718a13.4,13.4,0,0,0-4.87,3.7q.426.764.849,1.565A27.012,27.012,0,0,0,596.916,348.093Z" transform="translate(-447.723 -202.442)" fill="#f8b95a"/><path d="M503.31,249.548h.047a6.808,6.808,0,0,1,5.717.9c.218.139.429.291.637.452a23.888,23.888,0,0,1-.176-2.873,23.614,23.614,0,0,1,9.105-18.65q-.234.107-.467.22l-.113.054c-.182.089-.363.181-.544.275l-.12.062c-.181.094-.362.191-.543.29l-.114.063c-.185.1-.37.205-.555.31l-.093.053q-.292.167-.584.339l-.048.028c-1.078.637-2.148,1.314-3.218,1.983-1.3.809-2.59,1.6-3.9,2.289l-.1.049q-.283.148-.567.289l-.189.091c-.159.077-.319.154-.479.227l-.232.1c-.146.065-.293.13-.44.191-.086.036-.173.071-.259.105-.139.056-.278.11-.417.162-.092.035-.184.067-.277.1-.134.048-.268.094-.4.138-.1.031-.192.061-.289.09q-.2.06-.4.115c-.1.027-.2.053-.3.078q-.2.049-.392.092c-.1.022-.2.044-.3.063-.13.025-.261.048-.391.069-.1.017-.2.033-.307.047-.131.018-.263.032-.394.045-.1.01-.2.021-.308.028-.133.01-.267.015-.4.019-.1,0-.2.008-.307.009-.136,0-.274,0-.411-.009-.1,0-.2,0-.3-.011-.124-.008-.248-.022-.372-.034-.211,2.283-.307,4.223-.3,5.891a6.166,6.166,0,0,1,2.389-1.121,1.07,1.07,0,1,1,.469,2.089A4.012,4.012,0,0,0,500,246.33c-.013.024-.03.044-.043.066a18.083,18.083,0,0,0,.977,4.585,6.264,6.264,0,0,1,2.293-1.389Z" transform="translate(-397.262 -137.487)" fill="#fce1ae"/><path d="M504.882,283.364c.151.255.305.511.462.772.1.174.21.349.316.528.126.213.254.431.382.654a.686.686,0,0,1,.455-.043,4.86,4.86,0,0,0,4.569-1.2.69.69,0,0,1,.957.995,6.236,6.236,0,0,1-5.207,1.674c.346.681.691,1.428,1.025,2.272a4.659,4.659,0,0,1,1.675.17,23.643,23.643,0,0,1,2.358.841,6.6,6.6,0,0,1,2.506-.4,8.22,8.22,0,0,0,.17-1.549,23.49,23.49,0,0,1-2.234-6.122,7.769,7.769,0,0,0-1.674-1.46,5.524,5.524,0,0,0-4.727-.727h0a5.054,5.054,0,0,0-2.189,1.467c.266.566.554,1.1.858,1.626Q504.731,283.11,504.882,283.364Z" transform="translate(-399.596 -165.152)" fill="#fce1ae"/><path d="M581.369,298.836a43.9,43.9,0,0,1-6.12-4.122,9.941,9.941,0,0,1-1.318,2.211,9.67,9.67,0,0,1-1.293,1.346c2.175,2.231,3.976,4.505,4.744,7.1Q579.118,302.264,581.369,298.836Z" transform="translate(-437.349 -173.463)" fill="#e36800"/><path d="M556.781,278.687a8.647,8.647,0,0,0,1.321-2.376,12.921,12.921,0,0,1-3.273-6,14.519,14.519,0,0,1-.37-4.637,7.931,7.931,0,0,0-9.769,1.2,21.033,21.033,0,0,0,3.344,5.429c.07-.016.14-.03.21-.048a6.03,6.03,0,0,0,2.642-1.48.856.856,0,1,1,1.187,1.235,7.743,7.743,0,0,1-2.8,1.717c2.01,2.193,4.272,4.189,6.308,6.189A8.358,8.358,0,0,0,556.781,278.687Z" transform="translate(-421.924 -156.826)" fill="#e36800"/><path d="M544.331,236.1a19.2,19.2,0,0,1,5.189.741,1.073,1.073,0,1,1-.587,2.063,16.986,16.986,0,0,0-6.935-.52c0,.116-.008.23-.006.346a15.317,15.317,0,0,0,.669,4.285,9.222,9.222,0,0,1,10.419-1.251,14.534,14.534,0,0,1,1.558-4.438c-.031-.054-.063-.107-.093-.162-.038-.071-.075-.144-.111-.216s-.057-.12-.085-.182-.065-.147-.094-.222-.049-.131-.072-.2-.054-.15-.077-.228-.04-.151-.06-.227c-.033-.129-.061-.261-.086-.4-.014-.082-.031-.161-.043-.246h0a8.791,8.791,0,0,1,.268-3.286c1.257-4.915-1.664-7.2-6.8-6.251a17.812,17.812,0,0,0-5.245,10.509A19.207,19.207,0,0,1,544.331,236.1Z" transform="translate(-420.472 -135.462)" fill="#e36800"/><path d="M584.965,314.38a77.239,77.239,0,0,1,6.017-7.687,23.611,23.611,0,0,0-3.126-2.221q-2.252,3.429-3.987,6.535a9.543,9.543,0,0,1,.4,2.779C584.5,313.982,584.736,314.177,584.965,314.38Z" transform="translate(-443.545 -178.821)" fill="#e36800"/><path d="M591.186,355.736h0l-.005-.005Z" transform="translate(-447.774 -207.189)" fill="#e36800"/><path d="M607.57,322.1a30.525,30.525,0,0,0,3.039-8.687l0-.008A33.277,33.277,0,0,1,607.57,322.1Z" transform="translate(-456.654 -183.745)" fill="#e36800"/><path d="M592.481,309.73a77.224,77.224,0,0,0-6.017,7.687,37.788,37.788,0,0,1,6.15,6.956,34.752,34.752,0,0,0,2.705-4.28C596.456,314.8,594.969,311.9,592.481,309.73Z" transform="translate(-444.897 -181.555)" fill="#e36800"/><path d="M614.763,313.221c.009-.05.018-.1.027-.151-.009.047-.02.095-.029.142Z" transform="translate(-460.694 -183.807)" fill="#e36800"/><path d="M561.84,319.437q.893-2.053,2.067-4.281a37.8,37.8,0,0,0-12.987-6.463,1.994,1.994,0,0,1,.106.762A42.139,42.139,0,0,1,561.84,319.437Z" transform="translate(-425.342 -181.106)" fill="#fcfcfc"/><path d="M578.243,330.2a30.535,30.535,0,0,1,1.712-3.138,10.308,10.308,0,0,0,.213-2q-.653-.549-1.328-1.068-1.176,2.229-2.067,4.281Q577.528,329.225,578.243,330.2Z" transform="translate(-439.777 -189.613)" fill="#c02800"/><path d="M600.838,344.4l0,0-.139.185C600.743,344.52,600.792,344.461,600.838,344.4Z" transform="translate(-452.984 -200.972)" fill="#c02800"/><path d="M580.631,334.926a14.186,14.186,0,0,0,1.334-3.66,30.541,30.541,0,0,0-1.712,3.138C580.38,334.578,580.506,334.752,580.631,334.926Z" transform="translate(-441.734 -193.672)" fill="#c02800"/><path d="M591.2,355.452c.071-.071.139-.145.21-.215l-.212.213Z" transform="translate(-447.774 -206.912)" fill="#c02800"/><path d="M584.307,328.526c.284-.459.589-.93.911-1.41-.229-.2-.464-.4-.7-.594A10.3,10.3,0,0,1,584.307,328.526Z" transform="translate(-443.979 -191.124)" fill="#c02800"/><path d="M583.393,327.928c-.322.48-.628.951-.911,1.41a14.186,14.186,0,0,1-1.334,3.66c.89,1.24,1.732,2.5,2.52,3.765.559.9,1.139,1.876,1.718,2.908l.005.005.212-.213c.216-.218.43-.437.639-.657.152-.159.3-.318.452-.48.217-.235.428-.471.637-.707.089-.1.181-.2.269-.3.312-.36.613-.723.907-1.088.062-.076.122-.154.183-.231q.367-.462.716-.928l.139-.185A37.793,37.793,0,0,0,583.393,327.928Z" transform="translate(-442.016 -191.593)" fill="#fcfcfc"/><path d="M607.423,334.12c.022-.042.041-.084.062-.127l-.06.114Z" transform="translate(-456.672 -195.273)" fill="#a62000"/><path d="M615.128,299.707a30.067,30.067,0,0,0,.183-8.5A32.864,32.864,0,0,1,615.128,299.707Z" transform="translate(-460.883 -171.601)" fill="#a62000"/><path d="M615.532,290.949c-.005-.043-.008-.086-.014-.13v0h0C615.521,290.86,615.527,290.906,615.532,290.949Z" transform="translate(-461.109 -171.613)" fill="#a62000"/><path d="M572.5,262.322l3.192-2.095-.052-.076q-.141-.2-.284-.4l-.126-.17q-.151-.2-.3-.395l-.1-.128q-.2-.248-.4-.482l0-.005c-.288-.335-.576-.648-.861-.946l-.037-.038c-.2-.206-.394-.4-.587-.6-.58-.577-1.136-1.1-1.637-1.619l-.043-.044c-.082-.086-.163-.172-.242-.257l-.086-.093c-.073-.08-.144-.16-.214-.24-.03-.034-.059-.069-.088-.1-.068-.08-.135-.16-.2-.24l-.046-.061q-.188-.239-.353-.487c-.03-.044-.06-.088-.089-.133-.045-.071-.086-.143-.128-.215l0,0a14.536,14.536,0,0,0-1.558,4.438,9.677,9.677,0,0,1,1.821,1.237A9.981,9.981,0,0,1,572.5,262.322Z" transform="translate(-434.984 -150.962)" fill="#a62000"/><path d="M586.126,279.74c-.065-.06-.129-.124-.192-.19-.042-.043-.084-.084-.125-.131a6.462,6.462,0,0,1-1.35-2.752c-.1-.323-.2-.634-.3-.936-.03-.09-.062-.176-.094-.264-.074-.209-.148-.414-.225-.613-.038-.1-.078-.2-.117-.295q-.11-.274-.224-.535c-.041-.093-.081-.186-.122-.278-.081-.18-.164-.354-.248-.525-.036-.074-.072-.151-.109-.223-.113-.223-.227-.439-.343-.648l-.025-.046c-.056-.1-.114-.193-.171-.29l-3.378,2.217a10.328,10.328,0,0,1,.5,2.345,10.175,10.175,0,0,1-.789,5.026,43.9,43.9,0,0,0,6.12,4.122q1.637-2.493,3.55-5.156A2.9,2.9,0,0,1,586.126,279.74Z" transform="translate(-440.701 -160.968)" fill="#a62000"/><path d="M571.91,273.95a9.009,9.009,0,0,0-.585-2.449.684.684,0,0,1-.03-.077,8.723,8.723,0,0,0-2.382-3.334,8.458,8.458,0,0,0-1.16-.832,14.518,14.518,0,0,0,.37,4.637,12.921,12.921,0,0,0,3.273,6A8.917,8.917,0,0,0,571.91,273.95Z" transform="translate(-434.785 -158.448)" fill="#a62000"/><path d="M600.838,290.685q-1.807-3.694-.664-4.807a7.157,7.157,0,0,1-.673-.829,5.949,5.949,0,0,1-.253.854,4.678,4.678,0,0,1-.334.7c-.063.105-.128.205-.2.3a3.255,3.255,0,0,1-.68.7,2.558,2.558,0,0,1-1.179.495q-1.911,2.662-3.55,5.156a23.6,23.6,0,0,1,3.126,2.221Q598.437,293.188,600.838,290.685Z" transform="translate(-448.698 -168.183)" fill="#a62000"/><path d="M605.425,287.856a6.322,6.322,0,0,1-.977-.844q-1.14,1.116.664,4.807-2.4,2.5-4.4,4.789c2.488,2.174,3.975,5.073,2.839,10.362l.06-.114a33.278,33.278,0,0,0,3.037-8.7Q604.164,290.358,605.425,287.856Z" transform="translate(-452.801 -168.987)" fill="#a62000"/><path d="M611.293,289.011q-1.263,2.5,1.219,10.3c.009-.048.02-.1.029-.142.028-.148.053-.3.079-.445.016-.1.033-.191.048-.287a32.867,32.867,0,0,0,.183-8.5l0-.03c-.005-.044-.011-.089-.016-.133A5.723,5.723,0,0,1,611.293,289.011Z" transform="translate(-458.489 -170.353)" fill="#a62000"/><path d="M633.533,268.778h0c2.33,5.55,6.512,6.408,7.643-4.244a58.321,58.321,0,0,1,1.883-9.557,58.312,58.312,0,0,0-1.883,9.557C640.045,275.187,635.863,274.328,633.533,268.778Z" transform="translate(-470.635 -151.554)" fill="#0d3721"/><path d="M658.847,205.176A15.91,15.91,0,0,0,657,200.442c-.023-.039-.049-.076-.072-.115.023.039.049.076.072.115A15.924,15.924,0,0,1,658.847,205.176Z" transform="translate(-483.729 -121.946)" fill="#0d3721"/><path d="M6.744,28.137l.131-.061c.134-.061.266-.126.4-.185.265-.116.534-.224.8-.332.131-.053.261-.11.393-.161.274-.106.552-.2.829-.3.13-.046.258-.1.388-.139.281-.095.566-.18.85-.266.128-.039.256-.082.385-.119.29-.084.583-.158.876-.233.125-.032.248-.068.373-.1.3-.072.6-.134.9-.2.123-.026.245-.056.369-.08.3-.059.609-.109.914-.158.12-.02.24-.043.361-.061.31-.047.622-.083.934-.119.117-.013.234-.031.352-.044.314-.033.63-.055.945-.078.117-.008.233-.02.35-.027.317-.019.635-.027.953-.036.117,0,.233-.01.35-.011.32,0,.641,0,.963.008.115,0,.229,0,.344,0,.322.011.644.031.966.052.115.007.23.011.346.02.322.025.644.06.966.1.116.013.231.022.346.036.321.04.642.09.963.14.117.019.234.033.351.053.318.055.635.119.953.184.12.024.24.046.359.072.315.069.629.148.943.227.121.031.244.058.365.09.311.083.621.177.931.271.124.037.248.071.371.11.306.1.611.2.916.312.109.039.219.072.328.112H29c.063.023.127.043.19.066a31.142,31.142,0,0,1,9.537,5.719c5.113-7.309,8.441-17.048,14.3-24.292-.19-.036-.378-.078-.57-.108Q31.6-10.054.075,11.738C.026,12.3,0,12.872,0,13.448A19.057,19.057,0,0,0,6.744,28.137Z" transform="translate(107.263 61.885)" fill="#6e6464"/><path d="M473.432,208.561a13.419,13.419,0,0,1,.936-3.636A13.419,13.419,0,0,0,473.432,208.561Z" transform="translate(-383.23 -124.485)" fill="#0d3721"/><path d="M475.647,202.623a13.442,13.442,0,0,1,.839-1.683A13.442,13.442,0,0,0,475.647,202.623Z" transform="translate(-384.445 -122.336)" fill="#0d3721"/><path d="M477.634,199.5q.319-.542.69-1.054Q477.954,198.956,477.634,199.5Z" transform="translate(-385.537 -120.98)" fill="#0d3721"/><path d="M632.587,285.15h0c.126.368.259.721.4,1.056h0C632.846,285.871,632.713,285.517,632.587,285.15Z" transform="translate(-470.45 -168.485)" fill="#0d3721"/><path d="M530.368,219.244l-.117.051h0Z" transform="translate(-414.382 -132.395)" fill="#0d3721"/><path d="M577.017,217.407c-.1-.033-.2-.062-.293-.094.1.032.192.062.288.095Z" transform="translate(-439.843 -131.336)" fill="#0d3721"/><path d="M537.175,219.361c-.045.163-.083.328-.122.492a23.534,23.534,0,0,1,13.116-4.381c-.1-.033-.192-.063-.288-.095-.273-.091-.546-.182-.819-.264-.111-.033-.222-.062-.332-.093-.278-.079-.555-.158-.833-.229-.109-.027-.218-.05-.327-.076-.281-.067-.562-.134-.844-.192-.107-.022-.214-.04-.321-.06-.284-.055-.568-.109-.852-.155-.1-.017-.21-.029-.314-.045-.287-.043-.574-.085-.862-.118-.1-.012-.207-.02-.31-.03-.288-.03-.577-.06-.865-.081-.1-.008-.206-.011-.309-.017-.289-.018-.577-.035-.865-.044-.1,0-.205,0-.308,0-.288-.005-.575-.01-.862-.006-.1,0-.209.007-.313.009-.285.007-.569.014-.853.03-.1.006-.209.016-.313.023-.283.019-.565.038-.846.065-.106.011-.21.025-.315.037-.279.03-.558.061-.836.1-.108.015-.215.035-.323.051-.273.042-.547.084-.818.133-.111.02-.22.045-.33.067-.268.052-.535.1-.8.165-.112.026-.223.056-.334.083-.262.063-.524.125-.784.2-.115.031-.229.068-.344.1-.254.073-.509.145-.76.225-.116.037-.231.079-.347.117-.248.082-.5.164-.742.253-.118.043-.234.091-.352.136-.241.091-.482.182-.719.28-.121.05-.239.1-.359.156l-.117.051A15.709,15.709,0,0,0,537.175,219.361Z" transform="translate(-413.849 -129.391)" fill="#6e6464"/><path d="M563.673,231.361a11.228,11.228,0,0,0-.351,4.249,23.586,23.586,0,0,0,11.018-5.78q-9.367-12.867-16.744-8.887a23.3,23.3,0,0,0-2.834,2.335C561.494,222.047,565.32,225,563.673,231.361Z" transform="translate(-428.363 -134.531)" fill="#6e6464"/><path d="M593.116,284.5a6.471,6.471,0,0,1-1.35-2.751c-.1-.324-.195-.634-.3-.937.1.3.2.613.3.936A6.463,6.463,0,0,0,593.116,284.5Z" transform="translate(-447.88 -166.043)" fill="#0d3721"/><path d="M579.339,261.775c.193.192.389.39.587.6C579.728,262.165,579.532,261.967,579.339,261.775Z" transform="translate(-441.267 -155.688)" fill="#0d3721"/><path d="M587.5,272.012h0c.057.1.115.19.171.29C587.612,272.2,587.555,272.109,587.5,272.012Z" transform="translate(-445.75 -161.305)" fill="#0d3721"/><path d="M656.781,231.766c1.369-5.157,2.758-10.223,2.3-15.049C659.539,221.543,658.149,226.608,656.781,231.766Z" transform="translate(-483.632 -130.716)" fill="#000300"/><path d="M628.3,180.526l-.005.006c.083.015.166.028.248.044C628.464,180.561,628.384,180.541,628.3,180.526Z" transform="translate(-468.104 -111.178)" fill="#000300"/><path d="M570.23,248.579c.011.084.028.164.043.246-.014-.081-.03-.162-.041-.246Z" transform="translate(-436.292 -148.466)" fill="#000300"/><path d="M571.713,253.11c.03.054.061.108.092.162h0C571.774,253.218,571.743,253.164,571.713,253.11Z" transform="translate(-437.103 -150.95)" fill="#000300"/><path d="M571.932,253.493h0l0,0Z" transform="translate(-437.225 -151.164)" fill="#000300"/><path d="M598.482,291.133h0a2.893,2.893,0,0,1-2.363-.828A2.9,2.9,0,0,0,598.482,291.133Z" transform="translate(-450.404 -171.314)" fill="#000300"/><path d="M585.747,269.256l.052.076h0C585.783,269.305,585.765,269.282,585.747,269.256Z" transform="translate(-444.794 -159.8)" fill="#000300"/><path d="M602.892,291.1a2.553,2.553,0,0,1-1.179.494h0A2.558,2.558,0,0,0,602.892,291.1Z" transform="translate(-453.507 -171.757)" fill="#000300"/><path d="M602.233,211.913c1.8-1.465,6.5-4.665,8.537-4.126,3.364,2.607,3.007,1.612,3.894,3.213l.929,2.151c.342.093.5.757.407,1.1s.342.093,0,0l-.676-1.74a12.143,12.143,0,0,1,.11,6.9,12.579,12.579,0,0,1-2.553,4.958,5.779,5.779,0,0,1,0,.854c.022.188.053.372.08.558,2.33,5.551,6.512,6.409,7.643-4.243a58.312,58.312,0,0,1,1.883-9.557q.146-.557.294-1.112c1.368-5.157,2.758-10.223,2.3-15.049-.035-.37-.079-.738-.137-1.1q-.077-.487-.181-.969a15.924,15.924,0,0,0-1.849-4.734c-.023-.039-.049-.076-.072-.115-.146-.243-.294-.484-.451-.719-.064-.1-.134-.189-.2-.285-.12-.174-.239-.348-.366-.517-.078-.1-.161-.2-.242-.307-.12-.154-.239-.309-.364-.458-.089-.106-.182-.207-.274-.311-.123-.14-.244-.281-.371-.417-.1-.1-.2-.2-.3-.3-.127-.129-.253-.26-.383-.385-.1-.1-.213-.2-.32-.294-.131-.12-.261-.241-.4-.356-.112-.1-.226-.188-.34-.28-.136-.111-.27-.222-.409-.329-.118-.091-.24-.177-.36-.265-.139-.1-.278-.2-.42-.3-.125-.085-.252-.166-.378-.249-.143-.093-.286-.186-.432-.275-.13-.079-.262-.154-.394-.23-.147-.085-.295-.169-.444-.25-.134-.072-.271-.141-.407-.21-.152-.076-.3-.152-.457-.224s-.28-.127-.42-.188-.311-.135-.468-.2-.287-.112-.431-.166-.318-.117-.479-.172-.294-.1-.442-.144-.325-.1-.489-.145-.3-.082-.452-.12-.332-.082-.5-.119q-.227-.051-.457-.1c-.082-.016-.166-.03-.248-.044-5.239,6.117-10.716,17.059-15.292,23.23,2.5,2.055,2.843,3.111,4.621,6.087A29.6,29.6,0,0,1,602.233,211.913Z" transform="translate(-450.514 -110.301)" fill="#6e6464"/><path d="M632.987,285.717c-.027-.186-.057-.371-.08-.558a5.763,5.763,0,0,0,0-.854q-.157.183-.319.357C632.713,285.029,632.846,285.383,632.987,285.717Z" transform="translate(-470.45 -168.013)" fill="#000300"/><path d="M605.013,259.593l-1.037.68q.243.471.487.955A13.456,13.456,0,0,1,605.013,259.593Z" transform="translate(-454.752 -154.469)" fill="#000300"/><path d="M590.151,232.859a74.836,74.836,0,0,1,5.244,8.654l2.911-1.91a10.622,10.622,0,0,1,2.011-2.2,27.919,27.919,0,0,0-6.845-8.3A26.769,26.769,0,0,1,590.151,232.859Z" transform="translate(-446.883 -137.541)" fill="#6e6464"/><path d="M602.187,262.168l0-.01q-.244-.484-.487-.955l-1.661,1.09c.631.654,1.213,1.324,1.761,2A13.4,13.4,0,0,1,602.187,262.168Z" transform="translate(-452.561 -155.317)" fill="#000300"/><path d="M570.645,245.242c.036.094.075.187.115.279s.068.153.1.228c.044.091.088.183.135.272.037.068,1.713-2.395,2.758-3.535a54.144,54.144,0,0,1,10.755,8.038l2.45-1.65A94.581,94.581,0,0,0,580.539,238a21.8,21.8,0,0,1-10.3,5.619C570.248,243.721,570.613,245.161,570.645,245.242Z" transform="translate(-436.859 -143.062)" fill="#6e6464"/><path d="M572.063,249.646c.029.045.06.088.089.133q.166.248.353.487l.046.061c.065.081.132.161.2.24.03.035.058.07.088.1.07.08.141.16.214.24l.086.093c.079.085.16.171.242.257l.043.044c.5.517,1.056,1.041,1.637,1.619.193.192.389.39.587.6l.037.038c.285.3.573.611.861.946l0,.005q.2.233.4.482l.1.128q.153.193.3.395l.126.17q.143.195.284.4c.018.026.036.049.054.076l5.05-3.313a44.13,44.13,0,0,0-8.78-6.394,14.515,14.515,0,0,0-2.159,2.974l0,0C571.976,249.5,572.018,249.575,572.063,249.646Z" transform="translate(-436.894 -147.09)" fill="#6e6464"/><path d="M587.669,267.55l.025.046c.116.209.23.425.343.648.037.073.073.149.109.223.084.171.167.345.248.525.041.091.082.184.123.277q.114.261.224.535c.039.1.079.195.117.295.077.2.151.4.225.613.031.089.063.174.094.264.1.3.2.613.3.937a6.469,6.469,0,0,0,1.35,2.751c.041.046.083.087.125.131.063.066.127.13.192.19a2.893,2.893,0,0,0,2.363.828q.979-1.365,2.027-2.773a7.041,7.041,0,0,1,.3-.758,10.762,10.762,0,0,1-1.275-6.5c-.549-.68-1.131-1.35-1.761-2l-5.3,3.476C587.557,267.356,587.614,267.45,587.669,267.55Z" transform="translate(-445.493 -156.511)" fill="#6e6464"/><path d="M603.572,286.239c.068-.094.133-.194.2-.3a4.69,4.69,0,0,0,.334-.7,5.962,5.962,0,0,0,.253-.854c-.109-.156-.213-.316-.311-.483a7.031,7.031,0,0,0-.3.758q-1.051,1.41-2.027,2.773a2.554,2.554,0,0,0,1.179-.494A3.253,3.253,0,0,0,603.572,286.239Z" transform="translate(-453.46 -167.74)" fill="#000300"/><path d="M534.16,251.444a1.069,1.069,0,0,0,.562,2.063,17.09,17.09,0,0,1,2.3-.465,17.734,17.734,0,0,1,.142-2.162A19.176,19.176,0,0,0,534.16,251.444Z" transform="translate(-415.997 -149.673)"/><path d="M548.942,253.393a1.073,1.073,0,1,0,.587-2.063,18.812,18.812,0,0,0-7.38-.618,17.758,17.758,0,0,0-.142,2.162,16.986,16.986,0,0,1,6.935.52Z" transform="translate(-420.602 -149.509)"/><path d="M497.275,262.329a6.169,6.169,0,0,0-1.706,2.038,1.07,1.07,0,0,0,1.861,1.056c-.087-.923-.135-1.95-.136-3.105Z" transform="translate(-395.269 -155.915)"/><path d="M499.817,262.317h0c0,1.156.049,2.182.136,3.105h0C499.866,264.5,499.818,263.473,499.817,262.317Z" transform="translate(-397.704 -155.927)"/><path d="M501.107,262.454a4.023,4.023,0,0,1,1.567-.739,1.07,1.07,0,1,0-.469-2.089,6.167,6.167,0,0,0-2.389,1.121c0,1.156.049,2.182.136,3.105.014-.022.03-.042.043-.066A4.028,4.028,0,0,1,501.107,262.454Z" transform="translate(-397.624 -154.412)"/><path d="M544.467,282.82a.859.859,0,0,0-.423,1.664,7.751,7.751,0,0,0,3.888-.016c.2-.053.4-.117.595-.186-.426-.465-.841-.939-1.24-1.424A6.028,6.028,0,0,1,544.467,282.82Z" transform="translate(-421.45 -167.171)"/><path d="M556.646,280.237A.856.856,0,1,0,555.459,279a6.03,6.03,0,0,1-2.642,1.48c-.069.019-.14.033-.21.048.4.485.814.959,1.24,1.424A7.744,7.744,0,0,0,556.646,280.237Z" transform="translate(-426.516 -164.932)"/><path d="M508.267,293.713a.691.691,0,0,0,.5.841,6.139,6.139,0,0,0,.66.128c-.258-.507-.517-.977-.775-1.425A.687.687,0,0,0,508.267,293.713Z" transform="translate(-402.298 -172.916)"/><path d="M512.455,292.576a6.25,6.25,0,0,0,2.734-1.533.69.69,0,0,0-.957-.995,4.86,4.86,0,0,1-4.569,1.2.686.686,0,0,0-.455.044c.257.448.516.918.775,1.425A6.25,6.25,0,0,0,512.455,292.576Z" transform="translate(-402.707 -171.014)"/><path d="M498.483,289.472h0a8.587,8.587,0,0,1,.03-5.721,6.27,6.27,0,0,1,1.168-1.937c-.192-.408-.372-.835-.538-1.29a7.391,7.391,0,0,0-1.833,2.769,9.877,9.877,0,0,0-.05,6.581h0a10.521,10.521,0,0,0,1.3,2.618q.478-.468.959-.87A9.317,9.317,0,0,1,498.483,289.472Z" transform="translate(-395.945 -165.666)"/><path d="M502.991,281.813c-.192-.408-.372-.835-.538-1.29h0c.166.454.345.881.538,1.29Z" transform="translate(-399.139 -165.944)"/><path d="M526.743,278.1c0-.026,0-.049,0-.075-.053-.2-.1-.395-.168-.592l-.008-.033-.008-.016a10.734,10.734,0,0,0-.56-1.358,3.392,3.392,0,0,1,2.509-.631l.007.076c.022.225.052.446.088.667a2.871,2.871,0,0,1,.8,1.178l1.481,3.79a9.9,9.9,0,0,0,1.066,1.076,9.67,9.67,0,0,0,1.674,1.158,1.973,1.973,0,0,1,.621.313,9.226,9.226,0,0,0,9.857-1.407q-.447-.458-.912-.914a7.952,7.952,0,0,1-4.361,1.834,8.047,8.047,0,0,1-6.038-1.955,8.924,8.924,0,0,1-1.163-12.181,8.429,8.429,0,0,1,.669-.74q-.262-.647-.47-1.323a9.651,9.651,0,0,0-1.206,1.268,10.047,10.047,0,0,0-2.146,5.863,4.714,4.714,0,0,0-3.119.81,9.549,9.549,0,0,0-2.118-2.294q.129,1.06.348,2.09a9.086,9.086,0,0,1,1.76,3.114h0a9.192,9.192,0,0,1,.474,3.007q.364.683.77,1.339C526.667,280.991,526.724,279.637,526.743,278.1Z" transform="translate(-409.996 -158.107)"/><path d="M505.18,278h0a5.525,5.525,0,0,1,4.727.727,7.768,7.768,0,0,1,1.674,1.46q-.22-1.03-.348-2.09c-.208-.161-.419-.313-.637-.452a6.809,6.809,0,0,0-5.717-.9h-.047l-.087.044a6.264,6.264,0,0,0-2.293,1.389c.166.454.345.881.538,1.29A5.053,5.053,0,0,1,505.18,278Z" transform="translate(-398.941 -163.659)"/><path d="M529.874,301.373c.006-.086.012-.17.017-.257q-.406-.656-.77-1.339a8.215,8.215,0,0,1-.17,1.549h.089C529.318,301.332,529.6,301.349,529.874,301.373Z" transform="translate(-413.649 -176.484)"/><path d="M553.816,263.918c.037-.462.1-.921.18-1.377a9.222,9.222,0,0,0-10.419,1.251q.207.677.47,1.323a7.931,7.931,0,0,1,9.769-1.2Z" transform="translate(-421.402 -155.453)"/><path d="M572.683,295.612A9.943,9.943,0,0,0,574,293.4c-.346-.3-.681-.623-1-.96a8.65,8.65,0,0,1-1.321,2.376,8.356,8.356,0,0,1-1.2,1.227q.465.457.912.914A9.668,9.668,0,0,0,572.683,295.612Z" transform="translate(-436.325 -172.387)"/><path d="M568.977,266.208a8.723,8.723,0,0,1,2.382,3.334.686.686,0,0,0,.03.077,8.986,8.986,0,0,1,.071,6.394c.322.337.658.657,1,.961a10.175,10.175,0,0,0,.789-5.026,10.334,10.334,0,0,0-.5-2.345l3.378-2.217c-.073-.125-.145-.252-.219-.372-.03-.049-.061-.1-.092-.144-.1-.16-.2-.316-.3-.468l-.073-.1-3.192,2.095a9.981,9.981,0,0,0-2.433-3.154A9.677,9.677,0,0,0,568,264c-.081.455-.143.914-.18,1.377A8.454,8.454,0,0,1,568.977,266.208Z" transform="translate(-434.724 -156.607)"/><path d="M586.979,271.133c.074.12.146.248.219.372h0C587.126,271.379,587.053,271.253,586.979,271.133Z" transform="translate(-445.464 -160.821)"/><path d="M585.871,269.436l.073.1-.071-.106Z" transform="translate(-444.862 -159.897)"/><path d="M598.765,260.722l1.661-1.09c-.2-.387-.4-.774-.6-1.148l-2,1.312C598.15,260.1,598.464,260.411,598.765,260.722Z" transform="translate(-451.334 -153.848)"/><path d="M585.945,265.01c.1.152.2.308.3.468.03.048.061.095.092.144.074.12.147.246.22.371l5.3-3.476c-.3-.312-.615-.62-.935-.926l-5.05,3.313C585.9,264.939,585.921,264.975,585.945,265.01Z" transform="translate(-444.679 -155.499)"/><path d="M617.751,256.615a5.855,5.855,0,0,1,.686-.65c-.188-.325-.354-.61-.494-.852h-.735C617.407,255.608,617.584,256.11,617.751,256.615Z" transform="translate(-461.995 -152.018)" fill="#f8b95a"/><path d="M624.769,278.794a4.146,4.146,0,0,1-3.934,1.361c-.064.689-.164,1.38-.29,2.072a14.469,14.469,0,0,1,2.579,1.169,9.129,9.129,0,0,0,2.507-1.917c-.1-.3-.2-.6-.293-.923C625.168,279.963,624.975,279.375,624.769,278.794Z" transform="translate(-463.689 -164.913)" fill="#f8b95a"/><path d="M620.476,287.092c.78.255,1.647.586,2.608,1h0a14.469,14.469,0,0,0-2.579-1.169C620.495,286.978,620.487,287.035,620.476,287.092Z" transform="translate(-463.738 -169.452)" fill="#f8b95a"/><path d="M620.757,289.031a6.8,6.8,0,0,0,2.307-.708c-.961-.413-1.828-.743-2.608-1-.005.03-.009.059-.015.088C620.566,287.948,620.67,288.488,620.757,289.031Z" transform="translate(-463.718 -169.66)" fill="#f8b95a"/><path d="M608.418,261.47c.491,1.029.988,2.1,1.487,3.206a7.436,7.436,0,0,1,1.264-.863,6.828,6.828,0,0,1-.294-3.214c0-.023.007-.046.01-.068a7.915,7.915,0,0,1,.175-.879,7.318,7.318,0,0,1,1.613-3.037c-.167-.505-.344-1.007-.542-1.5h-.367C609.444,256.284,608.633,258.381,608.418,261.47Z" transform="translate(-457.078 -151.831)" fill="#f8b95a"/><path d="M613.2,275.71a7.437,7.437,0,0,0-1.264.863c.339.748.678,1.507,1.021,2.289q.116.594.212,1.184c.209.025.428.06.661.106a5.265,5.265,0,0,1,1.742.293c.127-.691.226-1.382.29-2.072l-.035-.007A3.977,3.977,0,0,1,613.2,275.71Z" transform="translate(-459.017 -163.221)" fill="#f8b95a"/><path d="M618.134,286.689c.011-.057.019-.114.029-.171a5.266,5.266,0,0,0-1.741-.293A15.385,15.385,0,0,1,618.134,286.689Z" transform="translate(-461.547 -169.088)" fill="#f8b95a"/><path d="M615.518,286.081c-.233-.046-.452-.081-.661-.106.011.066.019.132.03.2A2.675,2.675,0,0,1,615.518,286.081Z" transform="translate(-460.726 -168.959)" fill="#f8b95a"/><path d="M614.928,286.319q.147.926.247,1.839l0,.008c.09.029.18.058.272.082a5.736,5.736,0,0,0,2.123.149c-.088-.544-.192-1.083-.316-1.618.006-.03.009-.059.015-.088a15.384,15.384,0,0,0-1.712-.464A2.675,2.675,0,0,0,614.928,286.319Z" transform="translate(-460.698 -169.045)" fill="#f8b95a"/><path d="M608.264,271.846c.4.63.778,1.269,1.117,1.919.14-.138.286-.27.435-.4-.5-1.1-1-2.177-1.487-3.206C608.292,270.7,608.27,271.255,608.264,271.846Z" transform="translate(-457.084 -160.212)" fill="#f8b95a"/><path d="M612.223,281.193q.17.011.354.034-.1-.589-.212-1.184c-.343-.782-.682-1.541-1.021-2.289-.15.126-.3.258-.435.4A23.374,23.374,0,0,1,612.223,281.193Z" transform="translate(-458.529 -164.372)" fill="#f8b95a"/><path d="M614.133,286.218a2.192,2.192,0,0,1,.271-.091c-.011-.066-.019-.132-.03-.2q-.183-.022-.354-.034C614.058,286,614.1,286.11,614.133,286.218Z" transform="translate(-460.277 -168.912)" fill="#f8b95a"/><path d="M614.8,288.284q-.1-.913-.247-1.839a2.188,2.188,0,0,0-.271.091C614.48,287.112,614.658,287.693,614.8,288.284Z" transform="translate(-460.418 -169.174)" fill="#f8b95a"/><path d="M615.516,290.806l0-.008v.008Z" transform="translate(-461.107 -171.606)" fill="#f8b95a"/><path d="M608.311,277.3c0,.03,0,.058-.005.088a7.6,7.6,0,0,1,1.072-1.319c-.338-.651-.714-1.289-1.117-1.919C608.25,275.116,608.273,276.164,608.311,277.3Z" transform="translate(-457.095 -162.402)" fill="#f8b95a"/><path d="M607.968,281.376a7.151,7.151,0,0,0,.673.829,2.39,2.39,0,0,1,1.883-.472,23.378,23.378,0,0,0-1.315-3.043,7.609,7.609,0,0,0-1.072,1.319A7.932,7.932,0,0,1,607.968,281.376Z" transform="translate(-456.888 -164.884)" fill="#f8b95a"/><path d="M609.562,286.351a6.324,6.324,0,0,0,.977.844,2.023,2.023,0,0,1,1.019-.993c-.036-.108-.075-.215-.113-.323A2.39,2.39,0,0,0,609.562,286.351Z" transform="translate(-457.78 -168.871)" fill="#f8b95a"/><path d="M611.875,287.653a5.72,5.72,0,0,0,1.538.762v-.008c-.147-.591-.325-1.172-.518-1.748A2.023,2.023,0,0,0,611.875,287.653Z" transform="translate(-459.063 -169.294)" fill="#f8b95a"/><path d="M630.546,278.793h0c.205.581.4,1.169.569,1.762.091.318.19.624.293.922h0c-.1-.3-.2-.6-.293-.922C630.945,279.963,630.751,279.375,630.546,278.793Z" transform="translate(-469.315 -164.961)" fill="#f8b95a"/><path d="M628.5,255.113c2.286.674,3.471,3.684,2.649,6.788a7.363,7.363,0,0,1-1.533,2.948,4.848,4.848,0,0,1,.931,2.594,12.577,12.577,0,0,0,2.553-4.958,12.141,12.141,0,0,0-.11-6.9l-1.725-.471Z" transform="translate(-468.045 -151.764)" fill="#f8b95a"/><path d="M623.09,247.75a.641.641,0,0,1,.226.041l.762.208a6.357,6.357,0,0,0-3.894-3.213,6.711,6.711,0,0,0-5.966,1.567c.247.46.482.925.7,1.4Z" transform="translate(-460.058 -146.215)" fill="#f8b95a"/><path d="M621.064,255.113h-2.116c.139.242.305.528.494.852A4.614,4.614,0,0,1,621.064,255.113Z" transform="translate(-462.918 -152.032)" fill="#f8b95a"/><path d="M630.547,278.43c.2.582.4,1.17.568,1.763.092.318.191.624.293.922q.163-.174.319-.357a4.848,4.848,0,0,0-.931-2.594C630.716,278.257,630.631,278.344,630.547,278.43Z" transform="translate(-469.305 -164.61)" fill="#f8b95a"/><path d="M606.518,261.47c.215-3.089,1.026-5.187,3.346-6.357h-1.3l-2.884,1.892a13.459,13.459,0,0,0-.55,1.635C605.588,259.552,606.05,260.491,606.518,261.47Z" transform="translate(-455.26 -151.906)" fill="#f8b95a"/><path d="M609.456,250.955l1.062-.7a.641.641,0,0,1,.353-.105h1.3c-.219-.472-.455-.938-.7-1.4A10.624,10.624,0,0,0,609.456,250.955Z" transform="translate(-457.698 -148.519)" fill="#f8b95a"/><path d="M605.989,266.294c-.468-.98-.93-1.918-1.39-2.83l0,.01a13.385,13.385,0,0,0-.383,2.129,26.9,26.9,0,0,1,1.711,2.373C605.93,267.385,605.952,266.826,605.989,266.294Z" transform="translate(-454.857 -156.522)" fill="#f8b95a"/><path d="M605.891,274.052c-.038-1.132-.061-2.18-.05-3.15a26.9,26.9,0,0,0-1.711-2.373,10.763,10.763,0,0,0,1.275,6.5,7.249,7.249,0,0,1,.481-.884C605.887,274.11,605.891,274.082,605.891,274.052Z" transform="translate(-454.777 -159.246)" fill="#f8b95a"/><path d="M607.712,281.813a7.233,7.233,0,0,0-.481.884c.1.166.2.327.311.483A7.926,7.926,0,0,0,607.712,281.813Z" transform="translate(-456.553 -166.649)" fill="#f8b95a"/><path d="M617.859,254.59c-.082-.142-.155-.272-.217-.383-.2.073-.393.155-.579.238.02.049.042.1.062.144Z" transform="translate(-461.93 -151.546)" fill="#f8b95a"/><path d="M616.706,254.915c-.019-.049-.042-.1-.062-.144-.1.046-.207.095-.306.144Z" transform="translate(-461.548 -151.861)" fill="#f8b95a"/><path d="M624.05,252.063h-8.171c.176.378.343.759.5,1.144.187-.083.375-.166.58-.238.061.111.135.241.217.383h2.116a3.45,3.45,0,0,1,1.831-.029c.03.008.057.021.087.029h2.764l1.725.471a9.027,9.027,0,0,0-.661-1.51l-.762-.208A.64.64,0,0,0,624.05,252.063Z" transform="translate(-460.968 -150.341)" fill="#f8b95a"/><path d="M609.314,253.351h1.3c.1-.05.2-.1.306-.144-.157-.385-.324-.766-.5-1.144h-1.3a.641.641,0,0,0-.353.105l-1.062.7a12.519,12.519,0,0,0-1.278,2.378Z" transform="translate(-455.981 -150.309)" fill="#f8b95a"/><path d="M619.963,258.507l-.227-.4-.217-.381c-.12-.21-.233-.405-.34-.59a5.854,5.854,0,0,0-.686.65c.1.3.193.6.28.9A2.124,2.124,0,0,1,619.963,258.507Z" transform="translate(-462.691 -153.122)" fill="#e36800"/><path d="M624.991,269.348a4.293,4.293,0,0,1-.9,1.73,4.633,4.633,0,0,1,2.392,1.115c-.435-1.134-.915-2.229-1.4-3.251C625.054,269.076,625.027,269.211,624.991,269.348Z" transform="translate(-465.724 -159.552)" fill="#e36800"/><path d="M622.438,274a3.084,3.084,0,0,1-1.112.823,23.6,23.6,0,0,1-.095,2.563,4.146,4.146,0,0,0,3.934-1.361q-.162-.459-.335-.911A4.632,4.632,0,0,0,622.438,274Z" transform="translate(-464.106 -162.315)" fill="#e36800"/><path d="M614.139,268.1a6.828,6.828,0,0,0,.294,3.214c.182-.1.368-.187.557-.268A3.4,3.4,0,0,1,614.139,268.1Z" transform="translate(-460.285 -159.093)" fill="#e36800"/><path d="M614.259,262.585a4.672,4.672,0,0,1,.1-.484,3.78,3.78,0,0,1,1.97-2.533c-.087-.3-.182-.6-.28-.9a7.317,7.317,0,0,0-1.613,3.037A7.945,7.945,0,0,0,614.259,262.585Z" transform="translate(-460.351 -153.91)" fill="#e36800"/><path d="M616.344,275.557a2,2,0,0,1-.855-.482c-.189.081-.375.17-.557.268A3.977,3.977,0,0,0,617.558,278l.035.007a23.6,23.6,0,0,0,.095-2.563A2.078,2.078,0,0,1,616.344,275.557Z" transform="translate(-460.695 -162.919)" fill="#e36800"/><path d="M627.833,272.192h0c-.435-1.134-.914-2.229-1.4-3.251h0C626.918,269.964,627.4,271.058,627.833,272.192Z" transform="translate(-467.041 -159.551)" fill="#e36800"/><path d="M621.663,259.835l-.227-.4.227.4Z" transform="translate(-464.345 -154.409)" fill="#e36800"/><path d="M629.752,276.638q.173.452.335.911h0q-.162-.459-.336-.91Z" transform="translate(-468.899 -163.825)" fill="#e36800"/><path d="M620.457,256.555l.217.381.227.4c.066.011.133.021.2.038,1.267.336,1.972,1.889,1.684,3.574.489,1.023.968,2.117,1.4,3.251a4.465,4.465,0,0,1,.586.645,7.362,7.362,0,0,0,1.533-2.948c.822-3.1-.363-6.114-2.649-6.788h-1.918a4.614,4.614,0,0,0-1.622.852C620.224,256.15,620.337,256.346,620.457,256.555Z" transform="translate(-463.407 -151.827)" fill="#e36800"/><path d="M629.752,276.638q.174.452.336.91c.085-.086.169-.173.25-.266A4.467,4.467,0,0,0,629.752,276.638Z" transform="translate(-468.89 -163.825)" fill="#e36800"/><path d="M625.789,254.894a3.45,3.45,0,0,0-1.831.029h1.918C625.847,254.914,625.819,254.9,625.789,254.894Z" transform="translate(-465.669 -151.868)" fill="#e36800"/><path d="M622.229,263.97c-.649-1.358-1.307-2.585-1.882-3.613a2.124,2.124,0,0,0-1.19.173,24.475,24.475,0,0,1,.943,5.516c.141-.007.283-.014.424-.011a5.318,5.318,0,0,1,.716.071,4.293,4.293,0,0,0,.9-1.73C622.178,264.239,622.206,264.1,622.229,263.97Z" transform="translate(-462.999 -154.778)" fill="#a62000"/><path d="M621.389,273.841c.016.294.023.588.028.883a3.083,3.083,0,0,0,1.112-.823,5.318,5.318,0,0,0-.716-.071C621.672,273.827,621.53,273.833,621.389,273.841Z" transform="translate(-464.288 -162.286)" fill="#a62000"/><path d="M616.257,260.8a3.781,3.781,0,0,0-1.97,2.533,4.657,4.657,0,0,0-.1.484c0,.023-.007.046-.01.068a3.4,3.4,0,0,0,.851,2.945,6.319,6.319,0,0,1,2.171-.515A24.472,24.472,0,0,0,616.257,260.8Z" transform="translate(-460.25 -155.025)" fill="#a62000"/><path d="M616.25,274.371a2,2,0,0,0,.855.482,2.078,2.078,0,0,0,1.344-.114c-.005-.3-.013-.59-.028-.883A6.319,6.319,0,0,0,616.25,274.371Z" transform="translate(-461.437 -162.297)" fill="#a62000"/><path d="M623.856,264h0c-.649-1.357-1.307-2.585-1.882-3.613h0C622.549,261.416,623.207,262.644,623.856,264Z" transform="translate(-464.583 -154.859)" fill="#a62000"/><path d="M622.172,260.426a2.016,2.016,0,0,0-.2-.038c.575,1.028,1.233,2.256,1.882,3.613C624.145,262.315,623.44,260.762,622.172,260.426Z" transform="translate(-464.581 -154.859)" fill="#a62000"/><path d="M531.745,294.668a16.727,16.727,0,0,1,2.739.531.825.825,0,0,1,.748.225,20.321,20.321,0,0,1,2,.775l-.009-.009c.844.172,1.675.381,2.5.608a1.829,1.829,0,0,0-.684-.941c-.211-.1-.418-.2-.621-.313a1.981,1.981,0,0,0-1.749.3l-.992-2.537a10.117,10.117,0,0,1-2.281-4.968c-.865-.68-1.807.105-1.859,1.887A10.1,10.1,0,0,1,531.745,294.668Z" transform="translate(-414.878 -169.899)" fill="#e36800"/><path d="M547.5,307.862c-.825-.227-1.657-.437-2.5-.608l.009.009a24.23,24.23,0,0,1,2.6,1.361A2,2,0,0,0,547.5,307.862Z" transform="translate(-422.397 -180.587)" fill="#e36800"/><path d="M536.742,289.854a2.871,2.871,0,0,0-.8-1.178,10.118,10.118,0,0,0,2.281,4.968Z" transform="translate(-417.444 -170.314)" fill="#e36800"/><path d="M547.83,305.726c.2.111.41.216.621.313A1.973,1.973,0,0,0,547.83,305.726Z" transform="translate(-424.001 -179.778)" fill="#e36800"/><path d="M531.535,297.581a10.1,10.1,0,0,0-.2-4.437c0,.026,0,.049,0,.075-.019,1.541-.075,2.9-.15,4.066.057.091.112.184.169.275C531.409,297.566,531.472,297.574,531.535,297.581Z" transform="translate(-414.878 -172.775)" fill="#e36800"/><path d="M531.152,302.947c-.005.087-.011.172-.017.257l.187.018C531.264,303.131,531.209,303.038,531.152,302.947Z" transform="translate(-414.864 -178.257)" fill="#e36800"/><path d="M14.669,59.7c4.8-10.99-15.636-17.984,11.512-17.126A46.066,46.066,0,0,1,29.092,8.584a19.811,19.811,0,0,1,.164-4.413,9.344,9.344,0,0,1-3.407-1.231A10.832,10.832,0,0,1,22.657,0C13.3,8.55,4.552,31.515,1.7,38.627c-4.463,11.106.555,9.8,7.293,15.176a28.232,28.232,0,0,1,5.439,5.958c.089-.021.185-.041.276-.061Z" transform="matrix(1, -0.017, 0.017, 1, 81.398, 126.248)" fill="#fcfcfc"/><path d="M508.814,305.532c-.18-.545-.359-1.1-.535-1.662-.215-.672-.436-1.288-.663-1.861a7.787,7.787,0,0,0-4.28,2.024,8.072,8.072,0,0,0,2.4,2.423,6.157,6.157,0,0,0,2.422.918,8.456,8.456,0,0,1,.677-1.769Z" transform="translate(-399.509 -177.603)" fill="#fcfcfc"/><path d="M488.424,436.967a100.893,100.893,0,0,1,18.819.875l.014,0,.28.044q2.349.337,4.68.784c.732-.773,1.34-1.449,1.785-1.962a72.949,72.949,0,0,0-7.205-1.6l-.4.3q-2.026,1.391-3.183.212c-.312-.373-.613-.751-.912-1.131a72.208,72.208,0,0,0-17.312.193c-.076.018-.157.035-.231.055a46.564,46.564,0,0,1,2.658,4.695Q487.869,438.184,488.424,436.967Z" transform="translate(-387.806 -253.809)" fill="#fcfcfc"/><path d="M504.993,451.539a21.5,21.5,0,0,0-3.064-8.012l8.948-1.854a100.9,100.9,0,0,0-18.819-.875q-.557,1.215-1.007,2.457c1.192,2.391,2.187,4.736,3.1,6.7C496.33,454.674,500.618,454.037,504.993,451.539Z" transform="translate(-391.472 -258.099)" fill="#fcfcfc"/><path d="M543.363,443.9q-2.332-.447-4.68-.784,2.587.4,4.678.786Z" transform="translate(-418.882 -255.045)" fill="#fcfcfc"/><path d="M538,443.016l-.013,0,.293.041Z" transform="translate(-418.617 -255.019)" fill="#fcfcfc"/><path d="M519.868,452.889a52.608,52.608,0,0,0,10.856-9.04q-2.09-.388-4.678-.786l-.293-.041-8.948,1.854A21.5,21.5,0,0,1,519.868,452.889Z" transform="translate(-409.606 -259.505)" fill="#fcfcfc"/><path d="M497.914,412.465a43.835,43.835,0,0,1-6.369-13.355c-22.724-.769-5.617,5.5-9.636,15.347l.029,0c.144-.035.286-.07.437-.1A34.774,34.774,0,0,1,497.914,412.465Z" transform="translate(-387.143 -232.292)" fill="#fcfcfc"/><path d="M485.743,432.429c-.151.032-.293.067-.437.1a72.208,72.208,0,0,1,17.312-.193q-.693-.884-1.336-1.8A34.774,34.774,0,0,0,485.743,432.429Z" transform="translate(-390.354 -250.926)" fill="#fcfcfc"/><path d="M516.3,310.349l.024.073h0Z" transform="translate(-406.742 -182.318)" fill="#fcfcfc"/><path d="M517.5,303a23.64,23.64,0,0,0-2.358-.841,4.658,4.658,0,0,0-1.675-.17c.226.572.448,1.188.663,1.861.176.566.355,1.117.535,1.662l.024.073A5.3,5.3,0,0,1,517.5,303Z" transform="translate(-405.092 -177.633)" fill="#fcfcfc"/><path d="M503.738,310.305a7.5,7.5,0,0,0,2.852,1.1,12,12,0,0,1,.26-1.267,6.156,6.156,0,0,1-2.422-.918,8.07,8.07,0,0,1-2.4-2.423q-.48.4-.959.87A9.334,9.334,0,0,0,503.738,310.305Z" transform="translate(-398.26 -180.247)" fill="#fcfcfc"/><path d="M473.554,221.212a13.378,13.378,0,0,1-.2-1.395A13.378,13.378,0,0,0,473.554,221.212Z" transform="translate(-383.204 -132.683)" fill="#4aa676"/><path d="M514.078,186.576q-.744.485-1.494.995.751-.509,1.494-.992Z" transform="translate(-404.668 -114.478)" fill="#4aa676"/><path d="M492.686,191.228a4.969,4.969,0,0,0,2.084,1.753,4.968,4.968,0,0,1-2.083-1.753,2.284,2.284,0,0,0-1.71-.886A2.283,2.283,0,0,1,492.686,191.228Z" transform="translate(-392.78 -116.515)" fill="#4aa676"/><path d="M474.972,227.4a13.4,13.4,0,0,0,9,8.518A13.4,13.4,0,0,1,474.972,227.4Z" transform="translate(-383.909 -136.695)" fill="#4aa676"/><path d="M500.4,248.356l.06.006h0Z" transform="translate(-398.024 -148.349)" fill="#4aa676"/><path d="M500.539,248.369h0Z" transform="translate(-398.102 -148.356)" fill="#4aa676"/><path d="M544.39,229.313l-.008.006.09-.042Z" transform="translate(-422.126 -137.893)" fill="#4aa676"/><path d="M545.375,228.583h0c-.2.082-.4.169-.593.258C544.979,228.752,545.176,228.665,545.375,228.583Z" transform="translate(-422.332 -137.508)" fill="#4aa676"/><path d="M543.276,229.588q.233-.113.467-.22l.008-.006C543.592,229.435,543.434,229.512,543.276,229.588Z" transform="translate(-421.51 -137.936)" fill="#4aa676"/><path d="M500.539,248.37h0c.124.012.249.026.372.034C500.788,248.4,500.663,248.382,500.539,248.37Z" transform="translate(-398.094 -148.356)" fill="#4aa676"/><path d="M523.906,238.079c-1.3.808-2.59,1.6-3.9,2.289C521.316,239.682,522.611,238.888,523.906,238.079Z" transform="translate(-408.677 -142.669)" fill="#4aa676"/><path d="M484.885,211.49c.36-.626.746-1.23,1.151-1.818.044-.064.084-.13.129-.193.154-.219.315-.431.475-.645.076-.1.149-.207.226-.307.151-.2.308-.384.464-.574.092-.113.181-.229.275-.34.152-.18.311-.353.468-.528.1-.116.2-.234.308-.348.155-.167.316-.327.474-.49.113-.115.222-.234.337-.347.16-.158.325-.309.489-.462.118-.111.234-.226.355-.335.166-.15.337-.293.507-.438.123-.106.244-.215.369-.318.172-.142.349-.277.524-.415.128-.1.253-.2.382-.3.182-.138.369-.268.555-.4.127-.091.251-.185.379-.274.191-.132.387-.257.582-.384.127-.083.251-.169.38-.25.2-.126.405-.245.609-.365.126-.074.25-.152.377-.225.211-.12.426-.233.639-.348.124-.066.245-.136.37-.2.221-.114.446-.22.669-.328.121-.058.241-.12.363-.177.191-.088.384-.17.577-.253a15.737,15.737,0,0,1-6.035-12.4c0-.487.023-.969.067-1.445q-.744.485-1.494.992c-.185.125-.37.255-.555.382q-.623.428-1.251.872c-.185.131-.37.262-.556.4-.582.417-1.166.841-1.754,1.28a1.189,1.189,0,0,1-.653.354,1.112,1.112,0,0,1-.181.014,1.342,1.342,0,0,1-.384-.062,4.969,4.969,0,0,1-2.084-1.753,2.283,2.283,0,0,0-1.71-.886,3.008,3.008,0,0,0-.8.08,5.634,5.634,0,0,0-1.527.632,13.384,13.384,0,0,0-2.618,2.71q-.371.512-.69,1.054a13.407,13.407,0,0,0-1.775,5.32q-.07.627-.081,1.263a13.423,13.423,0,0,0,.246,2.786,13.394,13.394,0,0,0,9.486,10.328q.367.1.73.179c.081.017.161.027.241.042.161.03.322.06.482.081.1.013.19.02.285.03l.06.005C484.8,212.292,484.843,211.9,484.885,211.49Z" transform="translate(-382.63 -114.05)" fill="#6e6464"/><path d="M544.561,228.451c.2-.089.395-.176.593-.258.022-.1.048-.19.071-.285q-.419.3-.825.614l.082-.036Z" transform="translate(-422.116 -137.131)" fill="#4aa676"/><path d="M501.807,241.248c-.405.587-.792,1.191-1.151,1.818-.043.408-.081.8-.117,1.19h0c.036-.388.074-.782.117-1.191C501.016,242.439,501.4,241.835,501.807,241.248Z" transform="translate(-398.074 -144.39)" fill="#4aa676"/><path d="M529.463,219.365c-.192.084-.386.165-.577.253.19-.088.384-.169.577-.253Z" transform="translate(-413.622 -132.457)" fill="#4aa676"/><path d="M501.31,233.225c.157.005.315.011.471.01.118,0,.234-.006.351-.01.153-.005.306-.011.458-.022.118-.008.235-.02.353-.032.151-.015.3-.03.451-.05.117-.016.234-.034.351-.053.15-.024.3-.049.448-.078.116-.022.231-.046.347-.071q.225-.049.449-.1c.114-.028.227-.057.34-.088q.227-.061.453-.129c.11-.033.221-.067.33-.1.154-.05.308-.1.461-.156.106-.037.211-.074.317-.113.159-.059.318-.12.477-.183.1-.039.2-.078.3-.119.168-.069.336-.141.5-.215.089-.039.177-.076.265-.116.183-.083.367-.169.549-.256l.217-.1q.326-.159.65-.326l.11-.055c1.5-.774,2.979-1.669,4.463-2.58,1.226-.753,2.452-1.517,3.686-2.235l.055-.032q.334-.194.669-.382l.106-.06c.211-.118.423-.235.636-.349l.131-.07c.207-.111.415-.22.622-.327l.137-.07c.207-.105.415-.209.623-.309l.129-.061c.181-.086.362-.173.544-.255q.465-.356.945-.692c.046-.186.089-.372.14-.555a18.136,18.136,0,0,1-7.931-3.512c-.221.095-.443.186-.661.286-.14.063-.277.133-.416.2-.256.121-.513.241-.766.369-.143.072-.282.151-.424.225-.245.13-.491.257-.733.392-.146.082-.288.17-.432.254-.233.136-.468.27-.7.412-.147.091-.29.188-.435.281-.223.143-.447.284-.666.432-.147.1-.289.206-.435.309-.212.149-.426.3-.635.452-.148.11-.291.227-.437.34-.2.155-.4.308-.6.468-.143.117-.282.239-.423.359-.194.164-.391.325-.581.494-.138.123-.271.252-.406.377-.188.173-.377.343-.56.521-.132.128-.257.261-.386.391-.182.183-.366.364-.543.552-.121.128-.235.261-.353.392-.18.2-.361.392-.536.595-.108.125-.21.256-.315.383-.179.214-.359.427-.532.647-.089.113-.172.231-.259.346-.183.24-.368.48-.544.726-.051.071-.1.145-.148.217-.464.661-.906,1.343-1.319,2.049-.049.46-.093.9-.134,1.342.142.014.285.03.427.039C501.081,233.22,501.2,233.221,501.31,233.225Z" transform="translate(-398.516 -134.764)" fill="#6e6464"/><path d="M518.1,358.469c-4.309-6.644-8.319-16.123-9.641-29.014-.115-.836-.193-1.629-.237-2.383a43.942,43.942,0,0,0-2.436,30.465c1.848.063,3.955.171,6.364.328C514.587,358.024,516.538,358.222,518.1,358.469Z" transform="translate(-398.761 -190.454)" fill="#fcfcfc"/><path d="M526.288,416.571l5.034-3.244c-3.708-3.636-6.878-5.822-3.273-9.028-1.1-1.224-2.2-2.558-3.293-4.009-2.121-.289-4.768-.521-8.073-.708-3.268-.184-6.126-.311-8.634-.384a48.612,48.612,0,0,0,8.64,15.633A57.4,57.4,0,0,1,526.288,416.571Z" transform="translate(-404.795 -232.397)" fill="#fcfcfc"/><path d="M544.872,358.722q-.217-.13-.433-.269t-.432-.286q-.221-.15-.441-.309c-.111-.08-.222-.161-.332-.244-.191-.144-.381-.292-.57-.446-.111-.09-.222-.184-.332-.277-.134-.113-.267-.23-.4-.348q-.232-.206-.463-.422-.2-.187-.4-.381c-.109-.106-.217-.213-.325-.323-.076-.076-.15-.156-.226-.235q.076,1.959.21,3.845a.823.823,0,0,1,.033.475c.226,3.023.552,5.893.939,8.575.581-2.927,2.258-5.511,3.38-9.224C545.012,358.811,544.942,358.765,544.872,358.722Z" transform="translate(-419.89 -206.454)" fill="#fcc36f"/><path d="M546.809,405.284c.027.125.054.251.08.375l.08-.057Q546.887,405.442,546.809,405.284Z" transform="translate(-423.454 -234.33)" fill="#fcc36f"/><path d="M586.6,364.149a64.982,64.982,0,0,1,3.416,8.377l1.472-1.612q-3.689-3.5-3.958-6.486-.462-.141-.882-.3Z" transform="translate(-445.11 -211.503)" fill="#fcfcfc"/><path d="M594.686,381.813c.054.166.109.332.162.5a7.238,7.238,0,0,1,3.581,0c-.016-.067-.03-.133-.047-.2q-1.234-.974-2.223-1.912Z" transform="translate(-449.575 -220.525)" fill="#fcc36f"/><path d="M588.8,364.846q.271,2.987,3.958,6.486l1.224-1.339c-.539-1.513-1.171-3.021-1.854-4.484A18.8,18.8,0,0,1,588.8,364.846Z" transform="translate(-446.307 -211.965)" fill="#fcc36f"/><path d="M600.394,380.281c-.273-1.075-.612-2.163-1-3.251l-1.224,1.339Q599.159,379.307,600.394,380.281Z" transform="translate(-451.533 -218.748)" fill="#fcc36f"/><path d="M587.58,362.966q-.43.257-.866.489.419.164.882.3A5.149,5.149,0,0,1,587.58,362.966Z" transform="translate(-445.299 -211.128)" fill="#fcc36f"/><path d="M588.753,361.156a5.157,5.157,0,0,0,.015.794,18.8,18.8,0,0,0,3.328.662c-.443-.95-.906-1.881-1.378-2.78A22.009,22.009,0,0,1,588.753,361.156Z" transform="translate(-446.333 -209.345)" fill="#fcc36f"/><path d="M540.519,355.177v0c.075.079.15.158.226.235C540.669,355.337,540.594,355.255,540.519,355.177Z" transform="translate(-420.005 -206.878)" fill="#fcc36f"/><path d="M548.213,312.875c-.019.027-.032.057-.052.083l-1.515.21q1.844,2.407,3.35,4.505.581.81,1.116,1.581c.634-.618,1.514-.529,2.574.686a64.9,64.9,0,0,1,4.326,5.4q.264-.777.574-1.582Z" transform="translate(-423.036 -183.34)" fill="#fcc36f"/><path d="M541.586,314.223l.162.1c-.017.152-.033.3-.049.454q.729.641,1.508,1.222-.668-.886-1.379-1.807Z" transform="translate(-420.553 -184.374)" fill="#fcc36f"/><path d="M573.555,340.234q.8,1.12,1.555,2.272a12.871,12.871,0,0,1,.592-2.2l-1.573-1.651Q573.818,339.458,573.555,340.234Z" transform="translate(-438.051 -197.711)" fill="#fcc36f"/><path d="M586.607,364.078c-.027-.011-.052-.023-.078-.034l.03.059Z" transform="translate(-445.222 -211.743)" fill="#fcc36f"/><path d="M577.95,343.085c.052-.082.1-.161.147-.242l-.269-.283a12.866,12.866,0,0,0-.592,2.2,65.008,65.008,0,0,1,3.925,6.871c.027.011.051.023.078.034q.436-.232.866-.489a5.4,5.4,0,0,1,1.116-2.889l-.091-.161c-.362.361-.731.72-1.112,1.076Z" transform="translate(-439.95 -199.682)" fill="#fcc36f"/><path d="M590.73,357.692q-.421-.8-.849-1.565a5.4,5.4,0,0,0-1.116,2.889A22.015,22.015,0,0,0,590.73,357.692Z" transform="translate(-446.389 -207.312)" fill="#fcc36f"/><path d="M550.825,363.565c.07.042.14.089.21.13v0Z" transform="translate(-425.653 -211.478)" fill="#fcc36f"/><path d="M545.928,330.947c.272-3.14.207-5.915.593-8q.04-.214.089-.413-.764-1.117-1.631-2.327-1.172-1.633-2.511-3.407-.779-.58-1.508-1.222-.386,3.535-.536,6.949,2.1,3.233,4.355,6.825a.83.83,0,0,1-1.407.879q-1.533-2.446-3.043-4.792c-.046,2.349-.019,4.641.068,6.866.075.078.15.16.226.237.108.11.217.217.325.323q.2.195.4.381.231.217.463.422c.133.118.267.235.4.348.111.093.221.187.333.277q.284.231.57.446c.11.083.221.164.332.244q.22.159.441.309t.432.286q.216.139.433.269l.211.126A24.454,24.454,0,0,0,545.928,330.947Z" transform="translate(-419.726 -184.566)" fill="#fcc36f"/><path d="M530.73,307.791c-.014.034-.03.067-.044.1l.033.017Z" transform="translate(-414.622 -180.915)" fill="#fcc36f"/><path d="M525.192,304.606a7.49,7.49,0,0,0,.332-1.165,6.6,6.6,0,0,0-2.506.4c.675.278,1.375.6,2.09.951C525.135,304.732,525.167,304.671,525.192,304.606Z" transform="translate(-410.359 -178.497)" fill="#fcc36f"/><path d="M579.074,343.23c-.05.081-.1.16-.147.242l4.068,6.12c.381-.356.75-.715,1.112-1.076l0-.006Z" transform="translate(-440.901 -200.137)" fill="#fcfcfc"/><path d="M561.515,320.48A42.141,42.141,0,0,0,550.7,310.5a1.971,1.971,0,0,1-.344,1l10.372,10.888Q561.089,321.455,561.515,320.48Z" transform="translate(-425.088 -182.059)" fill="#fcfcfc"/><path d="M575.7,334.129q-.424.974-.786,1.91l1.573,1.651c.188-.523.42-1.07.683-1.633Q576.453,335.081,575.7,334.129Z" transform="translate(-438.792 -195.243)" fill="#fcc36f"/><path d="M578.637,340.328l.269.283q.439-.712.792-1.393c-.125-.174-.251-.349-.378-.522C579.057,339.258,578.825,339.8,578.637,340.328Z" transform="translate(-440.868 -197.795)" fill="#fcc36f"/><path d="M584.3,346.6c-.58-1.032-1.159-2.012-1.718-2.908-.788-1.263-1.63-2.525-2.52-3.765q-.351.68-.792,1.393Z" transform="translate(-441.096 -198.322)" fill="#fcc36f"/><path d="M527.967,304.8q.566.276,1.148.582c.014-.034.03-.067.044-.1.052-.535.1-1.129.146-1.789-.277-.023-.555-.04-.834-.048h-.089a7.479,7.479,0,0,1-.332,1.165C528.025,304.673,527.994,304.734,527.967,304.8Z" transform="translate(-413.099 -178.483)" fill="#fcc36f"/><path d="M536.245,308.1q-.977-1.266-2.028-2.6a.824.824,0,0,1,.487-1.325,16.729,16.729,0,0,0-2.739-.531c-.012.067-.03.132-.044.2a23.756,23.756,0,0,0,2.8,3.512c.421.25.849.511,1.28.776Z" transform="translate(-415.188 -178.525)" fill="#fcc36f"/><path d="M542.969,308.874l1.515-.21c.02-.027.034-.056.052-.083l-2.253-2.365a20.329,20.329,0,0,0-2-.776.84.84,0,0,1,.068.071Q541.737,307.263,542.969,308.874Z" transform="translate(-419.768 -179.535)" fill="#fcc36f"/><path d="M534.055,307.63a23.759,23.759,0,0,1-2.8-3.512,8.721,8.721,0,0,1-.384,1.337c-.028.074-.063.142-.093.214l-.011.117Q532.351,306.618,534.055,307.63Z" transform="translate(-414.581 -178.809)" fill="#fcc36f"/><path d="M547.619,308.637a24.224,24.224,0,0,0-2.6-1.361l2.253,2.365A1.971,1.971,0,0,0,547.619,308.637Z" transform="translate(-422.409 -180.571)" fill="#fcc36f"/><path d="M531.577,303.6c.047.074.1.146.145.22.014-.066.032-.131.044-.2C531.7,303.613,531.64,303.6,531.577,303.6Z" transform="translate(-415.106 -178.615)" fill="#fcc36f"/><path d="M531.267,303.793c-.048-.074-.1-.146-.145-.22l-.187-.018c-.044.659-.094,1.254-.146,1.789.03-.072.065-.141.093-.214A8.723,8.723,0,0,0,531.267,303.793Z" transform="translate(-414.668 -178.549)" fill="#fcc36f"/><path d="M514.089,318.863a.831.831,0,0,1,.357-1.093c-.183-.013-.367-.032-.549-.06a19,19,0,0,0-.137,3.954q.4-.871.848-1.729Z" transform="translate(-405.304 -186.24)" fill="#fcfcfc"/><path d="M516.048,312.312q-.25-.7-.495-1.434c-.035-.1-.069-.208-.1-.313l-.014-.044a8.453,8.453,0,0,0-.677,1.769A5.131,5.131,0,0,0,516.048,312.312Z" transform="translate(-405.864 -182.364)" fill="#fcc36f"/><path d="M517.681,318.136q3.253,6.739,5.617,11.442,2.4,4.766,4,7.7a.829.829,0,0,1,.044.1q-.133-1.885-.21-3.845c-.112-.117-.224-.233-.335-.354s-.21-.231-.315-.349q-.221-.248-.441-.506-.2-.231-.393-.471c-.141-.172-.281-.347-.421-.526-.093-.12-.187-.238-.281-.361-.191-.251-.381-.511-.571-.775-.091-.126-.181-.255-.271-.384-.188-.269-.375-.543-.561-.825-.079-.119-.157-.242-.235-.363q-.236-.367-.47-.747c-.072-.117-.144-.231-.215-.35-.2-.327-.392-.663-.585-1.006q-.108-.19-.215-.383c-.2-.356-.395-.719-.59-1.091-.055-.106-.111-.215-.166-.323q-.264-.513-.524-1.045c-.045-.092-.09-.181-.134-.274-.2-.416-.4-.844-.6-1.279-.054-.119-.108-.238-.161-.358q-.3-.663-.586-1.355c-.042-.1-.084-.2-.126-.306-.189-.458-.377-.923-.563-1.4-.02-.051-.04-.1-.059-.15-.108-.279-.215-.563-.322-.849a6.089,6.089,0,0,1-.653.07A.828.828,0,0,1,517.681,318.136Z" transform="translate(-407.063 -185.751)" fill="#fcc36f"/><path d="M533.148,361.123c-.387-2.683-.713-5.552-.939-8.575a.828.828,0,0,1-1.537.215q-1.6-2.925-4.025-7.748c-.3-.6-.617-1.231-.936-1.872l7.832,25.277q.407.132.748.276A11.878,11.878,0,0,1,533.148,361.123Z" transform="translate(-411.679 -199.426)" fill="#fcc36f"/><path d="M539.725,354.344c.112.12.223.237.335.354v0C539.948,354.579,539.837,354.464,539.725,354.344Z" transform="translate(-419.568 -206.418)" fill="#fcc36f"/><path d="M516.361,310.521l.014.044-.014-.044Z" transform="translate(-406.773 -182.413)" fill="#fcc36f"/><path d="M516.641,311.366q.245.729.495,1.434h0C516.971,312.329,516.8,311.854,516.641,311.366Z" transform="translate(-406.915 -182.838)" fill="#fcc36f"/><path d="M541,314.269l-.43.06q.268.251.544.493c.016-.152.032-.3.049-.454Z" transform="translate(-420.022 -184.453)" fill="#fcc36f"/><path d="M518.891,317.7h0c.107.286.214.57.322.849C519.1,318.276,519,317.986,518.891,317.7Z" transform="translate(-408.149 -186.326)" fill="#fcc36f"/><path d="M517.984,308.567l.006,0a4.915,4.915,0,0,0,1.175-.577c-.416-.6-.83-1.191-1.239-1.771a.832.832,0,1,1,1.362-.958c.367.52.739,1.053,1.111,1.588a6.347,6.347,0,0,0,.865-1.494c-.715-.35-1.415-.672-2.09-.951a5.3,5.3,0,0,0-2.812,2.585l.014.044c.035.1.069.21.1.313.163.488.33.963.5,1.434A4.905,4.905,0,0,0,517.984,308.567Z" transform="translate(-406.655 -178.94)" fill="#fcc36f"/><path d="M534.378,314.41l-4.526.626q1.405,2.06,2.862,4.263c.548.829,1.107,1.684,1.672,2.553q.155-3.409.536-6.949Q534.646,314.66,534.378,314.41Z" transform="translate(-414.036 -184.331)" fill="#fcc36f"/><path d="M528.555,311.266c.06-.3.26-1.377.443-3.221l-.033-.016a7.477,7.477,0,0,1-1.258,2C527.989,310.442,528.27,310.848,528.555,311.266Z" transform="translate(-412.958 -180.959)" fill="#fcc36f"/><path d="M527.962,325.334q-1.494-2.322-2.964-4.545c-1.24-1.875-2.451-3.666-3.639-5.391a6.2,6.2,0,0,1-1.47.731h0l-.03.01a6.246,6.246,0,0,1-.96.232c.106.283.21.573.318.849.019.051.039.1.059.15.185.477.373.942.563,1.4.042.1.084.2.126.306q.29.692.586,1.355c.054.12.107.239.161.358.2.435.4.863.6,1.279.045.092.09.182.134.274q.26.533.524,1.045c.055.108.111.217.166.323.2.372.392.735.59,1.091q.107.193.215.383c.194.343.389.679.585,1.006.071.119.143.233.215.35q.234.381.47.747c.078.121.156.244.235.363.186.282.373.556.561.825.09.129.18.258.271.384.189.264.379.523.571.775.093.122.187.241.28.361q.21.269.421.526.2.24.393.471.22.258.441.506.158.177.315.349c.112.12.223.235.335.352C527.943,329.975,527.916,327.683,527.962,325.334Z" transform="translate(-407.936 -184.584)" fill="#fcfcfc"/><path d="M514.723,316.019a.831.831,0,0,1,.771.026,6.1,6.1,0,0,0,.653-.07c-.09-.239-.178-.482-.267-.726l-.119-.329-.068-.189a5.132,5.132,0,0,1-1.29-.022,12,12,0,0,0-.26,1.267c.182.028.366.047.549.06C514.7,316.032,514.711,316.024,514.723,316.019Z" transform="translate(-405.51 -184.672)" fill="#fcc36f"/><path d="M517.812,314.76l.068.189c-.022-.062-.044-.127-.065-.189Z" transform="translate(-407.566 -184.732)" fill="#fcc36f"/><path d="M518.256,315.986c.088.244.177.487.267.726h0C518.436,316.47,518.345,316.232,518.256,315.986Z" transform="translate(-407.805 -185.389)" fill="#fcc36f"/><path d="M519.234,314.691l.03-.01h0a6.205,6.205,0,0,0,1.47-.731c-.244-.354-.488-.711-.73-1.059a4.917,4.917,0,0,1-1.175.577l-.006,0a4.907,4.907,0,0,1-1.007.21c.022.062.044.128.065.189l.119.329c.089.246.18.484.271.725A6.253,6.253,0,0,0,519.234,314.691Z" transform="translate(-407.501 -183.655)" fill="#fcc36f"/><path d="M527.932,307.234q-.582-.3-1.149-.582a6.343,6.343,0,0,1-.865,1.494c.25.359.5.725.756,1.092A7.479,7.479,0,0,0,527.932,307.234Z" transform="translate(-411.96 -180.223)" fill="#fcc36f"/><path d="M539.836,313.208c-.431-.265-.859-.526-1.28-.776q.414.428.849.835Z" transform="translate(-418.902 -183.438)" fill="#fcc36f"/><path d="M533.449,309.911c-1.138-.677-2.233-1.289-3.292-1.843-.182,1.844-.383,2.922-.443,3.221l.058.084,4.526-.626Q533.864,310.339,533.449,309.911Z" transform="translate(-413.974 -180.978)" fill="#fcfcfc"/><path d="M523.7,356.1a19.9,19.9,0,0,1,2.977.668L518.841,331.5q-1.894-3.805-4.176-8.517-.445.858-.848,1.729c.044.754.122,1.548.237,2.383C515.377,339.981,519.388,349.46,523.7,356.1Z" transform="translate(-405.064 -188.137)" fill="#fcfcfc"/><path d="M541.017,364.284c.011.158.022.318.033.475A.823.823,0,0,0,541.017,364.284Z" transform="translate(-420.283 -211.861)" fill="#e36800"/><path d="M515.643,317.86a6.263,6.263,0,0,1-.8-.008.831.831,0,0,0-.357,1.093l.519,1.072c.313-.6.637-1.2.98-1.8A.828.828,0,0,0,515.643,317.86Z" transform="translate(-405.662 -186.37)" fill="#e36800"/><path d="M526.3,338.66a.828.828,0,0,0,1.537-.215c-.011-.158-.022-.317-.033-.475a.85.85,0,0,0-.044-.1q-1.6-2.929-4-7.7-2.363-4.7-5.617-11.442s1.067,3.443,3.2,10.313c.319.641.633,1.27.936,1.872Q524.7,335.736,526.3,338.66Z" transform="translate(-407.511 -186.287)" fill="#e36800"/><path d="M516.245,317.722a.831.831,0,0,0-.771-.026c-.011.005-.02.013-.03.018A6.263,6.263,0,0,0,516.245,317.722Z" transform="translate(-406.251 -186.298)" fill="#e36800"/><path d="M515.825,320.523q2.281,4.713,4.176,8.517-3.193-10.3-3.2-10.313C516.462,319.32,516.138,319.919,515.825,320.523Z" transform="translate(-406.379 -186.606)" fill="#e36800"/><path d="M545.561,381.277a49.7,49.7,0,0,1,5.376-2.9,89.05,89.05,0,0,1,11.763-4.865q-6.236-2.289-7.66-7.579a14.009,14.009,0,0,1-2.353-.049l-.018,0c-.28-.03-.562-.067-.843-.114l-.009,0c-.264-.044-.528-.1-.791-.158l-.086-.019c-.245-.058-.49-.124-.735-.2l-.191-.057c-.232-.071-.464-.148-.7-.232-.069-.025-.139-.052-.207-.079q-.279-.106-.557-.224c-.079-.033-.158-.065-.236-.1-.207-.092-.414-.19-.62-.293-.1-.049-.195-.1-.292-.148-.2-.106-.407-.216-.61-.333-.032-.018-.064-.034-.1-.052-1.123,3.714-2.8,6.3-3.38,9.225.4,2.766.863,5.333,1.347,7.665A5.079,5.079,0,0,1,545.561,381.277Z" transform="translate(-420.998 -211.041)" fill="#e36800"/><path d="M571.07,366.11q1.422,5.29,7.66,7.579.924-.281,1.711-.464v0l.6-.662a64.982,64.982,0,0,0-3.416-8.377A16.246,16.246,0,0,1,571.07,366.11Z" transform="translate(-436.452 -211.497)" fill="#e36800"/><path d="M593.254,384.681c.266-.062.523-.118.767-.164-.053-.167-.108-.333-.162-.5l-.6.662Z" transform="translate(-448.886 -222.667)" fill="#e36800"/><path d="M565.5,368.628a14.013,14.013,0,0,0,2.353.049l0-.008A13.934,13.934,0,0,1,565.5,368.628Z" transform="translate(-433.633 -214.254)" fill="#e36800"/><path d="M556.22,327.464q1.811,2.607,3.124,4.788a.831.831,0,0,1-1.427.854q-1.034-1.72-2.427-3.765a26.947,26.947,0,0,0,6.193,12.921,22.919,22.919,0,0,1,1.438-8.708,64.877,64.877,0,0,0-4.326-5.4C557.734,326.935,556.853,326.846,556.22,327.464Z" transform="translate(-427.999 -191.023)" fill="#e36800"/><path d="M577.027,351.541q-4.771-1.912-3.925-6.871-.754-1.152-1.555-2.272a22.917,22.917,0,0,0-1.438,8.708,23.8,23.8,0,0,0,2.252,2.174,14.632,14.632,0,0,1-1.866.238l0,.008a16.246,16.246,0,0,0,6.559-1.926Z" transform="translate(-436.002 -199.526)" fill="#e36800"/><path d="M580.988,354.649a64.984,64.984,0,0,0-3.925-6.871Q576.221,352.734,580.988,354.649Z" transform="translate(-439.846 -202.61)" fill="#e36800"/><path d="M551.322,363.867c.032.019.064.034.1.052l-.095-.056Z" transform="translate(-425.929 -211.644)" fill="#e36800"/><path d="M559.663,347.537a12.39,12.39,0,0,1-.386-2.412,26.949,26.949,0,0,1-6.193-12.921l-.109-.16q-.049.2-.089.413c-.386,2.086-.321,4.861-.593,8a24.45,24.45,0,0,1-.968,5.026l.095.056c.2.117.406.227.609.333.1.051.195.1.292.148.206.1.413.2.62.293.078.035.157.067.236.1q.278.118.557.224c.069.026.138.054.207.079.232.084.464.16.7.232l.191.057c.245.071.49.137.735.2l.086.019c.264.06.528.114.791.158l.009,0c.281.047.563.084.843.114l.018,0A13.931,13.931,0,0,0,559.663,347.537Z" transform="translate(-425.7 -193.72)" fill="#e36800"/><path d="M572.4,365.187a23.8,23.8,0,0,1-2.252-2.174,12.385,12.385,0,0,0,.386,2.412A14.624,14.624,0,0,0,572.4,365.187Z" transform="translate(-436.184 -211.1)" fill="#e36800"/><path d="M543.036,385.711a11.878,11.878,0,0,0,1.143,7.573c.071.03.137.061.2.092C543.9,391.044,543.436,388.477,543.036,385.711Z" transform="translate(-421.236 -223.342)" fill="#e36800"/><path d="M544.545,340a.83.83,0,0,0,.264-1.143q-2.255-3.6-4.355-6.825-.067,1.469-.1,2.912,1.509,2.346,3.043,4.792A.829.829,0,0,0,544.545,340Z" transform="translate(-419.802 -193.952)" fill="#e36800"/><path d="M531.33,323.818q.028-1.442.1-2.912c-.565-.869-1.123-1.723-1.672-2.553q-1.457-2.2-2.862-4.263l-.077.011s.008-.038.019-.1c-.285-.418-.566-.825-.848-1.233a6.528,6.528,0,0,1-1.259,1.108c1.188,1.725,2.4,3.517,3.639,5.391Q529.836,321.5,531.33,323.818Z" transform="translate(-411.189 -183.328)" fill="#e36800"/><path d="M522.329,307.533c-.372-.535-.744-1.068-1.111-1.588a.832.832,0,1,0-1.362.958q.615.871,1.239,1.772A5.339,5.339,0,0,0,522.329,307.533Z" transform="translate(-408.542 -179.628)" fill="#e36800"/><path d="M524.987,311.28c-.253-.367-.505-.732-.756-1.092A5.34,5.34,0,0,1,523,311.329c.242.348.487.7.73,1.059A6.528,6.528,0,0,0,524.987,311.28Z" transform="translate(-410.361 -182.171)" fill="#e36800"/><path d="M529.669,315.788l.077-.011-.058-.084C529.677,315.75,529.669,315.788,529.669,315.788Z" transform="translate(-414.064 -185.246)" fill="#e36800"/><path d="M538.51,304.885c.25.07.5.144.748.225A.825.825,0,0,0,538.51,304.885Z" transform="translate(-418.891 -179.31)" fill="#e36800"/><path d="M547.28,319.031c.1.235.188.47.282.706.042.479.1.956.174,1.432a3.383,3.383,0,0,1,.784-1.513q-.537-.772-1.116-1.581-1.5-2.1-3.35-4.505l-1.9.262q.71.921,1.379,1.807a23.7,23.7,0,0,0,2.417,1.582Q546.57,318.15,547.28,319.031Z" transform="translate(-420.739 -183.866)" fill="#e36800"/><path d="M549.449,322.567c-.094-.236-.187-.471-.282-.706q-.711-.881-1.325-1.81a23.709,23.709,0,0,1-2.417-1.582q1.337,1.771,2.511,3.407.87,1.213,1.631,2.327c.017-.071.037-.136.056-.2C549.551,323.523,549.49,323.046,549.449,322.567Z" transform="translate(-422.586 -186.603)" fill="#e36800"/><path d="M537.112,306.232q1.054,1.331,2.028,2.6l1.9-.262q-1.235-1.613-2.621-3.363a.835.835,0,0,0-.068-.071c-.248-.081-.5-.155-.748-.225a.824.824,0,0,0-.487,1.325Z" transform="translate(-417.939 -179.23)" fill="#fcfcfc"/><path d="M558.984,333.907a.832.832,0,0,0,.287-1.14q-1.31-2.18-3.124-4.788a3.383,3.383,0,0,0-.784,1.513c.018.121.033.242.053.364q1.393,2.044,2.428,3.765A.831.831,0,0,0,558.984,333.907Z" transform="translate(-428.033 -191.799)" fill="#e36800"/><path d="M555.23,331.765l.109.16c-.02-.121-.035-.242-.053-.364C555.267,331.629,555.247,331.694,555.23,331.765Z" transform="translate(-428.07 -193.934)" fill="#e36800"/><path d="M765.078,327.324a19.893,19.893,0,0,1,4.616,1.1A17.882,17.882,0,0,0,765.078,327.324Z" transform="translate(-542.842 -191.59)" fill="#b1a12e"/><path d="M787.032,335.747a30.7,30.7,0,0,1,4.3,3.629A28.231,28.231,0,0,0,787.032,335.747Z" transform="translate(-554.879 -196.127)" fill="#b1a12e"/><path d="M584.948,429.943q1.45-.819,2.938-1.571-1.369.689-2.707,1.437C585.1,429.852,585.025,429.9,584.948,429.943Z" transform="translate(-444.268 -246.934)" fill="#b1a12e"/><path d="M753.539,327.975c-.046.01-.093.018-.139.029l.014,0C753.456,328,753.5,327.984,753.539,327.975Z" transform="translate(-536.662 -191.978)" fill="#b1a12e"/><path d="M592.152,427.836c.193-.1.389-.189.582-.284l.023-.018C592.555,427.633,592.354,427.735,592.152,427.836Z" transform="translate(-448.287 -246.525)" fill="#b1a12e"/><path d="M617.434,417.462c-.5.141-.987.289-1.476.441l.014.008Q616.7,417.679,617.434,417.462Z" transform="translate(-461.302 -241)" fill="#b1a12e"/><path d="M593.531,427.048c.264-.13.528-.26.794-.387-.258.122-.515.243-.771.368Z" transform="translate(-449.037 -246.044)" fill="#b1a12e"/><path d="M752.528,328.045l-.014,0c-.216.049-.433.106-.648.166C752.085,328.148,752.307,328.1,752.528,328.045Z" transform="translate(-535.797 -192.012)" fill="#b1a12e"/><path d="M689.718,502.234a4.43,4.43,0,0,0,.376-1.6A5.161,5.161,0,0,1,689.718,502.234Z" transform="translate(-501.756 -286.522)" fill="#b1a12e"/><path d="M569.317,500.29l.187.367c-.064-.126-.123-.25-.186-.375Z" transform="translate(-435.787 -286.385)" fill="#b1a12e"/><path d="M718.242,336.549a24.462,24.462,0,0,0-4.1,4.5c-4.354,6.075-7.355,14.866-9.5,24.174,2.479-10.243,5.6-18.314,9.5-24.174A26.294,26.294,0,0,1,718.242,336.549Z" transform="translate(-509.345 -195.716)" fill="#b1a12e"/><path d="M563.47,488.318l0,.011,0,.015c.77,1.624,1.6,3.307,2.472,5.035v-.008Q564.651,490.824,563.47,488.318Z" transform="translate(-432.515 -279.613)" fill="#b1a12e"/><path d="M563.464,488.358h0l0-.015h0Z" transform="translate(-432.585 -279.859)" fill="#b1a12e"/><path d="M563.47,488.326l0-.011v0Z" transform="translate(-432.588 -279.842)" fill="#b1a12e"/><path d="M553.249,465.656a6.137,6.137,0,0,1-1.205-2.566A5.125,5.125,0,0,0,553.249,465.656Z" transform="translate(-426.294 -265.911)" fill="#b1a12e"/><path d="M556.031,449.432a10.726,10.726,0,0,0-2.851,3.256A12.516,12.516,0,0,1,556.031,449.432Z" transform="translate(-426.871 -258.4)" fill="#b1a12e"/><path d="M557.584,475.379l.007,0c-.29-.653-.568-1.3-.847-1.948Q557.144,474.378,557.584,475.379Z" transform="translate(-428.879 -271.6)" fill="#b1a12e"/><path d="M558.74,478.04l-.007,0c.612,1.392,1.281,2.851,2,4.364l0-.013h0l0-.013C560.047,480.924,559.378,479.476,558.74,478.04Z" transform="translate(-429.936 -274.018)" fill="#b1a12e"/><path d="M561.179,447.461l-.123-.03c.039.013.079.025.117.038Z" transform="translate(-431.262 -257.439)" fill="#726300"/><path d="M560.119,447.2a4.6,4.6,0,0,0-.683-.168h0v0C559.663,447.09,559.891,447.146,560.119,447.2Z" transform="translate(-430.357 -257.215)" fill="#726300"/><path d="M570.206,435.871a70.094,70.094,0,0,1,6.227-3.963c.077-.044.153-.091.231-.135A69.224,69.224,0,0,0,570.206,435.871Z" transform="translate(-436.088 -248.695)" fill="#726300"/><path d="M561.6,447.616l.05-.041-.308-.074-.006.008C561.424,447.542,561.511,447.578,561.6,447.616Z" transform="translate(-431.409 -257.474)" fill="#726300"/><path d="M560.522,447.521q-.3.4-.593.807c.283-.237.571-.468.857-.7C560.7,447.589,560.612,447.553,560.522,447.521Z" transform="translate(-430.624 -257.456)" fill="#726300"/><path d="M588.36,535.027l0-.007-.129-.22C588.273,534.876,588.315,534.951,588.36,535.027Z" transform="translate(-446.151 -305.306)" fill="#f6ea89"/><path d="M554.9,469.164l.012.019,0,.009,0,0Z" transform="translate(-427.89 -269.349)" fill="#f6ea89"/><path d="M551.964,459.387a4.356,4.356,0,0,1,.505-2.247A3.915,3.915,0,0,0,551.964,459.387Z" transform="translate(-426.261 -262.665)" fill="#f6ea89"/><path d="M555,469.292c-.02-.024-.037-.047-.057-.071l0,0c.246.588.508,1.182.763,1.773C555.455,470.416,555.217,469.843,555,469.292Z" transform="translate(-427.891 -269.303)" fill="#f6ea89"/><path d="M566.847,453l0-.005,0-.007Z" transform="translate(-434.439 -260.483)" fill="#f6ea89"/><path d="M567.291,436.225q-.874.629-1.728,1.287l.026.011a75.9,75.9,0,0,1,8.162-5.431,70.087,70.087,0,0,0-6.227,3.963Z" transform="translate(-433.495 -248.815)" fill="#f6ea89"/><path d="M619.6,417.356l-.146.045.149-.04Z" transform="translate(-463.262 -240.958)" fill="#f6ea89"/><path d="M562.077,446.086l.014,0q.736-.585,1.484-1.154l-.026-.011Q562.806,445.495,562.077,446.086Z" transform="translate(-431.782 -256.018)" fill="#f6ea89"/><path d="M561.958,447.717l.012,0,.052-.042-.014,0Z" transform="translate(-431.758 -257.573)" fill="#f6ea89"/><path d="M560.786,447.773c-.286.233-.574.463-.857.7.287-.235.579-.465.869-.7Z" transform="translate(-430.623 -257.599)" fill="#f6ea89"/><path d="M800.783,348.245q.783.924,1.51,1.917Q801.576,349.172,800.783,348.245Z" transform="translate(-562.556 -203.026)" fill="#f6ea89"/><path d="M805.781,354.8c-.016-.023-.033-.045-.048-.068l.047.071Z" transform="translate(-565.344 -206.641)" fill="#f6ea89"/><path d="M764.655,327.283c-.063-.006-.127-.007-.191-.012.086.007.173.014.259.022Z" transform="translate(-542.719 -191.593)" fill="#f6ea89"/><path d="M780.614,332.354a19.9,19.9,0,0,0-4.607-2.419,22.6,22.6,0,0,1,4.657,2.455Z" transform="translate(-548.824 -192.98)" fill="#f6ea89"/><path d="M743.767,329.834c-.034.014-.068.025-.1.039a15.464,15.464,0,0,0-2.831,1.516l.015.005A16.669,16.669,0,0,1,743.767,329.834Z" transform="translate(-529.647 -192.951)" fill="#f6ea89"/><path d="M690.608,445.074c1.146-8.2,2.351-25.13,5.926-40.631C693.863,415.475,691.94,429.025,690.608,445.074Z" transform="translate(-502.012 -232.146)" fill="#f6ea89"/><path d="M739.249,333.519l-.015-.005q-.591.4-1.17.86C738.456,334.066,738.851,333.784,739.249,333.519Z" transform="translate(-528.21 -194.989)" fill="#f6ea89"/><path d="M688.948,504.694a1.044,1.044,0,0,1-.459.435A.876.876,0,0,0,688.948,504.694Z" transform="translate(-501.079 -288.799)" fill="#f6ea89"/><path d="M588.2,427.787l.1-.052c.2-.1.4-.2.606-.3l.095-.073q-1.785.881-3.512,1.864Q586.832,428.475,588.2,427.787Z" transform="translate(-444.549 -246.368)" fill="#271f00"/><path d="M593.586,422.32c.256-.125.513-.247.771-.368l.323-.153q.579-.271,1.164-.53c.148-.066.3-.134.444-.2.315-.138.632-.27.949-.4.585-.245,1.173-.485,1.764-.714l0,0q2-.777,4.045-1.435l-.014-.008a63.808,63.808,0,0,0-9.355,3.739Z" transform="translate(-448.785 -241.442)" fill="#271f00"/><path d="M597.727,398.091l.031-.008-.051-.046Z" transform="translate(-451.349 -230.371)" fill="#271f00"/><path d="M591.9,428.3l.1-.052" transform="translate(-448.167 -246.927)" fill="none" stroke="#271f00" stroke-linecap="round" stroke-linejoin="round" stroke-width="1"/><path d="M599.375,424.574c-.149.065-.3.133-.444.2" transform="translate(-452.007 -244.907)" fill="none" stroke="#271f00" stroke-linecap="round" stroke-linejoin="round" stroke-width="1"/><path d="M595.411,426.453l.323-.153" transform="translate(-450.082 -245.855)" fill="none" stroke="#271f00" stroke-linecap="round" stroke-linejoin="round" stroke-width="1"/><path d="M610.473,418.535l-.013-.008q-2.047.655-4.045,1.435Q608.42,419.187,610.473,418.535Z" transform="translate(-455.988 -241.546)" fill="#271f00"/><path d="M603.993,421.929c-.592.229-1.179.469-1.764.714" transform="translate(-453.771 -243.438)" fill="none" stroke="#271f00" stroke-linecap="round" stroke-linejoin="round" stroke-width="1"/><path d="M569.653,441.644l.234-.169" transform="translate(-435.97 -254.169)" fill="none" stroke="#271f00" stroke-linecap="round" stroke-linejoin="round" stroke-width="1"/></svg>